<svg width="16" height="17" viewBox="0 0 16 17" fill="none" xmlns="http://www.w3.org/2000/svg">
<path d="M15.9607 8.50256C15.9803 8.54529 15.9803 8.58802 15.9852 8.63075C15.9852 8.64975 15.9951 8.66399 15.9951 8.68298C15.9951 8.70198 15.9852 8.71622 15.9852 8.73521C15.9803 8.77794 15.9754 8.82068 15.9557 8.86341C15.9361 8.91089 15.9066 8.94887 15.8722 8.98686C15.8623 8.99636 15.8623 9.0106 15.8525 9.0201L10.6306 14.0625C10.4388 14.2477 10.1291 14.2477 9.93731 14.0625C9.74554 13.8774 9.74554 13.5782 9.93731 13.3931L14.3233 9.15779L0.491703 9.15779C0.221266 9.15779 0 8.94413 0 8.68298C0 8.42184 0.221266 8.20818 0.491703 8.20818L14.3282 8.20818L9.94222 3.97291C9.75046 3.78773 9.75046 3.48861 9.94222 3.30343C10.0356 3.21322 10.1586 3.16574 10.2864 3.16574C10.4192 3.16574 10.5421 3.21322 10.6306 3.30343L15.8525 8.34587C15.8623 8.35537 15.8672 8.36486 15.8722 8.37436C15.9115 8.41709 15.941 8.45508 15.9607 8.50256Z" fill="#D2D2D6"/>
</svg>
