<svg width="16" height="12" viewBox="0 0 16 12" fill="none" xmlns="http://www.w3.org/2000/svg">
<path d="M15.9607 5.53552C15.9804 5.57825 15.9804 5.62098 15.9853 5.66371C15.9853 5.68271 15.9951 5.69695 15.9951 5.71594C15.9951 5.73493 15.9853 5.74918 15.9853 5.76817C15.9804 5.8109 15.9755 5.85364 15.9558 5.89637C15.9361 5.94385 15.9066 5.98183 15.8722 6.01982C15.8624 6.02931 15.8624 6.04356 15.8525 6.05305L10.6307 11.0955C10.4389 11.2807 10.1291 11.2807 9.93736 11.0955C9.7456 10.9103 9.7456 10.6112 9.93736 10.426L14.3233 6.19075L0.491756 6.19075C0.22132 6.19075 5.34058e-05 5.97709 5.34058e-05 5.71594C5.34058e-05 5.4548 0.22132 5.24114 0.491756 5.24114L14.3283 5.24114L9.94228 1.00587C9.75051 0.820693 9.75051 0.521564 9.94228 0.33639C10.0357 0.246177 10.1586 0.198697 10.2865 0.198697C10.4192 0.198697 10.5422 0.246177 10.6307 0.33639L15.8525 5.37883C15.8624 5.38833 15.8673 5.39782 15.8722 5.40732C15.9115 5.45005 15.941 5.48804 15.9607 5.53552Z" fill="#F1F1F1"/>
</svg>
