<svg width="16" height="12" viewBox="0 0 16 12" fill="none" xmlns="http://www.w3.org/2000/svg">
<path d="M15.9607 5.50256C15.9803 5.54529 15.9803 5.58802 15.9852 5.63075C15.9852 5.64975 15.9951 5.66399 15.9951 5.68298C15.9951 5.70198 15.9852 5.71622 15.9852 5.73521C15.9803 5.77794 15.9754 5.82068 15.9557 5.86341C15.9361 5.91089 15.9066 5.94887 15.8722 5.98686C15.8623 5.99635 15.8623 6.0106 15.8525 6.0201L10.6306 11.0625C10.4388 11.2477 10.1291 11.2477 9.93731 11.0625C9.74554 10.8774 9.74554 10.5782 9.93731 10.3931L14.3233 6.15779L0.491703 6.15779C0.221266 6.15779 0 5.94413 0 5.68298C0 5.42184 0.221266 5.20818 0.491703 5.20818L14.3282 5.20818L9.94222 0.972908C9.75046 0.787734 9.75046 0.488606 9.94222 0.303431C10.0356 0.213218 10.1586 0.165738 10.2864 0.165738C10.4192 0.165738 10.5421 0.213218 10.6306 0.303431L15.8525 5.34587C15.8623 5.35537 15.8672 5.36486 15.8722 5.37436C15.9115 5.41709 15.941 5.45508 15.9607 5.50256Z" fill="#4E2583"/>
</svg>
