<svg width="16" height="16" viewBox="0 0 16 16" fill="none" xmlns="http://www.w3.org/2000/svg">
<g clip-path="url(#clip0)">
<path d="M8.00838 0C3.58534 0 0 3.58534 0 8.00838C0 12.4314 3.58534 16.0168 8.00838 16.0168C12.4314 16.0168 16.0168 12.4314 16.0168 8.00838C16.0168 3.58534 12.4147 0 8.00838 0ZM8.00838 15.2963C3.98743 15.2963 0.703665 12.0126 0.703665 7.99162C0.703665 3.97068 3.97068 0.703665 8.00838 0.703665C12.0461 0.703665 15.3131 3.98743 15.3131 8.00838C15.3131 12.0293 12.0293 15.2963 8.00838 15.2963Z" fill="white"/>
<path d="M11.3758 4.62396C11.2418 4.48993 11.024 4.48993 10.8899 4.62396L8.00825 7.50564L5.10982 4.62396C4.97579 4.48993 4.75799 4.48993 4.62396 4.62396C4.48993 4.75799 4.48993 4.97579 4.62396 5.10982L7.50564 7.9915L4.62396 10.8899C4.48993 11.024 4.48993 11.2418 4.62396 11.3758C4.69098 11.4428 4.77475 11.4763 4.87527 11.4763C4.95904 11.4763 5.05956 11.4428 5.12658 11.3758L8.00825 8.49412L10.8899 11.3758C10.9569 11.4428 11.0407 11.4763 11.1412 11.4763C11.225 11.4763 11.3255 11.4428 11.3925 11.3758C11.5266 11.2418 11.5266 11.024 11.3925 10.8899L8.49412 8.00825L11.3758 5.12658C11.5098 4.97579 11.5098 4.75799 11.3758 4.62396Z" fill="white"/>
</g>
<defs>
<clipPath id="clip0">
<rect width="16" height="16" fill="white"/>
</clipPath>
</defs>
</svg>
