<svg width="162" height="194" viewBox="0 0 162 194" fill="none" xmlns="http://www.w3.org/2000/svg">
<path fill-rule="evenodd" clip-rule="evenodd" d="M69.0104 38.7594C66.6094 35.9333 64.9844 32.4699 65.2559 28.5891C66.0383 17.4073 81.5606 19.8672 84.58 25.5108C87.5994 31.1543 87.2406 45.4698 83.3383 46.4784C81.782 46.8807 78.4668 45.8953 75.0927 43.8559L77.2105 58.8808H64.7053L69.0104 38.7594Z" fill="#B28B67"/>
<path fill-rule="evenodd" clip-rule="evenodd" d="M77.4523 19.0059C75.8041 18.7348 71.3664 18.5485 70.548 18.5486C70.025 18.5486 69.4582 18.6684 69.1485 18.1869C68.8948 17.7925 68.9877 17.1256 68.912 16.668C68.8241 16.1364 68.6993 15.6117 68.573 15.0882C68.2136 13.5988 67.6702 12.1819 66.9098 10.8515C65.483 8.35554 63.3928 6.40047 60.754 5.26281C57.8401 4.00666 54.5427 3.71903 51.4083 3.97382C48.0541 4.24642 45.0178 5.35676 41.8509 6.40167C38.833 7.39737 35.672 7.7893 32.5156 7.30306C29.3355 6.81321 26.9325 5.08477 24.2501 3.44427C21.504 1.7648 18.3658 0.666359 15.1195 0.918864C12.0892 1.15465 9.29625 2.40935 6.79046 4.08546C4.44601 5.65366 2.51154 7.54041 1.41939 10.1959C0.244474 13.0523 0.245553 16.1878 2.17763 18.7122C4.9781 22.3714 10.1771 23.3177 14.5024 23.2236C17.0042 23.1694 19.4613 22.7114 21.8234 21.8783C24.9734 20.7673 27.6955 18.8841 30.6425 17.3562C32.0255 16.6392 33.4551 16.0504 34.9535 15.6262C36.4075 15.2144 37.8397 15.0256 39.1562 15.9064C40.5489 16.8382 41.7969 17.7536 43.3902 18.3369C44.9186 18.8965 46.5376 19.2095 48.166 19.1969C51.3344 19.1723 54.4576 18.1824 57.5348 17.5193C60.0442 16.9787 62.7291 16.4399 65.2874 16.9596C66.3549 17.1765 67.9142 17.6242 68.2998 18.7368C61.8104 19.9161 59.2617 27.9641 61.0912 33.872C62.0786 37.0607 68.0139 40.7883 70.3216 39.112C71.7836 38.0499 70.896 36.6557 70.3216 35.7353C69.2216 33.9727 68.8452 31.7086 70.8807 30.4814C72.6365 29.423 74.4826 31.9364 74.5175 31.9336C75.0001 31.8955 79.1699 29.5307 82.0429 26.0799C84.877 26.2484 85.307 24.3744 84.6303 22.8419C83.9536 21.3093 79.7295 19.3806 77.4523 19.0059Z" fill="#302F3C"/>
<path fill-rule="evenodd" clip-rule="evenodd" d="M135.313 187.238C128.637 172.42 123.808 159.518 121.87 152.711C118.552 141.055 116.028 130.799 115.39 126.969C113.868 117.835 127.094 117.303 128.842 121.842C131.488 128.713 136.107 151.286 141.657 185.381L135.313 187.238ZM57.8734 140.737C63.9987 138.309 85.4494 130.711 95.795 128.562C98.768 127.944 101.649 127.37 104.358 126.851C112.411 125.31 116.583 139.877 108.827 140.996C89.5134 143.784 62.1327 146.662 59.7895 146.985C56.5055 147.438 54.0238 142.263 57.8734 140.737Z" fill="#B28B67"/>
<path fill-rule="evenodd" clip-rule="evenodd" d="M109.301 122.841L76.1684 105.928V102.246H80.1087C112.163 110.437 128.542 115.686 129.247 117.993C129.255 118.018 129.262 118.043 129.268 118.068C129.284 118.089 129.3 118.11 129.316 118.132C135.668 126.892 139.473 169.663 140.721 172.865L128.549 174.686C123.892 157.372 108.995 145.31 109.39 124.572C109.284 123.964 109.257 123.387 109.301 122.841Z" fill="#A7A6B1"/>
<path fill-rule="evenodd" clip-rule="evenodd" d="M78.9212 132.886C75.8897 132.277 73.098 131.734 70.7092 131.314C55.2791 128.6 50.7795 120.317 53.4399 102.246H81.8697C86.5137 103.584 110.649 113.733 123.171 119.131C131.459 122.704 128.846 135.584 124.153 138.936C124.127 139.141 124.043 139.281 123.892 139.344C98.645 149.837 78.6721 144.331 72 146.09L68.9139 136.328L78.9212 132.886Z" fill="#D2D2D6"/>
<path fill-rule="evenodd" clip-rule="evenodd" d="M59.9743 139.184C58.3189 139.344 57.1437 139.594 56.4486 139.934C55.6033 140.348 54.4383 141.092 52.9536 142.168C53.4311 143.15 57.7223 151.977 65.8273 168.649C68.4333 168.225 69.4665 167.228 68.9269 165.657C68.3872 164.086 67.952 162.774 67.6212 161.722L67.1162 146.733C67.1064 146.445 66.8653 146.219 66.5775 146.229C66.5725 146.229 66.5676 146.23 66.5627 146.23L64.2619 146.376C62.9553 145.317 62.0933 144.358 61.6762 143.5C61.3372 142.803 61.1503 141.702 61.1154 140.199L61.1154 140.199C61.102 139.622 60.6243 139.165 60.0486 139.18C60.0238 139.18 59.999 139.182 59.9743 139.184Z" fill="#A7A6B1"/>
<path fill-rule="evenodd" clip-rule="evenodd" d="M132.274 184.488C131.691 186.048 131.4 187.216 131.4 187.991C131.4 188.933 131.557 190.308 131.87 192.115C132.96 192.115 142.756 192.115 161.258 192.115C162.022 189.584 161.581 188.217 159.935 188.015C158.29 187.813 156.923 187.631 155.835 187.468L142.175 181.362C141.913 181.244 141.604 181.363 141.487 181.626C141.485 181.631 141.483 181.635 141.481 181.64L140.603 183.776C139.08 184.488 137.842 184.845 136.89 184.845C136.116 184.845 135.048 184.531 133.685 183.905L133.685 183.905C133.161 183.664 132.543 183.894 132.303 184.419C132.293 184.442 132.283 184.465 132.274 184.488Z" fill="#A7A6B1"/>
<path fill-rule="evenodd" clip-rule="evenodd" d="M108.474 87.9427L127.354 79.6282C130.661 76.3233 133.855 73.8115 136.935 72.0926C137.856 71.7986 139.429 71.7098 137.751 74.1686C136.072 76.6275 134.416 79.2896 135.087 80.1513C135.758 81.0131 137.701 80.0619 138.469 81.4633C138.981 82.3976 135.705 83.5151 128.642 84.816L114.502 95.6873L108.474 87.9427ZM32.1438 90.2328L42.8211 92.3572C32.0833 112.424 26.3248 123.059 25.5456 124.263C23.7924 126.972 25.4282 131.937 26.0324 134.552C22.2418 135.437 23.7367 129.716 18.9398 130.91C14.5613 132 10.849 134.798 6.76626 131.025C6.26432 130.561 5.89687 129.111 7.60825 128.367C11.8719 126.514 18.1711 123.044 19.1926 121.697C20.5855 119.86 24.9025 109.372 32.1438 90.2328Z" fill="#B28B67"/>
<path fill-rule="evenodd" clip-rule="evenodd" d="M71.8411 50.1731L76.3467 49.3981C86.1604 58.9442 90.1651 81.8786 96.7052 84.9143C102.889 87.7845 111.654 85.0071 122.073 81.2568L125.264 88.4057C115.797 98.676 95.6294 107.353 87.4545 102.399C74.3846 94.4799 71.3674 66.1938 71.8411 50.1731Z" fill="#7D5CA3"/>
<path fill-rule="evenodd" clip-rule="evenodd" d="M52.2 106.952C70.2658 106.952 83.5546 106.952 92.0665 106.952C93.8882 106.952 93.5449 104.314 93.2816 102.983C90.2424 87.6212 78.3784 71.062 78.3784 49.195L66.879 47.3867C57.3675 62.7265 54.0783 81.6128 52.2 106.952Z" fill="white"/>
<path fill-rule="evenodd" clip-rule="evenodd" d="M48.2238 91.3985C40.0967 106.099 33.2655 116.682 27.7301 123.149L19.3737 121.508C24.7565 88.0323 40.3443 63.3253 66.1372 47.3867H68.2127L70.6903 47.3867C81.0137 82.6748 83.8597 106.187 79.2282 117.924H43.3421C43.9099 109.336 45.7303 100.254 48.2238 91.3985H48.2238Z" fill="#9F88BF"/>
</svg>
