<svg width="198" height="280" viewBox="0 0 198 280" fill="none" xmlns="http://www.w3.org/2000/svg">
<g clip-path="url(#clip0)">
<path fill-rule="evenodd" clip-rule="evenodd" d="M149.232 29.2929C146.731 26.0894 145.101 22.2173 145.552 17.9639C146.853 5.70857 163.657 9.04488 166.719 15.3696C169.78 21.6943 168.815 37.4105 164.525 38.3596C162.814 38.7382 159.244 37.5201 155.651 35.1415L156.729 51.5599L143.737 51.228L149.232 29.2929Z" fill="#FBDAC8"/>
<path fill-rule="evenodd" clip-rule="evenodd" d="M152.647 9.46834C159.575 7.32648 168.351 10.4615 166.957 16.038C166.063 19.6188 161.866 21.2669 157.731 23.044C157.171 21.9706 156.056 21.2176 154.747 21.1686C152.818 21.0963 151.197 22.5801 151.128 24.4827C151.103 25.168 151.282 25.8142 151.612 26.3639C150.201 27.5161 149.184 28.9286 148.882 30.7987C146.678 30.7161 143.355 24.0355 144.758 17.8678C144.449 17.8905 144.135 17.8963 143.817 17.8844C139.117 17.7083 135.447 13.7097 135.621 8.95319C135.795 4.19671 139.746 0.483581 144.447 0.659686C149.107 0.834276 152.754 4.76593 152.647 9.46834Z" fill="#191847"/>
</g>
<path d="M162.913 32.7553L166.27 32.6182C166.296 33.1234 166.038 33.9703 164.984 34.1894C163.931 34.4085 163.209 33.4475 162.913 32.7553Z" fill="white"/>
<path d="M163.364 23.2999L161.235 23.9557C160.865 24.0697 160.661 24.4008 160.76 24.7281C160.859 25.0555 161.211 25.2155 161.581 25.1014L163.711 24.4457C164.081 24.3316 164.285 24.0006 164.186 23.6732C164.087 23.3458 163.689 23.2001 163.364 23.2999Z" fill="#302F3C"/>
<path d="M163.756 27.8979C164.077 27.8198 164.275 27.4954 164.198 27.1733C164.121 26.8513 163.799 26.6535 163.478 26.7316C163.158 26.8097 162.96 27.1341 163.036 27.4562C163.113 27.7783 163.435 27.976 163.756 27.8979Z" fill="#302F3C"/>
<path d="M168.101 24.2717L169.502 29.9177L167.76 30.3589" stroke="#302F3C" stroke-width="0.5"/>
<path d="M165.64 58.5105L177.82 81.765L164.388 81.1063L163.445 57.7529L165.64 58.5105Z" fill="#FBDAC8"/>
<path d="M146.482 48.2002L156.565 48.2002L162.419 121.9H142.238L146.482 48.2002Z" fill="white"/>
<path d="M125.813 264.572C125.813 264.572 123.032 266.796 123.537 269.612C124.041 272.428 124.772 279.049 124.772 279.049H127.635L127.553 272.873C127.57 272.477 133.684 279.049 134.725 279.049H149.865C149.865 279.049 150.873 274.882 141.978 273.548C133.082 272.214 125.813 264.572 125.813 264.572Z" fill="#6F6F79"/>
<path d="M132.384 261.772L134.433 267.191C134.937 268.673 135.929 269.941 137.23 270.781C138.677 271.72 140.937 273.021 144.304 274.026C140.189 277.583 133.636 273.861 129.895 271.242C128.074 269.958 126.773 268.047 126.236 265.873L125.375 261.772H132.384Z" fill="#FBDAC8"/>
<path d="M154.662 264.572C154.662 264.572 151.881 266.796 152.385 269.612C152.889 272.428 153.621 279.049 153.621 279.049H156.483L156.402 272.873C156.418 272.477 162.533 279.049 163.574 279.049H178.714C178.714 279.049 179.722 274.882 170.826 273.548C161.931 272.214 154.662 264.572 154.662 264.572Z" fill="#6F6F79"/>
<path d="M161.232 261.772L163.281 267.191C163.785 268.673 164.777 269.941 166.078 270.781C167.526 271.72 169.786 273.021 173.152 274.026C169.038 277.583 162.484 273.861 158.744 271.242C156.923 269.958 155.622 268.047 155.085 265.873L154.223 261.772H161.232Z" fill="#FBDAC8"/>
<path d="M137.847 121.9C137.847 121.9 135.961 132.918 146.84 187.069C138.026 215.297 152.142 262.514 152.142 262.514H162.419L169.412 121.917H137.847V121.9Z" fill="#F5CC02"/>
<path d="M156.516 48.2002L160.175 137.628L172.274 132.374C172.274 132.374 166.827 115.592 167.347 92.2718C165.493 75.4073 174.941 84.2842 163.363 51.8234C159.037 48.1837 156.516 48.2002 156.516 48.2002Z" fill="#7D5CA3"/>
<path d="M127.96 121.9C127.96 121.9 114.495 132.918 125.374 187.069C116.56 215.297 124.333 262.514 124.333 262.514H133.554L159.524 121.9H127.96Z" fill="#F9DA6E"/>
<path d="M146.484 40.625C146.484 40.625 135.117 47.0974 131.588 52.8781C128.222 58.3788 127.051 70.9119 126.726 82.078C126.287 97.3943 118.969 137.645 118.969 137.645H149.46L149.98 48.349L146.484 40.625Z" fill="#7D5CA3"/>
<path d="M134.692 52.8782C119.943 54.6239 126.919 93.1453 130.074 108.972C130.855 112.859 134.79 115.247 138.53 114.045C151.361 109.944 170.111 92.9148 170.111 92.9148L167.135 89.1269L142.238 95.0228C142.238 95.0228 151.8 50.8524 134.692 52.8782Z" fill="#FBDAC8"/>
<path d="M166.019 78.4421L157.247 107.702C156.986 108.547 157.542 109.421 158.412 109.541L177.315 112.134C178.008 112.23 178.656 111.803 178.862 111.117L187.551 81.8619C187.796 81.0147 187.24 80.1406 186.386 80.0235L167.58 77.4431C166.887 77.348 166.223 77.7721 166.019 78.4421Z" fill="#A7A6B1"/>
<path d="M164.191 79.7735L159.378 109.962C159.232 110.834 159.898 111.625 160.776 111.625H179.852C180.551 111.625 181.137 111.114 181.25 110.406L185.983 80.2347C186.113 79.3618 185.446 78.5713 184.584 78.5713H165.606C164.907 78.5713 164.305 79.0818 164.191 79.7735Z" fill="#D2D2D6"/>
<path d="M165.952 80.0961L159.315 109.927C159.116 110.789 159.733 111.62 160.61 111.675L179.649 112.862C180.347 112.906 180.962 112.433 181.119 111.733L187.674 81.9131C187.857 81.05 187.239 80.2195 186.379 80.1658L167.437 78.9842C166.739 78.9406 166.107 79.4127 165.952 80.0961Z" fill="#F1F1F1"/>
<path d="M185.365 93.4567C185.478 92.4027 185.381 91.7275 185.039 89.5371C184.584 86.6879 184.698 82.2083 181.82 84.4316C179.104 87.8901 178.778 91.5628 178.778 91.5628C178.226 93.5885 179.445 96.4047 180.6 97.9363L182.584 102.301C182.568 102.301 185.983 98.2822 185.365 93.4567Z" fill="#FBDAC8"/>
<defs>
<clipPath id="clip0">
<rect width="33.5006" height="50.5596" fill="white" transform="matrix(0.999299 0.0374384 -0.0365041 0.999334 135.936 0.34082)"/>
</clipPath>
</defs>
</svg>
