<svg width="526" height="251" viewBox="0 0 526 251" fill="none" xmlns="http://www.w3.org/2000/svg">
<g clip-path="url(#clip0)">
<path fill-rule="evenodd" clip-rule="evenodd" d="M445.058 65.5834C446.183 61.8154 448.824 58.8663 451.566 56.1642C456.904 50.9038 459.775 47.6513 461.678 39.9563C462.797 35.4307 463.936 30.635 467.484 27.3516C470.068 24.9605 474.515 22.9517 477.971 24.6638C483.287 27.8497 484.715 34.3876 484.179 40.242C483.514 47.498 480.139 51.9721 473.653 54.6447C469.999 56.1499 467.57 58.136 465.586 61.5968C464 64.3641 463.075 67.8293 461.081 70.338C458.1 74.0881 454.37 75.7552 449.772 75.1323C454.078 67.1765 459.11 59.1459 465.179 52.4475C465.747 51.7741 469.098 49.1965 468.422 48.0488C467.678 46.7851 464.238 51.5321 464.262 51.5034C462.498 53.5362 460.866 55.6963 459.264 57.8771C459.268 57.8792 459.273 57.8804 459.277 57.8826C457.627 60.1204 455.99 62.3912 454.384 64.6905C453.735 65.6631 453.103 66.6481 452.498 67.6578C451.61 69.1394 450.201 73.3445 448.748 74.2556C448.437 74.4503 448.149 74.5592 447.881 74.6041C446.889 76.2339 445.925 77.8768 445.007 79.5391C442.611 83.8806 440.555 88.4646 439.611 93.3662C439.336 94.7968 439.53 100.148 438.558 101.181C436.78 103.07 437.301 99.4323 437.407 98.3343C438.29 89.2418 441.541 81.4955 446.262 73.8515C444.812 71.9499 444.602 67.11 445.058 65.5834Z" fill="#F9DA6E"/>
<path fill-rule="evenodd" clip-rule="evenodd" d="M505.963 69.9786C504.089 67.7608 499.582 67.3845 496.826 67.533C493.415 67.7166 489.912 68.5502 486.667 69.5582C481.322 71.2184 476.128 74.2482 471.421 77.1807C470.854 77.534 463.864 81.7541 464.483 82.4947C465.096 83.2285 471.957 78.2156 473.486 77.3516C476.749 75.5074 479.742 73.3265 483.339 72.1086C487.063 70.8474 491.002 70.348 494.918 70.3824C495.42 70.3869 497.06 70.035 497.095 70.7816C497.13 71.5118 494.417 71.1309 493.939 71.1352C491.963 71.1535 489.975 71.3402 488.027 71.6839C484.378 72.328 480.948 73.6254 477.822 75.6155C478.694 77.6513 480.785 78.5901 482.978 78.0806C484.873 77.64 486.721 76.5539 488.577 76.2398C489.855 76.0236 491.135 76.1522 492.375 76.5138C495.644 77.4679 497.53 79.4223 501.125 78.0628C503.943 76.997 508.656 73.168 505.963 69.9786Z" fill="#F9DA6E"/>
<path fill-rule="evenodd" clip-rule="evenodd" d="M503.843 48.9896H502.956C503.018 47.8595 503.099 46.7313 503.29 45.6139C504.002 41.4253 506.232 35.2733 511.121 34.5935C511.301 34.5682 511.965 34.5639 512.768 34.6107C513.149 34.3993 513.576 34.2715 514.026 34.2421C518.188 33.9372 522.837 37.2729 524.845 40.7441C526.464 43.5428 526.191 47.2179 525.191 50.1912C524.522 52.1818 523.06 55.02 520.624 55.0477C517.575 55.0823 517.428 51.3397 517.369 49.1518C517.291 46.243 516.921 43.7091 514.613 41.7264C514.075 41.2646 513.487 40.8582 512.944 40.4027C512.094 39.6898 511.153 38.9598 511.044 37.7804C510.893 36.1532 511.817 35.8604 513.229 36.1627C513.47 36.2141 515.894 37.2947 515.535 36.4406C515.426 36.1797 515.026 35.9729 514.52 35.818C513.213 35.6768 511.654 35.513 511.205 35.6109C506.368 36.665 504.485 43.3206 503.984 47.5492C503.928 48.028 503.883 48.5084 503.843 48.9896H503.843Z" fill="#F9DA6E"/>
</g>
<path fill-rule="evenodd" clip-rule="evenodd" d="M333.797 47.4483C337.109 45.1888 339.783 42.0498 340.58 37.9447C342.877 26.1169 325.877 24.3112 321.129 29.322C316.382 34.3327 312.766 49.2947 316.586 51.4378C318.109 52.2924 321.868 52.2006 325.983 51.031L319.567 66.0339L332.71 69.546L333.797 47.4483Z" fill="#B3906B"/>
<path fill-rule="evenodd" clip-rule="evenodd" d="M329.236 36.2902C326.868 43.0969 324.605 46.2118 322.445 45.6348C319.206 44.7693 317.005 41.999 315.584 41.6192C314.548 41.3423 314.435 42.6879 314.866 43.8231C315.221 44.7598 317.777 46.2539 317.45 47.4713C317.123 48.6887 315.196 47.1644 315.002 47.8864C314.681 49.0807 313.695 51.2238 315.788 51.7832C317.907 52.3493 324.186 53.2081 326.064 50.3728C327.276 48.543 328.829 44.4954 330.723 38.23C330.856 38.2492 330.989 38.2764 331.121 38.3118C332.936 38.7969 334.016 40.6471 333.534 42.4445C333.288 43.3569 332.688 44.0803 331.918 44.508C332.393 45.7741 332.947 47.1122 333.616 48.5189C337.87 47.3197 342.307 41.6666 340.367 34.5786C340.182 31.3109 338.369 29.1072 335.918 27.6541C334.009 26.1908 331.807 25.4948 329.782 25.5252C326.009 24.8528 322.416 25.0863 321.305 25.4983C320.376 28.9562 320.777 30.163 326.581 31.617C327.802 32.7392 328.55 34.3097 329.236 36.2902Z" fill="#302F3C"/>
<path fill-rule="evenodd" clip-rule="evenodd" d="M326.324 115.27L298.481 185.364L279.807 244.624H272.433L300.982 115.27L326.324 115.27Z" fill="#765D43"/>
<path fill-rule="evenodd" clip-rule="evenodd" d="M331.93 115.27C332.227 139.901 336.55 173.064 337.241 174.6C337.702 175.623 353.6 188.64 384.936 213.651L379.857 219.057C342.884 197.613 323.541 185.462 321.83 182.602C319.264 178.312 310.908 138.834 304.2 115.27H331.93Z" fill="#B3906B"/>
<path fill-rule="evenodd" clip-rule="evenodd" d="M385.65 211.836C387.356 212.438 388.53 213.009 389.175 213.548C389.958 214.205 390.992 215.293 392.276 216.813C391.513 217.721 384.657 225.879 371.708 241.288C369.068 240.16 368.24 238.841 369.224 237.33C370.208 235.819 371.013 234.554 371.639 233.534L376.121 217.904C376.207 217.603 376.522 217.429 376.823 217.515C376.828 217.517 376.833 217.518 376.838 217.52L379.229 218.277C380.887 217.505 382.05 216.722 382.716 215.929C383.258 215.284 383.745 214.176 384.178 212.604L384.178 212.604C384.344 212.001 384.969 211.646 385.573 211.812C385.599 211.819 385.625 211.827 385.65 211.836Z" fill="#F1F1F1"/>
<path fill-rule="evenodd" clip-rule="evenodd" d="M282.827 241.942C283.461 243.634 283.779 244.9 283.779 245.739C283.779 246.761 283.608 248.251 283.267 250.211C282.081 250.211 271.416 250.211 251.273 250.211C250.441 247.466 250.921 245.985 252.712 245.766C254.504 245.547 255.992 245.349 257.177 245.173L272.048 238.553C272.334 238.426 272.669 238.554 272.797 238.84C272.799 238.845 272.801 238.85 272.803 238.855L273.759 241.17C275.417 241.943 276.765 242.329 277.802 242.329C278.644 242.329 279.807 241.989 281.292 241.31L281.292 241.31C281.861 241.049 282.535 241.299 282.796 241.867C282.807 241.892 282.817 241.917 282.827 241.942Z" fill="#F1F1F1"/>
<path fill-rule="evenodd" clip-rule="evenodd" d="M307.604 238.52L272.544 234.735L298.528 115.27H329.929L307.604 238.52Z" fill="#FAFAFA"/>
<path fill-rule="evenodd" clip-rule="evenodd" d="M377.684 204.929L354.687 232.005C330.465 205.69 316.343 188.52 312.322 180.494C308.301 172.469 304.686 150.727 301.478 115.27H336.831C338.583 146.463 339.764 162.786 340.375 164.238C340.985 165.689 353.421 179.253 377.684 204.929Z" fill="white"/>
<path fill-rule="evenodd" clip-rule="evenodd" d="M282.907 102.266L262.79 112.139C257.728 112.585 253.406 113.488 249.822 114.847C248.934 115.406 247.76 116.648 250.979 116.964C254.198 117.28 257.571 117.756 257.818 118.91C258.066 120.065 255.917 121.015 256.546 122.624C256.965 123.696 260.185 121.758 266.205 116.808L285.135 112.639L282.907 102.266ZM351.241 114.75L339.56 112.742C342.679 137.141 344.401 150.098 344.726 151.614C345.455 155.026 341.863 159.395 340.233 161.795C343.743 164.16 344.446 157.813 348.859 160.881C352.887 163.681 355.574 167.944 361.191 165.727C361.882 165.454 362.819 164.136 361.368 162.721C357.753 159.196 352.697 153.251 352.182 151.496C351.48 149.103 351.166 136.855 351.241 114.75Z" fill="#B3906B"/>
<path fill-rule="evenodd" clip-rule="evenodd" d="M326.658 60.2395L321.974 58.5665C301.335 70.8021 288.751 99.0691 264.019 110.865L268.154 118.31C307.086 120.322 322.904 85.9256 326.658 60.2395Z" fill="#F5CC02"/>
<path fill-rule="evenodd" clip-rule="evenodd" d="M337.052 124.281C317.688 120.875 303.445 118.369 294.321 116.765C292.368 116.421 293.232 113.683 293.764 112.319C299.907 96.5695 315.733 81.2119 319.84 57.9778L332.505 58.2246C339.819 76.3167 339.798 97.004 337.052 124.281Z" fill="#9F88BF"/>
<path fill-rule="evenodd" clip-rule="evenodd" d="M345.07 76.9552C346.95 76.7586 348.579 75.815 349.955 74.1244C355.888 66.8365 355.047 62.1015 350.492 59.7923C345.936 57.4831 341.11 59.7401 333.44 58.3908C333.023 58.3174 332.636 58.2762 332.28 58.2671L328.383 57.8073C310.72 93.1554 303.269 117.501 306.029 130.845L339.66 136.761C340.837 141.73 342.056 145.952 343.32 149.425L352.484 151.037C358.246 123.469 355.775 98.7745 345.07 76.9552Z" fill="#F9DA6E"/>
<path fill-rule="evenodd" clip-rule="evenodd" d="M335.728 116.317C333.115 124.928 330.268 131.011 327.185 134.564L339.666 136.76C338.294 130.963 336.981 124.149 335.728 116.317V116.317Z" fill="black" fill-opacity="0.1"/>
<path d="M322.136 34.2886L324.332 35.2383C324.714 35.4035 324.891 35.7797 324.745 36.1161C324.6 36.4526 324.204 36.5811 323.822 36.4159L321.626 35.4662C321.244 35.3011 321.067 34.9249 321.213 34.5884C321.358 34.252 321.801 34.1441 322.136 34.2886Z" fill="#302F3C"/>
<path d="M321.703 38.298C321.378 38.1574 321.228 37.7797 321.369 37.4546C321.509 37.1294 321.887 36.9798 322.212 37.1204C322.537 37.261 322.687 37.6386 322.546 37.9638C322.406 38.289 322.028 38.4386 321.703 38.298Z" fill="#302F3C"/>
<path d="M318.443 34.9984L314.789 40.0314L316.346 41.162" fill="#B3906B"/>
<path fill-rule="evenodd" clip-rule="evenodd" d="M315.278 39.9538L318.726 35.204L318.159 34.7928L314.3 40.109L316.141 41.4452L316.552 40.8787L315.278 39.9538Z" fill="#302F3C"/>
<g clip-path="url(#clip1)">
<path d="M99.2807 225.001C99.2807 225.001 179.875 164.741 149.409 129.996C133.528 111.864 98.7406 148.346 98.7406 148.346C98.7406 148.346 60.8204 113.818 47.8562 130.756C21.1716 165.501 99.2807 225.001 99.2807 225.001Z" fill="#F5CC02"/>
<path d="M76.3774 198.833V156.814L83.2916 173.535H104.25L116.674 198.616L118.727 156.38L125.425 172.992H144.007C144.655 172.992 145.195 172.449 145.195 171.798C145.195 171.146 144.655 170.603 144.007 170.603H127.046L116.89 145.305L114.73 189.279L105.763 171.146H84.9121L74.0006 144.762V189.061L64.7096 171.255H46.6678C46.0196 171.255 45.4794 171.798 45.4794 172.449C45.4794 173.1 46.0196 173.643 46.6678 173.643H63.1971L76.3774 198.833Z" fill="white"/>
</g>
<defs>
<clipPath id="clip0">
<rect width="89" height="78" fill="white" transform="matrix(-1 0 0 1 526 24)"/>
</clipPath>
<clipPath id="clip1">
<rect width="113.977" height="100" fill="white" transform="matrix(-1 0 0 1 156.215 125)"/>
</clipPath>
</defs>
</svg>
