<svg width="133" height="270" viewBox="0 0 133 270" fill="none" xmlns="http://www.w3.org/2000/svg">
<g clip-path="url(#clip0)">
<path d="M58.8384 257.406C58.8384 257.406 62.1659 259.314 72.3705 262.229C74.623 262.876 78.4795 261.871 78.1894 268.927C73.4285 268.927 65.8007 268.927 65.8007 268.927H55.5108H49.9478C49.9478 268.927 48.395 258.718 51.6543 257.406C54.6576 257.406 58.8384 257.406 58.8384 257.406Z" fill="black"/>
<path d="M24.0103 258.461C24.0103 258.461 27.3378 260.37 37.5423 263.284C39.7948 263.932 43.6514 262.926 43.3613 269.982C38.6003 269.982 30.9725 269.982 30.9725 269.982H20.6827H15.1197C15.1197 269.982 13.5668 259.773 16.8261 258.461C19.8295 258.461 24.0103 258.461 24.0103 258.461Z" fill="black"/>
<path d="M116.721 59.0385C117.285 59.1919 119.264 59.5669 123.069 58.2204C126.482 57.0274 132.745 52.3234 133.001 56.3798C130.697 59.618 128.376 63.7254 128.376 63.7254C126.789 65.532 122.83 66.2137 120.254 66.1456L112.336 64.9525C112.336 64.9525 110.135 61.5268 109.998 61.3905L111.124 60.1463C113.053 60.0952 114.947 59.7032 116.721 59.0385Z" fill="#B27E76"/>
<path d="M118.547 60.061C118.547 60.061 118.734 60.1803 119.093 60.3167C118.751 60.7087 118.427 61.1007 118.12 61.5097C116.431 62.3448 114.758 63.2311 113.086 64.0833C112.711 62.9754 112.182 61.4245 112.113 61.3222L121.959 53.4142C121.959 53.4142 123.427 54.2493 122.011 56.5331C120.594 58.8169 118.547 60.061 118.547 60.061Z" fill="#B27E76"/>
<path d="M40.3227 30.0309L41.3978 40.5125L30.1523 40.9556L32.4048 24.7133L40.3227 30.0309Z" fill="#886661"/>
<path d="M41.1245 32.7744C42.3873 33.1153 43.5989 33.2687 44.3497 32.9619C49.5202 28.8034 49.6397 13.4473 49.6397 13.4473L44.6057 9.30582L35.9199 11.6748L32.6777 21.0146C31.8074 23.5029 32.3022 26.298 33.9916 28.5136C35.9199 30.5247 38.3772 32.0416 41.1245 32.7744Z" fill="#B27E76"/>
<path d="M35.4601 17.3846C36.3304 15.9189 37.2178 12.1864 38.7706 12.9363C39.8969 13.4817 43.8899 14.8622 45.2551 15.2712C48.4973 16.2427 52.2686 16.379 54.1115 11.5558C56.347 5.67583 53.8897 8.53911 51.9273 7.46538C50.4427 6.66434 45.494 -1.02219 35.2554 0.119712C31.8937 0.494665 31.1087 3.80107 30.3408 6.51095C29.5217 9.40832 29.7265 14.1975 30.3237 17.3846C30.665 19.2253 31.3476 20.9807 32.3032 22.5998L35.4601 17.3846Z" fill="#212B53"/>
<path d="M32.0657 16.7544C32.9871 16.3283 34.3011 16.8567 35.0178 17.9304C35.7345 19.0041 35.5639 20.2142 34.6424 20.6403C33.7209 21.0664 32.407 20.538 31.6903 19.4643C30.9906 18.3906 31.1442 17.1805 32.0657 16.7544Z" fill="#B27E76"/>
<path d="M51.075 45.2161C72.2519 61.6629 113.309 57.3169 113.309 57.3169L115.203 68.0712C115.203 68.0712 63.1054 83.4443 56.6038 71.139C50.1194 58.8337 29.9151 28.7864 51.075 45.2161Z" fill="#1F2040"/>
<path d="M35.7651 37.4612C36.1576 37.4612 36.533 37.4783 36.9084 37.4783C51.0207 37.4612 58.9727 55.0158 58.9727 67.3893V112.179H11.1582V60.9299C11.1582 49.5449 19.3321 39.5746 30.5946 37.8532C32.1986 37.5976 33.9221 37.4612 35.7651 37.4612Z" fill="#1F2040"/>
<path d="M51.0215 103.521L61.6014 104.731C65.9358 104.902 69.3998 98.7491 70.5602 94.0452C70.7309 93.3464 70.0824 92.6988 69.3828 92.8692C65.6627 93.7725 56.1067 96.1926 53.5641 97.4539L51.0215 103.521Z" fill="#B27E76"/>
<path d="M13.96 49.7498C13.96 49.7498 -10.152 81.9276 4.9841 97.5222C20.1373 113.134 54.232 106.504 54.232 106.504V96.5678C54.232 96.5678 22.0314 96.653 20.1373 85.7282C18.2602 74.8205 27.8163 63.0095 27.8163 63.0095" fill="#1F2040"/>
<path d="M11.1582 101.663C26.4138 110.441 50.4575 106.691 53.768 106.112V97.0445C49.5873 97.0104 21.5163 96.3798 19.6904 85.813C17.7792 74.82 27.0452 63.1795 27.4376 62.7022L28.1714 63.2988C28.0861 63.4181 18.7689 75.0757 20.6119 85.6596C22.4036 96.0048 53.5974 96.1071 54.2288 96.1071H54.7066V106.896L54.3312 106.964C54.1776 106.998 47.0788 108.327 37.9493 108.327C29.4513 108.327 19.1955 107.151 11.1582 102.72V101.663Z" fill="#393D6D"/>
<path d="M58.9727 112.179C64.4333 138.665 65.2865 167.178 65.4059 191.107C65.6107 229.659 62.4367 257.831 62.4367 257.831L49.1777 258.053L38.0517 147.646C38.0517 147.646 36.2599 164.025 33.8197 191.823C31.9085 213.621 31.5331 233.085 27.523 258.973C19.588 258.973 14.6393 258.053 14.6393 258.053C14.6393 258.053 11.1582 178.273 11.1582 112.179C29.6901 112.179 49.4337 112.179 58.9727 112.179Z" fill="#120B2A"/>
<path d="M40.8861 34.6324H30.9034L29.3164 38.3138H42.183L40.8861 34.6324Z" fill="#1B1C2D"/>
<path d="M27.3544 66.9121L27.3203 64.5261C34.2826 64.4408 53.207 63.7421 57.2001 61.6287L58.3093 63.7421C53.0876 66.486 29.9824 66.878 27.3544 66.9121Z" fill="#CA2E26"/>
<path d="M27.2702 64.5091C27.2702 64.5091 25.8709 66.5373 25.7344 66.8611L27.3555 66.8952L27.3214 64.5091H27.2702Z" fill="#CA2E26"/>
<path d="M58.3101 63.7246C58.3101 63.7246 58.1394 61.4749 58.0541 61.4578C57.9688 61.4408 57.5593 61.4578 57.2009 61.6283C56.8425 61.7987 58.3101 63.7246 58.3101 63.7246Z" fill="#CA2E26"/>
<path d="M63.1212 250.792H48.4629C48.4629 252.684 48.7359 253.57 48.7359 253.57H62.8653C62.9506 252.735 63.0359 251.815 63.1212 250.792Z" fill="white"/>
<path d="M28.7354 250.809L14.3672 250.792C14.3672 252.684 14.4696 253.553 14.4696 253.553H28.3429C28.4795 252.752 28.633 251.832 28.7354 250.809Z" fill="white"/>
<path d="M39.8161 26.598L43.6688 28.0108C43.4653 28.5896 42.7837 29.4191 41.4932 29.1731C40.2028 28.9272 39.8314 27.5126 39.8161 26.598Z" fill="white"/>
<path d="M43.4554 16.218L40.7479 15.9607C40.277 15.9159 39.8942 16.1928 39.8547 16.6068C39.8152 17.0208 40.1387 17.3649 40.6096 17.4096L43.3172 17.667C43.788 17.7117 44.1708 17.4348 44.2103 17.0208C44.2499 16.6068 43.8675 16.2572 43.4554 16.218Z" fill="#302F3C"/>
<path d="M50.2758 17.3525L47.5682 17.0951C47.0973 17.0504 46.7145 17.3273 46.675 17.7413C46.6355 18.1553 46.959 18.4993 47.4299 18.5441L50.1375 18.8014C50.6084 18.8462 50.9912 18.5693 51.0307 18.1553C51.0702 17.7413 50.6878 17.3917 50.2758 17.3525Z" fill="#302F3C"/>
<path d="M41.646 20.836C42.044 20.898 42.4169 20.6263 42.479 20.2292C42.5411 19.832 42.2688 19.4599 41.8709 19.3979C41.473 19.3359 41.1001 19.6076 41.038 20.0048C40.9759 20.4019 41.2481 20.774 41.646 20.836Z" fill="#302F3C"/>
<path d="M47.3296 21.9705C47.7276 22.0324 48.1005 21.7607 48.1626 21.3636C48.2247 20.9665 47.9524 20.5943 47.5545 20.5324C47.1566 20.4704 46.7836 20.7421 46.7216 21.1392C46.6595 21.5363 46.9317 21.9085 47.3296 21.9705Z" fill="#302F3C"/>
<path d="M45.3849 19.2857V26.3412H43.1973" stroke="#302F3C" stroke-width="0.5"/>
</g>
<defs>
<clipPath id="clip0">
<rect width="133" height="270" fill="white"/>
</clipPath>
</defs>
</svg>
