<svg width="166" height="71" viewBox="0 0 166 71" fill="none" xmlns="http://www.w3.org/2000/svg">
<g clip-path="url(#clip0)">
<path d="M115.16 37.7899H119.13L117.13 29.1499L115.16 37.7899Z" fill="#4E2F90"/>
<path d="M162.08 27.88C162.08 28.0809 162.04 28.2799 161.964 28.4655C161.887 28.6511 161.774 28.8198 161.632 28.9619C161.49 29.104 161.321 29.2166 161.136 29.2935C160.95 29.3704 160.751 29.41 160.55 29.41H153.71V33.15H161.18V36.55C161.18 36.9558 161.019 37.3449 160.732 37.6319C160.445 37.9188 160.056 38.08 159.65 38.08H153.71V41.97H162.08V45.37C162.08 45.7758 161.919 46.1649 161.632 46.4519C161.345 46.7388 160.956 46.9 160.55 46.9H149.22C148.814 46.9 148.425 46.7388 148.138 46.4519C147.851 46.1649 147.69 45.7758 147.69 45.37V26.02C147.69 25.6142 147.851 25.2251 148.138 24.9381C148.425 24.6512 148.814 24.49 149.22 24.49H162.08V27.88ZM143.84 45.88C143.84 46.1452 143.735 46.3996 143.547 46.5871C143.36 46.7746 143.105 46.88 142.84 46.88H131.84C131.631 46.88 131.424 46.8389 131.232 46.759C131.039 46.6791 130.863 46.5619 130.716 46.4143C130.568 46.2667 130.451 46.0914 130.371 45.8985C130.291 45.7056 130.25 45.4988 130.25 45.29V26.02C130.25 25.6142 130.411 25.2251 130.698 24.9381C130.985 24.6512 131.374 24.49 131.78 24.49H136.08C136.096 24.49 136.111 24.4963 136.122 24.5076C136.134 24.5188 136.14 24.5341 136.14 24.55V41.91C136.14 41.9259 136.146 41.9412 136.158 41.9524C136.169 41.9637 136.184 41.97 136.2 41.97H143.71C143.718 41.97 143.726 41.9716 143.733 41.9746C143.74 41.9776 143.747 41.982 143.752 41.9876C143.758 41.9931 143.762 41.9998 143.765 42.007C143.768 42.0143 143.77 42.0221 143.77 42.03L143.84 45.88ZM126.06 46.88H122.08C121.847 46.8852 121.62 46.8091 121.438 46.6649C121.255 46.5207 121.129 46.3174 121.08 46.09L120.22 42.4H114.08L113.24 46.09C113.193 46.3193 113.068 46.5249 112.885 46.6711C112.702 46.8172 112.474 46.8947 112.24 46.89H108.48C108.32 46.8969 108.161 46.8654 108.016 46.7982C107.871 46.731 107.744 46.63 107.646 46.5036C107.548 46.3773 107.482 46.2293 107.453 46.072C107.424 45.9148 107.434 45.753 107.48 45.6L113.08 25.24C113.137 25.02 113.267 24.8258 113.448 24.6895C113.63 24.5532 113.853 24.4828 114.08 24.49H121.22L127 45.63C127.047 45.783 127.056 45.9448 127.027 46.102C126.998 46.2593 126.932 46.4073 126.834 46.5336C126.736 46.66 126.609 46.761 126.464 46.8282C126.319 46.8954 126.16 46.9269 126 46.92L126.06 46.88ZM104.32 45.39C104.32 45.7958 104.159 46.1849 103.872 46.4719C103.585 46.7588 103.196 46.92 102.79 46.92H99.88C99.4742 46.92 99.0851 46.7588 98.7981 46.4719C98.5112 46.1849 98.35 45.7958 98.35 45.39V26.02C98.35 25.6142 98.5112 25.2251 98.7981 24.9381C99.0851 24.6512 99.4742 24.49 99.88 24.49H104.33L104.32 45.39ZM93.16 46.92H88.9C88.6575 46.9195 88.4196 46.8532 88.2118 46.7282C88.004 46.6031 87.834 46.4241 87.72 46.21L84.08 39.43H82.36V45.37C82.36 45.7758 82.1988 46.1649 81.9119 46.4519C81.625 46.7388 81.2358 46.9 80.83 46.9H77.91C77.5042 46.9 77.1151 46.7388 76.8281 46.4519C76.5412 46.1649 76.38 45.7758 76.38 45.37V26.02C76.38 25.6142 76.5412 25.2251 76.8281 24.9381C77.1151 24.6512 77.5042 24.49 77.91 24.49H85.64C90.27 24.49 93.41 27.27 93.41 31.07V31.97C93.401 33.1985 93.0773 34.4042 92.4698 35.4721C91.8623 36.54 90.9914 37.4344 89.94 38.07L94.08 45.38C94.1741 45.5342 94.2246 45.7111 94.2262 45.8917C94.2278 46.0723 94.1805 46.25 94.0892 46.4059C93.9979 46.5618 93.8661 46.6901 93.7078 46.7771C93.5495 46.8641 93.3705 46.9065 93.19 46.9L93.16 46.92ZM71.76 24.48V27.88C71.76 28.0809 71.7204 28.2799 71.6436 28.4655C71.5667 28.6511 71.454 28.8198 71.3119 28.9619C71.1698 29.104 71.0012 29.2166 70.8155 29.2935C70.6299 29.3704 70.4309 29.41 70.23 29.41H63.39V33.15H70.86V36.55C70.86 36.9558 70.6988 37.3449 70.4119 37.6319C70.125 37.9188 69.7358 38.08 69.33 38.08H63.39V41.97H71.76V45.37C71.76 45.7758 71.5988 46.1649 71.3119 46.4519C71.025 46.7388 70.6358 46.9 70.23 46.9H58.95C58.5442 46.9 58.1551 46.7388 57.8681 46.4519C57.5812 46.1649 57.42 45.7758 57.42 45.37V26.02C57.42 25.6142 57.5812 25.2251 57.8681 24.9381C58.1551 24.6512 58.5442 24.49 58.95 24.49H59.95L58.45 22.08L68.91 15.59L71.97 20.52L65.57 24.52L71.76 24.48ZM53.96 27.88C53.96 28.0809 53.9204 28.2799 53.8436 28.4655C53.7667 28.6511 53.654 28.8198 53.5119 28.9619C53.3698 29.104 53.2012 29.2166 53.0155 29.2935C52.8299 29.3704 52.6309 29.41 52.43 29.41H48.79V45.41C48.79 45.6109 48.7504 45.8099 48.6736 45.9955C48.5967 46.1811 48.484 46.3498 48.3419 46.4919C48.1998 46.6339 48.0312 46.7466 47.8455 46.8235C47.6599 46.9004 47.4609 46.94 47.26 46.94H44.34C43.9342 46.94 43.5451 46.7788 43.2581 46.4919C42.9712 46.2049 42.81 45.8158 42.81 45.41V29.41H37.67V26.01C37.67 25.6042 37.8312 25.2151 38.1181 24.9281C38.4051 24.6412 38.7942 24.48 39.2 24.48H53.96V27.88ZM34.23 45.37C34.23 45.7758 34.0688 46.1649 33.7819 46.4519C33.495 46.7388 33.1058 46.9 32.7 46.9H28.7C28.4577 46.9051 28.2193 46.8386 28.0147 46.7087C27.8101 46.5788 27.6485 46.3914 27.55 46.17L22.08 33.73V45.37C22.08 45.7758 21.9188 46.1649 21.6319 46.4519C21.345 46.7388 20.9558 46.9 20.55 46.9H18.42C18.0142 46.9 17.6251 46.7388 17.3381 46.4519C17.0512 46.1649 16.89 45.7758 16.89 45.37V26.02C16.89 25.6142 17.0512 25.2251 17.3381 24.9381C17.6251 24.6512 18.0142 24.49 18.42 24.49H23.61L28.99 38.75V26.02C28.99 25.6142 29.1512 25.2251 29.4381 24.9381C29.7251 24.6512 30.1142 24.49 30.52 24.49H34.22L34.23 45.37ZM11.66 45.37C11.6601 45.5752 11.619 45.7783 11.539 45.9673C11.459 46.1563 11.3418 46.3272 11.1944 46.4699C11.0469 46.6127 10.8723 46.7243 10.6809 46.7982C10.4895 46.8721 10.2851 46.9067 10.08 46.9H7.21002C6.80424 46.9 6.41508 46.7388 6.12815 46.4519C5.84122 46.1649 5.68002 45.7758 5.68002 45.37V26.02C5.68002 25.6142 5.84122 25.2251 6.12815 24.9381C6.41508 24.6512 6.80424 24.49 7.21002 24.49H11.66V45.37ZM7.02002 19.45C5.1117 19.6773 3.35058 20.589 2.06334 22.016C0.776096 23.443 0.0500997 25.2884 0.0200195 27.21L0.08002 70.47L161.48 50.72C162.638 50.5779 163.707 50.022 164.488 49.1546C165.269 48.2873 165.71 47.167 165.73 46V0L7.02002 19.45Z" fill="#4E2F90"/>
<path d="M84.2999 29.4199H82.3599V34.4999H84.2999C86.2999 34.4999 87.2999 33.4999 87.2999 31.9599C87.2999 30.1699 86.5499 29.4199 84.2999 29.4199Z" fill="#4E2F90"/>
<path d="M5.68018 26.02V45.37C5.68018 45.7758 5.84137 46.1649 6.1283 46.4519C6.41523 46.7388 6.80439 46.9 7.21017 46.9H10.0802C10.486 46.9 10.8751 46.7388 11.162 46.4519C11.449 46.1649 11.6102 45.7758 11.6102 45.37V24.48H7.21017C6.80439 24.48 6.41523 24.6412 6.1283 24.9281C5.84137 25.215 5.68018 25.6042 5.68018 26.01" fill="white"/>
<path d="M37.6699 26.02V29.42H42.8099V45.42C42.8099 45.8258 42.9711 46.2149 43.258 46.5019C43.545 46.7888 43.9341 46.95 44.3399 46.95H47.2499C47.6557 46.95 48.0449 46.7888 48.3318 46.5019C48.6187 46.2149 48.7799 45.8258 48.7799 45.42V29.42H52.4199C52.6208 29.42 52.8198 29.3804 53.0054 29.3035C53.1911 29.2266 53.3597 29.1139 53.5018 28.9719C53.6439 28.8298 53.7566 28.6611 53.8335 28.4755C53.9103 28.2899 53.9499 28.0909 53.9499 27.89V24.49H39.1999C38.7941 24.49 38.405 24.6512 38.118 24.9381C37.8311 25.225 37.6699 25.6142 37.6699 26.02Z" fill="white"/>
<path d="M84.2999 34.5H82.3599V29.42H84.2999C86.5399 29.42 87.2999 30.17 87.2999 31.96C87.2999 33.46 86.2999 34.5 84.2999 34.5ZM89.9499 38.06C91.0012 37.4244 91.8722 36.53 92.4797 35.4621C93.0871 34.3942 93.4108 33.1885 93.4199 31.96V31.06C93.4199 27.26 90.2799 24.48 85.6499 24.48H77.9099C77.5041 24.48 77.1149 24.6412 76.828 24.9281C76.5411 25.215 76.3799 25.6042 76.3799 26.01V45.37C76.3799 45.7758 76.5411 46.1649 76.828 46.4519C77.1149 46.7388 77.5041 46.9 77.9099 46.9H80.8199C81.2257 46.9 81.6148 46.7388 81.9018 46.4519C82.1887 46.1649 82.3499 45.7758 82.3499 45.37V39.43H84.0799L87.6799 46.19C87.7939 46.404 87.9639 46.5831 88.1717 46.7082C88.3795 46.8332 88.6174 46.8995 88.8599 46.9H93.1299C93.3104 46.9065 93.4893 46.864 93.6477 46.7771C93.806 46.6901 93.9378 46.5618 94.0291 46.4059C94.1203 46.25 94.1677 46.0723 94.1661 45.8917C94.1645 45.711 94.1139 45.5342 94.0199 45.38L89.9499 38.06Z" fill="white"/>
<path d="M98.3601 26.02V45.37C98.3601 45.7758 98.5213 46.1649 98.8082 46.4519C99.0952 46.7388 99.4843 46.9 99.8901 46.9H102.8C103.206 46.9 103.595 46.7388 103.882 46.4519C104.169 46.1649 104.33 45.7758 104.33 45.37V24.48H99.8801C99.4743 24.48 99.0852 24.6412 98.7982 24.9281C98.5113 25.215 98.3501 25.6042 98.3501 26.01" fill="white"/>
<path d="M115.16 37.79L117.16 29.15L119.16 37.79H115.16ZM121.23 24.49H114.08C113.853 24.4828 113.63 24.5532 113.448 24.6895C113.267 24.8258 113.137 25.02 113.08 25.24L107.53 45.63C107.484 45.783 107.474 45.9448 107.503 46.102C107.532 46.2593 107.599 46.4073 107.696 46.5336C107.794 46.66 107.921 46.761 108.066 46.8282C108.211 46.8954 108.37 46.9269 108.53 46.92H112.29C112.524 46.9247 112.752 46.8472 112.935 46.7011C113.118 46.5549 113.243 46.3493 113.29 46.12L114.13 42.43H120.26L121.12 46.12C121.169 46.3474 121.295 46.5507 121.478 46.6949C121.66 46.8391 121.888 46.9152 122.12 46.91H126.04C126.2 46.9169 126.359 46.8854 126.504 46.8182C126.649 46.751 126.776 46.65 126.874 46.5236C126.972 46.3973 127.038 46.2493 127.067 46.092C127.096 45.9348 127.087 45.773 127.04 45.62L121.23 24.49Z" fill="white"/>
<path d="M143.74 41.97H136.23C136.214 41.97 136.199 41.9637 136.188 41.9524C136.176 41.9412 136.17 41.9259 136.17 41.91V24.54C136.17 24.5241 136.164 24.5088 136.152 24.4976C136.141 24.4863 136.126 24.48 136.11 24.48H131.72C131.314 24.48 130.925 24.6412 130.638 24.9281C130.351 25.215 130.19 25.6042 130.19 26.01V45.31C130.19 45.7317 130.357 46.1361 130.656 46.4343C130.954 46.7325 131.358 46.9 131.78 46.9H142.78C143.045 46.9 143.3 46.7946 143.487 46.6071C143.675 46.4196 143.78 46.1652 143.78 45.9V42.03C143.78 42.0141 143.774 41.9988 143.762 41.9876C143.751 41.9763 143.736 41.97 143.72 41.97" fill="white"/>
<path d="M147.68 26.02V45.37C147.68 45.7758 147.841 46.1649 148.128 46.4519C148.415 46.7388 148.804 46.9 149.21 46.9H160.49C160.696 46.9081 160.902 46.8745 161.094 46.8012C161.287 46.7279 161.463 46.6165 161.611 46.4736C161.76 46.3307 161.878 46.1593 161.958 45.9697C162.039 45.78 162.08 45.5761 162.08 45.37V41.97H153.71V38.08H159.65C160.056 38.08 160.445 37.9188 160.732 37.6319C161.019 37.3449 161.18 36.9558 161.18 36.55V33.15H153.71V29.42H160.55C160.752 29.42 160.952 29.3801 161.138 29.3026C161.324 29.2251 161.493 29.1115 161.636 28.9683C161.778 28.8252 161.89 28.6553 161.967 28.4686C162.043 28.2818 162.081 28.0817 162.08 27.88V24.48H149.22C148.814 24.48 148.425 24.6412 148.138 24.9281C147.851 25.215 147.69 25.6042 147.69 26.01" fill="white"/>
<path d="M30.6601 24.48H30.5301C30.1244 24.48 29.7352 24.6412 29.4483 24.9281C29.1613 25.215 29.0001 25.6042 29.0001 26.01V38.74L23.6201 24.48H18.4201C18.0144 24.48 17.6252 24.6412 17.3383 24.9281C17.0513 25.215 16.8901 25.6042 16.8901 26.01V45.37C16.8901 45.7758 17.0513 46.1649 17.3383 46.4519C17.6252 46.7388 18.0144 46.9 18.4201 46.9H20.5901C20.9889 46.8896 21.3679 46.7238 21.6462 46.438C21.9246 46.1521 22.0803 45.7689 22.0801 45.37V33.73L27.5501 46.18C27.6486 46.4014 27.8103 46.5888 28.0149 46.7187C28.2195 46.8486 28.4579 46.9151 28.7001 46.91H32.7001C33.1059 46.91 33.4951 46.7488 33.782 46.4619C34.0689 46.1749 34.2301 45.7858 34.2301 45.38V24.48H30.6601Z" fill="white"/>
<path d="M59.9099 24.48H58.9099C58.709 24.48 58.51 24.5196 58.3244 24.5964C58.1387 24.6733 57.9701 24.786 57.828 24.9281C57.6859 25.0702 57.5732 25.2388 57.4963 25.4245C57.4195 25.6101 57.3799 25.8091 57.3799 26.01V45.37C57.3799 45.5709 57.4195 45.7699 57.4963 45.9555C57.5732 46.1411 57.6859 46.3098 57.828 46.4519C57.9701 46.5939 58.1387 46.7066 58.3244 46.7835C58.51 46.8604 58.709 46.9 58.9099 46.9H70.2299C70.6357 46.9 71.0248 46.7388 71.3118 46.4519C71.5987 46.1649 71.7599 45.7758 71.7599 45.37V41.97H63.3899V38.08H69.3299C69.7357 38.08 70.1248 37.9188 70.4118 37.6319C70.6987 37.3449 70.8599 36.9558 70.8599 36.55V33.15H63.3899V29.42H70.2299C70.6357 29.42 71.0248 29.2588 71.3118 28.9719C71.5987 28.6849 71.7599 28.2958 71.7599 27.89V24.49H65.5299L61.4699 27.01L59.9099 24.48Z" fill="white"/>
<path d="M68.8702 15.5801L58.4102 22.0701L59.9102 24.4801L61.4702 27.0001L65.5302 24.4801L71.9402 20.5101L68.8702 15.5801Z" fill="#F1C92A"/>
</g>
<defs>
<clipPath id="clip0">
<rect width="165.76" height="70.47" fill="white"/>
</clipPath>
</defs>
</svg>
