<svg width="24" height="25" viewBox="0 0 24 25" fill="none" xmlns="http://www.w3.org/2000/svg">
<path d="M12.5509 24.9484C12.4868 24.9779 12.4227 24.9779 12.3586 24.9852C12.3301 24.9852 12.3087 25 12.2802 25C12.2517 25 12.2303 24.9852 12.2018 24.9852C12.1377 24.9779 12.0736 24.9705 12.0095 24.941C11.9382 24.9115 11.8812 24.8672 11.8242 24.8156C11.81 24.8008 11.7886 24.8008 11.7744 24.786L4.20839 16.9508C3.93054 16.6631 3.93054 16.1983 4.20839 15.9105C4.48623 15.6228 4.93506 15.6228 5.21291 15.9105L11.5678 22.4915L11.5678 1.73778C11.5678 1.332 11.8884 1 12.2802 1C12.672 1 12.9926 1.332 12.9926 1.73778L12.9926 22.4989L19.3475 15.9179C19.6253 15.6302 20.0742 15.6302 20.352 15.9179C20.4874 16.0581 20.5586 16.2425 20.5586 16.4344C20.5586 16.6336 20.4874 16.818 20.352 16.9508L12.786 24.786C12.7718 24.8008 12.7575 24.8082 12.7433 24.8156C12.6792 24.8746 12.6222 24.9188 12.5509 24.9484Z" fill="#4E2583"/>
</svg>
