<svg width="24" height="24" viewBox="0 0 24 24" fill="none" xmlns="http://www.w3.org/2000/svg">
<g clip-path="url(#clip0)">
<path d="M0.0590019 12.5468C0.0294991 12.4827 0.0294991 12.4186 0.0221252 12.3545C0.0221252 12.326 0.00737381 12.3047 0.00737381 12.2762C0.00737381 12.2477 0.0221252 12.2263 0.0221252 12.1978C0.0294991 12.1337 0.0368767 12.0696 0.0663776 12.0055C0.0958805 11.9343 0.140135 11.8773 0.191763 11.8204C0.206514 11.8061 0.206514 11.7848 0.221264 11.7705L8.05409 4.20686C8.34173 3.92909 8.80639 3.92909 9.09404 4.20686C9.38168 4.48462 9.38168 4.93331 9.09404 5.21107L2.51506 11.564H23.2624C23.6681 11.564 24 11.8845 24 12.2762C24 12.6679 23.6681 12.9884 23.2624 12.9884H2.50768L9.08666 19.3413C9.37431 19.6191 9.37431 20.0677 9.08666 20.3455C8.94653 20.4808 8.76214 20.5521 8.57037 20.5521C8.37123 20.5521 8.18685 20.4808 8.05409 20.3455L0.221264 12.7819C0.206514 12.7676 0.199139 12.7534 0.191763 12.7391C0.132759 12.675 0.0885048 12.618 0.0590019 12.5468Z" fill="#4E2583"/>
</g>
<defs>
<clipPath id="clip0">
<rect width="24" height="16.5517" fill="white" transform="matrix(-1 0 0 1 24 4)"/>
</clipPath>
</defs>
</svg>
