<svg width="24" height="24" viewBox="0 0 24 24" fill="none" xmlns="http://www.w3.org/2000/svg">
<path d="M23.941 12.0037C23.9705 12.0678 23.9705 12.1319 23.9779 12.196C23.9779 12.2245 23.9926 12.2459 23.9926 12.2744C23.9926 12.3028 23.9779 12.3242 23.9779 12.3527C23.9705 12.4168 23.9631 12.4809 23.9336 12.545C23.9041 12.6162 23.8599 12.6732 23.8082 12.7302C23.7935 12.7444 23.7935 12.7658 23.7787 12.78L15.9459 20.3437C15.6583 20.6214 15.1936 20.6214 14.906 20.3437C14.6183 20.0659 14.6183 19.6172 14.906 19.3395L21.4849 12.9866L0.737554 12.9866C0.331899 12.9866 0 12.6661 0 12.2744C0 11.8826 0.331899 11.5621 0.737554 11.5621L21.4923 11.5621L14.9133 5.20924C14.6257 4.93148 14.6257 4.48279 14.9133 4.20503C15.0535 4.06971 15.2379 3.99849 15.4296 3.99849C15.6288 3.99849 15.8132 4.06971 15.9459 4.20503L23.7787 11.7687C23.7935 11.7829 23.8009 11.7972 23.8082 11.8114C23.8672 11.8755 23.9115 11.9325 23.941 12.0037Z" fill="#4E2583"/>
</svg>
