<svg width="24" height="25" viewBox="0 0 24 25" fill="none" xmlns="http://www.w3.org/2000/svg">
<g clip-path="url(#clip0)">
<path d="M12.0028 1.04432C12.0669 1.01481 12.131 1.01481 12.1951 1.00743C12.2236 1.00743 12.245 0.992676 12.2735 0.992676C12.302 0.992676 12.3234 1.00743 12.3519 1.00743C12.416 1.01481 12.4801 1.02219 12.5442 1.0517C12.6155 1.08121 12.6725 1.12547 12.7295 1.17712C12.7437 1.19188 12.7651 1.19188 12.7793 1.20663L20.3453 9.04186C20.6232 9.32959 20.6232 9.7944 20.3453 10.0821C20.0675 10.3699 19.6186 10.3699 19.3408 10.0821L12.9859 3.50113L12.9859 24.2549C12.9859 24.6607 12.6654 24.9927 12.2735 24.9927C11.8817 24.9927 11.5611 24.6607 11.5611 24.2549L11.5611 3.49375L5.20623 10.0748C4.92839 10.3625 4.47956 10.3625 4.20171 10.0748C4.06635 9.93457 3.99511 9.75013 3.99511 9.55831C3.99511 9.35911 4.06635 9.17466 4.20171 9.04186L11.7677 1.20663C11.7819 1.19188 11.7962 1.1845 11.8104 1.17712C11.8746 1.1181 11.9316 1.07383 12.0028 1.04432Z" fill="#4E2583"/>
</g>
<defs>
<clipPath id="clip0">
<rect width="24" height="16.5517" fill="white" transform="matrix(1.19249e-08 -1 -1 -1.19249e-08 20.5518 25)"/>
</clipPath>
</defs>
</svg>
