<?xml version="1.0" encoding="utf-8"?>
<!-- Generator: Adobe Illustrator 23.0.1, SVG Export Plug-In . SVG Version: 6.00 Build 0)  -->
<svg version="1.1" id="Layer_1" xmlns="http://www.w3.org/2000/svg" xmlns:xlink="http://www.w3.org/1999/xlink" x="0px" y="0px"
	 viewBox="0 0 24 24" style="enable-background:new 0 0 24 24;" xml:space="preserve">
<style type="text/css">
	.st0{fill:#4E2583;}
</style>
<g>
	<g>
		<path class="st0" d="M12,24C5.4,24,0,18.6,0,12C0,5.4,5.4,0,12,0s12,5.4,12,12C24,18.6,18.6,24,12,24z M12,1C5.9,1,1,5.9,1,12
			s4.9,11,11,11c6.1,0,11-4.9,11-11S18.1,1,12,1z"/>
	</g>
</g>
<g>
	<g>
		<path class="st0" d="M18.3,12.5H5.7c-0.3,0-0.5-0.2-0.5-0.5s0.2-0.5,0.5-0.5h12.5c0.3,0,0.5,0.2,0.5,0.5S18.5,12.5,18.3,12.5z"/>
	</g>
</g>
<g>
	<g>
		<path class="st0" d="M12,18.8c-0.3,0-0.5-0.2-0.5-0.5V5.7c0-0.3,0.2-0.5,0.5-0.5s0.5,0.2,0.5,0.5v12.5
			C12.5,18.5,12.3,18.8,12,18.8z"/>
	</g>
</g>
</svg>
