<svg width="24" height="24" viewBox="0 0 24 24" fill="none" xmlns="http://www.w3.org/2000/svg">
<g clip-path="url(#clip0)">
<path d="M12.9512 12.0116L23.8165 1.14627C24.0687 0.894125 24.0687 0.458595 23.8165 0.206446C23.5644 -0.0457033 23.1288 -0.0457033 22.8767 0.206446L12.0114 11.0489L1.14603 0.206446C0.893881 -0.0457033 0.458351 -0.0457033 0.206202 0.206446C-0.0459474 0.458595 -0.0459474 0.894125 0.206202 1.14627L11.0715 12.0116L0.206202 22.8769C-0.0459474 23.1291 -0.0459474 23.5646 0.206202 23.8168C0.343737 23.9543 0.504196 24.0231 0.687577 24.0231C0.870958 24.0231 1.03142 23.9543 1.16895 23.8168L12.0343 12.9514L22.8996 23.8168C23.0371 23.9543 23.1976 24.0231 23.381 24.0231C23.5414 24.0231 23.7248 23.9543 23.8624 23.8168C24.1145 23.5646 24.1145 23.1291 23.8624 22.8769L12.9512 12.0116Z" fill="#4E2583"/>
</g>
<defs>
<clipPath id="clip0">
<rect width="24" height="24" fill="white"/>
</clipPath>
</defs>
</svg>
