<svg width="24" height="24" viewBox="0 0 24 24" fill="none" xmlns="http://www.w3.org/2000/svg">
<g clip-path="url(#clip0)">
<path d="M12.0126 0C5.37801 0 0 5.37801 0 12.0126C0 18.6471 5.37801 24.0251 12.0126 24.0251C18.6471 24.0251 24.0251 18.6471 24.0251 12.0126C24.0251 5.37801 18.622 0 12.0126 0ZM12.0126 22.9445C5.98115 22.9445 1.0555 18.0188 1.0555 11.9874C1.0555 5.95602 5.95602 1.0555 12.0126 1.0555C18.0691 1.0555 22.9696 5.98115 22.9696 12.0126C22.9696 18.044 18.044 22.9445 12.0126 22.9445Z" fill="#4E2583"/>
<path d="M17.0637 6.93619C16.8626 6.73514 16.5359 6.73514 16.3349 6.93619L12.0124 11.2587L7.66474 6.93619C7.46369 6.73514 7.13699 6.73514 6.93594 6.93619C6.73489 7.13723 6.73489 7.46393 6.93594 7.66498L11.2585 11.9875L6.93594 16.3351C6.73489 16.5362 6.73489 16.8629 6.93594 17.0639C7.03647 17.1645 7.16212 17.2147 7.3129 17.2147C7.43856 17.2147 7.58934 17.1645 7.68987 17.0639L12.0124 12.7414L16.3349 17.0639C16.4354 17.1645 16.5611 17.2147 16.7119 17.2147C16.8375 17.2147 16.9883 17.1645 17.0888 17.0639C17.2899 16.8629 17.2899 16.5362 17.0888 16.3351L12.7412 12.0126L17.0637 7.69011C17.2647 7.46393 17.2647 7.13723 17.0637 6.93619Z" fill="#4E2583"/>
</g>
<defs>
<clipPath id="clip0">
<rect width="24" height="24" fill="white"/>
</clipPath>
</defs>
</svg>
