<svg width="24" height="24" viewBox="0 0 24 24" fill="none" xmlns="http://www.w3.org/2000/svg">
<path d="M12.0002 23.4782C18.3395 23.4782 23.4785 18.3393 23.4785 12C23.4785 5.66072 18.3395 0.521729 12.0002 0.521729C5.66096 0.521729 0.521973 5.66072 0.521973 12C0.521973 18.3393 5.66096 23.4782 12.0002 23.4782Z" stroke="#4E2583" stroke-miterlimit="10" stroke-linecap="round" stroke-linejoin="round"/>
<path d="M8.86963 9.91293V8.86945C8.86963 7.09554 10.2262 5.73901 12.0001 5.73901C13.774 5.73901 15.1305 7.09554 15.1305 8.86945V9.70423C15.1305 10.539 14.8175 11.3738 14.1914 11.8955L12.9392 13.1477C12.3131 13.7738 12.0001 14.5042 12.0001 15.339V16.1738" stroke="#4E2583" stroke-miterlimit="10" stroke-linecap="round" stroke-linejoin="round"/>
<path d="M12.0003 19.3042C12.2884 19.3042 12.522 19.0706 12.522 18.7825C12.522 18.4943 12.2884 18.2607 12.0003 18.2607C11.7121 18.2607 11.4785 18.4943 11.4785 18.7825C11.4785 19.0706 11.7121 19.3042 12.0003 19.3042Z" stroke="#4E2583" stroke-miterlimit="10"/>
</svg>
