<svg width="24" height="24" viewBox="0 0 24 24" fill="none" xmlns="http://www.w3.org/2000/svg">
<g clip-path="url(#clip0)">
<path d="M23.8815 21.5457L17.1516 14.8257C16.9833 14.6673 16.726 14.6673 16.5578 14.8257L16.4984 14.8851L14.717 13.1036C15.2019 12.4603 15.578 11.7576 15.8551 11.0055C17.4089 6.77949 15.2316 2.06856 10.9957 0.514744C8.94706 -0.247318 6.72025 -0.158246 4.74087 0.762167C2.76149 1.68258 1.25716 3.31557 0.504995 5.36423C-1.04882 9.59021 1.1285 14.3011 5.36438 15.855C6.265 16.1914 7.2151 16.3597 8.1751 16.3597C8.185 16.3597 8.20479 16.3597 8.21469 16.3597C9.16479 16.3597 10.105 16.1914 10.9957 15.8648C11.7479 15.5877 12.4605 15.2117 13.0939 14.7267L14.8753 16.5081L14.8159 16.5675C14.6576 16.7358 14.6576 16.9931 14.8159 17.1613L21.5359 23.8813C21.6151 23.9605 21.724 24.0001 21.8328 24.0001C21.9417 24.0001 22.0506 23.9605 22.1297 23.8813L23.8716 22.1395C24.0398 21.9712 24.0398 21.704 23.8815 21.5457ZM22.9908 21.8426L21.8427 22.9906L15.7165 16.8644L16.8151 15.7758L16.8646 15.7164L22.9908 21.8426ZM15.0732 10.7086C14.331 12.7473 12.7376 14.3407 10.6988 15.083C6.9083 16.4686 2.69221 14.509 1.30664 10.7185C0.326851 8.04629 0.999841 5.02773 3.01881 3.01866C4.40438 1.63309 6.2452 0.871033 8.19489 0.871033C10.1545 0.871033 11.9953 1.63309 13.371 3.01866C15.38 5.02773 16.0431 8.04629 15.0732 10.7086ZM13.9648 13.9745C14.0341 13.9053 14.1132 13.8261 14.1825 13.7568L15.9145 15.4789L15.4691 15.9242L13.7471 14.1923C13.8163 14.1131 13.8955 14.0438 13.9648 13.9745Z" fill="#4E2583"/>
<path d="M6.06698 12.7869C4.29543 11.9555 3.14739 10.1543 3.13749 8.19472C3.13749 7.96709 2.94945 7.77905 2.72182 7.77905C2.49419 7.77905 2.30615 7.96709 2.30615 8.19472C2.31605 10.4809 3.65213 12.5791 5.72059 13.5391C5.77007 13.5588 5.83935 13.5786 5.89873 13.5786C6.0076 13.5786 6.11646 13.5292 6.19564 13.45C6.27481 13.3708 6.3144 13.2619 6.3144 13.1531C6.29461 12.9947 6.20553 12.8562 6.06698 12.7869Z" fill="#4E2583"/>
</g>
<defs>
<clipPath id="clip0">
<rect width="24" height="24" fill="white"/>
</clipPath>
</defs>
</svg>
