<svg width="24" height="24" viewBox="0 0 24 24" fill="none" xmlns="http://www.w3.org/2000/svg">
<path d="M20 7.5C21.933 7.5 23.5 5.933 23.5 4C23.5 2.067 21.933 0.5 20 0.5C18.067 0.5 16.5 2.067 16.5 4C16.5 5.933 18.067 7.5 20 7.5Z" stroke="#4E2583" stroke-miterlimit="10" stroke-linecap="round" stroke-linejoin="round"/>
<path d="M20 23.5C21.933 23.5 23.5 21.933 23.5 20C23.5 18.067 21.933 16.5 20 16.5C18.067 16.5 16.5 18.067 16.5 20C16.5 21.933 18.067 23.5 20 23.5Z" stroke="#4E2583" stroke-miterlimit="10" stroke-linecap="round" stroke-linejoin="round"/>
<path d="M4 15.5C5.933 15.5 7.5 13.933 7.5 12C7.5 10.067 5.933 8.5 4 8.5C2.067 8.5 0.5 10.067 0.5 12C0.5 13.933 2.067 15.5 4 15.5Z" stroke="#4E2583" stroke-miterlimit="10" stroke-linecap="round" stroke-linejoin="round"/>
<path d="M7.1001 10.4001L16.9001 5.6001" stroke="#4E2583" stroke-miterlimit="10" stroke-linecap="round" stroke-linejoin="round"/>
<path d="M7.1001 13.6001L16.9001 18.4001" stroke="#4E2583" stroke-miterlimit="10" stroke-linecap="round" stroke-linejoin="round"/>
</svg>
