<svg width="24" height="24" viewBox="0 0 24 24" fill="none" xmlns="http://www.w3.org/2000/svg">
<path fill-rule="evenodd" clip-rule="evenodd" d="M1.5 17C1.77614 17 2 17.2239 2 17.5L2 22.5C2 22.6864 2.05994 22.8028 2.12855 22.8714C2.19716 22.9401 2.31362 23 2.5 23L22.5 23C22.6864 23 22.8028 22.9401 22.8714 22.8714C22.9401 22.8028 23 22.6864 23 22.5L23 17.5C23 17.2239 23.2239 17 23.5 17C23.7761 17 24 17.2239 24 17.5L24 22.5C24 22.9136 23.8599 23.2972 23.5786 23.5785C23.2972 23.8599 22.9136 24 22.5 24L2.5 24C2.08638 24 1.70284 23.8599 1.42145 23.5786C1.14006 23.2972 1 22.9136 1 22.5L1 17.5C1 17.2239 1.22386 17 1.5 17Z" fill="#4E2583"/>
<path fill-rule="evenodd" clip-rule="evenodd" d="M12.5 -8.74228e-08C12.7761 -1.35705e-07 13 0.223857 13 0.5L13 19.5C13 19.7761 12.7761 20 12.5 20C12.2239 20 12 19.7761 12 19.5L12 0.5C12 0.223858 12.2239 -3.91405e-08 12.5 -8.74228e-08Z" fill="#4E2583"/>
<path fill-rule="evenodd" clip-rule="evenodd" d="M12.1464 0.146446C12.3417 -0.0488167 12.6583 -0.0488167 12.8536 0.146445L18.8536 6.14644C19.0488 6.34171 19.0488 6.65829 18.8536 6.85355C18.6583 7.04881 18.3417 7.04881 18.1464 6.85355L12.5 1.20711L6.85355 6.85355C6.65829 7.04882 6.34171 7.04882 6.14645 6.85355C5.95119 6.65829 5.95119 6.34171 6.14645 6.14645L12.1464 0.146446Z" fill="#4E2583"/>
</svg>
