<svg width="24" height="24" viewBox="0 0 24 24" fill="none" xmlns="http://www.w3.org/2000/svg">
<g clip-path="url(#clip0)">
<path d="M14.8156 12.4995C14.8131 12.4072 14.7747 12.3194 14.7084 12.255C14.6422 12.1906 14.5534 12.1545 14.461 12.1546C14.3695 12.1546 14.2818 12.1909 14.2171 12.2556C14.1524 12.3203 14.116 12.4081 14.116 12.4995C14.116 13.017 13.9626 13.5228 13.6751 13.953C13.3877 14.3833 12.9791 14.7186 12.501 14.9166C12.023 15.1146 11.4969 15.1664 10.9894 15.0655C10.482 14.9645 10.0158 14.7154 9.64991 14.3495C9.28403 13.9836 9.03486 13.5174 8.93391 13.0099C8.83296 12.5025 8.88477 11.9764 9.08279 11.4984C9.2808 11.0203 9.61613 10.6117 10.0464 10.3243C10.4766 10.0368 10.9824 9.88335 11.4998 9.88335C11.5913 9.88335 11.6791 9.847 11.7438 9.7823C11.8085 9.7176 11.8448 9.62985 11.8448 9.53835C11.8448 9.44685 11.8085 9.3591 11.7438 9.29441C11.6791 9.22971 11.5913 9.19336 11.4998 9.19336C10.8436 9.19336 10.2022 9.38807 9.65671 9.75284C9.11122 10.1176 8.68624 10.636 8.43556 11.2425C8.18488 11.8489 8.11978 12.5161 8.2485 13.1595C8.37722 13.803 8.69397 14.3938 9.15865 14.8571C9.62332 15.3205 10.215 15.6355 10.8589 15.7624C11.5027 15.8892 12.1697 15.8222 12.7754 15.5697C13.3811 15.3173 13.8983 14.8908 14.2615 14.3443C14.6247 13.7978 14.8175 13.1558 14.8156 12.4995Z" fill="#4E2583"/>
<path d="M14.0489 23.041L13.2631 19.2077C14.5186 18.8717 15.6563 18.194 16.5496 17.2499C17.443 16.3059 18.0568 15.1325 18.323 13.8603L22.1562 14.4449C21.7815 16.5085 20.816 18.4191 19.377 19.9449C17.9379 21.4707 16.0871 22.5462 14.0489 23.041ZM16.3967 7.55457L18.9555 4.67962C20.0141 5.68816 20.8565 6.90148 21.4314 8.24581C22.0064 9.59013 22.3019 11.0374 22.3 12.4995C22.3034 12.9319 22.2778 13.3642 22.2233 13.7932L18.39 13.2086C18.4039 12.9724 18.4039 12.7357 18.39 12.4995C18.3897 11.5792 18.2065 10.6682 17.8512 9.81935C17.4958 8.97047 16.9754 8.20065 16.3201 7.55457H16.3967ZM19.1663 3.93213C19.0941 3.88082 19.0045 3.86015 18.9171 3.87463C18.8712 3.87527 18.826 3.88589 18.7847 3.90575C18.7433 3.92561 18.7067 3.95423 18.6775 3.98963L15.6493 7.34374C15.6171 7.37579 15.5916 7.41387 15.5742 7.45581C15.5568 7.49774 15.5478 7.5427 15.5478 7.58811C15.5478 7.63352 15.5568 7.67847 15.5742 7.72041C15.5916 7.76234 15.6171 7.80043 15.6493 7.83248C16.3125 8.41676 16.8448 9.13452 17.2114 9.93877C17.578 10.743 17.7707 11.6156 17.7767 12.4995C17.7741 12.8207 17.7453 13.1412 17.6905 13.4578C17.4953 14.7188 16.9216 15.8907 16.0453 16.8183C15.1691 17.7458 14.0317 18.3853 12.7839 18.6519C12.6943 18.6688 12.6151 18.7205 12.5635 18.7956C12.5303 18.882 12.5303 18.9776 12.5635 19.0639L13.5218 23.5009C13.5375 23.5778 13.5796 23.6468 13.6409 23.6958C13.7022 23.7449 13.7787 23.7709 13.8572 23.7693H13.9339C16.2257 23.2889 18.3162 22.1203 19.9259 20.4198C21.5357 18.7193 22.5879 16.5679 22.942 14.2532C23.0048 13.6709 23.024 13.0847 22.9995 12.4995C22.999 10.8822 22.6573 9.2832 21.9967 7.80693C21.3362 6.33067 20.3717 5.01033 19.1663 3.93213Z" fill="#4E2583"/>
<path d="M1.17874 15.7006C0.688792 14.1114 0.571746 12.4308 0.836697 10.7891C1.10165 9.14735 1.74146 7.58882 2.70645 6.2345C3.67144 4.88018 4.93563 3.76652 6.40083 2.98003C7.86603 2.19354 9.4928 1.75537 11.1548 1.69957V5.53283C9.3675 5.62145 7.68282 6.3944 6.44997 7.69148C5.21713 8.98856 4.53065 10.7103 4.53285 12.4998C4.53153 13.1475 4.61858 13.7923 4.79159 14.4164L1.17874 15.7006ZM5.23242 12.4998C5.23242 10.8376 5.89273 9.24344 7.06809 8.06808C8.24346 6.89272 9.83759 6.23241 11.4998 6.23241C11.5922 6.22991 11.6799 6.19145 11.7444 6.12522C11.8088 6.059 11.8448 5.97023 11.8448 5.87783V1.34499C11.8448 1.2535 11.8085 1.16575 11.7438 1.10105C11.6791 1.03635 11.5913 1 11.4998 1C8.44987 1 5.52485 2.21158 3.36823 4.36821C1.2116 6.52484 1.41694e-05 9.44986 1.41694e-05 12.4998C-0.00200517 13.7787 0.211827 15.0487 0.632503 16.2564C0.654689 16.3255 0.698126 16.3859 0.756629 16.4289C0.815132 16.4719 0.885717 16.4954 0.95833 16.496H1.07333L5.357 14.9914C5.40069 14.9773 5.44113 14.9547 5.47596 14.9248C5.51079 14.8949 5.5393 14.8584 5.55983 14.8173C5.58035 14.7763 5.59248 14.7315 5.5955 14.6857C5.59852 14.6399 5.59237 14.594 5.57741 14.5506C5.34988 13.8908 5.2333 13.1978 5.23242 12.4998Z" fill="#4E2583"/>
<path d="M10.043 18.9683C10.0614 18.9017 10.06 18.8312 10.0389 18.7655C10.0179 18.6997 9.97803 18.6415 9.92434 18.598C9.87065 18.5546 9.80544 18.5277 9.73671 18.5208C9.66798 18.5139 9.59873 18.5272 9.53747 18.5591C9.4762 18.591 9.42559 18.6402 9.39185 18.7004C9.35811 18.7607 9.34272 18.8295 9.34755 18.8984C9.35238 18.9673 9.37724 19.0333 9.41906 19.0883C9.46088 19.1433 9.51785 19.1848 9.58297 19.2079H9.68838C9.76347 19.2072 9.83641 19.1827 9.89668 19.138C9.95696 19.0932 10.0015 19.0304 10.0238 18.9587" fill="#4E2583"/>
<path d="M8.53871 18.4316C8.58372 18.3501 8.59489 18.2541 8.56979 18.1645C8.54468 18.0748 8.48533 17.9987 8.40454 17.9524C8.32399 17.9103 8.23036 17.9008 8.14298 17.9258C8.05559 17.9507 7.98113 18.0083 7.93497 18.0866C7.91138 18.1266 7.89612 18.171 7.89011 18.2171C7.88409 18.2632 7.88745 18.31 7.89998 18.3547C7.91251 18.3995 7.93395 18.4412 7.96302 18.4775C7.99209 18.5137 8.02818 18.5438 8.06913 18.5657C8.12559 18.5812 8.18517 18.5812 8.24163 18.5657C8.3019 18.5654 8.36104 18.5493 8.41316 18.5191C8.46529 18.4888 8.50857 18.4454 8.53871 18.3932" fill="#4E2583"/>
<path d="M7.20659 17.0617C7.17468 17.0234 7.13506 16.9923 7.0903 16.9703C7.04555 16.9484 6.99666 16.9361 6.94685 16.9343C6.89703 16.9325 6.8474 16.9413 6.80119 16.96C6.75498 16.9787 6.71323 17.0069 6.67867 17.0428C6.6441 17.0787 6.6175 17.1215 6.6006 17.1684C6.5837 17.2153 6.57687 17.2652 6.58057 17.315C6.58426 17.3647 6.5984 17.413 6.62205 17.4569C6.64571 17.5008 6.67835 17.5392 6.71785 17.5696C6.7838 17.629 6.86872 17.6629 6.95742 17.6654C7.00623 17.6657 7.05454 17.6555 7.09914 17.6357C7.14374 17.6159 7.18363 17.5868 7.21617 17.5504C7.24833 17.5184 7.27385 17.4803 7.29126 17.4384C7.30868 17.3964 7.31764 17.3515 7.31764 17.3061C7.31764 17.2607 7.30868 17.2157 7.29126 17.1738C7.27385 17.1318 7.24833 17.0937 7.21617 17.0617H7.20659Z" fill="#4E2583"/>
<path d="M11.2891 18.7671C11.243 18.7646 11.1969 18.7713 11.1534 18.7868C11.1099 18.8024 11.0701 18.8266 11.0361 18.8578C11.0021 18.8891 10.9748 18.9269 10.9557 18.9689C10.9366 19.011 10.9262 19.0564 10.9249 19.1026C10.9223 19.195 10.9559 19.2848 11.0186 19.3529C11.0812 19.4209 11.168 19.4617 11.2604 19.4667C11.3432 19.453 11.4185 19.4102 11.4727 19.3462C11.527 19.2821 11.5568 19.2009 11.5568 19.1169C11.5568 19.033 11.527 18.9517 11.4727 18.8877C11.4185 18.8236 11.3432 18.7809 11.2604 18.7671" fill="#4E2583"/>
<path d="M5.75005 15.7963C5.70482 15.822 5.66582 15.8574 5.6358 15.8998C5.60577 15.9423 5.58547 15.9909 5.57632 16.0421C5.56718 16.0933 5.56941 16.1459 5.58288 16.1962C5.59634 16.2465 5.62069 16.2931 5.65421 16.3329C5.68694 16.3791 5.72995 16.4169 5.77986 16.4435C5.82976 16.4702 5.88517 16.4848 5.94171 16.4863C6.03321 16.4608 6.11086 16.4001 6.15759 16.3174C6.20432 16.2348 6.21629 16.1369 6.19087 16.0454C6.16546 15.9539 6.10473 15.8763 6.02206 15.8295C5.93939 15.7828 5.84154 15.7709 5.75005 15.7963Z" fill="#4E2583"/>
<path d="M1.98395 17.6173C1.96278 17.5768 1.93378 17.5409 1.89863 17.5117C1.86349 17.4825 1.82289 17.4606 1.77921 17.4472C1.73552 17.4339 1.68962 17.4293 1.64416 17.4338C1.59869 17.4383 1.55458 17.4518 1.51437 17.4735C1.43444 17.5181 1.37484 17.5919 1.34805 17.6794C1.32126 17.7669 1.32935 17.8614 1.37063 17.9431C1.399 18.0003 1.44269 18.0485 1.49683 18.0823C1.55097 18.1162 1.61344 18.1343 1.67729 18.1348C1.73771 18.1323 1.79674 18.1159 1.84978 18.0868C1.88946 18.0649 1.92441 18.0353 1.95263 17.9997C1.98085 17.9642 2.00179 17.9235 2.01425 17.8799C2.02671 17.8363 2.03045 17.7906 2.02525 17.7456C2.02005 17.7005 2.00602 17.6569 1.98395 17.6173Z" fill="#4E2583"/>
<path d="M3.59351 20.3674C3.52797 20.4337 3.49121 20.5232 3.49121 20.6165C3.49121 20.7098 3.52797 20.7993 3.59351 20.8657C3.657 20.9217 3.73886 20.9524 3.82351 20.9519C3.92014 20.9516 4.01288 20.9138 4.08225 20.8465C4.11372 20.8132 4.1383 20.774 4.1546 20.7311C4.17091 20.6882 4.17861 20.6426 4.17728 20.5968C4.17594 20.5509 4.1656 20.5058 4.14683 20.464C4.12805 20.4222 4.10123 20.3844 4.06788 20.353C4.03453 20.3215 3.99531 20.2969 3.95246 20.2806C3.90961 20.2643 3.86396 20.2566 3.81813 20.258C3.77231 20.2593 3.72719 20.2696 3.68536 20.2884C3.64353 20.3072 3.60581 20.334 3.57435 20.3674" fill="#4E2583"/>
<path d="M2.43436 19.0066C2.39816 19.0346 2.36791 19.0696 2.34539 19.1095C2.32286 19.1494 2.3085 19.1934 2.30314 19.2389C2.29779 19.2844 2.30155 19.3305 2.31421 19.3745C2.32687 19.4185 2.34816 19.4596 2.37686 19.4953C2.41008 19.5372 2.45233 19.571 2.50046 19.5942C2.54858 19.6174 2.60133 19.6295 2.65477 19.6295C2.73282 19.6266 2.80877 19.6035 2.87519 19.5624C2.94616 19.5042 2.9918 19.4208 3.00253 19.3296C3.01325 19.2385 2.98821 19.1467 2.93268 19.0737C2.90532 19.0367 2.87086 19.0057 2.83132 18.9822C2.79178 18.9588 2.74796 18.9435 2.70243 18.9373C2.6569 18.931 2.61058 18.9339 2.56619 18.9458C2.52181 18.9577 2.48024 18.9784 2.44394 19.0066" fill="#4E2583"/>
<path d="M4.95461 21.5274C4.90218 21.604 4.88185 21.698 4.89797 21.7894C4.9141 21.8808 4.9654 21.9622 5.04086 22.0161C5.1017 22.0527 5.17113 22.0726 5.24211 22.0736C5.3163 22.0739 5.38859 22.0501 5.44824 22.006C5.50788 21.9619 5.55172 21.8997 5.57324 21.8287C5.59475 21.7577 5.59281 21.6816 5.56768 21.6118C5.54256 21.542 5.4956 21.4822 5.43377 21.4412C5.35873 21.3892 5.26618 21.3692 5.17638 21.3853C5.08658 21.4015 5.00684 21.4526 4.95461 21.5274Z" fill="#4E2583"/>
<path d="M11.9884 23.29C11.896 23.295 11.8093 23.3359 11.7466 23.4039C11.6839 23.4719 11.6503 23.5617 11.653 23.6542C11.6579 23.7449 11.6974 23.8302 11.7634 23.8926C11.8293 23.955 11.9167 23.9897 12.0076 23.9896C12.0904 23.9759 12.1656 23.9331 12.2199 23.8691C12.2742 23.805 12.304 23.7238 12.304 23.6398C12.304 23.5559 12.2742 23.4746 12.2199 23.4106C12.1656 23.3465 12.0904 23.3038 12.0076 23.29" fill="#4E2583"/>
<path d="M6.93841 22.2936C6.89693 22.2744 6.85205 22.2637 6.80637 22.262C6.7607 22.2603 6.71514 22.2676 6.67234 22.2837C6.62954 22.2997 6.59036 22.3241 6.55707 22.3555C6.52378 22.3868 6.49704 22.4244 6.47842 22.4661C6.45755 22.5068 6.44521 22.5513 6.44216 22.5969C6.4391 22.6425 6.44539 22.6882 6.46065 22.7313C6.47591 22.7744 6.4998 22.8139 6.53087 22.8474C6.56194 22.8809 6.59953 22.9077 6.64133 22.9261C6.69203 22.9353 6.74396 22.9353 6.79466 22.9261C6.86116 22.9266 6.92639 22.9079 6.9825 22.8722C7.03861 22.8365 7.0832 22.7853 7.11091 22.7249C7.14712 22.6408 7.14938 22.5459 7.11723 22.4602C7.08508 22.3744 7.021 22.3045 6.93841 22.2649" fill="#4E2583"/>
<path d="M10.2538 23.2334C10.1627 23.2252 10.072 23.2525 10.0005 23.3096C9.92909 23.3668 9.88251 23.4493 9.87052 23.54C9.86519 23.5854 9.86893 23.6313 9.8815 23.6752C9.89407 23.7191 9.91524 23.7601 9.94376 23.7958C9.97229 23.8314 10.0076 23.8611 10.0477 23.883C10.0877 23.9049 10.1318 23.9186 10.1772 23.9234C10.2687 23.9234 10.3564 23.887 10.4211 23.8223C10.4858 23.7576 10.5222 23.6699 10.5222 23.5784C10.5222 23.4869 10.4858 23.3991 10.4211 23.3344C10.3564 23.2697 10.2687 23.2334 10.1772 23.2334" fill="#4E2583"/>
<path d="M8.55774 22.8976C8.47007 22.874 8.37664 22.8859 8.29771 22.9308C8.21878 22.9756 8.1607 23.0498 8.13608 23.1372C8.12153 23.1812 8.11627 23.2277 8.12062 23.2739C8.12497 23.32 8.13884 23.3648 8.16135 23.4053C8.18386 23.4458 8.21453 23.4812 8.25141 23.5093C8.2883 23.5374 8.3306 23.5575 8.37566 23.5684H8.47149C8.54613 23.5705 8.61922 23.5469 8.67853 23.5015C8.73784 23.4562 8.77978 23.3918 8.79732 23.3192C8.81186 23.2752 8.81713 23.2287 8.81278 23.1825C8.80843 23.1364 8.79456 23.0916 8.77205 23.0511C8.74954 23.0106 8.71887 22.9752 8.68198 22.9471C8.6451 22.919 8.60279 22.8989 8.55774 22.888" fill="#4E2583"/>
<path d="M13.9436 9.36638C14.1138 9.38641 14.2708 9.46821 14.3846 9.59628C14.4985 9.72436 14.5614 9.88978 14.5614 10.0612C14.5614 10.2325 14.4985 10.398 14.3846 10.526C14.2708 10.6541 14.1138 10.7359 13.9436 10.7559C13.8455 10.7675 13.7461 10.7581 13.6519 10.7285C13.5577 10.6988 13.4708 10.6496 13.397 10.5839C13.3232 10.5183 13.2641 10.4378 13.2237 10.3477C13.1832 10.2576 13.1623 10.1599 13.1623 10.0612C13.1623 9.96239 13.1832 9.86475 13.2237 9.77464C13.2641 9.68454 13.3232 9.60402 13.397 9.53839C13.4708 9.47276 13.5577 9.4235 13.6519 9.39385C13.7461 9.3642 13.8455 9.35484 13.9436 9.36638ZM13.9436 11.4555C14.2203 11.4555 14.4908 11.3735 14.7209 11.2197C14.951 11.066 15.1303 10.8475 15.2362 10.5918C15.3421 10.3361 15.3699 10.0548 15.3159 9.78341C15.2619 9.512 15.1286 9.2627 14.933 9.06703C14.7373 8.87135 14.488 8.7381 14.2166 8.68411C13.9452 8.63012 13.6638 8.65783 13.4082 8.76373C13.1525 8.86963 12.934 9.04896 12.7803 9.27905C12.6265 9.50914 12.5445 9.77964 12.5445 10.0564C12.5432 10.2405 12.5785 10.423 12.6484 10.5933C12.7182 10.7636 12.8212 10.9184 12.9514 11.0486C13.0816 11.1787 13.2363 11.2817 13.4067 11.3516C13.577 11.4215 13.7595 11.4568 13.9436 11.4555Z" fill="#4E2583"/>
</g>
<defs>
<clipPath id="clip0">
<rect width="23.43" height="24" fill="white"/>
</clipPath>
</defs>
</svg>
