<svg width="24" height="24" viewBox="0 0 24 24" fill="none" xmlns="http://www.w3.org/2000/svg">
<path d="M1.23392 12.17H1.58392L3.47392 20.86C3.53249 21.1194 3.67695 21.3513 3.88387 21.5183C4.09078 21.6853 4.34804 21.7775 4.61392 21.78H19.2739C19.541 21.778 19.7997 21.6862 20.0083 21.5193C20.2169 21.3524 20.3633 21.1202 20.4239 20.86L22.3139 12.17H22.6539C22.9906 12.141 23.3042 11.9867 23.5326 11.7376C23.7611 11.4886 23.8878 11.163 23.8878 10.825C23.8878 10.4871 23.7611 10.1614 23.5326 9.91238C23.3042 9.66335 22.9906 9.50907 22.6539 9.48001H12.9539L9.18392 2.69001C9.06644 2.48039 8.89514 2.30592 8.6877 2.18462C8.48027 2.06332 8.24421 1.99959 8.00392 2.00001C7.77616 1.99921 7.55212 2.0578 7.35392 2.17001C7.19694 2.25825 7.05937 2.37723 6.9494 2.51984C6.83944 2.66245 6.75935 2.82576 6.71392 3.00001C6.66695 3.16637 6.65338 3.34037 6.67397 3.512C6.69457 3.68363 6.74893 3.84949 6.83392 4.00001L9.83392 9.48001H1.23392C0.897223 9.50907 0.583671 9.66335 0.355211 9.91238C0.126751 10.1614 0 10.4871 0 10.825C0 11.163 0.126751 11.4886 0.355211 11.7376C0.583671 11.9867 0.897223 12.141 1.23392 12.17ZM12.9039 12.17H21.5439L19.6939 20.69C19.6717 20.7853 19.6183 20.8705 19.5423 20.9321C19.4662 20.9937 19.3718 21.0281 19.2739 21.03H4.61392C4.51914 21.0265 4.42802 20.9925 4.35414 20.9331C4.28026 20.8736 4.22756 20.7919 4.20392 20.7L2.35392 12.17H12.8939H12.9039ZM23.2439 10.82C23.2439 10.9765 23.1818 11.1266 23.0711 11.2372C22.9605 11.3478 22.8104 11.41 22.6539 11.41H12.7239C12.9032 11.2737 13.0443 11.0936 13.1336 10.8869C13.2229 10.6802 13.2575 10.4539 13.2339 10.23H22.6539C22.8104 10.23 22.9605 10.2922 23.0711 10.4028C23.1818 10.5135 23.2439 10.6635 23.2439 10.82ZM7.43392 3.18001C7.45671 3.10539 7.49408 3.03604 7.54386 2.97596C7.59364 2.91588 7.65484 2.86628 7.72392 2.83001C7.80816 2.7782 7.90502 2.75053 8.00392 2.75001C8.11051 2.74989 8.21515 2.77865 8.30671 2.83323C8.39827 2.88781 8.47333 2.96618 8.52392 3.06001L12.4239 10.06C12.4996 10.1982 12.5179 10.3606 12.4749 10.5121C12.4318 10.6637 12.3309 10.7922 12.1939 10.87C12.0557 10.9457 11.8933 10.964 11.7418 10.921C11.5902 10.8779 11.4617 10.777 11.3839 10.64L7.49392 3.64001C7.45335 3.57137 7.42712 3.49521 7.41681 3.41615C7.4065 3.33709 7.41232 3.25676 7.43392 3.18001ZM1.23392 10.23H10.2939L10.7239 11C10.808 11.1615 10.9277 11.3017 11.0739 11.41H1.23392C1.07744 11.41 0.927372 11.3478 0.816725 11.2372C0.706079 11.1266 0.643918 10.9765 0.643918 10.82C0.643918 10.6635 0.706079 10.5135 0.816725 10.4028C0.927372 10.2922 1.07744 10.23 1.23392 10.23Z" fill="#4E2583"/>
<path d="M12.0638 10.3698C12.1328 10.2989 12.1715 10.2038 12.1715 10.1048C12.1715 10.0058 12.1328 9.91075 12.0638 9.83981C12.0293 9.80443 11.9881 9.77632 11.9426 9.75712C11.8971 9.73792 11.8482 9.72803 11.7988 9.72803C11.7494 9.72803 11.7005 9.73792 11.655 9.75712C11.6095 9.77632 11.5683 9.80443 11.5338 9.83981C11.4924 9.87141 11.4579 9.91118 11.4325 9.95666C11.4071 10.0021 11.3913 10.0523 11.3862 10.1042C11.381 10.156 11.3865 10.2084 11.4024 10.258C11.4183 10.3076 11.4443 10.3534 11.4786 10.3925C11.513 10.4317 11.555 10.4634 11.6021 10.4856C11.6492 10.5078 11.7004 10.5201 11.7525 10.5218C11.8045 10.5234 11.8564 10.5143 11.9048 10.495C11.9532 10.4758 11.9971 10.4468 12.0338 10.4098L12.0638 10.3698Z" fill="#4E2583"/>
<path d="M13.364 13.2598C13.075 13.2626 12.7893 13.3223 12.5233 13.4355C12.2574 13.5488 12.0163 13.7133 11.814 13.9198C11.6112 13.7112 11.3686 13.5454 11.1007 13.4321C10.8328 13.3187 10.5449 13.2601 10.254 13.2598C9.68379 13.2598 9.13693 13.4863 8.73372 13.8895C8.33052 14.2927 8.104 14.8395 8.104 15.4098C8.104 17.5498 11.024 19.5098 11.624 19.8798C11.679 19.9201 11.7458 19.9412 11.814 19.9398C11.8818 19.9386 11.9478 19.9178 12.004 19.8798C12.594 19.5098 15.514 17.5398 15.514 15.4098C15.514 14.8395 15.2875 14.2927 14.8843 13.8895C14.4811 13.4863 13.9342 13.2598 13.364 13.2598ZM10.254 13.9998C10.5093 14.0015 10.7598 14.0698 10.9807 14.1978C11.2017 14.3258 11.3855 14.5091 11.514 14.7298C11.5423 14.7788 11.5832 14.8195 11.6324 14.8476C11.6816 14.8757 11.7373 14.8903 11.794 14.8898C11.8583 14.8971 11.9233 14.8848 11.9804 14.8544C12.0375 14.8241 12.0841 14.7771 12.114 14.7198C12.2732 14.44 12.521 14.2212 12.8184 14.0978C13.1157 13.9744 13.4456 13.9534 13.7561 14.0382C14.0667 14.123 14.3402 14.3087 14.5335 14.5661C14.7269 14.8235 14.8291 15.1379 14.824 15.4598C14.824 17.0898 12.474 18.7898 11.824 19.2298C11.264 18.8598 8.824 17.1298 8.824 15.4598C8.82392 15.0777 8.97362 14.7108 9.24097 14.4379C9.50832 14.1649 9.87201 14.0076 10.254 13.9998Z" fill="#4E2583"/>
<path d="M13.4939 15.2898L11.8239 17.1698L11.0739 16.3898C11.0365 16.3593 10.9892 16.3434 10.941 16.345C10.8927 16.3466 10.8466 16.3656 10.8113 16.3985C10.7759 16.4314 10.7537 16.476 10.7486 16.5241C10.7436 16.5721 10.7561 16.6203 10.7839 16.6598L11.6839 17.5998C11.7034 17.6197 11.7267 17.6353 11.7526 17.6457C11.7784 17.656 11.8061 17.6608 11.8339 17.6598C11.8609 17.6588 11.8873 17.652 11.9114 17.6399C11.9356 17.6279 11.9569 17.6108 11.9739 17.5898L13.7839 15.5898C13.8017 15.5722 13.8159 15.5512 13.8256 15.528C13.8352 15.5048 13.8402 15.48 13.8402 15.4548C13.8402 15.4297 13.8352 15.4049 13.8256 15.3817C13.8159 15.3585 13.8017 15.3375 13.7839 15.3198C13.7661 15.3004 13.7445 15.285 13.7204 15.2744C13.6963 15.2638 13.6702 15.2583 13.6439 15.2583C13.6176 15.2583 13.5915 15.2638 13.5674 15.2744C13.5433 15.285 13.5217 15.3004 13.5039 15.3198L13.4939 15.2898Z" fill="#4E2583"/>
<path d="M13.8938 15.6599L12.0838 17.6599C12.0538 17.6974 12.0157 17.7276 11.9724 17.7484C11.9292 17.7692 11.8818 17.7799 11.8338 17.7799C11.7852 17.7806 11.7369 17.7712 11.6922 17.7523C11.6474 17.7333 11.6071 17.7053 11.5738 17.6699L10.6738 16.7399C10.6416 16.7071 10.6162 16.6682 10.599 16.6256C10.5819 16.5829 10.5733 16.5373 10.5737 16.4914C10.5742 16.4454 10.5837 16.4 10.6017 16.3577C10.6198 16.3154 10.6459 16.2771 10.6788 16.2449C10.7116 16.2127 10.7504 16.1873 10.7931 16.1702C10.8357 16.153 10.8813 16.1444 10.9273 16.1449C10.9733 16.1453 11.0187 16.1549 11.061 16.1729C11.1033 16.1909 11.1416 16.2171 11.1738 16.2499L11.8138 16.9199L13.3738 15.1599C13.4046 15.1258 13.4419 15.098 13.4835 15.0783C13.5251 15.0586 13.5701 15.0472 13.6161 15.0449C13.6621 15.0426 13.708 15.0493 13.7514 15.0648C13.7947 15.0802 13.8346 15.104 13.8688 15.1349C13.9029 15.1658 13.9306 15.203 13.9504 15.2446C13.9701 15.2862 13.9815 15.3313 13.9838 15.3772C13.9861 15.4232 13.9794 15.4692 13.9639 15.5125C13.9485 15.5559 13.9246 15.5958 13.8938 15.6299V15.6599Z" fill="#4E2583"/>
</svg>
