<svg width="24" height="24" viewBox="0 0 24 24" fill="none" xmlns="http://www.w3.org/2000/svg">
<path d="M23.27 20.8088C23.27 21.303 23.0744 21.7771 22.7258 22.1275C22.3773 22.4779 21.9042 22.6761 21.41 22.6788H2.59C2.09578 22.6761 1.6227 22.4779 1.27417 22.1275C0.925637 21.7771 0.729993 21.303 0.73 20.8088V5.39875H23.27V20.8088ZM0.73 4.01875C0.732627 3.52626 0.929434 3.05469 1.27768 2.70644C1.62593 2.35819 2.09751 2.16138 2.59 2.15875H2.8C2.8848 2.56015 3.10491 2.92023 3.42348 3.17873C3.74205 3.43722 4.13975 3.57844 4.55 3.57875C4.64639 3.57615 4.73795 3.53602 4.80519 3.46691C4.87243 3.3978 4.91004 3.30517 4.91 3.20875C4.91 3.16148 4.90069 3.11466 4.8826 3.07099C4.8645 3.02731 4.83799 2.98762 4.80456 2.95419C4.77113 2.92076 4.73144 2.89425 4.68777 2.87616C4.64409 2.85806 4.59728 2.84875 4.55 2.84875C4.33236 2.85157 4.11922 2.78669 3.94007 2.66307C3.76092 2.53946 3.62461 2.36323 3.55 2.15875H7.55C7.63368 2.55516 7.84937 2.91146 8.1618 3.16939C8.47423 3.42733 8.86492 3.57165 9.27 3.57875C9.36733 3.57622 9.45998 3.53643 9.52883 3.46758C9.59768 3.39873 9.63747 3.30609 9.64 3.20875C9.63739 3.11237 9.59726 3.0208 9.52816 2.95356C9.45905 2.88632 9.36642 2.84872 9.27 2.84875C9.05236 2.85157 8.83922 2.78669 8.66007 2.66307C8.48092 2.53946 8.34461 2.36323 8.27 2.15875H12.6C12.6844 2.55847 12.9031 2.91728 13.2196 3.17559C13.5361 3.4339 13.9315 3.57616 14.34 3.57875C14.4381 3.57875 14.5322 3.53977 14.6016 3.47038C14.671 3.40099 14.71 3.30688 14.71 3.20875C14.71 3.16062 14.7004 3.11298 14.6817 3.06864C14.663 3.02429 14.6355 2.98416 14.601 2.95059C14.5666 2.91703 14.5257 2.89072 14.4808 2.87323C14.436 2.85574 14.3881 2.84742 14.34 2.84875C14.1224 2.85157 13.9092 2.78669 13.7301 2.66307C13.5509 2.53946 13.4146 2.36323 13.34 2.15875H17.67C17.7548 2.56015 17.9749 2.92023 18.2935 3.17873C18.612 3.43722 19.0097 3.57844 19.42 3.57875C19.5164 3.57615 19.6079 3.53602 19.6752 3.46691C19.7424 3.3978 19.78 3.30517 19.78 3.20875C19.78 3.11327 19.7421 3.02171 19.6746 2.95419C19.607 2.88668 19.5155 2.84875 19.42 2.84875C19.2024 2.85157 18.9892 2.78669 18.8101 2.66307C18.6309 2.53946 18.4946 2.36323 18.42 2.15875H21.36C21.6081 2.15344 21.8547 2.19756 22.0856 2.28853C22.3164 2.37949 22.5269 2.5155 22.7047 2.68862C22.8824 2.86173 23.024 3.06849 23.121 3.29686C23.2181 3.52522 23.2687 3.77062 23.27 4.01875V4.66875H0.73V4.01875ZM4.55 0.748752C4.76807 0.73737 4.98386 0.797679 5.16443 0.920466C5.345 1.04325 5.48042 1.22177 5.55 1.42875H3.55C3.61958 1.22177 3.755 1.04325 3.93557 0.920466C4.11614 0.797679 4.33193 0.73737 4.55 0.748752ZM9.27 0.748752C9.48613 0.746624 9.69775 0.81062 9.87648 0.932159C10.0552 1.0537 10.1925 1.22697 10.27 1.42875H8.27C8.33958 1.22177 8.47499 1.04325 8.65557 0.920466C8.83614 0.797679 9.05193 0.73737 9.27 0.748752ZM14.36 0.748752C14.5781 0.73737 14.7939 0.797679 14.9744 0.920466C15.155 1.04325 15.2904 1.22177 15.36 1.42875H13.36C13.4296 1.22177 13.565 1.04325 13.7456 0.920466C13.9261 0.797679 14.1419 0.73737 14.36 0.748752ZM19.46 0.748752C19.6781 0.73737 19.8939 0.797679 20.0744 0.920466C20.255 1.04325 20.3904 1.22177 20.46 1.42875H18.46C18.5296 1.22177 18.665 1.04325 18.8456 0.920466C19.0261 0.797679 19.2419 0.73737 19.46 0.748752ZM21.41 1.42875H21.2C21.1189 1.02572 20.9007 0.663198 20.5826 0.402753C20.2646 0.142307 19.8661 0 19.455 0C19.0439 0 18.6454 0.142307 18.3274 0.402753C18.0093 0.663198 17.7911 1.02572 17.71 1.42875H16.11C16.0289 1.02572 15.8107 0.663198 15.4926 0.402753C15.1746 0.142307 14.7761 0 14.365 0C13.9539 0 13.5554 0.142307 13.2374 0.402753C12.9193 0.663198 12.7011 1.02572 12.62 1.42875H11C10.9142 1.03099 10.6947 0.674618 10.3781 0.41901C10.0615 0.163401 9.66691 0.0239855 9.26 0.0239855C8.85309 0.0239855 8.45846 0.163401 8.14186 0.41901C7.82525 0.674618 7.60578 1.03099 7.52 1.42875H6.29C6.20887 1.02572 5.99074 0.663198 5.67265 0.402753C5.35455 0.142307 4.95611 0 4.545 0C4.13389 0 3.73545 0.142307 3.41735 0.402753C3.09926 0.663198 2.88113 1.02572 2.8 1.42875H2.59C1.9039 1.43139 1.24665 1.70511 0.761503 2.19026C0.276354 2.67541 0.00263381 3.33265 0 4.01875L0 20.8088C0 21.4957 0.272874 22.1544 0.758593 22.6402C1.24431 23.1259 1.90309 23.3988 2.59 23.3988H21.41C22.0969 23.3988 22.7557 23.1259 23.2414 22.6402C23.7271 22.1544 24 21.4957 24 20.8088V4.01875C24 3.33092 23.7274 2.67111 23.242 2.1838C22.7566 1.69649 22.0978 1.4214 21.41 1.41875" fill="#4E2583"/>
<path d="M4.00021 11.3085H6.64021V13.6785H4.00021V11.3085ZM10.1102 13.6785H7.37021V11.3085H10.0602L10.1102 13.6785ZM13.5302 13.6785H10.7902V11.3085H13.4802L13.5302 13.6785ZM14.2002 8.21853H16.8902V10.5885H14.2002V8.21853ZM20.3102 10.5885H17.6202V8.21853H20.3102V10.5885ZM20.3102 16.7685H17.6202V14.3985H20.3102V16.7685ZM14.2002 14.3985H16.8902V16.7685H14.2002V14.3985ZM13.4802 19.8585H10.7902V17.4985H13.4802V19.8585ZM7.37021 17.4985H10.0602V19.8585H7.37021V17.4985ZM4.00021 17.4985H6.64021V19.8585H4.00021V17.4985ZM6.69021 16.7685H4.00021V14.3985H6.64021L6.69021 16.7685ZM10.1102 16.7685H7.37021V14.3985H10.0602L10.1102 16.7685ZM13.5302 16.7685H10.7902V14.3985H13.4802L13.5302 16.7685ZM20.3602 13.6785H17.6202V11.3085H20.3102L20.3602 13.6785ZM16.9402 13.6785H14.2002V11.3085H16.8902L16.9402 13.6785ZM3.59021 20.5885H13.8402C13.9366 20.5859 14.0282 20.5458 14.0954 20.4767C14.1626 20.4076 14.2002 20.315 14.2002 20.2185V17.4985H20.6802C20.7766 17.4959 20.8682 17.4558 20.9354 17.3867C21.0026 17.3176 21.0403 17.225 21.0402 17.1285V7.85854C21.0402 7.76306 21.0023 7.67149 20.9348 7.60398C20.8673 7.53646 20.7757 7.49854 20.6802 7.49854H13.8402C13.7447 7.49854 13.6532 7.53646 13.5857 7.60398C13.5181 7.67149 13.4802 7.76306 13.4802 7.85854V10.5885H3.59021C3.5421 10.5872 3.49421 10.5955 3.44938 10.613C3.40454 10.6305 3.36366 10.6568 3.32917 10.6904C3.29467 10.7239 3.26726 10.7641 3.24854 10.8084C3.22983 10.8528 3.2202 10.9004 3.22021 10.9485V20.2185C3.22021 20.2671 3.22979 20.3152 3.24838 20.3601C3.26697 20.405 3.29423 20.4458 3.32859 20.4802C3.36294 20.5145 3.40373 20.5418 3.44862 20.5604C3.49351 20.579 3.54163 20.5885 3.59021 20.5885Z" fill="#4E2583"/>
</svg>
