<svg width="24" height="24" viewBox="0 0 24 24" fill="none" xmlns="http://www.w3.org/2000/svg">
<g clip-path="url(#clip0)">
<path d="M18.37 20.8101C18.37 20.9056 18.3321 20.9971 18.2646 21.0647C18.1971 21.1322 18.1055 21.1701 18.01 21.1701H16.68V14.5801H18C18.0482 14.5801 18.0958 14.5897 18.1402 14.6084C18.1845 14.6271 18.2246 14.6546 18.2582 14.6891C18.2918 14.7235 18.3181 14.7644 18.3356 14.8093C18.3531 14.8541 18.3614 14.902 18.36 14.9501L18.37 20.8101ZM14.27 20.8101V20.2401C14.2674 19.8546 14.1124 19.4858 13.8389 19.2142C13.5654 18.9425 13.1955 18.7901 12.81 18.7901H6.29005C5.90456 18.7901 5.53471 18.9425 5.26119 19.2142C4.98767 19.4858 4.83269 19.8546 4.83005 20.2401V20.8101C4.83005 20.9056 4.79212 20.9971 4.7246 21.0647C4.65709 21.1322 4.56552 21.1701 4.47005 21.1701H3.14005V14.5801H4.47005C4.51817 14.5801 4.56582 14.5897 4.61016 14.6084C4.6545 14.6271 4.69464 14.6546 4.72821 14.6891C4.76177 14.7235 4.78807 14.7644 4.80557 14.8093C4.82306 14.8541 4.83138 14.902 4.83005 14.9501V15.5101C4.8274 15.704 4.86314 15.8965 4.93521 16.0765C5.00727 16.2565 5.11424 16.4205 5.24995 16.559C5.38565 16.6974 5.54742 16.8077 5.72592 16.8834C5.90443 16.9591 6.09615 16.9988 6.29005 17.0001H12.81C13.1965 16.9975 13.5663 16.8428 13.8395 16.5696C14.1128 16.2963 14.2674 15.9265 14.27 15.5401V15.0001C14.2687 14.952 14.277 14.9041 14.2945 14.8593C14.312 14.8144 14.3383 14.7735 14.3719 14.7391C14.4054 14.7046 14.4456 14.6771 14.4899 14.6584C14.5343 14.6397 14.5819 14.6301 14.63 14.6301H16V21.2201H14.63C14.5346 21.2201 14.443 21.1822 14.3755 21.1147C14.308 21.0471 14.27 20.9556 14.27 20.8601V20.8101ZM2.42005 21.2201H1.09005C0.994568 21.2201 0.903001 21.1822 0.835487 21.1147C0.767974 21.0471 0.730046 20.9556 0.730046 20.8601V15.0001C0.728709 14.952 0.737033 14.9041 0.754525 14.8593C0.772017 14.8144 0.798322 14.7735 0.831886 14.7391C0.865449 14.7046 0.905588 14.6771 0.94993 14.6584C0.994272 14.6397 1.04192 14.6301 1.09005 14.6301H2.42005V21.2201ZM18 13.8501H14.63C14.4817 13.8499 14.3349 13.8799 14.1986 13.9384C14.0623 13.9969 13.9393 14.0826 13.8373 14.1903C13.7352 14.2979 13.6563 14.4253 13.6051 14.5645C13.554 14.7038 13.5319 14.852 13.54 15.0001V15.5601C13.54 15.7537 13.4631 15.9394 13.3262 16.0763C13.1893 16.2132 13.0037 16.2901 12.81 16.2901H6.29005C6.09644 16.2901 5.91076 16.2132 5.77386 16.0763C5.63696 15.9394 5.56005 15.7537 5.56005 15.5601V15.0001C5.56137 14.8561 5.53415 14.7133 5.47996 14.5799C5.42578 14.4465 5.3457 14.3252 5.24435 14.2229C5.143 14.1206 5.02239 14.0394 4.88949 13.984C4.75659 13.9286 4.61403 13.9001 4.47005 13.9001H1.09005C0.94606 13.9001 0.803499 13.9286 0.670598 13.984C0.537697 14.0394 0.41709 14.1206 0.315742 14.2229C0.214395 14.3252 0.134315 14.4465 0.0801293 14.5799C0.0259434 14.7133 -0.0012751 14.8561 4.58763e-05 15.0001V20.8601C0.0129186 21.1404 0.133416 21.405 0.336452 21.5987C0.539488 21.7924 0.809418 21.9004 1.09005 21.9001H4.47005C4.75913 21.9001 5.03638 21.7853 5.24079 21.5808C5.44521 21.3764 5.56005 21.0992 5.56005 20.8101V20.2401C5.56005 20.0465 5.63696 19.8608 5.77386 19.7239C5.91076 19.587 6.09644 19.5101 6.29005 19.5101H12.81C13.0037 19.5101 13.1893 19.587 13.3262 19.7239C13.4631 19.8608 13.54 20.0465 13.54 20.2401V20.8101C13.54 21.0992 13.6549 21.3764 13.8593 21.5808C14.0637 21.7853 14.341 21.9001 14.63 21.9001H18C18.2891 21.9001 18.5664 21.7853 18.7708 21.5808C18.9752 21.3764 19.09 21.0992 19.09 20.8101V15.0001C19.0982 14.852 19.0761 14.7038 19.025 14.5645C18.9738 14.4253 18.8948 14.2979 18.7928 14.1903C18.6908 14.0826 18.5678 13.9969 18.4315 13.9384C18.2952 13.8799 18.1484 13.8499 18 13.8501Z" fill="#4E2583"/>
<path d="M23.2699 9.00005C23.2699 9.09647 23.2323 9.18909 23.1651 9.2582C23.0979 9.32731 23.0063 9.36744 22.9099 9.37005H21.5799V2.73005H22.9099C23.0054 2.73005 23.0969 2.76797 23.1645 2.83549C23.232 2.903 23.2699 2.99457 23.2699 3.09005V9.00005ZM19.1699 9.00005V8.39005C19.1699 8.00283 19.0161 7.63147 18.7423 7.35767C18.4685 7.08387 18.0971 6.93005 17.7099 6.93005H11.1899C10.9986 6.93004 10.8093 6.96788 10.6327 7.04137C10.4561 7.11486 10.2958 7.22256 10.161 7.35827C10.0263 7.49398 9.91967 7.65501 9.84739 7.83208C9.77512 8.00916 9.73858 8.19879 9.7399 8.39005V9.00005C9.73737 9.09738 9.69758 9.19003 9.62873 9.25887C9.55988 9.32772 9.46723 9.36752 9.3699 9.37005H8.0499V2.73005H9.3699C9.46632 2.73001 9.55895 2.76762 9.62806 2.83486C9.69717 2.9021 9.7373 2.99366 9.7399 3.09005V3.66005C9.7399 4.04461 9.89267 4.41342 10.1646 4.68535C10.4365 4.95728 10.8053 5.11005 11.1899 5.11005H17.7099C18.0954 5.11005 18.4652 4.95761 18.7388 4.68596C19.0123 4.41432 19.1673 4.04553 19.1699 3.66005V3.09005C19.1699 2.99457 19.2078 2.903 19.2753 2.83549C19.3429 2.76797 19.4344 2.73005 19.5299 2.73005H20.8599V9.32005H19.5299C19.4416 9.31847 19.3567 9.28534 19.2907 9.22665C19.2247 9.16796 19.1818 9.08758 19.1699 9.00005ZM5.6299 9.00005V3.09005C5.62988 3.04192 5.63952 2.99427 5.65823 2.94993C5.67694 2.90559 5.70436 2.86545 5.73885 2.83189C5.77335 2.79832 5.81423 2.77202 5.85906 2.75452C5.9039 2.73703 5.95179 2.72871 5.9999 2.73005H7.3199V9.32005H5.9999C5.90985 9.32087 5.82259 9.28883 5.75447 9.22992C5.68636 9.17101 5.64207 9.08928 5.6299 9.00005ZM22.9099 2.00005H19.5299C19.2408 2.00005 18.9636 2.11488 18.7592 2.3193C18.5547 2.52371 18.4399 2.80096 18.4399 3.09005V3.66005C18.4373 3.85192 18.3592 4.03503 18.2226 4.16978C18.086 4.30453 17.9018 4.38006 17.7099 4.38005H11.1899C10.998 4.38006 10.8138 4.30453 10.6772 4.16978C10.5406 4.03503 10.4625 3.85192 10.4599 3.66005V3.09005C10.4599 2.80096 10.3451 2.52371 10.1406 2.3193C9.93623 2.11488 9.65899 2.00005 9.3699 2.00005H5.9999C5.85592 1.99872 5.71311 2.02594 5.57971 2.08013C5.4463 2.13432 5.32496 2.21439 5.22268 2.31574C5.12041 2.41709 5.03922 2.5377 4.98382 2.6706C4.92842 2.8035 4.8999 2.94606 4.8999 3.09005V9.00005C4.92266 9.27499 5.04883 9.53108 5.25297 9.71667C5.45712 9.90225 5.72404 10.0035 5.9999 10H9.3699C9.64405 10.001 9.90848 9.89858 10.1105 9.71324C10.3125 9.52791 10.4373 9.27326 10.4599 9.00005V8.39005C10.4599 8.19644 10.5368 8.01076 10.6737 7.87386C10.8106 7.73696 10.9963 7.66005 11.1899 7.66005H17.7099C17.9035 7.66005 18.0892 7.73696 18.2261 7.87386C18.363 8.01076 18.4399 8.19644 18.4399 8.39005V9.00005C18.4625 9.27326 18.5873 9.52791 18.7893 9.71324C18.9913 9.89858 19.2558 10.001 19.5299 10H22.9099C23.184 10.001 23.4485 9.89858 23.6505 9.71324C23.8525 9.52791 23.9773 9.27326 23.9999 9.00005V3.09005C23.9999 2.80096 23.8851 2.52371 23.6806 2.3193C23.4762 2.11488 23.199 2.00005 22.9099 2.00005Z" fill="#4E2583"/>
</g>
<defs>
<clipPath id="clip0">
<rect width="24" height="24" fill="white"/>
</clipPath>
</defs>
</svg>
