<svg width="24" height="24" viewBox="0 0 24 24" fill="none" xmlns="http://www.w3.org/2000/svg">
<g clip-path="url(#clip0)">
<path d="M13.4298 2.78C13.5253 2.78 13.6169 2.74207 13.6844 2.67456C13.7519 2.60705 13.7898 2.51548 13.7898 2.42V0.36C13.7898 0.264522 13.7519 0.172955 13.6844 0.105442C13.6169 0.0379285 13.5253 0 13.4298 0C13.3343 0 13.2428 0.0379285 13.1753 0.105442C13.1078 0.172955 13.0698 0.264522 13.0698 0.36V2.42C13.0698 2.51548 13.1078 2.60705 13.1753 2.67456C13.2428 2.74207 13.3343 2.78 13.4298 2.78Z" fill="#4E2583"/>
<path d="M15.8499 3.36977C15.8961 3.37043 15.942 3.36194 15.9849 3.34477C16.0278 3.32761 16.0669 3.30212 16.0999 3.26977L17.6099 1.86977C17.6435 1.83633 17.6701 1.79659 17.6883 1.75283C17.7064 1.70907 17.7158 1.66215 17.7158 1.61477C17.7158 1.56739 17.7064 1.52048 17.6883 1.47672C17.6701 1.43296 17.6435 1.39322 17.6099 1.35977C17.5772 1.32496 17.5377 1.29722 17.4938 1.27826C17.45 1.25929 17.4027 1.24951 17.3549 1.24951C17.3071 1.24951 17.2599 1.25929 17.216 1.27826C17.1722 1.29722 17.1326 1.32496 17.0999 1.35977L15.5999 2.75977C15.545 2.80824 15.5061 2.87234 15.4885 2.94349C15.471 3.01464 15.4755 3.08945 15.5016 3.15794C15.5277 3.22642 15.5741 3.28531 15.6345 3.32674C15.695 3.36817 15.7666 3.39016 15.8399 3.38977" fill="#4E2583"/>
<path d="M10.7599 3.27004C10.7929 3.30239 10.832 3.32788 10.8749 3.34504C10.9179 3.36221 10.9637 3.3707 11.0099 3.37004C11.0593 3.3695 11.108 3.35853 11.1528 3.33785C11.1976 3.31717 11.2375 3.28724 11.2699 3.25004C11.3035 3.2166 11.3301 3.17686 11.3483 3.1331C11.3665 3.08934 11.3758 3.04242 11.3758 2.99504C11.3758 2.94766 11.3665 2.90075 11.3483 2.85699C11.3301 2.81323 11.3035 2.77349 11.2699 2.74004L9.74994 1.34004C9.71514 1.30787 9.67435 1.28286 9.62988 1.26646C9.58542 1.25005 9.53816 1.24256 9.4908 1.24442C9.44344 1.24627 9.39692 1.25744 9.35387 1.27728C9.31083 1.29712 9.27212 1.32524 9.23994 1.36004C9.20777 1.39484 9.18277 1.43564 9.16636 1.4801C9.14995 1.52457 9.14246 1.57183 9.14432 1.61918C9.14618 1.66654 9.15734 1.71307 9.17718 1.75611C9.19702 1.79916 9.22514 1.83787 9.25994 1.87004L10.7599 3.27004Z" fill="#4E2583"/>
<path d="M23.27 18.8198C23.27 19.1089 23.1552 19.3861 22.9507 19.5905C22.7463 19.7949 22.4691 19.9098 22.18 19.9098H21.18C21.0877 19.21 20.7441 18.5676 20.2134 18.1023C19.6826 17.637 19.0009 17.3804 18.295 17.3804C17.5891 17.3804 16.9074 17.637 16.3766 18.1023C15.8459 18.5676 15.5023 19.21 15.41 19.9098H13.77V12.9098H19.88L22.61 14.0798C22.8041 14.1659 22.9695 14.3058 23.0865 14.4831C23.2035 14.6603 23.2672 14.8674 23.27 15.0798V18.8198ZM18.27 22.4498C17.8388 22.4498 17.4174 22.3219 17.0589 22.0824C16.7004 21.8428 16.4209 21.5024 16.2559 21.104C16.0909 20.7057 16.0478 20.2674 16.1319 19.8445C16.216 19.4216 16.4236 19.0332 16.7285 18.7283C17.0334 18.4234 17.4218 18.2158 17.8447 18.1317C18.2676 18.0476 18.7059 18.0907 19.1042 18.2557C19.5026 18.4207 19.8431 18.7001 20.0826 19.0586C20.3221 19.4171 20.45 19.8386 20.45 20.2698C20.4474 20.8471 20.2168 21.4001 19.8086 21.8084C19.4003 22.2166 18.8474 22.4472 18.27 22.4498ZM12.27 6.19979L12.62 4.99979C12.673 4.8254 12.78 4.67235 12.9255 4.56271C13.0711 4.45307 13.2478 4.39252 13.43 4.38979C13.6126 4.39095 13.79 4.45091 13.9359 4.56078C14.0818 4.67064 14.1884 4.82458 14.24 4.99979L14.58 6.19979H12.27ZM13 19.9098H8.74C8.65673 19.2044 8.3175 18.5542 7.78665 18.0823C7.25581 17.6104 6.57025 17.3498 5.86 17.3498C5.14975 17.3498 4.46419 17.6104 3.93334 18.0823C3.4025 18.5542 3.06327 19.2044 2.98 19.9098H1.82C1.53091 19.9098 1.25367 19.7949 1.04925 19.5905C0.844839 19.3861 0.73 19.1089 0.73 18.8198V7.65979C0.729982 7.4679 0.805518 7.28372 0.940264 7.1471C1.07501 7.01048 1.25813 6.93241 1.45 6.92979H13V19.9098ZM5.86 22.4498C5.42722 22.4577 5.00188 22.3367 4.63815 22.102C4.27443 21.8673 3.9888 21.5297 3.81765 21.1321C3.6465 20.7345 3.59758 20.295 3.67713 19.8695C3.75667 19.4441 3.96108 19.0519 4.2643 18.743C4.56753 18.4341 4.95584 18.2225 5.37978 18.1351C5.80371 18.0477 6.24407 18.0884 6.64475 18.2522C7.04543 18.4159 7.38829 18.6953 7.62964 19.0546C7.871 19.4139 7.99993 19.8369 8 20.2698C7.99737 20.8471 7.76685 21.4001 7.35859 21.8084C6.95033 22.2166 6.39736 22.4472 5.82 22.4498H5.86ZM17.18 6.92979C17.4184 6.92994 17.6502 7.00827 17.8399 7.15277C18.0295 7.29726 18.1666 7.49995 18.23 7.72979L19.47 12.1798H13.77V6.92979H17.18ZM22.9 13.4198L20.26 12.2798L18.93 7.52979C18.8217 7.14847 18.5925 6.81263 18.2769 6.57278C17.9613 6.33293 17.5764 6.20203 17.18 6.19979H15.33L14.94 4.79979C14.841 4.47932 14.6419 4.199 14.372 3.99989C14.102 3.80078 13.7754 3.69336 13.44 3.69336C13.1046 3.69336 12.778 3.80078 12.508 3.99989C12.2381 4.199 12.039 4.47932 11.94 4.79979L11.55 6.19979H1.45C1.06452 6.20243 0.695727 6.35741 0.424083 6.63093C0.152438 6.90445 -9.04196e-06 7.2743 4.02235e-10 7.65979L4.02235e-10 18.8198C0.00264267 19.3007 0.195558 19.7611 0.536588 20.1003C0.877619 20.4394 1.33903 20.6298 1.82 20.6298H3C3.08327 21.3351 3.4225 21.9854 3.95334 22.4573C4.48419 22.9291 5.16975 23.1898 5.88 23.1898C6.59025 23.1898 7.27581 22.9291 7.80665 22.4573C8.3375 21.9854 8.67673 21.3351 8.76 20.6298H15.4C15.4923 21.3296 15.8359 21.972 16.3666 22.4373C16.8974 22.9026 17.5791 23.1592 18.285 23.1592C18.9909 23.1592 19.6726 22.9026 20.2034 22.4373C20.7341 21.972 21.0777 21.3296 21.17 20.6298H22.17C22.409 20.6311 22.6459 20.5853 22.8672 20.4951C23.0886 20.4048 23.2899 20.2719 23.4599 20.1038C23.6298 19.9357 23.765 19.7358 23.8576 19.5155C23.9503 19.2952 23.9987 19.0588 24 18.8198V15.0898C24.0023 14.7339 23.899 14.3852 23.7032 14.088C23.5075 13.7907 23.2279 13.5582 22.9 13.4198Z" fill="#4E2583"/>
<path d="M16.6598 13.7998H15.1598C15.0643 13.7998 14.9728 13.8377 14.9052 13.9052C14.8377 13.9728 14.7998 14.0643 14.7998 14.1598C14.7998 14.2562 14.8374 14.3489 14.9046 14.418C14.9719 14.4871 15.0634 14.5272 15.1598 14.5298H16.6598C16.7571 14.5273 16.8498 14.4875 16.9186 14.4186C16.9875 14.3498 17.0273 14.2571 17.0298 14.1598C17.0272 14.0634 16.9871 13.9719 16.918 13.9046C16.8489 13.8374 16.7562 13.7998 16.6598 13.7998Z" fill="#4E2583"/>
<path d="M4.39992 12.1701C4.39342 12.1501 4.39188 12.1288 4.39543 12.108C4.39898 12.0873 4.40751 12.0677 4.4203 12.051C4.43309 12.0342 4.44974 12.0209 4.46884 12.012C4.48793 12.0031 4.5089 11.999 4.52992 12.0001H5.99992C6.0954 12.0001 6.18697 11.9622 6.25448 11.8946C6.32199 11.8271 6.35992 11.7356 6.35992 11.6401V10.1901C6.35992 10.1556 6.37362 10.1225 6.398 10.0982C6.42238 10.0738 6.45544 10.0601 6.48992 10.0601H7.23992C7.2744 10.0601 7.30747 10.0738 7.33185 10.0982C7.35623 10.1225 7.36992 10.1556 7.36992 10.1901V11.6801C7.36992 11.7756 7.40785 11.8671 7.47536 11.9346C7.54288 12.0022 7.63444 12.0401 7.72992 12.0401H9.23992C9.2744 12.0401 9.30747 12.0538 9.33185 12.0782C9.35623 12.1025 9.36992 12.1356 9.36992 12.1701V12.9201C9.36992 12.9372 9.36656 12.9541 9.36003 12.9698C9.35349 12.9856 9.34392 12.9999 9.33185 13.012C9.31977 13.0241 9.30544 13.0336 9.28967 13.0402C9.2739 13.0467 9.25699 13.0501 9.23992 13.0501H7.74992C7.65444 13.0501 7.56288 13.088 7.49536 13.1555C7.42785 13.223 7.38992 13.3146 7.38992 13.4101V14.9001C7.38992 14.9346 7.37623 14.9676 7.35185 14.992C7.32747 15.0164 7.2944 15.0301 7.25992 15.0301H6.50992C6.47544 15.0301 6.44238 15.0164 6.418 14.992C6.39362 14.9676 6.37992 14.9346 6.37992 14.9001V13.4101C6.38 13.3611 6.37007 13.3126 6.35074 13.2675C6.33141 13.2225 6.30309 13.1819 6.26751 13.1482C6.23193 13.1145 6.18985 13.0884 6.14384 13.0715C6.09783 13.0547 6.04885 13.0474 5.99992 13.0501H4.52992C4.51285 13.0501 4.49595 13.0467 4.48017 13.0402C4.4644 13.0336 4.45007 13.0241 4.438 13.012C4.42593 12.9999 4.41635 12.9856 4.40982 12.9698C4.40328 12.9541 4.39992 12.9372 4.39992 12.9201V12.1701ZM4.52992 13.7701H5.64992V14.9001C5.65252 15.1274 5.74396 15.3446 5.90468 15.5053C6.0654 15.666 6.28264 15.7575 6.50992 15.7601H7.25992C7.4872 15.7575 7.70444 15.666 7.86516 15.5053C8.02588 15.3446 8.11732 15.1274 8.11992 14.9001V13.7701H9.23992C9.46629 13.7701 9.68353 13.6809 9.84453 13.5217C10.0055 13.3626 10.0973 13.1464 10.0999 12.9201V12.1701C10.0973 11.9428 10.0059 11.7256 9.84516 11.5648C9.68444 11.4041 9.4672 11.3127 9.23992 11.3101H8.11992V10.1901C8.11732 9.9628 8.02588 9.74556 7.86516 9.58484C7.70444 9.42412 7.4872 9.33268 7.25992 9.33008H6.50992C6.28264 9.33268 6.0654 9.42412 5.90468 9.58484C5.74396 9.74556 5.65252 9.9628 5.64992 10.1901V11.3101H4.52992C4.30264 11.3127 4.0854 11.4041 3.92468 11.5648C3.76396 11.7256 3.67252 11.9428 3.66992 12.1701V12.9201C3.67255 13.1464 3.76432 13.3626 3.92532 13.5217C4.08632 13.6809 4.30356 13.7701 4.52992 13.7701Z" fill="#4E2583"/>
<path d="M5.86 19.9102C5.7888 19.9102 5.7192 19.9313 5.65999 19.9708C5.60079 20.0104 5.55465 20.0666 5.5274 20.1324C5.50016 20.1982 5.49303 20.2706 5.50692 20.3404C5.52081 20.4102 5.55509 20.4744 5.60544 20.5247C5.65579 20.5751 5.71993 20.6093 5.78977 20.6232C5.8596 20.6371 5.93198 20.63 5.99777 20.6028C6.06355 20.5755 6.11977 20.5294 6.15933 20.4702C6.19889 20.411 6.22 20.3414 6.22 20.2702C6.22 20.1747 6.18207 20.0831 6.11456 20.0156C6.04705 19.9481 5.95548 19.9102 5.86 19.9102Z" fill="#4E2583"/>
<path d="M18.2799 19.9102C18.1844 19.9102 18.0929 19.9481 18.0254 20.0156C17.9579 20.0831 17.9199 20.1747 17.9199 20.2702C17.9199 20.3656 17.9579 20.4572 18.0254 20.5247C18.0929 20.5922 18.1844 20.6302 18.2799 20.6302C18.3272 20.6302 18.374 20.6208 18.4177 20.6028C18.4614 20.5847 18.5011 20.5581 18.5345 20.5247C18.5679 20.4913 18.5944 20.4516 18.6125 20.4079C18.6306 20.3642 18.6399 20.3174 18.6399 20.2702C18.6399 20.2229 18.6306 20.1761 18.6125 20.1324C18.5944 20.0887 18.5679 20.049 18.5345 20.0156C18.5011 19.9822 18.4614 19.9557 18.4177 19.9376C18.374 19.9195 18.3272 19.9102 18.2799 19.9102Z" fill="#4E2583"/>
</g>
<defs>
<clipPath id="clip0">
<rect width="24" height="24" fill="white"/>
</clipPath>
</defs>
</svg>
