<svg width="24" height="24" viewBox="0 0 24 24" fill="none" xmlns="http://www.w3.org/2000/svg">
<g clip-path="url(#clip0)">
<path d="M7.23 18.6701C6.8286 18.6701 6.44349 18.5113 6.15872 18.2285C5.87395 17.9456 5.71264 17.5615 5.71 17.1601V4.24011C5.71264 3.83872 5.87395 3.45466 6.15872 3.17177C6.44349 2.88887 6.8286 2.7301 7.23 2.73011H9C9.39967 2.73273 9.78222 2.89266 10.0648 3.17527C10.3474 3.45789 10.5074 3.84044 10.51 4.24011V17.1601C10.5074 17.5598 10.3474 17.9423 10.0648 18.2249C9.78222 18.5076 9.39967 18.6675 9 18.6701H7.23ZM21.6 0.000109594H4.6C4.35884 -0.00252969 4.11954 0.0425251 3.89586 0.132684C3.67217 0.222842 3.46851 0.356326 3.29659 0.52546C3.12467 0.694595 2.98787 0.896045 2.89407 1.11823C2.80026 1.34041 2.7513 1.57894 2.75 1.82011V13.8201C1.99421 13.9125 1.29802 14.2773 0.791816 14.8461C0.28561 15.4149 0.00409973 16.1487 0 16.9101L0 20.9101C0.00790677 21.7324 0.340107 22.5183 0.924366 23.0969C1.50862 23.6756 2.2977 24.0001 3.12 24.0001H5.47C6.29574 23.9975 7.08676 23.6676 7.66971 23.0828C8.25266 22.4979 8.58 21.7059 8.58 20.8801V19.4001H9C9.29416 19.4001 9.58544 19.3422 9.85721 19.2296C10.129 19.117 10.3759 18.952 10.5839 18.744C10.7919 18.536 10.9569 18.2891 11.0695 18.0173C11.1821 17.7456 11.24 17.4543 11.24 17.1601V4.24011C11.2374 3.64683 11.0005 3.07861 10.581 2.6591C10.1615 2.23958 9.59327 2.00274 9 2.00011H7.23C6.63846 2.00536 6.07279 2.24336 5.65543 2.66259C5.23807 3.08182 5.00261 3.64856 5 4.24011V17.1601C4.99999 17.7525 5.23462 18.3207 5.65254 18.7405C6.07046 19.1603 6.63765 19.3975 7.23 19.4001H7.86V20.8801C7.85737 21.5132 7.60472 22.1195 7.15708 22.5672C6.70943 23.0148 6.10306 23.2675 5.47 23.2701H3.12C2.48613 23.2701 1.87823 23.0183 1.43001 22.5701C0.981803 22.1219 0.73 21.514 0.73 20.8801V16.8801C0.729518 16.3135 0.930354 15.7652 1.29668 15.3329C1.663 14.9006 2.17099 14.6126 2.73 14.5201V19.5201C2.72188 19.7658 2.76362 20.0106 2.8527 20.2397C2.94178 20.4689 3.07636 20.6776 3.24831 20.8533C3.42026 21.0289 3.62602 21.168 3.85318 21.262C4.08034 21.356 4.32418 21.4029 4.57 21.4001H6.4C6.45122 21.4003 6.50192 21.3898 6.54888 21.3694C6.59585 21.3489 6.63805 21.319 6.67284 21.2814C6.70762 21.2438 6.73421 21.1993 6.75094 21.1509C6.76766 21.1025 6.77415 21.0512 6.77 21.0001C6.76747 20.9028 6.72768 20.8101 6.65883 20.7413C6.58998 20.6724 6.49733 20.6326 6.4 20.6301H4.57C4.28091 20.6301 4.00367 20.5153 3.79925 20.3109C3.59484 20.1064 3.48 19.8292 3.48 19.5401V1.82011C3.48 1.53102 3.59484 1.25378 3.79925 1.04936C4.00367 0.844948 4.28091 0.73011 4.57 0.73011H21.57C21.8591 0.73011 22.1363 0.844948 22.3407 1.04936C22.5452 1.25378 22.66 1.53102 22.66 1.82011V19.5801C22.66 19.8692 22.5452 20.1464 22.3407 20.3509C22.1363 20.5553 21.8591 20.6701 21.57 20.6701H10C9.90267 20.6726 9.81002 20.7124 9.74117 20.7813C9.67232 20.8501 9.63253 20.9428 9.63 21.0401C9.63261 21.1365 9.67274 21.2281 9.74184 21.2953C9.81095 21.3625 9.90358 21.4001 10 21.4001H21.6C22.0827 21.4001 22.5456 21.2084 22.8869 20.867C23.2283 20.5257 23.42 20.0628 23.42 19.5801V1.82011C23.4174 1.33823 23.2248 0.876826 22.884 0.536077C22.5433 0.195328 22.0819 0.00273572 21.6 0.000109594Z" fill="#4E2583"/>
<path d="M19.8301 10.0002C19.9017 10.0002 19.9704 10.0286 20.021 10.0793C20.0716 10.1299 20.1001 10.1986 20.1001 10.2702V11.2202C20.0975 11.2901 20.0679 11.3562 20.0175 11.4047C19.9672 11.4532 19.9 11.4802 19.8301 11.4802H17.9401C17.8427 11.4827 17.7501 11.5225 17.6812 11.5914C17.6124 11.6602 17.5726 11.7529 17.5701 11.8502V13.7002C17.5701 13.7718 17.5416 13.8405 17.491 13.8911C17.4404 13.9417 17.3717 13.9702 17.3001 13.9702H16.3601C16.2885 13.9702 16.2198 13.9417 16.1692 13.8911C16.1185 13.8405 16.0901 13.7718 16.0901 13.7002V11.8102C16.0875 11.7129 16.0478 11.6202 15.9789 11.5514C15.9101 11.4825 15.8174 11.4427 15.7201 11.4402H13.8301C13.7602 11.4402 13.693 11.4132 13.6426 11.3647C13.5923 11.3162 13.5627 11.2501 13.5601 11.1802V10.2302C13.5601 10.1586 13.5885 10.0899 13.6392 10.0393C13.6898 9.98864 13.7585 9.9602 13.8301 9.9602H15.7201C15.8174 9.95767 15.9101 9.91787 15.9789 9.84902C16.0478 9.78018 16.0875 9.68753 16.0901 9.5902V7.7002C16.0901 7.62859 16.1185 7.55991 16.1692 7.50928C16.2198 7.45864 16.2885 7.4302 16.3601 7.4302H17.3001C17.3717 7.4302 17.4404 7.45864 17.491 7.50928C17.5416 7.55991 17.5701 7.62859 17.5701 7.7002V9.5902C17.5726 9.68753 17.6124 9.78018 17.6812 9.84902C17.7501 9.91787 17.8427 9.95767 17.9401 9.9602L19.8301 10.0002ZM17.3001 6.7002H16.3601C16.0949 6.7002 15.8405 6.80555 15.653 6.99309C15.4654 7.18063 15.3601 7.43498 15.3601 7.7002V9.2302H13.8301C13.5649 9.2302 13.3105 9.33555 13.123 9.52309C12.9354 9.71062 12.8301 9.96498 12.8301 10.2302V11.1802C12.8301 11.4454 12.9354 11.6998 13.123 11.8873C13.3105 12.0748 13.5649 12.1802 13.8301 12.1802H15.3601V13.7002C15.3601 13.9654 15.4654 14.2198 15.653 14.4073C15.8405 14.5948 16.0949 14.7002 16.3601 14.7002H17.3001C17.5653 14.7002 17.8196 14.5948 18.0072 14.4073C18.1947 14.2198 18.3001 13.9654 18.3001 13.7002V12.1702H19.8301C20.0953 12.1702 20.3496 12.0648 20.5372 11.8773C20.7247 11.6898 20.8301 11.4354 20.8301 11.1702V10.2202C20.8301 9.95498 20.7247 9.70063 20.5372 9.51309C20.3496 9.32555 20.0953 9.2202 19.8301 9.2202H18.3001V7.7002C18.3001 7.43498 18.1947 7.18063 18.0072 6.99309C17.8196 6.80555 17.5653 6.7002 17.3001 6.7002Z" fill="#4E2583"/>
</g>
<defs>
<clipPath id="clip0">
<rect width="24" height="24" fill="white"/>
</clipPath>
</defs>
</svg>
