<svg width="24" height="24" viewBox="0 0 24 24" fill="none" xmlns="http://www.w3.org/2000/svg">
<path d="M20.3002 23.27H8.6102C8.23094 23.27 7.86721 23.1193 7.59903 22.8512C7.33086 22.583 7.1802 22.2193 7.1802 21.84V21.09H21.7302V21.84C21.7302 22.2193 21.5795 22.583 21.3114 22.8512C21.0432 23.1193 20.6795 23.27 20.3002 23.27ZM7.1802 2.91V2.16C7.1802 1.97221 7.21718 1.78626 7.28905 1.61276C7.36091 1.43927 7.46625 1.28163 7.59903 1.14884C7.73182 1.01605 7.88946 0.910717 8.06296 0.838852C8.23645 0.766988 8.42241 0.73 8.6102 0.73H20.3002C20.488 0.73 20.6739 0.766988 20.8474 0.838852C21.0209 0.910717 21.1786 1.01605 21.3114 1.14884C21.4441 1.28163 21.5495 1.43927 21.6213 1.61276C21.6932 1.78626 21.7302 1.97221 21.7302 2.16V2.91H7.1802ZM20.3002 0H8.6102C8.03733 0 7.48792 0.227571 7.08284 0.632649C6.67777 1.03773 6.4502 1.58713 6.4502 2.16V4.73C6.4528 4.82639 6.49293 4.91795 6.56204 4.98519C6.63115 5.05243 6.72377 5.09004 6.8202 5.09C6.91567 5.09 7.00724 5.05207 7.07475 4.98456C7.14227 4.91705 7.1802 4.82548 7.1802 4.73V3.64H21.7302V20.36H7.1802V19.27C7.1802 19.1745 7.14227 19.083 7.07475 19.0154C7.00724 18.9479 6.91567 18.91 6.8202 18.91C6.72377 18.91 6.63115 18.9476 6.56204 19.0148C6.49293 19.0821 6.4528 19.1736 6.4502 19.27V21.84C6.4502 22.4129 6.67777 22.9623 7.08284 23.3674C7.48792 23.7724 8.03733 24 8.6102 24H20.3002C20.8713 23.9974 21.4182 23.7686 21.8211 23.3638C22.224 22.959 22.4502 22.4111 22.4502 21.84V2.16C22.4502 1.58886 22.224 1.04097 21.8211 0.636174C21.4182 0.231382 20.8713 0.00264416 20.3002 0" fill="#4E2583"/>
<path d="M12.0001 1.55991C11.9652 1.5936 11.9375 1.634 11.9186 1.67868C11.8997 1.72336 11.89 1.7714 11.8901 1.81991C11.8902 1.86692 11.9 1.91341 11.9189 1.95644C11.9379 1.99947 11.9655 2.03811 12.0001 2.06991C12.0319 2.10454 12.0706 2.13219 12.1136 2.15112C12.1566 2.17005 12.2031 2.17986 12.2501 2.17991C12.2987 2.18004 12.3467 2.17037 12.3914 2.15146C12.436 2.13256 12.4764 2.10482 12.5101 2.06991C12.5448 2.03811 12.5724 1.99947 12.5913 1.95644C12.6103 1.91341 12.6201 1.86692 12.6201 1.81991C12.6203 1.7714 12.6106 1.72336 12.5917 1.67868C12.5728 1.634 12.545 1.5936 12.5101 1.55991C12.4414 1.49449 12.3501 1.45801 12.2551 1.45801C12.1602 1.45801 12.0689 1.49449 12.0001 1.55991Z" fill="#4E2583"/>
<path d="M14.4601 1.45996C14.3889 1.45996 14.3193 1.48107 14.2601 1.52063C14.2009 1.56019 14.1547 1.61641 14.1275 1.68219C14.1003 1.74798 14.0931 1.82036 14.107 1.89019C14.1209 1.96003 14.1552 2.02417 14.2055 2.07452C14.2559 2.12487 14.32 2.15915 14.3899 2.17304C14.4597 2.18693 14.5321 2.17981 14.5979 2.15256C14.6636 2.12531 14.7199 2.07917 14.7594 2.01997C14.799 1.96076 14.8201 1.89116 14.8201 1.81996C14.8201 1.72448 14.7822 1.63292 14.7147 1.5654C14.6471 1.49789 14.5556 1.45996 14.4601 1.45996Z" fill="#4E2583"/>
<path d="M16.38 1.56018C16.3451 1.59387 16.3174 1.63427 16.2985 1.67895C16.2796 1.72363 16.2699 1.77166 16.27 1.82018C16.2701 1.86719 16.2799 1.91368 16.2988 1.95671C16.3177 1.99974 16.3454 2.03838 16.38 2.07018C16.4118 2.1048 16.4505 2.13245 16.4935 2.15139C16.5365 2.17032 16.583 2.18012 16.63 2.18018C16.6786 2.1809 16.7268 2.17149 16.7716 2.15256C16.8164 2.13362 16.8567 2.10556 16.89 2.07018C16.9246 2.03838 16.9523 1.99974 16.9712 1.95671C16.9902 1.91368 17 1.86719 17 1.82018C17.0002 1.77166 16.9905 1.72363 16.9716 1.67895C16.9527 1.63427 16.9249 1.59387 16.89 1.56018C16.8201 1.49694 16.7293 1.46191 16.635 1.46191C16.5408 1.46191 16.4499 1.49694 16.38 1.56018Z" fill="#4E2583"/>
<path d="M10.5598 21.9202C10.4939 21.9905 10.458 22.0838 10.4598 22.1802C10.4578 22.2281 10.4656 22.2758 10.4828 22.3206C10.5 22.3653 10.5262 22.406 10.5598 22.4402C10.5935 22.4751 10.6339 22.5028 10.6786 22.5217C10.7232 22.5406 10.7713 22.5503 10.8198 22.5502C10.8668 22.5501 10.9133 22.5403 10.9563 22.5214C10.9993 22.5025 11.038 22.4748 11.0698 22.4402C11.1047 22.4065 11.1324 22.3661 11.1513 22.3214C11.1702 22.2767 11.1799 22.2287 11.1798 22.1802C11.1774 22.1095 11.1547 22.0409 11.1146 21.9827C11.0744 21.9244 11.0183 21.8789 10.9531 21.8515C10.8878 21.8242 10.8161 21.8161 10.7464 21.8283C10.6767 21.8404 10.6119 21.8723 10.5598 21.9202Z" fill="#4E2583"/>
<path d="M14.46 21.82C14.4119 21.8186 14.364 21.8269 14.3191 21.8444C14.2743 21.8619 14.2334 21.8882 14.1989 21.9218C14.1644 21.9554 14.137 21.9955 14.1183 22.0398C14.0996 22.0842 14.0899 22.1318 14.09 22.18C14.0812 22.233 14.084 22.2872 14.0983 22.339C14.1126 22.3908 14.138 22.4388 14.1727 22.4798C14.2074 22.5208 14.2507 22.5537 14.2994 22.5763C14.3482 22.5989 14.4012 22.6106 14.455 22.6106C14.5087 22.6106 14.5618 22.5989 14.6105 22.5763C14.6592 22.5537 14.7025 22.5208 14.7372 22.4798C14.7719 22.4388 14.7973 22.3908 14.8116 22.339C14.8259 22.2872 14.8288 22.233 14.82 22.18C14.82 22.0845 14.782 21.9929 14.7145 21.9254C14.647 21.8579 14.5554 21.82 14.46 21.82Z" fill="#4E2583"/>
<path d="M17.83 21.9202C17.768 21.993 17.7328 22.0847 17.73 22.1802C17.7311 22.2761 17.7666 22.3684 17.83 22.4402C17.8636 22.4753 17.9039 22.5033 17.9486 22.5223C17.9933 22.5414 18.0414 22.5512 18.09 22.5512C18.1386 22.5512 18.1866 22.5414 18.2313 22.5223C18.276 22.5033 18.3164 22.4753 18.35 22.4402C18.3836 22.4061 18.4098 22.3653 18.427 22.3206C18.4442 22.2759 18.452 22.2281 18.45 22.1802C18.4518 22.0839 18.4159 21.9906 18.35 21.9202C18.2775 21.8583 18.1853 21.8242 18.09 21.8242C17.9946 21.8242 17.9024 21.8583 17.83 21.9202Z" fill="#4E2583"/>
<path d="M1.73 16.0002V8.00018C1.73 7.71109 1.84484 7.43384 2.04925 7.22943C2.25367 7.02502 2.53091 6.91018 2.82 6.91018H10.82C11.1091 6.91018 11.3863 7.02502 11.5907 7.22943C11.7952 7.43384 11.91 7.71109 11.91 8.00018V16.0002C11.91 16.2893 11.7952 16.5665 11.5907 16.7709C11.3863 16.9753 11.1091 17.0902 10.82 17.0902H2.82C2.53091 17.0902 2.25367 16.9753 2.04925 16.7709C1.84484 16.5665 1.73 16.2893 1.73 16.0002ZM12.64 16.0002V8.00018C12.6374 7.51829 12.4448 7.05689 12.104 6.71614C11.7633 6.37539 11.3019 6.1828 10.82 6.18018H2.82C2.33812 6.1828 1.87672 6.37539 1.53597 6.71614C1.19522 7.05689 1.00263 7.51829 1 8.00018V16.0002C1.00263 16.4821 1.19522 16.9435 1.53597 17.2842C1.87672 17.625 2.33812 17.8175 2.82 17.8202H10.82C11.3019 17.8175 11.7633 17.625 12.104 17.2842C12.4448 16.9435 12.6374 16.4821 12.64 16.0002Z" fill="#4E2583"/>
<path d="M15.18 7.26992C15.1826 7.17354 15.2227 7.08197 15.2918 7.01473C15.3609 6.94749 15.4535 6.90989 15.55 6.90992H16.55C16.6464 6.90989 16.739 6.94749 16.8081 7.01473C16.8772 7.08197 16.9174 7.17354 16.92 7.26992V8.26992C16.9174 8.36631 16.8772 8.45787 16.8081 8.52511C16.739 8.59235 16.6464 8.62996 16.55 8.62992H15.55C15.4535 8.62996 15.3609 8.59235 15.2918 8.52511C15.2227 8.45787 15.1826 8.36631 15.18 8.26992V7.26992ZM15.55 9.34992H16.55C16.839 9.34992 17.1163 9.23508 17.3207 9.03067C17.5251 8.82625 17.64 8.54901 17.64 8.25992V7.25992C17.64 6.97084 17.5251 6.69359 17.3207 6.48918C17.1163 6.28476 16.839 6.16992 16.55 6.16992H15.55C15.2609 6.16992 14.9836 6.28476 14.7792 6.48918C14.5748 6.69359 14.46 6.97084 14.46 7.25992V8.25992C14.46 8.54901 14.5748 8.82625 14.7792 9.03067C14.9836 9.23508 15.2609 9.34992 15.55 9.34992Z" fill="#4E2583"/>
<path d="M15.18 11.51C15.1825 11.4126 15.2223 11.32 15.2912 11.2511C15.36 11.1823 15.4527 11.1425 15.55 11.14H16.55C16.6473 11.1425 16.74 11.1823 16.8088 11.2511C16.8777 11.32 16.9175 11.4126 16.92 11.51V12.51C16.9175 12.6073 16.8777 12.6999 16.8088 12.7688C16.74 12.8376 16.6473 12.8774 16.55 12.88H15.55C15.4527 12.8774 15.36 12.8376 15.2912 12.7688C15.2223 12.6999 15.1825 12.6073 15.18 12.51V11.51ZM14.46 12.51C14.4587 12.6535 14.486 12.7958 14.5403 12.9287C14.5946 13.0615 14.6748 13.1822 14.7763 13.2837C14.8778 13.3852 14.9985 13.4654 15.1313 13.5197C15.2642 13.574 15.4065 13.6013 15.55 13.6H16.55C16.8391 13.6 17.1163 13.4851 17.3208 13.2807C17.5252 13.0763 17.64 12.7991 17.64 12.51V11.51C17.64 11.2209 17.5252 10.9436 17.3208 10.7392C17.1163 10.5348 16.8391 10.42 16.55 10.42H15.55C15.4065 10.4186 15.2642 10.4459 15.1313 10.5002C14.9985 10.5545 14.8778 10.6348 14.7763 10.7362C14.6748 10.8377 14.5946 10.9584 14.5403 11.0913C14.486 11.2241 14.4587 11.3665 14.46 11.51V12.51Z" fill="#4E2583"/>
<path d="M15.18 15.7399C15.1826 15.6435 15.2227 15.552 15.2918 15.4847C15.3609 15.4175 15.4535 15.3799 15.55 15.3799H16.55C16.6464 15.3799 16.739 15.4175 16.8081 15.4847C16.8772 15.552 16.9174 15.6435 16.92 15.7399V16.7399C16.9174 16.8363 16.8772 16.9279 16.8081 16.9951C16.739 17.0623 16.6464 17.0999 16.55 17.0999H15.55C15.4535 17.0999 15.3609 17.0623 15.2918 16.9951C15.2227 16.9279 15.1826 16.8363 15.18 16.7399V15.7399ZM14.46 16.7399C14.46 17.029 14.5748 17.3062 14.7792 17.5106C14.9836 17.7151 15.2609 17.8299 15.55 17.8299H16.55C16.839 17.8299 17.1163 17.7151 17.3207 17.5106C17.5251 17.3062 17.64 17.029 17.64 16.7399V15.7399C17.64 15.4508 17.5251 15.1736 17.3207 14.9692C17.1163 14.7647 16.839 14.6499 16.55 14.6499H15.55C15.2609 14.6499 14.9836 14.7647 14.7792 14.9692C14.5748 15.1736 14.46 15.4508 14.46 15.7399V16.7399Z" fill="#4E2583"/>
<path d="M19.29 16.7301C19.29 17.0192 19.4049 17.2965 19.6093 17.5009C19.8137 17.7053 20.091 17.8201 20.38 17.8201H20.64C20.7265 17.8058 20.805 17.7612 20.8617 17.6944C20.9183 17.6275 20.9494 17.5428 20.9494 17.4551C20.9494 17.3675 20.9183 17.2827 20.8617 17.2159C20.805 17.1491 20.7265 17.1045 20.64 17.0901H20.38C20.2836 17.0902 20.191 17.0526 20.1219 16.9853C20.0528 16.9181 20.0126 16.8265 20.01 16.7301V15.7301C20.0126 15.6337 20.0528 15.5422 20.1219 15.4749C20.191 15.4077 20.2836 15.3701 20.38 15.3701H20.64C20.7364 15.3675 20.828 15.3274 20.8952 15.2583C20.9625 15.1892 21.0001 15.0966 21 15.0001C21 14.9047 20.9621 14.8131 20.8946 14.7456C20.8271 14.6781 20.7355 14.6401 20.64 14.6401H20.38C20.091 14.6401 19.8137 14.755 19.6093 14.9594C19.4049 15.1638 19.29 15.441 19.29 15.7301V16.7301Z" fill="#4E2583"/>
<path d="M19.2901 12.4899C19.2888 12.6335 19.316 12.7758 19.3703 12.9086C19.4246 13.0415 19.5049 13.1622 19.6064 13.2637C19.7078 13.3652 19.8285 13.4454 19.9614 13.4997C20.0942 13.554 20.2366 13.5813 20.3801 13.5799H20.6401C20.7356 13.5799 20.8271 13.542 20.8946 13.4745C20.9622 13.407 21.0001 13.3154 21.0001 13.2199C21.0001 13.1245 20.9622 13.0329 20.8946 12.9654C20.8271 12.8979 20.7356 12.8599 20.6401 12.8599H20.3801C20.2828 12.8574 20.1901 12.8176 20.1213 12.7488C20.0524 12.6799 20.0126 12.5873 20.0101 12.4899V11.4899C20.0126 11.3926 20.0524 11.3 20.1213 11.2311C20.1901 11.1623 20.2828 11.1225 20.3801 11.1199H20.6401C20.7356 11.1199 20.8271 11.082 20.8946 11.0145C20.9622 10.947 21.0001 10.8554 21.0001 10.7599C21.0001 10.6645 20.9622 10.5729 20.8946 10.5054C20.8271 10.4379 20.7356 10.3999 20.6401 10.3999H20.3801C20.2366 10.3986 20.0942 10.4259 19.9614 10.4802C19.8285 10.5345 19.7078 10.6147 19.6064 10.7162C19.5049 10.8177 19.4246 10.9384 19.3703 11.0712C19.316 11.2041 19.2888 11.3464 19.2901 11.4899V12.4899Z" fill="#4E2583"/>
<path d="M20.38 6.91018H20.64C20.7265 6.89582 20.805 6.85125 20.8617 6.78441C20.9183 6.71757 20.9494 6.6328 20.9494 6.54518C20.9494 6.45756 20.9183 6.37278 20.8617 6.30594C20.805 6.2391 20.7265 6.19453 20.64 6.18018H20.38C20.091 6.18018 19.8137 6.29502 19.6093 6.49943C19.4049 6.70384 19.29 6.98109 19.29 7.27018V8.27018C19.29 8.55926 19.4049 8.83651 19.6093 9.04092C19.8137 9.24534 20.091 9.36018 20.38 9.36018H20.64C20.7355 9.36018 20.8271 9.32225 20.8946 9.25473C20.9621 9.18722 21 9.09565 21 9.00018C21.0001 8.90375 20.9625 8.81113 20.8952 8.74202C20.828 8.67291 20.7364 8.63278 20.64 8.63018H20.38C20.3306 8.63151 20.2814 8.62293 20.2354 8.60493C20.1893 8.58694 20.1473 8.5599 20.1119 8.52541C20.0765 8.49091 20.0483 8.44967 20.0291 8.40412C20.0099 8.35856 20 8.30962 20 8.26018V7.26018C20.0026 7.16379 20.0428 7.07223 20.1119 7.00499C20.181 6.93775 20.2736 6.90014 20.37 6.90018" fill="#4E2583"/>
<path d="M11.0001 12C11.0001 11.9045 10.9622 11.813 10.8947 11.7455C10.8272 11.6779 10.7356 11.64 10.6401 11.64H9.11014C9.03302 11.64 8.95783 11.6641 8.89508 11.7089C8.83233 11.7538 8.78515 11.8171 8.76014 11.89L8.00014 14.3L6.00014 8.43002C5.97799 8.35572 5.93245 8.29055 5.87029 8.24422C5.80813 8.19788 5.73267 8.17285 5.65514 8.17285C5.57761 8.17285 5.50215 8.19788 5.43999 8.24422C5.37783 8.29055 5.33228 8.35572 5.31014 8.43002C4.70014 10.26 4.40014 11.17 4.26014 11.64H3.00014C2.90466 11.64 2.81309 11.6779 2.74558 11.7455C2.67807 11.813 2.64014 11.9045 2.64014 12C2.64014 12.0955 2.67807 12.1871 2.74558 12.2546C2.81309 12.3221 2.90466 12.36 3.00014 12.36H4.53014C4.60591 12.3594 4.67956 12.3349 4.74061 12.2901C4.80166 12.2452 4.84699 12.1822 4.87014 12.11C4.87014 12.11 5.34014 10.71 5.67014 9.70002L7.67014 15.57C7.69228 15.6443 7.73783 15.7095 7.79999 15.7558C7.86215 15.8022 7.93761 15.8272 8.01514 15.8272C8.09267 15.8272 8.16813 15.8022 8.23029 15.7558C8.29245 15.7095 8.33799 15.6443 8.36014 15.57L9.42014 12.36H10.6401C10.7356 12.36 10.8272 12.3221 10.8947 12.2546C10.9622 12.1871 11.0001 12.0955 11.0001 12Z" fill="#4E2583"/>
</svg>
