<svg width="24" height="24" viewBox="0 0 24 24" fill="none" xmlns="http://www.w3.org/2000/svg">
<g clip-path="url(#clip0)">
<path d="M23.27 19.0002H0.73V17.0002H23.27V19.0002ZM14 21.6202H10.1V19.6902H14V21.6202ZM16.48 23.2702H7.57C7.64789 23.0044 7.80989 22.771 8.03167 22.6052C8.25345 22.4393 8.52305 22.3498 8.8 22.3502H15.2C15.477 22.3498 15.7466 22.4393 15.9683 22.6052C16.1901 22.771 16.3521 23.0044 16.43 23.2702H16.48ZM23.27 0.730158V9.00016H18.27C18.6767 8.24251 18.8993 7.3998 18.92 6.54016C18.9344 5.72855 18.6932 4.93297 18.2306 4.26596C17.768 3.59895 17.1074 3.09428 16.3422 2.82337C15.577 2.55246 14.746 2.52901 13.9668 2.75635C13.1875 2.98368 12.4995 3.45029 12 4.09016C11.4998 3.46059 10.8159 3.00247 10.0433 2.77945C9.27078 2.55643 8.44795 2.57959 7.68917 2.84572C6.93038 3.11184 6.27334 3.60771 5.80933 4.26442C5.34532 4.92113 5.09739 5.70607 5.1 6.51016C5.12284 7.38281 5.35612 8.23703 5.78 9.00016H0.73V0.730158H23.27ZM7.61 9.73016C7.6742 9.72963 7.73722 9.71285 7.79318 9.68137C7.84914 9.64989 7.89621 9.60475 7.93 9.55016L8.93 7.88016L10.3 11.2702C10.3281 11.3335 10.3726 11.3881 10.4288 11.4285C10.4851 11.469 10.551 11.4937 10.62 11.5002C10.6866 11.4997 10.7518 11.4808 10.8083 11.4454C10.8648 11.4101 10.9104 11.3598 10.94 11.3002L12.24 8.82016L13.06 10.3202C13.0901 10.3787 13.1361 10.4276 13.1927 10.4612C13.2493 10.4948 13.3142 10.5118 13.38 10.5102C13.4431 10.5109 13.5052 10.4945 13.5598 10.4629C13.6144 10.4312 13.6594 10.3853 13.69 10.3302L15.29 7.60016L16.29 9.49016C16.3205 9.54914 16.3663 9.59883 16.4226 9.63402C16.4789 9.66921 16.5436 9.6886 16.61 9.69016H17C15.6003 11.4626 13.9096 12.9843 12 14.1902C10.124 12.9869 8.45843 11.4836 7.07 9.74016L7.61 9.73016ZM5.83 6.51016C5.82999 6.09481 5.91213 5.68355 6.07168 5.30007C6.23123 4.91658 6.46505 4.56844 6.75967 4.27567C7.0543 3.9829 7.40392 3.75129 7.7884 3.59417C8.17289 3.43705 8.58466 3.35752 9 3.36016C9.54667 3.36465 10.083 3.50956 10.5576 3.78098C11.0321 4.05241 11.429 4.44124 11.71 4.91016C11.7436 4.96174 11.7896 5.00413 11.8437 5.03347C11.8978 5.0628 11.9584 5.07817 12.02 5.07817C12.0816 5.07817 12.1422 5.0628 12.1963 5.03347C12.2504 5.00413 12.2964 4.96174 12.33 4.91016C12.6075 4.44694 12.998 4.06174 13.465 3.79064C13.932 3.51955 14.4601 3.37143 15 3.36016C15.8354 3.36016 16.6366 3.69203 17.2274 4.28277C17.8181 4.87351 18.15 5.67473 18.15 6.51016C18.13 7.38994 17.8782 8.24886 17.42 9.00016H16.81L15.62 6.69016C15.5898 6.63383 15.5452 6.58654 15.4907 6.55315C15.4363 6.51976 15.3739 6.50147 15.31 6.50016C15.2448 6.4951 15.1796 6.5095 15.1227 6.54155C15.0657 6.57359 15.0195 6.62184 14.99 6.68016L13.39 9.42016L12.55 7.88016C12.5174 7.82155 12.4694 7.77291 12.4113 7.73945C12.3532 7.70598 12.2871 7.68894 12.22 7.69016C12.1539 7.69274 12.0895 7.71255 12.0334 7.74763C11.9773 7.78271 11.9313 7.83184 11.9 7.89016L10.66 10.2802L9.31 6.93016C9.28502 6.86752 9.24247 6.81343 9.18747 6.77441C9.13247 6.73538 9.06737 6.71307 9 6.71016C8.93284 6.70141 8.8646 6.71292 8.80402 6.7432C8.74345 6.77349 8.6933 6.82118 8.66 6.88016L7.41 9.00016H6.6C6.12603 8.24992 5.86027 7.38706 5.83 6.50016V6.51016ZM0.73 9.74016H6.2C7.71537 11.8206 9.62071 13.5867 11.81 14.9402C11.8656 14.9793 11.932 15.0003 12 15.0003C12.068 15.0003 12.1344 14.9793 12.19 14.9402C14.3933 13.5775 16.3092 11.7975 17.83 9.70016H23.27V16.2302H0.73V9.74016ZM23.64 0.000158384H0.36C0.264522 0.000158384 0.172955 0.0380868 0.105442 0.1056C0.0379285 0.173113 2.47199e-08 0.26468 2.47199e-08 0.360158V19.3602C-3.51977e-05 19.4566 0.0375712 19.5492 0.104811 19.6183C0.172052 19.6874 0.263613 19.7276 0.36 19.7302H9.36V21.6602H8.8C8.26957 21.6602 7.76086 21.8709 7.38579 22.2459C7.01071 22.621 6.8 23.1297 6.8 23.6602C6.8 23.7556 6.83793 23.8472 6.90544 23.9147C6.97295 23.9822 7.06452 24.0202 7.16 24.0202H16.86C16.9555 24.0202 17.047 23.9822 17.1146 23.9147C17.1821 23.8472 17.22 23.7556 17.22 23.6602C17.22 23.1297 17.0093 22.621 16.6342 22.2459C16.2591 21.8709 15.7504 21.6602 15.22 21.6602H14.7V19.6902H23.7C23.7964 19.6876 23.8879 19.6474 23.9552 19.5783C24.0224 19.5092 24.06 19.4166 24.06 19.3202V0.360158C24.0607 0.307382 24.0499 0.255089 24.0281 0.206982C24.0064 0.158876 23.9744 0.116135 23.9343 0.0817848C23.8942 0.047435 23.8471 0.0223175 23.7962 0.00821152C23.7454 -0.00589443 23.692 -0.00864373 23.64 0.000158384Z" fill="#4E2583"/>
</g>
<defs>
<clipPath id="clip0">
<rect width="24" height="24" fill="white"/>
</clipPath>
</defs>
</svg>
