<svg width="24" height="24" viewBox="0 0 24 24" fill="none" xmlns="http://www.w3.org/2000/svg">
<g clip-path="url(#clip0)">
<path d="M20 8.16056C20 10.4577 19.1794 12.6863 17.6368 14.7434C16.0284 16.9034 14.6171 19.2691 13.2057 21.6006C12.1882 23.2463 10.4814 24.2063 8.70897 23.932C6.8709 23.6577 5.36105 22.1834 5 20.2634C5 20.2291 5 20.1948 5 20.1606C5 19.8863 5.19694 19.6463 5.49234 19.612C5.7221 19.612 5.91904 19.7491 5.98468 19.9891C6.41138 21.5663 7.49453 22.6634 8.93873 22.8691C10.3501 23.0748 11.5646 22.2863 12.3851 20.9491C13.9278 18.4806 15.4048 16.012 17.1444 13.6806C18.7527 11.4863 19.1794 9.08628 18.884 6.48056C18.523 3.42913 16.0284 1.13199 13.0744 1.0977C10.0875 1.06342 7.49453 3.32628 7.03501 6.41199C7.03501 6.68628 7.00219 6.96056 6.93654 7.23485C6.90372 7.30342 6.8709 7.3377 6.8709 7.37199C6.70678 7.61199 6.41138 7.68056 6.18162 7.50913C6.11597 7.47485 6.05033 7.40628 6.01751 7.30342C5.98468 7.26913 5.98468 7.20056 5.95186 7.16628C5.91904 6.78913 5.95186 6.44627 6.01751 6.10342C6.67396 2.2977 10.0219 -0.342297 13.698 0.0348461C17.4398 0.446275 20.0656 3.70342 20 8.16056Z" fill="#4E2583"/>
<path d="M8.11833 10.1139C8.05269 10.3539 8.15116 10.6282 8.34809 10.7653C8.67632 10.9711 9.00455 11.1768 9.33278 11.4168C10.3831 12.2396 10.3503 13.3025 9.33278 14.0911C7.42905 15.5653 7.52752 16.4225 9.59536 17.5196L9.661 17.5539C9.85794 17.7596 9.89076 18.1025 9.69383 18.3082C9.62818 18.3768 9.56253 18.4111 9.49689 18.4453C9.33278 18.5139 9.20148 18.5482 9.16866 18.4796C8.44656 17.8968 7.59317 17.3482 7.16647 16.5596C6.64131 15.5653 7.16647 14.5368 7.95422 13.7482C8.18398 13.5425 8.41374 13.3368 8.6435 13.1653C8.87326 12.9939 8.9389 12.6511 8.77479 12.4111C8.74197 12.3768 8.70914 12.3425 8.67632 12.3082C8.51221 12.1711 8.34809 12.0339 8.15116 11.8968C6.80542 11.0396 6.70695 10.2168 7.62599 8.87962C8.08551 8.19391 8.41374 7.43962 8.61067 6.61677C9.00455 4.49105 10.7442 2.81105 12.812 2.74248C14.9455 2.67391 16.8164 4.18248 17.2759 6.34248C17.2759 6.44534 17.2759 6.51391 17.2759 6.61677C17.2431 6.89105 17.0133 7.09677 16.7507 7.09677C16.5538 7.06248 16.3897 6.92534 16.324 6.75391C15.8973 5.07391 14.6501 3.94248 13.1074 3.87391C11.5647 3.80534 10.0221 4.86819 9.75947 6.5482C9.59536 7.85105 9.03737 9.05105 8.18398 10.0111C8.15116 10.0111 8.11833 10.0453 8.11833 10.1139Z" fill="#4E2583"/>
</g>
<defs>
<clipPath id="clip0">
<rect width="15" height="24" fill="white" transform="translate(5)"/>
</clipPath>
</defs>
</svg>
