<svg width="24" height="24" viewBox="0 0 24 24" fill="none" xmlns="http://www.w3.org/2000/svg">
<g clip-path="url(#clip0)">
<path d="M20.0035 6.06883C17.498 6.83061 14.9013 7.25106 12.2835 7.31883C12.1971 7.33319 12.1185 7.37775 12.0619 7.44459C12.0052 7.51143 11.9741 7.59621 11.9741 7.68383C11.9741 7.77145 12.0052 7.85623 12.0619 7.92307C12.1185 7.98991 12.1971 8.03448 12.2835 8.04883C14.9975 7.97153 17.6885 7.52751 20.2835 6.72883C20.3312 6.71361 20.3752 6.6886 20.4127 6.6554C20.4502 6.62221 20.4803 6.58156 20.5012 6.53605C20.5221 6.49054 20.5333 6.44118 20.534 6.39111C20.5347 6.34104 20.525 6.29138 20.5054 6.24528C20.4859 6.19919 20.4569 6.15768 20.4204 6.12341C20.3839 6.08914 20.3407 6.06286 20.2934 6.04625C20.2462 6.02965 20.196 6.02308 20.1461 6.02697C20.0962 6.03085 20.0476 6.04511 20.0035 6.06883Z" fill="#4E2583"/>
<path d="M21.9035 12.2587V7.25866C22.3567 7.48661 22.7303 7.84657 22.9749 8.29108C23.2194 8.73559 23.3235 9.24378 23.2735 9.74866C23.3229 10.2521 23.2183 10.7587 22.9737 11.2015C22.7291 11.6443 22.3559 12.0024 21.9035 12.2287V12.2587ZM21.1735 16.4287C21.1726 16.5003 21.1515 16.5702 21.1126 16.6304C21.0736 16.6906 21.0185 16.7385 20.9535 16.7687C20.8863 16.796 20.8126 16.803 20.7415 16.7888C20.6704 16.7745 20.605 16.7397 20.5535 16.6887C19.1035 15.2887 15.1835 13.7787 11.2735 13.6887V5.83866C15.1835 5.74866 19.1035 4.22866 20.5535 2.83866C20.6097 2.77831 20.6839 2.73787 20.7651 2.72344C20.8463 2.70901 20.93 2.72137 21.0035 2.75866C21.0692 2.78495 21.1255 2.83057 21.1647 2.88949C21.204 2.94841 21.2245 3.01785 21.2235 3.08866L21.1735 16.4287ZM7.80349 13.0487H2.80349V6.49866H10.5235V13.0487H7.80349ZM7.44349 21.2187C7.44087 21.3601 7.38282 21.4949 7.28184 21.594C7.18085 21.6932 7.04499 21.7487 6.90349 21.7487H6.15349C6.01293 21.7487 5.87812 21.6928 5.77872 21.5934C5.67933 21.494 5.62349 21.3592 5.62349 21.2187V13.7787H7.44349V21.2187ZM0.733492 8.31866H2.09349V11.2287H0.733492V8.31866ZM8.19349 16.3187H8.53349C8.79871 16.3187 9.05306 16.424 9.2406 16.6115C9.42813 16.7991 9.53349 17.0534 9.53349 17.3187V17.6587C9.53349 17.9239 9.42813 18.1782 9.2406 18.3658C9.05306 18.5533 8.79871 18.6587 8.53349 18.6587H8.19349V16.3187ZM24.0035 9.77866C24.0643 9.08185 23.8908 8.38469 23.5103 7.79774C23.1299 7.2108 22.5644 6.76767 21.9035 6.53866V3.08866C21.9032 2.87447 21.8399 2.66512 21.7213 2.48673C21.6028 2.30834 21.4343 2.16883 21.237 2.08562C21.0396 2.00241 20.8221 1.97919 20.6116 2.01886C20.4011 2.05852 20.207 2.15932 20.0535 2.30866C18.8335 3.47866 15.0035 5.10866 10.9035 5.10866C10.8554 5.10864 10.8077 5.11827 10.7634 5.13698C10.719 5.1557 10.6789 5.18311 10.6453 5.21761C10.6118 5.2521 10.5855 5.29298 10.568 5.33782C10.5505 5.38266 10.5422 5.43055 10.5435 5.47866V5.77866H2.45349C2.35801 5.77866 2.26645 5.81658 2.19893 5.8841C2.13142 5.95161 2.09349 6.04318 2.09349 6.13866V7.58866H0.363492C0.312191 7.58974 0.261678 7.60148 0.21516 7.62314C0.168642 7.6448 0.127137 7.67589 0.0932811 7.71445C0.0594257 7.753 0.0339601 7.79818 0.0185025 7.84711C0.00304476 7.89604 -0.00206714 7.94765 0.00349153 7.99866V11.5887C-0.00370481 11.6399 0.000252195 11.6922 0.0150924 11.7418C0.0299326 11.7914 0.0553064 11.8373 0.0894815 11.8762C0.123657 11.9151 0.165828 11.9462 0.213117 11.9673C0.260406 11.9885 0.311698 11.9992 0.363492 11.9987H2.09349V13.4487C2.09346 13.5451 2.13106 13.6377 2.1983 13.7068C2.26554 13.7759 2.35711 13.816 2.45349 13.8187H4.89349V21.2587C4.89613 21.5911 5.03004 21.909 5.26605 22.1432C5.50206 22.3773 5.82104 22.5087 6.15349 22.5087H6.90349C7.06848 22.51 7.2321 22.4786 7.38492 22.4164C7.53773 22.3542 7.67671 22.2623 7.79385 22.1461C7.91098 22.0299 8.00395 21.8916 8.06739 21.7393C8.13084 21.587 8.1635 21.4237 8.16349 21.2587V19.3787H8.53349C8.75937 19.3787 8.98303 19.3342 9.19171 19.2477C9.40039 19.1613 9.59 19.0346 9.74971 18.8749C9.90943 18.7152 10.0361 18.5256 10.1226 18.3169C10.209 18.1082 10.2535 17.8845 10.2535 17.6587V17.3187C10.2535 17.0928 10.209 16.8691 10.1226 16.6604C10.0361 16.4518 9.90943 16.2621 9.74971 16.1024C9.59 15.9427 9.40039 15.816 9.19171 15.7296C8.98303 15.6431 8.75937 15.5987 8.53349 15.5987H8.16349V13.7787H10.5435V14.0787C10.5435 14.1741 10.5814 14.2657 10.6489 14.3332C10.7164 14.4007 10.808 14.4387 10.9035 14.4387C14.9835 14.4387 18.8335 16.0687 20.0535 17.2387C20.1517 17.3375 20.2686 17.4158 20.3973 17.469C20.5261 17.5223 20.6642 17.5493 20.8035 17.5487C21.0927 17.5461 21.3695 17.4307 21.575 17.2272C21.7804 17.0236 21.8983 16.7478 21.9035 16.4587V12.9987C22.5628 12.7735 23.1277 12.3341 23.5083 11.7505C23.8889 11.1669 24.0632 10.4728 24.0035 9.77866Z" fill="#4E2583"/>
<path d="M8.86352 7.58887H4.50352C4.45183 7.59007 4.40094 7.6018 4.35395 7.62334C4.30695 7.64489 4.26485 7.6758 4.23021 7.71418C4.19558 7.75256 4.16914 7.7976 4.15251 7.84655C4.13589 7.8955 4.12942 7.94733 4.13352 7.99887C4.13612 8.09525 4.17625 8.18682 4.24536 8.25406C4.31447 8.3213 4.4071 8.3589 4.50352 8.35887H8.86352C8.959 8.35887 9.05056 8.32094 9.11808 8.25343C9.18559 8.18591 9.22352 8.09434 9.22352 7.99887C9.22355 7.90245 9.18595 7.80982 9.11871 7.74071C9.05147 7.6716 8.9599 7.63147 8.86352 7.62887" fill="#4E2583"/>
<path d="M8.8633 9.40869H4.5033C4.40597 9.41122 4.31332 9.45101 4.24447 9.51986C4.17562 9.58871 4.13583 9.68136 4.1333 9.77869C4.13591 9.87508 4.17604 9.96664 4.24514 10.0339C4.31425 10.1011 4.40688 10.1387 4.5033 10.1387H8.8633C8.95878 10.1387 9.05035 10.1008 9.11786 10.0332C9.18537 9.96574 9.2233 9.87417 9.2233 9.77869C9.22334 9.68227 9.18573 9.58964 9.11849 9.52053C9.05125 9.45143 8.95969 9.4113 8.8633 9.40869Z" fill="#4E2583"/>
<path d="M8.86352 11.2285H4.50352C4.4071 11.2285 4.31447 11.2661 4.24536 11.3333C4.17625 11.4006 4.13612 11.4921 4.13352 11.5885C4.12942 11.6401 4.13589 11.6919 4.15251 11.7408C4.16914 11.7898 4.19558 11.8348 4.23021 11.8732C4.26485 11.9116 4.30695 11.9425 4.35395 11.964C4.40094 11.9856 4.45183 11.9973 4.50352 11.9985H8.86352C8.9599 11.9959 9.05147 11.9558 9.11871 11.8867C9.18595 11.8176 9.22355 11.7249 9.22352 11.6285C9.22352 11.533 9.18559 11.4415 9.11808 11.374C9.05056 11.3064 8.959 11.2685 8.86352 11.2685" fill="#4E2583"/>
</g>
<defs>
<clipPath id="clip0">
<rect width="24" height="24" fill="white"/>
</clipPath>
</defs>
</svg>
