<svg width="24" height="24" viewBox="0 0 24 24" fill="none" xmlns="http://www.w3.org/2000/svg">
<g clip-path="url(#clip0)">
<path d="M22.2 16.0189C21.5119 15.6758 20.796 15.3914 20.06 15.1689C19.7 15.0589 19.4 14.9689 19.12 14.8989C18.7426 14.7856 18.3585 14.6954 17.97 14.6289C17.6485 14.2757 17.4245 13.8449 17.32 13.3789C18.2438 12.6125 18.9133 11.5839 19.24 10.4289C19.4167 10.4058 19.5832 10.333 19.72 10.2189C20.0744 9.86785 20.2849 9.39706 20.31 8.89888C20.39 8.04888 20.06 7.35888 19.54 7.19888V7.01888C19.6712 6.42584 19.6776 5.81199 19.5588 5.21634C19.44 4.62068 19.1987 4.05625 18.85 3.55888C18.3469 3.01429 17.7256 2.59229 17.034 2.32532C16.3423 2.05836 15.5986 1.95352 14.86 2.01888C13.8211 1.97717 12.7886 2.20088 11.86 2.66888C11.7776 2.71892 11.7173 2.7984 11.6913 2.89124C11.6653 2.98408 11.6756 3.08333 11.72 3.16888C11.7683 3.25319 11.8478 3.31512 11.9414 3.34131C12.0349 3.36751 12.135 3.35586 12.22 3.30888C13.0379 2.90011 13.9467 2.70733 14.86 2.74888C15.4938 2.68438 16.1339 2.76523 16.7318 2.9853C17.3296 3.20537 17.8694 3.55886 18.31 4.01888C18.7571 4.63569 18.9762 5.38852 18.93 6.14888C17.6922 5.41874 16.2423 5.13298 14.82 5.33888C14.7728 5.34348 14.7269 5.35734 14.6849 5.37968C14.643 5.40202 14.6059 5.43239 14.5757 5.46907C14.5455 5.50575 14.5229 5.54802 14.509 5.59345C14.4952 5.63889 14.4904 5.68661 14.495 5.73388C14.4996 5.78116 14.5135 5.82707 14.5358 5.86898C14.5582 5.9109 14.5885 5.94801 14.6252 5.97819C14.6619 6.00837 14.7042 6.03103 14.7496 6.04487C14.795 6.05872 14.8428 6.06348 14.89 6.05888C16.2891 5.84647 17.7168 6.16771 18.89 6.95888V7.56888C18.8935 7.62721 18.9107 7.6839 18.9402 7.7343C18.9697 7.78471 19.0108 7.8274 19.06 7.85888C19.1115 7.88369 19.1679 7.89657 19.225 7.89657C19.2822 7.89657 19.3386 7.88369 19.39 7.85888C19.49 7.85888 19.72 8.20888 19.67 8.85888C19.6556 9.16346 19.5353 9.45345 19.33 9.67888C19.2944 9.69107 19.2557 9.69107 19.22 9.67888C19.1703 9.65421 19.1155 9.64137 19.06 9.64137C19.0045 9.64137 18.9498 9.65421 18.9 9.67888C18.8518 9.70125 18.8095 9.73461 18.7765 9.77629C18.7435 9.81797 18.7207 9.86681 18.71 9.91888C18.447 11.1078 17.7789 12.1683 16.82 12.9189C16.4357 13.21 15.9902 13.4098 15.5172 13.5034C15.0443 13.5969 14.5562 13.5817 14.09 13.4589C13.9972 13.4337 13.8982 13.4464 13.8147 13.4942C13.7313 13.542 13.6702 13.6211 13.645 13.7139C13.6198 13.8067 13.6326 13.9057 13.6804 13.9892C13.7282 14.0726 13.8072 14.1337 13.9 14.1589C14.3761 14.2931 14.8742 14.3313 15.3652 14.2712C15.8562 14.2111 16.3303 14.054 16.76 13.8089C16.903 14.2884 17.1526 14.7294 17.49 15.0989C17.42 15.2589 17.19 15.5689 16.49 16.0189C16.4091 16.0704 16.3514 16.1513 16.329 16.2446C16.3066 16.3379 16.3213 16.4362 16.37 16.5189C16.4015 16.5734 16.4466 16.6186 16.501 16.6502C16.5554 16.6818 16.6171 16.6986 16.68 16.6989C16.748 16.6989 16.8144 16.678 16.87 16.6389C17.3763 16.3424 17.7888 15.9092 18.06 15.3889C18.35 15.4489 18.64 15.5189 18.92 15.5989C19.2 15.6789 19.48 15.7589 19.82 15.8689C20.5093 16.0834 21.1786 16.3578 21.82 16.6889C22.2626 16.8996 22.638 17.229 22.9046 17.6403C23.1712 18.0516 23.3185 18.5289 23.33 19.0189V24.0189C23.3212 24.0719 23.3241 24.1261 23.3384 24.1779C23.3527 24.2297 23.3781 24.2778 23.4128 24.3187C23.4475 24.3597 23.4908 24.3926 23.5395 24.4152C23.5882 24.4378 23.6413 24.4495 23.695 24.4495C23.7488 24.4495 23.8018 24.4378 23.8506 24.4152C23.8993 24.3926 23.9426 24.3597 23.9773 24.3187C24.012 24.2778 24.0374 24.2297 24.0517 24.1779C24.066 24.1261 24.0688 24.0719 24.06 24.0189V19.0189C24.0577 18.3958 23.8826 17.7855 23.5542 17.2559C23.2259 16.7263 22.7571 16.2981 22.2 16.0189Z" fill="#4E2583"/>
<path d="M9.26 17.9589C8.28714 17.7571 7.39209 17.2818 6.68 16.5889C7.01698 16.2229 7.26657 15.7853 7.41 15.3089C7.97762 15.6191 8.61318 15.784 9.26 15.7889C9.90825 15.7852 10.5449 15.6166 11.11 15.2989C11.2569 15.7798 11.5059 16.2232 11.84 16.5989C11.1267 17.2882 10.2317 17.7599 9.26 17.9589ZM5.45 11.4389C5.43828 11.3859 5.414 11.3364 5.3792 11.2946C5.3444 11.2528 5.30009 11.22 5.25 11.1989C5.19853 11.1741 5.14213 11.1612 5.085 11.1612C5.02787 11.1612 4.97147 11.1741 4.92 11.1989C4.89035 11.2054 4.85965 11.2054 4.83 11.1989C4.62469 10.9735 4.50445 10.6835 4.49 10.3789C4.49 9.78893 4.67 9.43893 4.8 9.43893C4.85438 9.45399 4.91149 9.45642 4.96695 9.44602C5.02242 9.43562 5.07477 9.41267 5.12 9.37893C5.1752 9.33808 5.21829 9.28303 5.24471 9.21964C5.27112 9.15625 5.27986 9.08689 5.27 9.01893V8.61893C6.85887 7.85603 8.62482 7.53809 10.38 7.69893C10.4425 7.70751 10.5062 7.69903 10.5643 7.67438C10.6224 7.64974 10.6727 7.60985 10.71 7.55893L11.16 7.01893L11.38 7.71893C11.3984 7.78103 11.4331 7.83703 11.4806 7.88103C11.5282 7.92503 11.5867 7.9554 11.65 7.96893C12.1975 8.08783 12.7306 8.26552 13.24 8.49893C13.24 8.69893 13.24 8.95893 13.24 9.06893C13.2438 9.12605 13.26 9.18164 13.2877 9.23176C13.3153 9.28188 13.3537 9.3253 13.4 9.35893C13.4515 9.38374 13.5079 9.39662 13.565 9.39662C13.6221 9.39662 13.6785 9.38374 13.73 9.35893C13.84 9.35893 14.06 9.71893 14.01 10.3589C13.9983 10.6622 13.8817 10.9521 13.68 11.1789C13.6611 11.1872 13.6406 11.1915 13.62 11.1915C13.5994 11.1915 13.5789 11.1872 13.56 11.1789C13.512 11.1544 13.4589 11.1415 13.405 11.1415C13.3511 11.1415 13.298 11.1544 13.25 11.1789C13.1994 11.1993 13.1547 11.2319 13.1198 11.2738C13.0849 11.3156 13.0609 11.3655 13.05 11.4189C12.7927 12.6077 12.1276 13.669 11.17 14.4189C10.6133 14.8321 9.93833 15.0552 9.245 15.0552C8.55167 15.0552 7.87674 14.8321 7.32 14.4189C6.37042 13.6618 5.70729 12.6036 5.44 11.4189L5.45 11.4389ZM5.8 5.47893C6.24549 5.02466 6.78858 4.67782 7.38808 4.4647C7.98758 4.25158 8.62774 4.1778 9.26 4.24893C9.8907 4.18196 10.5284 4.25974 11.1245 4.47635C11.7206 4.69296 12.2594 5.04269 12.7 5.49893C13.1635 6.14192 13.3833 6.9288 13.32 7.71893C12.9104 7.54406 12.4894 7.39706 12.06 7.27893L11.65 6.11893C11.633 6.05438 11.5974 5.99625 11.5476 5.95179C11.4978 5.90733 11.4361 5.87851 11.37 5.86893C11.3102 5.86776 11.2509 5.88073 11.197 5.9068C11.1432 5.93286 11.0962 5.97128 11.06 6.01893L10.26 7.01893C8.5269 6.87629 6.78593 7.17562 5.2 7.88893C5.10369 7.05384 5.32109 6.21276 5.81 5.52893L5.8 5.47893ZM16.61 17.5289C15.9276 17.1857 15.2187 16.8981 14.49 16.6689C14.13 16.5489 13.83 16.4589 13.56 16.3889C13.1816 16.2789 12.7978 16.1888 12.41 16.1189C12.0837 15.7677 11.856 15.3365 11.75 14.8689C12.6785 14.1048 13.3517 13.0757 13.68 11.9189C13.8532 11.894 14.0159 11.8213 14.15 11.7089C14.5044 11.3579 14.7148 10.8871 14.74 10.3889C14.8172 10.0603 14.7835 9.71541 14.6442 9.40794C14.5049 9.10046 14.2679 8.84767 13.97 8.68893V8.45893C14.0981 7.86833 14.102 7.25756 13.9815 6.66537C13.861 6.07317 13.6187 5.5125 13.27 5.01893C12.7653 4.47412 12.1421 4.05275 11.4484 3.78744C10.7548 3.52213 10.0094 3.41999 9.27 3.48893C8.52578 3.41602 7.77478 3.51618 7.07568 3.7816C6.37658 4.04701 5.74832 4.47049 5.24 5.01893C4.89672 5.50751 4.65745 6.0614 4.53704 6.64626C4.41663 7.23112 4.41764 7.83448 4.54 8.41893V8.66893C4.02 8.82893 3.7 9.52893 3.77 10.3689C3.78772 10.8776 3.99871 11.3604 4.36 11.7189C4.49686 11.833 4.66333 11.9058 4.84 11.9289C5.16199 13.086 5.83234 14.116 6.76 14.8789C6.6535 15.3694 6.41089 15.82 6.06 16.1789C5.68974 16.233 5.32258 16.3064 4.96 16.3989C4.67 16.4689 4.37 16.5589 3.96 16.6789C3.23614 16.9124 2.53083 17.1999 1.85 17.5389C1.29551 17.8204 0.829415 18.2494 0.503014 18.7787C0.176613 19.308 0.00255715 19.9171 2.47199e-08 20.5389V24.0589C-3.51977e-05 24.1554 0.0375712 24.248 0.104811 24.3171C0.172052 24.3862 0.263613 24.4263 0.36 24.4289C0.45813 24.4289 0.552241 24.3899 0.62163 24.3206C0.691018 24.2512 0.73 24.1571 0.73 24.0589V20.5489C0.73144 20.059 0.868646 19.5791 1.12638 19.1625C1.38411 18.7459 1.75228 18.4089 2.19 18.1889C2.83317 17.8615 3.50207 17.5872 4.19 17.3689C4.53 17.2589 4.82 17.1689 5.1 17.0989C5.1 17.0989 5.44 17.0189 5.98 16.9189C6.63221 17.7051 7.5187 18.2623 8.51 18.5089L7.51 19.4489L6.25 18.1989C6.21727 18.1641 6.17776 18.1364 6.13391 18.1174C6.09005 18.0985 6.04278 18.0887 5.995 18.0887C5.94722 18.0887 5.89995 18.0985 5.85609 18.1174C5.81224 18.1364 5.77273 18.1641 5.74 18.1989C5.70644 18.2324 5.67981 18.2721 5.66164 18.3159C5.64347 18.3596 5.63412 18.4065 5.63412 18.4539C5.63412 18.5013 5.64347 18.5482 5.66164 18.592C5.67981 18.6357 5.70644 18.6755 5.74 18.7089L7.34 20.2189C7.37301 20.2513 7.41209 20.2768 7.455 20.2939C7.49791 20.3111 7.54379 20.3196 7.59 20.3189C7.68256 20.3163 7.77118 20.2809 7.84 20.2189L7.95 20.1189L8.18 20.4089L7.54 24.0189C7.5299 24.0657 7.52949 24.114 7.5388 24.1609C7.5481 24.2078 7.56692 24.2523 7.5941 24.2917C7.62127 24.3311 7.65622 24.3644 7.6968 24.3897C7.73737 24.4151 7.78271 24.4318 7.83 24.4389H7.9C7.98422 24.4378 8.06536 24.4071 8.12931 24.3523C8.19326 24.2975 8.23597 24.222 8.25 24.1389L8.93 20.3689C8.93981 20.3177 8.93769 20.2649 8.92382 20.2146C8.90995 20.1643 8.88469 20.1179 8.85 20.0789L8.47 19.6089L9.26 18.8489L10.05 19.6089L9.67 20.0789C9.63638 20.1184 9.61252 20.1652 9.60036 20.2156C9.5882 20.266 9.58807 20.3185 9.6 20.3689L10.27 24.1389C10.2862 24.2228 10.3308 24.2985 10.3965 24.3532C10.4621 24.4079 10.5446 24.4382 10.63 24.4389H10.69C10.7373 24.4318 10.7826 24.4151 10.8232 24.3897C10.8638 24.3644 10.8987 24.3311 10.9259 24.2917C10.9531 24.2523 10.9719 24.2078 10.9812 24.1609C10.9905 24.114 10.9901 24.0657 10.98 24.0189L10.34 20.4189L10.57 20.1289L10.68 20.2289C10.7488 20.2909 10.8374 20.3263 10.93 20.3289C10.9762 20.3296 11.0221 20.3211 11.065 20.3039C11.1079 20.2868 11.147 20.2613 11.18 20.2289L12.77 18.7389C12.8036 18.7055 12.8302 18.6657 12.8484 18.622C12.8665 18.5782 12.8759 18.5313 12.8759 18.4839C12.8759 18.4365 12.8665 18.3896 12.8484 18.3459C12.8302 18.3021 12.8036 18.2624 12.77 18.2289C12.7373 18.1941 12.6978 18.1664 12.6539 18.1474C12.6101 18.1285 12.5628 18.1187 12.515 18.1187C12.4672 18.1187 12.4199 18.1285 12.3761 18.1474C12.3322 18.1664 12.2927 18.1941 12.26 18.2289L10.92 19.4789L10.76 19.3289L9.94 18.5389C10.82 18.2389 12.12 17.6889 12.49 16.9189C12.78 16.9789 13.07 17.0489 13.35 17.1289C13.63 17.2089 13.92 17.2889 14.26 17.3989C14.9487 17.6152 15.6177 17.8895 16.26 18.2189C16.6985 18.4406 17.067 18.7794 17.3248 19.1977C17.5825 19.616 17.7193 20.0976 17.72 20.5889V24.0989C17.72 24.1944 17.7579 24.286 17.8254 24.3535C17.893 24.421 17.9845 24.4589 18.08 24.4589C18.1755 24.4589 18.267 24.421 18.3346 24.3535C18.4021 24.286 18.44 24.1944 18.44 24.0989V20.5589C18.4363 19.9373 18.2618 19.3287 17.9355 18.7996C17.6093 18.2705 17.1438 17.8413 16.59 17.5589" fill="#4E2583"/>
</g>
<defs>
<clipPath id="clip0">
<rect width="24" height="24" fill="white"/>
</clipPath>
</defs>
</svg>
