<svg width="24" height="24" viewBox="0 0 24 24" fill="none" xmlns="http://www.w3.org/2000/svg">
<path d="M23.27 12.1423C23.27 12.328 23.1962 12.506 23.065 12.6373C22.9337 12.7686 22.7557 12.8423 22.57 12.8423V10.0823C22.7557 10.0823 22.9337 10.1561 23.065 10.2873C23.1962 10.4186 23.27 10.5967 23.27 10.7823V12.1423ZM21.84 13.7523C21.84 13.8965 21.7835 14.0349 21.6825 14.1377C21.5815 14.2406 21.4441 14.2997 21.3 14.3023H20.64C20.5678 14.3023 20.4963 14.2881 20.4295 14.2604C20.3628 14.2328 20.3022 14.1923 20.2511 14.1412C20.2 14.0901 20.1595 14.0295 20.1319 13.9628C20.1042 13.8961 20.09 13.8245 20.09 13.7523V9.16231C20.09 9.01644 20.1479 8.87655 20.2511 8.7734C20.3542 8.67026 20.4941 8.61231 20.64 8.61231H21.3C21.4441 8.61493 21.5815 8.67403 21.6825 8.77689C21.7835 8.87976 21.84 9.01816 21.84 9.16231V13.7523ZM13.3 23.1823H10.49C10.3203 23.1823 10.1575 23.1149 10.0375 22.9949C9.91743 22.8748 9.85 22.712 9.85 22.5423C9.85 22.3726 9.91743 22.2098 10.0375 22.0898C10.1575 21.9697 10.3203 21.9023 10.49 21.9023H13.3C13.4697 21.9023 13.6325 21.9697 13.7525 22.0898C13.8726 22.2098 13.94 22.3726 13.94 22.5423C13.94 22.712 13.8726 22.8748 13.7525 22.9949C13.6325 23.1149 13.4697 23.1823 13.3 23.1823ZM3.91 9.18231V13.7723C3.91 13.8445 3.89577 13.9161 3.86813 13.9828C3.84049 14.0495 3.79998 14.1101 3.74891 14.1612C3.69784 14.2123 3.6372 14.2528 3.57048 14.2804C3.50375 14.3081 3.43223 14.3223 3.36 14.3223H2.7C2.55587 14.3197 2.41853 14.2606 2.31754 14.1577C2.21655 14.0549 2.15998 13.9165 2.16 13.7723V9.16231C2.15998 9.01816 2.21655 8.87976 2.31754 8.77689C2.41853 8.67403 2.55587 8.61493 2.7 8.61231H3.36C3.50587 8.61231 3.64576 8.67026 3.74891 8.7734C3.85205 8.87655 3.91 9.01644 3.91 9.16231V9.18231ZM1.43 12.8423C1.24435 12.8423 1.0663 12.7686 0.935025 12.6373C0.80375 12.506 0.73 12.328 0.73 12.1423V10.7823C0.73 10.5967 0.80375 10.4186 0.935025 10.2873C1.0663 10.1561 1.24435 10.0823 1.43 10.0823V12.8423ZM22.57 9.35231V9.16231C22.57 8.82548 22.4362 8.50246 22.198 8.26428C21.9599 8.02611 21.6368 7.89231 21.3 7.89231H21.21C20.8693 5.69417 19.7536 3.69038 18.0645 2.24298C16.3754 0.795572 14.2244 0 12 0C9.77561 0 7.62456 0.795572 5.9355 2.24298C4.24644 3.69038 3.13074 5.69417 2.79 7.89231H2.7C2.36318 7.89231 2.04015 8.02611 1.80197 8.26428C1.5638 8.50246 1.43 8.82548 1.43 9.16231V9.35231C1.05074 9.35231 0.687014 9.50297 0.418837 9.77115C0.15066 10.0393 0 10.4031 0 10.7823L0 12.1423C0.00264009 12.5198 0.154465 12.881 0.422356 13.147C0.690248 13.413 1.05247 13.5623 1.43 13.5623V13.7523C1.43264 14.0874 1.56761 14.4079 1.80549 14.6439C2.04338 14.8799 2.3649 15.0123 2.7 15.0123H3.36C3.69948 15.0123 4.02505 14.8775 4.2651 14.6374C4.50514 14.3974 4.64 14.0718 4.64 13.7323V9.16231C4.63585 8.85437 4.52166 8.55807 4.31808 8.32698C4.1145 8.09589 3.83496 7.94525 3.53 7.90231C3.86815 5.90053 4.90437 4.08321 6.45484 2.77268C8.00533 1.46214 9.96986 0.743114 12 0.743114C14.0301 0.743114 15.9947 1.46214 17.5452 2.77268C19.0956 4.08321 20.1318 5.90053 20.47 7.90231C20.165 7.94525 19.8855 8.09589 19.6819 8.32698C19.4783 8.55807 19.3642 8.85437 19.36 9.16231V13.7523C19.36 14.0614 19.4727 14.36 19.677 14.5919C19.8814 14.8239 20.1633 14.9734 20.47 15.0123C20.1983 16.5904 19.4934 18.062 18.4339 19.2628C17.3744 20.4635 16.002 21.3462 14.47 21.8123C14.3469 21.6189 14.177 21.4597 13.9759 21.3496C13.7749 21.2394 13.5492 21.1819 13.32 21.1823H10.49C10.1293 21.1823 9.78338 21.3256 9.52833 21.5806C9.27328 21.8357 9.13 22.1816 9.13 22.5423C9.13 22.903 9.27328 23.2489 9.52833 23.504C9.78338 23.759 10.1293 23.9023 10.49 23.9023H13.3C13.6616 23.9023 14.0086 23.7594 14.2652 23.5046C14.5219 23.2498 14.6674 22.9039 14.67 22.5423C16.3584 22.0319 17.8678 21.0537 19.0234 19.7211C20.179 18.3886 20.9337 16.756 21.2 15.0123H21.3C21.4676 15.0123 21.6336 14.9791 21.7883 14.9147C21.9431 14.8502 22.0835 14.7558 22.2016 14.6368C22.3196 14.5178 22.413 14.3766 22.4762 14.2214C22.5394 14.0661 22.5713 13.8999 22.57 13.7323V13.5423C22.9441 13.5424 23.3034 13.3959 23.5707 13.1341C23.838 12.8724 23.9922 12.5163 24 12.1423V10.7823C24 10.5945 23.963 10.4086 23.8911 10.2351C23.8193 10.0616 23.714 9.90394 23.5812 9.77115C23.4484 9.63836 23.2907 9.53303 23.1172 9.46116C22.9437 9.3893 22.7578 9.35231 22.57 9.35231Z" fill="#4E2583"/>
<path d="M8.16994 14.5322L9.07994 13.2722C9.11431 13.2148 9.13245 13.1491 9.13245 13.0822C9.13245 13.0153 9.11431 12.9496 9.07994 12.8922C9.00888 12.7619 8.9519 12.6245 8.90994 12.4822C8.88578 12.421 8.84652 12.3669 8.79582 12.3249C8.74511 12.2829 8.68461 12.2545 8.61994 12.2422L7.11994 12.0122C7.07998 11.6533 7.07998 11.2911 7.11994 10.9322L8.64994 10.6922C8.71497 10.6773 8.77538 10.6467 8.82592 10.6031C8.87646 10.5596 8.9156 10.5043 8.93994 10.4422C8.98053 10.293 9.03755 10.1488 9.10994 10.0122C9.14431 9.95477 9.16245 9.88911 9.16245 9.82219C9.16245 9.75528 9.14431 9.68961 9.10994 9.63219L8.16994 8.39219C8.39236 8.10972 8.64747 7.85461 8.92994 7.63219L10.1799 8.54219C10.2374 8.57656 10.303 8.5947 10.3699 8.5947C10.4369 8.5947 10.5025 8.57656 10.5599 8.54219C10.7024 8.48327 10.8496 8.43644 10.9999 8.40219C11.063 8.37943 11.1192 8.34078 11.163 8.28998C11.2068 8.23918 11.2367 8.17795 11.2499 8.11219L11.4899 6.58219C11.8488 6.54215 12.2111 6.54215 12.5699 6.58219L12.8099 8.11219C12.8232 8.17795 12.8531 8.23918 12.8969 8.28998C12.9407 8.34078 12.9969 8.37943 13.0599 8.40219C13.201 8.44772 13.3381 8.50457 13.4699 8.57219C13.5274 8.60656 13.593 8.6247 13.6599 8.6247C13.7269 8.6247 13.7925 8.60656 13.8499 8.57219L15.0999 7.66219C15.3798 7.88748 15.6347 8.14229 15.8599 8.42219L14.9499 9.67219C14.9156 9.72961 14.8974 9.79528 14.8974 9.86219C14.8974 9.92911 14.9156 9.99477 14.9499 10.0522C15.0176 10.1841 15.0744 10.3212 15.1199 10.4622C15.1443 10.5243 15.1834 10.5796 15.234 10.6231C15.2845 10.6667 15.3449 10.6973 15.4099 10.7122L16.9399 10.9522C16.9499 11.1321 16.9499 11.3123 16.9399 11.4922C16.9494 11.6721 16.9494 11.8523 16.9399 12.0322L15.4099 12.2722C15.3446 12.2826 15.2832 12.3103 15.2321 12.3526C15.1811 12.3948 15.1424 12.4499 15.1199 12.5122C15.0763 12.6571 15.0194 12.7977 14.9499 12.9322C14.9154 12.9877 14.8971 13.0518 14.8971 13.1172C14.8971 13.1826 14.9154 13.2467 14.9499 13.3022L15.8599 14.5622C15.6322 14.8399 15.3777 15.0945 15.0999 15.3222L13.8499 14.4122C13.7925 14.3778 13.7269 14.3597 13.6599 14.3597C13.593 14.3597 13.5274 14.3778 13.4699 14.4122C13.3299 14.4722 13.1999 14.5322 13.0499 14.5822C12.9871 14.6037 12.9314 14.6421 12.889 14.6933C12.8467 14.7445 12.8193 14.8064 12.8099 14.8722L12.5699 16.4022C12.2106 16.4322 11.8493 16.4322 11.4899 16.4022L11.2499 14.8722C11.2398 14.8052 11.2109 14.7425 11.1667 14.6912C11.1225 14.6399 11.0647 14.6021 10.9999 14.5822L10.5899 14.4122C10.5325 14.3778 10.4669 14.3597 10.3999 14.3597C10.333 14.3597 10.2674 14.3778 10.2099 14.4122L8.95994 15.3222C8.68004 15.0969 8.42523 14.8421 8.19994 14.5622L8.16994 14.5322ZM10.4699 15.1222H10.5599L10.8199 16.7122C10.8317 16.7875 10.8671 16.8572 10.9211 16.9111C10.975 16.965 11.0446 17.0004 11.1199 17.0122C11.7231 17.1047 12.3368 17.1047 12.9399 17.0122C13.0153 17.0004 13.0849 16.965 13.1388 16.9111C13.1927 16.8572 13.2282 16.7875 13.2399 16.7122L13.4999 15.1222H13.5899L14.8899 16.0622C14.9505 16.1076 15.0242 16.1322 15.0999 16.1322C15.1757 16.1322 15.2494 16.1076 15.3099 16.0622C15.8104 15.7017 16.2494 15.2627 16.6099 14.7622C16.6539 14.701 16.6775 14.6275 16.6775 14.5522C16.6775 14.4768 16.6539 14.4034 16.6099 14.3422L15.6299 13.0122C15.6355 12.9791 15.6355 12.9453 15.6299 12.9122L17.2199 12.6622C17.2953 12.6504 17.3649 12.615 17.4188 12.5611C17.4727 12.5072 17.5082 12.4375 17.5199 12.3622C17.571 12.0615 17.5977 11.7572 17.5999 11.4522C17.5977 11.1439 17.5709 10.8363 17.5199 10.5322C17.5042 10.4586 17.4675 10.3911 17.4143 10.3378C17.3611 10.2846 17.2936 10.2479 17.2199 10.2322L15.6699 10.0122V9.92219L16.6199 8.62219C16.6639 8.56099 16.6875 8.48754 16.6875 8.41219C16.6875 8.33684 16.6639 8.26339 16.6199 8.20219C16.2622 7.69936 15.8228 7.25995 15.3199 6.90219C15.2587 6.85824 15.1853 6.8346 15.1099 6.8346C15.0346 6.8346 14.9611 6.85824 14.8999 6.90219L13.5999 7.84219H13.5099L13.2499 6.26219C13.2414 6.18559 13.207 6.11417 13.1525 6.05966C13.098 6.00515 13.0266 5.97078 12.9499 5.96219C12.344 5.86221 11.7258 5.86221 11.1199 5.96219C11.0451 5.97287 10.976 6.00815 10.9235 6.06248C10.871 6.1168 10.8381 6.18707 10.8299 6.26219L10.5699 7.84219H10.4799L9.17994 6.90219C9.11665 6.85877 9.0417 6.83552 8.96494 6.83552C8.88819 6.83552 8.81323 6.85877 8.74994 6.90219C8.24243 7.25276 7.79355 7.68139 7.41994 8.17219C7.37652 8.23548 7.35327 8.31044 7.35327 8.38719C7.35327 8.46395 7.37652 8.53891 7.41994 8.60219L8.35994 9.90219C8.36371 9.93208 8.36371 9.96231 8.35994 9.99219L6.77994 10.2422C6.70632 10.2579 6.63881 10.2946 6.58558 10.3478C6.53235 10.4011 6.49566 10.4686 6.47994 10.5422C6.37322 11.1475 6.37322 11.7669 6.47994 12.3722C6.49173 12.4475 6.52714 12.5172 6.58105 12.5711C6.63497 12.625 6.70461 12.6604 6.77994 12.6722L8.35994 12.9222C8.36236 12.9555 8.36236 12.9889 8.35994 13.0222L7.41994 14.3222C7.37599 14.3834 7.35235 14.4568 7.35235 14.5322C7.35235 14.6075 7.37599 14.681 7.41994 14.7422C7.77929 15.2318 8.21482 15.6605 8.70994 16.0122C8.77208 16.0585 8.84748 16.0834 8.92494 16.0834C9.00241 16.0834 9.07781 16.0585 9.13994 16.0122L10.4699 15.1222Z" fill="#4E2583"/>
<path d="M12 10.1824C12.2536 10.1804 12.502 10.2538 12.7138 10.3932C12.9256 10.5327 13.0913 10.7319 13.1897 10.9656C13.2881 11.1993 13.3149 11.457 13.2666 11.7059C13.2184 11.9549 13.0972 12.1839 12.9186 12.3639C12.74 12.5439 12.512 12.6668 12.2634 12.717C12.0149 12.7672 11.757 12.7425 11.5225 12.6459C11.288 12.5493 11.0875 12.3853 10.9464 12.1746C10.8053 11.9639 10.73 11.716 10.73 11.4624C10.7287 11.2948 10.7606 11.1286 10.8238 10.9733C10.887 10.8181 10.9804 10.6769 11.0984 10.5579C11.2165 10.4389 11.3569 10.3445 11.5117 10.28C11.6664 10.2156 11.8324 10.1824 12 10.1824ZM12 13.4624C12.3956 13.4624 12.7822 13.3451 13.1111 13.1253C13.44 12.9056 13.6964 12.5932 13.8478 12.2278C13.9991 11.8623 14.0387 11.4602 13.9616 11.0722C13.8844 10.6843 13.6939 10.3279 13.4142 10.0482C13.1345 9.76849 12.7781 9.578 12.3902 9.50083C12.0022 9.42366 11.6001 9.46327 11.2346 9.61464C10.8692 9.76602 10.5568 10.0224 10.3371 10.3513C10.1173 10.6802 10 11.0668 10 11.4624C10 11.9928 10.2107 12.5015 10.5858 12.8766C10.9609 13.2517 11.4696 13.4624 12 13.4624Z" fill="#4E2583"/>
</svg>
