<svg width="24" height="24" viewBox="0 0 24 24" fill="none" xmlns="http://www.w3.org/2000/svg">
<g clip-path="url(#clip0)">
<path d="M6.91018 20.8299V17.0699H8.39018L8.13018 18.1899C8.10898 18.2839 8.12533 18.3826 8.17576 18.4647C8.22619 18.5469 8.30671 18.6062 8.40018 18.6299H8.48018C8.5624 18.6284 8.64194 18.6004 8.70685 18.5499C8.77176 18.4994 8.81855 18.4292 8.84018 18.3499L9.14018 17.0599H17.1402V20.8199L6.91018 20.8299ZM7.80018 15.0899H16.2002C16.3171 15.0899 16.4328 15.1129 16.5408 15.1576C16.6487 15.2024 16.7469 15.2679 16.8295 15.3506C16.9121 15.4332 16.9777 15.5313 17.0224 15.6393C17.0672 15.7473 17.0902 15.863 17.0902 15.9799V16.3399H6.91018V15.9999C6.91018 15.7638 7.00394 15.5375 7.17085 15.3706C7.33776 15.2037 7.56413 15.1099 7.80018 15.1099V15.0899ZM16.2002 14.3799H7.80018C7.37133 14.3825 6.9608 14.554 6.65756 14.8573C6.35432 15.1605 6.1828 15.571 6.18018 15.9999V21.1999C6.18016 21.248 6.18979 21.2957 6.2085 21.34C6.22722 21.3843 6.25463 21.4245 6.28913 21.458C6.32362 21.4916 6.3645 21.5179 6.40934 21.5354C6.45418 21.5529 6.50207 21.5612 6.55018 21.5599H17.4502C17.4983 21.5612 17.5462 21.5529 17.591 21.5354C17.6359 21.5179 17.6767 21.4916 17.7112 21.458C17.7457 21.4245 17.7731 21.3843 17.7918 21.34C17.8106 21.2957 17.8202 21.248 17.8202 21.1999V15.9999C17.8176 15.571 17.646 15.1605 17.3428 14.8573C17.0395 14.554 16.629 14.3825 16.2002 14.3799Z" fill="#4E2583"/>
<path d="M8.70984 6.89016H15.2998C15.5332 6.89016 15.7571 6.98287 15.9221 7.1479C16.0871 7.31293 16.1798 7.53677 16.1798 7.77016V8.14016H7.81984V7.77016C7.81984 7.65375 7.84292 7.53849 7.88777 7.43107C7.93262 7.32365 7.99834 7.22619 8.08111 7.14434C8.16389 7.06249 8.26209 6.99788 8.37001 6.95425C8.47793 6.91062 8.59344 6.88883 8.70984 6.89016ZM7.81984 11.3902V8.86016H8.75984L8.48984 10.0002C8.46896 10.0956 8.48668 10.1954 8.53914 10.2779C8.5916 10.3603 8.67453 10.4186 8.76984 10.4402H8.84984C8.93125 10.4399 9.01017 10.4121 9.07374 10.3613C9.1373 10.3104 9.18175 10.2395 9.19984 10.1602L9.50984 8.87016H16.1798V11.4002L7.81984 11.3902ZM7.45984 12.1102H16.5498C16.6453 12.1102 16.7369 12.0722 16.8044 12.0047C16.8719 11.9372 16.9098 11.8456 16.9098 11.7502V7.75016C16.9046 7.32663 16.7326 6.92224 16.4313 6.62462C16.1299 6.327 15.7234 6.16012 15.2998 6.16016H8.70984C8.28192 6.16015 7.87137 6.32945 7.56785 6.6311C7.26433 6.93275 7.09249 7.34224 7.08984 7.77016V11.7702C7.08983 11.8183 7.09946 11.8659 7.11817 11.9103C7.13689 11.9546 7.1643 11.9948 7.1988 12.0283C7.23329 12.0619 7.27417 12.0882 7.319 12.1057C7.36384 12.1232 7.41173 12.1315 7.45984 12.1302" fill="#4E2583"/>
<path d="M21.51 20.18H20.36V16.31L23.27 16.99V18.42C23.27 18.6511 23.2245 18.88 23.1361 19.0935C23.0476 19.3071 22.918 19.5011 22.7545 19.6645C22.5911 19.8279 22.3971 19.9576 22.1835 20.046C21.97 20.1345 21.7411 20.18 21.51 20.18ZM19.64 21.82C19.6374 22.2055 19.4824 22.5743 19.2089 22.8459C18.9354 23.1176 18.5655 23.27 18.18 23.27H5.82002C5.43453 23.27 5.06468 23.1176 4.79117 22.8459C4.51765 22.5743 4.36266 22.2055 4.36002 21.82V9.82C4.36114 9.4088 4.4115 8.99922 4.51002 8.6C4.77312 7.38822 5.44378 6.30329 6.41011 5.52622C7.37644 4.74916 8.58001 4.32693 9.82002 4.33H14.18C15.4159 4.32544 16.6162 4.74338 17.582 5.51454C18.5477 6.2857 19.221 7.36376 19.49 8.57C19.5885 8.96922 19.6389 9.3788 19.64 9.79V21.79V21.82ZM2.49002 20.18C2.2589 20.18 2.03003 20.1345 1.8165 20.046C1.60297 19.9576 1.40895 19.8279 1.24551 19.6645C0.91545 19.3344 0.730022 18.8868 0.730022 18.42V17L3.64002 16.32V20.19L2.49002 20.18ZM1.79002 14.18L3.64002 13.45V15.56L0.730022 16.25V15.76C0.729011 15.421 0.829398 15.0894 1.01828 14.8078C1.20717 14.5263 1.47593 14.3076 1.79002 14.18ZM6.18002 0.73H7.24002C7.33644 0.729965 7.42907 0.767571 7.49818 0.834811C7.56729 0.902052 7.60742 0.993613 7.61002 1.09V4C6.95636 4.25127 6.35085 4.61323 5.82002 5.07V1.07C5.82514 0.978031 5.86532 0.891521 5.93228 0.828275C5.99925 0.765029 6.08791 0.729858 6.18002 0.73ZM11.18 2.3H12.78C12.9393 2.29735 13.0975 2.32642 13.2454 2.38554C13.3933 2.44466 13.528 2.53263 13.6415 2.64432C13.7551 2.75602 13.8453 2.8892 13.9068 3.03611C13.9684 3.18302 14 3.34072 14 3.5V3.61H10V3.5C10 3.18174 10.1265 2.87652 10.3515 2.65147C10.5765 2.42643 10.8818 2.3 11.2 2.3H11.18ZM16.4 1.09C16.4 0.994522 16.438 0.902955 16.5055 0.835442C16.573 0.767928 16.6645 0.73 16.76 0.73H17.82C17.9155 0.73 18.0071 0.767928 18.0746 0.835442C18.1421 0.902955 18.18 0.994522 18.18 1.09V5.09C17.6528 4.62837 17.0509 4.25979 16.4 4V1.09ZM22.21 14.18C22.5241 14.3076 22.7929 14.5263 22.9818 14.8078C23.1706 15.0894 23.271 15.421 23.27 15.76V16.25L20.36 15.56V13.45L22.21 14.18ZM22.48 13.51L20.36 12.66V9.79C20.3606 9.32204 20.3069 8.85559 20.2 8.4C19.9844 7.44256 19.542 6.55091 18.91 5.8V1.09C18.91 0.800914 18.7952 0.523668 18.5908 0.319254C18.3864 0.114839 18.1091 0 17.82 0L16.76 0C16.4709 0 16.1937 0.114839 15.9893 0.319254C15.7849 0.523668 15.67 0.800914 15.67 1.09V3.79C15.3614 3.71181 15.0471 3.65831 14.73 3.63V3.5C14.7274 2.98987 14.5229 2.50153 14.1612 2.14174C13.7996 1.78196 13.3102 1.57999 12.8 1.58H11.2C10.6899 1.57999 10.2005 1.78196 9.83883 2.14174C9.47717 2.50153 9.27267 2.98987 9.27002 3.5V3.63C8.95294 3.65831 8.63861 3.71181 8.33002 3.79V1.09C8.33002 0.800914 8.21518 0.523668 8.01077 0.319254C7.80635 0.114839 7.52911 0 7.24002 0L6.18002 0C5.89094 0 5.61369 0.114839 5.40928 0.319254C5.20486 0.523668 5.09002 0.800914 5.09002 1.09V5.8C4.46164 6.55323 4.01969 7.44399 3.80002 8.4C3.69311 8.85559 3.63942 9.32204 3.64002 9.79V12.66L1.52002 13.51C1.0699 13.6889 0.684125 13.9992 0.412989 14.4006C0.141853 14.8019 -0.00205755 15.2757 2.22281e-05 15.76V18.42C0.00265531 19.0796 0.265839 19.7114 0.732235 20.1778C1.19863 20.6442 1.83044 20.9074 2.49002 20.91H3.64002V21.82C3.64002 22.3982 3.8697 22.9527 4.27853 23.3615C4.68736 23.7703 5.24185 24 5.82002 24H18.18C18.7582 24 19.3127 23.7703 19.7215 23.3615C20.1303 22.9527 20.36 22.3982 20.36 21.82V20.91H21.51C22.1696 20.9074 22.8014 20.6442 23.2678 20.1778C23.7342 19.7114 23.9974 19.0796 24 18.42V15.76C24.0021 15.2757 23.8582 14.8019 23.5871 14.4006C23.3159 13.9992 22.9301 13.6889 22.48 13.51Z" fill="#4E2583"/>
</g>
<defs>
<clipPath id="clip0">
<rect width="24" height="24" fill="white"/>
</clipPath>
</defs>
</svg>
