<svg width="24" height="24" viewBox="0 0 24 24" fill="none" xmlns="http://www.w3.org/2000/svg">
<path d="M23.27 20.6681C23.2674 21.3568 22.9926 22.0166 22.5056 22.5036C22.0185 22.9907 21.3588 23.2654 20.67 23.2681H3.33C2.64125 23.2654 1.98146 22.9907 1.49443 22.5036C1.00741 22.0166 0.732634 21.3568 0.73 20.6681V6.05807C0.73 5.36851 1.00393 4.70718 1.49152 4.21959C1.97912 3.732 2.64044 3.45807 3.33 3.45807H5.41C5.45851 3.4582 5.50655 3.44852 5.55123 3.42962C5.59591 3.41071 5.63631 3.38298 5.67 3.34807C7.35499 1.68092 9.62965 0.74581 12 0.74581C14.3704 0.74581 16.645 1.68092 18.33 3.34807C18.3637 3.38298 18.4041 3.41071 18.4488 3.42962C18.4934 3.44852 18.5415 3.4582 18.59 3.45807H20.67C21.0114 3.45807 21.3495 3.52532 21.665 3.65598C21.9804 3.78664 22.267 3.97816 22.5085 4.21959C22.7499 4.46102 22.9414 4.74764 23.0721 5.06309C23.2027 5.37854 23.27 5.71663 23.27 6.05807V20.6681ZM20.67 2.72807H18.74C16.9326 0.978305 14.5156 0 12 0C9.48439 0 7.06738 0.978305 5.26 2.72807H3.33C2.44683 2.72807 1.59983 3.07891 0.975334 3.7034C0.350838 4.3279 0 5.1749 0 6.05807L0 20.6681C0.00263786 21.5504 0.354323 22.3959 0.978248 23.0198C1.60217 23.6437 2.44764 23.9954 3.33 23.9981H20.67C21.5524 23.9954 22.3978 23.6437 23.0218 23.0198C23.6457 22.3959 23.9974 21.5504 24 20.6681V6.05807C23.9974 5.17571 23.6457 4.33024 23.0218 3.70632C22.3978 3.08239 21.5524 2.73071 20.67 2.72807Z" fill="#4E2583"/>
<path d="M16.0001 9.47794H14.2101C14.1517 9.12864 14.0117 8.79805 13.8014 8.51308C13.5912 8.2281 13.3166 7.99678 13.0001 7.83794L13.6401 5.83794C13.6545 5.79263 13.6599 5.74492 13.6559 5.69754C13.6519 5.65015 13.6387 5.60402 13.6168 5.56177C13.595 5.51952 13.5651 5.48198 13.5288 5.45129C13.4924 5.42061 13.4504 5.39738 13.4051 5.38294C13.3598 5.36849 13.3121 5.36311 13.2647 5.3671C13.2173 5.37109 13.1712 5.38438 13.1289 5.4062C13.0867 5.42802 13.0491 5.45795 13.0185 5.49428C12.9878 5.53061 12.9645 5.57263 12.9501 5.61794L12.3001 7.66794C12.2037 7.65804 12.1065 7.65804 12.0101 7.66794C11.4869 7.66288 10.9785 7.84112 10.573 8.17173C10.1675 8.50234 9.89051 8.96447 9.7901 9.47794H8.0001L6.3401 5.93794C6.82175 5.25713 7.42117 4.66787 8.1101 4.19794L8.5801 4.99794C8.60988 5.05384 8.65468 5.10031 8.70946 5.13211C8.76423 5.16391 8.8268 5.17978 8.8901 5.17794C8.94859 5.19703 9.01162 5.19703 9.0701 5.17794C9.112 5.15416 9.1487 5.12221 9.17803 5.08399C9.20736 5.04577 9.22872 5.00205 9.24084 4.95543C9.25296 4.9088 9.2556 4.86022 9.24861 4.81255C9.24161 4.76489 9.22512 4.71911 9.2001 4.67794L8.7401 3.88794C9.6358 3.4103 10.6262 3.13708 11.6401 3.08794V3.97794C11.6401 4.07341 11.678 4.16498 11.7455 4.2325C11.8131 4.30001 11.9046 4.33794 12.0001 4.33794C12.0956 4.33794 12.1871 4.30001 12.2547 4.2325C12.3222 4.16498 12.3601 4.07341 12.3601 3.97794V2.99794C13.374 3.04708 14.3644 3.3203 15.2601 3.79794L14.8001 4.58794C14.7736 4.6287 14.756 4.67453 14.7482 4.7225C14.7404 4.77048 14.7427 4.81954 14.7549 4.86658C14.7672 4.91362 14.7891 4.95759 14.8192 4.9957C14.8494 5.03381 14.8871 5.06522 14.9301 5.08794C14.9886 5.10703 15.0516 5.10703 15.1101 5.08794C15.1652 5.0998 15.2224 5.09778 15.2765 5.08207C15.3306 5.06636 15.3799 5.03745 15.4201 4.99794L15.8801 4.21794C16.5749 4.68418 17.1782 5.27395 17.6601 5.95794L16.0001 9.47794ZM13.4401 9.47794H10.5301C10.6079 9.1465 10.7955 8.8511 11.0623 8.63967C11.3292 8.42824 11.6597 8.31319 12.0001 8.31319C12.3406 8.31319 12.671 8.42824 12.9379 8.63967C13.2047 8.8511 13.3923 9.1465 13.4701 9.47794H13.4401ZM12.0001 2.27794C10.7357 2.27628 9.49076 2.58886 8.37712 3.18757C7.26349 3.78628 6.31609 4.65236 5.6201 5.70794C5.59033 5.76146 5.57471 5.82169 5.57471 5.88294C5.57471 5.94418 5.59033 6.00441 5.6201 6.05794L7.4101 9.99794C7.43902 10.061 7.48555 10.1144 7.5441 10.1517C7.60264 10.1889 7.67071 10.2085 7.7401 10.2079H16.2601C16.3295 10.2085 16.3976 10.1889 16.4561 10.1517C16.5147 10.1144 16.5612 10.061 16.5901 9.99794L18.4101 6.05794C18.4399 6.00441 18.4555 5.94418 18.4555 5.88294C18.4555 5.82169 18.4399 5.76146 18.4101 5.70794C17.7113 4.6481 16.7592 3.77936 15.6399 3.18042C14.5206 2.58149 13.2695 2.27129 12.0001 2.27794Z" fill="#4E2583"/>
</svg>
