<svg width="24" height="24" viewBox="0 0 24 24" fill="none" xmlns="http://www.w3.org/2000/svg">
<path d="M22.4 14.52H17.28C16.94 13.99 15.84 13.7 14.73 13.52L13.94 12.46H17.41C17.5064 12.46 17.599 12.4224 17.6682 12.3552C17.7373 12.2879 17.7774 12.1964 17.78 12.1V5.2C17.7774 5.10361 17.7373 5.01205 17.6682 4.94481C17.599 4.87757 17.5064 4.83996 17.41 4.84H6.71C6.66272 4.84 6.61591 4.84931 6.57223 4.8674C6.52856 4.8855 6.48887 4.91201 6.45544 4.94544C6.42201 4.97887 6.39549 5.01856 6.3774 5.06223C6.35931 5.10591 6.35 5.15272 6.35 5.2V12.13C6.35 12.2255 6.38793 12.317 6.45544 12.3846C6.52295 12.4521 6.61452 12.49 6.71 12.49H10.19L9.4 13.55C8.45534 13.5705 7.54844 13.9248 6.84 14.55H1.73V0.73H22.4V14.52ZM13.03 12.52L13.74 13.47C12.93 13.41 12.25 13.4 12.06 13.4C11.87 13.4 11.2 13.4 10.39 13.47L11.1 12.52H13.03ZM13.21 11.8H7.08V5.57H17.08V11.77L13.21 11.8ZM12.06 15.7C9.36 15.7 7.71 15.21 7.47 14.91C7.71 14.62 9.36 14.13 12.06 14.13C14.76 14.13 16.41 14.62 16.65 14.91C16.41 15.21 14.77 15.7 12.06 15.7ZM16.18 17.84H16.11L15.93 17.9H15.85L15.62 17.96H15.56L15.24 18.03L14.93 18.09H14.83H14.55H14.45H14.1H14L14.12 16.14C14.9518 16.0751 15.7718 15.9037 16.56 15.63L16.18 17.84ZM15.71 20.66L15.35 20.74H15.25L14.9 20.81H14.83L14.4 20.87H14.27H13.89H13.8L13.91 18.87H14L14.47 18.82H14.55L15.05 18.75H15.2L15.53 18.68H15.67L15.99 18.6H16.07L15.71 20.66ZM13.22 18.34H13.09C12.7567 18.34 12.4233 18.34 12.09 18.34H12C11.66 18.34 11.3267 18.34 11 18.34H10.9L10.79 16.34C11.42 16.34 11.91 16.34 12.06 16.34C12.21 16.34 12.71 16.34 13.33 16.34L13.22 18.34ZM13.07 21H13C12.4 21 11.8 21 11.2 21H11.09L10.94 19H11.07C11.4033 19 11.7367 19 12.07 19C12.41 19 12.74 19 13.07 19H13.19L13.07 21ZM10.25 21H9.86H9.73L9.3 20.94H9.23L8.89 20.87H8.78L8.43 20.79L8.1 18.79H8.17L8.49 18.87H8.63L8.97 18.94H9.11L9.61 19.01H9.69L10.16 19.06H10.23L10.34 21.06H10.25V21ZM8 17.83L7.66 15.83C8.4516 16.1037 9.27494 16.2751 10.11 16.34L10.22 18.29H10.1H9.75H9.65H9.36H9.27L9 18.08L8.6 18H8.54L8.31 17.94H8.24L8.05 17.88H7.98L8 17.83ZM22.76 0H1.36C1.26452 0 1.17295 0.0379285 1.10544 0.105442C1.03793 0.172955 1 0.264522 1 0.36V14.88C0.999965 14.9764 1.03757 15.069 1.10481 15.1382C1.17205 15.2073 1.26361 15.2474 1.36 15.25H6.79L7.26 18.13L7.73 21L8.13 23.4C8.14211 23.4839 8.18426 23.5606 8.24864 23.6158C8.31301 23.6709 8.39522 23.7009 8.48 23.7H8.54C8.58757 23.6928 8.6332 23.676 8.6742 23.6508C8.7152 23.6257 8.75073 23.5925 8.7787 23.5534C8.80667 23.5142 8.8265 23.4698 8.83703 23.4229C8.84756 23.3759 8.84857 23.3273 8.84 23.28L8.54 21.43L9 21.5H9.1L9.56 21.57L10.05 21.62H10.18H10.39L10.5 23.62C10.5077 23.7146 10.5514 23.8026 10.6221 23.8659C10.6928 23.9292 10.7851 23.9629 10.88 23.96C10.9278 23.9588 10.9748 23.9479 11.0181 23.9278C11.0615 23.9078 11.1003 23.8791 11.1321 23.8435C11.164 23.8079 11.1882 23.7661 11.2033 23.7208C11.2184 23.6755 11.2241 23.6276 11.22 23.58L11.12 21.68H11.22C11.51 21.68 11.8 21.68 12.08 21.68C12.36 21.68 12.66 21.68 12.94 21.68H13L12.89 23.58C12.8873 23.6273 12.894 23.6747 12.9096 23.7194C12.9252 23.7641 12.9495 23.8053 12.9811 23.8406C13.0127 23.8759 13.051 23.9046 13.0937 23.9251C13.1364 23.9456 13.1827 23.9574 13.23 23.96C13.3231 23.9603 13.413 23.9255 13.4816 23.8624C13.5502 23.7994 13.5924 23.7128 13.6 23.62L13.71 21.62H14.18H14.24L14.6 21.57H14.73H15.03H15.14L15.51 21.49L15.2 23.34C15.1841 23.4355 15.2068 23.5334 15.263 23.6121C15.3193 23.6909 15.4045 23.7441 15.5 23.76C15.5955 23.7759 15.6934 23.7532 15.7721 23.697C15.8509 23.6407 15.9041 23.5555 15.92 23.46L16.31 21.06L16.78 18.21L17.26 15.33H22.68C22.7764 15.3274 22.8679 15.2873 22.9352 15.2182C23.0024 15.149 23.04 15.0564 23.04 14.96V0.36C23.0421 0.276892 23.0153 0.195628 22.9643 0.130005C22.9132 0.0643834 22.8411 0.0184484 22.76 0" fill="#4E2583"/>
</svg>
