<svg width="24" height="24" viewBox="0 0 24 24" fill="none" xmlns="http://www.w3.org/2000/svg">
<path d="M9.73361 21.82C9.73097 22.2055 9.57599 22.5743 9.30247 22.8459C9.02895 23.1176 8.6591 23.27 8.27361 23.27H3.18361C2.79905 23.27 2.43024 23.1172 2.15831 22.8453C1.88638 22.5734 1.73361 22.2046 1.73361 21.82V19.46C2.68201 16.9028 2.88997 14.13 2.33361 11.46C2.80451 11.6609 3.31165 11.763 3.82361 11.76C4.60399 11.781 5.36975 11.5457 6.00361 11.09C6.47515 10.7724 7.02724 10.5953 7.59556 10.5793C8.16387 10.5634 8.72502 10.7093 9.21361 11L9.12361 11.44C8.5655 14.1106 8.77703 16.8849 9.73361 19.44V21.82ZM2.21361 8.06L4.30361 5.61C4.63633 5.21517 4.82031 4.71631 4.82361 4.2V3.41H6.64361V4.2C6.64326 4.71522 6.82375 5.21422 7.15361 5.61L9.24361 8.06C9.38685 8.22726 9.49011 8.42495 9.54556 8.63807C9.601 8.85119 9.60718 9.07414 9.56361 9.29L9.37361 10.29C8.76825 9.97516 8.08795 9.83288 7.40716 9.87874C6.72636 9.9246 6.07129 10.1568 5.51361 10.55C5.01649 10.8875 4.42947 11.0679 3.82861 11.0679C3.22776 11.0679 2.64074 10.8875 2.14361 10.55L1.89361 9.29C1.85005 9.07414 1.85622 8.85119 1.91167 8.63807C1.96712 8.42495 2.07038 8.22726 2.21361 8.06ZM4.09361 0.73H7.36361V2.73H4.09361V0.73ZM9.84361 11.6L10.2736 9.44C10.3407 9.11618 10.3333 8.78134 10.2519 8.46083C10.1704 8.14031 10.0171 7.84252 9.80361 7.59L7.71361 5.14C7.49109 4.87696 7.36731 4.54452 7.36361 4.2V3.41H7.73361C7.82909 3.41 7.92066 3.37207 7.98817 3.30456C8.05568 3.23705 8.09361 3.14548 8.09361 3.05V0.36C8.09361 0.264522 8.05568 0.172955 7.98817 0.105442C7.92066 0.0379285 7.82909 2.47199e-08 7.73361 2.47199e-08H3.73361C3.63719 -3.51977e-05 3.54456 0.0375712 3.47546 0.104811C3.40635 0.172052 3.36622 0.263613 3.36361 0.36V3.05C3.36622 3.14639 3.40635 3.23795 3.47546 3.30519C3.54456 3.37243 3.63719 3.41004 3.73361 3.41H4.09361V4.2C4.09518 4.54548 3.97074 4.87968 3.74361 5.14L1.66361 7.59C1.44834 7.84165 1.29324 8.13904 1.21007 8.45959C1.1269 8.78014 1.11785 9.11543 1.18361 9.44L1.62361 11.6C2.15395 14.1634 1.9388 16.8251 1.00361 19.27C0.998796 19.3099 0.998796 19.3501 1.00361 19.39V21.82C1.00624 22.3974 1.23677 22.9503 1.64503 23.3586C2.05329 23.7668 2.60625 23.9974 3.18361 24H8.27361C8.85097 23.9974 9.40394 23.7668 9.8122 23.3586C10.2205 22.9503 10.451 22.3974 10.4536 21.82V19.39C10.4634 19.3506 10.4634 19.3094 10.4536 19.27C9.53338 16.8211 9.32875 14.1609 9.86361 11.6" fill="#4E2583"/>
<path d="M20.3838 20.73H15.1338L14.2838 13.26C14.7736 13.4834 15.3055 13.5993 15.8438 13.6C16.6178 13.6196 17.3768 13.3842 18.0038 12.93C18.4937 12.6074 19.0673 12.4355 19.6538 12.4355C20.2403 12.4355 20.814 12.6074 21.3038 12.93L20.3838 20.73ZM21.7638 8.61L21.3638 12.08C20.763 11.7723 20.0895 11.6348 19.4162 11.6823C18.7428 11.7299 18.0954 11.9608 17.5438 12.35C17.0477 12.6853 16.4626 12.8645 15.8638 12.8645C15.265 12.8645 14.6799 12.6853 14.1838 12.35L13.7538 8.6L21.7638 8.61ZM22.4438 8.01C22.4088 7.97074 22.3655 7.93965 22.3171 7.91892C22.2688 7.89819 22.2164 7.88831 22.1638 7.89H13.3538C13.3026 7.88764 13.2515 7.89726 13.2046 7.91809C13.1578 7.93892 13.1164 7.97039 13.0838 8.01C13.0487 8.04722 13.0217 8.09132 13.0045 8.13951C12.9873 8.18771 12.9802 8.23895 12.9838 8.29L14.4438 21.13C14.4537 21.2184 14.496 21.3 14.5624 21.3591C14.6289 21.4182 14.7149 21.4505 14.8038 21.45H20.7138C20.8028 21.4505 20.8888 21.4182 20.9552 21.3591C21.0217 21.3 21.0639 21.2184 21.0738 21.13L22.5338 8.29C22.542 8.18537 22.5098 8.08158 22.4438 8" fill="#4E2583"/>
</svg>
