<svg width="24" height="24" viewBox="0 0 24 24" fill="none" xmlns="http://www.w3.org/2000/svg">
<g clip-path="url(#clip0)">
<path d="M15.57 19.0838C14.4298 20.0107 13.2379 20.8721 12 21.6638C10.51 20.7138 0.730014 14.1938 0.730014 7.6238C0.714159 6.31953 1.13169 5.0469 1.91711 4.00552C2.70254 2.96415 3.81142 2.21294 5.06982 1.86974C6.32822 1.52654 7.66494 1.61076 8.87031 2.1092C10.0757 2.60763 11.0815 3.49207 11.73 4.62379C11.7618 4.6777 11.8072 4.72237 11.8615 4.75341C11.9159 4.78444 11.9774 4.80076 12.04 4.80076C12.1026 4.80076 12.1641 4.78444 12.2185 4.75341C12.2729 4.72237 12.3182 4.6777 12.35 4.62379C12.9985 3.49207 14.0043 2.60763 15.2097 2.1092C16.4151 1.61076 17.7518 1.52654 19.0102 1.86974C20.2686 2.21294 21.3775 2.96415 22.1629 4.00552C22.9483 5.0469 23.3659 6.31953 23.35 7.6238C23.35 7.7738 23.35 7.93379 23.35 8.0838C23.3445 8.13136 23.3488 8.17956 23.3626 8.2254C23.3765 8.27125 23.3996 8.31376 23.4305 8.35032C23.4614 8.38688 23.4995 8.4167 23.5424 8.43794C23.5854 8.45917 23.6322 8.47138 23.68 8.47379C23.7643 8.46253 23.8421 8.42257 23.9004 8.36064C23.9587 8.29872 23.9939 8.21861 24 8.1338C24 7.9638 24 7.7938 24 7.6238C24.0029 6.22051 23.5592 4.85271 22.733 3.71841C21.9069 2.5841 20.7411 1.74216 19.4046 1.31448C18.0681 0.886789 16.6301 0.895549 15.2989 1.33949C13.9677 1.78343 12.8123 2.63951 12 3.78379C11.1877 2.63951 10.0323 1.78343 8.70112 1.33949C7.36991 0.895549 5.93195 0.886789 4.59543 1.31448C3.25891 1.74216 2.09318 2.5841 1.267 3.71841C0.440829 4.85271 -0.00291423 6.22051 1.44036e-05 7.6238C1.44036e-05 15.1038 11.33 22.1138 11.81 22.4038C11.8656 22.443 11.932 22.464 12 22.464C12.068 22.464 12.1344 22.443 12.19 22.4038C13.5117 21.561 14.7838 20.6428 16 19.6538C16.0374 19.6242 16.0687 19.5876 16.092 19.546C16.1152 19.5044 16.1301 19.4586 16.1356 19.4112C16.1412 19.3639 16.1374 19.3159 16.1244 19.27C16.1114 19.2241 16.0896 19.1812 16.06 19.1438C16.0305 19.1064 15.9938 19.0751 15.9522 19.0519C15.9106 19.0286 15.8648 19.0137 15.8174 19.0082C15.7701 19.0026 15.7221 19.0064 15.6762 19.0194C15.6303 19.0324 15.5874 19.0542 15.55 19.0838" fill="#4E2583"/>
<path d="M22.8898 14.1436C23.0312 14.2998 23.1097 14.5029 23.1098 14.7136C23.1093 14.9038 23.0434 15.088 22.9233 15.2355C22.8031 15.3829 22.636 15.4846 22.4498 15.5236C22.3942 15.5356 22.3424 15.5611 22.2988 15.5977C22.2553 15.6342 22.2213 15.6809 22.1998 15.7336C22.1727 15.7826 22.1584 15.8376 22.1584 15.8936C22.1584 15.9496 22.1727 16.0046 22.1998 16.0536C22.2667 16.1798 22.301 16.3207 22.2998 16.4636C22.3008 16.6705 22.2244 16.8704 22.0856 17.0239C21.9469 17.1775 21.7558 17.2736 21.5498 17.2936H14.9998C14.8742 17.2936 14.7536 17.2444 14.6639 17.1566C14.5741 17.0687 14.5224 16.9492 14.5198 16.8236V11.8936C14.5198 11.6436 14.9998 11.1036 15.4198 10.6236C16.212 9.8677 16.8091 8.93092 17.1598 7.89359C17.221 7.14645 17.167 6.39435 16.9998 5.66359C17.1957 5.63943 17.3939 5.63943 17.5898 5.66359C18.1698 5.66359 18.6598 6.51359 18.7598 7.66359C18.8221 8.37263 18.7578 9.0871 18.5698 9.77359C18.5547 9.82797 18.5523 9.88508 18.5627 9.94055C18.5731 9.99601 18.5961 10.0484 18.6298 10.0936C18.6645 10.1373 18.7086 10.1726 18.7588 10.1968C18.809 10.221 18.864 10.2336 18.9198 10.2336H22.6098C22.7803 10.2583 22.9353 10.3459 23.0445 10.4791C23.1537 10.6123 23.2091 10.7816 23.1998 10.9536C23.2125 11.0794 23.1957 11.2064 23.1505 11.3244C23.1054 11.4425 23.0332 11.5484 22.9398 11.6336C22.8754 11.682 22.8243 11.7459 22.7911 11.8193C22.7579 11.8927 22.7437 11.9733 22.7498 12.0536C22.7576 12.1324 22.7856 12.2079 22.8312 12.2727C22.8767 12.3376 22.9383 12.3895 23.0098 12.4236C23.1043 12.4837 23.1804 12.5687 23.2298 12.6693C23.2792 12.7698 23.3 12.882 23.2898 12.9936C23.2906 13.1243 23.2602 13.2533 23.2011 13.3698C23.1419 13.4864 23.0558 13.5871 22.9498 13.6636C22.9094 13.6946 22.8761 13.7338 22.8519 13.7786C22.8278 13.8234 22.8134 13.8728 22.8098 13.9236C22.8042 13.9748 22.8103 14.0266 22.8276 14.0751C22.8449 14.1236 22.873 14.1675 22.9098 14.2036L22.8898 14.1436ZM23.6098 11.9736C23.8259 11.6857 23.9387 11.3334 23.9298 10.9736C23.9383 10.6096 23.8056 10.2564 23.5596 9.98797C23.3135 9.71956 22.9732 9.55673 22.6098 9.53359H19.3598C19.4904 8.90245 19.5275 8.25552 19.4698 7.61359C19.3298 6.00359 18.5798 4.94359 17.5998 4.90359C17.177 4.8573 16.7494 4.92282 16.3598 5.09359C16.2936 5.1341 16.2422 5.19493 16.2134 5.26702C16.1845 5.3391 16.1798 5.41858 16.1998 5.49359C16.3858 6.22519 16.47 6.97898 16.4498 7.73359C16.1226 8.64889 15.5848 9.47443 14.8798 10.1436C14.2698 10.8236 13.7998 11.3636 13.7998 11.8936V16.8236C13.8051 17.1384 13.9338 17.4385 14.1583 17.6592C14.3827 17.88 14.685 18.0036 14.9998 18.0036H21.6298C21.8502 17.9793 22.063 17.9089 22.2543 17.797C22.4457 17.6851 22.6114 17.5341 22.7406 17.354C22.8698 17.1739 22.9597 16.9685 23.0043 16.7514C23.049 16.5342 23.0474 16.3101 22.9998 16.0936C23.2517 15.9613 23.463 15.763 23.6109 15.5199C23.7589 15.2769 23.838 14.9981 23.8398 14.7136C23.8414 14.4394 23.7689 14.1699 23.6298 13.9336C23.8691 13.6554 24.0004 13.3005 23.9998 12.9336C24.0017 12.748 23.9664 12.5639 23.896 12.3921C23.8256 12.2204 23.7215 12.0645 23.5898 11.9336" fill="#4E2583"/>
<path d="M12.12 12.0036H12.71C12.8055 12.0036 12.897 11.9657 12.9646 11.8982C13.0321 11.8307 13.07 11.7391 13.07 11.6436C13.07 11.5481 13.0321 11.4566 12.9646 11.3891C12.897 11.3215 12.8055 11.2836 12.71 11.2836H12.12C11.976 11.2796 11.8327 11.3042 11.6983 11.356C11.5638 11.4077 11.441 11.4856 11.3369 11.5851C11.2327 11.6846 11.1493 11.8037 11.0915 11.9356C11.0337 12.0675 11.0026 12.2096 11 12.3536V16.9336C11.0026 17.0776 11.0337 17.2197 11.0915 17.3516C11.1493 17.4835 11.2327 17.6027 11.3369 17.7022C11.441 17.8017 11.5638 17.8795 11.6983 17.9313C11.8327 17.983 11.976 18.0076 12.12 18.0036H12.71C12.8064 18.0037 12.899 17.9661 12.9682 17.8988C13.0373 17.8316 13.0774 17.74 13.08 17.6436C13.0775 17.5463 13.0377 17.4536 12.9688 17.3848C12.9 17.3159 12.8073 17.2762 12.71 17.2736H12.12C12.0236 17.2737 11.931 17.236 11.8618 17.1688C11.7927 17.1016 11.7526 17.01 11.75 16.9136V12.3536C11.7525 12.2563 11.7923 12.1636 11.8612 12.0948C11.93 12.0259 12.0227 11.9862 12.12 11.9836" fill="#4E2583"/>
</g>
<defs>
<clipPath id="clip0">
<rect width="24" height="24" fill="white"/>
</clipPath>
</defs>
</svg>
