<svg width="24" height="24" viewBox="0 0 24 24" fill="none" xmlns="http://www.w3.org/2000/svg">
<path d="M11.5 23.3004C9.36388 23.3004 7.27573 22.667 5.49961 21.4802C3.7235 20.2935 2.33918 18.6067 1.52172 16.6331C0.704263 14.6596 0.490379 12.488 0.907116 10.3929C1.32385 8.29787 2.35249 6.37342 3.86296 4.86295C5.37342 3.35249 7.29787 2.32385 9.39295 1.90711C11.488 1.49037 13.6596 1.70426 15.6331 2.52172C17.6067 3.33917 19.2935 4.72349 20.4802 6.49961C21.667 8.27573 22.3004 10.3639 22.3004 12.5C22.2979 15.3637 21.1592 18.1093 19.1343 20.1342C17.1093 22.1592 14.3637 23.2979 11.5 23.3004ZM11.5 1C9.22552 1 7.00211 1.67446 5.11095 2.9381C3.21978 4.20174 1.7458 5.99779 0.875391 8.09914C0.00498279 10.2005 -0.222756 12.5128 0.220974 14.7435C0.664704 16.9743 1.75997 19.0234 3.36828 20.6317C4.97658 22.24 7.02569 23.3353 9.25647 23.779C11.4872 24.2228 13.7995 23.995 15.9009 23.1246C18.0022 22.2542 19.7983 20.7802 21.0619 18.8891C22.3255 16.9979 23 14.7745 23 12.5C23 9.45001 21.7884 6.52494 19.6317 4.36827C17.4751 2.2116 14.55 1 11.5 1" fill="#4E2583"/>
<path d="M2.87523 11.082H2.94231C3.02283 11.0817 3.10085 11.0541 3.16355 11.0036C3.22626 10.9531 3.2699 10.8827 3.28731 10.8041C3.61484 9.20112 4.40624 7.72974 5.56314 6.57285C6.72004 5.41595 8.19141 4.62455 9.79439 4.29702C9.84197 4.29032 9.88762 4.27376 9.92842 4.2484C9.96923 4.22304 10.0043 4.18943 10.0314 4.14974C10.0584 4.11004 10.0769 4.06513 10.0856 4.01788C10.0943 3.97063 10.093 3.92208 10.0819 3.87535C10.0739 3.83088 10.057 3.78848 10.0323 3.7507C10.0075 3.71291 9.97538 3.68051 9.9378 3.65545C9.90021 3.63039 9.85794 3.61319 9.81354 3.60486C9.76913 3.59654 9.72351 3.59727 9.67939 3.60702C7.93766 3.95975 6.33898 4.81923 5.08409 6.07753C3.82921 7.33582 2.97407 8.93684 2.62606 10.6795C2.61631 10.7236 2.61558 10.7693 2.62391 10.8137C2.63223 10.8581 2.64944 10.9003 2.6745 10.9379C2.69956 10.9755 2.73195 11.0076 2.76974 11.0324C2.80753 11.0572 2.84992 11.074 2.89439 11.082" fill="#4E2583"/>
<path d="M9.81332 20.6939C8.21035 20.3664 6.73897 19.575 5.58207 18.4181C4.42517 17.2612 3.63378 15.7898 3.30624 14.1869C3.29879 14.1392 3.28116 14.0938 3.25455 14.0536C3.22794 14.0134 3.19299 13.9794 3.15206 13.9539C3.11114 13.9285 3.0652 13.9121 3.01739 13.906C2.96958 13.8999 2.92101 13.9042 2.87499 13.9185C2.83014 13.9276 2.78755 13.9456 2.7497 13.9713C2.71185 13.997 2.6795 14.03 2.65452 14.0684C2.62955 14.1067 2.61246 14.1497 2.60424 14.1947C2.59602 14.2397 2.59684 14.2859 2.60666 14.3306C2.96207 16.067 3.82023 17.6605 5.07434 18.9129C6.32844 20.1653 7.92314 21.0213 9.65999 21.3744H9.72707C9.81857 21.3833 9.90986 21.3554 9.98085 21.297C10.0518 21.2386 10.0967 21.1544 10.1056 21.0629C10.1145 20.9714 10.0867 20.8801 10.0283 20.8091C9.96988 20.7381 9.88566 20.6933 9.79416 20.6844" fill="#4E2583"/>
<path d="M20.1252 13.9085C20.0798 13.8988 20.033 13.8983 19.9874 13.9072C19.9419 13.916 19.8985 13.9339 19.8601 13.9598C19.8216 13.9858 19.7888 14.0192 19.7635 14.0582C19.7383 14.0971 19.7211 14.1407 19.7131 14.1864C19.3856 15.7894 18.5942 17.2608 17.4373 18.4177C16.2804 19.5746 14.809 20.366 13.206 20.6935C13.1612 20.7026 13.1186 20.7206 13.0808 20.7463C13.0429 20.772 13.0106 20.805 12.9856 20.8434C12.9606 20.8817 12.9435 20.9247 12.9353 20.9697C12.9271 21.0147 12.9279 21.0609 12.9377 21.1056C12.9514 21.1843 12.9927 21.2555 13.0542 21.3064C13.1157 21.3574 13.1933 21.3847 13.2731 21.3835H13.3498C15.0872 21.0304 16.682 20.1731 17.9348 18.9185C19.1876 17.664 20.0428 16.0681 20.3935 14.3302C20.4108 14.2401 20.3925 14.1469 20.3424 14.0701C20.2924 13.9932 20.2145 13.9388 20.1252 13.9181" fill="#4E2583"/>
<path d="M13.1869 4.3066C14.7899 4.63413 16.2613 5.42553 17.4182 6.58243C18.5751 7.73932 19.3665 9.2107 19.694 10.8137C19.7114 10.8923 19.755 10.9626 19.8177 11.0131C19.8804 11.0637 19.9585 11.0913 20.039 11.0916H20.1252C20.1701 11.0825 20.2127 11.0646 20.2505 11.0388C20.2884 11.0131 20.3207 10.9801 20.3457 10.9418C20.3707 10.9034 20.3878 10.8605 20.396 10.8154C20.4042 10.7704 20.4034 10.7242 20.3936 10.6795C20.0385 8.93884 19.1782 7.34142 17.9203 6.08693C16.6624 4.83245 15.0627 3.97654 13.3211 3.62618C13.2308 3.60839 13.1372 3.62717 13.0609 3.67839C12.9845 3.72961 12.9316 3.80908 12.9138 3.89931C12.896 3.98954 12.9148 4.08314 12.966 4.15952C13.0172 4.2359 13.0967 4.28881 13.1869 4.3066Z" fill="#4E2583"/>
<path d="M13.3399 13.8417L10.1582 10.66L15.3332 8.66672L13.3399 13.8417ZM7.66654 16.3334L9.65029 11.1584L12.8415 14.3496L7.66654 16.3334ZM15.8124 7.70838L9.40112 10.2L9.28612 10.2767C9.2567 10.3105 9.23394 10.3495 9.21904 10.3917L6.7082 16.8125C6.68342 16.8748 6.6784 16.9431 6.69383 17.0083C6.70926 17.0734 6.7444 17.1322 6.79445 17.1767C6.85737 17.242 6.94343 17.2798 7.03404 17.2821H7.15862L13.5699 14.8192C13.6164 14.8089 13.6574 14.7815 13.6849 14.7425C13.7137 14.7065 13.7394 14.668 13.7615 14.6276L16.2915 8.18755C16.3366 8.12115 16.357 8.04114 16.3494 7.96128C16.3419 7.88142 16.3067 7.8067 16.2499 7.74997C16.1932 7.69325 16.1185 7.65807 16.0386 7.65047C15.9588 7.64288 15.8788 7.66336 15.8124 7.70838Z" fill="#4E2583"/>
<path d="M4.17809 12.5003C4.17809 12.4088 4.14174 12.321 4.07704 12.2563C4.01234 12.1916 3.92459 12.1553 3.83309 12.1553H1.74393C1.65243 12.1553 1.56467 12.1916 1.49997 12.2563C1.43527 12.321 1.39893 12.4088 1.39893 12.5003C1.39893 12.5918 1.43527 12.6795 1.49997 12.7442C1.56467 12.8089 1.65243 12.8453 1.74393 12.8453H3.83309C3.92459 12.8453 4.01234 12.8089 4.07704 12.7442C4.14174 12.6795 4.17809 12.5918 4.17809 12.5003Z" fill="#4E2583"/>
<path d="M21.2559 12.1553H19.1668C19.0753 12.1553 18.9875 12.1916 18.9228 12.2563C18.8581 12.321 18.8218 12.4088 18.8218 12.5003C18.8218 12.5918 18.8581 12.6795 18.9228 12.7442C18.9875 12.8089 19.0753 12.8453 19.1668 12.8453H21.2559C21.3474 12.8453 21.4352 12.8089 21.4999 12.7442C21.5646 12.6795 21.6009 12.5918 21.6009 12.5003C21.6009 12.4088 21.5646 12.321 21.4999 12.2563C21.4352 12.1916 21.3474 12.1553 21.2559 12.1553Z" fill="#4E2583"/>
<path d="M11.4998 19.8218C11.4083 19.8218 11.3205 19.8581 11.2558 19.9228C11.1911 19.9875 11.1548 20.0753 11.1548 20.1668V22.2559C11.1548 22.3474 11.1911 22.4352 11.2558 22.4999C11.3205 22.5646 11.4083 22.6009 11.4998 22.6009C11.5913 22.6009 11.679 22.5646 11.7437 22.4999C11.8084 22.4352 11.8448 22.3474 11.8448 22.2559V20.1668C11.8448 20.0753 11.8084 19.9875 11.7437 19.9228C11.679 19.8581 11.5913 19.8218 11.4998 19.8218Z" fill="#4E2583"/>
<path d="M11.4998 5.17809C11.5913 5.17809 11.679 5.14174 11.7437 5.07704C11.8084 5.01234 11.8448 4.92459 11.8448 4.83309V2.74393C11.8448 2.65243 11.8084 2.56467 11.7437 2.49997C11.679 2.43527 11.5913 2.39893 11.4998 2.39893C11.4083 2.39893 11.3205 2.43527 11.2558 2.49997C11.1911 2.56467 11.1548 2.65243 11.1548 2.74393V4.83309C11.1548 4.92459 11.1911 5.01234 11.2558 5.07704C11.3205 5.14174 11.4083 5.17809 11.4998 5.17809Z" fill="#4E2583"/>
</svg>
