<svg width="24" height="24" viewBox="0 0 24 24" fill="none" xmlns="http://www.w3.org/2000/svg">
<g clip-path="url(#clip0)">
<path d="M21.53 20.36C20.7186 21.3643 19.6719 22.153 18.4828 22.6561C17.2937 23.1593 15.9989 23.3613 14.713 23.2444C13.4271 23.1275 12.19 22.6952 11.1111 21.9858C10.0323 21.2764 9.14505 20.3119 8.52808 19.1777C7.91111 18.0434 7.58344 16.7745 7.5741 15.4834C7.56476 14.1923 7.87405 12.9188 8.47455 11.7757C9.07505 10.6327 9.94822 9.65545 11.0167 8.93056C12.0852 8.20566 13.316 7.75551 14.6 7.62C14.8765 7.60506 15.1535 7.60506 15.43 7.62C16.9108 7.62166 18.3609 8.04212 19.6129 8.83282C20.8649 9.62351 21.8677 10.7522 22.5056 12.0886C23.1434 13.4249 23.3903 14.9144 23.2177 16.3851C23.045 17.8558 22.46 19.2477 21.53 20.4V20.36ZM5.27 23.27C2.47 23.27 0.73 20.69 0.73 16.54C0.785757 14.1798 1.50297 11.8827 2.8 9.91C2.87475 9.81916 2.94165 9.72215 3 9.62L3.45 9.85C3.61634 9.9171 3.78666 9.97388 3.96 10.02H4.05C4.21798 10.0629 4.38825 10.0963 4.56 10.12H4.65C4.82986 10.1299 5.01014 10.1299 5.19 10.12C5.36654 10.1295 5.54346 10.1295 5.72 10.12H5.82C5.98862 10.0973 6.15563 10.0639 6.32 10.02H6.42C6.61592 9.9937 6.80973 9.9536 7 9.9L7.46 9.67C7.52 9.78 7.59 9.87 7.65 9.96C7.83811 10.2202 8.01171 10.4906 8.17 10.77C7.17111 12.3243 6.70063 14.1596 6.82855 16.0027C6.95648 17.8459 7.67597 19.5986 8.88 21C8.55794 21.686 8.04764 22.2663 7.40854 22.6735C6.76943 23.0807 6.0278 23.298 5.27 23.3V23.27ZM7.24 9C7.10897 9.08632 6.97196 9.16318 6.83 9.23H6.77C6.63051 9.29041 6.4868 9.34054 6.34 9.38H6.26L5.82 9.48H5.75C5.41814 9.52429 5.08186 9.52429 4.75 9.48H4.73L4.29 9.38H4.21L3.79 9.23H3.72C3.57804 9.16318 3.44103 9.08632 3.31 9C3.44045 8.64619 3.52122 8.276 3.55 7.9H3.61C3.71 7.9 3.8 7.99 3.9 8.02L4 8C4.12383 8.04584 4.25083 8.08261 4.38 8.11H4.44L4.78 8.17H4.89H5.28H5.67H5.78L6.11 8.12H6.18C6.30617 8.08933 6.42985 8.04922 6.55 8H6.64L6.94 7.88C6.98631 8.26569 7.08732 8.64281 7.24 9ZM2.8 4.36C2.8 2.26 3.8 0.73 5.27 0.73C6.74 0.73 7.74 2.26 7.74 4.36C7.72904 4.81777 7.6306 5.26922 7.45 5.69C7.22122 6.0955 7.0687 6.53951 7 7L6.82 7.11C6.76677 7.14885 6.70982 7.18235 6.65 7.21L6.38 7.32L6.21 7.39L5.89 7.46H5.74C5.40802 7.50247 5.07198 7.50247 4.74 7.46H4.59L4.27 7.39L4.1 7.32C4.007 7.29118 3.91666 7.25438 3.83 7.21L3.65 7.11L3.53 7C3.46714 6.53952 3.31785 6.09506 3.09 5.69C2.9094 5.26922 2.81096 4.81777 2.8 4.36ZM24 14.52C23.8324 12.8159 23.1581 11.2011 22.0642 9.8838C20.9703 8.56649 19.5068 7.60708 17.8625 7.12929C16.2182 6.6515 14.4685 6.67722 12.8389 7.20315C11.2094 7.72908 9.77474 8.7311 8.72 10.08C8.60404 9.87122 8.47373 9.67073 8.33 9.48C8.20127 9.31214 8.09065 9.13113 8 8.94C7.75268 8.41299 7.64918 7.82993 7.7 7.25C7.73627 6.83133 7.86247 6.42542 8.07 6.06C8.31134 5.52873 8.44069 4.95345 8.45 4.37C8.47 1.83 7.13 0 5.27 0C3.41 0 2.07 1.83 2.07 4.36C2.08302 4.94408 2.21575 5.51928 2.46 6.05C2.66312 6.42021 2.78579 6.82912 2.82 7.25C2.87407 7.82581 2.77398 8.40564 2.53 8.93C2.44207 9.11841 2.33836 9.29906 2.22 9.47C0.817551 11.5651 0.0469494 14.0192 0 16.54C0 22 2.72 24 5.27 24C6.11778 24.0015 6.95018 23.7736 7.67901 23.3405C8.40783 22.9074 9.00595 22.2853 9.41 21.54C9.61 21.73 9.82 21.92 10.03 22.09C11.5491 23.3286 13.45 24.0034 15.41 24C15.71 24 16.02 24 16.33 23.95C17.4536 23.8364 18.5436 23.502 19.5377 22.9662C20.5318 22.4304 21.4103 21.7036 22.1229 20.8275C22.8355 19.9514 23.3681 18.9432 23.6902 17.8609C24.0123 16.7785 24.1176 15.6432 24 14.52Z" fill="#4E2583"/>
<path d="M12.6302 11.8299C12.5191 11.7434 12.4366 11.6255 12.3935 11.4915C12.3504 11.3575 12.3488 11.2136 12.3887 11.0786C12.4287 10.9436 12.5084 10.8238 12.6175 10.7349C12.7265 10.6459 12.8599 10.5919 13.0002 10.5799H13.0802C13.2531 10.5833 13.4189 10.6489 13.5475 10.7645C13.676 10.8802 13.7586 11.0383 13.7802 11.2099C13.7971 11.3928 13.7434 11.5752 13.6302 11.7199C13.5717 11.7931 13.499 11.8539 13.4166 11.8986C13.3341 11.9432 13.2435 11.9709 13.1502 11.9799C13.0594 11.991 12.9674 11.9834 12.8797 11.9576C12.792 11.9318 12.7105 11.8883 12.6402 11.8299H12.6302ZM13.2302 12.6999C13.4238 12.6872 13.6127 12.6345 13.7848 12.5449C13.957 12.4554 14.1086 12.3311 14.2302 12.1799C14.379 11.9973 14.4805 11.7808 14.5255 11.5496C14.5706 11.3184 14.5578 11.0797 14.4883 10.8546C14.4189 10.6295 14.2949 10.4251 14.1274 10.2594C13.96 10.0938 13.7542 9.97211 13.5283 9.90516C13.3025 9.83822 13.0636 9.82809 12.8329 9.87569C12.6022 9.92329 12.3869 10.0271 12.206 10.178C12.0251 10.3289 11.8843 10.5221 11.796 10.7405C11.7078 10.9589 11.6749 11.1957 11.7002 11.4299C11.7128 11.6235 11.7656 11.8124 11.8551 11.9845C11.9446 12.1566 12.0689 12.3083 12.2202 12.4299C12.4742 12.6373 12.7922 12.7503 13.1202 12.7499H13.2702" fill="#4E2583"/>
<path d="M14.2499 15.75C14.1576 15.7607 14.0641 15.753 13.9748 15.7272C13.8855 15.7015 13.8022 15.6582 13.7299 15.6C13.5903 15.4803 13.5011 15.3125 13.4799 15.13C13.4601 14.9446 13.5141 14.7589 13.6301 14.6129C13.7461 14.467 13.9148 14.3725 14.0999 14.35H14.1799C14.3392 14.3492 14.4942 14.402 14.6199 14.5C14.7263 14.5888 14.8044 14.7068 14.8445 14.8395C14.8846 14.9721 14.8851 15.1137 14.8457 15.2466C14.8064 15.3795 14.729 15.498 14.6231 15.5874C14.5172 15.6769 14.3875 15.7334 14.2499 15.75ZM15.0699 13.94C14.9222 13.8178 14.7511 13.7273 14.567 13.674C14.383 13.6206 14.1899 13.6057 13.9999 13.63C13.6235 13.6703 13.2784 13.8582 13.0404 14.1525C12.8023 14.4468 12.6907 14.8235 12.7299 15.2C12.7443 15.3942 12.7989 15.5834 12.8901 15.7555C12.9813 15.9276 13.1072 16.0789 13.2599 16.2C13.51 16.4074 13.8249 16.5206 14.1499 16.52H14.3099C14.5027 16.5028 14.6901 16.4467 14.8607 16.355C15.0312 16.2632 15.1813 16.1378 15.302 15.9864C15.4226 15.8349 15.5112 15.6605 15.5624 15.4737C15.6136 15.287 15.6264 15.0918 15.5999 14.9C15.5854 14.7057 15.5308 14.5166 15.4396 14.3444C15.3484 14.1723 15.2225 14.021 15.0699 13.9" fill="#4E2583"/>
<path d="M10.26 14.7602C10.1677 14.771 10.0742 14.7632 9.98488 14.7375C9.89561 14.7117 9.81235 14.6685 9.73997 14.6102C9.59749 14.4916 9.50471 14.3239 9.47997 14.1402C9.46035 13.9533 9.51566 13.7662 9.63375 13.62C9.75185 13.4738 9.9231 13.3803 10.11 13.3602H10.18C10.3656 13.3496 10.5479 13.4132 10.6867 13.5369C10.8254 13.6607 10.9094 13.8345 10.92 14.0202C10.9306 14.2058 10.867 14.3881 10.7432 14.5269C10.6195 14.6657 10.4456 14.7496 10.26 14.7602ZM9.99997 12.6402C9.71954 12.6705 9.45434 12.7831 9.23773 12.9637C9.02112 13.1444 8.86277 13.3851 8.78261 13.6555C8.70244 13.9259 8.70404 14.214 8.7872 14.4835C8.87036 14.753 9.03136 14.992 9.24997 15.1702C9.50401 15.3776 9.82201 15.4907 10.15 15.4902H10.3C10.4871 15.4705 10.6685 15.4141 10.8339 15.3243C10.9992 15.2345 11.1453 15.113 11.2637 14.9668C11.3821 14.8205 11.4705 14.6524 11.5239 14.4719C11.5773 14.2915 11.5947 14.1023 11.575 13.9152C11.5553 13.7281 11.4989 13.5466 11.4091 13.3813C11.3193 13.2159 11.1978 13.0699 11.0515 12.9515C10.9053 12.8331 10.7371 12.7447 10.5567 12.6913C10.3763 12.6379 10.1871 12.6205 9.99997 12.6402Z" fill="#4E2583"/>
</g>
<defs>
<clipPath id="clip0">
<rect width="24" height="24" fill="white"/>
</clipPath>
</defs>
</svg>
