<svg width="24" height="24" viewBox="0 0 24 24" fill="none" xmlns="http://www.w3.org/2000/svg">
<path d="M15.5949 7.81033C14.3393 7.23701 12.9751 6.94029 11.5949 6.94029C10.2146 6.94029 8.85043 7.23701 7.59486 7.81033V5.33033C7.59486 5.09921 7.64038 4.87034 7.72883 4.65681C7.81728 4.44328 7.94692 4.24926 8.11035 4.08582C8.44041 3.75576 8.88808 3.57033 9.35486 3.57033H13.8449C14.3099 3.57297 14.755 3.75957 15.0829 4.08935C15.4108 4.41912 15.5949 4.86528 15.5949 5.33033V7.81033ZM15.9649 8.81033C16.0298 8.81033 16.0929 8.78928 16.1449 8.75033C16.2 8.71969 16.2459 8.6747 16.2776 8.62012C16.3092 8.56555 16.3256 8.50343 16.3249 8.44033V5.33033C16.3249 4.67167 16.0639 4.03984 15.5991 3.57316C15.1343 3.10648 14.5035 2.84298 13.8449 2.84033H9.35486C8.6962 2.84298 8.06543 3.10648 7.60062 3.57316C7.13582 4.03984 6.87485 4.67167 6.87486 5.33033V8.39033C6.87204 8.45262 6.88641 8.51449 6.9164 8.56917C6.94638 8.62384 6.99082 8.66922 7.04486 8.70033C7.09959 8.73193 7.16167 8.74856 7.22486 8.74856C7.28805 8.74856 7.35013 8.73193 7.40486 8.70033C8.69402 8.01141 10.1332 7.651 11.5949 7.651C13.0566 7.651 14.4957 8.01141 15.7849 8.70033C15.8441 8.71367 15.9056 8.71367 15.9649 8.70033" fill="#4E2583"/>
<path d="M11.595 23.2702C9.88887 23.2671 8.21957 22.7737 6.78593 21.8487C5.35229 20.9238 4.21472 19.6062 3.50871 18.053C2.80271 16.4998 2.55803 14.7764 2.80381 13.0881C3.04959 11.3997 3.77547 9.81762 4.89501 8.53017C4.94904 8.46205 4.97737 8.37708 4.97501 8.29017V4.73017C4.97501 3.6693 5.39643 2.65189 6.14658 1.90174C6.89672 1.1516 7.91414 0.730169 8.97501 0.730169H14.185C15.2459 0.730169 16.2633 1.1516 17.0134 1.90174C17.7636 2.65189 18.185 3.6693 18.185 4.73017V8.29017C18.1845 8.3785 18.2166 8.46392 18.275 8.53017C19.3989 9.81622 20.1286 11.3988 20.3767 13.0886C20.6248 14.7785 20.3809 16.504 19.6742 18.0589C18.9674 19.6137 17.8277 20.9321 16.3914 21.8563C14.9551 22.7805 13.283 23.2713 11.575 23.2702H11.595ZM18.975 8.15017V4.73017C18.975 4.10564 18.8514 3.48728 18.6112 2.91079C18.371 2.3343 18.019 1.81108 17.5755 1.37133C17.132 0.931584 16.6059 0.584012 16.0274 0.348673C15.4489 0.113334 14.8295 -0.00511231 14.205 0.00016915H8.97501C7.724 0.00545886 6.52604 0.506131 5.64331 1.39261C4.76059 2.27908 4.26499 3.47915 4.26501 4.73017V8.15017C3.08345 9.55168 2.32693 11.2616 2.0845 13.0786C1.84208 14.8956 2.12384 16.7441 2.89662 18.4063C3.6694 20.0686 4.90103 21.4755 6.44648 22.4613C7.99194 23.4471 9.7869 23.9708 11.62 23.9708C13.4531 23.9708 15.2481 23.4471 16.7935 22.4613C18.339 21.4755 19.5706 20.0686 20.3434 18.4063C21.1162 16.7441 21.3979 14.8956 21.1555 13.0786C20.9131 11.2616 20.1566 9.55168 18.975 8.15017Z" fill="#4E2583"/>
<path d="M18.3649 11.36C18.3439 11.3173 18.3147 11.2792 18.279 11.2478C18.2432 11.2164 18.2017 11.1923 18.1566 11.177C18.0657 11.1461 17.9661 11.1525 17.8799 11.195C17.7938 11.2374 17.7279 11.3123 17.697 11.4033C17.6661 11.4942 17.6725 11.5938 17.7149 11.68C18.1309 12.5299 18.3532 13.4615 18.3659 14.4077C18.3785 15.3539 18.1812 16.2911 17.7881 17.1518C17.395 18.0126 16.816 18.7755 16.0926 19.3855C15.3693 19.9956 14.5197 20.4377 13.6049 20.68C13.5112 20.7057 13.4313 20.7674 13.3826 20.8516C13.334 20.9358 13.3204 21.0358 13.3449 21.13C13.365 21.2075 13.4102 21.2761 13.4736 21.325C13.537 21.3739 13.6149 21.4003 13.6949 21.4H13.7949C14.8107 21.1298 15.754 20.638 16.5572 19.96C17.3604 19.2821 18.0035 18.4347 18.4404 17.4787C18.8773 16.5227 19.0971 15.4819 19.0841 14.4309C19.071 13.3799 18.8254 12.3448 18.3649 11.4" fill="#4E2583"/>
</svg>
