<svg width="24" height="24" viewBox="0 0 24 24" fill="none" xmlns="http://www.w3.org/2000/svg">
<g clip-path="url(#clip0)">
<path d="M20.5179 22.3226H2.48208C2.00846 22.3201 1.55509 22.1336 1.22108 21.8039C0.887069 21.4741 0.699577 21.028 0.699583 20.5629V6.06251H22.3004V20.5629C22.3004 21.028 22.1129 21.4741 21.7789 21.8039C21.4449 22.1336 20.9915 22.3201 20.5179 22.3226ZM2.48208 3.01375H2.68333C2.7646 3.39146 2.97554 3.73028 3.28083 3.97352C3.58613 4.21676 3.96726 4.34965 4.36042 4.34994C4.45279 4.34749 4.54053 4.30973 4.60497 4.2447C4.66941 4.17967 4.70545 4.09251 4.70542 4.00178C4.70542 3.95729 4.69649 3.91324 4.67915 3.87214C4.66182 3.83104 4.6364 3.7937 4.60437 3.76224C4.57233 3.73079 4.5343 3.70584 4.49244 3.68881C4.45058 3.67179 4.40572 3.66303 4.36042 3.66303C4.15184 3.66568 3.94758 3.60463 3.7759 3.48831C3.60421 3.37199 3.47358 3.20616 3.40208 3.01375H7.23542C7.31561 3.38677 7.52231 3.72203 7.82172 3.96474C8.12113 4.20745 8.49555 4.34325 8.88375 4.34994C8.97703 4.34756 9.06581 4.31011 9.13179 4.24533C9.19777 4.18055 9.23591 4.09337 9.23833 4.00178C9.23584 3.91108 9.19738 3.82492 9.13115 3.76165C9.06492 3.69838 8.97615 3.66299 8.88375 3.66303C8.67518 3.66568 8.47092 3.60463 8.29923 3.48831C8.12754 3.37199 7.99692 3.20616 7.92542 3.01375H12.075C12.1559 3.38988 12.3654 3.72751 12.6688 3.97057C12.9721 4.21364 13.351 4.3475 13.7425 4.34994C13.8365 4.34994 13.9267 4.31326 13.9932 4.24797C14.0597 4.18267 14.0971 4.09412 14.0971 4.00178C14.0971 3.95649 14.0879 3.91166 14.0699 3.86993C14.052 3.82821 14.0257 3.79044 13.9927 3.75886C13.9596 3.72727 13.9204 3.70252 13.8775 3.68606C13.8345 3.6696 13.7886 3.66177 13.7425 3.66303C13.5339 3.66568 13.3297 3.60463 13.158 3.48831C12.9863 3.37199 12.8557 3.20616 12.7842 3.01375H16.9338C17.015 3.39146 17.226 3.73028 17.5312 3.97352C17.8365 4.21676 18.2177 4.34965 18.6108 4.34994C18.7032 4.34749 18.7909 4.30973 18.8554 4.2447C18.9198 4.17967 18.9559 4.09251 18.9558 4.00178C18.9558 3.91194 18.9195 3.82577 18.8548 3.76224C18.7901 3.69872 18.7023 3.66303 18.6108 3.66303C18.4023 3.66568 18.198 3.60463 18.0263 3.48831C17.8546 3.37199 17.724 3.20616 17.6525 3.01375H20.47C20.7077 3.00876 20.9441 3.05027 21.1654 3.13587C21.3866 3.22147 21.5883 3.34944 21.7586 3.51234C21.929 3.67524 22.0646 3.8698 22.1577 4.08468C22.2507 4.29957 22.2992 4.53048 22.3004 4.76397V5.3756H0.699583V4.76397C0.702101 4.30054 0.890707 3.85681 1.22445 3.52911C1.55819 3.20142 2.01011 3.01623 2.48208 3.01375ZM4.39875 1.68698C4.60773 1.67627 4.81454 1.73302 4.98758 1.84856C5.16063 1.9641 5.2904 2.13208 5.35708 2.32684H3.44042C3.5071 2.13208 3.63687 1.9641 3.80992 1.84856C3.98296 1.73302 4.18977 1.67627 4.39875 1.68698ZM8.92208 1.68698C9.12921 1.68498 9.33201 1.74519 9.5033 1.85956C9.67458 1.97393 9.80617 2.13697 9.88042 2.32684H7.96375C8.03043 2.13208 8.1602 1.9641 8.33325 1.84856C8.5063 1.73302 8.7131 1.67627 8.92208 1.68698ZM13.8 1.68698C14.009 1.67627 14.2158 1.73302 14.3888 1.84856C14.5619 1.9641 14.6917 2.13208 14.7583 2.32684H12.8417C12.9083 2.13208 13.0381 1.9641 13.2112 1.84856C13.3842 1.73302 13.591 1.67627 13.8 1.68698ZM18.6875 1.68698C18.8965 1.67627 19.1033 1.73302 19.2763 1.84856C19.4494 1.9641 19.5792 2.13208 19.6458 2.32684H17.7292C17.7958 2.13208 17.9256 1.9641 18.0987 1.84856C18.2717 1.73302 18.4785 1.67627 18.6875 1.68698ZM20.5562 2.32684H20.3167C20.2389 1.9476 20.0299 1.60647 19.725 1.3614C19.4202 1.11633 19.0384 0.982422 18.6444 0.982422C18.2504 0.982422 17.8686 1.11633 17.5637 1.3614C17.2589 1.60647 17.0498 1.9476 16.9721 2.32684H15.4388C15.361 1.9476 15.152 1.60647 14.8471 1.3614C14.5423 1.11633 14.1604 0.982422 13.7665 0.982422C13.3725 0.982422 12.9906 1.11633 12.6858 1.3614C12.381 1.60647 12.1719 1.9476 12.0942 2.32684H10.5417C10.4595 1.95255 10.2491 1.61722 9.94572 1.3767C9.6423 1.13618 9.26412 1.00499 8.87417 1.00499C8.48421 1.00499 8.10603 1.13618 7.80261 1.3767C7.4992 1.61722 7.28887 1.95255 7.20667 2.32684H6.02792C5.95017 1.9476 5.74113 1.60647 5.43629 1.3614C5.13145 1.11633 4.74961 0.982422 4.35563 0.982422C3.96164 0.982422 3.5798 1.11633 3.27496 1.3614C2.97012 1.60647 2.76108 1.9476 2.68333 2.32684H2.48208C1.82457 2.32932 1.19471 2.58688 0.729774 3.0434C0.264839 3.49991 0.00252407 4.11836 0 4.76397L0 20.5629C0 21.2093 0.261504 21.8292 0.726985 22.2863C1.19247 22.7433 1.82379 23.0001 2.48208 23.0001H20.5179C21.1762 23.0001 21.8075 22.7433 22.273 22.2863C22.7385 21.8292 23 21.2093 23 20.5629V4.76397C23 4.11673 22.7388 3.49587 22.2736 3.03732C21.8084 2.57878 21.1771 2.31992 20.5179 2.31743" fill="#4E2583"/>
<path d="M15.0555 10.1183H13.0238V8.12344H15.0555V10.1183ZM15.4101 7.43652H12.6692C12.5777 7.43652 12.49 7.47221 12.4253 7.53574C12.3606 7.59927 12.3242 7.68543 12.3242 7.77527V10.4665C12.3242 10.5563 12.3606 10.6425 12.4253 10.706C12.49 10.7695 12.5777 10.8052 12.6692 10.8052H15.4101C15.5016 10.8052 15.5893 10.7695 15.654 10.706C15.7187 10.6425 15.7551 10.5563 15.7551 10.4665V7.77527C15.7551 7.68543 15.7187 7.59927 15.654 7.53574C15.5893 7.47221 15.5016 7.43652 15.4101 7.43652Z" fill="#4E2583"/>
<path d="M20.125 10.1183H18.1029V8.12344H20.125V10.1183ZM20.47 7.43652H17.7483C17.6568 7.43652 17.5691 7.47221 17.5044 7.53574C17.4397 7.59927 17.4033 7.68543 17.4033 7.77527V10.4665C17.4033 10.5563 17.4397 10.6425 17.5044 10.706C17.5691 10.7695 17.6568 10.8052 17.7483 10.8052H20.4892C20.5807 10.8052 20.6684 10.7695 20.7331 10.706C20.7978 10.6425 20.8342 10.5563 20.8342 10.4665V7.77527C20.8342 7.68543 20.7978 7.59927 20.7331 7.53574C20.6684 7.47221 20.5807 7.43652 20.4892 7.43652" fill="#4E2583"/>
<path d="M4.89727 15.2556H2.87518V13.2325H4.89727V15.2556ZM5.25185 12.5645H2.51102C2.41865 12.5669 2.3309 12.6047 2.26646 12.6697C2.20202 12.7347 2.16598 12.8219 2.16602 12.9126V15.5944C2.16598 15.6851 2.20202 15.7723 2.26646 15.8373C2.3309 15.9023 2.41865 15.9401 2.51102 15.9426H5.25185C5.34422 15.9401 5.43197 15.9023 5.4964 15.8373C5.56084 15.7723 5.59688 15.6851 5.59685 15.5944V12.9126C5.59688 12.8219 5.56084 12.7347 5.4964 12.6697C5.43197 12.6047 5.34422 12.5669 5.25185 12.5645Z" fill="#4E2583"/>
<path d="M9.97637 15.2556H7.9447V13.2325H9.97637V15.2556ZM10.331 12.5645H7.59012C7.49775 12.5669 7.41 12.6047 7.34556 12.6697C7.28112 12.7347 7.24508 12.8219 7.24512 12.9126V15.5944C7.24508 15.6851 7.28112 15.7723 7.34556 15.8373C7.41 15.9023 7.49775 15.9401 7.59012 15.9426H10.331C10.4233 15.9401 10.5111 15.9023 10.5755 15.8373C10.6399 15.7723 10.676 15.6851 10.676 15.5944V12.9126C10.676 12.8219 10.6399 12.7347 10.5755 12.6697C10.5111 12.6047 10.4233 12.5669 10.331 12.5645Z" fill="#4E2583"/>
<path d="M15.0555 15.2556H13.0238V13.2325H15.0555V15.2556ZM15.4101 12.5645H12.6692C12.5768 12.5669 12.4891 12.6047 12.4247 12.6697C12.3602 12.7347 12.3242 12.8219 12.3242 12.9126V15.5944C12.3242 15.6851 12.3602 15.7723 12.4247 15.8373C12.4891 15.9023 12.5768 15.9401 12.6692 15.9426H15.4101C15.5024 15.9401 15.5902 15.9023 15.6546 15.8373C15.719 15.7723 15.7551 15.6851 15.7551 15.5944V12.9126C15.7551 12.8219 15.719 12.7347 15.6546 12.6697C15.5902 12.6047 15.5024 12.5669 15.4101 12.5645Z" fill="#4E2583"/>
<path d="M20.125 15.2556H18.1029V13.2325H20.125V15.2556ZM20.47 12.5645H17.7483C17.656 12.5669 17.5682 12.6047 17.5038 12.6697C17.4393 12.7347 17.4033 12.8219 17.4033 12.9126V15.5944C17.4033 15.6851 17.4393 15.7723 17.5038 15.8373C17.5682 15.9023 17.656 15.9401 17.7483 15.9426H20.4892C20.5815 15.9401 20.6693 15.9023 20.7337 15.8373C20.7981 15.7723 20.8342 15.6851 20.8342 15.5944V12.9126C20.8342 12.8219 20.7981 12.7347 20.7337 12.6697C20.6693 12.6047 20.5815 12.5669 20.4892 12.5645" fill="#4E2583"/>
<path d="M4.89727 20.3839H2.87518V18.3891H4.89727V20.3839ZM5.25185 17.7021H2.51102C2.41952 17.7021 2.33176 17.7378 2.26706 17.8014C2.20236 17.8649 2.16602 17.9511 2.16602 18.0409V20.7603C2.16602 20.8502 2.20236 20.9363 2.26706 20.9999C2.33176 21.0634 2.41952 21.0991 2.51102 21.0991H5.25185C5.34335 21.0991 5.4311 21.0634 5.4958 20.9999C5.5605 20.9363 5.59685 20.8502 5.59685 20.7603V18.0409C5.59685 17.9511 5.5605 17.8649 5.4958 17.8014C5.4311 17.7378 5.34335 17.7021 5.25185 17.7021Z" fill="#4E2583"/>
<path d="M9.97637 20.3839H7.9447V18.3891H9.97637V20.3839ZM10.331 17.7021H7.59012C7.49862 17.7021 7.41087 17.7378 7.34617 17.8014C7.28147 17.8649 7.24512 17.9511 7.24512 18.0409V20.7603C7.24512 20.8502 7.28147 20.9363 7.34617 20.9999C7.41087 21.0634 7.49862 21.0991 7.59012 21.0991H10.331C10.4225 21.0991 10.5102 21.0634 10.5749 20.9999C10.6396 20.9363 10.676 20.8502 10.676 20.7603V18.0409C10.676 17.9511 10.6396 17.8649 10.5749 17.8014C10.5102 17.7378 10.4225 17.7021 10.331 17.7021Z" fill="#4E2583"/>
<path d="M15.0555 20.3839H13.0238V18.3891H15.0555V20.3839ZM15.4101 17.7021H12.6692C12.5777 17.7021 12.49 17.7378 12.4253 17.8014C12.3606 17.8649 12.3242 17.9511 12.3242 18.0409V20.7603C12.3242 20.8502 12.3606 20.9363 12.4253 20.9999C12.49 21.0634 12.5777 21.0991 12.6692 21.0991H15.4101C15.5016 21.0991 15.5893 21.0634 15.654 20.9999C15.7187 20.9363 15.7551 20.8502 15.7551 20.7603V18.0409C15.7551 17.9511 15.7187 17.8649 15.654 17.8014C15.5893 17.7378 15.5016 17.7021 15.4101 17.7021Z" fill="#4E2583"/>
<path d="M14.0398 14.5972C14.1103 14.5972 14.1792 14.5765 14.2377 14.5378C14.2962 14.4991 14.3416 14.4442 14.3682 14.38C14.3947 14.3158 14.4012 14.2454 14.3867 14.1776C14.3722 14.1098 14.3375 14.0478 14.2869 13.9995C14.2364 13.9512 14.1723 13.9188 14.1029 13.9065C14.0335 13.8941 13.9619 13.9024 13.8973 13.9302C13.8327 13.958 13.778 14.004 13.7402 14.0625C13.7024 14.121 13.6833 14.1892 13.6852 14.2584C13.6877 14.3491 13.7261 14.4353 13.7924 14.4986C13.8586 14.5618 13.9474 14.5972 14.0398 14.5972Z" fill="#4E2583"/>
<path d="M3.88144 19.7349C3.928 19.7349 3.97411 19.7259 4.01713 19.7084C4.06015 19.6909 4.09924 19.6653 4.13217 19.6329C4.16509 19.6006 4.19121 19.5622 4.20903 19.52C4.22685 19.4777 4.23602 19.4325 4.23602 19.3867C4.23602 19.341 4.22685 19.2957 4.20903 19.2535C4.19121 19.2113 4.16509 19.1729 4.13217 19.1405C4.09924 19.1082 4.06015 19.0826 4.01713 19.0651C3.97411 19.0476 3.928 19.0386 3.88144 19.0386C3.83487 19.0386 3.78877 19.0476 3.74575 19.0651C3.70273 19.0826 3.66364 19.1082 3.63071 19.1405C3.59778 19.1729 3.57167 19.2113 3.55385 19.2535C3.53603 19.2957 3.52686 19.341 3.52686 19.3867C3.52686 19.4325 3.53603 19.4777 3.55385 19.52C3.57167 19.5622 3.59778 19.6006 3.63071 19.6329C3.66364 19.6653 3.70273 19.6909 3.74575 19.7084C3.78877 19.7259 3.83487 19.7349 3.88144 19.7349Z" fill="#4E2583"/>
</g>
<defs>
<clipPath id="clip0">
<rect width="23" height="22" fill="white" transform="translate(0 1)"/>
</clipPath>
</defs>
</svg>
