<svg width="24" height="24" viewBox="0 0 24 24" fill="none" xmlns="http://www.w3.org/2000/svg">
<path d="M11.975 23.27C10.1356 23.27 8.33758 22.7246 6.8082 21.7027C5.27882 20.6808 4.08682 19.2283 3.38292 17.529C2.67903 15.8296 2.49486 13.9597 2.8537 12.1557C3.21254 10.3516 4.09828 8.69454 5.39891 7.39391C6.69954 6.09328 8.35664 5.20754 10.1607 4.8487C11.9647 4.48985 13.8346 4.67403 15.534 5.37792C17.2333 6.08182 18.6858 7.27382 19.7077 8.8032C20.7296 10.3326 21.275 12.1306 21.275 13.97C21.2724 16.4357 20.2917 18.7997 18.5482 20.5432C16.8047 22.2867 14.4407 23.2674 11.975 23.27ZM5.715 5.69C5.66882 5.62381 5.63696 5.54871 5.62146 5.4695C5.60597 5.39029 5.60717 5.30872 5.625 5.23C5.65624 5.09051 5.73327 4.96548 5.84383 4.87486C5.95438 4.78425 6.09209 4.73325 6.235 4.73H6.355C6.51111 4.76903 6.64678 4.86543 6.735 5L6.975 5.32C6.62842 5.52655 6.2945 5.75362 5.975 6L5.715 5.69ZM11.155 2.93H12.845V4C12.565 4 12.275 4 11.975 4C11.685 4 11.405 4 11.125 4L11.155 2.93ZM9.975 2.21C10.0503 1.79336 10.27 1.41659 10.5955 1.14591C10.9211 0.875225 11.3316 0.727961 11.755 0.73H12.245C12.6679 0.729921 13.0774 0.877894 13.4025 1.14824C13.7277 1.41858 13.9479 1.79423 14.025 2.21H9.975ZM17.265 5C17.3595 4.8692 17.4979 4.77688 17.655 4.74C17.7367 4.72479 17.8206 4.72672 17.9016 4.74565C17.9825 4.76459 18.0585 4.80012 18.125 4.85C18.1916 4.89268 18.2489 4.94831 18.2936 5.01359C18.3383 5.07887 18.3694 5.15247 18.385 5.23C18.4164 5.3892 18.384 5.55435 18.295 5.69L18.085 6C17.7656 5.75047 17.4317 5.52006 17.085 5.31L17.265 5ZM18.645 6.47L18.905 6.09C19.0964 5.79423 19.1646 5.43536 19.095 5.09C19.027 4.73549 18.8219 4.42213 18.5242 4.21803C18.2264 4.01393 17.8602 3.93558 17.505 4C17.3335 4.03271 17.1705 4.10014 17.0261 4.19817C16.8816 4.29619 16.7587 4.42273 16.665 4.57L16.415 5C15.5179 4.56167 14.5609 4.25839 13.575 4.1V2.93H14.415C14.5149 2.92487 14.6091 2.88153 14.6779 2.80893C14.7468 2.73634 14.7851 2.64006 14.785 2.54C14.785 1.86635 14.5174 1.22029 14.0411 0.743949C13.5647 0.267606 12.9187 0 12.245 0L11.755 0C11.4201 0.00261616 11.089 0.0711676 10.7807 0.20174C10.4723 0.332312 10.1926 0.522348 9.95771 0.760997C9.72278 0.999646 9.53715 1.28223 9.41143 1.59262C9.28572 1.90301 9.22237 2.23513 9.225 2.57C9.225 2.66548 9.26293 2.75705 9.33044 2.82456C9.39796 2.89207 9.48952 2.93 9.585 2.93H10.435V4.07C9.4471 4.236 8.48974 4.5495 7.595 5L7.345 4.6C7.2475 4.45152 7.12102 4.32424 6.97316 4.2258C6.8253 4.12735 6.65908 4.05977 6.48448 4.02709C6.30987 3.99441 6.13047 3.99731 5.95701 4.03561C5.78355 4.07391 5.61961 4.14683 5.475 4.25C5.32773 4.34374 5.20119 4.46662 5.10317 4.61108C5.00515 4.75553 4.93771 4.91852 4.905 5.09C4.86979 5.26159 4.86935 5.4385 4.9037 5.61026C4.93805 5.78202 5.0065 5.94515 5.105 6.09L5.355 6.47C3.83971 7.81742 2.76983 9.59367 2.28729 11.5631C1.80474 13.5326 1.93232 15.6022 2.65311 17.4975C3.3739 19.3928 4.65383 21.0242 6.32314 22.1753C7.99246 23.3264 9.97228 23.9429 12 23.9429C14.0277 23.9429 16.0075 23.3264 17.6769 22.1753C19.3462 21.0242 20.6261 19.3928 21.3469 17.4975C22.0677 15.6022 22.1953 13.5326 21.7127 11.5631C21.2302 9.59367 20.1603 7.81742 18.645 6.47Z" fill="#4E2583"/>
<path d="M12.365 21.1602V19.3902C12.3679 19.3383 12.3598 19.2863 12.3412 19.2376C12.3226 19.189 12.294 19.1448 12.2572 19.108C12.2204 19.0712 12.1762 19.0426 12.1276 19.024C12.079 19.0054 12.027 18.9973 11.975 19.0002C11.8777 19.0028 11.785 19.0426 11.7162 19.1114C11.6473 19.1802 11.6075 19.2729 11.605 19.3702V21.1402C9.82515 21.0508 8.14195 20.3035 6.88183 19.0434C5.6217 17.7833 4.87445 16.1001 4.78499 14.3202H6.58499C6.67789 14.3238 6.76888 14.2933 6.84075 14.2343C6.91262 14.1753 6.96038 14.092 6.97499 14.0002C6.97238 13.9038 6.93225 13.8123 6.86315 13.745C6.79404 13.6778 6.70141 13.6402 6.60499 13.6402H4.81499C4.89703 11.8541 5.64074 10.1624 6.90137 8.89433C8.162 7.62631 9.84935 6.87271 11.635 6.78023V8.56023C11.6376 8.65662 11.6777 8.74818 11.7468 8.81542C11.8159 8.88266 11.9086 8.92026 12.005 8.92023C12.1005 8.92023 12.192 8.8823 12.2595 8.81479C12.3271 8.74727 12.365 8.65571 12.365 8.56023V6.78023C14.1467 6.8719 15.8312 7.62092 17.0928 8.88246C18.3543 10.144 19.1033 11.8285 19.195 13.6102H17.415C17.3195 13.6102 17.2279 13.6482 17.1604 13.7157C17.0929 13.7832 17.055 13.8748 17.055 13.9702C17.055 14.0667 17.0926 14.1593 17.1598 14.2284C17.227 14.2975 17.3186 14.3376 17.415 14.3402H19.195C19.1031 16.121 18.3538 17.8042 17.092 19.0642C15.8302 20.3241 14.1458 21.071 12.365 21.1602ZM11.975 6.00023C10.4098 6.0121 8.883 6.48634 7.5865 7.36333C6.29001 8.24033 5.28165 9.48097 4.68814 10.9293C4.09464 12.3777 3.94246 13.9692 4.25073 15.5038C4.55901 17.0384 5.31399 18.4476 6.42079 19.5544C7.52759 20.6612 8.93684 21.4162 10.4714 21.7245C12.006 22.0328 13.5975 21.8806 15.0459 21.2871C16.4942 20.6936 17.7349 19.6852 18.6119 18.3887C19.4889 17.0922 19.9631 15.5654 19.975 14.0002C19.983 12.9474 19.7815 11.9035 19.3823 10.9293C18.9831 9.95513 18.3941 9.07004 17.6496 8.32557C16.9052 7.58111 16.0201 6.99213 15.0459 6.59293C14.0717 6.19372 13.0278 5.99224 11.975 6.00023Z" fill="#4E2583"/>
<path d="M11.9749 14.5302C11.8642 14.5302 11.7559 14.4974 11.6638 14.4358C11.5717 14.3743 11.4999 14.2869 11.4575 14.1845C11.4152 14.0822 11.4041 13.9696 11.4257 13.861C11.4473 13.7523 11.5006 13.6526 11.5789 13.5742C11.6573 13.4959 11.757 13.4426 11.8657 13.421C11.9743 13.3994 12.0869 13.4105 12.1892 13.4529C12.2916 13.4952 12.379 13.567 12.4405 13.6591C12.5021 13.7512 12.5349 13.8595 12.5349 13.9702C12.5349 14.1187 12.4759 14.2612 12.3709 14.3662C12.2659 14.4712 12.1234 14.5302 11.9749 14.5302ZM14.6049 10.1702L12.4749 12.7902C12.317 12.7226 12.1467 12.6886 11.9749 12.6902C11.7215 12.6942 11.4749 12.7727 11.2659 12.9159C11.0568 13.0592 10.8946 13.2609 10.7995 13.4957C10.7043 13.7306 10.6804 13.9883 10.7309 14.2367C10.7813 14.485 10.9037 14.713 11.0829 14.8922C11.2621 15.0714 11.4901 15.1939 11.7385 15.2443C11.9868 15.2947 12.2445 15.2708 12.4794 15.1757C12.7143 15.0805 12.9159 14.9183 13.0592 14.7093C13.2025 14.5002 13.281 14.2536 13.2849 14.0002C13.2873 13.7433 13.2105 13.4919 13.0649 13.2802L15.1949 10.6602C15.2559 10.586 15.2849 10.4905 15.2755 10.3949C15.2662 10.2992 15.2192 10.2112 15.1449 10.1502C15.0707 10.0892 14.9752 10.0602 14.8796 10.0696C14.7839 10.079 14.6959 10.126 14.6349 10.2002" fill="#4E2583"/>
</svg>
