<svg width="24" height="24" viewBox="0 0 24 24" fill="none" xmlns="http://www.w3.org/2000/svg">
<path d="M22.2942 21.6216C22.2942 21.7122 22.276 21.8019 22.2408 21.8855C22.2055 21.9691 22.1538 22.0449 22.0888 22.1086C22.0237 22.1722 21.9465 22.2224 21.8617 22.2562C21.7769 22.29 21.6862 22.3068 21.5948 22.3055H1.39031C1.20737 22.3055 1.03193 22.2335 0.902569 22.1052C0.773212 21.9769 0.70054 21.803 0.70054 21.6216V20.9281H22.2942V21.6216ZM2.31958 17.8217H20.6751L22.0355 20.2346H0.959204L2.31958 17.8217ZM22.9935 20.5861C23.0022 20.5486 23.0022 20.5096 22.9935 20.4721L21.2691 17.4417V5.37728C21.2692 5.19233 21.2318 5.00924 21.159 4.83895C21.0862 4.66866 20.9796 4.51465 20.8455 4.3861C20.7113 4.25755 20.5525 4.1571 20.3784 4.09074C20.2043 4.02438 20.0185 3.99346 19.8321 3.99984H12.2255C12.1794 3.99857 12.1335 4.00648 12.0905 4.0231C12.0476 4.03971 12.0084 4.0647 11.9754 4.09659C11.9423 4.12847 11.9161 4.1666 11.8981 4.20872C11.8802 4.25085 11.871 4.29611 11.871 4.34183C11.871 4.43505 11.9083 4.52445 11.9748 4.59036C12.0413 4.65628 12.1314 4.69331 12.2255 4.69331H19.8321C20.0159 4.69329 20.1924 4.76505 20.3232 4.89305C20.4541 5.02106 20.5289 5.19501 20.5314 5.37728V17.1283H2.46329V5.37728C2.4658 5.19501 2.5406 5.02106 2.67148 4.89305C2.80236 4.76505 2.97881 4.69329 3.16264 4.69331C3.25498 4.69084 3.34269 4.65271 3.40711 4.58706C3.47153 4.52142 3.50756 4.43342 3.50752 4.34183C3.50752 4.25113 3.47119 4.16414 3.40651 4.10001C3.34183 4.03587 3.25411 3.99984 3.16264 3.99984C2.79422 3.99984 2.44089 4.14497 2.18038 4.40328C1.91987 4.6616 1.77352 5.01196 1.77352 5.37728V17.3847L0.0490906 20.4151C0.0444754 20.453 0.0444754 20.4912 0.0490906 20.5291H0.00118985V21.5646C-0.0065631 21.7502 0.023634 21.9354 0.0899643 22.1092C0.156295 22.283 0.257387 22.4416 0.387159 22.5756C0.516932 22.7096 0.672701 22.8162 0.845097 22.889C1.01749 22.9617 1.20295 22.9991 1.39031 22.999H21.5948C21.7781 23.0002 21.9597 22.9655 22.1294 22.8969C22.299 22.8282 22.4533 22.727 22.5833 22.5989C22.7133 22.4709 22.8165 22.3186 22.8869 22.1509C22.9573 21.9831 22.9935 21.8032 22.9935 21.6216V20.5861Z" fill="#4E2583"/>
<path d="M4.75125 13.8501H19.2413V15.6701H4.75125V13.8501ZM4.75125 16.3901H19.2413C19.3366 16.3914 19.4313 16.3738 19.5199 16.3382C19.6084 16.3026 19.6889 16.2498 19.7568 16.1828C19.8248 16.1158 19.8787 16.036 19.9155 15.948C19.9523 15.86 19.9713 15.7655 19.9712 15.6701V13.8501C19.9712 13.6565 19.8943 13.4708 19.7574 13.3339C19.6205 13.197 19.4349 13.1201 19.2413 13.1201H4.75125C4.55938 13.1227 4.37626 13.2008 4.24151 13.3374C4.10677 13.4741 4.03123 13.6582 4.03125 13.8501V15.6701C4.03125 15.8611 4.10711 16.0442 4.24213 16.1792C4.37716 16.3143 4.56029 16.3901 4.75125 16.3901Z" fill="#4E2583"/>
<path d="M11.3815 14.3901C11.2851 14.3927 11.1935 14.4329 11.1263 14.502C11.0591 14.5711 11.0214 14.6637 11.0215 14.7601C11.0215 14.8556 11.0594 14.9472 11.1269 15.0147C11.1944 15.0822 11.286 15.1201 11.3815 15.1201C11.4779 15.1202 11.5705 15.0826 11.6396 15.0153C11.7087 14.9481 11.7489 14.8565 11.7515 14.7601C11.749 14.6628 11.7092 14.5702 11.6403 14.5013C11.5715 14.4325 11.4788 14.3927 11.3815 14.3901Z" fill="#4E2583"/>
<path d="M9.64148 14.3901C9.54335 14.3901 9.44924 14.4291 9.37985 14.4985C9.31047 14.5679 9.27148 14.662 9.27148 14.7601C9.28584 14.8466 9.33041 14.9251 9.39725 14.9818C9.46409 15.0384 9.54886 15.0695 9.63648 15.0695C9.7241 15.0695 9.80888 15.0384 9.87572 14.9818C9.94256 14.9251 9.98713 14.8466 10.0015 14.7601C10.0015 14.6637 9.96391 14.5711 9.89667 14.502C9.82943 14.4329 9.73787 14.3927 9.64148 14.3901Z" fill="#4E2583"/>
<path d="M7.89148 14.3901C7.79335 14.3901 7.69924 14.4291 7.62985 14.4985C7.56047 14.5679 7.52148 14.662 7.52148 14.7601C7.53584 14.8466 7.58041 14.9251 7.64725 14.9818C7.71409 15.0384 7.79886 15.0695 7.88648 15.0695C7.97411 15.0695 8.05888 15.0384 8.12572 14.9818C8.19256 14.9251 8.23713 14.8466 8.25148 14.7601C8.25152 14.6637 8.21391 14.5711 8.14667 14.502C8.07943 14.4329 7.98787 14.3927 7.89148 14.3901Z" fill="#4E2583"/>
<path d="M6.14148 14.3901C6.04415 14.3927 5.9515 14.4325 5.88266 14.5013C5.81381 14.5702 5.77401 14.6628 5.77148 14.7601C5.77409 14.8565 5.81422 14.9481 5.88333 15.0153C5.95244 15.0826 6.04506 15.1202 6.14148 15.1201C6.23696 15.1201 6.32853 15.0822 6.39604 15.0147C6.46356 14.9472 6.50148 14.8556 6.50148 14.7601C6.50152 14.6637 6.46391 14.5711 6.39667 14.502C6.32943 14.4329 6.23787 14.3927 6.14148 14.3901Z" fill="#4E2583"/>
<path d="M13.1315 14.3901C13.0351 14.3927 12.9435 14.4329 12.8763 14.502C12.8091 14.5711 12.7714 14.6637 12.7715 14.7601C12.7715 14.8556 12.8094 14.9472 12.8769 15.0147C12.9444 15.0822 13.036 15.1201 13.1315 15.1201C13.2279 15.1202 13.3205 15.0826 13.3896 15.0153C13.4587 14.9481 13.4989 14.8565 13.5015 14.7601C13.499 14.6628 13.4592 14.5702 13.3903 14.5013C13.3215 14.4325 13.2288 14.3927 13.1315 14.3901Z" fill="#4E2583"/>
<path d="M14.6215 14.4998C14.5581 14.5717 14.5226 14.664 14.5215 14.7598C14.5222 14.8528 14.5579 14.942 14.6215 15.0098C14.6551 15.0449 14.6954 15.0729 14.7401 15.0919C14.7848 15.111 14.8329 15.1208 14.8815 15.1208C14.9301 15.1208 14.9782 15.111 15.0228 15.0919C15.0675 15.0729 15.1079 15.0449 15.1415 15.0098C15.205 14.942 15.2407 14.8528 15.2415 14.7598C15.2404 14.664 15.2049 14.5717 15.1415 14.4998C15.071 14.4338 14.9781 14.397 14.8815 14.397C14.7849 14.397 14.6919 14.4338 14.6215 14.4998Z" fill="#4E2583"/>
<path d="M13.8712 11.6699H16.7012C16.7976 11.6673 16.8892 11.6272 16.9564 11.5581C17.0237 11.489 17.0613 11.3964 17.0612 11.2999C17.0612 11.2045 17.0233 11.1129 16.9558 11.0454C16.8883 10.9779 16.7967 10.9399 16.7012 10.9399H13.8712C13.7758 10.9399 13.6842 10.9779 13.6167 11.0454C13.5492 11.1129 13.5112 11.2045 13.5112 11.2999C13.5112 11.3964 13.5488 11.489 13.616 11.5581C13.6833 11.6272 13.7748 11.6673 13.8712 11.6699Z" fill="#4E2583"/>
<path d="M13.8712 9.47976H19.6112C19.7067 9.47976 19.7983 9.44184 19.8658 9.37432C19.9333 9.30681 19.9712 9.21524 19.9712 9.11977C19.9712 9.02429 19.9333 8.93272 19.8658 8.86521C19.7983 8.79769 19.7067 8.75977 19.6112 8.75977H13.8712C13.7758 8.75977 13.6842 8.79769 13.6167 8.86521C13.5492 8.93272 13.5112 9.02429 13.5112 9.11977C13.5112 9.21524 13.5492 9.30681 13.6167 9.37432C13.6842 9.44184 13.7758 9.47976 13.8712 9.47976Z" fill="#4E2583"/>
<path d="M13.8712 7.29982H19.6112C19.661 7.30398 19.711 7.29776 19.7582 7.28154C19.8054 7.26532 19.8487 7.23946 19.8854 7.20561C19.9221 7.17175 19.9513 7.13064 19.9713 7.08489C19.9912 7.03913 20.0014 6.98973 20.0012 6.93982C20.0013 6.8434 19.9637 6.75078 19.8964 6.68167C19.8292 6.61256 19.7376 6.57243 19.6412 6.56982H13.8712C13.7748 6.57243 13.6833 6.61256 13.616 6.68167C13.5488 6.75078 13.5112 6.8434 13.5112 6.93982C13.5112 7.0353 13.5492 7.12687 13.6167 7.19438C13.6842 7.2619 13.7758 7.29982 13.8712 7.29982Z" fill="#4E2583"/>
<path d="M8.00146 4.38992C8.65183 4.38199 9.28987 4.5676 9.8345 4.92315C10.3791 5.27871 10.8058 5.78816 11.0602 6.38676C11.3146 6.98536 11.3852 7.64608 11.2632 8.28495C11.1412 8.92382 10.832 9.51199 10.375 9.97472C9.91788 10.4374 9.33354 10.7538 8.69622 10.8837C8.05889 11.0135 7.39735 10.9509 6.79568 10.7039C6.194 10.4569 5.67936 10.0365 5.31714 9.49628C4.95493 8.95606 4.76151 8.32034 4.76147 7.66992C4.7614 6.8069 5.10148 5.97862 5.70797 5.36464C6.31446 4.75066 7.13851 4.40045 8.00146 4.38992ZM8.00146 11.6699C8.79259 11.6699 9.56595 11.4353 10.2237 10.9958C10.8815 10.5563 11.3942 9.93156 11.697 9.20066C11.9997 8.46975 12.0789 7.66549 11.9246 6.88956C11.7703 6.11364 11.3893 5.40091 10.8299 4.8415C10.2705 4.28209 9.55775 3.90112 8.78183 3.74678C8.0059 3.59244 7.20164 3.67165 6.47073 3.97441C5.73983 4.27716 5.11511 4.78985 4.67559 5.44764C4.23606 6.10544 4.00146 6.8788 4.00146 7.66992C4.00146 8.73079 4.42289 9.74821 5.17304 10.4984C5.92318 11.2485 6.9406 11.6699 8.00146 11.6699Z" fill="#4E2583"/>
<path d="M6.00135 3.32998C6.09356 3.33286 6.18336 3.30023 6.25221 3.23882C6.32106 3.17742 6.3637 3.09192 6.37135 2.99998V1.44998C6.37137 1.40185 6.36173 1.35421 6.34302 1.30987C6.32431 1.26553 6.29689 1.22539 6.2624 1.19182C6.2279 1.15826 6.18702 1.13195 6.14219 1.11446C6.09735 1.09697 6.04946 1.08865 6.00135 1.08998C5.90493 1.08995 5.8123 1.12755 5.74319 1.19479C5.67408 1.26203 5.63395 1.3536 5.63135 1.44998V2.99998C5.64125 3.09103 5.68456 3.17516 5.7529 3.23612C5.82125 3.29707 5.90977 3.33052 6.00135 3.32998Z" fill="#4E2583"/>
<path d="M9.64129 3.00014C9.6912 3.00031 9.7406 2.99011 9.78635 2.97017C9.83211 2.95023 9.87321 2.921 9.90707 2.88432C9.94092 2.84765 9.96678 2.80434 9.983 2.75714C9.99922 2.70993 10.0054 2.65988 10.0013 2.61014V1.09014C9.98693 1.0037 9.94236 0.925166 9.87552 0.868512C9.80868 0.811857 9.72391 0.780762 9.63629 0.780762C9.54867 0.780762 9.46389 0.811857 9.39705 0.868512C9.33021 0.925166 9.28564 1.0037 9.27129 1.09014V2.61014C9.26703 2.66073 9.27352 2.71165 9.29034 2.75955C9.30715 2.80745 9.33391 2.85126 9.36885 2.88809C9.40379 2.92492 9.44613 2.95394 9.49308 2.97326C9.54004 2.99257 9.59054 3.00173 9.64129 3.00014Z" fill="#4E2583"/>
<path d="M7.83143 2.24C7.9269 2.24 8.01847 2.20207 8.08598 2.13456C8.1535 2.06705 8.19143 1.97548 8.19143 1.88V0.36C8.19143 0.264522 8.1535 0.172955 8.08598 0.105442C8.01847 0.0379285 7.9269 2.47199e-08 7.83143 2.47199e-08C7.735 -3.51977e-05 7.64238 0.0375712 7.57327 0.104811C7.50416 0.172052 7.46403 0.263613 7.46143 0.36V1.88C7.46403 1.97639 7.50416 2.06795 7.57327 2.13519C7.64238 2.20243 7.735 2.24004 7.83143 2.24Z" fill="#4E2583"/>
</svg>
