<svg width="24" height="24" viewBox="0 0 24 24" fill="none" xmlns="http://www.w3.org/2000/svg">
<g clip-path="url(#clip0)">
<path d="M12 21.3301L8.54 17.6701C8.88822 17.1391 9.19257 16.5806 9.45 16.0001C10.2198 16.4651 11.1007 16.7138 12 16.7201C12.8897 16.7129 13.7608 16.464 14.52 16.0001C14.6786 16.649 14.9868 17.2517 15.42 17.7601L12 21.3301ZM21.62 19.2501C20.7319 18.7869 19.8051 18.4021 18.85 18.1001C18.38 17.9401 17.99 17.8301 17.62 17.7301C17.25 17.6301 16.62 17.4601 16.08 17.3601C15.6059 16.8498 15.2868 16.2151 15.16 15.5301C16.2787 14.605 17.1111 13.3807 17.56 12.0001C17.5923 11.9086 17.5874 11.808 17.5462 11.7201C17.5051 11.6322 17.431 11.5639 17.34 11.5301C17.2954 11.5143 17.248 11.5074 17.2007 11.5099C17.1534 11.5124 17.1071 11.5242 17.0643 11.5446C17.0216 11.5651 16.9833 11.5938 16.9517 11.629C16.9201 11.6643 16.8957 11.7054 16.88 11.7501C16.4554 13.0391 15.6586 14.1735 14.59 15.0101C13.8444 15.5786 12.9326 15.8865 11.995 15.8865C11.0574 15.8865 10.1456 15.5786 9.4 15.0101C8.12154 14.0094 7.23071 12.5954 6.88 11.0101C6.86447 10.9587 6.83876 10.911 6.8044 10.8698C6.77004 10.8286 6.72773 10.7947 6.68 10.7701C6.6314 10.7477 6.57852 10.7361 6.525 10.7361C6.47148 10.7361 6.4186 10.7477 6.37 10.7701H6.3C6.26288 10.7719 6.22583 10.7656 6.19133 10.7518C6.15683 10.738 6.12568 10.717 6.1 10.6901C5.79865 10.3694 5.62446 9.94994 5.61 9.51012C5.54 8.73012 5.83 8.18012 6.14 8.10012C6.22887 8.07435 6.32228 8.06815 6.41378 8.08197C6.50528 8.09578 6.59269 8.12926 6.67 8.18012L6.8 8.24012C6.89417 8.26878 6.99579 8.25978 7.08346 8.21502C7.17112 8.17025 7.238 8.09321 7.27 8.00012C7.27 7.85012 7.57 7.00012 7.85 6.25012C8.30296 6.32358 8.76112 6.36037 9.22 6.36012C9.52637 6.37923 9.83363 6.37923 10.14 6.36012C10.2346 6.34761 10.3208 6.299 10.3804 6.22445C10.44 6.14991 10.4686 6.0552 10.46 5.96012C10.455 5.91273 10.4407 5.8668 10.4178 5.82499C10.395 5.78318 10.3641 5.74632 10.3269 5.71656C10.2896 5.68679 10.2469 5.6647 10.2011 5.65158C10.1553 5.63846 10.1073 5.63457 10.06 5.64012C9.26719 5.69443 8.47077 5.62356 7.7 5.43012H7.51H7.44C7.4236 5.42589 7.4064 5.42589 7.39 5.43012H7.33V5.49012C7.01 6.40012 6.83 6.93012 6.73 7.24012C6.49108 7.1746 6.23892 7.1746 6 7.24012L5.83 7.32012C5.7808 6.98898 5.75408 6.65488 5.75 6.32012C5.70562 5.03576 6.12941 3.77903 6.9425 2.78382C7.75559 1.78861 8.90258 1.12274 10.17 0.910122C10.2175 0.901934 10.2627 0.884038 10.303 0.857553C10.3432 0.831068 10.3775 0.796565 10.4038 0.756202C10.4301 0.71584 10.4478 0.670487 10.4557 0.622982C10.4637 0.575477 10.4617 0.526842 10.45 0.480122C10.4407 0.431174 10.4214 0.384679 10.3933 0.343579C10.3651 0.302479 10.3288 0.267669 10.2865 0.241351C10.2442 0.215033 10.1969 0.19778 10.1476 0.190684C10.0982 0.183587 10.048 0.186801 10 0.200122C8.54531 0.443818 7.23135 1.2148 6.30905 2.36583C5.38674 3.51686 4.92073 4.96729 5 6.44012C4.99982 7.00825 5.06016 7.57478 5.18 8.13012C4.95742 8.58243 4.87059 9.08952 4.93 9.59012C4.95168 10.2244 5.21666 10.826 5.67 11.2701C5.84449 11.4243 6.0673 11.5127 6.3 11.5201C6.72198 13.0873 7.61995 14.485 8.87 15.5201C8.60808 16.1885 8.27269 16.8258 7.87 17.4201C6.98 17.5801 6.44 17.7101 6.42 17.7201C6.04 17.8201 5.65 17.9401 5.18 18.0901C4.2297 18.3962 3.30651 18.7809 2.42 19.2401C1.69305 19.6052 1.08181 20.165 0.654495 20.8572C0.227178 21.5494 0.000586017 22.3467 0 23.1601L0 23.6401C0 23.7356 0.0379285 23.8272 0.105442 23.8947C0.172955 23.9622 0.264522 24.0001 0.36 24.0001C0.408111 24.0015 0.456001 23.9931 0.500839 23.9756C0.545677 23.9582 0.586552 23.9318 0.621048 23.8983C0.655543 23.8647 0.682958 23.8246 0.701672 23.7802C0.720386 23.7359 0.730019 23.6883 0.73 23.6401V23.1601C0.730761 22.4839 0.917817 21.821 1.27063 21.2442C1.62345 20.6673 2.12838 20.1988 2.73 19.8901C3.58354 19.4554 4.46954 19.0877 5.38 18.7901C5.84 18.6401 6.22 18.5301 6.59 18.4301C6.59 18.4301 7.14 18.2901 8.01 18.1501L11.64 22.0001V23.6301C11.64 23.7256 11.6779 23.8172 11.7454 23.8847C11.813 23.9522 11.9045 23.9901 12 23.9901C12.0955 23.9901 12.187 23.9522 12.2546 23.8847C12.3221 23.8172 12.36 23.7256 12.36 23.6301V22.0001L16.06 18.0901C16.5223 18.1753 16.9796 18.2854 17.43 18.4201C17.79 18.5201 18.17 18.6301 18.63 18.7801C19.5428 19.0715 20.4292 19.4394 21.28 19.8801C21.8816 20.1888 22.3866 20.6573 22.7394 21.2342C23.0922 21.811 23.2792 22.4739 23.28 23.1501V23.6301C23.2826 23.7265 23.3227 23.8181 23.3918 23.8853C23.461 23.9526 23.5536 23.9902 23.65 23.9901C23.7455 23.9901 23.837 23.9522 23.9046 23.8847C23.9721 23.8172 24.01 23.7256 24.01 23.6301V23.1501C24.0113 22.3425 23.7898 21.5502 23.3699 20.8604C22.95 20.1705 22.348 19.6099 21.63 19.2401" fill="#4E2583"/>
<path d="M19.5299 23.2702H15.8999V22.1802H19.5299V23.2702ZM19.8999 21.4502H15.5299C15.4335 21.4528 15.342 21.4929 15.2747 21.562C15.2075 21.6311 15.1699 21.7238 15.1699 21.8202V23.6402C15.1699 23.7357 15.2078 23.8272 15.2754 23.8948C15.3429 23.9623 15.4344 24.0002 15.5299 24.0002H19.8999C19.9954 24.0002 20.087 23.9623 20.1545 23.8948C20.222 23.8272 20.2599 23.7357 20.2599 23.6402V21.8202C20.26 21.7238 20.2224 21.6311 20.1551 21.562C20.0879 21.4929 19.9963 21.4528 19.8999 21.4502Z" fill="#4E2583"/>
<path d="M23.2701 9.91H16.7701C16.6939 9.90669 16.6191 9.93162 16.5601 9.98L13.8301 11.91V10.27C13.8301 10.1745 13.7922 10.083 13.7247 10.0154C13.6572 9.94793 13.5656 9.91 13.4701 9.91H12.0901V0.73H23.2701V9.91ZM23.6401 0H11.7301C11.6346 0 11.5431 0.0379285 11.4756 0.105442C11.408 0.172955 11.3701 0.264522 11.3701 0.36V10.27C11.3701 10.3664 11.4077 10.459 11.4749 10.5282C11.5422 10.5973 11.6337 10.6374 11.7301 10.64H13.1001V12.64C13.0999 12.7081 13.1184 12.7749 13.1537 12.8331C13.189 12.8914 13.2396 12.9387 13.3001 12.97C13.3563 12.9803 13.4139 12.9803 13.4701 12.97C13.5458 12.97 13.6195 12.9454 13.6801 12.9L16.8801 10.63H23.6401C23.7365 10.6274 23.8281 10.5873 23.8953 10.5182C23.9625 10.449 24.0002 10.3564 24.0001 10.26V0.36C24.0001 0.264522 23.9622 0.172955 23.8947 0.105442C23.8272 0.0379285 23.7356 0 23.6401 0" fill="#4E2583"/>
<path d="M15.1402 4.99988C15.1402 4.96275 15.1549 4.92714 15.1812 4.90089C15.2074 4.87463 15.243 4.85988 15.2802 4.85988H16.8002C16.8956 4.85988 16.9872 4.82195 17.0547 4.75444C17.1222 4.68693 17.1602 4.59536 17.1602 4.49988V2.99988C17.1602 2.96275 17.1749 2.92714 17.2012 2.90089C17.2274 2.87463 17.263 2.85988 17.3002 2.85988H18.0602C18.0983 2.8598 18.135 2.87422 18.1628 2.90022C18.1907 2.92623 18.2076 2.96186 18.2102 2.99988V4.51988C18.2102 4.61536 18.2481 4.70693 18.3156 4.77444C18.3831 4.84195 18.4747 4.87988 18.5702 4.87988H20.0902C20.1273 4.87988 20.1629 4.89463 20.1892 4.92089C20.2154 4.94714 20.2302 4.98275 20.2302 5.01988V5.77988C20.2302 5.81701 20.2154 5.85262 20.1892 5.87888C20.1629 5.90513 20.1273 5.91988 20.0902 5.91988H18.5702C18.4738 5.92249 18.3822 5.96262 18.315 6.03173C18.2477 6.10083 18.2101 6.19346 18.2102 6.28988V7.80988C18.2076 7.84791 18.1907 7.88354 18.1628 7.90954C18.135 7.93554 18.0983 7.94997 18.0602 7.94988H17.3002C17.2638 7.94753 17.2295 7.93202 17.2038 7.90626C17.178 7.8805 17.1625 7.84624 17.1602 7.80988V6.28988C17.1602 6.19346 17.1226 6.10083 17.0553 6.03173C16.9881 5.96262 16.8965 5.92249 16.8002 5.91988H15.2802C15.243 5.91988 15.2074 5.90513 15.1812 5.87888C15.1549 5.85262 15.1402 5.81701 15.1402 5.77988V4.99988ZM15.2802 6.62988H16.4302V7.80988C16.4328 8.03981 16.5253 8.2596 16.6878 8.42219C16.8504 8.58479 17.0702 8.67728 17.3002 8.67988H18.0602C18.2901 8.67728 18.5099 8.58479 18.6725 8.42219C18.8351 8.2596 18.9276 8.03981 18.9302 7.80988V6.64988H20.0902C20.2077 6.65529 20.3252 6.63679 20.4354 6.5955C20.5456 6.55421 20.6463 6.49098 20.7314 6.40965C20.8164 6.32832 20.8841 6.23057 20.9303 6.12232C20.9765 6.01407 21.0003 5.89758 21.0002 5.77988V4.99988C21.0002 4.76914 20.9085 4.54786 20.7453 4.3847C20.5822 4.22154 20.3609 4.12988 20.1302 4.12988H18.9302V2.99988C18.9302 2.76914 18.8385 2.54786 18.6753 2.3847C18.5122 2.22154 18.2909 2.12988 18.0602 2.12988H17.3002C17.0694 2.12988 16.8481 2.22154 16.685 2.3847C16.5218 2.54786 16.4302 2.76914 16.4302 2.99988V4.14988H15.2802C15.0494 4.14988 14.8281 4.24154 14.665 4.4047C14.5018 4.56786 14.4102 4.78914 14.4102 5.01988V5.77988C14.4102 6.01062 14.5018 6.23191 14.665 6.39507C14.8281 6.55822 15.0494 6.64988 15.2802 6.64988" fill="#4E2583"/>
</g>
<defs>
<clipPath id="clip0">
<rect width="24" height="24" fill="white"/>
</clipPath>
</defs>
</svg>
