<svg width="24" height="24" viewBox="0 0 24 24" fill="none" xmlns="http://www.w3.org/2000/svg">
<g clip-path="url(#clip0)">
<path d="M1.35 23.27L12 14.17L22.65 23.27H1.35ZM4 12.94L0.92 10.31L4 7.68V12.94ZM7.6 16.97L0.73 22.84V11.1L7.6 16.97ZM19.27 4.29V13.56L15.84 16.49L12.24 13.41C12.1 13.3 11.9 13.3 11.77 13.41L8.17 16.49L4.74 13.56V4.29H19.27ZM12 0.84L15.19 3.56H8.81L12 0.84ZM23.08 10.31L20 12.94V7.68L23.08 10.31ZM23.27 22.85L16.4 16.98L23.27 11.11V22.85ZM24 10.31C24 10.26 23.99 10.22 23.97 10.17C23.97 10.16 23.96 10.15 23.96 10.14C23.94 10.1 23.91 10.06 23.88 10.03L20 6.72V3.93C20 3.73 19.84 3.57 19.64 3.57H16.31L12.24 0.09C12.1 -0.03 11.9 -0.03 11.77 0.09L7.69 3.57H4.36C4.16 3.57 4 3.73 4 3.93V6.72L0.13 10.03C0.09 10.06 0.07 10.1 0.05 10.14C0.04 10.15 0.04 10.16 0.04 10.17C0.01 10.22 0 10.26 0 10.31V23.64C0 23.64 0 23.64 0 23.65C0 23.69 0.01 23.73 0.02 23.77C0.02 23.77 0.02 23.78 0.03 23.78C0.03 23.79 0.04 23.8 0.05 23.81C0.06 23.84 0.08 23.86 0.1 23.89C0.11 23.9 0.12 23.91 0.13 23.92C0.15 23.94 0.18 23.96 0.2 23.97C0.21 23.98 0.22 23.98 0.24 23.99C0.28 23.99 0.32 24 0.36 24H23.63C23.68 24 23.72 23.99 23.76 23.98C23.77 23.97 23.78 23.97 23.8 23.96C23.83 23.95 23.85 23.93 23.87 23.91C23.88 23.9 23.89 23.89 23.9 23.88C23.92 23.86 23.94 23.83 23.95 23.8C23.96 23.79 23.96 23.78 23.97 23.77C23.97 23.77 23.97 23.76 23.98 23.76C23.99 23.72 24 23.68 24 23.64C24 23.64 24 23.64 24 23.63V10.31Z" fill="#4E2583"/>
<path d="M6.9098 9.51004H17.0898C17.2898 9.51004 17.4498 9.35004 17.4498 9.15004C17.4498 8.95004 17.2898 8.79004 17.0898 8.79004H6.9098C6.7098 8.79004 6.5498 8.95004 6.5498 9.15004C6.5498 9.35004 6.7098 9.51004 6.9098 9.51004Z" fill="#4E2583"/>
<path d="M8.73005 7.15018H15.27C15.47 7.15018 15.63 6.99018 15.63 6.79018C15.63 6.59018 15.47 6.43018 15.27 6.43018H8.73005C8.53005 6.43018 8.37005 6.59018 8.37005 6.79018C8.36005 6.99018 8.53005 7.15018 8.73005 7.15018Z" fill="#4E2583"/>
<path d="M6.9098 11.8799H17.0898C17.2898 11.8799 17.4498 11.7199 17.4498 11.5199C17.4498 11.3199 17.2898 11.1499 17.0898 11.1499H6.9098C6.7098 11.1499 6.5498 11.3099 6.5498 11.5199C6.5498 11.7099 6.7098 11.8799 6.9098 11.8799Z" fill="#4E2583"/>
</g>
<defs>
<clipPath id="clip0">
<rect width="24" height="24" fill="white"/>
</clipPath>
</defs>
</svg>
