<svg width="24" height="24" viewBox="0 0 24 24" fill="none" xmlns="http://www.w3.org/2000/svg">
<g clip-path="url(#clip0)">
<path d="M21.4607 8.68431C21.3786 9.9241 21.198 11.1554 20.9207 12.3667C20.869 12.3202 20.812 12.28 20.7507 12.247C20.5407 12.1177 20.3111 12.0234 20.0707 11.9675C20.2526 11.1818 20.3829 10.3851 20.4607 9.58246C20.4802 9.10676 20.5677 8.63629 20.7207 8.18534C20.752 8.11294 20.8 8.04896 20.8609 7.99866C20.9217 7.94835 20.9936 7.91315 21.0707 7.89594C21.2267 7.86933 21.387 7.90133 21.5207 7.98575C21.5207 8.19532 21.5207 8.42485 21.4607 8.68431ZM23.7307 7.98575C23.7085 7.74787 23.6375 7.51709 23.5223 7.30767C23.407 7.09826 23.2499 6.91467 23.0607 6.76826C22.9173 6.69309 22.7577 6.65381 22.5957 6.65381C22.4337 6.65381 22.2742 6.69309 22.1307 6.76826C22.0193 6.81916 21.9204 6.89378 21.8409 6.98687C21.7615 7.07996 21.7034 7.18928 21.6707 7.30715C21.435 7.20437 21.1742 7.17314 20.9207 7.21734C20.7351 7.2581 20.5616 7.34158 20.414 7.46113C20.2664 7.58069 20.1489 7.733 20.0707 7.90592C19.8694 8.4291 19.7579 8.98238 19.7407 9.54255C19.6523 10.3622 19.512 11.1755 19.3207 11.9775C18.9673 12.1186 18.6788 12.3852 18.5107 12.726C17.2607 15.2208 16.8007 15.5102 16.2607 15.8496C15.7207 16.1889 15.1407 16.5481 13.9407 18.534C13.7384 18.8656 13.6065 19.2351 13.5532 19.6196C13.4999 20.0041 13.5263 20.3955 13.6307 20.7694C13.6511 20.8458 13.6967 20.913 13.7603 20.9602C13.8239 21.0073 13.9016 21.0315 13.9807 21.0289H14.0707C14.1179 21.0173 14.1622 20.9964 14.2011 20.9673C14.2399 20.9383 14.2724 20.9016 14.2967 20.8597C14.321 20.8177 14.3365 20.7713 14.3424 20.7232C14.3482 20.6751 14.3443 20.6263 14.3307 20.5798C14.1909 20.0317 14.2736 19.4507 14.5607 18.9631C15.6707 17.1169 16.1707 16.8076 16.6507 16.5082C17.1307 16.2088 17.8207 15.7797 19.1707 13.0852C19.2602 12.9064 19.4136 12.7675 19.6007 12.696C19.7346 12.6722 19.8719 12.6758 20.0043 12.7067C20.1367 12.7376 20.2614 12.7951 20.3707 12.8757C20.4507 12.8757 20.6607 13.0453 20.6007 13.6042C20.5407 14.163 20.1207 15.4005 18.5407 17.6758C18.5126 17.714 18.4925 17.7576 18.4818 17.8038C18.471 17.85 18.4698 17.8979 18.4782 17.9446C18.4867 17.9913 18.5045 18.0358 18.5308 18.0753C18.557 18.1149 18.591 18.1487 18.6307 18.1748C18.6871 18.2208 18.7579 18.2455 18.8307 18.2446C18.8904 18.2466 18.9495 18.2329 19.0022 18.2049C19.0548 18.1769 19.0992 18.1355 19.1307 18.0849C20.1647 16.8042 20.9115 15.3171 21.3207 13.7239C21.7955 12.0985 22.084 10.4245 22.1807 8.73421C22.2307 8.16538 22.2807 7.45684 22.4107 7.39697C22.5407 7.33709 22.6607 7.39697 22.6907 7.39697C22.8812 7.58576 22.9951 7.83806 23.0107 8.10551C24.2207 14.3626 20.8707 19.5519 18.7607 22.0767C18.5634 22.3176 18.3042 22.5004 18.0107 22.6056C17.9197 22.6394 17.8457 22.7075 17.8045 22.7952C17.7634 22.8829 17.7584 22.9833 17.7907 23.0747C17.8168 23.144 17.8632 23.2039 17.9238 23.2466C17.9844 23.2894 18.0565 23.3129 18.1307 23.3142H18.2607C18.6729 23.1553 19.0377 22.8943 19.3207 22.5557C21.5107 19.9611 25.0007 14.5123 23.7307 7.98575Z" fill="#4E2583"/>
<path d="M3.25078 12.2466C3.18956 12.2796 3.1325 12.3198 3.08078 12.3663C2.80352 11.155 2.62295 9.9237 2.54078 8.68391C2.54078 8.42444 2.54078 8.19492 2.48078 7.98535C2.61413 7.90002 2.7748 7.86795 2.93078 7.89553C3.00726 7.91418 3.07851 7.94992 3.13914 8.00005C3.19977 8.05018 3.2482 8.1134 3.28078 8.18494C3.43379 8.63588 3.52134 9.10636 3.54078 9.58206C3.61922 10.3873 3.74611 11.1871 3.92078 11.9771C3.68423 12.0349 3.45818 12.1292 3.25078 12.2565V12.2466ZM7.74078 15.899C7.20078 15.5597 6.74078 15.2703 5.49078 12.7855C5.41685 12.6035 5.30706 12.4382 5.16792 12.2993C5.02878 12.1605 4.86313 12.0509 4.68078 11.9771C4.48127 11.1498 4.34091 10.3094 4.26078 9.46231C4.2454 8.90194 4.13378 8.34837 3.93078 7.82568C3.85136 7.65364 3.73342 7.50209 3.58605 7.3827C3.43868 7.26332 3.26582 7.17929 3.08078 7.1371C2.82738 7.09229 2.56636 7.12355 2.33078 7.22691C2.29836 7.10747 2.23923 6.99692 2.15782 6.90358C2.07641 6.81024 1.97485 6.73654 1.86078 6.68802C1.71862 6.61453 1.56087 6.57617 1.40078 6.57617C1.24068 6.57617 1.08293 6.61453 0.940776 6.68802C0.741941 6.84324 0.579112 7.03956 0.463462 7.26349C0.347812 7.48742 0.28208 7.73368 0.270776 7.98535C-0.999224 14.5019 2.49078 19.9607 4.67078 22.5453C4.9553 22.8844 5.32437 23.1425 5.74078 23.2938C5.78027 23.3028 5.82128 23.3028 5.86078 23.2938C5.93567 23.2955 6.00912 23.2731 6.07032 23.23C6.13152 23.1868 6.17725 23.1253 6.20078 23.0543C6.22796 22.9694 6.22255 22.8774 6.18559 22.7963C6.14863 22.7151 6.08276 22.6506 6.00078 22.6152C5.70778 22.5038 5.44677 22.3222 5.24078 22.0863C3.13078 19.5415 -0.219224 14.3522 1.00078 8.06518C1.02259 7.80805 1.13614 7.56726 1.32078 7.38658C1.32078 7.38658 1.42078 7.32671 1.59078 7.38658C1.76078 7.44646 1.78078 8.155 1.82078 8.72383C1.92722 10.4138 2.21896 12.087 2.69078 13.7135C3.09532 15.3085 3.84259 16.7965 4.88078 18.0746C4.91146 18.1236 4.95422 18.1641 5.00498 18.192C5.05573 18.22 5.11281 18.2345 5.17078 18.2342C5.247 18.2375 5.32178 18.2127 5.38078 18.1644C5.42053 18.1384 5.45455 18.1045 5.48076 18.065C5.50698 18.0254 5.52485 17.9809 5.53327 17.9342C5.54169 17.8875 5.54049 17.8396 5.52975 17.7934C5.519 17.7472 5.49894 17.7036 5.47078 17.6654C3.88077 15.3901 3.47078 14.1926 3.41078 13.5938C3.35078 12.995 3.56078 12.9052 3.63078 12.8653C3.74138 12.7834 3.86776 12.7251 4.00198 12.6942C4.1362 12.6633 4.27538 12.6604 4.41078 12.6857C4.60131 12.7607 4.75779 12.9027 4.85078 13.0848C6.19078 15.7693 6.73078 16.0787 7.36078 16.4978C7.99078 16.9169 8.36077 17.1066 9.45078 18.9527C9.59829 19.1994 9.69466 19.4732 9.73417 19.7578C9.77368 20.0423 9.75552 20.3319 9.68078 20.6093C9.66709 20.6552 9.66272 20.7033 9.66792 20.7509C9.67313 20.7985 9.68781 20.8445 9.7111 20.8864C9.73439 20.9282 9.76582 20.965 9.80354 20.9945C9.84126 21.0241 9.88452 21.0458 9.93078 21.0584H10.0008C10.0813 21.0605 10.16 21.0349 10.2238 20.9858C10.2875 20.9367 10.3324 20.8672 10.3508 20.789C10.455 20.4167 10.4813 20.0269 10.428 19.644C10.3746 19.2612 10.2428 18.8934 10.0408 18.5636C8.84078 16.5677 8.24078 16.1984 7.72078 15.8791" fill="#4E2583"/>
<path d="M12.0007 11.9774C11.0007 11.3187 6.15066 7.98561 6.15066 4.70237C6.16879 4.06021 6.39342 3.4409 6.79137 2.93594C7.18932 2.43098 7.73948 2.06715 8.36056 1.89821C8.98165 1.72928 9.64071 1.76419 10.2404 1.9978C10.8401 2.2314 11.3485 2.65131 11.6907 3.19548C11.7243 3.24696 11.7702 3.28925 11.8244 3.31853C11.8785 3.34781 11.9391 3.36314 12.0007 3.36314C12.0622 3.36314 12.1228 3.34781 12.177 3.31853C12.2311 3.28925 12.2771 3.24696 12.3107 3.19548C12.6523 2.6519 13.1599 2.23224 13.7586 1.99836C14.3574 1.76448 15.0156 1.72875 15.6362 1.89644C16.2568 2.06414 16.807 2.42638 17.2057 2.92977C17.6044 3.43316 17.8305 4.05106 17.8507 4.69239C17.8507 7.98561 13.0007 11.3088 12.0007 11.9774ZM18.5707 4.69239C18.5696 3.93032 18.3323 3.18724 17.8912 2.56511C17.4502 1.94297 16.8271 1.47226 16.1074 1.21754C15.3877 0.962817 14.6066 0.936572 13.8713 1.1424C13.1361 1.34824 12.4826 1.77606 12.0007 2.36718C11.6519 1.94335 11.214 1.6012 10.7181 1.36494C10.2221 1.12869 9.68021 1.0041 9.13066 1C8.14936 1 7.20825 1.38902 6.51437 2.08148C5.82048 2.77393 5.43066 3.71311 5.43066 4.69239C5.43066 8.77398 11.5507 12.5562 11.8107 12.6759C11.8731 12.6908 11.9382 12.6908 12.0007 12.6759C12.0633 12.6894 12.1281 12.6894 12.1907 12.6759C12.4507 12.5163 18.5707 8.73406 18.5707 4.69239Z" fill="#4E2583"/>
<path d="M15.1007 4.47271L12.0007 7.98547L10.6007 6.53845C10.5344 6.46963 10.4434 6.42992 10.3477 6.42805C10.2521 6.42618 10.1596 6.4623 10.0907 6.52847C10.0217 6.59464 9.98193 6.68543 9.98005 6.78088C9.97817 6.87633 10.0144 6.96861 10.0807 7.03742L11.7507 8.76386C11.784 8.79917 11.8243 8.82717 11.8691 8.84607C11.9139 8.86497 11.9621 8.87436 12.0107 8.87364C12.0618 8.87523 12.1126 8.86529 12.1594 8.84456C12.2061 8.82382 12.2476 8.79283 12.2807 8.75388L15.6407 4.99164C15.6728 4.95625 15.6977 4.91489 15.7139 4.86991C15.73 4.82494 15.7372 4.77722 15.7348 4.7295C15.7325 4.68177 15.7208 4.63497 15.7003 4.59177C15.6799 4.54857 15.6511 4.5098 15.6157 4.47769C15.5802 4.44559 15.5388 4.42076 15.4937 4.40464C15.4486 4.38852 15.4008 4.38141 15.353 4.38373C15.3052 4.38605 15.2583 4.39774 15.215 4.41814C15.1717 4.43855 15.1328 4.46726 15.1007 4.50264" fill="#4E2583"/>
</g>
<defs>
<clipPath id="clip0">
<rect width="24" height="24" fill="white"/>
</clipPath>
</defs>
</svg>
