<svg width="24" height="24" viewBox="0 0 24 24" fill="none" xmlns="http://www.w3.org/2000/svg">
<path d="M17.0771 17.0616C17.0298 17.0514 16.9809 17.0509 16.9333 17.0601C16.8858 17.0693 16.8406 17.088 16.8004 17.1151C16.7603 17.1422 16.726 17.1771 16.6997 17.2177C16.6733 17.2583 16.6555 17.3039 16.6471 17.3516C15.7471 22.2316 14.8471 22.4716 14.6471 22.4716C13.8171 22.4716 11.9371 20.9516 11.8171 16.4716C11.8222 16.079 11.7171 15.6929 11.5138 15.3571C11.3106 15.0213 11.0172 14.7491 10.6671 14.5716C10.5045 14.4832 10.3223 14.4369 10.1371 14.4369C9.95198 14.4369 9.76979 14.4832 9.60712 14.5716C9.25662 14.7496 8.96251 15.0215 8.75767 15.3571C8.55282 15.6926 8.4453 16.0785 8.44712 16.4716C8.32712 20.9816 6.44712 22.4716 5.61712 22.4716C4.78712 22.4716 3.70712 18.8916 3.12712 13.9516C3.0949 13.6782 3.0027 13.4152 2.85712 13.1816C2.21712 12.1816 -0.822881 7.26157 1.69712 3.85157C4.08712 0.671569 6.27712 1.72157 8.81712 2.94157L9.23712 3.14157C8.59937 3.39491 7.9229 3.53697 7.23712 3.56157C7.14164 3.56157 7.05007 3.5995 6.98256 3.66701C6.91505 3.73452 6.87712 3.82609 6.87712 3.92157C6.87712 4.01705 6.91505 4.10861 6.98256 4.17613C7.05007 4.24364 7.14164 4.28157 7.23712 4.28157C8.30564 4.2382 9.3539 3.97613 10.3171 3.51157L11.5171 2.95157C13.8071 1.85157 15.7771 0.951569 17.8671 2.95157C17.9006 2.98513 17.9403 3.01176 17.9841 3.02993C18.0278 3.0481 18.0747 3.05745 18.1221 3.05745C18.1695 3.05745 18.2164 3.0481 18.2602 3.02993C18.3039 3.01176 18.3437 2.98513 18.3771 2.95157C18.4119 2.91884 18.4397 2.87933 18.4586 2.83548C18.4776 2.79162 18.4874 2.74435 18.4874 2.69657C18.4874 2.64879 18.4776 2.60152 18.4586 2.55766C18.4397 2.5138 18.4119 2.4743 18.3771 2.44157C15.9071 0.0115685 13.5071 1.17157 11.1871 2.28157L10.1871 2.77157L9.18712 2.29157C6.53712 1.01157 3.85712 -0.248431 1.13712 3.42157C-1.58288 7.09157 1.30712 12.1316 2.26712 13.5816C2.35601 13.7164 2.41091 13.8708 2.42712 14.0316C2.91712 18.2116 3.86712 23.2016 5.63712 23.2016C6.94712 23.2016 9.06712 21.3716 9.19712 16.4616C9.19087 16.1947 9.26218 15.9317 9.4024 15.7045C9.54262 15.4773 9.74573 15.2956 9.98712 15.1816C10.0418 15.15 10.1039 15.1333 10.1671 15.1333C10.2303 15.1333 10.2924 15.15 10.3471 15.1816C10.5809 15.298 10.7771 15.478 10.9133 15.7009C11.0495 15.9237 11.1201 16.1804 11.1171 16.4416C11.2471 21.3516 13.3671 23.1816 14.6671 23.1816C15.3771 23.1816 16.4171 22.5916 17.3671 17.4616C17.382 17.3677 17.3601 17.2718 17.3061 17.1936C17.2521 17.1154 17.1701 17.0609 17.0771 17.0416" fill="#4E2583"/>
<path d="M23.9871 9.65138C23.9795 9.55498 23.9343 9.46543 23.8615 9.40188C23.7886 9.33833 23.6937 9.30585 23.5971 9.31138C23.5498 9.31516 23.5037 9.32827 23.4614 9.34995C23.4192 9.37163 23.3816 9.40145 23.351 9.4377C23.3203 9.47395 23.2971 9.51591 23.2827 9.56116C23.2683 9.60642 23.263 9.65407 23.2671 9.70138C23.2671 9.84138 23.2671 9.97138 23.2671 10.1114C23.2731 11.3277 22.8651 12.51 22.1103 13.4638C21.3554 14.4176 20.2986 15.0863 19.1134 15.3601C17.9282 15.6338 16.6852 15.4963 15.5885 14.9701C14.4919 14.4439 13.6068 13.5603 13.0787 12.4646C12.5506 11.3688 12.4109 10.126 12.6826 8.94034C12.9543 7.75469 13.6212 6.69671 14.5737 5.94022C15.5263 5.18374 16.7078 4.77374 17.9242 4.77758C19.1405 4.78143 20.3194 5.19889 21.2671 5.96138C21.345 6.01994 21.4424 6.04636 21.5391 6.03519C21.6359 6.02403 21.7247 5.97613 21.7871 5.90138C21.8451 5.82513 21.8712 5.72939 21.86 5.63428C21.8488 5.53917 21.8012 5.4521 21.7271 5.39138C20.654 4.52471 19.318 4.04872 17.9386 4.04159C16.5592 4.03445 15.2184 4.49658 14.1363 5.3521C13.0543 6.20761 12.2953 7.40566 11.984 8.74949C11.6727 10.0933 11.8276 11.5031 12.4234 12.7472C13.0191 13.9914 14.0202 14.996 15.2622 15.596C16.5043 16.1961 17.9134 16.356 19.2584 16.0495C20.6033 15.7429 21.804 14.9881 22.6633 13.9091C23.5226 12.83 23.9894 11.4908 23.9871 10.1114C23.9871 9.96138 23.9871 9.80138 23.9871 9.65138Z" fill="#4E2583"/>
<path d="M15.6872 10.2015C15.6544 10.1667 15.6149 10.139 15.5711 10.12C15.5272 10.101 15.48 10.0912 15.4322 10.0912C15.3844 10.0912 15.3371 10.101 15.2933 10.12C15.2494 10.139 15.2099 10.1667 15.1772 10.2015C15.1436 10.235 15.117 10.2747 15.0988 10.3185C15.0806 10.3622 15.0713 10.4091 15.0713 10.4565C15.0713 10.5039 15.0806 10.5508 15.0988 10.5946C15.117 10.6383 15.1436 10.6781 15.1772 10.7115L17.6772 13.7115C17.7119 13.7517 17.7549 13.784 17.8032 13.8061C17.8515 13.8282 17.904 13.8396 17.9572 13.8396C18.0103 13.8396 18.0628 13.8282 18.1111 13.8061C18.1595 13.784 18.2024 13.7517 18.2372 13.7115L23.2372 7.63151C23.272 7.59878 23.2997 7.55927 23.3187 7.51542C23.3377 7.47156 23.3474 7.42429 23.3474 7.37651C23.3474 7.32873 23.3377 7.28146 23.3187 7.2376C23.2997 7.19374 23.272 7.15424 23.2372 7.12151C23.2037 7.08795 23.164 7.06132 23.1202 7.04315C23.0765 7.02498 23.0296 7.01563 22.9822 7.01562C22.9348 7.01562 22.8879 7.02498 22.8441 7.04315C22.8004 7.06132 22.7606 7.08795 22.7272 7.12151L17.9872 12.8715L15.6872 10.2015Z" fill="#4E2583"/>
</svg>
