<svg width="24" height="24" viewBox="0 0 24 24" fill="none" xmlns="http://www.w3.org/2000/svg">
<path d="M5.85023 10.5501H14.2602C14.4602 10.5501 14.6202 10.3901 14.6202 10.1901C14.6202 9.99008 14.4602 9.83008 14.2602 9.83008H5.85023C5.65023 9.83008 5.49023 9.99008 5.49023 10.1901C5.49023 10.3901 5.65023 10.5501 5.85023 10.5501Z" fill="#4E2583"/>
<path d="M5.85023 13.67H11.7202C11.9202 13.67 12.0802 13.51 12.0802 13.31C12.0802 13.11 11.9202 12.95 11.7202 12.95H5.85023C5.65023 12.95 5.49023 13.11 5.49023 13.31C5.49023 13.51 5.65023 13.67 5.85023 13.67Z" fill="#4E2583"/>
<path d="M5.85023 16.7901H8.86023C9.06023 16.7901 9.22023 16.6301 9.22023 16.4301C9.22023 16.2301 9.06023 16.0701 8.86023 16.0701H5.85023C5.65023 16.0701 5.49023 16.2301 5.49023 16.4301C5.49023 16.6301 5.65023 16.7901 5.85023 16.7901Z" fill="#4E2583"/>
<path d="M3.82025 6.70996H3.37025C3.17025 6.70996 3.01025 6.86996 3.01025 7.06996C3.01025 7.26996 3.17025 7.42996 3.37025 7.42996H3.82025C4.02025 7.42996 4.18025 7.26996 4.18025 7.06996C4.18025 6.86996 4.02025 6.70996 3.82025 6.70996Z" fill="#4E2583"/>
<path d="M3.82025 9.82007H3.37025C3.17025 9.82007 3.01025 9.98007 3.01025 10.1801C3.01025 10.3801 3.17025 10.5401 3.37025 10.5401H3.82025C4.02025 10.5401 4.18025 10.3801 4.18025 10.1801C4.18025 9.99007 4.02025 9.82007 3.82025 9.82007Z" fill="#4E2583"/>
<path d="M5.85023 4.3201H11.0502C11.2502 4.3201 11.4102 4.1601 11.4102 3.9601C11.4102 3.7601 11.2502 3.6001 11.0502 3.6001H5.85023C5.65023 3.6001 5.49023 3.7601 5.49023 3.9601C5.49023 4.1601 5.65023 4.3201 5.85023 4.3201Z" fill="#4E2583"/>
<path d="M5.85023 7.42996H14.2602C14.4602 7.42996 14.6202 7.26996 14.6202 7.06996C14.6202 6.86996 14.4602 6.70996 14.2602 6.70996H5.85023C5.65023 6.70996 5.49023 6.86996 5.49023 7.06996C5.49023 7.26996 5.65023 7.42996 5.85023 7.42996Z" fill="#4E2583"/>
<path d="M3.82025 3.59009H3.37025C3.17025 3.59009 3.01025 3.75009 3.01025 3.95009C3.01025 4.15009 3.17025 4.31009 3.37025 4.31009H3.82025C4.02025 4.31009 4.18025 4.15009 4.18025 3.95009C4.18025 3.75009 4.02025 3.59009 3.82025 3.59009Z" fill="#4E2583"/>
<path d="M3.82025 12.9399H3.37025C3.17025 12.9399 3.01025 13.0999 3.01025 13.2999C3.01025 13.4999 3.17025 13.6599 3.37025 13.6599H3.82025C4.02025 13.6599 4.18025 13.4999 4.18025 13.2999C4.18025 13.0999 4.02025 12.9399 3.82025 12.9399Z" fill="#4E2583"/>
<path d="M3.75025 16.0601H3.37025C3.17025 16.0601 3.01025 16.2201 3.01025 16.4201C3.01025 16.6201 3.17025 16.7801 3.37025 16.7801H3.74025C3.94025 16.7801 4.10025 16.6201 4.10025 16.4201C4.10025 16.2201 3.95025 16.0601 3.75025 16.0601Z" fill="#4E2583"/>
<path d="M3.63025 19.1799H3.37025C3.17025 19.1799 3.01025 19.3399 3.01025 19.5399C3.01025 19.7399 3.17025 19.8999 3.37025 19.8999H3.62025C3.82025 19.8999 3.98025 19.7399 3.98025 19.5399C3.99025 19.3399 3.83025 19.1799 3.63025 19.1799Z" fill="#4E2583"/>
<path d="M21.9502 8.13L20.9602 7.14L21.7202 6.38L22.7102 7.37L21.9502 8.13ZM11.8902 18.19L11.3902 17.69L10.8902 17.19L20.4302 7.65L21.4202 8.64L11.8902 18.19ZM10.5402 17.85L10.8902 18.2L11.2402 18.55L10.1602 18.94L10.5402 17.85ZM17.9602 23.27H1.14016V0.73H14.3702V3.96C14.3702 4.16 14.5302 4.32 14.7302 4.32H17.9602V9.11L10.1302 16.94C10.1302 16.94 10.1302 16.95 10.1202 16.95C10.1002 16.98 10.0702 17.01 10.0602 17.04C10.0602 17.05 10.0502 17.05 10.0502 17.06V17.07L9.30016 19.18H5.85016C5.65016 19.18 5.49016 19.34 5.49016 19.54C5.49016 19.74 5.65016 19.9 5.85016 19.9H9.54016C9.58016 19.9 9.62016 19.89 9.66016 19.88L12.0102 19.04H12.0202C12.0302 19.04 12.0302 19.03 12.0402 19.03C12.0702 19.01 12.1102 18.99 12.1302 18.97C12.1302 18.97 12.1402 18.97 12.1402 18.96L17.9502 13.15V23.27H17.9602ZM17.4402 3.59H15.0902V1.24L16.2602 2.41L17.4402 3.59ZM23.4802 7.11L21.9702 5.6C21.8302 5.46 21.5902 5.46 21.4602 5.6L20.1802 6.88L18.6802 8.38V3.95C18.6802 3.94 18.6802 3.94 18.6802 3.93C18.6802 3.9 18.6702 3.87 18.6602 3.84C18.6602 3.83 18.6502 3.82 18.6502 3.8C18.6302 3.76 18.6102 3.73 18.5802 3.69L14.9902 0.1C14.9602 0.07 14.9202 0.05 14.8802 0.03C14.8702 0.03 14.8602 0.02 14.8502 0.02C14.8202 0.01 14.7802 0 14.7502 0C14.7402 0 14.7402 0 14.7302 0H0.770156C0.570156 0 0.410156 0.16 0.410156 0.36V23.63C0.410156 23.83 0.570156 23.99 0.770156 23.99H18.3102C18.5102 23.99 18.6702 23.83 18.6702 23.63V12.42L22.1902 8.9L23.4702 7.62C23.5402 7.55 23.5802 7.46 23.5802 7.36C23.5902 7.27 23.5502 7.18 23.4802 7.11Z" fill="#4E2583"/>
</svg>
