<svg width="24" height="24" viewBox="0 0 24 24" fill="none" xmlns="http://www.w3.org/2000/svg">
<path d="M3.11993 5.88039H15.7899C15.8764 5.86603 15.9549 5.82147 16.0116 5.75463C16.0682 5.68779 16.0993 5.60301 16.0993 5.51539C16.0993 5.42777 16.0682 5.34299 16.0116 5.27615C15.9549 5.20931 15.8764 5.16475 15.7899 5.15039H3.11993C3.03349 5.16475 2.95495 5.20931 2.8983 5.27615C2.84164 5.34299 2.81055 5.42777 2.81055 5.51539C2.81055 5.60301 2.84164 5.68779 2.8983 5.75463C2.95495 5.82147 3.03349 5.86603 3.11993 5.88039Z" fill="#4E2583"/>
<path d="M11.4998 7.84961H3.11977C3.02338 7.85222 2.93182 7.89234 2.86458 7.96145C2.79734 8.03056 2.75973 8.12319 2.75977 8.21961C2.75977 8.31509 2.79769 8.40666 2.86521 8.47417C2.93272 8.54168 3.02429 8.57961 3.11977 8.57961H11.4998C11.5952 8.57961 11.6868 8.54168 11.7543 8.47417C11.8218 8.40666 11.8598 8.31509 11.8598 8.21961C11.8598 8.12319 11.8222 8.03056 11.755 7.96145C11.6877 7.89234 11.5962 7.85222 11.4998 7.84961Z" fill="#4E2583"/>
<path d="M11.5 19.4904H7.49996C7.44697 19.4816 7.39269 19.4844 7.34091 19.4987C7.28913 19.513 7.24108 19.5384 7.2001 19.5731C7.15912 19.6078 7.1262 19.6511 7.10361 19.6998C7.08103 19.7486 7.06934 19.8016 7.06934 19.8554C7.06934 19.9091 7.08103 19.9621 7.10361 20.0109C7.1262 20.0596 7.15912 20.1029 7.2001 20.1376C7.24108 20.1723 7.28913 20.1977 7.34091 20.212C7.39269 20.2263 7.44697 20.2292 7.49996 20.2204H11.5C11.5864 20.206 11.6649 20.1614 11.7216 20.0946C11.7782 20.0277 11.8093 19.943 11.8093 19.8554C11.8093 19.7677 11.7782 19.683 11.7216 19.6161C11.6649 19.5493 11.5864 19.5047 11.5 19.4904Z" fill="#4E2583"/>
<path d="M5.59993 19.4904H3.11993C3.03349 19.5047 2.95495 19.5493 2.8983 19.6161C2.84164 19.683 2.81055 19.7677 2.81055 19.8554C2.81055 19.943 2.84164 20.0277 2.8983 20.0946C2.95495 20.1614 3.03349 20.206 3.11993 20.2204H5.59993C5.65292 20.2292 5.70719 20.2263 5.75897 20.212C5.81076 20.1977 5.85881 20.1723 5.89979 20.1376C5.94076 20.1029 5.97369 20.0596 5.99627 20.0109C6.01885 19.9621 6.03055 19.9091 6.03055 19.8554C6.03055 19.8016 6.01885 19.7486 5.99627 19.6998C5.97369 19.6511 5.94076 19.6078 5.89979 19.5731C5.85881 19.5384 5.81076 19.513 5.75897 19.4987C5.70719 19.4844 5.65292 19.4816 5.59993 19.4904Z" fill="#4E2583"/>
<path d="M22.91 19.13C22.91 19.2255 22.8721 19.317 22.8046 19.3846C22.737 19.4521 22.6455 19.49 22.55 19.49H14.55C14.4536 19.49 14.361 19.4524 14.2918 19.3852C14.2227 19.3179 14.1826 19.2264 14.18 19.13V9C14.1825 8.90267 14.2223 8.81002 14.2912 8.74117C14.36 8.67232 14.4527 8.63253 14.55 8.63H22.55C22.6464 8.63261 22.7379 8.67274 22.8052 8.74184C22.8724 8.81095 22.91 8.90358 22.91 9V19.13ZM18.18 22.91C18.18 23.0055 18.1421 23.097 18.0746 23.1646C18.007 23.2321 17.9155 23.27 17.82 23.27H1.09C0.994522 23.27 0.902955 23.2321 0.835442 23.1646C0.767928 23.097 0.73 23.0055 0.73 22.91V1.09C0.73 0.994522 0.767928 0.902955 0.835442 0.835442C0.902955 0.767928 0.994522 0.73 1.09 0.73H4.73V1.09C4.73 1.57269 4.92175 2.03562 5.26307 2.37693C5.60438 2.71825 6.06731 2.91 6.55 2.91H12.36C12.8427 2.91 13.3056 2.71825 13.6469 2.37693C13.9883 2.03562 14.18 1.57269 14.18 1.09V0.73H17.82C17.9155 0.73 18.007 0.767928 18.0746 0.835442C18.1421 0.902955 18.18 0.994522 18.18 1.09V7.85H14.55C14.4012 7.84985 14.254 7.87987 14.1172 7.93825C13.9803 7.99663 13.8568 8.08215 13.754 8.18965C13.6511 8.29715 13.5712 8.42439 13.5189 8.56368C13.4667 8.70296 13.4432 8.85139 13.45 9V19.13C13.45 19.274 13.4785 19.4165 13.5339 19.5494C13.5893 19.6823 13.6705 19.803 13.7728 19.9043C13.8751 20.0057 13.9964 20.0857 14.1298 20.1399C14.2632 20.1941 14.406 20.2213 14.55 20.22H18.18V22.91ZM5.45 0.73H13.45V1.09C13.45 1.37909 13.3352 1.65633 13.1307 1.86075C12.9263 2.06516 12.6491 2.18 12.36 2.18H6.55C6.40602 2.18132 6.26321 2.1541 6.1298 2.09992C5.9964 2.04573 5.87506 1.96565 5.77278 1.8643C5.6705 1.76296 5.58932 1.64235 5.53392 1.50945C5.47852 1.37655 5.44999 1.23399 5.45 1.09V0.73ZM22.55 7.85H18.91V1.09C18.91 0.800914 18.7952 0.523668 18.5907 0.319254C18.3863 0.114839 18.1091 0 17.82 0L1.09 0C0.800914 0 0.523668 0.114839 0.319254 0.319254C0.114839 0.523668 0 0.800914 0 1.09L0 22.91C0 23.1991 0.114839 23.4763 0.319254 23.6807C0.523668 23.8852 0.800914 24 1.09 24H17.82C18.1091 24 18.3863 23.8852 18.5907 23.6807C18.7952 23.4763 18.91 23.1991 18.91 22.91V20.22H22.55C22.8391 20.22 23.1163 20.1052 23.3207 19.9007C23.5252 19.6963 23.64 19.4191 23.64 19.13V9C23.6413 8.85602 23.6141 8.7132 23.5599 8.5798C23.5057 8.4464 23.4256 8.32506 23.3243 8.22278C23.223 8.1205 23.1023 8.03932 22.9694 7.98392C22.8365 7.92852 22.694 7.89999 22.55 7.9" fill="#4E2583"/>
<path d="M21.2702 10.1797H15.8202C15.7229 10.1822 15.6302 10.222 15.5614 10.2909C15.4925 10.3597 15.4527 10.4524 15.4502 10.5497C15.4528 10.6461 15.4929 10.7376 15.562 10.8049C15.6311 10.8721 15.7238 10.9097 15.8202 10.9097H21.2702C21.3666 10.9097 21.4592 10.8721 21.5284 10.8049C21.5975 10.7376 21.6376 10.6461 21.6402 10.5497C21.6377 10.4524 21.5979 10.3597 21.529 10.2909C21.4602 10.222 21.3675 10.1822 21.2702 10.1797Z" fill="#4E2583"/>
<path d="M15.5598 12.6196C15.5265 12.6519 15.5004 12.6908 15.4831 12.7339C15.4659 12.777 15.4579 12.8232 15.4598 12.8696C15.4578 12.9174 15.4656 12.9652 15.4828 13.0099C15.5 13.0547 15.5262 13.0954 15.5598 13.1296C15.5935 13.1645 15.6339 13.1922 15.6786 13.2111C15.7232 13.23 15.7713 13.2397 15.8198 13.2396C15.8668 13.2395 15.9133 13.2297 15.9563 13.2108C15.9993 13.1918 16.038 13.1642 16.0698 13.1296C16.1047 13.0959 16.1324 13.0555 16.1513 13.0108C16.1702 12.9661 16.1799 12.9181 16.1798 12.8696C16.1797 12.8225 16.1699 12.7761 16.151 12.733C16.1321 12.69 16.1044 12.6514 16.0698 12.6196C16.0363 12.586 15.9966 12.5594 15.9528 12.5412C15.9091 12.523 15.8622 12.5137 15.8148 12.5137C15.7674 12.5137 15.7205 12.523 15.6767 12.5412C15.633 12.5594 15.5932 12.586 15.5598 12.6196Z" fill="#4E2583"/>
<path d="M17.6401 12.5099C17.592 12.5086 17.5441 12.5169 17.4993 12.5344C17.4545 12.5519 17.4136 12.5782 17.3791 12.6117C17.3446 12.6453 17.3172 12.6854 17.2985 12.7298C17.2798 12.7741 17.2701 12.8218 17.2701 12.8699C17.2613 12.9229 17.2642 12.9772 17.2785 13.029C17.2928 13.0807 17.3182 13.1288 17.3529 13.1698C17.3876 13.2107 17.4309 13.2437 17.4796 13.2662C17.5283 13.2888 17.5814 13.3005 17.6351 13.3005C17.6889 13.3005 17.7419 13.2888 17.7907 13.2662C17.8394 13.2437 17.8827 13.2107 17.9174 13.1698C17.9521 13.1288 17.9775 13.0807 17.9918 13.029C18.0061 12.9772 18.0089 12.9229 18.0001 12.8699C18.0001 12.7744 17.9622 12.6829 17.8947 12.6153C17.8272 12.5478 17.7356 12.5099 17.6401 12.5099Z" fill="#4E2583"/>
<path d="M19.4598 13.2399C19.5562 13.2373 19.6478 13.1972 19.715 13.1281C19.7823 13.059 19.8199 12.9663 19.8198 12.8699C19.8055 12.7835 19.7609 12.705 19.6941 12.6483C19.6272 12.5916 19.5425 12.5605 19.4548 12.5605C19.3672 12.5605 19.2824 12.5916 19.2156 12.6483C19.1488 12.705 19.1042 12.7835 19.0898 12.8699C19.0898 12.9681 19.1288 13.0622 19.1982 13.1316C19.2676 13.2009 19.3617 13.2399 19.4598 13.2399Z" fill="#4E2583"/>
<path d="M21.2702 13.2401C21.3187 13.2403 21.3667 13.2306 21.4114 13.2117C21.4561 13.1928 21.4965 13.165 21.5302 13.1301C21.5637 13.0959 21.5899 13.0552 21.6071 13.0105C21.6243 12.9658 21.6322 12.918 21.6302 12.8701C21.632 12.7737 21.5961 12.6805 21.5302 12.6101C21.478 12.5623 21.4133 12.5304 21.3436 12.5182C21.2739 12.506 21.2021 12.5141 21.1369 12.5415C21.0716 12.5688 21.0156 12.6144 20.9754 12.6726C20.9352 12.7309 20.9126 12.7994 20.9102 12.8701C20.91 12.9186 20.9197 12.9667 20.9386 13.0114C20.9575 13.056 20.9853 13.0964 21.0202 13.1301C21.052 13.1648 21.0906 13.1924 21.1336 13.2113C21.1767 13.2303 21.2231 13.2401 21.2702 13.2401Z" fill="#4E2583"/>
<path d="M19.4601 14.8398C19.3889 14.8398 19.3193 14.861 19.2601 14.9005C19.2009 14.9401 19.1547 14.9963 19.1275 15.0621C19.1003 15.1279 19.0931 15.2002 19.107 15.2701C19.1209 15.3399 19.1552 15.4041 19.2055 15.4544C19.2559 15.5047 19.32 15.539 19.3899 15.5529C19.4597 15.5668 19.5321 15.5597 19.5979 15.5324C19.6636 15.5052 19.7199 15.4591 19.7594 15.3998C19.799 15.3406 19.8201 15.271 19.8201 15.1998C19.8201 15.1044 19.7822 15.0128 19.7147 14.9453C19.6471 14.8778 19.5556 14.8398 19.4601 14.8398Z" fill="#4E2583"/>
<path d="M17.6398 14.8398C17.5686 14.8398 17.499 14.861 17.4398 14.9005C17.3806 14.9401 17.3344 14.9963 17.3072 15.0621C17.2799 15.1279 17.2728 15.2002 17.2867 15.2701C17.3006 15.3399 17.3349 15.4041 17.3852 15.4544C17.4356 15.5047 17.4997 15.539 17.5696 15.5529C17.6394 15.5668 17.7118 15.5597 17.7776 15.5324C17.8433 15.5052 17.8996 15.4591 17.9391 15.3998C17.9787 15.3406 17.9998 15.271 17.9998 15.1998C17.9998 15.1044 17.9619 15.0128 17.8943 14.9453C17.8268 14.8778 17.7353 14.8398 17.6398 14.8398Z" fill="#4E2583"/>
<path d="M15.5598 14.9402C15.5262 14.9744 15.5 15.0151 15.4828 15.0598C15.4656 15.1046 15.4578 15.1523 15.4598 15.2002C15.458 15.2966 15.4939 15.3899 15.5598 15.4602C15.6317 15.5236 15.7239 15.5591 15.8198 15.5602C15.8678 15.5631 15.9159 15.5558 15.9609 15.5388C16.0059 15.5217 16.0468 15.4953 16.0808 15.4612C16.1149 15.4272 16.1413 15.3864 16.1583 15.3414C16.1754 15.2964 16.1827 15.2482 16.1798 15.2002C16.1774 15.1295 16.1547 15.0609 16.1146 15.0027C16.0744 14.9444 16.0183 14.8989 15.9531 14.8716C15.8878 14.8442 15.8161 14.8361 15.7464 14.8483C15.6767 14.8605 15.6119 14.8924 15.5598 14.9402Z" fill="#4E2583"/>
<path d="M15.5598 17.2703C15.5262 17.3045 15.5 17.3452 15.4828 17.3899C15.4656 17.4346 15.4578 17.4824 15.4598 17.5303C15.458 17.6267 15.4939 17.72 15.5598 17.7903C15.6317 17.8537 15.7239 17.8892 15.8198 17.8903C15.9127 17.8895 16.002 17.8538 16.0698 17.7903C16.1385 17.721 16.1779 17.6279 16.1798 17.5303C16.1774 17.4596 16.1547 17.391 16.1146 17.3328C16.0744 17.2745 16.0183 17.229 15.9531 17.2016C15.8878 17.1743 15.8161 17.1662 15.7464 17.1784C15.6767 17.1905 15.6119 17.2224 15.5598 17.2703Z" fill="#4E2583"/>
<path d="M17.64 17.1602C17.5419 17.1602 17.4478 17.1991 17.3784 17.2685C17.309 17.3379 17.27 17.432 17.27 17.5302C17.2844 17.6166 17.3289 17.6951 17.3958 17.7518C17.4626 17.8084 17.5474 17.8395 17.635 17.8395C17.7226 17.8395 17.8074 17.8084 17.8743 17.7518C17.9411 17.6951 17.9857 17.6166 18 17.5302C18.0001 17.4337 17.9624 17.3411 17.8952 17.272C17.828 17.2029 17.7364 17.1628 17.64 17.1602Z" fill="#4E2583"/>
<path d="M19.4498 17.1602C19.3535 17.1628 19.2619 17.2029 19.1947 17.272C19.1274 17.3411 19.0898 17.4337 19.0898 17.5302C19.1042 17.6166 19.1488 17.6951 19.2156 17.7518C19.2824 17.8084 19.3672 17.8395 19.4548 17.8395C19.5425 17.8395 19.6272 17.8084 19.6941 17.7518C19.7609 17.6951 19.8055 17.6166 19.8198 17.5302C19.8198 17.432 19.7809 17.3379 19.7115 17.2685C19.6421 17.1991 19.548 17.1602 19.4498 17.1602Z" fill="#4E2583"/>
<path d="M21.2702 14.8398C21.1747 14.8398 21.0831 14.8778 21.0156 14.9453C20.9481 15.0128 20.9102 15.1044 20.9102 15.1998V17.5298C20.9102 17.6253 20.9481 17.7169 21.0156 17.7844C21.0831 17.8519 21.1747 17.8898 21.2702 17.8898C21.3666 17.8899 21.4592 17.8523 21.5283 17.785C21.5974 17.7178 21.6375 17.6262 21.6402 17.5298V15.1998C21.6375 15.1035 21.5974 15.0119 21.5283 14.9447C21.4592 14.8774 21.3666 14.8398 21.2702 14.8398Z" fill="#4E2583"/>
<path d="M3.11977 17.6401C3.21524 17.6401 3.30681 17.6022 3.37432 17.5346C3.44184 17.4671 3.47977 17.3756 3.47977 17.2801V14.6901C3.47977 14.5946 3.44184 14.503 3.37432 14.4355C3.30681 14.368 3.21524 14.3301 3.11977 14.3301C3.02429 14.3301 2.93272 14.368 2.86521 14.4355C2.79769 14.503 2.75977 14.5946 2.75977 14.6901V17.2801C2.75977 17.3756 2.79769 17.4671 2.86521 17.5346C2.93272 17.6022 3.02429 17.6401 3.11977 17.6401Z" fill="#4E2583"/>
<path d="M5.58021 17.2802V13.4902C5.58902 13.4372 5.58617 13.3829 5.57188 13.3311C5.55759 13.2794 5.5322 13.2313 5.49747 13.1903C5.46273 13.1494 5.41949 13.1164 5.37075 13.0938C5.32201 13.0713 5.26893 13.0596 5.21522 13.0596C5.1615 13.0596 5.10842 13.0713 5.05968 13.0938C5.01094 13.1164 4.9677 13.1494 4.93297 13.1903C4.89823 13.2313 4.87284 13.2794 4.85855 13.3311C4.84426 13.3829 4.84141 13.4372 4.85021 13.4902V17.2802C4.86457 17.3666 4.90914 17.4452 4.97598 17.5018C5.04282 17.5585 5.12759 17.5896 5.21522 17.5896C5.30284 17.5896 5.38761 17.5585 5.45445 17.5018C5.52129 17.4452 5.56586 17.3666 5.58021 17.2802Z" fill="#4E2583"/>
<path d="M7.6702 17.2801V14.6901C7.6702 14.6428 7.66088 14.596 7.64279 14.5523C7.6247 14.5086 7.59818 14.4689 7.56475 14.4355C7.53132 14.4021 7.49164 14.3756 7.44796 14.3575C7.40428 14.3394 7.35747 14.3301 7.3102 14.3301C7.26292 14.3301 7.21611 14.3394 7.17243 14.3575C7.12875 14.3756 7.08907 14.4021 7.05564 14.4355C7.02221 14.4689 6.99569 14.5086 6.9776 14.5523C6.95951 14.596 6.9502 14.6428 6.9502 14.6901V17.2801C6.9502 17.3756 6.98812 17.4671 7.05564 17.5346C7.12315 17.6022 7.21472 17.6401 7.3102 17.6401C7.40567 17.6401 7.49724 17.6022 7.56475 17.5346C7.63227 17.4671 7.6702 17.3756 7.6702 17.2801Z" fill="#4E2583"/>
<path d="M9.77004 17.2799V12.2799C9.76743 12.1835 9.7273 12.092 9.6582 12.0247C9.58909 11.9575 9.49646 11.9199 9.40004 11.9199C9.30456 11.9199 9.21299 11.9578 9.14548 12.0254C9.07797 12.0929 9.04004 12.1844 9.04004 12.2799V17.2799C9.04004 17.3754 9.07797 17.467 9.14548 17.5345C9.21299 17.602 9.30456 17.6399 9.40004 17.6399C9.49646 17.64 9.58909 17.6024 9.6582 17.5351C9.7273 17.4679 9.76743 17.3763 9.77004 17.2799Z" fill="#4E2583"/>
<path d="M11.4999 10.7197C11.4035 10.7197 11.3108 10.7573 11.2417 10.8245C11.1726 10.8918 11.1325 10.9833 11.1299 11.0797V17.2797C11.1325 17.3761 11.1726 17.4677 11.2417 17.5349C11.3108 17.6022 11.4035 17.6398 11.4999 17.6397C11.5954 17.6397 11.6869 17.6018 11.7544 17.5343C11.822 17.4668 11.8599 17.3752 11.8599 17.2797V11.0797C11.8599 10.9842 11.822 10.8927 11.7544 10.8252C11.6869 10.7577 11.5954 10.7197 11.4999 10.7197Z" fill="#4E2583"/>
</svg>
