<svg width="24" height="24" viewBox="0 0 24 24" fill="none" xmlns="http://www.w3.org/2000/svg">
<path d="M10.2066 16.9046H14.3336V19.9298H10.2066V16.9046ZM3.22832 16.9046H4.83274V19.9298H3.22832V16.9046ZM9.50102 8.72787H5.54796V5.693H9.50102V8.72787ZM14.3336 12.4586H10.2066V9.42376H14.3336V12.4586ZM10.2066 13.1642H14.3336V16.1991H10.2066V13.1642ZM3.22832 13.1642H4.83274V16.1991H3.22832V13.1642ZM3.22832 5.693H4.83274V8.72787H3.22832V5.693ZM5.54796 9.42376H9.50102V12.4586H5.54796V9.42376ZM4.83274 12.4586H3.22832V9.42376H4.83274V12.4586ZM9.48169 19.9298H5.54796V16.9046H9.50102L9.48169 19.9298ZM5.52863 13.1642H9.50102V16.1991H5.54796L5.52863 13.1642ZM14.6912 6.15693C14.5972 6.15937 14.5076 6.19783 14.4411 6.26438C14.3745 6.33092 14.3361 6.42046 14.3336 6.51454V8.72787H10.2066V5.693H11.1731C11.2254 5.70308 11.2793 5.70136 11.3308 5.68796C11.3823 5.67456 11.4302 5.64983 11.471 5.61556C11.5117 5.58129 11.5443 5.53835 11.5664 5.48988C11.5884 5.44141 11.5993 5.38862 11.5984 5.33539C11.5984 5.28887 11.5891 5.24282 11.571 5.19996C11.5529 5.1571 11.5264 5.11831 11.4931 5.08587C11.4597 5.05343 11.4202 5.02801 11.3769 5.0111C11.3335 4.99419 11.2873 4.98615 11.2408 4.98744H2.8997C2.80742 4.98744 2.71892 5.0241 2.65367 5.08935C2.58842 5.1546 2.55176 5.2431 2.55176 5.33539V20.2584C2.55176 20.3507 2.58842 20.4392 2.65367 20.5045C2.71892 20.5697 2.80742 20.6064 2.8997 20.6064H14.6912C14.7835 20.6064 14.872 20.5697 14.9373 20.5045C15.0025 20.4392 15.0392 20.3507 15.0392 20.2584V6.51454C15.0392 6.42134 15.0029 6.33182 14.9379 6.26503C14.8729 6.19823 14.7844 6.15944 14.6912 6.15693Z" fill="#4E2583"/>
<path d="M0.705558 22.4522V0.666904H12.5647V4.53298C12.5673 4.62614 12.606 4.71463 12.6728 4.77962C12.7396 4.84461 12.8292 4.88096 12.9224 4.88092H16.7884V22.4522H0.705558ZM16.3632 4.22369H13.2993V1.15983L16.3632 4.22369ZM17.5423 4.46532L17.4747 4.359L13.193 0.067663C13.1674 0.0368173 13.134 0.0134419 13.0963 6.67275e-06H12.9997H0.347947C0.261989 -0.000525405 0.178877 0.0307798 0.11463 0.0878881C0.0503829 0.144996 0.0095494 0.223865 0 0.309293L0 22.8098C0 22.9021 0.0366586 22.9906 0.101911 23.0559C0.167164 23.1211 0.255665 23.1578 0.347947 23.1578H17.204C17.2505 23.1591 17.2968 23.151 17.3402 23.1341C17.3835 23.1172 17.423 23.0918 17.4563 23.0594C17.4897 23.0269 17.5162 22.9881 17.5343 22.9453C17.5523 22.9024 17.5617 22.8564 17.5616 22.8098V4.55231C17.5616 4.55231 17.5616 4.49432 17.5616 4.46532" fill="#4E2583"/>
<path d="M21.8431 10.0224H20.6157V8.65964H21.8431V10.0224ZM21.2632 21.8043L20.2967 19.388H22.1331L21.2632 21.8043ZM22.3167 10.7183V18.6824H20.1807V10.7183H22.2877H22.3167ZM20.7027 1.18845C20.7038 1.11695 20.7195 1.04642 20.7485 0.981097C20.7776 0.915769 20.8196 0.856982 20.8719 0.808254C20.9243 0.759526 20.9859 0.721858 21.0531 0.697506C21.1204 0.673154 21.1918 0.662618 21.2632 0.666528C21.4017 0.666528 21.5344 0.721516 21.6323 0.819395C21.7302 0.917274 21.7852 1.05003 21.7852 1.18845V2.31927H20.7027V1.18845ZM20.1807 7.95408V3.01517H22.2877V7.90575H20.1807V7.95408ZM22.6357 8.65964C22.7289 8.65967 22.8184 8.62332 22.8852 8.55833C22.952 8.49334 22.9908 8.40485 22.9933 8.31169V2.66722C22.9908 2.57406 22.952 2.48557 22.8852 2.42058C22.8184 2.35559 22.7289 2.31924 22.6357 2.31927H22.4617V1.18845C22.4344 0.880457 22.2928 0.593853 22.0647 0.385092C21.8366 0.176331 21.5386 0.0605469 21.2294 0.0605469C20.9202 0.0605469 20.6222 0.176331 20.3941 0.385092C20.166 0.593853 20.0244 0.880457 19.9971 1.18845V2.31927H19.8231C19.7308 2.31927 19.6423 2.35593 19.5771 2.42119C19.5118 2.48644 19.4752 2.57494 19.4752 2.66722V8.26336C19.4752 8.35565 19.5118 8.44415 19.5771 8.5094C19.6423 8.57465 19.7308 8.61131 19.8231 8.61131H19.9101V10.0224H19.8231C19.7308 10.0224 19.6423 10.0591 19.5771 10.1243C19.5118 10.1896 19.4752 10.2781 19.4752 10.3704V19.069C19.4705 19.1076 19.4705 19.1465 19.4752 19.185L20.8863 22.9544C20.9161 23.0266 20.9699 23.0862 21.0386 23.1231C21.1073 23.1601 21.1866 23.1722 21.2632 23.1574C21.3353 23.1575 21.4056 23.1353 21.4645 23.0937C21.5233 23.0522 21.5678 22.9934 21.5918 22.9254L22.9933 19.156C23.002 19.1179 23.002 19.0782 22.9933 19.04V10.3414C22.9908 10.2482 22.952 10.1597 22.8852 10.0947C22.8184 10.0297 22.7289 9.9934 22.6357 9.99343H22.5487V8.65964H22.6357Z" fill="#4E2583"/>
<path d="M2.89975 3.1893H7.73234C7.81487 3.17875 7.89136 3.14049 7.94931 3.08079C8.00725 3.02109 8.04321 2.94349 8.05129 2.86069C8.05678 2.7689 8.02671 2.67853 7.96732 2.60833C7.90792 2.53814 7.82377 2.49352 7.73234 2.48375H2.89975C2.84914 2.47932 2.79817 2.48603 2.75042 2.50341C2.70268 2.52078 2.65932 2.54841 2.6234 2.58433C2.58747 2.62026 2.55985 2.66362 2.54247 2.71136C2.52509 2.7591 2.51838 2.81007 2.52281 2.86069C2.53023 2.95386 2.57384 3.04042 2.64429 3.10184C2.71474 3.16325 2.80644 3.19465 2.89975 3.1893Z" fill="#4E2583"/>
</svg>
