<svg width="24" height="24" viewBox="0 0 24 24" fill="none" xmlns="http://www.w3.org/2000/svg">
<path d="M20.3 20.55C18.66 20.55 17.32 19.22 17.32 17.58C17.32 15.94 18.65 14.61 20.3 14.61C21.94 14.61 23.27 15.94 23.27 17.58C23.27 19.21 21.94 20.55 20.3 20.55ZM9.42 16.96C9.34 16.96 9.27 16.98 9.2 17.03L5 20.13L5.26 17.35C5.27 17.25 5.24 17.15 5.17 17.07C5.1 17 5 16.96 4.9 16.96H1.25L7.57 10.72L10.86 13.97C10.93 14.04 11.02 14.07 11.12 14.07C11.21 14.07 11.3 14.03 11.38 13.97L14.67 10.72L18.4 14.4C17.49 14.95 16.83 15.87 16.65 16.96H9.42ZM0.73 16.45V3.95997L7.05 10.2L0.73 16.45ZM20.99 3.45997L11.12 13.2L1.25 3.45997H20.99ZM20.3 13.87C19.88 13.87 19.48 13.94 19.1 14.07L15.18 10.2L21.5 3.95997V14.08C21.13 13.94 20.72 13.87 20.3 13.87ZM22.24 14.42V3.08997V3.07997C22.24 3.03997 22.23 2.99997 22.22 2.95997C22.22 2.95997 22.22 2.94997 22.21 2.94997C22.19 2.90997 22.17 2.87997 22.14 2.84997C22.13 2.83997 22.12 2.82997 22.11 2.82997C22.09 2.80997 22.06 2.78997 22.03 2.77997C22.02 2.75997 22.01 2.75997 22 2.74997C21.96 2.73997 21.92 2.71997 21.87 2.71997H0.36C0.32 2.71997 0.27 2.72997 0.23 2.74997C0.22 2.75997 0.21 2.75997 0.2 2.76997C0.17 2.77997 0.15 2.79997 0.13 2.81997C0.12 2.82997 0.11 2.83997 0.1 2.84997C0.07 2.87997 0.05 2.90997 0.04 2.94997L0.03 2.95997C0.01 2.98997 0 3.03997 0 3.07997C0 3.08997 0 3.08997 0 3.08997V17.32C0 17.32 0 17.33 0 17.34C0 17.36 0.01 17.38 0.01 17.39C0.01 17.41 0.02 17.43 0.02 17.44C0.02 17.45 0.02 17.45 0.02 17.46C0.02 17.47 0.03 17.48 0.04 17.49C0.05 17.51 0.06 17.52 0.07 17.54C0.08 17.55 0.09 17.57 0.1 17.58C0.11 17.59 0.13 17.61 0.14 17.62C0.15 17.63 0.17 17.64 0.19 17.65C0.2 17.66 0.21 17.66 0.22 17.67C0.23 17.67 0.23 17.67 0.24 17.68C0.26 17.69 0.27 17.69 0.29 17.69C0.31 17.69 0.33 17.7 0.34 17.7C0.35 17.7 0.35 17.7 0.36 17.7H4.5L4.2 20.89C4.19 21.03 4.26 21.17 4.38 21.24C4.44 21.27 4.5 21.29 4.56 21.29C4.64 21.29 4.71 21.27 4.78 21.22L9.54 17.7H16.6C16.66 19.69 18.29 21.29 20.3 21.29C22.34 21.29 24 19.63 24 17.59C24 16.24 23.29 15.08 22.24 14.42Z" fill="#4E2583"/>
<path d="M20.7598 15.7401C20.6198 15.6801 20.4698 15.7201 20.3598 15.8201L19.2398 16.9401C19.0998 17.0801 19.0998 17.3101 19.2398 17.4501C19.3798 17.5901 19.6098 17.5901 19.7498 17.4501L20.2498 16.9501V19.0701C20.2498 19.2701 20.4098 19.4301 20.6098 19.4301C20.8098 19.4301 20.9698 19.2701 20.9698 19.0701V16.0701C20.9898 15.9201 20.8998 15.7901 20.7598 15.7401Z" fill="#4E2583"/>
</svg>
