<svg width="24" height="24" viewBox="0 0 24 24" fill="none" xmlns="http://www.w3.org/2000/svg">
<g clip-path="url(#clip0)">
<g clip-path="url(#clip1)">
<path d="M23.0218 15.5901L20.2673 14.4878L20.2249 14.4666C22.1277 14.0337 23.0283 13.3099 23.068 13.2767C23.115 13.2385 23.1513 13.1887 23.1733 13.1322C23.1953 13.0757 23.2022 13.0145 23.1935 12.9545C23.1935 12.9268 22.7958 10.1353 22.7958 7.37883C22.7783 6.12468 22.2681 4.92781 21.3753 4.0471C20.4826 3.16639 19.2792 2.67263 18.0254 2.67263C16.7716 2.67263 15.5681 3.16639 14.6754 4.0471C13.7827 4.92781 13.2724 6.12468 13.255 7.37883C13.255 8.09979 13.2227 8.98231 13.1692 9.81681L12.4023 10.2008L10.1507 9.0737L10.1313 9.06539C10.2409 8.74739 10.3095 8.4167 10.3353 8.08133C10.5323 8.02041 10.7094 7.90782 10.8481 7.75526C10.9869 7.6027 11.0823 7.41575 11.1244 7.21383C11.1665 7.0119 11.1538 6.80239 11.0876 6.60705C11.0213 6.41172 10.904 6.23769 10.7478 6.10307V3.76294C10.7466 3.44391 10.6675 3.13001 10.5172 2.8486C10.367 2.56718 10.1503 2.32679 9.88588 2.14839C9.79793 1.81794 9.60295 1.52598 9.33145 1.31819C9.05995 1.1104 8.72726 0.998505 8.38542 1.00002H5.16764C4.32961 1.00197 3.52652 1.33611 2.93429 1.92925C2.34206 2.52239 2.00897 3.32616 2.008 4.1645V6.10307C1.85151 6.23761 1.73396 6.41168 1.6676 6.60714C1.60125 6.80259 1.58852 7.01227 1.63074 7.21432C1.67297 7.41637 1.7686 7.6034 1.90767 7.75589C2.04673 7.90839 2.22415 8.02077 2.42141 8.08133C2.46434 8.64919 2.62907 9.20112 2.9044 9.69956C3.17972 10.198 3.55917 10.6312 4.01692 10.9698V11.9391L1.10735 12.8161C0.787025 12.9111 0.50606 13.1074 0.306461 13.3754C0.106862 13.6435 -0.000648133 13.969 2.93977e-06 14.3032V18.2284C0.000246525 18.3216 0.0373665 18.4109 0.103249 18.4768C0.169131 18.5427 0.258416 18.5798 0.351587 18.5801H0.401418V22.6483C0.401418 22.7416 0.43846 22.831 0.504394 22.897C0.570329 22.963 0.659756 23 0.753002 23C0.846248 23 0.935674 22.963 1.00161 22.897C1.06754 22.831 1.10459 22.7416 1.10459 22.6483V18.5801H2.41034V22.6483C2.41034 22.7416 2.44738 22.831 2.51331 22.897C2.57925 22.963 2.66868 23 2.76192 23C2.85517 23 2.94459 22.963 3.01053 22.897C3.07646 22.831 3.11351 22.7416 3.11351 22.6483V16.5843C3.11386 16.2766 3.02263 15.9758 2.85143 15.7202L2.25069 14.8183C2.22506 14.7799 2.19212 14.7469 2.15374 14.7212C2.11536 14.6955 2.0723 14.6776 2.02701 14.6686C1.98172 14.6595 1.9351 14.6595 1.8898 14.6685C1.8445 14.6775 1.80141 14.6953 1.763 14.7209C1.72458 14.7466 1.69159 14.7795 1.66591 14.8179C1.64023 14.8563 1.62236 14.8994 1.61332 14.9447C1.60428 14.99 1.60424 15.0366 1.61322 15.082C1.6222 15.1273 1.64001 15.1704 1.66564 15.2088L2.26638 16.1107C2.36036 16.2507 2.41048 16.4156 2.41034 16.5843V17.8766H0.703171V14.3032C0.702563 14.1195 0.761487 13.9404 0.871118 13.793C0.980749 13.6455 1.13519 13.5376 1.31129 13.4853L2.5183 13.1235C2.65976 13.7144 2.93497 14.265 3.32272 14.7328C3.71046 15.2006 4.2004 15.5731 4.75476 15.8216C5.30912 16.07 5.91311 16.1879 6.52018 16.166C7.12725 16.1441 7.72119 15.9831 8.25623 15.6953C8.36339 15.842 8.50364 15.9614 8.66559 16.0437C8.82754 16.1259 9.00661 16.1688 9.18825 16.1689H9.23901V16.2196C9.23936 16.7796 9.38826 17.3295 9.67052 17.8132C9.95277 18.2968 10.3583 18.6968 10.8456 18.9724V19.5457C10.8457 19.5563 10.8425 19.5666 10.8364 19.5753C10.8302 19.5839 10.8215 19.5903 10.8114 19.5937L9.49923 20.0312C9.18927 20.1344 8.91966 20.3326 8.72867 20.5977C8.53769 20.8629 8.43502 21.1814 8.43525 21.5082V22.6483C8.43525 22.7416 8.47229 22.831 8.53823 22.897C8.60416 22.963 8.69359 23 8.78684 23C8.88008 23 8.96951 22.963 9.03544 22.897C9.10138 22.831 9.13842 22.7416 9.13842 22.6483V21.5082C9.13821 21.3291 9.19445 21.1544 9.29915 21.0091C9.40385 20.8638 9.55168 20.7551 9.72163 20.6987L10.1074 20.5694C10.3598 20.9464 10.7013 21.2554 11.1014 21.469C11.5016 21.6827 11.9483 21.7945 12.4019 21.7945C12.8555 21.7945 13.3021 21.6827 13.7023 21.469C14.1025 21.2554 14.4439 20.9464 14.6964 20.5694L15.0821 20.6987C15.2521 20.7551 15.3999 20.8638 15.5046 21.0091C15.6093 21.1544 15.6655 21.3291 15.6653 21.5082V22.6483C15.6653 22.7416 15.7024 22.831 15.7683 22.897C15.8342 22.963 15.9237 23 16.0169 23C16.1102 23 16.1996 22.963 16.2655 22.897C16.3315 22.831 16.3685 22.7416 16.3685 22.6483V21.5082C16.3689 21.1814 16.2663 20.8628 16.0753 20.5976C15.8843 20.3325 15.6146 20.1343 15.3045 20.0312L13.9923 19.5937C13.9823 19.5903 13.9735 19.5839 13.9674 19.5753C13.9613 19.5666 13.958 19.5563 13.9582 19.5457V18.9724C14.6846 18.5602 15.2194 17.8783 15.4466 17.0744C15.8731 17.5216 16.4085 17.8502 17.0002 18.028C17.5919 18.2058 18.2197 18.2267 18.8219 18.0886C19.4241 17.9506 19.9801 17.6584 20.4354 17.2406C20.8907 16.8228 21.2296 16.2938 21.4189 15.7055L22.7607 16.2427C22.9194 16.3056 23.0554 16.415 23.1511 16.5564C23.2467 16.6979 23.2975 16.8649 23.2968 17.0357V18.6807H21.992V18.2284C21.992 18.1351 21.955 18.0456 21.889 17.9797C21.8231 17.9137 21.7337 17.8766 21.6404 17.8766C21.5472 17.8766 21.4577 17.9137 21.3918 17.9797C21.3259 18.0456 21.2888 18.1351 21.2888 18.2284V22.6483C21.2888 22.7416 21.3259 22.831 21.3918 22.897C21.4577 22.963 21.5472 23 21.6404 23C21.7337 23 21.8231 22.963 21.889 22.897C21.955 22.831 21.992 22.7416 21.992 22.6483V19.3841H22.8954V22.6483C22.8954 22.7416 22.9325 22.831 22.9984 22.897C23.0643 22.963 23.1538 23 23.247 23C23.3402 23 23.4297 22.963 23.4956 22.897C23.5615 22.831 23.5986 22.7416 23.5986 22.6483V19.3841H23.6484C23.7417 19.3841 23.8311 19.3471 23.897 19.2811C23.963 19.2151 24 19.1257 24 19.0324V17.0357C24.0014 16.7242 23.9087 16.4196 23.7342 16.1617C23.5597 15.9038 23.3114 15.7045 23.0218 15.5901ZM13.9582 7.37422C13.9743 6.30575 14.4098 5.28649 15.1708 4.53659C15.9318 3.7867 16.9572 3.36635 18.0254 3.36635C19.0936 3.36635 20.1189 3.7867 20.8799 4.53659C21.6409 5.28649 22.0765 6.30575 22.0926 7.37422C22.11 9.20078 22.2358 11.0247 22.4691 12.8364C22.1544 13.0431 21.347 13.4964 19.984 13.7955V13.2407C20.5946 12.8954 21.1023 12.3938 21.4552 11.7874C21.808 11.181 21.9933 10.4917 21.992 9.79004C21.992 7.80255 20.5552 7.5173 19.1655 7.24129C18.2815 7.06497 17.367 6.88404 16.638 6.30062C16.5862 6.259 16.5237 6.23295 16.4577 6.2255C16.3917 6.21804 16.3249 6.22948 16.2652 6.2585C16.2054 6.28751 16.1552 6.3329 16.1202 6.38938C16.0852 6.44587 16.067 6.51112 16.0677 6.57756C16.0677 6.58679 16.052 7.51176 14.7269 7.84316C14.6363 7.86581 14.5584 7.92352 14.5104 8.00358C14.4624 8.08365 14.4481 8.17953 14.4708 8.27011C14.4934 8.3607 14.5511 8.43858 14.6311 8.48662C14.7112 8.53466 14.807 8.54893 14.8976 8.52628C16.0049 8.24934 16.4589 7.62623 16.6435 7.1582C17.4057 7.61054 18.2602 7.78039 19.028 7.93271C20.5137 8.22811 21.2888 8.44412 21.2888 9.79189C21.2902 10.2793 21.1818 10.7608 20.9717 11.2006C20.7616 11.6403 20.4553 12.0272 20.0754 12.3323C19.5201 12.7809 18.8332 13.0349 18.1199 13.0556C17.4065 13.0763 16.7061 12.8624 16.1258 12.4468C15.921 11.8857 15.592 11.3783 15.1633 10.9624V9.3931C15.1633 9.33318 15.148 9.27425 15.1189 9.2219C15.0897 9.16956 15.0477 9.12553 14.9968 9.094C14.9458 9.06247 14.8877 9.04447 14.8279 9.04173C14.768 9.03898 14.7085 9.05158 14.6549 9.07831L13.8954 9.45772C13.9342 8.72106 13.9582 8.02502 13.9582 7.37883V7.37422ZM14.4602 9.95436V11.2274L13.1876 10.5913L14.4602 9.95436ZM10.3436 9.95436L11.6161 10.5913L10.3436 11.2274V9.95436ZM8.43525 13.8084V14.1426C8.30972 14.2505 8.20889 14.3842 8.13962 14.5346C8.07036 14.6849 8.03428 14.8485 8.03384 15.014C7.59102 15.2747 7.09295 15.4272 6.58012 15.4591C6.06729 15.4909 5.55418 15.4012 5.08254 15.1973C4.61089 14.9934 4.19402 14.6809 3.86582 14.2855C3.53763 13.89 3.30737 13.4226 3.19379 12.9213L4.06029 12.66C4.15546 13.1395 4.39709 13.5777 4.75183 13.9139C5.10657 14.2501 5.55691 14.4678 6.04066 14.537C6.52441 14.6063 7.01771 14.5235 7.45244 14.3002C7.88716 14.0769 8.24186 13.7241 8.46755 13.2905C8.44565 13.4623 8.43486 13.6353 8.43525 13.8084ZM4.72009 12.2003V11.3861C5.2398 11.625 5.805 11.7487 6.37696 11.7487C6.94892 11.7487 7.51412 11.625 8.03384 11.3861V12.2013C8.00414 12.6206 7.81668 13.013 7.50923 13.2996C7.20177 13.5861 6.79718 13.7455 6.37696 13.7455C5.95675 13.7455 5.55215 13.5861 5.2447 13.2996C4.93724 13.013 4.74978 12.6206 4.72009 12.2013V12.2003ZM6.3765 11.0455C5.5114 11.0445 4.68201 10.7003 4.07029 10.0884C3.45858 9.47642 3.11448 8.64673 3.11351 7.78132C3.11351 7.68804 3.07646 7.59858 3.01053 7.53262C2.94459 7.46666 2.85517 7.4296 2.76192 7.4296C2.642 7.4296 2.52699 7.38195 2.44219 7.29712C2.35739 7.21229 2.30975 7.09724 2.30975 6.97727C2.30975 6.8573 2.35739 6.74225 2.44219 6.65742C2.52699 6.57259 2.642 6.52494 2.76192 6.52494H3.56475C3.63857 6.52508 3.71056 6.50197 3.77052 6.45889C3.83048 6.41581 3.87536 6.35495 3.8988 6.28492L4.22086 5.31656C5.02922 5.2981 7.53368 5.18456 8.94371 4.47929C8.98503 4.45868 9.0219 4.43013 9.05219 4.39527C9.08248 4.36041 9.10562 4.31992 9.12027 4.27612C9.13492 4.23232 9.14081 4.18605 9.13759 4.13998C9.13437 4.0939 9.12211 4.04891 9.10151 4.00757C9.08091 3.96623 9.05237 3.92935 9.01752 3.89905C8.98268 3.86874 8.9422 3.8456 8.89842 3.83094C8.85463 3.81629 8.80838 3.8104 8.76232 3.81362C8.71626 3.81684 8.67128 3.8291 8.62996 3.84971C7.11658 4.60668 3.99754 4.61683 3.96617 4.61683C3.8925 4.61689 3.82072 4.64008 3.76095 4.68315C3.70117 4.72621 3.65643 4.78697 3.63304 4.85685L3.31191 5.82244H2.71117V4.16081C2.71287 3.5096 2.97223 2.88555 3.43254 2.42507C3.89285 1.96459 4.51667 1.70514 5.16764 1.70344H8.38542C8.58825 1.70312 8.78446 1.77562 8.93839 1.90775C9.09232 2.03988 9.19375 2.22288 9.22424 2.42348C9.23261 2.47574 9.25263 2.52545 9.28283 2.56892C9.31302 2.61238 9.3526 2.64849 9.39865 2.67457C9.5931 2.78242 9.75539 2.94004 9.86889 3.13129C9.9824 3.32253 10.043 3.54053 10.0446 3.76294V5.82336H9.99477H9.59336C9.50011 5.82336 9.41068 5.86042 9.34475 5.92637C9.27882 5.99233 9.24177 6.08179 9.24177 6.17507C9.24177 6.26835 9.27882 6.35781 9.34475 6.42377C9.41068 6.48973 9.50011 6.52678 9.59336 6.52678H9.99477C10.1147 6.52678 10.2297 6.57444 10.3145 6.65927C10.3993 6.7441 10.4469 6.85915 10.4469 6.97912C10.4469 7.09908 10.3993 7.21414 10.3145 7.29896C10.2297 7.38379 10.1147 7.43145 9.99477 7.43145C9.94857 7.43133 9.90279 7.44034 9.86008 7.45797C9.81737 7.47561 9.77857 7.50151 9.74589 7.53419C9.71322 7.56688 9.68733 7.6057 9.6697 7.64842C9.65208 7.69115 9.64307 7.73694 9.64319 7.78316C9.64148 8.64882 9.29658 9.47845 8.68417 10.09C8.07176 10.7016 7.24185 11.0453 6.3765 11.0455ZM8.73701 12.2013V10.9698C9.08723 10.71 9.39243 10.3944 9.64042 10.0356V10.9606C9.24977 11.3398 8.94132 11.7955 8.73424 12.2991C8.73516 12.2668 8.73701 12.2336 8.73701 12.2013ZM13.9969 20.3359C13.8039 20.5719 13.5609 20.762 13.2855 20.8926C13.01 21.0232 12.709 21.091 12.4042 21.091C12.0994 21.091 11.7984 21.0232 11.5229 20.8926C11.2475 20.762 11.0045 20.5719 10.8114 20.3359L11.0357 20.2611C11.1857 20.2109 11.3161 20.1149 11.4085 19.9865C11.5009 19.8581 11.5506 19.7039 11.5506 19.5457V19.2687C12.1084 19.4264 12.699 19.4264 13.2568 19.2687V19.5457C13.2567 19.704 13.3065 19.8584 13.3991 19.9868C13.4917 20.1152 13.6224 20.2112 13.7727 20.2611L13.9969 20.3359ZM15.2159 15.4654C15.1227 15.4654 15.0333 15.5025 14.9673 15.5684C14.9014 15.6344 14.8644 15.7239 14.8644 15.8171V16.2196C14.8644 16.8723 14.6052 17.4983 14.1438 17.9599C13.6824 18.4214 13.0567 18.6807 12.4042 18.6807C11.7517 18.6807 11.126 18.4214 10.6646 17.9599C10.2032 17.4983 9.94402 16.8723 9.94402 16.2196V15.8171C9.94378 15.7239 9.90665 15.6346 9.84077 15.5687C9.77489 15.5028 9.68561 15.4657 9.59243 15.4654H9.18825C9.08899 15.4658 8.99241 15.4332 8.91359 15.3729C8.83476 15.3125 8.77813 15.2278 8.75252 15.1319C8.72691 15.0359 8.73377 14.9342 8.77203 14.8426C8.81029 14.751 8.8778 14.6746 8.96401 14.6254C8.99506 14.6071 9.02308 14.584 9.04706 14.5571C9.91634 14.5322 12.7382 14.3725 14.5838 13.3099C14.6257 13.288 14.6628 13.2579 14.6928 13.2213C14.7228 13.1847 14.7451 13.1425 14.7584 13.0971C14.7717 13.0517 14.7757 13.004 14.7702 12.9571C14.7647 12.9101 14.7497 12.8647 14.7262 12.8236C14.7027 12.7825 14.6712 12.7466 14.6335 12.718C14.5959 12.6894 14.5528 12.6687 14.5069 12.6572C14.4611 12.6456 14.4134 12.6434 14.3666 12.6507C14.3199 12.658 14.2751 12.6747 14.235 12.6997C12.6127 13.6229 10.064 13.8075 9.1375 13.849V13.8084C9.13744 13.1598 9.33017 12.5258 9.69117 11.9871C9.73777 12.0607 9.80999 12.1143 9.89386 12.1377C9.97773 12.1611 10.0673 12.1525 10.1452 12.1136L12.3986 10.9873L14.6512 12.1136C14.6999 12.1379 14.7536 12.1506 14.8081 12.1505C14.8675 12.1511 14.926 12.1364 14.9781 12.1078C15.0301 12.0792 15.0739 12.0376 15.1052 11.9871C15.4666 12.5257 15.6594 13.1598 15.6589 13.8084V14.3217C15.6588 14.3833 15.675 14.4438 15.7058 14.4971C15.7365 14.5504 15.7808 14.5947 15.8342 14.6254C15.903 14.6644 15.9602 14.7208 16.0001 14.7891C16.04 14.8574 16.061 14.935 16.0612 15.014C16.061 15.1338 16.0132 15.2486 15.9284 15.3333C15.8437 15.4179 15.7288 15.4654 15.609 15.4654H15.2159ZM18.0277 17.4751C17.5506 17.4748 17.0812 17.3551 16.6621 17.127C16.2431 16.8988 15.8877 16.5695 15.6284 16.1689C15.8632 16.1678 16.092 16.0949 16.2843 15.9601C16.4765 15.8252 16.6229 15.6348 16.704 15.4144C16.785 15.1939 16.7967 14.954 16.7376 14.7267C16.6784 14.4994 16.5513 14.2956 16.3731 14.1426V13.8084C16.3731 13.6675 16.3658 13.5267 16.351 13.3866C17.2715 13.8167 18.3222 13.8762 19.2855 13.5527V14.0678C19.2847 14.2989 19.3535 14.5249 19.4831 14.7163C19.6126 14.9076 19.7969 15.0555 20.0117 15.1405L20.7693 15.4442C20.5908 16.0327 20.2276 16.548 19.7335 16.9138C19.2393 17.2796 18.6406 17.4764 18.0258 17.4751H18.0277Z" fill="#4E2583"/>
</g>
</g>
<defs>
<clipPath id="clip0">
<rect width="24" height="24" fill="white"/>
</clipPath>
<clipPath id="clip1">
<rect width="24" height="22" fill="white" transform="translate(0 1)"/>
</clipPath>
</defs>
</svg>
