<svg width="24" height="24" viewBox="0 0 24 24" fill="none" xmlns="http://www.w3.org/2000/svg">
<g clip-path="url(#clip0)">
<path d="M20.7946 23.27C20.1509 23.2852 19.526 23.0525 19.049 22.6199C18.5721 22.1874 18.2796 21.5881 18.2321 20.9459C18.1846 20.3038 18.3857 19.668 18.7937 19.1699C19.2018 18.6719 19.7857 18.3497 20.4246 18.27V20.76C20.4272 20.8564 20.4674 20.9479 20.5365 21.0152C20.6056 21.0824 20.6982 21.12 20.7946 21.12C20.8901 21.12 20.9817 21.0821 21.0492 21.0146C21.1167 20.947 21.1546 20.8555 21.1546 20.76V18.27C21.7923 18.3501 22.3749 18.6717 22.7825 19.1685C23.1901 19.6654 23.3916 20.2997 23.3454 20.9407C23.2993 21.5817 23.009 22.1806 22.5344 22.6139C22.0599 23.0473 21.4372 23.2821 20.7946 23.27ZM13.7246 13.48C13.1268 12.2802 12.2068 11.2706 11.0676 10.5641C9.92843 9.85765 8.61507 9.48227 7.27461 9.48C6.62909 9.47943 5.9865 9.56691 5.36461 9.74V7.3H7.43462C7.51342 7.58709 7.68425 7.84039 7.92089 8.02103C8.15753 8.20167 8.44691 8.29967 8.74461 8.3H16.5646C16.8623 8.29967 17.1517 8.20167 17.3883 8.02103C17.625 7.84039 17.7958 7.58709 17.8746 7.3H18.9746C19.3601 7.30264 19.7289 7.45763 20.0005 7.73114C20.2722 8.00466 20.4246 8.37451 20.4246 8.76V13.48H13.7246ZM12.1246 21.09L9.03461 18C9.22418 17.7317 9.35067 17.424 9.40461 17.1H13.7546C13.6784 18.5828 13.096 19.9947 12.1046 21.1L12.1246 21.09ZM0.764615 17.1H5.12462C5.1819 17.4248 5.3118 17.7324 5.50461 18L2.42461 21.09C1.43618 19.9837 0.857283 18.5718 0.784615 17.09L0.764615 17.1ZM2.42461 12.39L5.50461 15.46C5.31356 15.7285 5.18384 16.0358 5.12462 16.36H0.784615C0.857283 14.8782 1.43618 13.4663 2.42461 12.36V12.39ZM8.53461 15C8.27255 14.806 7.96701 14.6789 7.64462 14.63V10.26C9.12744 10.3362 10.5393 10.9186 11.6446 11.91L8.53461 15ZM7.64462 18.93C7.9663 18.8726 8.27068 18.7427 8.53461 18.55L11.6146 21.63C10.5083 22.6184 9.09637 23.1973 7.61461 23.27L7.64462 18.93ZM6.03462 18.53C6.30218 18.7228 6.60983 18.8527 6.93462 18.91V23.25C5.4525 23.1789 4.04003 22.5998 2.93461 21.61L6.03462 18.53ZM7.27461 15.3C7.47583 15.2833 7.67832 15.3085 7.86929 15.3741C8.06026 15.4396 8.23556 15.5441 8.38411 15.6808C8.53267 15.8175 8.65125 15.9836 8.73235 16.1685C8.81346 16.3534 8.85534 16.5531 8.85534 16.755C8.85534 16.9569 8.81346 17.1566 8.73235 17.3415C8.65125 17.5264 8.53267 17.6925 8.38411 17.8292C8.23556 17.966 8.06026 18.0704 7.86929 18.1359C7.67832 18.2015 7.47583 18.2267 7.27461 18.21C6.90955 18.1797 6.56922 18.0133 6.32113 17.7438C6.07305 17.4743 5.93534 17.1213 5.93534 16.755C5.93534 16.3887 6.07305 16.0358 6.32113 15.7662C6.56922 15.4967 6.90955 15.3303 7.27461 15.3ZM9.42461 16.39C9.36904 16.0664 9.2427 15.7591 9.05462 15.49L12.1246 12.42C13.116 13.5253 13.6984 14.9372 13.7746 16.42L9.42461 16.39ZM6.91462 10.26V14.61C6.59449 14.6683 6.29284 14.802 6.03462 15L2.94461 11.91C4.04907 10.9172 5.46143 10.3346 6.94461 10.26H6.91462ZM1.39461 2C1.22662 1.99737 1.06639 1.92879 0.948517 1.80905C0.830648 1.68931 0.764594 1.52802 0.764615 1.36C0.764615 1.19291 0.83099 1.03267 0.949138 0.914523C1.06729 0.796375 1.22753 0.73 1.39461 0.73H4.64462V2H1.39461ZM8.74461 6.3H16.5646C16.7344 6.3 16.8971 6.36743 17.0172 6.48745C17.1372 6.60747 17.2046 6.77026 17.2046 6.94C17.2046 7.10974 17.1372 7.27253 17.0172 7.39255C16.8971 7.51257 16.7344 7.58 16.5646 7.58H8.74461C8.57488 7.58 8.41209 7.51257 8.29207 7.39255C8.17204 7.27253 8.10461 7.10974 8.10461 6.94C8.10461 6.77026 8.17204 6.60747 8.29207 6.48745C8.41209 6.36743 8.57488 6.3 8.74461 6.3ZM21.1546 17.54V8.76C21.1546 8.18183 20.9249 7.62734 20.5161 7.21851C20.1073 6.80968 19.5528 6.58 18.9746 6.58H17.8746C17.7958 6.29291 17.625 6.03961 17.3883 5.85897C17.1517 5.67833 16.8623 5.58033 16.5646 5.58H8.74461C8.44691 5.58033 8.15753 5.67833 7.92089 5.85897C7.68425 6.03961 7.51342 6.29291 7.43462 6.58H5.36461V0.36C5.36493 0.269499 5.33115 0.1822 5.26999 0.115487C5.20884 0.0487739 5.1248 0.00754121 5.03462 0L1.39461 0C1.05276 0.0292865 0.734346 0.185778 0.502321 0.43853C0.270295 0.691283 0.141555 1.0219 0.141555 1.365C0.141555 1.7081 0.270295 2.03872 0.502321 2.29147C0.734346 2.54422 1.05276 2.70071 1.39461 2.73H4.64462V10C3.3086 10.5145 2.15482 11.413 1.32872 12.5823C0.502629 13.7515 0.0412074 15.1392 0.00263307 16.5703C-0.0359413 18.0015 0.350058 19.412 1.11197 20.6241C1.87388 21.8361 2.97758 22.7955 4.28394 23.3812C5.5903 23.9669 7.04082 24.1527 8.45264 23.9152C9.86445 23.6778 11.1744 23.0276 12.2172 22.0467C13.26 21.0659 13.9891 19.7982 14.3126 18.4036C14.636 17.0089 14.5393 15.5498 14.0346 14.21H20.4146V17.54C19.5896 17.6333 18.8315 18.0387 18.2959 18.6733C17.7604 19.3078 17.4881 20.1232 17.5348 20.9522C17.5815 21.7812 17.9437 22.5609 18.5471 23.1313C19.1505 23.7016 19.9493 24.0194 20.7796 24.0194C21.6099 24.0194 22.4087 23.7016 23.0121 23.1313C23.6156 22.5609 23.9778 21.7812 24.0245 20.9522C24.0712 20.1232 23.7988 19.3078 23.2633 18.6733C22.7278 18.0387 21.9697 17.6333 21.1446 17.54" fill="#4E2583"/>
</g>
<defs>
<clipPath id="clip0">
<rect width="24" height="24" fill="white"/>
</clipPath>
</defs>
</svg>
