<svg width="24" height="24" viewBox="0 0 24 24" fill="none" xmlns="http://www.w3.org/2000/svg">
<g clip-path="url(#clip0)">
<path d="M22.3376 21.2452H7.42028V3.79359H10.5593V7.78692H10.1177C9.74854 7.78692 9.39451 7.93356 9.13347 8.19459C8.87244 8.45563 8.72579 8.80966 8.72579 9.17882C8.72579 9.54797 8.87244 9.90201 9.13347 10.163C9.39451 10.4241 9.74854 10.5707 10.1177 10.5707H19.717C20.0862 10.5707 20.4402 10.4241 20.7013 10.163C20.9623 9.90201 21.1089 9.54797 21.1089 9.17882C21.1089 8.80966 20.9623 8.45563 20.7013 8.19459C20.4402 7.93356 20.0862 7.78692 19.717 7.78692H19.1987V3.79359H22.3184L22.3376 21.2452ZM4.49249 23.3378H2.9278C2.34537 23.338 1.78607 23.1099 1.36977 22.7026C0.953468 22.2953 0.713304 21.7411 0.700751 21.1588V3.92798C0.700751 3.33733 0.935386 2.77088 1.35304 2.35322C1.77069 1.93557 2.33715 1.70094 2.9278 1.70094H4.49249C4.78495 1.70094 5.07454 1.75854 5.34474 1.87046C5.61494 1.98238 5.86045 2.14642 6.06725 2.35322C6.27405 2.56003 6.43809 2.80553 6.55001 3.07573C6.66193 3.34593 6.71953 3.63552 6.71953 3.92798V21.1588C6.71699 21.7478 6.48124 22.3118 6.06386 22.7273C5.64649 23.1429 5.08148 23.3762 4.49249 23.3762V23.3378ZM10.0985 9.93717C9.91519 9.93717 9.7394 9.86435 9.60978 9.73473C9.48016 9.60512 9.40735 9.42932 9.40735 9.24601C9.40735 9.06271 9.48016 8.88691 9.60978 8.7573C9.7394 8.62768 9.91519 8.55486 10.0985 8.55486H10.5593V9.86997L10.0985 9.93717ZM11.2312 1.70094H18.5267V9.86997H11.2312V1.70094ZM19.1987 8.48767H19.6498C19.8331 8.48767 20.0089 8.56048 20.1386 8.6901C20.2682 8.81972 20.341 8.99551 20.341 9.17882C20.341 9.36212 20.2682 9.53792 20.1386 9.66754C20.0089 9.79715 19.8331 9.86997 19.6498 9.86997H19.1987V8.48767ZM22.6736 3.09284H19.1987V1.34576C19.1988 1.25734 19.165 1.17223 19.1043 1.10795C19.0436 1.04367 18.9606 1.0051 18.8723 1.00019H10.8856C10.7974 1.0051 10.7143 1.04367 10.6536 1.10795C10.5929 1.17223 10.5591 1.25734 10.5593 1.34576V3.09284H7.29549C7.12274 2.48473 6.75469 1.95036 6.24812 1.57217C5.74155 1.19398 5.12462 0.992983 4.49249 1.00019H2.9278C2.15208 1.00272 1.40885 1.31199 0.860328 1.86051C0.311807 2.40904 0.00253092 3.15226 0 3.92798L0 21.1588C0.0125943 21.9269 0.326609 22.6594 0.874318 23.1981C1.42203 23.7368 2.15954 24.0387 2.9278 24.0386H4.49249C5.12462 24.0458 5.74155 23.8448 6.24812 23.4666C6.75469 23.0884 7.12274 22.554 7.29549 21.9459H22.6544C22.7461 21.9459 22.834 21.9095 22.8988 21.8447C22.9636 21.7799 23 21.692 23 21.6004V3.44802C23 3.35546 22.9639 3.26654 22.8994 3.2002C22.8348 3.13386 22.747 3.09534 22.6544 3.09284" fill="#4E2583"/>
<path d="M20.3504 19.3159H18.6993V17.6552H20.3504V19.3159ZM18.6993 12.942H20.36V14.6026H18.6993V12.942ZM18.6993 15.2938H20.36V16.9545H18.6993V15.2938ZM20.7055 12.2412H18.3441C18.2525 12.2412 18.1646 12.2776 18.0998 12.3424C18.0349 12.4072 17.9985 12.4951 17.9985 12.5868V19.6615C17.9985 19.7541 18.0346 19.843 18.0991 19.9093C18.1637 19.9756 18.2516 20.0142 18.3441 20.0167H20.7055C20.7981 20.0142 20.886 19.9756 20.9505 19.9093C21.0151 19.843 21.0512 19.7541 21.0511 19.6615V12.5868C21.0511 12.4951 21.0147 12.4072 20.9499 12.3424C20.8851 12.2776 20.7972 12.2412 20.7055 12.2412Z" fill="#4E2583"/>
<path d="M15.7813 19.3159H14.1206V17.6552H15.7813V19.3159ZM11.7591 17.6552H13.439V19.3159H11.7591V17.6552ZM9.40729 17.6552H11.0584V19.3159H9.40729V17.6552ZM9.40729 12.942H11.0584V14.6026H9.40729V12.942ZM13.439 14.6026H11.7591V12.942H13.439V14.6026ZM15.8004 14.6026H14.1206V12.942H15.7813L15.8004 14.6026ZM14.1398 15.2938H15.8004V16.9545H14.1206L14.1398 15.2938ZM11.7783 15.2938H13.439V16.9545H11.7591L11.7783 15.2938ZM9.42649 15.2938H11.0776V16.9545H9.40729L9.42649 15.2938ZM16.146 12.2412H9.05212C8.96047 12.2412 8.87257 12.2776 8.80776 12.3424C8.74295 12.4072 8.70654 12.4951 8.70654 12.5868V14.9482V19.6615C8.70651 19.7541 8.74261 19.843 8.80716 19.9093C8.8717 19.9756 8.95959 20.0142 9.05212 20.0167H16.1268C16.2194 20.0142 16.3072 19.9756 16.3718 19.9093C16.4363 19.843 16.4724 19.7541 16.4724 19.6615V12.5868C16.4724 12.4951 16.436 12.4072 16.3712 12.3424C16.3064 12.2776 16.2185 12.2412 16.1268 12.2412" fill="#4E2583"/>
<path d="M17.0387 3.09277H12.8534C12.7609 3.09528 12.673 3.1338 12.6084 3.20014C12.5439 3.26647 12.5078 3.35539 12.5078 3.44795C12.5078 3.5396 12.5442 3.6275 12.609 3.69231C12.6738 3.75712 12.7617 3.79352 12.8534 3.79352H17.0387C17.1313 3.79356 17.2202 3.75746 17.2865 3.69291C17.3528 3.62837 17.3914 3.54047 17.3939 3.44795C17.3914 3.35452 17.3532 3.26558 17.2872 3.19949C17.2211 3.1334 17.1321 3.0952 17.0387 3.09277Z" fill="#4E2583"/>
<path d="M17.0387 5.18555H12.8534C12.7609 5.18805 12.673 5.22657 12.6084 5.29291C12.5439 5.35925 12.5078 5.44816 12.5078 5.54072C12.5078 5.63237 12.5442 5.72027 12.609 5.78508C12.6738 5.84989 12.7617 5.8863 12.8534 5.8863H17.0387C17.1313 5.88633 17.2202 5.85023 17.2865 5.78569C17.3528 5.72114 17.3914 5.63325 17.3939 5.54072C17.3914 5.44729 17.3532 5.35835 17.2872 5.29226C17.2211 5.22617 17.1321 5.18797 17.0387 5.18555Z" fill="#4E2583"/>
<path d="M17.0387 7.28809H12.8534C12.7617 7.28809 12.6738 7.32449 12.609 7.3893C12.5442 7.45411 12.5078 7.54201 12.5078 7.63366C12.5078 7.72531 12.5442 7.81321 12.609 7.87802C12.6738 7.94283 12.7617 7.97924 12.8534 7.97924H17.0387C17.1304 7.97924 17.2182 7.94283 17.2831 7.87802C17.3479 7.81321 17.3843 7.72531 17.3843 7.63366C17.3843 7.54201 17.3479 7.45411 17.2831 7.3893C17.2182 7.32449 17.1304 7.28809 17.0387 7.28809Z" fill="#4E2583"/>
</g>
<defs>
<clipPath id="clip0">
<rect width="23.43" height="24" fill="white"/>
</clipPath>
</defs>
</svg>
