<svg width="24" height="24" viewBox="0 0 24 24" fill="none" xmlns="http://www.w3.org/2000/svg">
<g clip-path="url(#clip0)">
<path d="M15.7901 7.8202C15.7875 7.72286 15.7477 7.63021 15.6789 7.56137C15.61 7.49252 15.5174 7.45272 15.4201 7.4502C15.3237 7.4528 15.2321 7.49293 15.1649 7.56204C15.0976 7.63115 15.06 7.72377 15.0601 7.8202C15.0601 7.91567 15.098 8.00724 15.1655 8.07475C15.233 8.14227 15.3246 8.1802 15.4201 8.1802C15.5165 8.18023 15.6091 8.14262 15.6782 8.07538C15.7473 8.00814 15.7875 7.91658 15.7901 7.8202Z" fill="#4E2583"/>
<path d="M17.2399 9.27002C17.1435 9.27263 17.0519 9.31275 16.9847 9.38186C16.9175 9.45097 16.8798 9.5436 16.8799 9.64002C16.8799 9.7355 16.9178 9.82706 16.9853 9.89458C17.0528 9.96209 17.1444 10 17.2399 10C17.3363 10.0001 17.4289 9.96245 17.498 9.89521C17.5671 9.82797 17.6073 9.73641 17.6099 9.64002C17.6074 9.54269 17.5676 9.45004 17.4987 9.38119C17.4299 9.31234 17.3372 9.27255 17.2399 9.27002Z" fill="#4E2583"/>
<path d="M16.15 12.18C16.2212 12.18 16.2908 12.1588 16.35 12.1193C16.4092 12.0797 16.4554 12.0235 16.4826 11.9577C16.5099 11.8919 16.517 11.8196 16.5031 11.7497C16.4892 11.6799 16.4549 11.6157 16.4046 11.5654C16.3543 11.5151 16.2901 11.4808 16.2203 11.4669C16.1504 11.453 16.0781 11.4601 16.0123 11.4874C15.9465 11.5146 15.8903 11.5608 15.8507 11.62C15.8112 11.6792 15.79 11.7488 15.79 11.82C15.79 11.9154 15.828 12.007 15.8955 12.0745C15.963 12.142 16.0546 12.18 16.15 12.18Z" fill="#4E2583"/>
<path d="M16.15 16.18C16.2212 16.18 16.2908 16.1588 16.35 16.1193C16.4092 16.0797 16.4554 16.0235 16.4826 15.9577C16.5099 15.8919 16.517 15.8196 16.5031 15.7497C16.4892 15.6799 16.4549 15.6157 16.4046 15.5654C16.3543 15.5151 16.2901 15.4808 16.2203 15.4669C16.1504 15.453 16.0781 15.4601 16.0123 15.4874C15.9465 15.5146 15.8903 15.5608 15.8507 15.62C15.8112 15.6792 15.79 15.7488 15.79 15.82C15.79 15.9154 15.828 16.007 15.8955 16.0745C15.963 16.142 16.0546 16.18 16.15 16.18Z" fill="#4E2583"/>
<path d="M18.7002 13.64C18.6977 13.5427 18.6579 13.45 18.589 13.3812C18.5202 13.3123 18.4275 13.2725 18.3302 13.27C18.2338 13.2726 18.1423 13.3128 18.075 13.3819C18.0078 13.451 17.9702 13.5436 17.9702 13.64C17.9702 13.7355 18.0081 13.8271 18.0757 13.8946C18.1432 13.9621 18.2347 14 18.3302 14C18.4266 14.0001 18.5193 13.9624 18.5884 13.8952C18.6575 13.828 18.6976 13.7364 18.7002 13.64Z" fill="#4E2583"/>
<path d="M17.2399 18.3602C17.2311 18.4132 17.2339 18.4674 17.2482 18.5192C17.2625 18.571 17.2879 18.619 17.3226 18.66C17.3573 18.701 17.4006 18.7339 17.4493 18.7565C17.4981 18.7791 17.5511 18.7908 17.6049 18.7908C17.6586 18.7908 17.7117 18.7791 17.7604 18.7565C17.8091 18.7339 17.8524 18.701 17.8871 18.66C17.9218 18.619 17.9472 18.571 17.9615 18.5192C17.9758 18.4674 17.9787 18.4132 17.9699 18.3602C17.9555 18.2737 17.9109 18.1952 17.8441 18.1385C17.7773 18.0819 17.6925 18.0508 17.6049 18.0508C17.5172 18.0508 17.4325 18.0819 17.3656 18.1385C17.2988 18.1952 17.2542 18.2737 17.2399 18.3602Z" fill="#4E2583"/>
<path d="M16.15 20.9099C16.1481 20.9839 16.1683 21.0568 16.2082 21.1192C16.2481 21.1815 16.3058 21.2305 16.3738 21.2597C16.4418 21.289 16.517 21.2971 16.5897 21.2832C16.6624 21.2692 16.7292 21.2338 16.7815 21.1814C16.8339 21.1291 16.8693 21.0623 16.8833 20.9896C16.8972 20.9169 16.8891 20.8417 16.8598 20.7737C16.8306 20.7057 16.7816 20.648 16.7193 20.6081C16.6569 20.5682 16.584 20.548 16.51 20.5499C16.4146 20.5499 16.323 20.5879 16.2555 20.6554C16.188 20.7229 16.15 20.8145 16.15 20.9099Z" fill="#4E2583"/>
<path d="M19.4199 4.36C18.4022 4.0426 17.3022 4.12117 16.3399 4.58C15.4729 4.96695 14.488 4.9957 13.5999 4.66V0.73H19.4199V4.36ZM20.5099 2.47199e-08H12.5099C12.4144 2.47199e-08 12.3229 0.0379285 12.2553 0.105442C12.1878 0.172955 12.1499 0.264522 12.1499 0.36C12.1499 0.456422 12.1875 0.549048 12.2547 0.618156C12.322 0.687265 12.4135 0.727394 12.5099 0.73H12.8799V7.27C12.8799 7.36548 12.9178 7.45705 12.9853 7.52456C13.0529 7.59207 13.1444 7.63 13.2399 7.63C13.3354 7.63 13.4269 7.59207 13.4945 7.52456C13.562 7.45705 13.5999 7.36548 13.5999 7.27V5.43C14.0141 5.55939 14.446 5.62349 14.8799 5.62C15.5062 5.63023 16.1262 5.49322 16.6899 5.22C17.1162 5.0244 17.5771 4.9157 18.0458 4.90025C18.5146 4.88479 18.9817 4.9629 19.4199 5.13V20.36C19.4199 21.1318 19.1133 21.872 18.5676 22.4177C18.0219 22.9634 17.2817 23.27 16.5099 23.27C15.7381 23.27 14.998 22.9634 14.4522 22.4177C13.9065 21.872 13.5999 21.1318 13.5999 20.36V19.25C13.5999 19.1545 13.562 19.063 13.4945 18.9954C13.4269 18.9279 13.3354 18.89 13.2399 18.89C13.1444 18.89 13.0529 18.9279 12.9853 18.9954C12.9178 19.063 12.8799 19.1545 12.8799 19.25V20.36C12.854 20.8534 12.9288 21.3469 13.0998 21.8104C13.2708 22.274 13.5344 22.6979 13.8745 23.0563C14.2145 23.4146 14.624 23.7001 15.078 23.8951C15.5319 24.0901 16.0208 24.1907 16.5149 24.1907C17.009 24.1907 17.4979 24.0901 17.9518 23.8951C18.4058 23.7001 18.8153 23.4146 19.1553 23.0563C19.4954 22.6979 19.759 22.274 19.93 21.8104C20.101 21.3469 20.1758 20.8534 20.1499 20.36V0.73H20.5099C20.6072 0.727471 20.6999 0.687677 20.7687 0.618829C20.8376 0.549981 20.8774 0.457333 20.8799 0.36C20.8773 0.263613 20.8372 0.172052 20.7681 0.104811C20.699 0.0375712 20.6063 -3.51977e-05 20.5099 2.47199e-08Z" fill="#4E2583"/>
<path d="M8.82 19.0001C8.14941 18.9988 7.48567 18.8652 6.86676 18.6071C6.24785 18.3489 5.68592 17.9713 5.21314 17.4957C4.74035 17.0201 4.366 16.456 4.11151 15.8356C3.85701 15.2152 3.72737 14.5507 3.73 13.8801C3.73 10.2601 7.73 5.88007 8.82 4.82007C9.88 5.90007 13.91 10.2601 13.91 13.8801C13.9126 14.5507 13.783 15.2152 13.5285 15.8356C13.274 16.456 12.8996 17.0201 12.4269 17.4957C11.9541 17.9713 11.3922 18.3489 10.7732 18.6071C10.1543 18.8652 9.49059 18.9988 8.82 19.0001ZM14.64 13.9101C14.64 9.43007 9.3 4.26007 9.07 4.00007C9.00176 3.93753 8.91256 3.90283 8.82 3.90283C8.72744 3.90283 8.63824 3.93753 8.57 4.00007C8.34 4.26007 3 9.43007 3 13.8801C3 15.4236 3.61318 16.904 4.70464 17.9954C5.7961 19.0869 7.27644 19.7001 8.82 19.7001C10.3636 19.7001 11.8439 19.0869 12.9354 17.9954C14.0268 16.904 14.64 15.4236 14.64 13.8801" fill="#4E2583"/>
<path d="M10.5398 11.2102C10.4979 11.234 10.4612 11.266 10.4319 11.3042C10.4025 11.3424 10.3812 11.3861 10.369 11.4327C10.3569 11.4794 10.3543 11.528 10.3613 11.5756C10.3683 11.6233 10.3848 11.6691 10.4098 11.7102C10.816 12.3247 11.054 13.035 11.0998 13.7702C11.0998 14.3749 10.8596 14.9549 10.432 15.3824C10.0044 15.81 9.42448 16.0502 8.81978 16.0502C8.76679 16.0414 8.71252 16.0443 8.66073 16.0586C8.60895 16.0729 8.5609 16.0983 8.51992 16.133C8.47894 16.1677 8.44602 16.211 8.42344 16.2597C8.40086 16.3084 8.38916 16.3615 8.38916 16.4152C8.38916 16.469 8.40086 16.522 8.42344 16.5708C8.44602 16.6195 8.47894 16.6628 8.51992 16.6975C8.5609 16.7322 8.60895 16.7576 8.66073 16.7719C8.71252 16.7862 8.76679 16.789 8.81978 16.7802C9.61543 16.7802 10.3785 16.4642 10.9411 15.9016C11.5037 15.339 11.8198 14.5759 11.8198 13.7802C11.7641 12.9093 11.4814 12.0681 10.9998 11.3402C10.9499 11.2576 10.8696 11.1978 10.7762 11.1735C10.6828 11.1492 10.5836 11.1624 10.4998 11.2102" fill="#4E2583"/>
</g>
<defs>
<clipPath id="clip0">
<rect width="24" height="24" fill="white"/>
</clipPath>
</defs>
</svg>
