<svg width="24" height="24" viewBox="0 0 24 24" fill="none" xmlns="http://www.w3.org/2000/svg">
<path d="M18.1743 8.23125C18.0815 8.23125 17.9924 8.26813 17.9268 8.33377C17.8612 8.3994 17.8243 8.48843 17.8243 8.58125V9.58125L16.7643 8.98125C16.7243 8.95805 16.6801 8.94301 16.6342 8.93699C16.5884 8.93097 16.5418 8.93409 16.4972 8.94618C16.4526 8.95827 16.4108 8.97908 16.3742 9.00741C16.3377 9.03575 16.3071 9.07104 16.2843 9.11125C16.237 9.19356 16.2241 9.29124 16.2484 9.38302C16.2728 9.47479 16.3324 9.55323 16.4143 9.60125L17.8243 10.4013V12.0113L15.9443 11.0113C15.9042 10.9883 15.86 10.9734 15.8142 10.9675C15.7684 10.9616 15.7219 10.9648 15.6774 10.9768C15.6328 10.9889 15.591 11.0096 15.5545 11.0379C15.5179 11.0661 15.4873 11.1012 15.4643 11.1413C15.4413 11.1813 15.4264 11.2255 15.4205 11.2713C15.4146 11.3171 15.4178 11.3636 15.4299 11.4082C15.4419 11.4527 15.4627 11.4945 15.4909 11.5311C15.5191 11.5676 15.5542 11.5983 15.5943 11.6213L17.8643 12.8513V14.5213L15.1743 13.0113C15.0934 12.9648 14.9974 12.9525 14.9074 12.9768C14.8173 13.0012 14.7407 13.0604 14.6943 13.1413C14.6479 13.2221 14.6355 13.3182 14.6599 13.4082C14.6843 13.4982 14.7434 13.5748 14.8243 13.6213L17.8243 15.3313V17.7113C17.1247 17.7285 16.4335 17.5557 15.8243 17.2113C15.7569 17.1696 15.677 17.1527 15.5985 17.1637C15.5199 17.1746 15.4477 17.2127 15.3943 17.2713C15.2544 17.4131 15.0879 17.5259 14.9043 17.6032C14.7206 17.6804 14.5235 17.7205 14.3243 17.7213C13.9867 17.7239 13.6583 17.6111 13.3936 17.4015C13.129 17.1919 12.9439 16.8981 12.8692 16.5689C12.7945 16.2396 12.8346 15.8947 12.9828 15.5914C13.1311 15.2881 13.3786 15.0446 13.6843 14.9013C13.7301 14.8775 13.7705 14.8444 13.8028 14.8041C13.835 14.7638 13.8585 14.7172 13.8717 14.6673C13.8849 14.6174 13.8875 14.5652 13.8793 14.5142C13.8712 14.4633 13.8524 14.4146 13.8243 14.3713C13.7079 14.2136 13.625 14.0339 13.5805 13.8431C13.536 13.6523 13.5309 13.4544 13.5656 13.2616C13.6002 13.0687 13.6738 12.885 13.7819 12.7216C13.89 12.5582 14.0304 12.4185 14.1943 12.3113C14.2464 12.281 14.2883 12.2357 14.3143 12.1813V12.1313C14.3441 12.0796 14.3598 12.0209 14.3598 11.9613C14.3598 11.9016 14.3441 11.8429 14.3143 11.7913C14.2327 11.6513 14.1864 11.4937 14.1792 11.3319C14.1721 11.1702 14.2043 11.0091 14.2732 10.8625C14.342 10.7159 14.4454 10.5883 14.5745 10.4905C14.7036 10.3928 14.8545 10.3278 15.0143 10.3013C15.0676 10.2941 15.1186 10.2752 15.1636 10.2457C15.2086 10.2163 15.2464 10.1772 15.2743 10.1313C15.2988 10.0851 15.3116 10.0336 15.3116 9.98125C15.3116 9.92895 15.2988 9.87745 15.2743 9.83125C15.2235 9.69001 15.1965 9.54133 15.1943 9.39125C15.1969 9.0429 15.3372 8.70972 15.5844 8.46433C15.8317 8.21894 16.1659 8.08124 16.5143 8.08125H16.7143C16.7826 8.11577 16.8602 8.12759 16.9357 8.115C17.0113 8.10241 17.0808 8.06607 17.1343 8.01125C17.1658 7.95469 17.1824 7.89101 17.1824 7.82625C17.1824 7.7615 17.1658 7.69782 17.1343 7.64125C17.0573 7.48706 17.0163 7.31744 17.0144 7.14513C17.0124 6.97282 17.0496 6.8023 17.123 6.64641C17.1964 6.49052 17.3043 6.3533 17.4384 6.24508C17.5725 6.13685 17.7294 6.06044 17.8972 6.02158C18.0651 5.98271 18.2396 5.98242 18.4076 6.02071C18.5757 6.059 18.7328 6.13488 18.8673 6.24265C19.0017 6.35042 19.11 6.48727 19.184 6.64291C19.2579 6.79855 19.2957 6.96894 19.2943 7.14125C19.2882 7.34145 19.2332 7.53711 19.1343 7.71125C19.1072 7.76202 19.093 7.81869 19.093 7.87625C19.093 7.93382 19.1072 7.99049 19.1343 8.04125C19.1631 8.09138 19.202 8.13502 19.2484 8.16943C19.2949 8.20384 19.3479 8.2283 19.4043 8.24125C19.8231 8.30135 20.2062 8.51031 20.4835 8.82986C20.7609 9.14941 20.9138 9.55816 20.9143 9.98125C20.917 10.2594 20.8517 10.534 20.7243 10.7813C20.6945 10.8348 20.6793 10.8953 20.6803 10.9566C20.6812 11.0179 20.6982 11.0778 20.7296 11.1305C20.761 11.1832 20.8056 11.2266 20.8591 11.2566C20.9126 11.2866 20.973 11.302 21.0343 11.3013C21.3694 11.3039 21.6898 11.4389 21.9259 11.6767C22.1619 11.9146 22.2943 12.2362 22.2943 12.5713C22.2966 12.825 22.2197 13.0732 22.0743 13.2813C22.0253 13.3525 22.0053 13.4397 22.0183 13.5251C22.0313 13.6105 22.0763 13.6878 22.1443 13.7413C22.4849 14.0515 22.7245 14.4569 22.832 14.9049C22.9395 15.3529 22.91 15.8229 22.7472 16.2539C22.5845 16.6849 22.2961 17.0571 21.9194 17.3223C21.5426 17.5875 21.0949 17.7335 20.6343 17.7413C20.2466 17.7434 19.8646 17.6471 19.5243 17.4613C19.4685 17.4469 19.41 17.4469 19.3543 17.4613H19.2143C18.9771 17.5633 18.7287 17.6371 18.4743 17.6813V16.8013L21.8643 14.8813C21.9452 14.8348 22.0043 14.7582 22.0287 14.6682C22.0531 14.5782 22.0407 14.4821 21.9943 14.4013C21.9479 14.3204 21.8712 14.2612 21.7812 14.2368C21.6912 14.2125 21.5952 14.2248 21.5143 14.2713L18.5643 15.9413V14.2713L21.0443 12.8613C21.0843 12.8383 21.1195 12.8076 21.1477 12.7711C21.1759 12.7345 21.1966 12.6927 21.2087 12.6482C21.2208 12.6036 21.2239 12.5571 21.218 12.5113C21.2121 12.4655 21.1973 12.4213 21.1743 12.3813C21.1513 12.3412 21.1207 12.3061 21.0841 12.2779C21.0475 12.2496 21.0058 12.2289 20.9612 12.2168C20.9166 12.2048 20.8701 12.2016 20.8243 12.2075C20.7785 12.2134 20.7343 12.2283 20.6943 12.2513L18.5643 13.4613V11.7913L19.9543 11.0113C19.9953 10.9893 20.0316 10.9593 20.0609 10.9232C20.0903 10.887 20.1121 10.8454 20.1251 10.8007C20.1382 10.756 20.1422 10.7091 20.1369 10.6629C20.1316 10.6166 20.1171 10.5718 20.0943 10.5313C20.0461 10.4496 19.9684 10.3895 19.8772 10.3634C19.786 10.3374 19.6883 10.3473 19.6043 10.3913L18.5343 11.0113V8.58125C18.5317 8.48752 18.4926 8.3985 18.4254 8.33313C18.3581 8.26777 18.2681 8.23122 18.1743 8.23125ZM17.8643 20.3513C15.6607 19.9869 13.4267 19.8395 11.1943 19.9113V18.2713C11.7658 18.1832 12.3259 18.0323 12.8643 17.8213C13.2718 18.2153 13.8174 18.4343 14.3843 18.4313C14.8855 18.4331 15.3724 18.2638 15.7643 17.9513C16.4103 18.2712 17.1234 18.4323 17.8443 18.4213L17.8643 20.3513ZM10.8643 8.35125C10.8175 8.34992 10.7709 8.35798 10.7273 8.37497C10.6837 8.39196 10.6439 8.41753 10.6103 8.45016C10.5767 8.4828 10.5501 8.52183 10.5319 8.56496C10.5136 8.60809 10.5043 8.65444 10.5043 8.70125V17.5913C8.64429 17.2613 7.50429 16.4713 7.03429 15.2313C5.86429 12.0113 9.68429 6.44125 10.8043 5.01125C12.0251 6.61112 13.0523 8.34989 13.8643 10.1913C13.6665 10.4219 13.5358 10.7023 13.4865 11.0021C13.4371 11.3018 13.4709 11.6094 13.5843 11.8913C13.3557 12.0965 13.1734 12.3479 13.0493 12.6289C12.9251 12.9099 12.8621 13.2141 12.8643 13.5213C12.8624 13.8432 12.9342 14.1613 13.0743 14.4513C12.6463 14.756 12.3422 15.2045 12.2174 15.7148C12.0925 16.2251 12.1553 16.7634 12.3943 17.2313C11.9871 17.3721 11.569 17.4791 11.1443 17.5513V8.66125C11.1457 8.61491 11.1376 8.56878 11.1205 8.52569C11.1034 8.4826 11.0776 8.44347 11.0449 8.41069C11.0121 8.3779 10.9729 8.35217 10.9298 8.33507C10.8868 8.31798 10.8406 8.30987 10.7943 8.31125L10.8643 8.35125ZM10.4343 19.9313C8.56011 20.0208 6.69684 20.2684 4.86429 20.6713V18.9113C5.43023 19.3707 6.13534 19.6246 6.86429 19.6313C7.41436 19.6281 7.95475 19.4863 8.43544 19.2188C8.91613 18.9514 9.32159 18.567 9.61429 18.1013C9.86429 18.1713 10.1443 18.2213 10.4243 18.2713L10.4343 19.9313ZM4.13429 17.6013C3.92611 17.7849 3.68196 17.9232 3.4174 18.0074C3.15284 18.0916 2.87366 18.1197 2.59762 18.0901C2.32159 18.0604 2.05474 17.9737 1.81408 17.8353C1.57341 17.6969 1.3642 17.5099 1.19975 17.2862C1.0353 17.0625 0.919223 16.8071 0.858902 16.5361C0.798581 16.2651 0.795339 15.9845 0.849383 15.7122C0.903427 15.4399 1.01357 15.1818 1.17281 14.9544C1.33205 14.727 1.53688 14.5352 1.77429 14.3913C1.81817 14.373 1.85776 14.3458 1.89048 14.3114C1.92321 14.2769 1.94835 14.236 1.96429 14.1913C1.98396 14.149 1.99416 14.1029 1.99416 14.0563C1.99416 14.0096 1.98396 13.9635 1.96429 13.9213C1.89351 13.7467 1.85947 13.5595 1.86429 13.3713C1.85348 13.0228 1.98096 12.6842 2.2189 12.4294C2.45683 12.1746 2.78591 12.0243 3.13429 12.0113C3.20324 12.0048 3.26923 11.9801 3.32547 11.9396C3.38172 11.8992 3.42618 11.8446 3.45429 11.7813C3.47867 11.7169 3.4841 11.6469 3.46992 11.5795C3.45574 11.5122 3.42255 11.4503 3.37429 11.4013C3.23926 11.2729 3.13291 11.1175 3.06225 10.9451C2.99159 10.7728 2.9582 10.5874 2.96429 10.4013C2.96429 10.0459 3.10547 9.70503 3.35676 9.45373C3.60806 9.20243 3.9489 9.06125 4.30429 9.06125C4.65968 9.06125 5.00051 9.20243 5.25181 9.45373C5.50311 9.70503 5.64429 10.0459 5.64429 10.4013C5.64921 10.4745 5.64921 10.548 5.64429 10.6213C5.63272 10.6772 5.63585 10.7351 5.65337 10.7895C5.6709 10.8438 5.70223 10.8926 5.74429 10.9313C5.78446 10.9711 5.83347 11.0009 5.88733 11.0183C5.94119 11.0357 5.99839 11.0401 6.05429 11.0313C6.23307 11.0016 6.41551 11.0016 6.59429 11.0313C6.16404 12.1828 6.00992 13.4193 6.14429 14.6413C6.26642 15.3803 6.59363 16.0702 7.08866 16.6324C7.58368 17.1946 8.22663 17.6066 8.94429 17.8213C8.71143 18.1415 8.40613 18.402 8.05332 18.5817C7.70052 18.7614 7.31021 18.855 6.91429 18.855C6.51837 18.855 6.12806 18.7614 5.77525 18.5817C5.42244 18.402 5.11714 18.1415 4.88429 17.8213V12.2213C4.89298 12.1696 4.89032 12.1168 4.87648 12.0663C4.86264 12.0158 4.83797 11.969 4.80417 11.929C4.77038 11.889 4.72828 11.8569 4.6808 11.8349C4.63333 11.8129 4.58162 11.8015 4.52929 11.8015C4.47695 11.8015 4.42525 11.8129 4.37777 11.8349C4.3303 11.8569 4.2882 11.889 4.2544 11.929C4.22061 11.969 4.19593 12.0158 4.1821 12.0663C4.16826 12.1168 4.1656 12.1696 4.17429 12.2213V13.6213L3.37429 13.2313C3.33323 13.2093 3.28811 13.1961 3.24171 13.1923C3.19532 13.1885 3.14865 13.1943 3.10459 13.2093C3.06053 13.2243 3.02001 13.2482 2.98556 13.2795C2.95111 13.3108 2.92344 13.3488 2.90429 13.3913C2.8822 13.4331 2.86881 13.4789 2.86492 13.526C2.86104 13.5732 2.86675 13.6206 2.8817 13.6654C2.89666 13.7103 2.92055 13.7517 2.95193 13.787C2.98331 13.8224 3.02153 13.8511 3.06429 13.8713L4.17429 14.4113V16.1113L2.57429 15.3213C2.53292 15.3002 2.48782 15.2876 2.44156 15.284C2.3953 15.2804 2.34879 15.286 2.30469 15.3004C2.26058 15.3148 2.21974 15.3377 2.18449 15.3679C2.14925 15.3981 2.1203 15.4349 2.09929 15.4763C2.07828 15.5176 2.06562 15.5627 2.06204 15.609C2.05845 15.6552 2.06402 15.7017 2.07841 15.7459C2.10748 15.8349 2.17074 15.9088 2.25429 15.9513L4.17429 16.9513V17.6313L4.13429 17.6013ZM7.17429 4.54125C7.63188 5.44541 8.03266 6.37722 8.37429 7.33125C7.78818 8.3187 7.28319 9.35209 6.86429 10.4213C6.70633 10.3888 6.54555 10.372 6.38429 10.3713C6.37135 10.0538 6.28297 9.74398 6.12646 9.46748C5.96995 9.19097 5.74981 8.95574 5.48429 8.78125C5.9037 7.30942 6.45944 5.8799 7.14429 4.51125L7.17429 4.54125ZM15.1443 2.94125C15.7896 3.84594 16.3646 4.79873 16.8643 5.79125C16.5273 6.14047 16.3375 6.60594 16.3343 7.09125C16.3249 7.18769 16.3249 7.28481 16.3343 7.38125C15.8392 7.431 15.3805 7.66348 15.0477 8.0333C14.7148 8.40312 14.5318 8.88372 14.5343 9.38125C14.5343 9.48125 14.5343 9.59125 14.5343 9.69125H14.4443C13.9866 8.65085 13.4483 7.64779 12.8343 6.69125C13.471 5.37034 14.2346 4.11443 15.1143 2.94125H15.1443ZM23.6543 22.0113C22.0122 21.2989 20.2945 20.7756 18.5343 20.4513V18.3713C18.8283 18.3253 19.1166 18.2482 19.3943 18.1413C19.8017 18.3304 20.2451 18.4293 20.6943 18.4313C21.4899 18.4313 22.253 18.1152 22.8156 17.5526C23.3782 16.99 23.6943 16.2269 23.6943 15.4313C23.6939 14.6602 23.3967 13.919 22.8643 13.3613C22.9918 13.0997 23.0568 12.8122 23.0543 12.5213C23.0523 12.0776 22.9028 11.6473 22.6295 11.2979C22.3561 10.9485 21.9744 10.6999 21.5443 10.5913C21.6049 10.3765 21.6352 10.1544 21.6343 9.93125C21.6335 9.41607 21.4722 8.91393 21.1729 8.49459C20.8737 8.07525 20.4512 7.75952 19.9643 7.59125C20.0152 7.42938 20.0421 7.26093 20.0443 7.09125C20.0407 6.78424 19.9617 6.48283 19.814 6.21363C19.6664 5.94443 19.4547 5.71572 19.1978 5.54769C18.9408 5.37967 18.6464 5.27751 18.3406 5.25023C18.0348 5.22294 17.7269 5.27138 17.4443 5.39125C16.8682 4.28323 16.1992 3.2261 15.4443 2.23125L15.3743 2.12125L15.2843 2.01125C15.232 1.99625 15.1766 1.99625 15.1243 2.01125C15.0718 1.9977 15.0168 1.9977 14.9643 2.01125C14.9192 2.03521 14.8838 2.07409 14.8643 2.12125C14.8363 2.14082 14.8152 2.16886 14.8043 2.20125C13.8985 3.40735 13.1147 4.70035 12.4643 6.06125C12.0575 5.45042 11.6168 4.86283 11.1443 4.30125L11.0843 4.22125L10.9943 4.15125C10.9422 4.13509 10.8864 4.13509 10.8343 4.15125C10.7818 4.1377 10.7268 4.1377 10.6743 4.15125L10.5743 4.22125C10.5712 4.24783 10.5712 4.27467 10.5743 4.30125C9.9493 5.01489 9.37776 5.77361 8.86429 6.57125C8.47978 5.58178 8.02183 4.62244 7.49429 3.70125C7.47393 3.64905 7.44333 3.60145 7.40429 3.56125H7.34429C7.28859 3.54641 7.22998 3.54641 7.17429 3.56125C7.11859 3.54641 7.05998 3.54641 7.00429 3.56125H6.94429C6.89916 3.59826 6.86466 3.64656 6.84429 3.70125C5.99441 5.2151 5.32325 6.82254 4.84429 8.49125C4.68669 8.45527 4.52589 8.43517 4.36429 8.43125C4.01332 8.43517 3.66918 8.52869 3.3645 8.70295C3.05983 8.8772 2.80473 9.12642 2.62342 9.42694C2.4421 9.72747 2.34057 10.0693 2.32848 10.4201C2.31638 10.7709 2.39411 11.1189 2.55429 11.4313C2.15191 11.5648 1.80237 11.8227 1.55613 12.1678C1.30988 12.5129 1.17967 12.9273 1.18429 13.3513C1.18292 13.5303 1.20648 13.7087 1.25429 13.8813C0.950934 14.0782 0.68935 14.333 0.48447 14.6311C0.27959 14.9292 0.135426 15.2647 0.0602107 15.6185C-0.0150047 15.9723 -0.0197993 16.3374 0.0461007 16.6931C0.112001 17.0487 0.247305 17.3879 0.444288 17.6913C0.64127 17.9946 0.896074 18.2562 1.19415 18.4611C1.49223 18.666 1.82774 18.8101 2.18153 18.8853C2.53532 18.9605 2.90046 18.9653 3.25611 18.8994C3.61175 18.8335 3.95093 18.6982 4.25429 18.5013V20.8213C3.01828 21.1109 1.81026 21.5091 0.644288 22.0113C0.560614 22.0523 0.496141 22.1243 0.464435 22.2119C0.432728 22.2996 0.43626 22.3961 0.474288 22.4813C0.513586 22.5667 0.58477 22.6334 0.672607 22.667C0.760445 22.7007 0.85796 22.6986 0.944288 22.6613C7.12429 19.8613 17.1843 19.8613 23.3643 22.6613C23.4105 22.6707 23.4581 22.6707 23.5043 22.6613C23.5724 22.6735 23.6425 22.6658 23.7064 22.6392C23.7702 22.6126 23.825 22.5682 23.8643 22.5113C23.9016 22.4249 23.9037 22.3274 23.8701 22.2396C23.8364 22.1517 23.7697 22.0806 23.6843 22.0413" fill="#4E2583"/>
</svg>
