<svg width="24" height="24" viewBox="0 0 24 24" fill="none" xmlns="http://www.w3.org/2000/svg">
<g clip-path="url(#clip0)">
<path d="M11.9494 6.94996C12.1293 6.94996 12.3053 7.00333 12.4549 7.10332C12.6046 7.20332 12.7212 7.34544 12.7901 7.51172C12.859 7.678 12.877 7.86097 12.8419 8.03749C12.8068 8.21402 12.7201 8.37616 12.5928 8.50343C12.4656 8.6307 12.3034 8.71736 12.1269 8.75248C11.9504 8.78759 11.7674 8.76957 11.6011 8.70069C11.4348 8.63182 11.2927 8.51518 11.1927 8.36553C11.0927 8.21588 11.0394 8.03994 11.0394 7.85996C11.0394 7.61862 11.1352 7.38715 11.3059 7.21649C11.4765 7.04584 11.708 6.94996 11.9494 6.94996ZM11.9494 9.48996C12.275 9.48991 12.5932 9.39292 12.8635 9.21135C13.1338 9.02978 13.344 8.77186 13.4672 8.47044C13.5904 8.16901 13.6211 7.83774 13.5553 7.51882C13.4896 7.1999 13.3304 6.90777 13.098 6.67965C12.8656 6.45153 12.5706 6.29775 12.2505 6.2379C11.9304 6.17805 11.5998 6.21484 11.3007 6.34358C11.0016 6.47232 10.7476 6.68718 10.571 6.9608C10.3945 7.23441 10.3034 7.55439 10.3094 7.87996C10.3146 8.31053 10.4901 8.72151 10.7973 9.02317C11.1046 9.32482 11.5188 9.49264 11.9494 9.48996Z" fill="#4E2583"/>
<path d="M20.1694 23.15C20.2925 22.8763 20.3572 22.58 20.3594 22.28C20.3583 22.1353 20.3416 21.9911 20.3094 21.85C20.4286 21.8099 20.5536 21.7896 20.6794 21.79C21.0189 21.7978 21.3419 21.9383 21.5793 22.1812C21.8166 22.4242 21.9495 22.7504 21.9494 23.09V23.15H20.1694ZM19.3594 23.15H17.4294C17.6759 22.7208 17.8069 22.235 17.8094 21.74C17.8111 21.3985 17.7501 21.0595 17.6294 20.74C17.7655 20.6973 17.9068 20.6738 18.0494 20.67C18.4684 20.67 18.8703 20.8365 19.1666 21.1328C19.4629 21.4291 19.6294 21.831 19.6294 22.25C19.6304 22.5608 19.5362 22.8644 19.3594 23.12V23.15ZM16.5394 23.12H13.6294C13.7212 22.8876 13.7687 22.6399 13.7694 22.39C13.7692 22.0885 13.706 21.7904 13.5837 21.5149C13.4614 21.2393 13.2828 20.9924 13.0594 20.79C13.1939 20.523 13.3837 20.2876 13.616 20.0995C13.8484 19.9114 14.1181 19.7748 14.4073 19.6988C14.6965 19.6228 14.9985 19.6091 15.2933 19.6586C15.5882 19.7082 15.8691 19.8198 16.1176 19.9862C16.366 20.1525 16.5763 20.3698 16.7344 20.6235C16.8925 20.8773 16.9949 21.1617 17.0348 21.458C17.0747 21.7543 17.0512 22.0557 16.9657 22.3423C16.8803 22.6288 16.735 22.8939 16.5394 23.12ZM12.8294 23.12H10.3694C10.231 22.9018 10.1581 22.6484 10.1594 22.39C10.1594 22.0081 10.3111 21.6418 10.5811 21.3718C10.8512 21.1017 11.2175 20.95 11.5994 20.95C11.9813 20.95 12.3476 21.1017 12.6176 21.3718C12.8877 21.6418 13.0394 22.0081 13.0394 22.39C13.0407 22.6484 12.9678 22.9018 12.8294 23.12ZM9.43938 22.39C9.43683 22.6393 9.48092 22.8869 9.56938 23.12H7.30938C7.02867 22.7306 6.90663 22.249 6.96802 21.773C7.02942 21.2969 7.26965 20.8621 7.63996 20.5566C8.01027 20.2512 8.48291 20.0982 8.96196 20.1285C9.441 20.1588 9.89056 20.3703 10.2194 20.72C9.97423 20.9236 9.77716 21.1789 9.64231 21.4676C9.50745 21.7563 9.43815 22.0713 9.43938 22.39ZM10.7994 17.5H13.0994C13.0836 18.1688 13.1237 18.8378 13.2194 19.5C12.8971 19.7519 12.6314 20.0688 12.4394 20.43C12.1737 20.3173 11.888 20.2594 11.5994 20.26C11.3504 20.2617 11.1036 20.3057 10.8694 20.39C10.7813 20.282 10.6879 20.1785 10.5894 20.08C10.7429 19.2423 10.8133 18.3915 10.7994 17.54V17.5ZM10.0294 16.81L10.3594 15.72H13.5394L13.8594 16.81H10.0294ZM9.88938 4.4H14.0194C14.7311 6.08639 15.0616 7.90915 14.9873 9.73808C14.913 11.567 14.4356 13.3569 13.5894 14.98H10.3194C9.47312 13.3569 8.99578 11.567 8.92145 9.73808C8.84711 7.90915 9.17763 6.08639 9.88938 4.4ZM6.56938 16.02C6.47938 14.56 6.48938 11.28 8.18938 8.88C8.14059 10.9559 8.58979 13.0133 9.49938 14.88C8.43131 14.8938 7.39908 15.2673 6.56938 15.94V16.02ZM11.9494 0.81C12.642 1.69199 13.2293 2.65182 13.6994 3.67H10.1994C10.6694 2.65182 11.2567 1.69199 11.9494 0.81ZM15.7094 8.88C17.4094 11.24 17.4194 14.52 17.3294 15.98C16.5005 15.3059 15.4677 14.9323 14.3994 14.92C15.309 13.0533 15.7582 10.9959 15.7094 8.92V8.88ZM4.18938 23.15C4.04138 22.9345 3.9581 22.6812 3.94938 22.42C3.94751 22.1544 4.01963 21.8936 4.15767 21.6667C4.2957 21.4398 4.49419 21.2558 4.7309 21.1354C4.9676 21.015 5.23317 20.9628 5.49784 20.9848C5.7625 21.0069 6.01581 21.1021 6.22938 21.26C6.16539 21.4879 6.13176 21.7233 6.12938 21.96C6.12793 22.3743 6.22747 22.7828 6.41938 23.15H4.18938ZM1.94938 23.15C1.9447 23.1303 1.9447 23.1097 1.94938 23.09C1.94938 22.7452 2.08634 22.4146 2.33014 22.1708C2.57394 21.927 2.9046 21.79 3.24938 21.79H3.32938C3.2736 21.9921 3.24337 22.2004 3.23938 22.41C3.24002 22.6599 3.28751 22.9076 3.37938 23.14L1.94938 23.15ZM23.5694 23.15H22.6694C22.6694 23.15 22.6694 23.15 22.6694 23.09C22.6694 22.5596 22.4587 22.0509 22.0836 21.6758C21.7085 21.3007 21.1998 21.09 20.6694 21.09C20.4617 21.0867 20.2551 21.1205 20.0594 21.19C19.8612 20.8324 19.5716 20.5338 19.2202 20.3247C18.8688 20.1157 18.4682 20.0036 18.0594 20C17.8003 19.9976 17.5429 20.0416 17.2994 20.13C16.9346 19.6027 16.4005 19.216 15.7857 19.0341C15.1709 18.8522 14.5123 18.8861 13.9194 19.13C13.8553 18.6092 13.8286 18.0846 13.8394 17.56H14.3594C14.4175 17.5596 14.4748 17.5459 14.5268 17.5199C14.5788 17.4939 14.6242 17.4563 14.6594 17.41C14.6945 17.3655 14.7176 17.3126 14.7263 17.2566C14.7351 17.2005 14.7293 17.1431 14.7094 17.09L14.2994 15.71C14.8689 15.7067 15.4324 15.8276 15.9505 16.0642C16.4686 16.3008 16.9289 16.6474 17.2994 17.08C17.3347 17.1196 17.3778 17.1515 17.426 17.1739C17.4741 17.1962 17.5263 17.2085 17.5794 17.21H17.6794C17.7529 17.1896 17.8184 17.1469 17.8667 17.0878C17.915 17.0287 17.9439 16.9561 17.9494 16.88C17.9494 16.64 18.8294 10.98 15.5994 7.68C15.4315 6.41426 15.0952 5.17664 14.5994 4C14.5937 3.92975 14.5656 3.86317 14.5194 3.81C13.9491 2.43133 13.1737 1.14681 12.2194 0H12.1294H12.0794H11.9194H11.8694L11.7794 0.05C10.7843 1.16981 9.96492 2.43422 9.34938 3.8C9.30311 3.85317 9.27507 3.91975 9.26938 3.99C8.77821 5.16823 8.44207 6.40523 8.26938 7.67C5.04938 10.97 5.88938 16.63 5.94938 16.88C5.95973 16.9495 5.98969 17.0147 6.03574 17.0678C6.08178 17.121 6.14202 17.1599 6.20938 17.18H6.30938C6.36266 17.1798 6.41526 17.168 6.46358 17.1456C6.51191 17.1232 6.55482 17.0905 6.58938 17.05C6.95988 16.6174 7.42019 16.2708 7.93829 16.0342C8.45639 15.7976 9.01982 15.6767 9.58938 15.68L9.17938 17.06C9.1595 17.1131 9.15366 17.1705 9.16242 17.2266C9.17118 17.2826 9.19424 17.3355 9.22938 17.38C9.26353 17.425 9.30728 17.4618 9.35745 17.4877C9.40761 17.5137 9.46293 17.5281 9.51938 17.53H10.0494C10.0758 18.2249 10.0424 18.9208 9.94938 19.61C9.59548 19.4327 9.20518 19.3403 8.80938 19.34C8.35961 19.337 7.91659 19.4495 7.52267 19.6666C7.12875 19.8837 6.79709 20.1982 6.55938 20.58C6.21678 20.3676 5.82243 20.2535 5.41938 20.25C5.08306 20.2496 4.75135 20.3281 4.45089 20.4792C4.15043 20.6303 3.8896 20.8498 3.68938 21.12C3.39194 21.0512 3.0827 21.0514 2.78536 21.1206C2.48801 21.1898 2.21046 21.3262 1.97396 21.5192C1.73747 21.7123 1.54831 21.9569 1.42098 22.2344C1.29365 22.5119 1.23153 22.8148 1.23938 23.12V23.18H0.309378C0.222942 23.1944 0.144405 23.2389 0.0877501 23.3058C0.0310954 23.3726 0 23.4574 0 23.545C0 23.6326 0.0310954 23.7174 0.0877501 23.7842C0.144405 23.8511 0.222942 23.8956 0.309378 23.91H23.5894C23.6758 23.8956 23.7544 23.8511 23.811 23.7842C23.8677 23.7174 23.8988 23.6326 23.8988 23.545C23.8988 23.4574 23.8677 23.3726 23.811 23.3058C23.7544 23.2389 23.6758 23.1944 23.5894 23.18" fill="#4E2583"/>
</g>
<defs>
<clipPath id="clip0">
<rect width="23.43" height="24" fill="white"/>
</clipPath>
</defs>
</svg>
