<svg width="24" height="24" viewBox="0 0 24 24" fill="none" xmlns="http://www.w3.org/2000/svg">
<g clip-path="url(#clip0)">
<path d="M1.28003 19.1416C0.29141 17.3485 -0.140301 15.3013 0.0400259 13.2616C0.0400259 10.8316 -0.269974 1.08163 3.11003 2.07163C3.2025 2.10993 3.27726 2.1815 3.31954 2.27222C3.36183 2.36293 3.36857 2.46621 3.33843 2.56165C3.30829 2.6571 3.24346 2.73777 3.15674 2.78776C3.07003 2.83774 2.96772 2.85339 2.87003 2.83163C0.660026 2.28163 0.860026 11.4116 0.840026 13.2916C1.39652 12.6056 2.11145 12.065 2.92324 11.7166C3.73503 11.3682 4.61935 11.2224 5.50003 11.2916C7.58003 11.2916 10.01 12.2016 10.72 14.2916C10.8965 14.1059 11.1108 13.9601 11.3484 13.8643C11.586 13.7685 11.8414 13.7247 12.0974 13.7361C12.3533 13.7475 12.6039 13.8137 12.8321 13.9302C13.0602 14.0468 13.2608 14.2109 13.42 14.4116C14.06 12.2016 16.55 11.2516 18.67 11.2516C19.5524 11.1798 20.439 11.3245 21.2528 11.673C22.0666 12.0215 22.7831 12.5634 23.34 13.2516C23.34 11.3716 23.53 2.25163 21.34 2.78163C21.2533 2.79285 21.1653 2.77536 21.0895 2.73183C21.0137 2.68831 20.9543 2.62115 20.9202 2.54063C20.8862 2.4601 20.8795 2.37065 20.9011 2.28595C20.9228 2.20126 20.9716 2.12598 21.04 2.07163C24.41 1.07163 24.04 10.8316 24.1 13.2616C24.2767 15.3023 23.8415 17.3493 22.85 19.1416C22.3791 19.8154 21.7449 20.3587 21.0069 20.7207C20.2689 21.0827 19.4511 21.2516 18.63 21.2116C17.8092 21.2498 16.9921 21.08 16.2544 20.7182C15.5167 20.3563 14.8823 19.814 14.41 19.1416C13.6719 18.0572 13.2622 16.783 13.23 15.4716C12.36 14.4716 11.82 14.2316 10.86 15.2816C10.8797 16.6585 10.4708 18.0074 9.69003 19.1416C9.21685 19.8155 8.58085 20.3587 7.84125 20.7206C7.10164 21.0826 6.28248 21.2515 5.46003 21.2116C4.64587 21.243 3.83683 21.07 3.10669 20.7084C2.37656 20.3468 1.74858 19.8082 1.28003 19.1416ZM15.13 18.7216C15.5307 19.2786 16.0648 19.726 16.6833 20.023C17.3017 20.32 17.9848 20.4571 18.67 20.4216C19.3565 20.456 20.0407 20.3186 20.6606 20.0217C21.2805 19.7249 21.8165 19.278 22.22 18.7216C24.49 14.9916 22.76 12.1116 18.67 12.1116C14.58 12.1116 12.85 15.0016 15.13 18.7216ZM1.96003 18.7216C2.36072 19.2786 2.89478 19.726 3.51325 20.023C4.13173 20.32 4.81485 20.4571 5.50003 20.4216C6.18482 20.4544 6.867 20.3161 7.48501 20.0193C8.10302 19.7225 8.63743 19.2766 9.04003 18.7216C11.31 14.9916 9.58003 12.1116 5.49003 12.1116C1.40003 12.1116 -0.309974 15.0016 1.96003 18.7216Z" fill="#4E2583"/>
</g>
<defs>
<clipPath id="clip0">
<rect width="24" height="24" fill="white"/>
</clipPath>
</defs>
</svg>
