<svg width="24" height="24" viewBox="0 0 24 24" fill="none" xmlns="http://www.w3.org/2000/svg">
<g clip-path="url(#clip0)">
<path d="M13.28 4.6C13.4422 4.6 13.6007 4.64809 13.7356 4.73819C13.8704 4.8283 13.9755 4.95636 14.0376 5.1062C14.0996 5.25604 14.1159 5.42091 14.0842 5.57997C14.0526 5.73904 13.9745 5.88515 13.8598 5.99983C13.7451 6.11451 13.599 6.1926 13.44 6.22424C13.2809 6.25588 13.116 6.23965 12.9662 6.17758C12.8164 6.11552 12.6883 6.01042 12.5982 5.87557C12.5081 5.74072 12.46 5.58218 12.46 5.42C12.46 5.20252 12.5464 4.99395 12.7002 4.84017C12.854 4.68639 13.0625 4.6 13.28 4.6ZM6.61 12.6C6.7726 12.6 6.93153 12.6484 7.06659 12.7389C7.20165 12.8295 7.30673 12.9581 7.36849 13.1086C7.43025 13.259 7.44589 13.4244 7.41344 13.5837C7.38098 13.743 7.30188 13.8891 7.1862 14.0034C7.07052 14.1176 6.92347 14.1949 6.76376 14.2254C6.60404 14.2559 6.43886 14.2383 6.28921 14.1747C6.13956 14.1111 6.0122 14.0044 5.92331 13.8683C5.83442 13.7321 5.78802 13.5726 5.79 13.41C5.79263 13.1943 5.88018 12.9882 6.03368 12.8366C6.18718 12.685 6.39424 12.6 6.61 12.6ZM20.86 14.21C21.0215 14.218 21.177 14.2735 21.307 14.3697C21.437 14.4658 21.5357 14.5982 21.5907 14.7503C21.6456 14.9024 21.6544 15.0673 21.6159 15.2243C21.5774 15.3814 21.4933 15.5235 21.3742 15.6329C21.2551 15.7423 21.1064 15.814 20.9467 15.8391C20.7869 15.8642 20.6233 15.8414 20.4765 15.7738C20.3296 15.7062 20.206 15.5966 20.1212 15.4589C20.0365 15.3213 19.9943 15.1616 20 15C20 14.7825 20.0864 14.574 20.2402 14.4202C20.394 14.2664 20.6025 14.18 20.82 14.18L20.86 14.21ZM23.6 21.81C23.5036 21.81 23.411 21.8476 23.3418 21.9148C23.2727 21.9821 23.2326 22.0736 23.23 22.17V23.26H20.12V22.18C20.12 22.0845 20.0821 21.993 20.0146 21.9254C19.947 21.8579 19.8555 21.82 19.76 21.82C19.6645 21.82 19.573 21.8579 19.5054 21.9254C19.4379 21.993 19.4 22.0845 19.4 22.18V23.27H16.24V22.18C16.24 22.0845 16.2021 21.993 16.1346 21.9254C16.067 21.8579 15.9755 21.82 15.88 21.82C15.7845 21.82 15.693 21.8579 15.6254 21.9254C15.5579 21.993 15.52 22.0845 15.52 22.18V23.27H12.36V22.18C12.36 22.0845 12.3221 21.993 12.2546 21.9254C12.187 21.8579 12.0955 21.82 12 21.82C11.9045 21.82 11.813 21.8579 11.7454 21.9254C11.6779 21.993 11.64 22.0845 11.64 22.18V23.27H8.49V22.18C8.48739 22.0836 8.44726 21.9921 8.37816 21.9248C8.30905 21.8576 8.21642 21.82 8.12 21.82C8.02452 21.82 7.93295 21.8579 7.86544 21.9254C7.79793 21.993 7.76 22.0845 7.76 22.18V23.27H4.61V22.18C4.60739 22.0836 4.56726 21.9921 4.49816 21.9248C4.42905 21.8576 4.33642 21.82 4.24 21.82C4.14452 21.82 4.05295 21.8579 3.98544 21.9254C3.91793 21.993 3.88 22.0845 3.88 22.18V23.27H0.73V21L2.31 19.57L4 20.33C4.0635 20.3604 4.13469 20.3709 4.20426 20.3602C4.27384 20.3495 4.33857 20.3181 4.39 20.27L6.64 18.27L9.93 18.62C9.98043 18.6269 10.0318 18.6224 10.0802 18.6068C10.1287 18.5913 10.173 18.565 10.21 18.53L13.21 15.77L16.83 16.89C16.8694 16.9074 16.912 16.9163 16.955 16.9163C16.998 16.9163 17.0406 16.9074 17.08 16.89L19.58 15.89C19.7144 16.0815 19.8909 16.2397 20.096 16.3523C20.3011 16.4649 20.5292 16.529 20.763 16.5396C20.9967 16.5503 21.2297 16.5071 21.4442 16.4136C21.6587 16.32 21.8488 16.1785 22 16L23.43 16.72C23.4727 16.7417 23.5192 16.7547 23.5669 16.7584C23.6147 16.7621 23.6626 16.7563 23.7081 16.7415C23.7536 16.7266 23.7958 16.703 23.8321 16.6718C23.8685 16.6407 23.8983 16.6027 23.92 16.56C23.9417 16.5173 23.9547 16.4708 23.9584 16.4231C23.9621 16.3753 23.9563 16.3274 23.9415 16.2819C23.9266 16.2364 23.903 16.1942 23.8718 16.1579C23.8407 16.1215 23.8027 16.0917 23.76 16.07L22.33 15.35C22.3404 15.2369 22.3404 15.1231 22.33 15.01C22.3472 14.7967 22.32 14.5821 22.2501 14.3798C22.1803 14.1774 22.0693 13.9918 21.9241 13.8345C21.779 13.6772 21.6029 13.5517 21.4068 13.4658C21.2107 13.3799 20.999 13.3356 20.785 13.3356C20.571 13.3356 20.3593 13.3799 20.1632 13.4658C19.9671 13.5517 19.791 13.6772 19.6459 13.8345C19.5007 13.9918 19.3897 14.1774 19.3199 14.3798C19.25 14.5821 19.2228 14.7967 19.24 15.01C19.2351 15.0833 19.2351 15.1567 19.24 15.23L16.85 16.23L13.16 15.09C13.1005 15.0712 13.0372 15.0678 12.976 15.08C12.9148 15.0922 12.8577 15.1198 12.81 15.16L9.85 17.91L6.55 17.56C6.50113 17.5539 6.45152 17.5588 6.4048 17.5744C6.35808 17.59 6.31544 17.6158 6.28 17.65L4.09 19.57L2.39 18.82C2.3265 18.7896 2.25531 18.7791 2.18574 18.7898C2.11616 18.8005 2.05143 18.8319 2 18.88L0.73 20V16.6L2.64 15.75L4.64 16.22C4.70358 16.2348 4.76986 16.2334 4.83275 16.2159C4.89565 16.1984 4.95316 16.1655 5 16.12L6 14.81C6.19594 14.8942 6.40673 14.9384 6.62 14.94C6.90237 14.9455 7.18076 14.8728 7.42433 14.7298C7.6679 14.5868 7.86715 14.3792 8 14.13L9.28 14.47C9.34902 14.49 9.42252 14.4882 9.4905 14.4649C9.55849 14.4417 9.61766 14.3981 9.66 14.34L12.14 11L15.51 12C15.5735 12.0168 15.6403 12.0164 15.7035 11.9988C15.7668 11.9812 15.8243 11.9471 15.87 11.9L19 8.63L21.6 9.63C21.6729 9.65197 21.7509 9.65025 21.8228 9.6251C21.8947 9.59994 21.9567 9.55264 22 9.49L24 6.31C24.0487 6.22736 24.0634 6.12903 24.041 6.03575C24.0187 5.94247 23.9609 5.86153 23.88 5.81C23.7974 5.76128 23.699 5.74656 23.6057 5.76895C23.5125 5.79134 23.4315 5.84908 23.38 5.93L21.55 8.85L19 7.86C18.9334 7.83472 18.8608 7.82978 18.7913 7.8458C18.7219 7.86183 18.6588 7.89809 18.61 7.95L15.5 11.17L12.1 10.17C12.0296 10.1478 11.954 10.1484 11.8839 10.1717C11.8139 10.1951 11.753 10.24 11.71 10.3L9.19 13.71L8.19 13.43C8.15874 13.0417 7.98241 12.6794 7.69611 12.4152C7.40982 12.1511 7.03455 12.0044 6.645 12.0044C6.25545 12.0044 5.88018 12.1511 5.59389 12.4152C5.30759 12.6794 5.13126 13.0417 5.1 13.43C5.09296 13.7945 5.21718 14.1494 5.45 14.43L4.58 15.56L2.69 15C2.6154 14.9749 2.5346 14.9749 2.46 15L0.73 15.77V12.55L2.39 10.91H5.39C5.44915 10.9093 5.50727 10.8943 5.55947 10.8665C5.61167 10.8387 5.65643 10.7987 5.69 10.75L8.11 7.2L9.85 7.82C9.89877 7.84179 9.95158 7.85305 10.005 7.85305C10.0584 7.85305 10.1112 7.84179 10.16 7.82L12.16 6.56C12.3079 6.7043 12.4832 6.81756 12.6756 6.89312C12.8679 6.96869 13.0734 7.00502 13.28 7C13.5365 7.00079 13.789 6.93709 14.0144 6.81478C14.2398 6.69246 14.4309 6.51544 14.57 6.3L15.67 6.69C15.7385 6.71293 15.8124 6.7147 15.8819 6.69508C15.9515 6.67546 16.0135 6.63536 16.06 6.58L18.9 3.28L20.84 4C20.8943 4.02727 20.9542 4.04147 21.015 4.04147C21.0758 4.04147 21.1357 4.02727 21.19 4L23.85 2C23.8893 1.9722 23.9226 1.93681 23.948 1.89591C23.9734 1.85502 23.9903 1.80945 23.9977 1.7619C24.0052 1.71435 24.003 1.66579 23.9914 1.61909C23.9798 1.57239 23.9589 1.52849 23.93 1.49C23.8707 1.4144 23.7843 1.36483 23.6892 1.35177C23.594 1.3387 23.4975 1.36317 23.42 1.42L20.91 3.26L18.91 2.51C18.8401 2.47979 18.7622 2.47321 18.6882 2.49126C18.6142 2.5093 18.5482 2.55099 18.5 2.61L15.68 5.88L14.81 5.57C14.8149 5.52012 14.8149 5.46988 14.81 5.42C14.8195 5.19052 14.7779 4.96179 14.6882 4.75036C14.5985 4.53893 14.4629 4.35008 14.2913 4.19747C14.1196 4.04486 13.9162 3.9323 13.6957 3.86793C13.4753 3.80356 13.2432 3.78899 13.0164 3.82528C12.7897 3.86156 12.5738 3.9478 12.3844 4.07774C12.195 4.20769 12.0369 4.3781 11.9214 4.57665C11.8059 4.7752 11.7361 4.99692 11.7168 5.22579C11.6975 5.45466 11.7294 5.68494 11.81 5.9L9.93 7.07L8.09 6.42C8.01547 6.39223 7.93383 6.38992 7.85785 6.41344C7.78187 6.43696 7.71581 6.48498 7.67 6.55L5.23 10.17H2.23C2.13545 10.1724 2.04565 10.2119 1.98 10.28L0.73 11.53V8.53H1.82C1.91639 8.52739 2.00795 8.48726 2.07519 8.41816C2.14243 8.34905 2.18004 8.25642 2.18 8.16C2.18 8.11272 2.17069 8.06591 2.1526 8.02223C2.13451 7.97856 2.10799 7.93887 2.07456 7.90544C2.04113 7.87201 2.00144 7.8455 1.95777 7.8274C1.91409 7.80931 1.86728 7.8 1.82 7.8H0.73V4.61H1.82C1.91639 4.60739 2.00795 4.56726 2.07519 4.49816C2.14243 4.42905 2.18004 4.33642 2.18 4.24C2.18 4.14452 2.14207 4.05295 2.07456 3.98544C2.00705 3.91793 1.91548 3.88 1.82 3.88H0.73V0.73H1.82C1.86813 0.730019 1.91577 0.720386 1.96012 0.701672C2.00446 0.682958 2.0446 0.655543 2.07816 0.621048C2.11172 0.586552 2.13803 0.545677 2.15552 0.500839C2.17301 0.456001 2.18134 0.408111 2.18 0.36C2.18 0.264522 2.14207 0.172955 2.07456 0.105442C2.00705 0.0379285 1.91548 0 1.82 0L0.36 0C0.264522 0 0.172955 0.0379285 0.105442 0.105442C0.0379285 0.172955 0 0.264522 0 0.36L0 23.64C0 23.7355 0.0379285 23.827 0.105442 23.8946C0.172955 23.9621 0.264522 24 0.36 24H23.64C23.7355 24 23.827 23.9621 23.8946 23.8946C23.9621 23.827 24 23.7355 24 23.64V22.18C24 22.0845 23.9621 21.993 23.8946 21.9254C23.827 21.8579 23.7355 21.82 23.64 21.82" fill="#4E2583"/>
</g>
<defs>
<clipPath id="clip0">
<rect width="24" height="24" fill="white"/>
</clipPath>
</defs>
</svg>
