<svg width="24" height="24" viewBox="0 0 24 24" fill="none" xmlns="http://www.w3.org/2000/svg">
<g clip-path="url(#clip0)">
<path d="M10.4405 5.63C10.5269 5.61564 10.6055 5.57108 10.6621 5.50424C10.7188 5.4374 10.7499 5.35262 10.7499 5.265C10.7499 5.17738 10.7188 5.0926 10.6621 5.02576C10.6055 4.95892 10.5269 4.91436 10.4405 4.9C6.10049 4.78 3.67049 4.21 3.29049 3.83C3.75049 3.36 7.00049 2.73 12.0005 2.73C17.0005 2.73 20.2905 3.36 20.7505 3.83C20.3705 4.21 17.9405 4.78 13.5805 4.9C13.4832 4.90513 13.3916 4.94741 13.3246 5.01813C13.2576 5.08885 13.2204 5.18259 13.2205 5.28C13.2256 5.37462 13.2668 5.46367 13.3357 5.52879C13.4045 5.59391 13.4957 5.63014 13.5905 5.63C15.9605 5.56 21.4905 5.25 21.4905 3.83C21.5405 2.05 13.0005 2 12.0005 2C11.0005 2 2.50049 2.05 2.50049 3.83C2.50049 5.25 8.02049 5.56 10.4005 5.63" fill="#4E2583"/>
<path d="M12.3106 14.1101H11.3906V13.1901C11.3906 13.0946 11.3527 13.003 11.2852 12.9355C11.2177 12.868 11.1261 12.8301 11.0306 12.8301C10.9342 12.83 10.8416 12.8676 10.7725 12.9349C10.7034 13.0021 10.6632 13.0937 10.6606 13.1901V14.1101H9.75062C9.65515 14.1101 9.56358 14.148 9.49607 14.2155C9.42855 14.283 9.39063 14.3746 9.39063 14.4701C9.39059 14.5665 9.4282 14.6591 9.49544 14.7282C9.56268 14.7973 9.65424 14.8375 9.75062 14.8401H10.6606V15.7501C10.6632 15.8474 10.7029 15.9401 10.7718 16.0089C10.8406 16.0778 10.9333 16.1175 11.0306 16.1201C11.127 16.1175 11.2186 16.0773 11.2858 16.0082C11.3531 15.9391 11.3907 15.8465 11.3906 15.7501V14.8401H12.3106C12.407 14.8375 12.4986 14.7973 12.5658 14.7282C12.6331 14.6591 12.6707 14.5665 12.6706 14.4701C12.6706 14.3746 12.6327 14.283 12.5652 14.2155C12.4977 14.148 12.4061 14.1101 12.3106 14.1101Z" fill="#4E2583"/>
<path d="M14.2405 18.7102C10.8705 18.7102 8.01052 17.0502 7.58052 14.8502C7.52918 14.5889 7.40963 14.3458 7.234 14.1456C7.05838 13.9454 6.83293 13.7952 6.58052 13.7102L2.82052 12.4802C2.68272 12.4362 2.55824 12.3582 2.4586 12.2533C2.35897 12.1484 2.2874 12.0201 2.25052 11.8802L0.800521 6.56021L2.15052 7.16021C2.35992 7.24896 2.53767 7.39883 2.66052 7.59021L4.00052 9.53022C4.14615 9.74937 4.34389 9.92896 4.57602 10.0529C4.80814 10.1768 5.06739 10.2412 5.33052 10.2402H13.0005C12.939 11.7622 13.4818 13.2468 14.5105 14.3702C15.9405 15.7802 18.1505 16.0002 20.4505 16.0002H22.0705H23.2605C23.1405 17.5302 21.2005 18.7502 18.8105 18.7502L14.2405 18.7102ZM18.4505 21.7102H14.6005V19.4302H18.4505V21.7102ZM10.4505 8.71021C10.5513 8.56796 10.6847 8.45194 10.8395 8.3719C10.9944 8.29186 11.1662 8.25013 11.3405 8.25021H12.8205C12.9947 8.25095 13.1662 8.29304 13.3209 8.37301C13.4757 8.45298 13.6092 8.56855 13.7105 8.71021L14.3005 9.52022H9.82052L10.4505 8.71021ZM15.0005 10.2402H15.5905C18.7305 10.2402 22.7205 12.5902 23.2505 15.2402H22.0905C19.3905 15.3002 16.6005 15.3602 15.0905 13.8402C14.6486 13.3529 14.3072 12.7832 14.0858 12.1638C13.8644 11.5443 13.7675 10.8872 13.8005 10.2302L15.0005 10.2402ZM23.9305 20.2402C23.8971 20.2067 23.8573 20.18 23.8136 20.1619C23.7698 20.1437 23.7229 20.1343 23.6755 20.1343C23.6281 20.1343 23.5812 20.1437 23.5375 20.1619C23.4937 20.18 23.454 20.2067 23.4205 20.2402L22.6805 20.9902C22.2399 21.4302 21.6432 21.6782 21.0205 21.6802H19.2205V19.3802C21.9505 19.2502 24.0405 17.7202 24.0405 15.7702C24.0405 12.4402 19.3105 9.47021 15.5905 9.47021H15.1905L14.3005 8.24021C14.1325 8.00376 13.9107 7.81063 13.6534 7.67675C13.396 7.54287 13.1106 7.47208 12.8205 7.47021H12.4005V3.83021C12.4005 3.73474 12.3626 3.64317 12.2951 3.57566C12.2276 3.50814 12.136 3.47021 12.0405 3.47021C11.945 3.47021 11.8535 3.50814 11.786 3.57566C11.7184 3.64317 11.6805 3.73474 11.6805 3.83021V7.51021H11.3005C11.0103 7.51126 10.7246 7.5817 10.4671 7.71565C10.2096 7.84959 9.98795 8.04317 9.82052 8.28022L8.93052 9.51021H5.32052C5.17709 9.51117 5.03559 9.47704 4.90836 9.41081C4.78113 9.34458 4.67202 9.24825 4.59052 9.13021L3.27052 7.18021C3.06505 6.8799 2.78153 6.64134 2.45052 6.49021L0.830521 5.78021C0.729977 5.73171 0.617231 5.71437 0.506758 5.7304C0.396284 5.74644 0.293124 5.79513 0.210521 5.87021C0.124466 5.94133 0.0607641 6.03577 0.0270615 6.1422C-0.0066411 6.24863 -0.00891222 6.36253 0.0205208 6.47021L1.55052 12.0702C1.6151 12.3223 1.73981 12.5549 1.91397 12.7482C2.08813 12.9415 2.30655 13.0898 2.55052 13.1802L6.33052 14.4002C6.46408 14.4412 6.58396 14.5178 6.67732 14.6217C6.77069 14.7257 6.83402 14.853 6.86052 14.9902C7.34052 17.4402 10.3205 19.3002 13.8605 19.4202V21.7202H10.9405C10.8541 21.7346 10.7755 21.7791 10.7189 21.846C10.6622 21.9128 10.6311 21.9976 10.6311 22.0852C10.6311 22.1728 10.6622 22.2576 10.7189 22.3245C10.7755 22.3913 10.8541 22.4359 10.9405 22.4502H21.0005C21.8188 22.4465 22.6024 22.1194 23.1805 21.5402L23.9105 20.8002C23.9456 20.7666 23.9735 20.7263 23.9926 20.6816C24.0117 20.6369 24.0215 20.5888 24.0215 20.5402C24.0215 20.4916 24.0117 20.4435 23.9926 20.3989C23.9735 20.3542 23.9456 20.3138 23.9105 20.2802" fill="#4E2583"/>
</g>
<defs>
<clipPath id="clip0">
<rect width="24" height="24" fill="white"/>
</clipPath>
</defs>
</svg>
