<svg width="24" height="24" viewBox="0 0 24 24" fill="none" xmlns="http://www.w3.org/2000/svg">
<g clip-path="url(#clip0)">
<path d="M21.4523 9.70305H1.37228L7.65228 4.46305L7.90228 4.25305L12.0023 0.843052L22.6323 9.70305H21.4523ZM21.0923 21.4531H11.0023V12.4531C11.0023 12.3549 10.9633 12.2608 10.8939 12.1914C10.8245 12.122 10.7304 12.0831 10.6323 12.0831H5.00228C4.90415 12.0831 4.81004 12.122 4.74065 12.1914C4.67127 12.2608 4.63228 12.3549 4.63228 12.4531V21.4531H2.91228V10.4531H21.0923V21.4531ZM21.0923 23.2731H11.0023V22.1831H21.0923V23.2731ZM5.38228 12.8531H10.2823V23.2731H5.38228V12.8531ZM2.91228 22.1831H4.65228V23.2731H2.91228V22.1831ZM5.46228 5.34305V0.733052H7.30228V3.80305L7.09228 4.00305L5.46228 5.34305ZM23.8723 9.78305L12.2323 0.0830524C12.1677 0.0293801 12.0863 0 12.0023 0C11.9183 0 11.8369 0.0293801 11.7723 0.0830524L8.00228 3.20305V0.363052C8.0026 0.272552 7.96882 0.185253 7.90766 0.118539C7.84651 0.0518262 7.76247 0.0105936 7.67228 0.00305235H5.10228C5.00586 0.00301713 4.91324 0.0406235 4.84413 0.107864C4.77502 0.175104 4.73489 0.266666 4.73228 0.363052V6.00305L0.132284 9.78305C0.0740892 9.83184 0.032317 9.89736 0.0126382 9.97071C-0.00704063 10.0441 -0.00367287 10.1217 0.0222843 10.1931C0.0483494 10.2625 0.0947098 10.3226 0.155343 10.3654C0.215976 10.4082 0.288079 10.4318 0.362284 10.4331H2.18228V23.6431C2.18228 23.7385 2.22021 23.8301 2.28773 23.8976C2.35524 23.9651 2.44681 24.0031 2.54228 24.0031H21.4523C21.5487 24.0031 21.6413 23.9655 21.7104 23.8982C21.7796 23.831 21.8197 23.7394 21.8223 23.6431V10.4331H23.6423C23.7165 10.4318 23.7886 10.4082 23.8492 10.3654C23.9099 10.3226 23.9562 10.2625 23.9823 10.1931C24.0082 10.1217 24.0116 10.0441 23.9919 9.97071C23.9723 9.89736 23.9305 9.83184 23.8723 9.78305Z" fill="#4E2583"/>
<path d="M13.4821 12.853H15.6821V17.913H13.4821V12.853ZM18.6221 17.913H16.4121V12.853H18.6221V17.913ZM13.1121 18.633H19.0021C19.0976 18.633 19.1891 18.5951 19.2567 18.5276C19.3242 18.4601 19.3621 18.3685 19.3621 18.273V12.493C19.3634 12.4449 19.3551 12.397 19.3376 12.3522C19.3201 12.3074 19.2938 12.2665 19.2603 12.232C19.2267 12.1975 19.1865 12.1701 19.1422 12.1514C19.0979 12.1327 19.0502 12.123 19.0021 12.123H13.1121C13.064 12.123 13.0163 12.1327 12.972 12.1514C12.9276 12.1701 12.8875 12.1975 12.8539 12.232C12.8204 12.2665 12.7941 12.3074 12.7766 12.3522C12.7591 12.397 12.7508 12.4449 12.7521 12.493V18.273C12.7521 18.3685 12.79 18.4601 12.8575 18.5276C12.925 18.5951 13.0166 18.633 13.1121 18.633Z" fill="#4E2583"/>
<path d="M13.5525 6.00289C13.5505 6.30902 13.458 6.60771 13.2864 6.86128C13.1149 7.11486 12.8722 7.31197 12.5888 7.42775C12.3054 7.54354 11.994 7.57281 11.694 7.51188C11.394 7.45095 11.1188 7.30254 10.903 7.08538C10.6872 6.86821 10.5406 6.59202 10.4816 6.29162C10.4226 5.99123 10.4539 5.68009 10.5715 5.39744C10.6891 5.1148 10.8877 4.87331 11.1424 4.70343C11.3971 4.53356 11.6964 4.4429 12.0025 4.44289C12.2069 4.44289 12.4093 4.48331 12.598 4.56183C12.7867 4.64035 12.958 4.75541 13.1021 4.9004C13.2461 5.0454 13.3601 5.21745 13.4374 5.40666C13.5147 5.59587 13.5538 5.7985 13.5525 6.00289ZM9.73251 6.00289C9.73646 6.45098 9.87294 6.88788 10.1248 7.25854C10.3766 7.6292 10.7325 7.91703 11.1476 8.08578C11.5627 8.25453 12.0185 8.29664 12.4575 8.20681C12.8965 8.11697 13.2991 7.89921 13.6146 7.58097C13.93 7.26272 14.1443 6.85822 14.2302 6.41844C14.3162 5.97866 14.2701 5.52327 14.0977 5.10964C13.9254 4.69602 13.6344 4.34267 13.2616 4.09411C12.8887 3.84555 12.4506 3.71291 12.0025 3.71289C11.7027 3.71288 11.4059 3.77225 11.1292 3.88758C10.8525 4.0029 10.6013 4.1719 10.3903 4.38481C10.1792 4.59773 10.0124 4.85033 9.89953 5.12806C9.78663 5.40578 9.72987 5.70311 9.73251 6.00289Z" fill="#4E2583"/>
<path d="M9.1923 17.7832C9.10837 17.7973 9.03216 17.8408 8.9772 17.9057C8.92224 17.9707 8.89209 18.0531 8.89209 18.1382C8.89209 18.2233 8.92224 18.3057 8.9772 18.3707C9.03216 18.4357 9.10837 18.4791 9.1923 18.4932C9.27623 18.4791 9.35243 18.4357 9.40739 18.3707C9.46235 18.3057 9.49251 18.2233 9.49251 18.1382C9.49251 18.0531 9.46235 17.9707 9.40739 17.9057C9.35243 17.8408 9.27623 17.7973 9.1923 17.7832Z" fill="#4E2583"/>
</g>
<defs>
<clipPath id="clip0">
<rect width="24" height="24" fill="white"/>
</clipPath>
</defs>
</svg>
