<svg width="24" height="24" viewBox="0 0 24 24" fill="none" xmlns="http://www.w3.org/2000/svg">
<g clip-path="url(#clip0)">
<path d="M12.36 16.3898H15.15V23.2698H12.36V16.3898ZM8.85 16.3898H11.64V23.2698H8.85V16.3898ZM15.85 11.1098H18.64V15.6698H15.88L15.85 11.1098ZM12.33 11.1098H15.12V15.6698H12.36L12.33 11.1098ZM8.82 11.1098H11.61V15.6698H8.85L8.82 11.1098ZM8.09 15.6698H5.33V11.1098H8.12L8.09 15.6698ZM23.61 23.2698H22.88V5.44984C22.88 5.35437 22.8421 5.2628 22.7746 5.19529C22.707 5.12777 22.6155 5.08984 22.52 5.08984H14.91C14.8236 5.1042 14.745 5.14876 14.6884 5.21561C14.6317 5.28245 14.6006 5.36722 14.6006 5.45484C14.6006 5.54246 14.6317 5.62724 14.6884 5.69408C14.745 5.76092 14.8236 5.80549 14.91 5.81984H22.18V23.2698H15.88V21.6798H21.09C21.1855 21.6798 21.277 21.6419 21.3446 21.5744C21.4121 21.5069 21.45 21.4153 21.45 21.3198C21.45 21.2234 21.4124 21.1308 21.3452 21.0617C21.2779 20.9926 21.1864 20.9525 21.09 20.9498H15.88V16.3898H18.67V19.8598C18.67 19.9553 18.7079 20.0469 18.7754 20.1144C18.843 20.1819 18.9345 20.2198 19.03 20.2198C19.1255 20.2198 19.217 20.1819 19.2846 20.1144C19.3521 20.0469 19.39 19.9553 19.39 19.8598V16.3898H21.09C21.1855 16.3898 21.277 16.3519 21.3446 16.2844C21.4121 16.2169 21.45 16.1253 21.45 16.0298C21.45 15.9344 21.4121 15.8428 21.3446 15.7753C21.277 15.7078 21.1855 15.6698 21.09 15.6698H19.39V11.1098H21.09C21.1864 11.1072 21.2779 11.0671 21.3452 10.998C21.4124 10.9289 21.45 10.8363 21.45 10.7398C21.45 10.6444 21.4121 10.5528 21.3446 10.4853C21.277 10.4178 21.1855 10.3798 21.09 10.3798H19.39V6.90984C19.39 6.81437 19.3521 6.7228 19.2846 6.65529C19.217 6.58777 19.1255 6.54984 19.03 6.54984C18.9345 6.54984 18.843 6.58777 18.7754 6.65529C18.7079 6.7228 18.67 6.81437 18.67 6.90984V10.3798H15.88V6.90984C15.8656 6.82341 15.8211 6.74487 15.7542 6.68822C15.6874 6.63156 15.6026 6.60047 15.515 6.60047C15.4274 6.60047 15.3426 6.63156 15.2758 6.68822C15.2089 6.74487 15.1644 6.82341 15.15 6.90984V10.3798H12.36V6.90984C12.36 6.81437 12.3221 6.7228 12.2546 6.65529C12.187 6.58777 12.0955 6.54984 12 6.54984C11.9045 6.54984 11.813 6.58777 11.7454 6.65529C11.6779 6.7228 11.64 6.81437 11.64 6.90984V10.3798H8.85V6.90984C8.83564 6.82341 8.79108 6.74487 8.72424 6.68822C8.6574 6.63156 8.57262 6.60047 8.485 6.60047C8.39738 6.60047 8.3126 6.63156 8.24576 6.68822C8.17892 6.74487 8.13436 6.82341 8.12 6.90984V10.3798H5.33V6.90984C5.33 6.81437 5.29207 6.7228 5.22456 6.65529C5.15705 6.58777 5.06548 6.54984 4.97 6.54984C4.87452 6.54984 4.78295 6.58777 4.71544 6.65529C4.64793 6.7228 4.61 6.81437 4.61 6.90984V10.3798H2.91C2.81452 10.3798 2.72295 10.4178 2.65544 10.4853C2.58793 10.5528 2.55 10.6444 2.55 10.7398C2.54996 10.8363 2.58757 10.9289 2.65481 10.998C2.72205 11.0671 2.81361 11.1072 2.91 11.1098H4.61V15.6698H2.91C2.86272 15.6698 2.81591 15.6792 2.77223 15.6972C2.72856 15.7153 2.68887 15.7419 2.65544 15.7753C2.62201 15.8087 2.59549 15.8484 2.5774 15.8921C2.55931 15.9358 2.55 15.9826 2.55 16.0298C2.55 16.0771 2.55931 16.1239 2.5774 16.1676C2.59549 16.2113 2.62201 16.251 2.65544 16.2844C2.68887 16.3178 2.72856 16.3443 2.77223 16.3624C2.81591 16.3805 2.86272 16.3898 2.91 16.3898H4.61V19.8598C4.61 19.9553 4.64793 20.0469 4.71544 20.1144C4.78295 20.1819 4.87452 20.2198 4.97 20.2198C5.06548 20.2198 5.15705 20.1819 5.22456 20.1144C5.29207 20.0469 5.33 19.9553 5.33 19.8598V16.3898H8.12V20.9998H2.91C2.81361 21.0024 2.72205 21.0426 2.65481 21.1117C2.58757 21.1808 2.54996 21.2734 2.55 21.3698C2.55 21.4653 2.58793 21.5569 2.65544 21.6244C2.72295 21.6919 2.81452 21.7298 2.91 21.7298H8.12V23.3198H1.82V5.81984H9.09C9.17644 5.80549 9.25497 5.76092 9.31163 5.69408C9.36828 5.62724 9.39938 5.54246 9.39938 5.45484C9.39938 5.36722 9.36828 5.28245 9.31163 5.21561C9.25497 5.14876 9.17644 5.1042 9.09 5.08984H1.45C1.35452 5.08984 1.26295 5.12777 1.19544 5.19529C1.12793 5.2628 1.09 5.35437 1.09 5.44984V23.2698H0.36C0.263613 23.2724 0.172052 23.3126 0.104811 23.3817C0.0375712 23.4508 -3.51977e-05 23.5434 2.47199e-08 23.6398C2.47199e-08 23.7353 0.0379285 23.8269 0.105442 23.8944C0.172955 23.9619 0.264522 23.9998 0.36 23.9998H23.64C23.7355 23.9998 23.827 23.9619 23.8946 23.8944C23.9621 23.8269 24 23.7353 24 23.6398C24 23.5434 23.9624 23.4508 23.8952 23.3817C23.8279 23.3126 23.7364 23.2724 23.64 23.2698" fill="#4E2583"/>
<path d="M11.9998 0.730001C12.431 0.730001 12.8525 0.857856 13.211 1.0974C13.5695 1.33694 13.8489 1.67741 14.0139 2.07575C14.1789 2.47409 14.2221 2.91242 14.138 3.3353C14.0538 3.75818 13.8462 4.14662 13.5413 4.45149C13.2365 4.75637 12.848 4.964 12.4251 5.04811C12.0023 5.13223 11.5639 5.08906 11.1656 4.92406C10.7673 4.75906 10.4268 4.47964 10.1872 4.12114C9.9477 3.76265 9.81984 3.34116 9.81984 2.91C9.82247 2.33264 10.053 1.77968 10.4613 1.37141C10.8695 0.963154 11.4225 0.732632 11.9998 0.730001ZM11.9998 5.82C12.5754 5.82 13.138 5.64933 13.6166 5.32958C14.0951 5.00982 14.4681 4.55534 14.6883 4.02361C14.9086 3.49188 14.9662 2.90677 14.8539 2.34229C14.7416 1.7778 14.4645 1.25929 14.0575 0.852321C13.6506 0.44535 13.132 0.168199 12.5676 0.0559161C12.0031 -0.0563668 11.418 0.00126086 10.8862 0.221512C10.3545 0.441763 9.90002 0.814745 9.58027 1.29329C9.26051 1.77184 9.08984 2.33446 9.08984 2.91C9.09248 3.68097 9.39991 4.41961 9.94508 4.96477C10.4902 5.50993 11.2289 5.81737 11.9998 5.82Z" fill="#4E2583"/>
<path d="M10.88 3.27018H11.64V4.00018C11.64 4.09565 11.6779 4.18722 11.7455 4.25473C11.813 4.32225 11.9045 4.36018 12 4.36018C12.0955 4.36018 12.1871 4.32225 12.2546 4.25473C12.3221 4.18722 12.36 4.09565 12.36 4.00018V3.27018H13.12C13.2155 3.27018 13.3071 3.23225 13.3746 3.16473C13.4421 3.09722 13.48 3.00565 13.48 2.91018C13.48 2.8147 13.4421 2.72313 13.3746 2.65562C13.3071 2.5881 13.2155 2.55018 13.12 2.55018H12.36V1.79018C12.36 1.6947 12.3221 1.60313 12.2546 1.53562C12.1871 1.4681 12.0955 1.43018 12 1.43018C11.9045 1.43018 11.813 1.4681 11.7455 1.53562C11.6779 1.60313 11.64 1.6947 11.64 1.79018V2.55018H10.88C10.7845 2.55018 10.693 2.5881 10.6255 2.65562C10.5579 2.72313 10.52 2.8147 10.52 2.91018C10.52 3.00565 10.5579 3.09722 10.6255 3.16473C10.693 3.23225 10.7845 3.27018 10.88 3.27018Z" fill="#4E2583"/>
</g>
<defs>
<clipPath id="clip0">
<rect width="24" height="24" fill="white"/>
</clipPath>
</defs>
</svg>
