<svg width="24" height="24" viewBox="0 0 24 24" fill="none" xmlns="http://www.w3.org/2000/svg">
<g clip-path="url(#clip0)">
<path d="M21.4501 9.70006H2.54008H1.37008L7.66008 4.46006L7.91008 4.26006L12.0001 0.840059L22.6301 9.70006H21.4501ZM21.0901 21.4501H11.0101V12.4801C11.0101 12.2801 10.8501 12.1201 10.6501 12.1201H5.02008C4.82008 12.1201 4.66008 12.2801 4.66008 12.4801V21.4501H2.91008V10.4301H21.0901V21.4501ZM21.0901 23.2701H11.0101V22.1801H21.0901V23.2701ZM5.38008 12.8501H10.2801V23.2701H5.38008V12.8501ZM2.91008 22.1801H4.66008V23.2701H2.91008V22.1801ZM5.46008 5.34006V0.730059H7.30008V3.80006L7.09008 3.98006L5.46008 5.34006ZM23.8701 9.78006L12.2301 0.0800586C12.1001 -0.0299414 11.9001 -0.0299414 11.7701 0.0800586L8.03008 3.20006V0.360059C8.03008 0.160059 7.87008 5.85951e-05 7.67008 5.85951e-05H5.10008C4.90008 5.85951e-05 4.73008 0.160059 4.73008 0.360059V5.94006L0.130076 9.78006C0.0100762 9.88006 -0.0299238 10.0401 0.0200762 10.1801C0.0700762 10.3201 0.210076 10.4201 0.360076 10.4201H2.18008V21.8101V23.6301C2.18008 23.8301 2.34008 23.9901 2.54008 23.9901H5.01008H10.6401H21.4501C21.6501 23.9901 21.8101 23.8301 21.8101 23.6301V21.8101V10.4301H23.6301C23.7801 10.4301 23.9201 10.3301 23.9701 10.1901C24.0201 10.0501 23.9901 9.88006 23.8701 9.78006Z" fill="#4E2583"/>
<path d="M13.48 12.8501H15.69V17.9101H13.48V12.8501ZM18.62 17.9101H16.41V12.8501H18.62V17.9101ZM13.11 18.6301H18.98C19.18 18.6301 19.34 18.4701 19.34 18.2701V12.4901C19.34 12.2901 19.18 12.1301 18.98 12.1301H13.11C12.91 12.1301 12.75 12.2901 12.75 12.4901V18.2701C12.75 18.4701 12.91 18.6301 13.11 18.6301Z" fill="#4E2583"/>
<path d="M13.55 5.98997C13.55 6.83997 12.86 7.53997 12 7.53997C11.15 7.53997 10.45 6.84997 10.45 5.98997C10.45 5.13997 11.14 4.43997 12 4.43997C12.85 4.43997 13.55 5.12997 13.55 5.98997ZM9.72998 5.98997C9.72998 7.23997 10.75 8.25997 12 8.25997C13.25 8.25997 14.27 7.23997 14.27 5.98997C14.27 4.73997 13.25 3.71997 12 3.71997C10.75 3.71997 9.72998 4.72997 9.72998 5.98997Z" fill="#4E2583"/>
<path d="M9.18984 17.78C8.98984 17.78 8.83984 17.94 8.83984 18.13C8.83984 18.32 8.99984 18.48 9.18984 18.48C9.37984 18.48 9.53984 18.32 9.53984 18.13C9.53984 17.94 9.37984 17.78 9.18984 17.78Z" fill="#4E2583"/>
</g>
<defs>
<clipPath id="clip0">
<rect width="24" height="24" fill="white"/>
</clipPath>
</defs>
</svg>
