<svg width="24" height="24" viewBox="0 0 24 24" fill="none" xmlns="http://www.w3.org/2000/svg">
<path d="M17.5279 16.2342C18.204 15.3777 18.6882 14.386 18.9477 13.3262C19.2073 12.2664 19.2362 11.1632 19.0325 10.0912L22.0896 9.3725C22.2327 10.0725 22.3034 10.7855 22.3004 11.5C22.3016 13.9692 21.4559 16.364 19.9046 18.285L17.5279 16.2342ZM11.5 22.3004C9.16202 22.2956 6.88874 21.5322 5.02167 20.125L6.98625 17.6717C8.49601 18.7648 10.3523 19.2704 12.2078 19.094C14.0634 18.9176 15.7912 18.0713 17.0679 16.7133L19.4446 18.7642C18.4396 19.8743 17.2138 20.7623 15.8457 21.3713C14.4777 21.9802 12.9975 22.2967 11.5 22.3004ZM0.699588 11.5C0.70305 8.69672 1.79536 6.0044 3.74605 3.99114C5.69673 1.97787 8.35323 0.801116 11.155 0.709167V3.83333C9.62789 3.90254 8.15633 4.4267 6.92933 5.33848C5.70233 6.25026 4.77592 7.50803 4.26908 8.95025C3.76224 10.3925 3.69813 11.9533 4.08496 13.4322C4.4718 14.9111 5.29192 16.2406 6.44 17.25L4.52334 19.6937C3.33025 18.6867 2.37033 17.4323 1.71009 16.0175C1.04984 14.6027 0.705048 13.0613 0.699588 11.5ZM6.08542 7.12042H8.11709C8.29755 7.12042 8.47061 7.1921 8.59822 7.31971C8.72582 7.44731 8.7975 7.62037 8.7975 7.80083C8.79751 7.88974 8.77985 7.97776 8.74554 8.05978C8.71123 8.1418 8.66096 8.21618 8.59765 8.2786C8.53433 8.34102 8.45925 8.39023 8.37675 8.42338C8.29425 8.45652 8.20599 8.47294 8.11709 8.47167C8.02472 8.47416 7.93697 8.51262 7.87253 8.57885C7.80809 8.64508 7.77205 8.73384 7.77209 8.82625C7.77209 8.91775 7.80844 9.0055 7.87314 9.0702C7.93784 9.1349 8.02559 9.17125 8.11709 9.17125H9.58334C9.76507 9.17125 9.93935 9.24344 10.0679 9.37194C10.1964 9.50044 10.2685 9.67473 10.2685 9.85646C10.2685 10.0382 10.1964 10.2125 10.0679 10.341C9.93935 10.4695 9.76507 10.5417 9.58334 10.5417H6.62209C6.53059 10.5417 6.44284 10.578 6.37814 10.6427C6.31344 10.7074 6.27709 10.7952 6.27709 10.8867C6.27709 10.9782 6.31344 11.0659 6.37814 11.1306C6.44284 11.1953 6.53059 11.2317 6.62209 11.2317C6.80255 11.2317 6.97561 11.3034 7.10321 11.431C7.23082 11.5586 7.3025 11.7316 7.3025 11.9121C7.3025 12.0925 7.23082 12.2656 7.10321 12.3932C6.97561 12.5208 6.80255 12.5925 6.62209 12.5925C6.53059 12.5925 6.44284 12.6288 6.37814 12.6935C6.31344 12.7582 6.27709 12.846 6.27709 12.9375C6.27705 13.0299 6.31309 13.1187 6.37753 13.1849C6.44197 13.2511 6.52972 13.2896 6.62209 13.2921H11.2988C11.4792 13.2921 11.6523 13.3638 11.7799 13.4914C11.9075 13.619 11.9792 13.792 11.9792 13.9725C11.9792 14.153 11.9075 14.326 11.7799 14.4536C11.6523 14.5812 11.4792 14.6529 11.2988 14.6529H5.29C4.67921 13.4568 4.42922 12.1089 4.57043 10.7733C4.71165 9.43772 5.23799 8.17194 6.08542 7.13V7.12042ZM16.1288 16.7133H14.7775C14.6886 16.7133 14.6006 16.6957 14.5186 16.6614C14.4365 16.6271 14.3622 16.5768 14.2997 16.5135C14.2373 16.4502 14.1881 16.3751 14.155 16.2926C14.1218 16.2101 14.1054 16.1218 14.1067 16.0329C14.1067 15.855 14.1773 15.6844 14.3032 15.5586C14.429 15.4328 14.5996 15.3621 14.7775 15.3621H17.3075C16.9779 15.864 16.5813 16.3186 16.1288 16.7133ZM17.7675 8.50041H14.375C14.0301 8.52923 13.7086 8.6866 13.4743 8.94132C13.24 9.19604 13.1099 9.52952 13.1099 9.87562C13.1099 10.2217 13.24 10.5552 13.4743 10.8099C13.7086 11.0646 14.0301 11.222 14.375 11.2508H15.4196C15.3032 11.4585 15.2436 11.6932 15.2471 11.9312C15.2471 12.2947 15.3915 12.6433 15.6485 12.9003C15.9055 13.1573 16.254 13.3017 16.6175 13.3017H18.2083C18.0862 13.7728 17.9126 14.2292 17.6908 14.6625H14.7775C14.4326 14.6913 14.1111 14.8487 13.8768 15.1034C13.6425 15.3581 13.5124 15.6916 13.5124 16.0377C13.5124 16.3838 13.6425 16.7173 13.8768 16.972C14.1111 17.2267 14.4326 17.3841 14.7775 17.4129H15.1992C14.0914 18.1088 12.8082 18.4745 11.5 18.4671C10.3484 18.4654 9.21517 18.1783 8.2017 17.6314C7.18823 17.0845 6.32612 16.295 5.6925 15.3333H11.2988C11.489 15.3492 11.6805 15.3255 11.8611 15.2636C12.0417 15.2017 12.2075 15.103 12.348 14.9737C12.4885 14.8445 12.6006 14.6875 12.6773 14.5127C12.754 14.3379 12.7937 14.149 12.7937 13.9581C12.7937 13.7672 12.754 13.5784 12.6773 13.4036C12.6006 13.2288 12.4885 13.0718 12.348 12.9425C12.2075 12.8133 12.0417 12.7146 11.8611 12.6527C11.6805 12.5908 11.489 12.567 11.2988 12.5829H7.82C7.93944 12.376 8.00232 12.1414 8.00232 11.9025C8.00232 11.6636 7.93944 11.429 7.82 11.2221H9.58334C9.92824 11.1933 10.2497 11.0359 10.4841 10.7812C10.7184 10.5265 10.8484 10.193 10.8484 9.84687C10.8484 9.50076 10.7184 9.16729 10.4841 8.91257C10.2497 8.65785 9.92824 8.50048 9.58334 8.47167H9.315C9.43316 8.26776 9.49593 8.0365 9.49709 7.80083C9.49709 7.43483 9.3517 7.08383 9.09289 6.82503C8.83409 6.56622 8.48309 6.42083 8.11709 6.42083H6.70834C7.50447 5.66536 8.46826 5.10923 9.52074 4.79802C10.5732 4.48681 11.6845 4.42936 12.7634 4.63038C13.8424 4.8314 14.8584 5.28517 15.7282 5.95452C16.598 6.62387 17.2968 7.48976 17.7675 8.48125V8.50041ZM11.845 0.709167C13.7971 0.764371 15.6965 1.35442 17.3363 2.415L15.5538 5.0025C14.4408 4.2957 13.1621 3.89262 11.845 3.83333V0.709167ZM16.6367 10.5321H14.375C14.1945 10.5321 14.0215 10.4604 13.8939 10.3328C13.7663 10.2052 13.6946 10.0321 13.6946 9.85166C13.6946 9.67121 13.7663 9.49814 13.8939 9.37054C14.0215 9.24294 14.1945 9.17125 14.375 9.17125H18.0358C18.3104 9.9175 18.4562 10.7049 18.4671 11.5C18.4645 11.863 18.4324 12.2251 18.3713 12.5829H16.6463C16.5508 12.5943 16.454 12.5853 16.3622 12.5566C16.2704 12.5278 16.1858 12.48 16.1139 12.4161C16.042 12.3523 15.9844 12.2739 15.945 12.1862C15.9056 12.0985 15.8852 12.0034 15.8852 11.9073C15.8852 11.8111 15.9056 11.7161 15.945 11.6284C15.9844 11.5407 16.042 11.4623 16.1139 11.3985C16.1858 11.3346 16.2704 11.2867 16.3622 11.258C16.454 11.2292 16.5508 11.2203 16.6463 11.2317C16.7386 11.2292 16.8264 11.1907 16.8908 11.1245C16.9552 11.0583 16.9913 10.9695 16.9913 10.8771C16.9913 10.7856 16.9549 10.6978 16.8902 10.6331C16.8255 10.5684 16.7378 10.5321 16.6463 10.5321H16.6367ZM21.9267 8.69208L18.8792 9.41083C18.4228 7.80915 17.4574 6.39963 16.1288 5.39542L17.9113 2.80792C19.8739 4.2614 21.2887 6.33462 21.9267 8.69208ZM11.5 0C9.22552 0 7.00211 0.674463 5.11095 1.9381C3.21978 3.20174 1.7458 4.99779 0.87539 7.09914C0.00498279 9.20049 -0.222756 11.5128 0.220974 13.7435C0.664704 15.9743 1.75997 18.0234 3.36828 19.6317C4.97658 21.24 7.02568 22.3353 9.25647 22.779C11.4872 23.2228 13.7995 22.995 15.9009 22.1246C18.0022 21.2542 19.7983 19.7802 21.0619 17.8891C22.3255 15.9979 23 13.7745 23 11.5C23 8.45001 21.7884 5.52494 19.6317 3.36827C17.4751 1.2116 14.55 0 11.5 0" fill="#4E2583"/>
</svg>
