<svg width="24" height="24" viewBox="0 0 24 24" fill="none" xmlns="http://www.w3.org/2000/svg">
<g clip-path="url(#clip0)">
<path d="M18.58 18L17.58 17.72C17.07 17.57 16.58 17.45 16.04 17.35C15.6948 16.9599 15.4388 16.4992 15.29 16C16.2077 15.1107 16.8706 13.992 17.21 12.76C17.4195 12.7451 17.6189 12.6646 17.78 12.53C18.1996 12.1287 18.447 11.5802 18.47 11C18.5609 10.6024 18.5109 10.1856 18.3285 9.8208C18.1461 9.456 17.8426 9.16588 17.47 9.00001C17.2609 8.94 17.0391 8.94 16.83 9.00001C16.594 8.3284 16.1489 7.75012 15.56 7.35001C15.0121 7.0471 14.3962 6.88821 13.77 6.88821C13.1439 6.88821 12.528 7.0471 11.98 7.35001C11.4346 7.03547 10.8185 6.86409 10.189 6.85185C9.55957 6.83961 8.93724 6.98691 8.38004 7.28001C7.78811 7.69854 7.35473 8.30457 7.15004 9.00001C6.94015 8.94582 6.71993 8.94582 6.51004 9.00001C6.13744 9.16588 5.83401 9.456 5.65161 9.8208C5.46921 10.1856 5.41917 10.6024 5.51004 11C5.53812 11.579 5.78469 12.1257 6.20004 12.53C6.36118 12.6646 6.5606 12.7451 6.77004 12.76C7.10331 13.9687 7.74815 15.0688 8.64004 15.95C8.39291 16.4593 8.11576 16.9535 7.81004 17.43C6.92004 17.58 6.38004 17.73 6.36004 17.73L5.36004 18.01C4.38267 16.4557 3.86602 14.6561 3.87004 12.82C3.80517 11.5121 4.01056 10.2048 4.47338 8.97981C4.9362 7.75479 5.64653 6.6383 6.56004 5.70001C8.31094 5.10667 10.1517 4.82243 12 4.86001C13.8409 4.82434 15.6742 5.10508 17.42 5.69001C18.3248 6.62863 19.0269 7.74325 19.4828 8.96464C19.9387 10.186 20.1386 11.4881 20.07 12.79C20.0778 14.6329 19.5611 16.4399 18.58 18ZM16.5 20.2L13.22 21.66L15.81 18.43L16.5 20.2ZM7.40004 12.23C7.3869 12.1788 7.36197 12.1313 7.32725 12.0913C7.29253 12.0514 7.24897 12.0201 7.20004 12C7.15056 11.9898 7.09951 11.9898 7.05004 12C6.99713 11.9905 6.94294 11.9905 6.89004 12C6.82788 11.9933 6.76893 11.969 6.72004 11.93C6.46102 11.6602 6.31136 11.3039 6.30004 10.93C6.24004 10.27 6.48004 9.78001 6.75004 9.71001C6.82745 9.68989 6.90815 9.68572 6.98723 9.69775C7.06631 9.70978 7.14211 9.73777 7.21004 9.78001C7.26094 9.81977 7.3216 9.84509 7.38565 9.85334C7.44971 9.86159 7.51481 9.85245 7.57412 9.82688C7.63343 9.80132 7.68477 9.76027 7.72276 9.70804C7.76075 9.6558 7.78399 9.59431 7.79004 9.53001C7.84544 9.18179 7.97163 8.84861 8.16083 8.55106C8.35002 8.25351 8.5982 7.9979 8.89004 7.80001C9.3739 7.59996 9.89853 7.51828 10.4203 7.56176C10.9421 7.60524 11.446 7.77263 11.89 8.05001C11.9376 8.06982 11.9885 8.08001 12.04 8.08001C12.0915 8.08001 12.1425 8.06982 12.19 8.05001C12.626 7.79226 13.1161 7.63994 13.6213 7.60521C14.1266 7.57049 14.6329 7.65432 15.1 7.85001C15.3973 8.02948 15.6551 8.26732 15.858 8.54919C16.0608 8.83106 16.2043 9.15111 16.28 9.49001C16.2855 9.54142 16.3017 9.59112 16.3275 9.63591C16.3533 9.68069 16.3883 9.71956 16.43 9.75001C16.4771 9.78393 16.5312 9.80692 16.5883 9.8173C16.6453 9.82768 16.704 9.82519 16.76 9.81001L16.87 9.75001C16.938 9.70777 17.0138 9.67978 17.0928 9.66775C17.1719 9.65572 17.2526 9.65989 17.33 9.68001C17.6 9.75001 17.84 10.24 17.78 10.9C17.7687 11.2739 17.6191 11.6302 17.36 11.9C17.314 11.9373 17.2587 11.9615 17.2 11.97H17.15C17.0505 11.9305 16.9396 11.9305 16.84 11.97C16.7899 11.9911 16.7456 12.0239 16.7108 12.0657C16.676 12.1074 16.6518 12.1569 16.64 12.21C16.3192 13.6351 15.5177 14.9063 14.37 15.81C13.6987 16.3162 12.8808 16.59 12.04 16.59C11.1993 16.59 10.3814 16.3162 9.71004 15.81C8.56241 14.9063 7.76084 13.6351 7.44004 12.21L7.40004 12.23ZM12 22L8.53004 17.66C8.70004 17.38 8.99004 16.89 9.23004 16.41C10.0174 16.9968 10.9731 17.3138 11.955 17.3138C12.937 17.3138 13.8927 16.9968 14.68 16.41C14.8577 16.863 15.1114 17.2823 15.43 17.65L12 22ZM7.50004 20.18L8.19004 18.41L10.78 21.64L7.50004 20.18ZM5.68004 2.27001C7.61491 1.21059 9.79469 0.679443 12 0.730012C14.2054 0.679443 16.3852 1.21059 18.32 2.27001L17.54 5.00001C15.7547 4.40369 13.8823 4.10965 12 4.13001C10.1178 4.10965 8.24541 4.40369 6.46004 5.00001L5.68004 2.27001ZM21.62 19.27C20.8671 18.8839 20.0886 18.5498 19.29 18.27C20.2788 16.6314 20.801 14.7538 20.8 12.84C20.9098 10.1368 19.963 7.49709 18.16 5.48001L19.1 2.20001C19.1192 2.12352 19.1141 2.04295 19.0854 1.96949C19.0568 1.89603 19.006 1.8333 18.94 1.79001C16.8379 0.560313 14.4347 -0.0595184 12 1.1961e-05C9.56535 -0.0595184 7.1622 0.560313 5.06004 1.79001C4.99412 1.8333 4.94331 1.89603 4.91464 1.96949C4.88597 2.04295 4.88087 2.12352 4.90004 2.20001L5.84004 5.44001C4.03492 7.45182 3.08754 10.0894 3.20004 12.79C3.19803 14.7053 3.72396 16.5841 4.72004 18.22C3.9143 18.498 3.12904 18.8322 2.37004 19.22C1.65229 19.597 1.05176 20.1637 0.633859 20.8585C0.215963 21.5532 -0.00327201 22.3493 3.69092e-05 23.16V23.64C3.69092e-05 23.7355 0.0379654 23.8271 0.105478 23.8946C0.172992 23.9621 0.264559 24 0.360037 24C0.456459 24 0.549085 23.9624 0.618193 23.8952C0.687301 23.828 0.727431 23.7364 0.730037 23.64V23.16C0.729364 22.4809 0.915616 21.8147 1.26839 21.2344C1.62116 20.6541 2.12684 20.182 2.73004 19.87C3.58328 19.4319 4.46928 19.0608 5.38004 18.76C5.84004 18.62 6.22004 18.5 6.59004 18.4L7.51004 18.21L6.71004 20.21C6.67638 20.2964 6.67735 20.3924 6.71274 20.4781C6.74814 20.5638 6.81523 20.6326 6.90004 20.67L11.66 22.79V23.61C11.66 23.7055 11.698 23.7971 11.7655 23.8646C11.833 23.9321 11.9246 23.97 12.02 23.97C12.1155 23.97 12.2071 23.9321 12.2746 23.8646C12.3421 23.7971 12.38 23.7055 12.38 23.61V22.79L17.14 20.67C17.2232 20.6307 17.2888 20.5618 17.3239 20.4767C17.3591 20.3917 17.3612 20.2966 17.33 20.21L16.51 18.13C16.83 18.2033 17.14 18.2833 17.44 18.37C17.81 18.47 18.19 18.58 18.64 18.73C19.5569 19.0229 20.4469 19.3943 21.3 19.84C21.904 20.1512 22.4103 20.623 22.7632 21.2035C23.116 21.784 23.3018 22.4507 23.3 23.13V23.61C23.3144 23.6964 23.359 23.775 23.4258 23.8316C23.4926 23.8883 23.5774 23.9194 23.665 23.9194C23.7527 23.9194 23.8374 23.8883 23.9043 23.8316C23.9711 23.775 24.0157 23.6964 24.03 23.61V23.13C24.0328 22.3195 23.8121 21.5239 23.3923 20.8306C22.9724 20.1373 22.3696 19.5731 21.65 19.2" fill="#4E2583"/>
<path d="M11.1399 2.81016L11.6399 2.76016V3.33016C11.6399 3.42563 11.6779 3.5172 11.7454 3.58471C11.8129 3.65223 11.9044 3.69016 11.9999 3.69016C12.0954 3.69016 12.187 3.65223 12.2545 3.58471C12.322 3.5172 12.3599 3.42563 12.3599 3.33016V2.76016L12.8599 2.81016H12.9099C13.001 2.81131 13.0893 2.77882 13.1579 2.71891C13.2266 2.65899 13.2707 2.57587 13.2818 2.48546C13.293 2.39505 13.2704 2.3037 13.2184 2.22892C13.1663 2.15413 13.0886 2.10116 12.9999 2.08016H12.3999V1.52016C12.3999 1.42468 12.362 1.33311 12.2945 1.2656C12.227 1.19808 12.1354 1.16016 12.0399 1.16016C11.9444 1.16016 11.8529 1.19808 11.7854 1.2656C11.7179 1.33311 11.6799 1.42468 11.6799 1.52016V2.00016H11.0899C11.0379 2.00081 10.9866 2.01243 10.9394 2.03425C10.8922 2.05607 10.8501 2.0876 10.8159 2.12679C10.7817 2.16597 10.7561 2.21193 10.7409 2.26166C10.7256 2.31139 10.721 2.36378 10.7274 2.4154C10.7338 2.46703 10.7509 2.51673 10.7778 2.56127C10.8047 2.6058 10.8406 2.64418 10.8833 2.67388C10.926 2.70358 10.9745 2.72394 11.0256 2.73364C11.0767 2.74334 11.1293 2.74215 11.1799 2.73016" fill="#4E2583"/>
</g>
<defs>
<clipPath id="clip0">
<rect width="24" height="24" fill="white"/>
</clipPath>
</defs>
</svg>
