<svg width="24" height="24" viewBox="0 0 24 24" fill="none" xmlns="http://www.w3.org/2000/svg">
<g clip-path="url(#clip0)">
<path d="M0.5 7.9998H23.5C23.7 7.9998 23.9 7.8998 24 7.5998C24.1 7.2998 24 7.1998 23.8 6.9998L12.8 -0.00019531C12.6 -0.100195 12.4 -0.100195 12.3 -0.00019531L0.3 6.9998C0.1 7.1998 0 7.3998 0 7.5998C0.1 7.7998 0.3 7.9998 0.5 7.9998ZM12.5 1.0998L21.8 6.9998H2.3L12.5 1.0998Z" fill="#4E2583"/>
<path d="M23.5 20H0.5C0.2 20 0 20.2 0 20.5V23.5C0 23.8 0.2 24 0.5 24H23.5C23.8 24 24 23.8 24 23.5V20.5C24 20.2 23.8 20 23.5 20ZM23 23H1V21H23V23Z" fill="#4E2583"/>
<path d="M7.5 10C7.8 10 8 9.8 8 9.5C8 9.2 7.8 9 7.5 9H6.5H3.5H2.5C2.2 9 2 9.2 2 9.5C2 9.8 2.2 10 2.5 10H3V18H2.5C2.2 18 2 18.2 2 18.5C2 18.8 2.2 19 2.5 19H3.5H6.5H7.5C7.8 19 8 18.8 8 18.5C8 18.2 7.8 18 7.5 18H7V10H7.5ZM4 10H6V18H4V10Z" fill="#4E2583"/>
<path d="M14.5 10C14.8 10 15 9.8 15 9.5C15 9.2 14.8 9 14.5 9H13.5H10.5H9.5C9.2 9 9 9.2 9 9.5C9 9.8 9.2 10 9.5 10H10V18H9.5C9.2 18 9 18.2 9 18.5C9 18.8 9.2 19 9.5 19H10.5H13.5H14.5C14.8 19 15 18.8 15 18.5C15 18.2 14.8 18 14.5 18H14V10H14.5ZM11 10H13V18H11V10Z" fill="#4E2583"/>
<path d="M21.5 10C21.8 10 22 9.8 22 9.5C22 9.2 21.8 9 21.5 9H20.5H17.5H16.5C16.2 9 16 9.2 16 9.5C16 9.8 16.2 10 16.5 10H17V18H16.5C16.2 18 16 18.2 16 18.5C16 18.8 16.2 19 16.5 19H17.5H20.5H21.5C21.8 19 22 18.8 22 18.5C22 18.2 21.8 18 21.5 18H21V10H21.5ZM18 10H20V18H18V10Z" fill="#4E2583"/>
</g>
<defs>
<clipPath id="clip0">
<rect width="24" height="24" fill="white"/>
</clipPath>
</defs>
</svg>
