<svg width="25" height="24" viewBox="0 0 25 24" fill="none" xmlns="http://www.w3.org/2000/svg">
<path d="M24.4605 12C24.4605 12.9439 22.9774 13.7529 22.7077 14.5618C22.4381 15.5057 23.3819 16.854 22.8426 17.663C22.3032 18.472 20.6853 18.472 20.0111 19.1461C19.3369 19.8203 19.4718 21.4382 18.528 21.9776C17.719 22.3821 16.3707 21.5731 15.4268 21.8427C14.483 22.1124 13.8089 23.5956 12.865 23.5956C11.9212 23.5956 11.1122 22.1124 10.3032 21.8427C9.35942 21.5731 8.01111 22.5169 7.20212 21.9776C6.39313 21.4382 6.39313 19.8203 5.71897 19.1461C5.04481 18.472 3.42683 18.6068 2.88751 17.663C2.48301 16.854 3.292 15.5057 3.02234 14.5618C2.75268 13.618 1.26953 12.9439 1.26953 12C1.26953 11.0562 2.75268 10.2472 3.02234 9.43825C3.292 8.49443 2.34818 7.14611 2.88751 6.33712C3.56167 5.3933 5.17964 5.52814 5.8538 4.85398C6.52796 4.17982 6.39313 2.56184 7.20212 2.02252C8.01111 1.61802 9.35942 2.42701 10.3032 2.15735C11.2471 1.88769 11.9212 0.404541 12.865 0.404541C13.8089 0.404541 14.6178 1.88769 15.4268 2.15735C16.3707 2.42701 17.719 1.48319 18.528 2.02252C19.3369 2.56184 19.3369 4.17982 20.0111 4.85398C20.6853 5.52814 22.3032 5.3933 22.8426 6.33712C23.2471 7.14611 22.4381 8.49443 22.7077 9.43825C22.9774 10.2472 24.4605 11.0562 24.4605 12Z" stroke="#4E2583" stroke-width="0.75" stroke-miterlimit="10" stroke-linecap="round" stroke-linejoin="round"/>
<path d="M13.0002 19.4157C17.0958 19.4157 20.4159 16.0956 20.4159 12C20.4159 7.90436 17.0958 4.58423 13.0002 4.58423C8.90461 4.58423 5.58447 7.90436 5.58447 12C5.58447 16.0956 8.90461 19.4157 13.0002 19.4157Z" stroke="#4E2583" stroke-width="0.75" stroke-miterlimit="10" stroke-linecap="round" stroke-linejoin="round"/>
<path d="M10.9775 8.89893V14.9663H15.0225" stroke="#4E2583" stroke-width="0.75" stroke-miterlimit="10" stroke-linecap="round" stroke-linejoin="round"/>
</svg>
