<svg width="24" height="24" viewBox="0 0 24 24" fill="none" xmlns="http://www.w3.org/2000/svg">
<g clip-path="url(#clip0)">
<path d="M13.4454 12.9566C13.3453 12.9615 13.2498 13.0001 13.1747 13.0662L8.72286 17.5213C8.69043 17.5542 8.66487 17.5931 8.64766 17.6359C8.63045 17.6787 8.62193 17.7244 8.62259 17.7704C8.62298 17.8709 8.66251 17.9674 8.73289 18.0395C8.80033 18.1037 8.89017 18.1395 8.98355 18.1392H9.02366C9.07089 18.1398 9.1177 18.1303 9.16094 18.1114C9.20418 18.0925 9.24284 18.0646 9.27433 18.0296L13.7262 13.6044C13.7557 13.574 13.7789 13.5381 13.7944 13.4988C13.8099 13.4594 13.8174 13.4174 13.8164 13.3752C13.8252 13.319 13.8252 13.2619 13.8164 13.2057C13.7918 13.1288 13.7418 13.0623 13.6745 13.0171C13.6072 12.9719 13.5264 12.9505 13.4454 12.9566Z" fill="#4E2583"/>
<path d="M11.0291 10.1757C11.0028 10.1114 10.9587 10.0557 10.902 10.0151C10.8452 9.97456 10.778 9.95077 10.7083 9.94649C10.6596 9.94308 10.6109 9.95231 10.567 9.97328C10.523 9.99425 10.4853 10.0262 10.4576 10.0661L5.9456 14.4913C5.88188 14.5589 5.84609 14.6478 5.84534 14.7404C5.8441 14.7866 5.85236 14.8325 5.8696 14.8753C5.88684 14.9182 5.9127 14.957 5.9456 14.9896C6.01612 15.0553 6.10965 15.0911 6.2063 15.0893C6.2543 15.0913 6.3022 15.0835 6.34705 15.0663C6.39189 15.0492 6.43271 15.0231 6.46699 14.9896L10.9188 10.5644C10.9476 10.5356 10.9704 10.5014 10.9859 10.4637C11.0014 10.4261 11.0093 10.3858 11.0091 10.3452C11.0253 10.2902 11.0321 10.2329 11.0291 10.1757Z" fill="#4E2583"/>
<path d="M19.0505 0C17.7141 0.00240205 16.4321 0.525703 15.4797 1.45749C14.5273 2.38927 13.9805 3.65519 13.9569 4.98331H10.3072C10.2386 4.99836 10.1759 5.033 10.1267 5.08298L0.100068 15.0496C0.0648845 15.0831 0.0368858 15.1233 0.0177581 15.1679C-0.00136962 15.2124 -0.0112305 15.2603 -0.0112305 15.3087C-0.0112305 15.3572 -0.00136962 15.4051 0.0177581 15.4496C0.0368858 15.4941 0.0648845 15.5344 0.100068 15.5679L8.44226 23.8701C8.47653 23.9035 8.51735 23.9296 8.5622 23.9468C8.60704 23.9639 8.65495 23.9717 8.70295 23.9697C8.79959 23.9715 8.89312 23.9358 8.96364 23.8701L18.9903 13.9034C19.0549 13.8364 19.0908 13.7471 19.0906 13.6543V10.1361C20.4036 10.0732 21.6416 9.50924 22.5467 8.56156C23.4517 7.61389 23.954 6.35562 23.9488 5.04896C23.9436 3.74229 23.4314 2.48799 22.5189 1.54742C21.6064 0.606845 20.364 0.0525405 19.0505 0ZM18.4088 13.4848L8.71297 23.0727L0.892174 15.2888L10.5278 5.71087H13.9469C14.0252 6.23436 14.1771 6.74432 14.3981 7.2258C14.0582 7.4651 13.8156 7.8174 13.7142 8.21902C13.6128 8.62063 13.6593 9.04504 13.8454 9.41552C14.0314 9.786 14.3446 10.0781 14.7285 10.239C15.1123 10.3999 15.5414 10.4189 15.9381 10.2927C16.3348 10.1665 16.6731 9.90341 16.8916 9.55091C17.1102 9.19842 17.1946 8.77983 17.1297 8.37083C17.0648 7.96182 16.8548 7.5894 16.5377 7.3209C16.2206 7.0524 15.8173 6.90554 15.4008 6.90687C15.278 6.91484 15.1567 6.93829 15.0398 6.97664C14.845 6.58766 14.713 6.17059 14.6488 5.74077H18.3185L18.4088 13.4848ZM15.0398 7.71417C15.161 7.66651 15.2905 7.64281 15.4208 7.6444C15.6699 7.64743 15.9089 7.7425 16.0913 7.91109C16.2737 8.07968 16.3864 8.30972 16.4076 8.55641C16.4287 8.80311 16.3567 9.04879 16.2056 9.24561C16.0545 9.44243 15.8351 9.5763 15.5902 9.62116C15.3452 9.66601 15.0922 9.61863 14.8805 9.48825C14.6688 9.35786 14.5134 9.15381 14.4447 8.91582C14.3761 8.67784 14.3989 8.42296 14.5089 8.20083C14.6189 7.9787 14.8082 7.80521 15.0398 7.71417ZM19.0505 9.39853V5.34211C19.0469 5.25466 19.013 5.17114 18.9545 5.10573C18.896 5.04031 18.8166 4.99706 18.7296 4.98331H14.6488C14.6646 4.13111 14.9327 3.30245 15.4197 2.60091C15.9067 1.89938 16.591 1.35609 17.3869 1.03898C18.1828 0.721869 19.0551 0.644995 19.8948 0.81797C20.7344 0.990945 21.5041 1.40609 22.1077 2.01152C22.7113 2.61695 23.1219 3.38579 23.2883 4.22193C23.4547 5.05807 23.3695 5.92442 23.0432 6.71267C22.717 7.50092 22.1643 8.1761 21.4541 8.6538C20.744 9.13151 19.9079 9.39054 19.0505 9.39853Z" fill="#4E2583"/>
</g>
<defs>
<clipPath id="clip0">
<rect width="24" height="24" fill="white"/>
</clipPath>
</defs>
</svg>
