<svg width="24" height="24" viewBox="0 0 24 24" fill="none" xmlns="http://www.w3.org/2000/svg">
<g clip-path="url(#clip0)">
<path d="M6.08949 18.71C5.99401 18.71 5.90245 18.7479 5.83493 18.8154C5.76742 18.8829 5.72949 18.9745 5.72949 19.07C5.72949 19.1172 5.7388 19.1641 5.7569 19.2077C5.77499 19.2514 5.8015 19.2911 5.83493 19.3245C5.86836 19.3579 5.90805 19.3845 5.95173 19.4026C5.9954 19.4207 6.04222 19.43 6.08949 19.43C6.13677 19.43 6.18358 19.4207 6.22726 19.4026C6.27094 19.3845 6.31062 19.3579 6.34405 19.3245C6.37748 19.2911 6.404 19.2514 6.42209 19.2077C6.44018 19.1641 6.44949 19.1172 6.44949 19.07C6.44949 18.9745 6.41156 18.8829 6.34405 18.8154C6.27654 18.7479 6.18497 18.71 6.08949 18.71Z" fill="#4E2583"/>
<path d="M3.90932 17.6201C3.81384 17.6201 3.72227 17.658 3.65476 17.7256C3.58724 17.7931 3.54932 17.8846 3.54932 17.9801C3.54932 18.0756 3.58724 18.1672 3.65476 18.2347C3.72227 18.3022 3.81384 18.3401 3.90932 18.3401C4.00479 18.3401 4.09636 18.3022 4.16387 18.2347C4.23139 18.1672 4.26932 18.0756 4.26932 17.9801C4.26932 17.8846 4.23139 17.7931 4.16387 17.7256C4.09636 17.658 4.00479 17.6201 3.90932 17.6201Z" fill="#4E2583"/>
<path d="M7.90906 17.25C7.81173 17.2525 7.71908 17.2923 7.65023 17.3612C7.58139 17.43 7.54159 17.5227 7.53906 17.62C7.54167 17.7164 7.5818 17.8079 7.65091 17.8752C7.72001 17.9424 7.81264 17.98 7.90906 17.98C8.00454 17.98 8.09611 17.9421 8.16362 17.8746C8.23113 17.807 8.26906 17.7155 8.26906 17.62C8.2691 17.5236 8.23149 17.431 8.16425 17.3618C8.09701 17.2927 8.00545 17.2526 7.90906 17.25Z" fill="#4E2583"/>
<path d="M6.4491 16.1598C6.37592 16.1598 6.30439 16.1815 6.24354 16.2222C6.18269 16.2628 6.13527 16.3206 6.10727 16.3882C6.07926 16.4558 6.07193 16.5302 6.08621 16.602C6.10049 16.6738 6.13573 16.7397 6.18747 16.7914C6.23922 16.8432 6.30515 16.8784 6.37692 16.8927C6.44869 16.907 6.52309 16.8997 6.59069 16.8716C6.6583 16.8436 6.71609 16.7962 6.75675 16.7354C6.7974 16.6745 6.8191 16.603 6.8191 16.5298C6.82048 16.4808 6.81186 16.4321 6.79375 16.3866C6.77564 16.3411 6.74844 16.2997 6.7138 16.2651C6.67917 16.2305 6.63783 16.2033 6.59231 16.1852C6.5468 16.1671 6.49807 16.1584 6.4491 16.1598Z" fill="#4E2583"/>
<path d="M7.90932 14.3401C7.89496 14.2537 7.8504 14.1752 7.78355 14.1185C7.71671 14.0619 7.63194 14.0308 7.54432 14.0308C7.4567 14.0308 7.37192 14.0619 7.30508 14.1185C7.23824 14.1752 7.19367 14.2537 7.17932 14.3401C7.17051 14.3931 7.17336 14.4474 7.18765 14.4992C7.20194 14.551 7.22733 14.599 7.26207 14.64C7.2968 14.681 7.34004 14.7139 7.38878 14.7365C7.43752 14.7591 7.4906 14.7708 7.54432 14.7708C7.59803 14.7708 7.65111 14.7591 7.69985 14.7365C7.74859 14.7139 7.79183 14.681 7.82657 14.64C7.8613 14.599 7.88669 14.551 7.90098 14.4992C7.91527 14.4474 7.91812 14.3931 7.90932 14.3401Z" fill="#4E2583"/>
<path d="M4.99916 14.3398C4.90277 14.3424 4.81121 14.3826 4.74397 14.4517C4.67673 14.5208 4.63912 14.6134 4.63916 14.7098C4.63916 14.8053 4.67709 14.8969 4.7446 14.9644C4.81211 15.0319 4.90368 15.0698 4.99916 15.0698C5.09464 15.0698 5.18621 15.0319 5.25372 14.9644C5.32123 14.8969 5.35916 14.8053 5.35916 14.7098C5.3592 14.6134 5.32159 14.5208 5.25435 14.4517C5.18711 14.3826 5.09555 14.3424 4.99916 14.3398Z" fill="#4E2583"/>
<path d="M8.99916 15.4302C8.90277 15.4328 8.81121 15.4729 8.74397 15.542C8.67673 15.6111 8.63912 15.7038 8.63916 15.8002C8.63916 15.8957 8.67709 15.9872 8.7446 16.0547C8.81211 16.1222 8.90368 16.1602 8.99916 16.1602C9.09464 16.1602 9.18621 16.1222 9.25372 16.0547C9.32123 15.9872 9.35916 15.8957 9.35916 15.8002C9.3592 15.7038 9.32159 15.6111 9.25435 15.542C9.18711 15.4729 9.09555 15.4328 8.99916 15.4302Z" fill="#4E2583"/>
<path d="M22.8293 23C22.7622 23.0968 22.6725 23.1757 22.5679 23.2297C22.4633 23.2838 22.347 23.3113 22.2293 23.31H9.35926C9.24274 23.3124 9.12752 23.2852 9.02435 23.231C8.92118 23.1768 8.83342 23.0973 8.76926 23C8.70135 22.9039 8.6577 22.7927 8.64203 22.676C8.62636 22.5594 8.63913 22.4407 8.67926 22.33L12.8893 10.95H18.6993L22.9093 22.33C22.9508 22.4399 22.9652 22.5582 22.9513 22.6748C22.9374 22.7914 22.8955 22.903 22.8293 23ZM2.17926 20.36C2.1067 20.3613 2.03495 20.3446 1.97039 20.3115C1.90583 20.2783 1.85048 20.2297 1.80926 20.17C1.76549 20.1103 1.73712 20.0408 1.72666 19.9675C1.71619 19.8943 1.72395 19.8195 1.74926 19.75L4.20926 13.12H9.79926L10.5493 15.12L8.61926 20.36H2.17926ZM5.36926 10C5.60582 9.35966 5.72768 8.68264 5.72926 8V3.64H8.27926V8C8.28083 8.68264 8.4027 9.35966 8.63926 10L9.52926 12.41H4.52926L5.36926 10ZM13.4993 9.28C13.8273 8.42791 13.9967 7.52304 13.9993 6.61V0.73H17.6293V6.61C17.6278 7.51508 17.7905 8.41292 18.1093 9.26L18.4493 10.18H13.1593L13.4993 9.28ZM23.5893 22L18.7693 9C18.4866 8.23131 18.3411 7.41899 18.3393 6.6V0.73H18.7093C18.8056 0.727394 18.8972 0.687265 18.9644 0.618156C19.0317 0.549048 19.0693 0.456422 19.0693 0.36C19.0693 0.264522 19.0313 0.172955 18.9638 0.105442C18.8963 0.0379285 18.8047 2.47199e-08 18.7093 2.47199e-08H12.8893C12.7928 -3.51977e-05 12.7002 0.0375712 12.6311 0.104811C12.562 0.172052 12.5219 0.263613 12.5193 0.36C12.5218 0.457333 12.5616 0.549981 12.6304 0.618829C12.6993 0.687677 12.7919 0.727471 12.8893 0.73H13.2493V6.61C13.2507 7.42603 13.105 8.23565 12.8193 9L10.9393 14.1L9.31926 9.73C9.11279 9.17633 9.0045 8.59089 8.99926 8V3.64H9.17926C9.27474 3.64 9.3663 3.60207 9.43382 3.53456C9.50133 3.46705 9.53926 3.37548 9.53926 3.28C9.53926 3.18452 9.50133 3.09295 9.43382 3.02544C9.3663 2.95793 9.27474 2.92 9.17926 2.92H4.81926C4.72378 2.92 4.63221 2.95793 4.5647 3.02544C4.49719 3.09295 4.45926 3.18452 4.45926 3.28C4.45926 3.37548 4.49719 3.46705 4.5647 3.53456C4.63221 3.60207 4.72378 3.64 4.81926 3.64H4.99926V8C5.00193 8.60373 4.89695 9.20311 4.68926 9.77L1.06926 19.5C1.00546 19.6787 0.985335 19.8701 1.01056 20.0582C1.03578 20.2463 1.10562 20.4256 1.21425 20.5812C1.32288 20.7368 1.46715 20.8642 1.63502 20.9527C1.80289 21.0412 1.98949 21.0883 2.17926 21.09H8.34926L7.99926 22C7.91923 22.2208 7.89291 22.4575 7.92247 22.6905C7.95203 22.9235 8.03663 23.1462 8.16926 23.34C8.29848 23.539 8.47455 23.7032 8.68203 23.8183C8.8895 23.9333 9.12205 23.9957 9.35926 24H22.2293C22.4688 24.003 22.7054 23.9467 22.9178 23.8359C23.1303 23.7252 23.312 23.5636 23.4467 23.3655C23.5814 23.1674 23.665 22.939 23.6898 22.7007C23.7147 22.4624 23.6802 22.2217 23.5893 22Z" fill="#4E2583"/>
<path d="M12.5993 21.0001C12.4296 21.0001 12.2668 20.9327 12.1467 20.8126C12.0267 20.6926 11.9593 20.5298 11.9593 20.3601C11.9593 20.1904 12.0267 20.0276 12.1467 19.9076C12.2668 19.7875 12.4296 19.7201 12.5993 19.7201C12.769 19.7201 12.9318 19.7875 13.0518 19.9076C13.1719 20.0276 13.2393 20.1904 13.2393 20.3601C13.2393 20.5298 13.1719 20.6926 13.0518 20.8126C12.9318 20.9327 12.769 21.0001 12.5993 21.0001ZM12.5993 19.0001C12.3322 19.008 12.0733 19.0944 11.8549 19.2485C11.6366 19.4026 11.4685 19.6177 11.3717 19.8668C11.2749 20.1159 11.2536 20.388 11.3105 20.6491C11.3674 20.9102 11.5 21.1488 11.6917 21.335C11.8834 21.5212 12.1257 21.6468 12.3883 21.6962C12.651 21.7455 12.9224 21.7163 13.1686 21.6123C13.4148 21.5083 13.6248 21.3341 13.7726 21.1114C13.9203 20.8887 13.9992 20.6274 13.9993 20.3601C13.9994 20.1781 13.9629 19.9979 13.8921 19.8302C13.8212 19.6626 13.7175 19.5108 13.5869 19.384C13.4564 19.2572 13.3017 19.1579 13.132 19.0919C12.9624 19.026 12.7812 18.9947 12.5993 19.0001Z" fill="#4E2583"/>
<path d="M14.7794 15.1798C14.6114 15.1772 14.4512 15.1086 14.3333 14.9889C14.2155 14.8691 14.1494 14.7078 14.1494 14.5398C14.1494 14.3727 14.2158 14.2125 14.334 14.0943C14.4521 13.9762 14.6123 13.9098 14.7794 13.9098C14.9474 13.9098 15.1087 13.9758 15.2285 14.0937C15.3482 14.2116 15.4168 14.3718 15.4194 14.5398C15.4194 14.7095 15.352 14.8723 15.232 14.9924C15.112 15.1124 14.9492 15.1798 14.7794 15.1798ZM14.7794 13.1798C14.4376 13.2091 14.1192 13.3656 13.8871 13.6183C13.6551 13.8711 13.5264 14.2017 13.5264 14.5448C13.5264 14.8879 13.6551 15.2185 13.8871 15.4713C14.1192 15.724 14.4376 15.8805 14.7794 15.9098C14.9685 15.926 15.1589 15.9027 15.3385 15.8415C15.5181 15.7803 15.683 15.6824 15.8228 15.554C15.9626 15.4257 16.0742 15.2697 16.1506 15.096C16.2269 14.9223 16.2664 14.7346 16.2664 14.5448C16.2664 14.355 16.2269 14.1673 16.1506 13.9936C16.0742 13.8199 15.9626 13.6639 15.8228 13.5356C15.683 13.4072 15.5181 13.3093 15.3385 13.2481C15.1589 13.1869 14.9685 13.1636 14.7794 13.1798Z" fill="#4E2583"/>
<path d="M18.0592 19.1802C17.8894 19.1802 17.7266 19.1128 17.6066 18.9928C17.4866 18.8727 17.4192 18.71 17.4192 18.5402C17.4218 18.3722 17.4904 18.212 17.6101 18.0941C17.7299 17.9762 17.8911 17.9102 18.0592 17.9102C18.2262 17.9102 18.3865 17.9766 18.5046 18.0947C18.6228 18.2129 18.6892 18.3731 18.6892 18.5402C18.6892 18.7082 18.6231 18.8695 18.5053 18.9893C18.3874 19.109 18.2272 19.1776 18.0592 19.1802ZM18.0592 17.1802C17.7874 17.1782 17.5211 17.2572 17.2943 17.4069C17.0675 17.5567 16.8903 17.7706 16.7854 18.0213C16.6805 18.272 16.6525 18.5483 16.705 18.815C16.7576 19.0817 16.8883 19.3267 17.0805 19.5189C17.2727 19.7111 17.5177 19.8418 17.7844 19.8943C18.0511 19.9469 18.3273 19.9189 18.5781 19.814C18.8288 19.709 19.0427 19.5319 19.1924 19.3051C19.3422 19.0783 19.4211 18.812 19.4192 18.5402C19.4165 18.1803 19.2724 17.8359 19.0179 17.5814C18.7635 17.327 18.419 17.1828 18.0592 17.1802Z" fill="#4E2583"/>
</g>
<defs>
<clipPath id="clip0">
<rect width="24" height="24" fill="white"/>
</clipPath>
</defs>
</svg>
