<svg width="24" height="24" viewBox="0 0 24 24" fill="none" xmlns="http://www.w3.org/2000/svg">
<g clip-path="url(#clip0)">
<path d="M1.35361 23.2684L12.0036 14.1684L22.6536 23.2684H1.35361ZM4.00361 12.9384L0.923613 10.3084L4.00361 7.6784V12.9384ZM7.60361 16.9384L0.733613 22.8484V11.0984L7.60361 16.9384ZM19.2736 4.2884V13.5584L15.8436 16.4884L12.2436 13.4084C12.1751 13.3549 12.0906 13.3258 12.0036 13.3258C11.9166 13.3258 11.8322 13.3549 11.7636 13.4084L8.16361 16.4884L4.73361 13.5584V4.2884H19.2736ZM12.0036 0.838397L15.1936 3.5684H8.81361L12.0036 0.838397ZM23.0836 10.3084L20.0036 12.9384V7.6784L23.0836 10.3084ZM23.2736 22.8484L16.4036 16.9984L23.2736 11.1284V22.8484ZM24.0036 10.3084C24.013 10.2622 24.013 10.2146 24.0036 10.1684C23.9825 10.1253 23.9517 10.0876 23.9136 10.0584L20.0036 6.7184V3.9284C20.0036 3.83292 19.9657 3.74135 19.8982 3.67384C19.8307 3.60633 19.7391 3.5684 19.6436 3.5684H16.3136L12.2436 0.0883974C12.1767 0.0313394 12.0916 0 12.0036 0C11.9156 0 11.8306 0.0313394 11.7636 0.0883974L7.69361 3.5684H4.36361C4.26814 3.5684 4.17657 3.60633 4.10905 3.67384C4.04154 3.74135 4.00361 3.83292 4.00361 3.9284V6.7184L0.133613 9.9984C0.0954991 10.0276 0.0646895 10.0653 0.0436131 10.1084C0.0341845 10.1546 0.0341845 10.2022 0.0436131 10.2484V23.6384H0.00361305C-0.00120435 23.6783 -0.00120435 23.7185 0.00361305 23.7584C0.0203558 23.7874 0.0404985 23.8142 0.063613 23.8384L0.203613 23.9984C0.243107 24.0074 0.284119 24.0074 0.323613 23.9984H23.6436C23.6831 24.0074 23.7241 24.0074 23.7636 23.9984L23.8336 23.9484L24.0036 23.7984C24.0084 23.7585 24.0084 23.7183 24.0036 23.6784V10.3084Z" fill="#4E2583"/>
<path d="M6.91371 9.50857H17.0937C17.1892 9.50857 17.2808 9.47065 17.3483 9.40313C17.4158 9.33562 17.4537 9.24405 17.4537 9.14857C17.4537 9.0531 17.4158 8.96153 17.3483 8.89402C17.2808 8.8265 17.1892 8.78857 17.0937 8.78857H6.91371C6.81823 8.78857 6.72667 8.8265 6.65915 8.89402C6.59164 8.96153 6.55371 9.0531 6.55371 9.14857C6.55371 9.24405 6.59164 9.33562 6.65915 9.40313C6.72667 9.47065 6.81823 9.50857 6.91371 9.50857Z" fill="#4E2583"/>
<path d="M8.73377 7.14846H15.2738C15.3702 7.14849 15.4628 7.11089 15.5319 7.04365C15.601 6.97641 15.6412 6.88484 15.6438 6.78846C15.6412 6.69112 15.6014 6.59848 15.5326 6.52963C15.4638 6.46078 15.3711 6.42099 15.2738 6.41846H8.73377C8.63644 6.42099 8.54379 6.46078 8.47494 6.52963C8.40609 6.59848 8.3663 6.69112 8.36377 6.78846C8.36638 6.88484 8.40651 6.97641 8.47561 7.04365C8.54472 7.11089 8.63735 7.14849 8.73377 7.14846Z" fill="#4E2583"/>
<path d="M6.91371 11.8784H17.0937C17.1901 11.8758 17.2817 11.8357 17.3489 11.7666C17.4161 11.6975 17.4537 11.6049 17.4537 11.5084C17.4537 11.413 17.4158 11.3214 17.3483 11.2539C17.2808 11.1864 17.1892 11.1484 17.0937 11.1484H6.91371C6.81823 11.1484 6.72667 11.1864 6.65915 11.2539C6.59164 11.3214 6.55371 11.413 6.55371 11.5084C6.55368 11.6049 6.59128 11.6975 6.65852 11.7666C6.72576 11.8357 6.81732 11.8758 6.91371 11.8784Z" fill="#4E2583"/>
</g>
<defs>
<clipPath id="clip0">
<rect width="24" height="24" fill="white"/>
</clipPath>
</defs>
</svg>
