<svg width="24" height="24" viewBox="0 0 24 24" fill="none" xmlns="http://www.w3.org/2000/svg">
<g clip-path="url(#clip0)">
<path d="M6.07926 3.15616C5.99847 3.20243 5.93911 3.27861 5.91401 3.36826C5.88891 3.45791 5.90007 3.55384 5.94509 3.63533C5.97747 3.68765 6.02258 3.73091 6.07621 3.76107C6.12984 3.79124 6.19023 3.80732 6.25176 3.80783C6.31218 3.80534 6.37121 3.78894 6.42426 3.75991C6.4639 3.73726 6.49869 3.70702 6.52665 3.67092C6.55461 3.63482 6.57518 3.59357 6.58719 3.54952C6.59921 3.50547 6.60243 3.45948 6.59667 3.41419C6.59091 3.3689 6.57629 3.32518 6.55363 3.28554C6.53098 3.24589 6.50074 3.2111 6.46464 3.18314C6.42854 3.15519 6.38729 3.13462 6.34324 3.1226C6.29919 3.11059 6.25321 3.10737 6.20791 3.11313C6.16262 3.11889 6.1189 3.13351 6.07926 3.15616Z" fill="#4E2583"/>
<path d="M8.67645 2.06348C8.59829 2.08993 8.5318 2.14282 8.48844 2.21304C8.44508 2.28325 8.42757 2.36639 8.43892 2.44812C8.45027 2.52986 8.48978 2.60508 8.55063 2.66081C8.61148 2.71655 8.68987 2.74932 8.77228 2.75348H8.85853C8.94841 2.72877 9.02495 2.66967 9.07158 2.58896C9.11821 2.50825 9.13119 2.41243 9.1077 2.32223C9.08091 2.23369 9.02142 2.15867 8.94133 2.11239C8.86124 2.06612 8.76653 2.05205 8.67645 2.07306" fill="#4E2583"/>
<path d="M3.83702 4.88106C3.79116 4.93101 3.76059 4.99307 3.74893 5.05988C3.73727 5.12669 3.74502 5.19543 3.77124 5.25797C3.79747 5.32051 3.84108 5.37422 3.8969 5.41272C3.95272 5.45123 4.01842 5.47292 4.08619 5.47522C4.1768 5.47292 4.26286 5.43505 4.32577 5.36981C4.35914 5.33844 4.38572 5.30058 4.40389 5.25855C4.42207 5.21652 4.43144 5.17122 4.43144 5.12543C4.43144 5.07964 4.42207 5.03434 4.40389 4.99231C4.38572 4.95028 4.35914 4.91242 4.32577 4.88106C4.29441 4.8477 4.25655 4.82111 4.21452 4.80294C4.17249 4.78477 4.12719 4.77539 4.0814 4.77539C4.03561 4.77539 3.99031 4.78477 3.94828 4.80294C3.90625 4.82111 3.86839 4.8477 3.83702 4.88106Z" fill="#4E2583"/>
<path d="M1.48889 9.48089C1.44484 9.46893 1.39887 9.46577 1.3536 9.47158C1.30833 9.47739 1.26465 9.49206 1.22505 9.51475C1.18545 9.53744 1.1507 9.56771 1.1228 9.60383C1.0949 9.63995 1.07438 9.68121 1.06243 9.72526C1.05047 9.76931 1.04731 9.81528 1.05312 9.86055C1.05893 9.90582 1.0736 9.9495 1.09629 9.9891C1.11899 10.0287 1.14926 10.0634 1.18538 10.0913C1.2215 10.1192 1.26276 10.1398 1.3068 10.1517H1.39305C1.4702 10.1538 1.54568 10.1291 1.60678 10.082C1.66788 10.0349 1.71086 9.9681 1.72847 9.89297C1.75205 9.8053 1.74012 9.71187 1.69527 9.63294C1.65042 9.554 1.57627 9.49593 1.48889 9.4713" fill="#4E2583"/>
<path d="M1.04827 12.1735C0.959992 12.1733 0.875024 12.207 0.810848 12.2676C0.746672 12.3283 0.70817 12.4112 0.703266 12.4993C0.701942 12.545 0.70996 12.5904 0.726829 12.6329C0.743698 12.6753 0.769062 12.7139 0.801366 12.7462C0.83367 12.7785 0.872233 12.8039 0.914689 12.8207C0.957145 12.8376 1.0026 12.8456 1.04827 12.8443C1.13977 12.8443 1.22752 12.8079 1.29222 12.7432C1.35692 12.6785 1.39327 12.5908 1.39327 12.4993C1.39327 12.4078 1.35692 12.32 1.29222 12.2553C1.22752 12.1906 1.13977 12.1543 1.04827 12.1543" fill="#4E2583"/>
<path d="M2.60993 6.98932C2.52959 6.94349 2.43453 6.93087 2.34501 6.95414C2.25549 6.97741 2.17861 7.03475 2.13077 7.11391C2.10718 7.15394 2.09192 7.19834 2.08591 7.24442C2.0799 7.2905 2.08326 7.33732 2.09579 7.38207C2.10832 7.42682 2.12976 7.46858 2.15882 7.50483C2.18789 7.54109 2.22398 7.57111 2.26494 7.59307C2.32098 7.61137 2.38139 7.61137 2.43744 7.59307C2.49791 7.59377 2.55744 7.57811 2.60974 7.54774C2.66203 7.51738 2.70515 7.47344 2.73452 7.42057C2.75849 7.38111 2.77429 7.33725 2.781 7.29157C2.78771 7.24589 2.78517 7.19933 2.77356 7.15464C2.76194 7.10996 2.74147 7.06806 2.71337 7.03144C2.68526 6.99481 2.65009 6.96419 2.60993 6.94141" fill="#4E2583"/>
<path d="M11.5035 2.38909C11.5713 2.3872 11.637 2.36538 11.6925 2.32634C11.748 2.28731 11.7907 2.23279 11.8153 2.16961C11.84 2.10642 11.8455 2.03738 11.8311 1.9711C11.8167 1.90482 11.7831 1.84424 11.7345 1.79695C11.6859 1.74965 11.6244 1.71773 11.5578 1.70518C11.4911 1.69263 11.4223 1.7 11.3598 1.72637C11.2973 1.75274 11.244 1.79694 11.2065 1.85345C11.169 1.90996 11.149 1.97626 11.1489 2.04409C11.1514 2.13646 11.1899 2.2242 11.2561 2.28864C11.3223 2.35308 11.4111 2.38912 11.5035 2.38909Z" fill="#4E2583"/>
<path d="M14.1292 22.2652C14.0466 22.2851 13.9742 22.3347 13.9259 22.4046C13.8776 22.4745 13.8568 22.5598 13.8675 22.6441C13.8782 22.7284 13.9196 22.8058 13.9838 22.8614C14.048 22.9171 14.1305 22.9471 14.2154 22.9456H14.3113C14.3998 22.9189 14.4748 22.8594 14.5211 22.7793C14.5674 22.6992 14.5814 22.6045 14.5604 22.5144C14.5337 22.4263 14.4738 22.352 14.3933 22.3073C14.3128 22.2626 14.2181 22.251 14.1292 22.2748" fill="#4E2583"/>
<path d="M20.7325 17.4255C20.6938 17.4018 20.6506 17.3861 20.6057 17.3795C20.5607 17.3729 20.5149 17.3755 20.471 17.3872C20.4271 17.3988 20.386 17.4193 20.3502 17.4473C20.3145 17.4753 20.2847 17.5103 20.2629 17.5501C20.2171 17.6305 20.2044 17.7255 20.2277 17.8151C20.251 17.9046 20.3083 17.9814 20.3875 18.0293C20.4405 18.0583 20.4996 18.0747 20.56 18.0772C20.6226 18.0767 20.684 18.0595 20.7379 18.0275C20.7917 17.9955 20.8362 17.9499 20.8667 17.8951C20.8919 17.8568 20.9087 17.8136 20.9161 17.7684C20.9234 17.7231 20.9212 17.6768 20.9094 17.6325C20.8976 17.5881 20.8767 17.5468 20.8478 17.5111C20.819 17.4755 20.7829 17.4463 20.7421 17.4255" fill="#4E2583"/>
<path d="M11.5037 22.6006C11.4113 22.6031 11.3236 22.6415 11.2591 22.7078C11.1947 22.774 11.1587 22.8628 11.1587 22.9552C11.1587 23.0467 11.195 23.1344 11.2597 23.1991C11.3244 23.2638 11.4122 23.3002 11.5037 23.3002C11.5952 23.3002 11.6829 23.2638 11.7476 23.1991C11.8123 23.1344 11.8487 23.0467 11.8487 22.9552C11.8487 22.8628 11.8127 22.774 11.7482 22.7078C11.6838 22.6415 11.5961 22.6031 11.5037 22.6006Z" fill="#4E2583"/>
<path d="M21.6904 14.8664C21.6463 14.8551 21.6005 14.8525 21.5555 14.8589C21.5104 14.8653 21.4671 14.8805 21.428 14.9036C21.3888 14.9268 21.3546 14.9574 21.3273 14.9938C21.2999 15.0301 21.2801 15.0715 21.2687 15.1155C21.2574 15.1596 21.2549 15.2054 21.2612 15.2505C21.2676 15.2955 21.2828 15.3388 21.306 15.378C21.3291 15.4171 21.3597 15.4514 21.3961 15.4787C21.4325 15.506 21.4738 15.5259 21.5179 15.5372H21.6041C21.6813 15.5392 21.7568 15.5146 21.8179 15.4675C21.879 15.4204 21.9219 15.3536 21.9396 15.2785C21.9511 15.2344 21.9537 15.1885 21.9474 15.1434C21.9411 15.0983 21.9259 15.0549 21.9028 15.0157C21.8796 14.9765 21.8489 14.9423 21.8125 14.915C21.776 14.8878 21.7345 14.868 21.6904 14.8568" fill="#4E2583"/>
<path d="M21.9588 12.1064C21.8664 12.1089 21.7787 12.1474 21.7142 12.2136C21.6498 12.2799 21.6137 12.3686 21.6138 12.461C21.6138 12.5525 21.6501 12.6403 21.7148 12.705C21.7795 12.7697 21.8673 12.806 21.9588 12.806C22.0503 12.806 22.138 12.7697 22.2027 12.705C22.2674 12.6403 22.3038 12.5525 22.3038 12.461C22.3051 12.4149 22.2971 12.369 22.2803 12.3261C22.2635 12.2831 22.2383 12.2439 22.2062 12.2109C22.174 12.1778 22.1355 12.1515 22.093 12.1336C22.0506 12.1157 22.0049 12.1064 21.9588 12.1064Z" fill="#4E2583"/>
<path d="M18.6526 19.6391C18.587 19.7055 18.5503 19.795 18.5503 19.8883C18.5503 19.9816 18.587 20.0711 18.6526 20.1375C18.72 20.2006 18.8094 20.235 18.9018 20.2333C18.9487 20.2418 18.9969 20.2403 19.0432 20.2287C19.0894 20.2171 19.1327 20.1958 19.1701 20.1662C19.2037 20.134 19.2305 20.0953 19.2488 20.0525C19.267 20.0097 19.2765 19.9636 19.2765 19.917C19.2765 19.8705 19.267 19.8244 19.2488 19.7816C19.2305 19.7388 19.2037 19.7001 19.1701 19.6679C19.138 19.6357 19.1 19.6102 19.058 19.5928C19.0161 19.5754 18.9711 19.5664 18.9257 19.5664C18.8803 19.5664 18.8354 19.5754 18.7934 19.5928C18.7515 19.6102 18.7134 19.6357 18.6813 19.6679" fill="#4E2583"/>
<path d="M16.5633 21.249C16.4841 21.2969 16.4268 21.3737 16.4035 21.4633C16.3802 21.5528 16.3929 21.6478 16.4387 21.7282C16.4702 21.7792 16.5138 21.8216 16.5656 21.8517C16.6174 21.8818 16.6759 21.8986 16.7358 21.9007C16.7924 21.9149 16.8516 21.9149 16.9083 21.9007C16.9492 21.8787 16.9853 21.8487 17.0144 21.8125C17.0434 21.7762 17.0649 21.7344 17.0774 21.6897C17.0899 21.6449 17.0933 21.5981 17.0873 21.552C17.0813 21.506 17.066 21.4616 17.0424 21.4215C16.9946 21.3424 16.9177 21.285 16.8282 21.2618C16.7387 21.2385 16.6436 21.2511 16.5633 21.2969" fill="#4E2583"/>
<path d="M21.0868 9.05912L18.2118 11.867C17.8137 12.2702 17.339 12.5897 16.8157 12.807C16.2924 13.0242 15.7309 13.1347 15.1643 13.132C14.4994 13.1307 13.8436 12.9766 13.2477 12.6816L14.2827 11.6466C14.5698 11.7269 14.8662 11.7688 15.1643 11.7712C15.5524 11.7733 15.937 11.6981 16.2957 11.5501C16.6544 11.402 16.98 11.184 17.2535 10.9087L20.1285 8.10079C20.6809 7.54584 20.9911 6.79467 20.9911 6.01163C20.9911 5.22858 20.6809 4.47741 20.1285 3.92246C19.855 3.64662 19.5296 3.42767 19.171 3.27825C18.8124 3.12884 18.4278 3.05191 18.0393 3.05191C17.6509 3.05191 17.2663 3.12884 16.9077 3.27825C16.5491 3.42767 16.2237 3.64662 15.9502 3.92246L13.0943 6.74954C12.8191 7.02308 12.6011 7.3487 12.453 7.70739C12.3049 8.06607 12.2297 8.45066 12.2318 8.83871C12.2328 9.13447 12.278 9.42843 12.366 9.71079L11.331 10.7458C11.027 10.1527 10.8693 9.49556 10.871 8.82912C10.8696 8.26413 10.9807 7.70451 11.1979 7.18293C11.4151 6.66134 11.734 6.18823 12.136 5.79121L14.9439 2.91621C15.3471 2.51257 15.8259 2.19236 16.3529 1.97389C16.8799 1.75541 17.4449 1.64296 18.0154 1.64296C18.5859 1.64296 19.1508 1.75541 19.6778 1.97389C20.2049 2.19236 20.6836 2.51257 21.0868 2.91621C21.8904 3.7289 22.341 4.82565 22.341 5.9685C22.341 7.11135 21.8904 8.20811 21.0868 9.02079V9.05912ZM12.1743 16.1412C12.1721 16.7125 12.0566 17.2777 11.8345 17.8041C11.6124 18.3304 11.2882 18.8076 10.8806 19.2079L8.06309 22.0829C7.45712 22.6882 6.68462 23.0993 5.84408 23.2639C5.00353 23.4285 4.13301 23.3391 3.34349 23.007C2.55397 22.675 1.8812 22.1153 1.41096 21.3995C0.940714 20.6836 0.694289 19.8439 0.703098 18.9875C0.695196 18.4244 0.798651 17.8652 1.00752 17.3422C1.21639 16.8193 1.52655 16.3427 1.92018 15.94L4.79518 13.1225C5.60942 12.3182 6.70778 11.8671 7.85226 11.867C8.51826 11.8689 9.1746 12.0265 9.76892 12.327L8.69559 13.362C8.41369 13.2709 8.11974 13.2225 7.82351 13.2183C7.43761 13.2173 7.05545 13.294 6.69982 13.4438C6.34419 13.5936 6.02236 13.8135 5.75351 14.0904L2.92643 16.8983C2.64893 17.1726 2.42819 17.499 2.2768 17.8586C2.12541 18.2183 2.04635 18.6042 2.04413 18.9945C2.0419 19.3847 2.11656 19.7715 2.26383 20.1329C2.41111 20.4943 2.62812 20.8231 2.90247 21.1006C3.17682 21.3781 3.50315 21.5988 3.86281 21.7502C4.22248 21.9016 4.60843 21.9807 4.99865 21.9829C5.38887 21.9851 5.77571 21.9104 6.13707 21.7632C6.49844 21.6159 6.82726 21.3989 7.10476 21.1245L9.91267 18.2495C10.294 17.8702 10.5636 17.3933 10.692 16.871C10.8205 16.3488 10.8028 15.8012 10.641 15.2883L11.6856 14.2437C11.9796 14.84 12.1336 15.4955 12.136 16.1604L12.1743 16.1412ZM9.42392 17.78L6.61601 20.5879C6.19155 21.0123 5.61587 21.2508 5.01559 21.2508C4.41532 21.2508 3.83964 21.0123 3.41518 20.5879C2.99072 20.1634 2.75226 19.5877 2.75226 18.9875C2.75226 18.3872 2.99072 17.8115 3.41518 17.387L6.22309 14.5791C6.6489 14.1569 7.22385 13.9193 7.82351 13.9179H8.11101L6.55851 15.4991C6.30018 15.7517 6.15208 16.0962 6.14643 16.4575C6.1561 16.8179 6.30358 17.1608 6.55851 17.4158C6.68456 17.5411 6.83409 17.6403 6.99853 17.7077C7.16298 17.7751 7.33911 17.8095 7.51684 17.8087C7.87519 17.8071 8.21886 17.6662 8.47517 17.4158L10.0373 15.8441C10.0862 16.1915 10.0537 16.5455 9.94226 16.8782C9.83082 17.2108 9.64352 17.513 9.39517 17.7608L9.42392 17.78ZM15.0014 8.04329C15.062 7.9707 15.137 7.91151 15.2216 7.86951C15.3063 7.82751 15.3988 7.80361 15.4933 7.79935C15.5877 7.79508 15.682 7.81054 15.7701 7.84473C15.8582 7.87892 15.9383 7.9311 16.0051 7.99794C16.0719 8.06478 16.1241 8.14482 16.1583 8.23294C16.1925 8.32107 16.208 8.41535 16.2037 8.50978C16.1994 8.60421 16.1755 8.69672 16.1335 8.7814C16.0915 8.86608 16.0323 8.94108 15.9598 9.00163L8.00559 16.9558C7.94505 17.0284 7.87005 17.0876 7.78537 17.1296C7.70068 17.1716 7.60818 17.1955 7.51375 17.1997C7.41932 17.204 7.32504 17.1885 7.23691 17.1544C7.14878 17.1202 7.06875 17.068 7.00191 17.0011C6.93507 16.9343 6.88289 16.8543 6.8487 16.7661C6.8145 16.678 6.79905 16.5837 6.80331 16.4893C6.80758 16.3949 6.83148 16.3024 6.87348 16.2177C6.91548 16.133 6.97466 16.058 7.04726 15.9975L15.0014 8.04329ZM12.9218 8.81954C12.9215 8.52242 12.9798 8.22815 13.0932 7.95354C13.2067 7.67894 13.3731 7.42938 13.5831 7.21913L16.391 4.41121C16.8165 3.98869 17.3918 3.75156 17.9914 3.75156C18.5911 3.75156 19.1664 3.98869 19.5918 4.41121C20.0144 4.83669 20.2515 5.41199 20.2515 6.01163C20.2515 6.61126 20.0144 7.18656 19.5918 7.61204L16.7839 10.42C16.5732 10.6286 16.3233 10.7936 16.0487 10.9054C15.7741 11.0172 15.48 11.0737 15.1835 11.0716H14.896L16.4485 9.51912C16.6946 9.26074 16.8318 8.9176 16.8318 8.56079C16.8318 8.20398 16.6946 7.86084 16.4485 7.60246C16.189 7.35854 15.8463 7.22274 15.4902 7.22274C15.134 7.22274 14.7913 7.35854 14.5318 7.60246L12.9506 9.10704C12.9506 9.01121 12.9506 8.91537 12.9506 8.81954H12.9218ZM21.5756 2.4658C20.6342 1.52712 19.3591 1 18.0298 1C16.7004 1 15.4253 1.52712 14.4839 2.4658L11.6377 5.27371C10.8677 6.04443 10.3697 7.04505 10.2193 8.12408C10.0688 9.2031 10.2741 10.3018 10.8039 11.2537L10.2577 11.8095C9.30672 11.2785 8.20867 11.0717 7.12969 11.2204C6.0507 11.3691 5.04953 11.8652 4.27768 12.6337L1.46976 15.4416C0.768103 16.1426 0.290183 17.036 0.0965003 18.0087C-0.0971828 18.9814 0.00207895 19.9897 0.381721 20.906C0.761363 21.8222 1.40432 22.6053 2.22919 23.156C3.05407 23.7066 4.02379 24.0002 5.01559 23.9995C5.67427 24.0021 6.3269 23.8738 6.93559 23.6221C7.54429 23.3704 8.09693 23.0003 8.56143 22.5333L11.3693 19.7254C12.1394 18.9547 12.6373 17.954 12.7877 16.875C12.9382 15.796 12.7329 14.6973 12.2031 13.7454L12.7493 13.1991C13.495 13.6103 14.332 13.8278 15.1835 13.8316C15.8419 13.8321 16.4939 13.7028 17.1023 13.4512C17.7107 13.1997 18.2636 12.8307 18.7293 12.3654L21.5372 9.55746C22.4759 8.61612 23.003 7.341 23.003 6.01163C23.003 4.68226 22.4759 3.40713 21.5372 2.4658" fill="#4E2583"/>
</g>
<defs>
<clipPath id="clip0">
<rect width="23.43" height="24" fill="white"/>
</clipPath>
</defs>
</svg>
