<svg width="24" height="24" viewBox="0 0 24 24" fill="none" xmlns="http://www.w3.org/2000/svg">
<g clip-path="url(#clip0)">
<path d="M1.735 20.3702C1.54955 20.3605 1.37104 20.2965 1.22152 20.1864C1.07201 20.0762 0.958062 19.9247 0.893764 19.7505C0.829466 19.5763 0.817641 19.387 0.85975 19.2061C0.901859 19.0253 0.996056 18.8607 1.13069 18.7328C1.26533 18.6049 1.4345 18.5193 1.61729 18.4865C1.80008 18.4537 1.98847 18.4752 2.15917 18.5483C2.32986 18.6215 2.47538 18.743 2.57772 18.898C2.68007 19.053 2.73475 19.2345 2.735 19.4202C2.735 19.6722 2.63491 19.9138 2.45676 20.092C2.2786 20.2701 2.03696 20.3702 1.785 20.3702H1.735ZM2.055 17.7802V7.11023C2.05504 7.01381 2.01743 6.92119 1.95019 6.85208C1.88295 6.78297 1.79139 6.74284 1.695 6.74023C1.59767 6.74276 1.50502 6.78256 1.43618 6.85141C1.36733 6.92025 1.32753 7.0129 1.325 7.11023V17.7802C0.918404 17.8702 0.559324 18.1071 0.316643 18.4455C0.0739626 18.7839 -0.0352319 19.2 0.0100052 19.6139C0.0552422 20.0279 0.251726 20.4106 0.561767 20.6886C0.871808 20.9666 1.27358 21.1203 1.69 21.1203C2.10643 21.1203 2.5082 20.9666 2.81824 20.6886C3.12828 20.4106 3.32477 20.0279 3.37 19.6139C3.41524 19.2 3.30605 18.7839 3.06336 18.4455C2.82068 18.1071 2.4616 17.8702 2.055 17.7802Z" fill="#4E2583"/>
<path d="M22.3752 20.3702C22.1232 20.3702 21.8816 20.2701 21.7034 20.0919C21.5253 19.9137 21.4252 19.6721 21.4252 19.4202C21.4252 19.1682 21.5253 18.9266 21.7034 18.7484C21.8816 18.5702 22.1232 18.4702 22.3752 18.4702C22.5254 18.4208 22.6852 18.4077 22.8414 18.4321C22.9976 18.4564 23.1458 18.5174 23.2739 18.6101C23.4019 18.7029 23.5062 18.8246 23.5781 18.9654C23.65 19.1062 23.6874 19.2621 23.6874 19.4202C23.6874 19.5783 23.65 19.7341 23.5781 19.8749C23.5062 20.0157 23.4019 20.1375 23.2739 20.2302C23.1458 20.3229 22.9976 20.3839 22.8414 20.4082C22.6852 20.4326 22.5254 20.4195 22.3752 20.3702ZM22.7452 17.7802V9.78016C22.7452 9.68203 22.7062 9.58792 22.6368 9.51853C22.5674 9.44914 22.4733 9.41016 22.3752 9.41016C22.3271 9.41014 22.2794 9.41977 22.2351 9.43848C22.1907 9.4572 22.1506 9.48461 22.117 9.51911C22.0835 9.5536 22.0572 9.59448 22.0397 9.63932C22.0222 9.68416 22.0139 9.73205 22.0152 9.78016V17.7802C21.6113 17.8701 21.2548 18.1058 21.014 18.4423C20.7732 18.7788 20.665 19.1923 20.7103 19.6036C20.7555 20.0149 20.9509 20.3951 21.259 20.6712C21.5672 20.9473 21.9664 21.1 22.3802 21.1C22.794 21.1 23.1932 20.9473 23.5013 20.6712C23.8095 20.3951 24.0049 20.0149 24.0501 19.6036C24.0954 19.1923 23.9872 18.7788 23.7464 18.4423C23.5056 18.1058 23.1491 17.8701 22.7452 17.7802Z" fill="#4E2583"/>
<path d="M3.41506 10.1199L8.32506 13.2199H8.44506H20.4451C20.5405 13.2199 20.6321 13.182 20.6996 13.1144C20.7671 13.0469 20.8051 12.9554 20.8051 12.8599C20.8051 12.7644 20.7671 12.6728 20.6996 12.6053C20.6321 12.5378 20.5405 12.4999 20.4451 12.4999H8.62506L3.80506 9.49988C3.72417 9.44816 3.62604 9.4307 3.53227 9.45133C3.43851 9.47196 3.35677 9.52899 3.30506 9.60988C3.25334 9.69077 3.23587 9.78889 3.2565 9.88266C3.27713 9.97643 3.33417 10.0582 3.41506 10.1099" fill="#4E2583"/>
<path d="M5.61511 9.49994L7.98511 10.9999C8.02553 11.0343 8.07286 11.0595 8.1239 11.074C8.17493 11.0884 8.22848 11.0918 8.2809 11.0837C8.33333 11.0756 8.38341 11.0564 8.42775 11.0273C8.47209 10.9982 8.50965 10.9599 8.53789 10.915C8.56614 10.8701 8.58439 10.8197 8.59143 10.7671C8.59847 10.7145 8.59412 10.661 8.57868 10.6103C8.56325 10.5596 8.53708 10.5127 8.50196 10.473C8.46683 10.4332 8.42357 10.4015 8.37511 10.3799L6.05511 8.87994C6.01167 8.84744 5.96177 8.82461 5.90876 8.813C5.85576 8.80139 5.80089 8.80127 5.74783 8.81263C5.69478 8.824 5.64477 8.8466 5.60118 8.87891C5.55759 8.91122 5.52142 8.95249 5.49511 8.99994C5.4464 9.08258 5.43168 9.18091 5.45407 9.2742C5.47645 9.36748 5.5342 9.44842 5.61511 9.49994Z" fill="#4E2583"/>
<path d="M20.8651 16.7899V14.7899C20.8652 14.6935 20.8275 14.6009 20.7603 14.5318C20.6931 14.4627 20.6015 14.4225 20.5051 14.4199H3.60512C3.50873 14.4225 3.41717 14.4627 3.34993 14.5318C3.28269 14.6009 3.24508 14.6935 3.24512 14.7899V16.7899C3.24512 16.8854 3.28305 16.977 3.35056 17.0445C3.41807 17.112 3.50964 17.1499 3.60512 17.1499C3.70154 17.15 3.79417 17.1124 3.86327 17.0451C3.93238 16.9779 3.97251 16.8863 3.97512 16.7899V15.1499H20.1351V16.7899C20.1495 16.8764 20.194 16.9549 20.2609 17.0115C20.3277 17.0682 20.4125 17.0993 20.5001 17.0993C20.5877 17.0993 20.6725 17.0682 20.7394 17.0115C20.8062 16.9549 20.8508 16.8764 20.8651 16.7899Z" fill="#4E2583"/>
<path d="M19.375 19.0498H4.735C4.63861 19.0524 4.54705 19.0925 4.47981 19.1616C4.41257 19.2308 4.37496 19.3234 4.375 19.4198C4.375 19.5153 4.41293 19.6069 4.48044 19.6744C4.54795 19.7419 4.63952 19.7798 4.735 19.7798H19.375C19.4705 19.7798 19.562 19.7419 19.6296 19.6744C19.6971 19.6069 19.735 19.5153 19.735 19.4198C19.735 19.3234 19.6974 19.2308 19.6302 19.1616C19.5629 19.0925 19.4714 19.0524 19.375 19.0498Z" fill="#4E2583"/>
<path d="M9.05519 5.53C9.05519 5.45839 9.08364 5.38972 9.13428 5.33908C9.18491 5.28845 9.25359 5.26 9.3252 5.26H11.2252C11.2733 5.26002 11.321 5.25039 11.3653 5.23167C11.4097 5.21296 11.4498 5.18554 11.4834 5.15105C11.5169 5.11655 11.5432 5.07568 11.5607 5.03084C11.5782 4.986 11.5865 4.93811 11.5852 4.89V3C11.5852 2.96454 11.5922 2.92943 11.6057 2.89668C11.6193 2.86392 11.6392 2.83415 11.6643 2.80908C11.6893 2.78401 11.7191 2.76412 11.7519 2.75055C11.7846 2.73698 11.8197 2.73 11.8552 2.73H12.8052C12.8724 2.73722 12.9348 2.76854 12.9808 2.81817C13.0267 2.8678 13.0532 2.93239 13.0552 3V4.89C13.0539 4.93811 13.0622 4.986 13.0797 5.03084C13.0972 5.07568 13.1235 5.11655 13.157 5.15105C13.1906 5.18554 13.2307 5.21296 13.2751 5.23167C13.3194 5.25039 13.3671 5.26002 13.4152 5.26H15.3152C15.3851 5.26259 15.4512 5.29217 15.4997 5.34253C15.5482 5.39289 15.5752 5.46009 15.5752 5.53V6.53C15.5752 6.59896 15.5478 6.66509 15.499 6.71385C15.4503 6.76261 15.3842 6.79 15.3152 6.79H13.4152C13.3188 6.79261 13.2272 6.83274 13.16 6.90184C13.0928 6.97095 13.0552 7.06358 13.0552 7.16V9C13.0527 9.07082 13.0235 9.13806 12.9734 9.18816C12.9233 9.23827 12.856 9.26751 12.7852 9.27H11.8552C11.8197 9.27 11.7846 9.26302 11.7519 9.24945C11.7191 9.23588 11.6893 9.21599 11.6643 9.19092C11.6392 9.16585 11.6193 9.13608 11.6057 9.10332C11.5922 9.07057 11.5852 9.03546 11.5852 9V7.11C11.5852 7.01358 11.5476 6.92095 11.4804 6.85184C11.4131 6.78274 11.3216 6.74261 11.2252 6.74H9.3252C9.25529 6.74005 9.18808 6.71298 9.13773 6.66449C9.08737 6.61599 9.05778 6.54986 9.05519 6.48V5.53ZM9.3252 7.47H10.8552V9C10.8552 9.26522 10.9606 9.51957 11.1481 9.70711C11.3356 9.89464 11.59 10 11.8552 10H12.8052C13.0704 10 13.3248 9.89464 13.5123 9.70711C13.6998 9.51957 13.8052 9.26522 13.8052 9V7.47H15.3452C15.6104 7.47 15.8648 7.36464 16.0523 7.17711C16.2398 6.98957 16.3452 6.73522 16.3452 6.47V5.47C16.3452 5.20478 16.2398 4.95043 16.0523 4.76289C15.8648 4.57536 15.6104 4.47 15.3452 4.47H13.7952V3C13.7952 2.73478 13.6898 2.48043 13.5023 2.29289C13.3148 2.10536 13.0604 2 12.7952 2H11.8552C11.59 2 11.3356 2.10536 11.1481 2.29289C10.9606 2.48043 10.8552 2.73478 10.8552 3V4.53H9.3252C9.05998 4.53 8.80562 4.63536 8.61809 4.82289C8.43055 5.01043 8.3252 5.26478 8.3252 5.53V6.53C8.3252 6.79522 8.43055 7.04957 8.61809 7.23711C8.80562 7.42464 9.05998 7.53 9.3252 7.53" fill="#4E2583"/>
</g>
<defs>
<clipPath id="clip0">
<rect width="24" height="24" fill="white"/>
</clipPath>
</defs>
</svg>
