<svg width="24" height="24" viewBox="0 0 24 24" fill="none" xmlns="http://www.w3.org/2000/svg">
<path d="M20.87 20.9C19.3301 21.926 17.5872 22.6081 15.76 22.9C16.8572 20.5656 17.4306 18.0194 17.44 15.44C17.9501 15.6213 18.4507 15.8283 18.94 16.06C20.22 16.68 20.87 17.23 20.87 18.47V20.9ZM12.7 23.24H12.01H11.66V17.18L13.28 18.59L13.39 18.65H13.54C13.5794 18.6597 13.6206 18.6597 13.66 18.65H13.73H13.79H13.87C13.8889 18.6279 13.913 18.6108 13.94 18.6L14.03 18.54L14.11 18.47L14.21 18.4L14.3 18.32L14.41 18.23L14.5 18.14L14.62 18.03L14.72 17.92L14.83 17.8C14.8664 17.7591 14.8999 17.7157 14.93 17.67C14.93 17.62 15.01 17.58 15.05 17.52C15.0889 17.4776 15.1225 17.4305 15.15 17.38L15.27 17.22C15.27 17.16 15.34 17.11 15.37 17.06L15.48 16.87C15.5095 16.8079 15.5429 16.7478 15.58 16.69L15.68 16.48L15.77 16.28C15.799 16.1983 15.8324 16.1182 15.87 16.04C15.87 15.97 15.92 15.9 15.95 15.82C15.98 15.74 16 15.65 16.03 15.56C16.0579 15.4814 16.0813 15.4013 16.1 15.32V15.23L16.53 15.36C16.5693 17.9991 16.0049 20.6123 14.88 23C14.21 23.1 13.49 23.17 12.7 23.22V23.24ZM10.56 23.22H9.9C9.11 23.22 8.39 23.1 7.72 23C6.50114 20.5637 5.87416 17.8742 5.89 15.15L6.32 15V15.09C6.3387 15.1713 6.36207 15.2514 6.39 15.33C6.39 15.42 6.39 15.51 6.47 15.59C6.55 15.67 6.53 15.74 6.55 15.81C6.58757 15.8882 6.62096 15.9683 6.65 16.05L6.74 16.25L6.84 16.46L6.94 16.64L7.05 16.83C7.05 16.88 7.12 16.93 7.15 16.99L7.27 17.15C7.29753 17.2005 7.33111 17.2476 7.37 17.29L7.48 17.44L7.59 17.57L7.7 17.69L7.8 17.8L8 18L8.11 18.09L8.2 18.17L8.3 18.24L8.38 18.31L8.47 18.37C8.49703 18.3808 8.52105 18.3979 8.54 18.42H8.62H8.68H8.75C8.81295 18.4447 8.88135 18.4522 8.94815 18.4416C9.01495 18.4311 9.07773 18.4029 9.13 18.36L10.75 16.95V23.04H10.56V23.22ZM1.73 18.44C1.73 17.2 2.38 16.65 3.66 16.03C4.14849 15.7965 4.64922 15.5896 5.16 15.41C5.16942 17.9894 5.74282 20.5356 6.84 22.87C5.01376 22.5745 3.27162 21.8927 1.73 20.87V18.44ZM9.19 12.9C9.83345 13.2651 10.5602 13.4579 11.3 13.46C12.0394 13.4553 12.7655 13.2626 13.41 12.9C13.5691 13.4638 13.8605 13.9815 14.26 14.41C14.04 14.96 12.49 15.65 11.26 16C10.07 15.65 8.51 14.95 8.26 14.41C8.65949 13.9815 8.9509 13.4638 9.11 12.9H9.19ZM7 8.63C6.98447 8.57862 6.95876 8.5309 6.9244 8.48967C6.89004 8.44843 6.84773 8.41454 6.8 8.39C6.75045 8.38054 6.69955 8.38054 6.65 8.39C6.59718 8.37949 6.54282 8.37949 6.49 8.39C6.49 8.39 6.39 8.39 6.35 8.33C6.09325 8.06112 5.95308 7.70171 5.96 7.33C5.9 6.66 6.15 6.23 6.31 6.21C6.36102 6.23631 6.41759 6.25004 6.475 6.25004C6.53241 6.25004 6.58898 6.23631 6.64 6.21C6.68503 6.1743 6.72112 6.1286 6.74542 6.07653C6.76973 6.02446 6.78156 5.96744 6.78 5.91C6.78 5.82 6.78 5.72 6.78 5.59C6.78 5.46 6.78 5.19 6.78 5C8.01779 4.04284 9.55733 3.5604 11.12 3.64C12.2383 4.64714 13.6852 5.21238 15.19 5.23C15.38 5.23 15.58 5.23 15.78 5.23C15.78 5.3 15.78 5.36 15.78 5.43C15.78 5.5 15.78 5.77 15.78 5.96C15.7796 6.01689 15.793 6.07303 15.8191 6.12356C15.8453 6.17409 15.8833 6.21749 15.93 6.25C15.979 6.27714 16.034 6.29138 16.09 6.29138C16.146 6.29138 16.201 6.27714 16.25 6.25C16.41 6.25 16.66 6.7 16.6 7.37C16.6062 7.55442 16.5749 7.73819 16.5078 7.9101C16.4408 8.08202 16.3394 8.23849 16.21 8.37C16.1925 8.38963 16.1708 8.40517 16.1467 8.41554C16.1225 8.4259 16.0963 8.43084 16.07 8.43C16.0214 8.40758 15.9685 8.39597 15.915 8.39597C15.8615 8.39597 15.8086 8.40758 15.76 8.43C15.7123 8.45454 15.67 8.48843 15.6356 8.52967C15.6012 8.5709 15.5755 8.61862 15.56 8.67C15.2672 9.98491 14.5332 11.16 13.48 12C12.8491 12.4715 12.0826 12.7263 11.295 12.7263C10.5074 12.7263 9.7409 12.4715 9.11 12C8.03415 11.158 7.28751 9.96555 7 8.63ZM11.3 0.73C13.93 0.73 15.36 1.93 15.73 4.49C14.972 4.54621 14.2105 4.44753 13.4919 4.19996C12.7733 3.9524 12.1125 3.56113 11.55 3.05C11.487 2.98982 11.4064 2.95129 11.32 2.94C9.78503 2.826 8.25299 3.19676 6.94 4C7.41 1.79 8.82 0.73 11.3 0.73ZM8.93 17.82L8.85 17.76L8.77 17.7L8.68 17.63V17.58L8.6 17.51L8.54 17.45L8.46 17.36L8.4 17.3L8.31 17.2L8.25 17.13L8 16.94V16.86C7.9699 16.8224 7.94313 16.7822 7.92 16.74L7.85 16.65L7.77 16.52L7.71 16.41C7.67754 16.3669 7.65066 16.3199 7.63 16.27L7.56 16.16L7.44 16L7.38 15.88L7.3 15.7C7.30252 15.6567 7.30252 15.6133 7.3 15.57C7.28109 15.5051 7.2577 15.4416 7.23 15.38C7.23 15.33 7.23 15.29 7.23 15.24C7.16866 15.1656 7.11505 15.0852 7.07 15V14.87L7.75 14.73C8.15 15.59 9.69 16.23 10.62 16.54L9 17.88L8.9 17.82H8.93ZM15.54 14.89L15.49 15.03L15.43 15.24C15.4179 15.2914 15.4011 15.3416 15.38 15.39L15.32 15.57L15.26 15.71C15.26 15.77 15.26 15.82 15.19 15.88L15.13 16.01C15.1073 16.062 15.0805 16.1122 15.05 16.16L14.99 16.28C14.9671 16.3287 14.9404 16.3756 14.91 16.42L14.85 16.53L14.77 16.65L14.7 16.75C14.6767 16.789 14.6499 16.8258 14.62 16.86L14.55 16.95L14.47 17.05L14.4 17.13L14.33 17.22C14.3042 17.2407 14.2807 17.2642 14.26 17.29L14.18 17.37L14.12 17.43L14.04 17.5L13.98 17.55L13.91 17.61V17.66L13.84 17.71H13.79H13.72L13.62 17.77L12 16.53C12.93 16.22 14.46 15.53 14.87 14.72L15.54 14.86V14.89ZM19.22 15.35C18.5492 15.0305 17.8576 14.7565 17.15 14.53C16.74 14.4 16.4 14.3 16.08 14.22C15.76 14.14 15.25 14.03 14.83 13.96C14.4226 13.5449 14.1446 13.0202 14.03 12.45C15.0827 11.5873 15.844 10.421 16.21 9.11C16.4103 9.09435 16.5999 9.01357 16.75 8.88C17.1422 8.49623 17.3745 7.97813 17.4 7.43C17.48 6.43 17.11 5.71 16.53 5.55C16.53 5.49 16.53 5.42 16.53 5.36C16.53 5.14 16.53 4.93 16.53 4.73C16.16 1.6 14.41 0 11.3 0C8.19 0 6.45 1.59 6.1 4.75C6.09515 4.7798 6.09515 4.8102 6.1 4.84C6.1 5.08 6.1 5.32 6.1 5.57C5.52 5.73 5.1 6.5 5.23 7.45C5.23941 7.98991 5.44977 8.50691 5.82 8.9C5.97006 9.03357 6.15972 9.11435 6.36 9.13C6.72693 10.4431 7.49208 11.61 8.55 12.47C8.42732 13.0344 8.15037 13.5537 7.75 13.97C7.33 14.05 6.91 14.13 6.5 14.24C6.09 14.35 5.83 14.42 5.43 14.55C4.7208 14.7721 4.02892 15.0462 3.36 15.37C2.16 16 1 16.66 1 18.44V21.08C1.00023 21.1333 1.01197 21.1859 1.0344 21.2342C1.05684 21.2825 1.08945 21.3254 1.13 21.36C1.22 21.43 3.13 23.03 7.38 23.7H7.48C8.27088 23.8417 9.06864 23.9418 9.87 24H10.54H12.06H12.73C13.5303 23.9617 14.3281 23.8816 15.12 23.76H15.22C19.48 23.09 21.38 21.49 21.47 21.42C21.5105 21.3854 21.5432 21.3425 21.5656 21.2942C21.588 21.2459 21.5998 21.1933 21.6 21.14V18.44C21.6 16.66 20.44 15.95 19.25 15.38" fill="#4E2583"/>
<path d="M12.92 19.6699C12.8449 19.6699 12.7714 19.6922 12.7089 19.734C12.6464 19.7757 12.5977 19.8351 12.569 19.9045C12.5402 19.9739 12.5327 20.0503 12.5473 20.1241C12.562 20.1978 12.5982 20.2655 12.6513 20.3186C12.7045 20.3718 12.7722 20.408 12.8459 20.4226C12.9196 20.4373 12.996 20.4298 13.0655 20.401C13.1349 20.3722 13.1942 20.3235 13.236 20.261C13.2778 20.1985 13.3 20.1251 13.3 20.0499C13.3 19.9491 13.26 19.8525 13.1887 19.7812C13.1175 19.71 13.0208 19.6699 12.92 19.6699Z" fill="#4E2583"/>
<path d="M12.92 21.4902C12.8449 21.4902 12.7714 21.5125 12.7089 21.5543C12.6464 21.596 12.5977 21.6554 12.569 21.7248C12.5402 21.7943 12.5327 21.8707 12.5473 21.9444C12.562 22.0181 12.5982 22.0858 12.6513 22.1389C12.7045 22.1921 12.7722 22.2283 12.8459 22.2429C12.9196 22.2576 12.996 22.2501 13.0655 22.2213C13.1349 22.1925 13.1942 22.1438 13.236 22.0814C13.2778 22.0189 13.3 21.9454 13.3 21.8702C13.3 21.7695 13.26 21.6728 13.1887 21.6015C13.1175 21.5303 13.0208 21.4902 12.92 21.4902Z" fill="#4E2583"/>
</svg>
