<svg width="24" height="24" viewBox="0 0 24 24" fill="none" xmlns="http://www.w3.org/2000/svg">
<g clip-path="url(#clip0)">
<path d="M15.2701 14.5702C15.3026 14.6066 15.3428 14.6353 15.3878 14.6544C15.4327 14.6734 15.4814 14.6822 15.5301 14.6802C15.5773 14.6814 15.6242 14.6722 15.6675 14.6532C15.7107 14.6342 15.7492 14.6058 15.7801 14.5702L16.4301 13.9202L17.0901 14.5702C17.1211 14.6058 17.1596 14.6342 17.2028 14.6532C17.246 14.6722 17.2929 14.6814 17.3401 14.6802C17.3889 14.6822 17.4375 14.6734 17.4825 14.6544C17.5274 14.6353 17.5676 14.6066 17.6001 14.5702C17.6337 14.5367 17.6603 14.497 17.6785 14.4532C17.6967 14.4095 17.706 14.3625 17.706 14.3152C17.706 14.2678 17.6967 14.2209 17.6785 14.1771C17.6603 14.1333 17.6337 14.0936 17.6001 14.0602L17.0001 13.4102L17.6501 12.7602C17.7185 12.6909 17.7569 12.5975 17.7569 12.5002C17.7569 12.4028 17.7185 12.3094 17.6501 12.2402C17.6167 12.2066 17.5769 12.18 17.5332 12.1618C17.4894 12.1436 17.4425 12.1343 17.3951 12.1343C17.3477 12.1343 17.3008 12.1436 17.2571 12.1618C17.2133 12.18 17.1736 12.2066 17.1401 12.2402L16.4801 12.8902L15.8301 12.2402C15.7967 12.2066 15.7569 12.18 15.7132 12.1618C15.6694 12.1436 15.6225 12.1343 15.5751 12.1343C15.5277 12.1343 15.4808 12.1436 15.4371 12.1618C15.3933 12.18 15.3536 12.2066 15.3201 12.2402C15.2517 12.3094 15.2134 12.4028 15.2134 12.5002C15.2134 12.5975 15.2517 12.6909 15.3201 12.7602L15.9701 13.4102L15.3201 14.0602C15.2866 14.0936 15.2599 14.1333 15.2418 14.1771C15.2236 14.2209 15.2142 14.2678 15.2142 14.3152C15.2142 14.3625 15.2236 14.4095 15.2418 14.4532C15.2599 14.497 15.2866 14.5367 15.3201 14.5702" fill="#4E2583"/>
<path d="M10.9402 6.60977C10.9074 6.57496 10.8679 6.54722 10.8241 6.52826C10.7802 6.50929 10.7329 6.49951 10.6852 6.49951C10.6374 6.49951 10.5901 6.50929 10.5463 6.52826C10.5024 6.54722 10.4629 6.57496 10.4302 6.60977L9.78017 7.25977L9.12017 6.60977C9.08744 6.57496 9.04793 6.54722 9.00408 6.52826C8.96022 6.50929 8.91295 6.49951 8.86517 6.49951C8.81739 6.49951 8.77012 6.50929 8.72626 6.52826C8.6824 6.54722 8.6429 6.57496 8.61017 6.60977C8.57661 6.64322 8.54998 6.68296 8.53181 6.72672C8.51364 6.77048 8.50428 6.81739 8.50428 6.86477C8.50428 6.91215 8.51364 6.95907 8.53181 7.00283C8.54998 7.04659 8.57661 7.08633 8.61017 7.11977L9.26017 7.76977L8.61017 8.41977C8.54177 8.48902 8.50342 8.58244 8.50342 8.67977C8.50342 8.77711 8.54177 8.87052 8.61017 8.93977C8.64386 8.97468 8.68426 9.00242 8.72894 9.02132C8.77362 9.04022 8.82166 9.0499 8.87017 9.04977C8.96472 9.04737 9.05452 9.00785 9.12017 8.93977L9.78017 8.28977L10.4302 8.93977C10.4958 9.00785 10.5856 9.04737 10.6802 9.04977C10.7287 9.0499 10.7767 9.04022 10.8214 9.02132C10.8661 9.00242 10.9065 8.97468 10.9402 8.93977C11.0086 8.87052 11.0469 8.77711 11.0469 8.67977C11.0469 8.58244 11.0086 8.48902 10.9402 8.41977L10.2902 7.76977L10.9402 7.11977C10.9737 7.08633 11.0004 7.04659 11.0185 7.00283C11.0367 6.95907 11.0461 6.91215 11.0461 6.86477C11.0461 6.81739 11.0367 6.77048 11.0185 6.72672C11.0004 6.68296 10.9737 6.64322 10.9402 6.60977Z" fill="#4E2583"/>
<path d="M16.5298 4.13978C16.6924 4.1398 16.8514 4.18815 16.9864 4.2787C17.1215 4.36926 17.2266 4.49792 17.2883 4.64834C17.3501 4.79876 17.3657 4.96414 17.3333 5.12347C17.3008 5.2828 17.2217 5.42889 17.106 5.54316C16.9903 5.65743 16.8433 5.73473 16.6836 5.76523C16.5239 5.79573 16.3587 5.77806 16.209 5.71446C16.0594 5.65086 15.932 5.5442 15.8431 5.40804C15.7542 5.27189 15.7078 5.11238 15.7098 4.94978C15.7098 4.84257 15.7311 4.73641 15.7724 4.63748C15.8138 4.53855 15.8743 4.44881 15.9506 4.37346C16.0269 4.29812 16.1174 4.23866 16.2168 4.19855C16.3162 4.15843 16.4226 4.13846 16.5298 4.13978ZM16.5298 6.49978C16.8393 6.50362 17.1428 6.41471 17.4014 6.24452C17.6599 6.07433 17.8615 5.83064 17.9803 5.54484C18.0991 5.25904 18.1296 4.94423 18.0679 4.64093C18.0062 4.33764 17.8551 4.05977 17.6341 3.84309C17.4131 3.62642 17.1323 3.48087 16.8279 3.42519C16.5234 3.36951 16.2093 3.40626 15.9259 3.53069C15.6425 3.65512 15.4028 3.86154 15.2378 4.12337C15.0727 4.3852 14.9899 4.69044 14.9998 4.99978C15.0102 5.39952 15.1757 5.77955 15.4612 6.05949C15.7467 6.33942 16.13 6.49732 16.5298 6.49978Z" fill="#4E2583"/>
<path d="M4.59012 15.5001H6.05012V16.2301V17.0001H4.59012V15.5001ZM4.59012 17.6801H6.05012C6.23537 17.6805 6.41385 17.6105 6.5494 17.4843C6.68495 17.358 6.76743 17.1849 6.78012 17.0001V16.6401H17.0001C17.8435 16.6401 18.6524 16.3051 19.2487 15.7087C19.8451 15.1123 20.1801 14.3035 20.1801 13.4601C20.1801 12.6167 19.8451 11.8079 19.2487 11.2115C18.6524 10.6151 17.8435 10.2801 17.0001 10.2801H9.17012C8.83454 10.3015 8.49814 10.2539 8.18168 10.1402C7.86523 10.0266 7.57544 9.84922 7.33021 9.61915C7.08498 9.38908 6.88952 9.11118 6.75591 8.80261C6.62229 8.49404 6.55335 8.16135 6.55335 7.8251C6.55335 7.48884 6.62229 7.15615 6.75591 6.84759C6.88952 6.53902 7.08498 6.26111 7.33021 6.03105C7.57544 5.80098 7.86523 5.62363 8.18168 5.50995C8.49814 5.39627 8.83454 5.34867 9.17012 5.3701H13.0901V5.9101L14.6601 5.0001L13.0901 4.1001V4.6401H9.17012C8.75251 4.6401 8.339 4.72235 7.95318 4.88216C7.56737 5.04197 7.21681 5.27621 6.92152 5.5715C6.62623 5.86679 6.39199 6.21735 6.23218 6.60316C6.07237 6.98898 5.99012 7.40249 5.99012 7.8201C5.99012 8.2377 6.07237 8.65122 6.23218 9.03703C6.39199 9.42285 6.62623 9.77341 6.92152 10.0687C7.21681 10.364 7.56737 10.5982 7.95318 10.758C8.339 10.9178 8.75251 11.0001 9.17012 11.0001H17.0001C17.3357 10.9787 17.6721 11.0263 17.9886 11.1399C18.305 11.2536 18.5948 11.431 18.84 11.661C19.0853 11.8911 19.2807 12.169 19.4143 12.4776C19.5479 12.7862 19.6169 13.1188 19.6169 13.4551C19.6169 13.7914 19.5479 14.124 19.4143 14.4326C19.2807 14.7412 19.0853 15.0191 18.84 15.2491C18.5948 15.4792 18.305 15.6566 17.9886 15.7702C17.6721 15.8839 17.3357 15.9315 17.0001 15.9101H6.78012V15.5001C6.78012 15.3065 6.70321 15.1208 6.56631 14.9839C6.4294 14.847 6.24373 14.7701 6.05012 14.7701H4.59012C4.39825 14.7727 4.21513 14.8508 4.08038 14.9874C3.94564 15.124 3.8701 15.3082 3.87012 15.5001V17.0001C3.8701 17.192 3.94564 17.3762 4.08038 17.5128C4.21513 17.6494 4.39825 17.7275 4.59012 17.7301" fill="#4E2583"/>
<path d="M22.18 18.91H1.82V2.18H22.18V18.91ZM23.64 18.91H22.91V2.18H23.64C23.7355 2.18 23.827 2.14207 23.8946 2.07456C23.9621 2.00705 24 1.91548 24 1.82C24 1.72358 23.9624 1.63095 23.8952 1.56184C23.8279 1.49274 23.7364 1.45261 23.64 1.45H12.36V0.36C12.36 0.264522 12.3221 0.172955 12.2546 0.105442C12.187 0.0379285 12.0955 0 12 0C11.9045 0 11.813 0.0379285 11.7454 0.105442C11.6779 0.172955 11.64 0.264522 11.64 0.36V1.45H0.36C0.263613 1.45261 0.172052 1.49274 0.104811 1.56184C0.0375712 1.63095 -3.51921e-05 1.72358 3.03457e-08 1.82C3.03457e-08 1.91548 0.0379285 2.00705 0.105442 2.07456C0.172955 2.14207 0.264522 2.18 0.36 2.18H1.09V18.91H0.36C0.312724 18.91 0.265911 18.9193 0.222234 18.9374C0.178557 18.9555 0.138871 18.982 0.105442 19.0154C0.0720125 19.0489 0.0454951 19.0886 0.0274034 19.1322C0.00931168 19.1759 0 19.2227 0 19.27C0 19.3173 0.00931168 19.3641 0.0274034 19.4078C0.0454951 19.4514 0.0720125 19.4911 0.105442 19.5246C0.138871 19.558 0.178557 19.5845 0.222234 19.6026C0.265911 19.6207 0.312724 19.63 0.36 19.63H6.81L5.12 23.49C5.09878 23.5751 5.10845 23.6649 5.14728 23.7435C5.18611 23.822 5.25158 23.8843 5.33203 23.9191C5.41247 23.9539 5.50266 23.9591 5.58654 23.9336C5.67041 23.9081 5.74251 23.8537 5.79 23.78L7.61 19.63H11.61V23.63C11.61 23.7255 11.6479 23.817 11.7154 23.8846C11.783 23.9521 11.8745 23.99 11.97 23.99C12.0655 23.99 12.157 23.9521 12.2246 23.8846C12.2921 23.817 12.33 23.7255 12.33 23.63V19.63H16.33L18.15 23.78C18.1792 23.8457 18.2268 23.9016 18.2872 23.9406C18.3476 23.9797 18.4181 24.0003 18.49 24H18.63C18.6744 23.9815 18.7147 23.9543 18.7484 23.92C18.7822 23.8856 18.8087 23.8449 18.8264 23.8001C18.8441 23.7554 18.8527 23.7075 18.8516 23.6594C18.8505 23.6113 18.8397 23.5639 18.82 23.52L17.13 19.66H23.58C23.6755 19.66 23.767 19.6221 23.8346 19.5546C23.9021 19.487 23.94 19.3955 23.94 19.3C23.94 19.2045 23.9021 19.113 23.8346 19.0454C23.767 18.9779 23.6755 18.94 23.58 18.94" fill="#4E2583"/>
</g>
<defs>
<clipPath id="clip0">
<rect width="24" height="24" fill="white"/>
</clipPath>
</defs>
</svg>
