<svg width="24" height="24" viewBox="0 0 24 24" fill="none" xmlns="http://www.w3.org/2000/svg">
<path d="M9.29018 1.56018C9.25527 1.59387 9.22753 1.63427 9.20863 1.67895C9.18972 1.72363 9.18005 1.77166 9.18018 1.82018C9.18023 1.86719 9.19004 1.91368 9.20897 1.95671C9.2279 1.99974 9.25555 2.03838 9.29018 2.07018C9.32387 2.10509 9.36427 2.13283 9.40894 2.15173C9.45362 2.17063 9.50166 2.18031 9.55018 2.18018C9.59719 2.18012 9.64368 2.17032 9.68671 2.15139C9.72974 2.13245 9.76838 2.1048 9.80018 2.07018C9.8348 2.03838 9.86245 1.99974 9.88138 1.95671C9.90032 1.91368 9.91012 1.86719 9.91018 1.82018C9.91031 1.77166 9.90063 1.72363 9.88173 1.67895C9.86282 1.63427 9.83509 1.59387 9.80018 1.56018C9.7303 1.49694 9.63942 1.46191 9.54518 1.46191C9.45093 1.46191 9.36005 1.49694 9.29018 1.56018Z" fill="#4E2583"/>
<path d="M11.3698 1.45996C11.2986 1.45996 11.229 1.48107 11.1698 1.52063C11.1106 1.56019 11.0644 1.61641 11.0372 1.68219C11.0099 1.74798 11.0028 1.82036 11.0167 1.89019C11.0306 1.96003 11.0649 2.02417 11.1152 2.07452C11.1656 2.12487 11.2297 2.15915 11.2995 2.17304C11.3694 2.18693 11.4418 2.17981 11.5075 2.15256C11.5733 2.12531 11.6295 2.07917 11.6691 2.01997C11.7087 1.96076 11.7298 1.89116 11.7298 1.81996C11.7298 1.72448 11.6918 1.63292 11.6243 1.5654C11.5568 1.49789 11.4652 1.45996 11.3698 1.45996Z" fill="#4E2583"/>
<path d="M12.9298 1.56018C12.8949 1.59387 12.8672 1.63427 12.8483 1.67895C12.8294 1.72363 12.8197 1.77166 12.8198 1.82018C12.8199 1.86719 12.8297 1.91368 12.8486 1.95671C12.8676 1.99974 12.8952 2.03838 12.9298 2.07018C12.9616 2.1048 13.0003 2.13245 13.0433 2.15139C13.0863 2.17032 13.1328 2.18012 13.1798 2.18018C13.2283 2.18031 13.2764 2.17063 13.3211 2.15173C13.3657 2.13283 13.4061 2.10509 13.4398 2.07018C13.4744 2.03838 13.5021 1.99974 13.521 1.95671C13.54 1.91368 13.5498 1.86719 13.5498 1.82018C13.55 1.77166 13.5403 1.72363 13.5214 1.67895C13.5025 1.63427 13.4747 1.59387 13.4398 1.56018C13.37 1.49694 13.2791 1.46191 13.1848 1.46191C13.0906 1.46191 12.9997 1.49694 12.9298 1.56018Z" fill="#4E2583"/>
<path d="M11.0001 22.18C10.9913 22.233 10.9942 22.2872 11.0084 22.339C11.0227 22.3908 11.0481 22.4389 11.0829 22.4798C11.1176 22.5208 11.1608 22.5537 11.2096 22.5763C11.2583 22.5989 11.3114 22.6106 11.3651 22.6106C11.4188 22.6106 11.4719 22.5989 11.5207 22.5763C11.5694 22.5537 11.6126 22.5208 11.6474 22.4798C11.6821 22.4389 11.7075 22.3908 11.7218 22.339C11.7361 22.2872 11.7389 22.233 11.7301 22.18C11.7158 22.0935 11.6712 22.015 11.6044 21.9584C11.5375 21.9017 11.4527 21.8706 11.3651 21.8706C11.2775 21.8706 11.1927 21.9017 11.1259 21.9584C11.059 22.015 11.0145 22.0935 11.0001 22.18Z" fill="#4E2583"/>
<path d="M7.72998 21.82C7.68187 21.8186 7.63398 21.8269 7.58914 21.8444C7.5443 21.8619 7.50343 21.8882 7.46893 21.9218C7.43444 21.9554 7.40702 21.9955 7.38831 22.0398C7.36959 22.0842 7.35996 22.1318 7.35998 22.18C7.35118 22.233 7.35402 22.2872 7.36831 22.339C7.3826 22.3908 7.408 22.4388 7.44273 22.4798C7.47746 22.5208 7.5207 22.5537 7.56945 22.5763C7.61819 22.5989 7.67126 22.6106 7.72498 22.6106C7.7787 22.6106 7.83177 22.5989 7.88051 22.5763C7.92926 22.5537 7.9725 22.5208 8.00723 22.4798C8.04196 22.4388 8.06736 22.3908 8.08165 22.339C8.09594 22.2872 8.09878 22.233 8.08998 22.18C8.08998 22.0845 8.05205 21.9929 7.98454 21.9254C7.91703 21.8579 7.82546 21.82 7.72998 21.82Z" fill="#4E2583"/>
<path d="M15.0001 22.5498C15.0975 22.5473 15.1901 22.5075 15.259 22.4387C15.3278 22.3698 15.3676 22.2772 15.3701 22.1798C15.3675 22.0834 15.3274 21.9919 15.2583 21.9246C15.1892 21.8574 15.0966 21.8198 15.0001 21.8198C14.9047 21.8198 14.8131 21.8578 14.7456 21.9253C14.6781 21.9928 14.6401 22.0843 14.6401 22.1798C14.6401 22.2762 14.6777 22.3689 14.7449 22.438C14.8122 22.5071 14.9037 22.5472 15.0001 22.5498Z" fill="#4E2583"/>
<path d="M15.68 18.09C14.3841 18.0958 13.1211 17.6818 12.08 16.91C12.0419 16.881 11.9984 16.8598 11.9521 16.8478C11.9057 16.8358 11.8574 16.8331 11.81 16.84C11.7172 16.8602 11.6332 16.9092 11.57 16.98L9.62 19.62V12C9.63486 10.4644 10.2312 8.99142 11.289 7.87802C12.3467 6.76463 13.7871 6.09354 15.32 6V9C14.643 9.07514 14.0117 9.37844 13.53 9.86C13.2427 10.1396 13.0144 10.4738 12.8585 10.8431C12.7026 11.2124 12.6222 11.6092 12.6222 12.01C12.6222 12.4108 12.7026 12.8076 12.8585 13.1769C13.0144 13.5462 13.2427 13.8804 13.53 14.16L13.6 14.21L12.5 15.73C12.4706 15.7679 12.449 15.8112 12.4366 15.8576C12.4242 15.9039 12.4212 15.9522 12.4277 15.9997C12.4342 16.0472 12.4502 16.093 12.4746 16.1342C12.499 16.1755 12.5315 16.2114 12.57 16.24C12.6343 16.2856 12.7112 16.31 12.79 16.31C12.8458 16.31 12.9008 16.2974 12.951 16.2732C13.0012 16.249 13.0453 16.2137 13.08 16.17L14.18 14.68C14.6362 14.9426 15.1536 15.0806 15.68 15.08C16.4232 15.0842 17.1415 14.8125 17.6958 14.3173C18.25 13.8222 18.6007 13.139 18.68 12.4H21.68C21.5887 13.9328 20.9179 15.3734 19.8038 16.43C18.6897 17.4866 17.2154 18.08 15.68 18.09ZM19 20.36H11.81C11.7127 20.3625 11.62 20.4023 11.5512 20.4712C11.4823 20.54 11.4425 20.6327 11.44 20.73C11.4426 20.8264 11.4827 20.9179 11.5518 20.9852C11.621 21.0524 11.7136 21.09 11.81 21.09H19V21.84C19 22.2193 18.8493 22.583 18.5812 22.8512C18.313 23.1193 17.9493 23.27 17.57 23.27H5.16C4.78074 23.27 4.41701 23.1193 4.14884 22.8512C3.88066 22.583 3.73 22.2193 3.73 21.84V21.09H7.08C7.17548 21.09 7.26705 21.0521 7.33456 20.9846C7.40207 20.917 7.44 20.8255 7.44 20.73C7.44004 20.6336 7.40243 20.541 7.33519 20.4718C7.26795 20.4027 7.17639 20.3626 7.08 20.36H3.73V3.64H19V6.13C17.9713 5.55225 16.8097 5.25294 15.6299 5.26163C14.4501 5.27032 13.2931 5.58672 12.273 6.17956C11.253 6.7724 10.4053 7.62115 9.81372 8.64194C9.22216 9.66273 8.90721 10.8202 8.9 12V20.69C8.90059 20.7658 8.92507 20.8394 8.96995 20.9005C9.01484 20.9615 9.07785 21.0068 9.15 21.03H9.26C9.31704 21.0313 9.3735 21.0183 9.42418 20.9921C9.47486 20.9659 9.51813 20.9273 9.55 20.88L12 17.7C13.1063 18.4317 14.4036 18.8212 15.73 18.82C16.8776 18.8133 18.004 18.5102 19 17.94V20.36ZM3.73 2.16C3.73 1.97221 3.76699 1.78626 3.83885 1.61276C3.91072 1.43927 4.01605 1.28163 4.14884 1.14884C4.41701 0.88066 4.78074 0.73 5.16 0.73H17.57C17.7578 0.73 17.9437 0.766988 18.1172 0.838852C18.2907 0.910717 18.4484 1.01605 18.5812 1.14884C18.714 1.28163 18.8193 1.43927 18.8911 1.61276C18.963 1.78626 19 1.97221 19 2.16V2.91H3.73V2.16ZM19.14 7.08L17.27 9.45C16.8855 9.2072 16.4516 9.05345 16 9V6C17.1131 6.06742 18.186 6.44118 19.1 7.08H19.14ZM14 13.67C13.7895 13.4473 13.6253 13.185 13.5172 12.8983C13.409 12.6116 13.359 12.3062 13.37 12C13.3673 11.6959 13.4253 11.3943 13.5404 11.1129C13.6555 10.8314 13.8256 10.5757 14.0406 10.3606C14.2557 10.1456 14.5114 9.97555 14.7929 9.8604C15.0743 9.74526 15.3759 9.68733 15.68 9.69C15.9825 9.68849 16.2823 9.74692 16.562 9.86192C16.8418 9.97692 17.096 10.1462 17.31 10.36C17.7417 10.7946 17.984 11.3824 17.984 11.995C17.984 12.6076 17.7417 13.1954 17.31 13.63C17.0979 13.847 16.8442 14.019 16.5642 14.1358C16.2841 14.2526 15.9834 14.3119 15.68 14.31C15.3713 14.3216 15.0635 14.2709 14.7749 14.1609C14.4862 14.051 14.2227 13.884 14 13.67ZM21.67 11.67H18.67C18.5881 11.0029 18.2895 10.381 17.82 9.9L19.69 7.54C20.8776 8.59728 21.5969 10.0827 21.69 11.67H21.67ZM19.69 6.61V2.16C19.6901 1.594 19.468 1.05057 19.0716 0.646619C18.6751 0.242671 18.1359 0.0104815 17.57 0H5.16C4.58713 0 4.03773 0.227571 3.63265 0.632649C3.22757 1.03773 3 1.58713 3 2.16L3 21.84C3 22.4129 3.22757 22.9623 3.63265 23.3674C4.03773 23.7724 4.58713 24 5.16 24H17.57C18.1429 24 18.6923 23.7724 19.0974 23.3674C19.5024 22.9623 19.73 22.4129 19.73 21.84V17.46C20.5761 16.831 21.2633 16.0128 21.7367 15.0709C22.2102 14.1289 22.4568 13.0893 22.4568 12.035C22.4568 10.9807 22.2102 9.9411 21.7367 8.99914C21.2633 8.05717 20.5761 7.239 19.73 6.61" fill="#4E2583"/>
</svg>
