<svg width="24" height="24" viewBox="0 0 24 24" fill="none" xmlns="http://www.w3.org/2000/svg">
<g clip-path="url(#clip0)">
<path d="M16.5309 22.1891L16.1009 18.3691L22.6909 20.6891L23.1609 22.1891H16.5309ZM8.25091 22.1891L8.69091 18.1891H15.3509L15.8009 22.1891H8.25091ZM2.13091 18.1891H7.96091L7.51091 22.1891H0.880914L2.13091 18.1891ZM4.29091 11.2691H7.60091L8.39091 14.4391C8.41102 14.5193 8.4574 14.5904 8.52264 14.6411C8.58789 14.6919 8.66825 14.7193 8.75091 14.7191C8.83232 14.7189 8.91124 14.691 8.97481 14.6402C9.03837 14.5893 9.08282 14.5184 9.10091 14.4391L9.90091 11.2691H14.5709L14.8809 13.9891H10.9309C10.8354 13.9891 10.7439 14.027 10.6764 14.0945C10.6088 14.162 10.5709 14.2536 10.5709 14.3491C10.5709 14.4455 10.6085 14.5381 10.6757 14.6072C10.743 14.6763 10.8345 14.7165 10.9309 14.7191H14.9309L15.2409 17.4591H8.77091L8.93091 16.0891C8.93617 16.0418 8.93206 15.994 8.91882 15.9483C8.90558 15.9026 8.88347 15.86 8.85376 15.8228C8.82404 15.7857 8.7873 15.7547 8.74564 15.7318C8.70397 15.7088 8.65819 15.6943 8.61091 15.6891C8.56364 15.6838 8.51579 15.6879 8.4701 15.7012C8.42442 15.7144 8.38178 15.7365 8.34464 15.7662C8.3075 15.796 8.27657 15.8327 8.25362 15.8744C8.23068 15.916 8.21617 15.9618 8.21091 16.0091L8.02091 17.4691H2.35091L3.21091 14.7291H6.57091C6.6673 14.7265 6.75886 14.6863 6.8261 14.6172C6.89334 14.5481 6.93095 14.4555 6.93091 14.3591C6.93091 14.2636 6.89299 14.172 6.82547 14.1045C6.75796 14.037 6.66639 13.9991 6.57091 13.9991H3.44091L4.29091 11.2691ZM7.37091 7.90908C6.69024 7.59456 6.13742 7.05697 5.80402 6.38534C5.47062 5.71371 5.37665 4.94835 5.53766 4.21601C5.69868 3.48368 6.10502 2.82832 6.68939 2.35847C7.27376 1.88863 8.00109 1.63249 8.75091 1.63249C9.50074 1.63249 10.2281 1.88863 10.8124 2.35847C11.3968 2.82832 11.8032 3.48368 11.9642 4.21601C12.1252 4.94835 12.0312 5.71371 11.6978 6.38534C11.3644 7.05697 10.8116 7.59456 10.1309 7.90908C10.0806 7.9325 10.0363 7.96725 10.0016 8.01062C9.9669 8.054 9.94271 8.10481 9.93091 8.15908L8.75091 12.9091L7.57091 8.16908C7.55846 8.11382 7.53412 8.06193 7.49958 8.01703C7.46504 7.97213 7.42113 7.93529 7.37091 7.90908ZM19.7509 11.2691L21.2509 16.0691L15.6209 14.0691L15.3009 11.2491L19.7509 11.2691ZM15.7509 14.8891L21.5709 16.8891L22.4609 19.7591L16.0209 17.5591L15.7509 14.8891ZM24.0209 22.4391L20.3709 10.7991C20.3459 10.7261 20.2987 10.6628 20.236 10.618C20.1732 10.5732 20.098 10.5491 20.0209 10.5491H10.0809L10.5909 8.54908C11.3856 8.13595 12.0187 7.46805 12.3887 6.65236C12.7587 5.83668 12.8442 4.92042 12.6315 4.05035C12.4189 3.18028 11.9204 2.40676 11.2159 1.85368C10.5114 1.30061 9.64159 1 8.74591 1C7.85024 1 6.98048 1.30061 6.27596 1.85368C5.57143 2.40676 5.07292 3.18028 4.86028 4.05035C4.64763 4.92042 4.73316 5.83668 5.10316 6.65236C5.47315 7.46805 6.10621 8.13595 6.90091 8.54908L7.42091 10.5491H4.02091C3.9438 10.5491 3.86861 10.5732 3.80586 10.618C3.7431 10.6628 3.69593 10.7261 3.67091 10.7991L0.0209144 22.4391C0.0010385 22.4922 -0.00480223 22.5496 0.00395611 22.6056C0.0127144 22.6617 0.035776 22.7145 0.0709144 22.7591C0.105273 22.8087 0.151872 22.8486 0.206189 22.8748C0.260506 22.9011 0.320695 22.9129 0.380914 22.9091H23.6609C23.7178 22.9095 23.7739 22.8961 23.8245 22.87C23.875 22.8438 23.9184 22.8058 23.9509 22.7591C23.9861 22.7145 24.0091 22.6617 24.0179 22.6056C24.0266 22.5496 24.0208 22.4922 24.0009 22.4391" fill="#4E2583"/>
<path d="M7.66104 4.90889C7.66498 4.6942 7.73224 4.48546 7.85438 4.30886C7.97652 4.13226 8.1481 3.99567 8.34759 3.91623C8.54708 3.83679 8.76558 3.81804 8.97569 3.86233C9.18579 3.90662 9.37814 4.01197 9.52858 4.16518C9.67903 4.31838 9.78087 4.51261 9.82133 4.72349C9.86179 4.93436 9.83907 5.15249 9.75602 5.3505C9.67296 5.54851 9.53328 5.71758 9.35448 5.83649C9.17569 5.9554 8.96576 6.01885 8.75104 6.01889C8.6062 6.01891 8.46281 5.99007 8.32925 5.93405C8.19568 5.87802 8.07462 5.79594 7.97314 5.6926C7.87166 5.58925 7.79179 5.46672 7.7382 5.33216C7.68462 5.1976 7.65839 5.0537 7.66104 4.90889ZM10.571 4.90889C10.5671 4.5498 10.457 4.19991 10.2546 3.90326C10.0523 3.6066 9.76667 3.37644 9.43378 3.24175C9.10089 3.10706 8.73559 3.07386 8.38388 3.14633C8.03216 3.2188 7.70974 3.39369 7.45721 3.649C7.20467 3.90431 7.03331 4.22863 6.96469 4.58111C6.89607 4.9336 6.93326 5.29851 7.07158 5.62991C7.2099 5.96131 7.44317 6.24438 7.74201 6.4435C8.04086 6.64261 8.39194 6.74887 8.75104 6.74889C8.99174 6.7489 9.23005 6.70117 9.45218 6.60846C9.6743 6.51575 9.87583 6.3799 10.0451 6.20877C10.2144 6.03764 10.348 5.83464 10.4383 5.61151C10.5286 5.38839 10.5737 5.14957 10.571 4.90889Z" fill="#4E2583"/>
</g>
<defs>
<clipPath id="clip0">
<rect width="23.43" height="24" fill="white"/>
</clipPath>
</defs>
</svg>
