<svg width="24" height="24" viewBox="0 0 24 24" fill="none" xmlns="http://www.w3.org/2000/svg">
<g clip-path="url(#clip0)">
<path d="M12 21.33L8.54 17.67C8.88827 17.1407 9.18943 16.5819 9.44 16C10.2059 16.4643 11.0844 16.7097 11.98 16.7097C12.8756 16.7097 13.7541 16.4643 14.52 16C14.6807 16.6451 14.9888 17.2441 15.42 17.75L12 21.33ZM6.88 11C6.86447 10.9486 6.83876 10.9009 6.8044 10.8597C6.77004 10.8184 6.72773 10.7845 6.68 10.76H6.53C6.47772 10.745 6.42228 10.745 6.37 10.76H6.3C6.26288 10.7617 6.22583 10.7555 6.19133 10.7417C6.15683 10.7279 6.12568 10.7069 6.1 10.68C5.79865 10.3593 5.62446 9.93982 5.61 9.5C5.54 8.72 5.82 8.17 6.14 8.09C6.22887 8.06423 6.32228 8.05803 6.41378 8.07184C6.50528 8.08565 6.59269 8.11914 6.67 8.17L6.8 8.23C6.89289 8.25917 6.99344 8.25158 7.08089 8.20878C7.16835 8.16599 7.23604 8.09125 7.27 8C7.27 7.85 7.57 7 7.85 6.25C9.44538 6.55245 11.0963 6.29085 12.52 5.51C12.8964 5.25419 13.325 5.08555 13.7748 5.01635C14.2246 4.94715 14.6841 4.97915 15.12 5.11C15.3164 5.16759 15.4973 5.26845 15.6496 5.40516C15.8019 5.54187 15.9216 5.71096 16 5.9C16.31 6.78 16.65 7.77 16.68 7.9C16.6881 7.95241 16.7071 8.00254 16.7357 8.04717C16.7644 8.0918 16.802 8.12994 16.8463 8.15914C16.8906 8.18834 16.9405 8.20795 16.9928 8.21671C17.0451 8.22547 17.0986 8.22318 17.15 8.21L17.28 8.15C17.3573 8.09914 17.4447 8.06565 17.5362 8.05184C17.6277 8.03803 17.7211 8.04423 17.81 8.07C18.12 8.15 18.41 8.7 18.34 9.48C18.3255 9.91982 18.1513 10.3393 17.85 10.66C17.8243 10.6869 17.7932 10.7079 17.7587 10.7217C17.7242 10.7355 17.6871 10.7417 17.65 10.74H17.58C17.5314 10.7176 17.4785 10.706 17.425 10.706C17.3715 10.706 17.3186 10.7176 17.27 10.74C17.2223 10.7645 17.18 10.7984 17.1456 10.8397C17.1112 10.8809 17.0855 10.9286 17.07 10.98C16.7193 12.5652 15.8285 13.9793 14.55 14.98C13.8044 15.5485 12.8926 15.8564 11.955 15.8564C11.0174 15.8564 10.1056 15.5485 9.36 14.98C8.08154 13.9793 7.19071 12.5652 6.84 10.98L6.88 11ZM12 0.73C15.9 0.73 18.32 2.91 18.32 6.44C18.3186 6.79479 18.2919 7.14902 18.24 7.5C18.177 7.46486 18.1098 7.43797 18.04 7.42C17.8018 7.34914 17.5482 7.34914 17.31 7.42C17.21 7.1 17.03 6.57 16.71 5.67C16.6003 5.36396 16.4214 5.08739 16.1873 4.86189C15.9531 4.63638 15.67 4.46804 15.36 4.37C14.8181 4.20476 14.2463 4.16211 13.6859 4.24513C13.1256 4.32815 12.5907 4.53476 12.12 4.85C10.7562 5.55409 9.18912 5.75925 7.69 5.43C7.60262 5.4097 7.51085 5.42183 7.43175 5.46414C7.35265 5.50645 7.29161 5.57605 7.26 5.66C6.94 6.57 6.76 7.1 6.66 7.41C6.42101 7.34496 6.16899 7.34496 5.93 7.41C5.87012 7.42461 5.81281 7.44821 5.76 7.48C5.7108 7.14885 5.68408 6.81476 5.68 6.48C5.69 2.91 8.11 0.73 12 0.73ZM21.61 19.25C20.7191 18.7927 19.7928 18.4081 18.84 18.1C18.37 17.94 17.98 17.83 17.61 17.73C17.24 17.63 16.61 17.47 16.08 17.37C15.6006 16.8581 15.2778 16.2196 15.15 15.53C16.4001 14.4948 17.298 13.0972 17.72 11.53C17.9527 11.5225 18.1755 11.4341 18.35 11.28C18.8033 10.8359 19.0683 10.2343 19.09 9.6C19.1427 9.1123 19.0669 8.61929 18.87 8.17C18.9902 7.60458 19.0506 7.02806 19.05 6.45C19.06 2.53 16.29 0 12 0C7.71 0 5 2.53 5 6.44C4.99982 7.00813 5.06016 7.57466 5.18 8.13C4.95742 8.58231 4.87059 9.0894 4.93 9.59C4.95168 10.2243 5.21666 10.8259 5.67 11.27C5.84449 11.4241 6.0673 11.5125 6.3 11.52C6.72198 13.0872 7.61995 14.4848 8.87 15.52C8.6042 16.1898 8.26904 16.83 7.87 17.43C6.98 17.58 6.44 17.72 6.42 17.72C6.04 17.82 5.65 17.94 5.18 18.09C4.2297 18.3961 3.30651 18.7808 2.42 19.24C1.69305 19.605 1.08181 20.1649 0.654495 20.8571C0.227178 21.5492 0.000586017 22.3465 0 23.16L0 23.64C0 23.7355 0.0379285 23.827 0.105442 23.8946C0.172955 23.9621 0.264522 24 0.36 24C0.408111 24.0013 0.456001 23.993 0.500839 23.9755C0.545677 23.958 0.586552 23.9317 0.621048 23.8982C0.655543 23.8646 0.682958 23.8245 0.701672 23.7801C0.720386 23.7358 0.730019 23.6881 0.73 23.64V23.16C0.730761 22.4838 0.917817 21.8209 1.27063 21.244C1.62345 20.6672 2.12838 20.1987 2.73 19.89C3.58354 19.4553 4.46954 19.0875 5.38 18.79C5.84 18.64 6.22 18.53 6.59 18.43C6.59 18.43 7.14 18.29 8.01 18.15L11.64 22V23.63C11.64 23.7255 11.6779 23.817 11.7454 23.8846C11.813 23.9521 11.9045 23.99 12 23.99C12.0955 23.99 12.187 23.9521 12.2546 23.8846C12.3221 23.817 12.36 23.7255 12.36 23.63V22L16.05 18.09C16.5156 18.1751 16.9763 18.2853 17.43 18.42C17.79 18.52 18.17 18.63 18.63 18.78C19.5412 19.0756 20.4273 19.4434 21.28 19.88C21.8816 20.1887 22.3866 20.6572 22.7394 21.234C23.0922 21.8109 23.2792 22.4738 23.28 23.15V23.63C23.2826 23.7264 23.3227 23.8179 23.3918 23.8852C23.461 23.9524 23.5536 23.99 23.65 23.99C23.7455 23.99 23.837 23.9521 23.9046 23.8846C23.9721 23.817 24.01 23.7255 24.01 23.63V23.15C24.0113 22.3424 23.7898 21.5501 23.3699 20.8603C22.95 20.1704 22.348 19.6098 21.63 19.24" fill="#4E2583"/>
<path d="M7.48978 21.8099H6.38978V20.7099C6.38996 20.66 6.37975 20.6106 6.35981 20.5648C6.33987 20.5191 6.31064 20.478 6.27396 20.4441C6.23729 20.4102 6.19398 20.3844 6.14678 20.3682C6.09958 20.352 6.04952 20.3457 5.99978 20.3499C5.90336 20.3499 5.81073 20.3875 5.74163 20.4547C5.67252 20.5219 5.63239 20.6135 5.62978 20.7099V21.8099H4.56978C4.51679 21.8011 4.46252 21.8039 4.41073 21.8182C4.35895 21.8325 4.3109 21.8579 4.26992 21.8926C4.22894 21.9274 4.19602 21.9706 4.17344 22.0194C4.15086 22.0681 4.13916 22.1212 4.13916 22.1749C4.13916 22.2286 4.15086 22.2817 4.17344 22.3304C4.19602 22.3792 4.22894 22.4224 4.26992 22.4571C4.3109 22.4919 4.35895 22.5173 4.41073 22.5316C4.46252 22.5458 4.51679 22.5487 4.56978 22.5399H5.65978V23.6399C5.66195 23.7313 5.6979 23.8187 5.76068 23.8851C5.82347 23.9516 5.90864 23.9925 5.99978 23.9999C6.09526 23.9999 6.18683 23.962 6.25434 23.8944C6.32185 23.8269 6.35978 23.7354 6.35978 23.6399V22.5399H7.45978C7.54622 22.5255 7.62476 22.481 7.68141 22.4141C7.73807 22.3473 7.76916 22.2625 7.76916 22.1749C7.76916 22.0873 7.73807 22.0025 7.68141 21.9356C7.62476 21.8688 7.54622 21.8242 7.45978 21.8099" fill="#4E2583"/>
<path d="M19.5299 23.2702H15.8999V22.1802H19.5299V23.2702ZM19.8999 21.4502H15.5299C15.4335 21.4528 15.342 21.4929 15.2747 21.562C15.2075 21.6311 15.1699 21.7238 15.1699 21.8202V23.6402C15.1699 23.7357 15.2078 23.8272 15.2754 23.8948C15.3429 23.9623 15.4344 24.0002 15.5299 24.0002H19.8999C19.9954 24.0002 20.087 23.9623 20.1545 23.8948C20.222 23.8272 20.2599 23.7357 20.2599 23.6402V21.8202C20.26 21.7238 20.2224 21.6311 20.1551 21.562C20.0879 21.4929 19.9963 21.4528 19.8999 21.4502Z" fill="#4E2583"/>
</g>
<defs>
<clipPath id="clip0">
<rect width="24" height="24" fill="white"/>
</clipPath>
</defs>
</svg>
