<svg width="24" height="24" viewBox="0 0 24 24" fill="none" xmlns="http://www.w3.org/2000/svg">
<path d="M19.9079 10.8101H19.8579C18.3878 11.0539 16.984 11.5991 15.7346 12.4113C14.4852 13.2236 13.4173 14.2854 12.5979 15.5301C12.5979 14.7401 12.5979 13.9201 12.5079 13.0801C12.4978 12.9873 12.4531 12.9017 12.3826 12.8405C12.3122 12.7793 12.2212 12.747 12.1279 12.7501C12.081 12.7526 12.0351 12.7645 11.9929 12.7851C11.9507 12.8057 11.9131 12.8346 11.8823 12.8701C11.8515 12.9055 11.8282 12.9468 11.8136 12.9915C11.7991 13.0361 11.7938 13.0833 11.7979 13.1301C11.992 15.0496 11.9314 16.9864 11.6179 18.8901C10.0879 16.8901 7.61788 14.5501 4.44788 14.1101H4.31788C4.23134 14.1263 4.15312 14.172 4.09658 14.2395C4.04004 14.307 4.00869 14.392 4.00788 14.4801C3.96061 15.1743 4.1269 15.8665 4.48441 16.4635C4.84192 17.0606 5.37353 17.5339 6.00788 17.8201C7.34062 18.2963 8.75453 18.5036 10.1679 18.4301C10.5179 18.8201 10.9079 19.2601 11.2479 19.7101C11.2693 19.7502 11.3002 19.7845 11.3379 19.8101C10.9846 21.1445 10.2961 22.3665 9.33788 23.3601C9.3043 23.3942 9.2781 23.435 9.26089 23.4797C9.24369 23.5244 9.23586 23.5722 9.23788 23.6201C9.23851 23.6928 9.26056 23.7637 9.30125 23.8239C9.34195 23.8842 9.3995 23.9311 9.46671 23.9588C9.53392 23.9866 9.60782 23.9939 9.67916 23.9799C9.75051 23.9659 9.81615 23.9312 9.86788 23.8801C11.5179 22.1601 12.3579 19.8801 12.5279 16.7501C12.5919 16.7172 12.6468 16.6691 12.6879 16.6101C13.0463 16.0799 13.4371 15.5722 13.8579 15.0901H14.0079C15.4476 15.1684 16.8886 14.9611 18.2479 14.4801C18.8848 14.1945 19.4184 13.7198 19.7762 13.1205C20.134 12.5212 20.2987 11.8262 20.2479 11.1301C20.2385 11.045 20.1991 10.9661 20.1368 10.9075C20.0745 10.8488 19.9933 10.8143 19.9079 10.8101ZM9.48788 17.7001C8.42132 17.7224 7.35993 17.546 6.35788 17.1801C5.91229 17.0091 5.52634 16.7117 5.24743 16.3244C4.96852 15.9372 4.8088 15.4769 4.78788 15.0001C6.58116 15.4304 8.21274 16.3677 9.48788 17.7001ZM17.9279 13.8501C16.8517 14.2387 15.7114 14.4186 14.5679 14.3801C15.8817 12.9718 17.6012 12.0072 19.4879 11.6201C19.4723 12.103 19.3165 12.5711 19.0395 12.967C18.7625 13.363 18.3762 13.6698 17.9279 13.8501Z" fill="#4E2583"/>
<path d="M16.808 5.9C17.1797 5.50325 17.4143 4.9977 17.4773 4.45767C17.5403 3.91765 17.4284 3.37167 17.158 2.9C16.8941 2.44334 16.4894 2.08447 16.0044 1.87714C15.5195 1.66982 14.9804 1.62521 14.468 1.75C14.321 1.24564 14.0145 0.802499 13.5944 0.486999C13.1743 0.1715 12.6633 0.000630669 12.138 0C11.607 0.00583782 11.0922 0.183335 10.6704 0.505968C10.2486 0.828601 9.94258 1.27905 9.79799 1.79C9.28555 1.66353 8.74586 1.70736 8.26054 1.91484C7.77521 2.12232 7.37064 2.48218 7.10799 2.94C6.84326 3.41459 6.73643 3.9611 6.80295 4.50044C6.86946 5.03978 7.10588 5.54396 7.47799 5.94C7.10588 6.33604 6.86946 6.84022 6.80295 7.37956C6.73643 7.9189 6.84326 8.46541 7.10799 8.94C7.38874 9.37885 7.80106 9.71769 8.286 9.90807C8.77094 10.0985 9.30366 10.1306 9.80799 10C9.9475 10.5124 10.2517 10.9647 10.6737 11.2871C11.0956 11.6096 11.6119 11.7843 12.143 11.7843C12.674 11.7843 13.1904 11.6096 13.6123 11.2871C14.0343 10.9647 14.3385 10.5124 14.478 10C14.99 10.1199 15.5271 10.0718 16.0097 9.86293C16.4923 9.65403 16.8949 9.29538 17.158 8.84C17.4189 8.37614 17.5255 7.84136 17.4626 7.3129C17.3997 6.78444 17.1705 6.28965 16.808 5.9ZM16.528 8.5C16.3222 8.8705 15.9875 9.15255 15.5875 9.29265C15.1875 9.43274 14.75 9.42112 14.358 9.26C14.269 9.22654 14.1705 9.22865 14.0829 9.26589C13.9954 9.30313 13.9256 9.37264 13.888 9.46C13.8835 9.48648 13.8835 9.51352 13.888 9.54C13.842 9.96676 13.64 10.3615 13.3206 10.6483C13.0013 10.9351 12.5872 11.0937 12.158 11.0937C11.7288 11.0937 11.3147 10.9351 10.9953 10.6483C10.676 10.3615 10.4739 9.96676 10.428 9.54C10.4108 9.44446 10.3577 9.35911 10.2796 9.30147C10.2015 9.24382 10.1043 9.21825 10.008 9.23H9.90799C9.52091 9.39303 9.08755 9.4088 8.68965 9.27432C8.29175 9.13985 7.9568 8.86442 7.74799 8.5C7.53463 8.12301 7.46273 7.68228 7.54522 7.25703C7.6277 6.83178 7.85916 6.44989 8.19799 6.18C8.26341 6.11122 8.29989 6.01993 8.29989 5.925C8.29989 5.83008 8.26341 5.73878 8.19799 5.67C7.86163 5.40057 7.63179 5.02053 7.54938 4.59752C7.46698 4.17451 7.53736 3.73598 7.74799 3.36C7.94365 2.98153 8.27355 2.68974 8.67308 2.54177C9.07262 2.39379 9.513 2.40029 9.90799 2.56C9.99689 2.57983 10.0891 2.57983 10.178 2.56C10.2673 2.52071 10.3387 2.44934 10.378 2.36V2.27C10.4239 1.84324 10.626 1.44853 10.9453 1.16173C11.2647 0.874927 11.6788 0.716279 12.108 0.716279C12.5372 0.716279 12.9513 0.874927 13.2706 1.16173C13.59 1.44853 13.792 1.84324 13.838 2.27C13.8449 2.31824 13.8618 2.36451 13.8876 2.40584C13.9135 2.44717 13.9477 2.48264 13.988 2.51C14.067 2.56417 14.1626 2.58894 14.258 2.58H14.338C14.7271 2.41636 15.163 2.40243 15.5618 2.5409C15.9605 2.67936 16.294 2.96043 16.498 3.33C16.7058 3.70587 16.7755 4.14257 16.6952 4.56446C16.6148 4.98635 16.3894 5.36683 16.058 5.64C16.0202 5.66929 15.9886 5.70582 15.9651 5.74744C15.9416 5.78906 15.9266 5.83495 15.9211 5.88242C15.9155 5.92989 15.9194 5.97801 15.9326 6.02395C15.9458 6.06989 15.968 6.11274 15.998 6.15H16.058C16.4041 6.42098 16.6418 6.80693 16.728 7.23799C16.8142 7.66905 16.7433 8.11673 16.528 8.5Z" fill="#4E2583"/>
<path d="M12.1378 3.00002C11.5719 3.00007 11.0186 3.16744 10.5475 3.48106C10.0765 3.79469 9.70865 4.24058 9.4903 4.76268C9.27195 5.28478 9.21282 5.85977 9.32036 6.41538C9.4279 6.97099 9.69729 7.4824 10.0947 7.88532C10.4921 8.28825 10.9997 8.56469 11.5538 8.67991C12.1078 8.79513 12.6836 8.74397 13.2087 8.53286C13.7337 8.32176 14.1847 7.96014 14.5048 7.49346C14.8249 7.02678 14.9999 6.47588 15.0078 5.91002C15.0144 5.52941 14.9451 5.1513 14.8037 4.79786C14.6623 4.44441 14.4518 4.12275 14.1845 3.85172C13.9172 3.58069 13.5985 3.36575 13.247 3.2195C12.8956 3.07325 12.5185 2.99863 12.1378 3.00002ZM12.1378 8.00002C11.7161 8.00001 11.3039 7.87484 10.9534 7.64034C10.6029 7.40585 10.3299 7.0726 10.169 6.68281C10.0081 6.29302 9.96648 5.86424 10.0495 5.45079C10.1325 5.03733 10.3363 4.65783 10.6352 4.36034C10.9341 4.06286 11.3146 3.86079 11.7284 3.77973C12.1422 3.69868 12.5708 3.74229 12.9599 3.90504C13.3489 4.06779 13.6809 4.34235 13.9137 4.69394C14.1465 5.04553 14.2698 5.45832 14.2678 5.88002C14.2651 6.4432 14.0396 6.9824 13.6404 7.3797C13.2412 7.77699 12.701 8.00003 12.1378 8.00002Z" fill="#4E2583"/>
</svg>
