<svg width="24" height="24" viewBox="0 0 24 24" fill="none" xmlns="http://www.w3.org/2000/svg">
<path d="M13.0399 16.0801C12.9432 16.0711 12.8532 16.0263 12.7877 15.9545C12.7223 15.8827 12.686 15.789 12.686 15.6918C12.686 15.5946 12.7223 15.5009 12.7877 15.429C12.8532 15.3572 12.9432 15.3124 13.0399 15.3034C15.8899 15.3034 20.4299 10.6368 20.4299 6.74677C20.4299 2.72677 17.2366 1.30344 14.4999 1.30344C13.3233 1.30344 12.3599 2.26344 11.4999 3.11344C10.8033 3.8101 10.1999 4.41344 9.52661 4.41344C9.22118 4.43345 8.91686 4.36038 8.65382 4.20386C8.39079 4.04735 8.18139 3.81475 8.05327 3.53677C7.94468 3.23862 7.92661 2.91502 8.00133 2.60663C8.07606 2.29824 8.24025 2.01881 8.47327 1.80344C9.35994 0.920104 12.1399 0.523438 14.4733 0.523438C17.8066 0.523438 21.1799 2.44677 21.1799 6.74677C21.1799 11.0468 16.2666 16.0801 13.0399 16.0801ZM12.1999 1.41344C10.5333 1.60344 9.39994 1.9801 9.03661 2.3401C8.91383 2.44733 8.82461 2.58772 8.77967 2.74441C8.73473 2.9011 8.73598 3.06744 8.78327 3.22344C8.85428 3.3587 8.96456 3.46931 9.09962 3.5407C9.23467 3.6121 9.38818 3.64094 9.53994 3.62344C9.88994 3.62344 10.4366 3.07677 10.9633 2.5501C11.3506 2.14918 11.7637 1.77394 12.1999 1.42677V1.41344Z" fill="#4E2583"/>
<path d="M16.1535 23.8567C16.1025 23.8572 16.0518 23.8475 16.0045 23.8283C15.9572 23.809 15.9142 23.7806 15.8779 23.7447C15.8417 23.7087 15.8129 23.666 15.7933 23.6188C15.7736 23.5717 15.7635 23.5211 15.7635 23.4701C15.7635 22.4101 14.6935 20.2301 10.6468 19.5734C7.12352 19.0001 5.59685 17.7734 5.66685 16.8734C5.69685 16.4901 6.00018 16.0801 6.81685 16.0801C6.91363 16.0891 7.00358 16.1338 7.06906 16.2057C7.13454 16.2775 7.17083 16.3712 7.17083 16.4684C7.17083 16.5656 7.13454 16.6593 7.06906 16.7311C7.00358 16.803 6.91363 16.8478 6.81685 16.8567C6.68546 16.8407 6.55255 16.8701 6.44018 16.9401C6.40685 17.1767 7.39351 18.2734 10.7735 18.8067C15.3368 19.5467 16.5435 22.1801 16.5435 23.4734C16.5431 23.5242 16.5326 23.5744 16.5128 23.6211C16.493 23.6679 16.4641 23.7103 16.4279 23.7459C16.3917 23.7815 16.3488 23.8096 16.3017 23.8286C16.2547 23.8476 16.2043 23.8572 16.1535 23.8567Z" fill="#4E2583"/>
<path d="M11.4867 18.4137C11.4448 18.4138 11.4031 18.407 11.3634 18.3937L9.03004 17.617C8.95238 17.5911 8.88484 17.5415 8.83698 17.475C8.78912 17.4086 8.76337 17.3289 8.76337 17.247V14.467C5.70337 13.907 2.54004 11.667 2.54004 7.91367C2.54004 7.81023 2.58113 7.71103 2.65427 7.63789C2.72741 7.56475 2.8266 7.52367 2.93004 7.52367H16.93C16.9824 7.52188 17.0345 7.53064 17.0834 7.54944C17.1323 7.56823 17.1768 7.59668 17.2145 7.63307C17.2521 7.66947 17.282 7.71307 17.3025 7.76127C17.3229 7.80948 17.3334 7.86131 17.3334 7.91367C17.3334 11.367 15.2567 13.847 11.8867 14.467V18.0237C11.8897 18.0881 11.8766 18.1523 11.8487 18.2105C11.8208 18.2687 11.7789 18.319 11.7267 18.357C11.6547 18.4007 11.5707 18.4205 11.4867 18.4137ZM9.54004 16.967L11.0967 17.4837V14.1503C11.0965 14.0566 11.1301 13.9659 11.1913 13.8949C11.2525 13.8239 11.3373 13.7773 11.43 13.7637C14.45 13.3303 16.3767 11.2603 16.53 8.317H3.33337C3.55337 11.5103 6.48004 13.3737 9.20671 13.7637C9.29976 13.7766 9.38491 13.823 9.44625 13.8942C9.5076 13.9653 9.54094 14.0564 9.54004 14.1503V16.967Z" fill="#4E2583"/>
<path d="M13.8199 23.8566H6.03985C5.95539 23.857 5.87313 23.8298 5.80563 23.779C5.73813 23.7282 5.6891 23.6568 5.66605 23.5755C5.643 23.4942 5.64718 23.4077 5.67796 23.329C5.70875 23.2504 5.76444 23.184 5.83652 23.14L8.76319 21.31V20.3566C8.76344 20.2955 8.77805 20.2353 8.80585 20.1809C8.83364 20.1265 8.87383 20.0793 8.92319 20.0433C8.97484 20.0095 9.03356 19.9881 9.09481 19.9805C9.15607 19.973 9.21823 19.9797 9.27652 20L11.6099 20.78C11.6869 20.8064 11.7537 20.8563 11.8009 20.9227C11.8482 20.989 11.8734 21.0685 11.8732 21.15V21.3333L14.0665 23.16C14.1268 23.2114 14.17 23.2799 14.1903 23.3565C14.2107 23.433 14.2072 23.514 14.1805 23.5885C14.1537 23.6631 14.1048 23.7277 14.0404 23.7738C13.976 23.8199 13.8991 23.8453 13.8199 23.8466V23.8566ZM7.39652 23.08H12.7299L11.2232 21.8233C11.1789 21.7869 11.1434 21.7411 11.1191 21.6892C11.0949 21.6373 11.0826 21.5806 11.0832 21.5233V21.4166L9.52652 20.8966V21.5233C9.52795 21.5901 9.51175 21.656 9.47957 21.7146C9.44738 21.7731 9.40034 21.8221 9.34319 21.8566L7.39652 23.08Z" fill="#4E2583"/>
<path d="M7.59673 5.19001H6.82006C6.76604 5.19502 6.71157 5.18871 6.66013 5.17147C6.60869 5.15423 6.56141 5.12645 6.52131 5.0899C6.48122 5.05336 6.44919 5.00885 6.42728 4.95922C6.40536 4.90959 6.39404 4.85593 6.39404 4.80168C6.39404 4.74743 6.40536 4.69377 6.42728 4.64414C6.44919 4.59451 6.48122 4.55 6.52131 4.51346C6.56141 4.47691 6.60869 4.44913 6.66013 4.43189C6.71157 4.41465 6.76604 4.40834 6.82006 4.41335H7.48673L8.55339 3.70001C8.63987 3.64395 8.74489 3.62406 8.84588 3.64464C8.94686 3.66521 9.03574 3.72459 9.09339 3.81001C9.14569 3.89501 9.16309 3.99694 9.14197 4.09447C9.12085 4.19201 9.06283 4.2776 8.98006 4.33335L7.81339 5.11335C7.7497 5.15855 7.67467 5.1851 7.59673 5.19001Z" fill="#4E2583"/>
<path d="M7.59654 5.96975C7.54533 5.96975 7.49461 5.95966 7.4473 5.94007C7.39998 5.92047 7.35699 5.89174 7.32077 5.85552C7.28456 5.81931 7.25583 5.77632 7.23623 5.729C7.21663 5.68168 7.20654 5.63097 7.20654 5.57975V4.80309C7.20654 4.69965 7.24763 4.60045 7.32077 4.52731C7.39391 4.45418 7.49311 4.41309 7.59654 4.41309C7.69998 4.41309 7.79917 4.45418 7.87231 4.52731C7.94545 4.60045 7.98654 4.69965 7.98654 4.80309V5.57975C7.98567 5.68292 7.9443 5.78161 7.87135 5.85456C7.7984 5.92751 7.69971 5.96888 7.59654 5.96975Z" fill="#4E2583"/>
</svg>
