<svg width="24" height="24" viewBox="0 0 24 24" fill="none" xmlns="http://www.w3.org/2000/svg">
<g clip-path="url(#clip0)">
<path d="M22.1998 1H10.0798C9.60321 1.00263 9.14689 1.19311 8.80989 1.53011C8.4729 1.86711 8.28241 2.32342 8.27979 2.8V3.27C8.29414 3.35644 8.33871 3.43497 8.40555 3.49163C8.47239 3.54828 8.55717 3.57938 8.64479 3.57938C8.73241 3.57938 8.81718 3.54828 8.88402 3.49163C8.95086 3.43497 8.99543 3.35644 9.00979 3.27V2.8C9.00979 2.51622 9.12252 2.24406 9.32318 2.0434C9.52385 1.84273 9.796 1.73 10.0798 1.73H22.1998C22.4836 1.73 22.7557 1.84273 22.9564 2.0434C23.1571 2.24406 23.2698 2.51622 23.2698 2.8V20.48C23.2671 20.762 23.1533 21.0316 22.9529 21.2301C22.7525 21.4287 22.4818 21.54 22.1998 21.54H12.4798C12.3834 21.5426 12.2918 21.5827 12.2246 21.6518C12.1574 21.721 12.1198 21.8136 12.1198 21.91C12.1198 22.0055 12.1577 22.097 12.2252 22.1646C12.2927 22.2321 12.3843 22.27 12.4798 22.27H22.1998C22.6754 22.27 23.1318 22.0817 23.4691 21.7463C23.8063 21.4109 23.9971 20.9557 23.9998 20.48V2.8C23.9972 2.32342 23.8067 1.86711 23.4697 1.53011C23.1327 1.19311 22.6764 1.00263 22.1998 1" fill="#4E2583"/>
<path d="M16.4998 19.91V3.36C16.4998 3.26452 16.4619 3.17295 16.3943 3.10544C16.3268 3.03793 16.2353 3 16.1398 3C16.0443 3 15.9527 3.03793 15.8852 3.10544C15.8177 3.17295 15.7798 3.26452 15.7798 3.36V19.91C15.7798 20.0055 15.8177 20.097 15.8852 20.1646C15.9527 20.2321 16.0443 20.27 16.1398 20.27C16.2353 20.27 16.3268 20.2321 16.3943 20.1646C16.4619 20.097 16.4998 20.0055 16.4998 19.91Z" fill="#4E2583"/>
<path d="M12.9999 7.00018C12.9173 7.0501 12.8575 7.13032 12.8332 7.22373C12.8089 7.31714 12.8221 7.41634 12.8699 7.50018C12.9022 7.55613 12.9489 7.60237 13.0052 7.63404C13.0615 7.66571 13.1253 7.68164 13.1899 7.68018C13.2492 7.69351 13.3106 7.69351 13.3699 7.68018C13.6417 7.52168 13.8673 7.2947 14.024 7.02186C14.1808 6.74901 14.2633 6.43984 14.2633 6.12518C14.2633 5.81051 14.1808 5.50134 14.024 5.2285C13.8673 4.95565 13.6417 4.72867 13.3699 4.57018C13.288 4.53824 13.1973 4.53654 13.1142 4.56538C13.0311 4.59422 12.961 4.65171 12.9165 4.72755C12.872 4.80338 12.8559 4.89261 12.8712 4.97922C12.8865 5.06583 12.9321 5.14416 12.9999 5.20018C13.1633 5.29451 13.2991 5.43002 13.3939 5.59318C13.4886 5.75635 13.539 5.9415 13.5399 6.13018C13.5298 6.30877 13.4751 6.48198 13.3807 6.63397C13.2864 6.78595 13.1555 6.91186 12.9999 7.00018Z" fill="#4E2583"/>
<path d="M12.1201 10.2301C12.1201 10.3265 12.1577 10.4192 12.2249 10.4883C12.2922 10.5574 12.3837 10.5975 12.4801 10.6001C12.6286 10.5857 12.7785 10.6025 12.9202 10.6495C13.0618 10.6965 13.1921 10.7725 13.3026 10.8728C13.4131 10.9731 13.5014 11.0954 13.5618 11.2319C13.6222 11.3683 13.6534 11.5159 13.6534 11.6651C13.6534 11.8143 13.6222 11.9619 13.5618 12.0984C13.5014 12.2348 13.4131 12.3571 13.3026 12.4574C13.1921 12.5577 13.0618 12.6338 12.9202 12.6807C12.7785 12.7277 12.6286 12.7445 12.4801 12.7301C12.3837 12.7327 12.2922 12.7729 12.2249 12.842C12.1577 12.9111 12.1201 13.0037 12.1201 13.1001C12.1201 13.1956 12.158 13.2872 12.2256 13.3547C12.2931 13.4222 12.3846 13.4601 12.4801 13.4601C12.933 13.4263 13.3564 13.2225 13.6654 12.8896C13.9744 12.5567 14.146 12.1193 14.146 11.6651C14.146 11.2109 13.9744 10.7735 13.6654 10.4406C13.3564 10.1077 12.933 9.90395 12.4801 9.87012C12.3846 9.87012 12.2931 9.90805 12.2256 9.97556C12.158 10.0431 12.1201 10.1346 12.1201 10.2301Z" fill="#4E2583"/>
<path d="M12.4799 18.32C12.3825 18.3225 12.2899 18.3623 12.221 18.4311C12.1522 18.5 12.1124 18.5926 12.1099 18.69C12.1125 18.7863 12.1526 18.8779 12.2217 18.9451C12.2908 19.0124 12.3834 19.05 12.4799 19.05C12.9328 19.0161 13.3562 18.8123 13.6651 18.4794C13.9741 18.1465 14.1458 17.7091 14.1458 17.255C14.1458 16.8008 13.9741 16.3634 13.6651 16.0305C13.3562 15.6976 12.9328 15.4938 12.4799 15.46C12.3834 15.4599 12.2908 15.4975 12.2217 15.5648C12.1526 15.632 12.1125 15.7236 12.1099 15.82C12.1124 15.9173 12.1522 16.0099 12.221 16.0788C12.2899 16.1476 12.3825 16.1874 12.4799 16.19C12.6284 16.1756 12.7783 16.1924 12.9199 16.2393C13.0616 16.2863 13.1918 16.3624 13.3023 16.4627C13.4128 16.563 13.5011 16.6853 13.5615 16.8217C13.622 16.9582 13.6532 17.1057 13.6532 17.255C13.6532 17.4042 13.622 17.5518 13.5615 17.6882C13.5011 17.8247 13.4128 17.947 13.3023 18.0473C13.1918 18.1475 13.0616 18.2236 12.9199 18.2706C12.7783 18.3176 12.6284 18.3344 12.4799 18.32Z" fill="#4E2583"/>
<path d="M19.8001 4.99977C20.0117 4.99977 20.2186 5.06252 20.3946 5.18009C20.5705 5.29767 20.7077 5.46478 20.7887 5.6603C20.8696 5.85581 20.8908 6.07095 20.8496 6.27851C20.8083 6.48607 20.7064 6.67673 20.5567 6.82637C20.4071 6.97601 20.2164 7.07792 20.0089 7.11921C19.8013 7.16049 19.5862 7.1393 19.3906 7.05832C19.1951 6.97733 19.028 6.84019 18.9104 6.66423C18.7929 6.48827 18.7301 6.28139 18.7301 6.06977C18.7301 5.78598 18.8428 5.51383 19.0435 5.31316C19.2442 5.1125 19.5163 4.99977 19.8001 4.99977ZM19.8001 7.85977C20.157 7.85974 20.5058 7.75365 20.8022 7.55497C21.0986 7.35628 21.3293 7.07397 21.4649 6.7439C21.6006 6.41382 21.635 6.05088 21.5639 5.70118C21.4928 5.35148 21.3194 5.0308 21.0657 4.77988C20.8119 4.52896 20.4893 4.35913 20.1389 4.29195C19.7884 4.22477 19.4258 4.26328 19.0973 4.40259C18.7688 4.5419 18.4891 4.77572 18.2937 5.07435C18.0983 5.37298 17.9961 5.72294 18.0001 6.07977C18.0028 6.55542 18.1936 7.01069 18.5308 7.3461C18.8681 7.6815 19.3244 7.86977 19.8001 7.86977" fill="#4E2583"/>
<path d="M19.8 10.5999C20.012 10.5999 20.2193 10.6629 20.3955 10.7809C20.5717 10.8989 20.7088 11.0666 20.7895 11.2627C20.8702 11.4588 20.8908 11.6745 20.8486 11.8823C20.8065 12.0901 20.7036 12.2808 20.553 12.43C20.4024 12.5792 20.2108 12.6804 20.0026 12.7205C19.7943 12.7607 19.5789 12.738 19.3836 12.6555C19.1882 12.573 19.0218 12.4343 18.9054 12.257C18.7891 12.0798 18.728 11.8719 18.73 11.6599C18.7326 11.3778 18.8465 11.1082 19.0469 10.9097C19.2473 10.7112 19.5179 10.5999 19.8 10.5999ZM19.8 13.4599C20.156 13.4599 20.504 13.3543 20.8 13.1565C21.096 12.9587 21.3267 12.6776 21.463 12.3487C21.5992 12.0198 21.6349 11.6579 21.5654 11.3087C21.496 10.9595 21.3245 10.6388 21.0728 10.3871C20.8211 10.1353 20.5003 9.9639 20.1512 9.89445C19.802 9.825 19.4401 9.86064 19.1112 9.99688C18.7823 10.1331 18.5011 10.3638 18.3034 10.6598C18.1056 10.9558 18 11.3039 18 11.6599C18.0026 12.1347 18.1917 12.5895 18.5266 12.9263C18.8614 13.263 19.3152 13.4546 19.79 13.4599" fill="#4E2583"/>
<path d="M19.8 16.1902C20.012 16.1902 20.2193 16.2532 20.3955 16.3712C20.5717 16.4893 20.7088 16.657 20.7895 16.8531C20.8702 17.0492 20.8908 17.2648 20.8486 17.4726C20.8065 17.6805 20.7036 17.8711 20.553 18.0203C20.4024 18.1696 20.2108 18.2707 20.0026 18.3108C19.7943 18.351 19.5789 18.3284 19.3836 18.2458C19.1882 18.1633 19.0218 18.0246 18.9054 17.8474C18.7891 17.6701 18.728 17.4622 18.73 17.2502C18.73 17.1101 18.7577 16.9715 18.8116 16.8422C18.8655 16.713 18.9445 16.5957 19.044 16.4971C19.1435 16.3985 19.2615 16.3207 19.3913 16.268C19.521 16.2153 19.66 16.1889 19.8 16.1902ZM19.8 19.0502C20.156 19.0502 20.504 18.9446 20.8 18.7468C21.096 18.5491 21.3267 18.2679 21.463 17.939C21.5992 17.6101 21.6349 17.2482 21.5654 16.899C21.496 16.5499 21.3245 16.2291 21.0728 15.9774C20.8211 15.7257 20.5003 15.5542 20.1512 15.4848C19.802 15.4153 19.4401 15.451 19.1112 15.5872C18.7823 15.7235 18.5011 15.9542 18.3034 16.2502C18.1056 16.5462 18 16.8942 18 17.2502C18.0026 17.7251 18.1917 18.1799 18.5266 18.5166C18.8614 18.8533 19.3152 19.045 19.79 19.0502" fill="#4E2583"/>
<path d="M10.82 21.1801C10.8174 21.2765 10.7773 21.368 10.7082 21.4353C10.6391 21.5025 10.5465 21.5401 10.45 21.5401H1.81005C1.71457 21.5401 1.623 21.5021 1.55549 21.4346C1.48797 21.3671 1.45005 21.2756 1.45005 21.1801V8.18008H10.82V21.1801ZM0.730046 5.43008C0.728709 5.38197 0.737033 5.33408 0.754525 5.28924C0.772017 5.2444 0.798322 5.20353 0.831886 5.16903C0.865449 5.13453 0.905588 5.10712 0.94993 5.08841C0.994272 5.06969 1.04192 5.06006 1.09005 5.06008H2.31005V6.24008C2.31001 6.3365 2.34762 6.42913 2.41486 6.49823C2.4821 6.56734 2.57366 6.60747 2.67005 6.61008C2.76023 6.59812 2.84314 6.5542 2.9037 6.48631C2.96425 6.41841 2.99844 6.33104 3.00005 6.24008V5.06008H4.61005V6.24008C4.61134 6.28999 4.62246 6.33915 4.64276 6.38476C4.66307 6.43037 4.69216 6.47153 4.72838 6.50589C4.7646 6.54025 4.80723 6.56714 4.85385 6.58501C4.90046 6.60289 4.95014 6.61141 5.00005 6.61008C5.09643 6.60747 5.18799 6.56734 5.25523 6.49823C5.32247 6.42913 5.36008 6.3365 5.36005 6.24008V5.06008H6.92005V6.24008C6.91124 6.29307 6.91409 6.34734 6.92838 6.39913C6.94267 6.45091 6.96806 6.49896 7.0028 6.53994C7.03753 6.58092 7.08077 6.61384 7.12951 6.63642C7.17825 6.659 7.23133 6.6707 7.28505 6.6707C7.33876 6.6707 7.39184 6.659 7.44058 6.63642C7.48932 6.61384 7.53256 6.58092 7.5673 6.53994C7.60203 6.49896 7.62742 6.45091 7.64171 6.39913C7.656 6.34734 7.65885 6.29307 7.65005 6.24008V5.06008H9.23005V6.24008C9.23001 6.3365 9.26762 6.42913 9.33486 6.49823C9.4021 6.56734 9.49366 6.60747 9.59005 6.61008C9.64158 6.61417 9.69341 6.60771 9.74236 6.59108C9.79131 6.57446 9.83635 6.54802 9.87473 6.51338C9.91311 6.47875 9.94402 6.43664 9.96557 6.38965C9.98712 6.34266 9.99885 6.29176 10 6.24008V5.06008H11.21C11.3082 5.06008 11.4023 5.09906 11.4717 5.16845C11.5411 5.23784 11.58 5.33195 11.58 5.43008V7.06008C11.5774 7.15646 11.5373 7.24803 11.4682 7.31527C11.3991 7.38251 11.3065 7.42011 11.21 7.42008H1.09005C0.994568 7.42008 0.903001 7.38215 0.835487 7.31464C0.767974 7.24712 0.730046 7.15556 0.730046 7.06008V5.43008ZM12.26 7.06008V5.43008C12.2614 5.2861 12.2341 5.14328 12.18 5.00988C12.1258 4.87648 12.0457 4.75514 11.9443 4.65286C11.843 4.55058 11.7224 4.4694 11.5895 4.414C11.4566 4.35859 11.314 4.33007 11.17 4.33008H1.09005C0.94606 4.33007 0.803499 4.35859 0.670598 4.414C0.537697 4.4694 0.41709 4.55058 0.315742 4.65286C0.214395 4.75514 0.134315 4.87648 0.0801293 5.00988C0.0259434 5.14328 -0.0012751 5.2861 4.58763e-05 5.43008V7.06008C0.00377547 7.28029 0.0747434 7.4941 0.203434 7.67284C0.332124 7.85158 0.512385 7.98669 0.720046 8.06008V21.1601C0.720046 21.4492 0.834885 21.7264 1.0393 21.9308C1.24371 22.1352 1.52096 22.2501 1.81005 22.2501H10.45C10.7391 22.2501 11.0164 22.1352 11.2208 21.9308C11.4252 21.7264 11.54 21.4492 11.54 21.1601V8.08008C11.7477 8.00669 11.928 7.87158 12.0567 7.69284C12.1853 7.5141 12.2563 7.30029 12.26 7.08008" fill="#4E2583"/>
<path d="M2.56002 18.3899H7.48002C7.52993 18.3901 7.57933 18.3799 7.62508 18.36C7.67084 18.34 7.71194 18.3108 7.7458 18.2741C7.77965 18.2374 7.80551 18.1941 7.82173 18.1469C7.83795 18.0997 7.84418 18.0497 7.84002 17.9999V11.6699C7.84135 11.6218 7.83303 11.5739 7.81554 11.5291C7.79805 11.4842 7.77174 11.4434 7.73818 11.4089C7.70461 11.3744 7.66447 11.347 7.62013 11.3283C7.57579 11.3095 7.52815 11.2999 7.48002 11.2999H2.56002C2.50702 11.2911 2.45275 11.294 2.40097 11.3083C2.34918 11.3225 2.30113 11.3479 2.26016 11.3827C2.21918 11.4174 2.18625 11.4606 2.16367 11.5094C2.14109 11.5581 2.12939 11.6112 2.12939 11.6649C2.12939 11.7186 2.14109 11.7717 2.16367 11.8205C2.18625 11.8692 2.21918 11.9124 2.26016 11.9472C2.30113 11.9819 2.34918 12.0073 2.40097 12.0216C2.45275 12.0359 2.50702 12.0387 2.56002 12.0299H7.12002V17.6699H2.56002C2.46454 17.6699 2.37297 17.7079 2.30546 17.7754C2.23794 17.8429 2.20002 17.9344 2.20002 18.0299C2.20002 18.1254 2.23794 18.217 2.30546 18.2845C2.37297 18.352 2.46454 18.3899 2.56002 18.3899Z" fill="#4E2583"/>
<path d="M2.55994 14.1299H5.32994C5.42542 14.1299 5.51699 14.092 5.5845 14.0245C5.65201 13.9569 5.68994 13.8654 5.68994 13.7699C5.68998 13.6735 5.65237 13.5809 5.58513 13.5117C5.51789 13.4426 5.42633 13.4025 5.32994 13.3999H2.55994C2.46261 13.4024 2.36996 13.4422 2.30111 13.5111C2.23226 13.5799 2.19247 13.6726 2.18994 13.7699C2.19255 13.8663 2.23268 13.9579 2.30178 14.0251C2.37089 14.0923 2.46352 14.1299 2.55994 14.1299Z" fill="#4E2583"/>
<path d="M2.55994 16.2901H3.99994C4.09542 16.2901 4.18699 16.2521 4.2545 16.1846C4.32201 16.1171 4.35994 16.0255 4.35994 15.9301C4.35998 15.8336 4.32237 15.741 4.25513 15.6719C4.18789 15.6028 4.09633 15.5627 3.99994 15.5601H2.55994C2.46261 15.5626 2.36996 15.6024 2.30111 15.6712C2.23226 15.7401 2.19247 15.8327 2.18994 15.9301C2.19255 16.0264 2.23268 16.118 2.30178 16.1852C2.37089 16.2525 2.46352 16.2901 2.55994 16.2901Z" fill="#4E2583"/>
</g>
<defs>
<clipPath id="clip0">
<rect width="24" height="24" fill="white"/>
</clipPath>
</defs>
</svg>
