<svg width="24" height="24" viewBox="0 0 24 24" fill="none" xmlns="http://www.w3.org/2000/svg">
<path d="M10.7168 11.5272C11.0501 11.3138 10.9468 11.0338 10.7968 10.8305C9.91677 10.1638 9.1701 9.40383 9.0401 8.66716C9.00649 8.45455 9.02912 8.23684 9.10572 8.03568C9.18233 7.83451 9.31025 7.6569 9.47677 7.5205C10.1434 6.87716 9.97344 6.21716 9.62344 5.85383C9.03344 5.2305 7.8001 5.12716 6.90344 5.96383C6.59953 6.21077 6.37008 6.53718 6.24061 6.90675C6.11115 7.27632 6.08674 7.67455 6.1701 8.05716C6.47344 9.3905 8.0301 10.6272 9.62677 11.5238C9.79497 11.6114 9.98171 11.6575 10.1714 11.6581C10.361 11.6586 10.548 11.6137 10.7168 11.5272ZM6.87344 7.8905C6.81941 7.63086 6.83952 7.36125 6.93147 7.1125C7.02343 6.86376 7.18351 6.6459 7.39344 6.48383C7.66195 6.22495 8.02045 6.08036 8.39344 6.0805C8.65295 6.06997 8.90638 6.16082 9.1001 6.33383C9.2801 6.5205 9.23677 6.7405 8.97677 7.0005C8.72614 7.21951 8.53553 7.49884 8.42296 7.81206C8.31039 8.12529 8.27957 8.46205 8.33344 8.7905C8.4401 9.39383 8.93344 10.0638 9.44677 10.5938C8.2001 9.80383 7.07344 8.77716 6.87344 7.8905Z" fill="#4E2583"/>
<path d="M12.0966 10.6831C11.9964 10.6823 11.9006 10.6418 11.83 10.5707C11.7595 10.4995 11.7199 10.4034 11.7199 10.3031V4.27981C11.715 4.22714 11.7211 4.17402 11.7378 4.12385C11.7546 4.07367 11.7817 4.02755 11.8173 3.98844C11.8529 3.94932 11.8963 3.91807 11.9447 3.89669C11.993 3.8753 12.0454 3.86426 12.0983 3.86426C12.1512 3.86426 12.2035 3.8753 12.2519 3.89669C12.3003 3.91807 12.3436 3.94932 12.3793 3.98844C12.4149 4.02755 12.4419 4.07367 12.4587 4.12385C12.4754 4.17402 12.4815 4.22714 12.4766 4.27981V10.3031C12.4766 10.4039 12.4366 10.5006 12.3653 10.5718C12.294 10.6431 12.1974 10.6831 12.0966 10.6831Z" fill="#4E2583"/>
<path d="M12.0964 18.3332C11.9968 18.3324 11.9015 18.2924 11.831 18.222C11.7606 18.1515 11.7206 18.0562 11.7197 17.9566V12.3532C11.7286 12.259 11.7723 12.1715 11.8422 12.1078C11.9122 12.0441 12.0034 12.0088 12.0981 12.0088C12.1927 12.0088 12.2839 12.0441 12.3539 12.1078C12.4239 12.1715 12.4675 12.259 12.4764 12.3532V17.9699C12.4721 18.0678 12.4302 18.1602 12.3594 18.2279C12.2886 18.2956 12.1944 18.3333 12.0964 18.3332Z" fill="#4E2583"/>
<path d="M12.0966 23.7761C11.9964 23.7753 11.9006 23.7348 11.83 23.6637C11.7595 23.5925 11.7199 23.4963 11.7199 23.3961V19.5161C11.715 19.4635 11.7211 19.4103 11.7378 19.3602C11.7546 19.31 11.7817 19.2639 11.8173 19.2248C11.8529 19.1856 11.8963 19.1544 11.9447 19.133C11.993 19.1116 12.0454 19.1006 12.0983 19.1006C12.1512 19.1006 12.2035 19.1116 12.2519 19.133C12.3003 19.1544 12.3436 19.1856 12.3793 19.2248C12.4149 19.2639 12.4419 19.31 12.4587 19.3602C12.4754 19.4103 12.4815 19.4635 12.4766 19.5161V23.3961C12.4766 23.4969 12.4366 23.5936 12.3653 23.6648C12.294 23.7361 12.1974 23.7761 12.0966 23.7761Z" fill="#4E2583"/>
<path d="M19.6666 5.05681C19.5549 5.05815 19.4434 5.04922 19.3333 5.03014C18.4866 4.87681 14.1666 4.29681 13.09 4.36348H12.9533C12.6891 4.48632 12.4013 4.54997 12.11 4.54997C11.8186 4.54997 11.5308 4.48632 11.2666 4.36348H11.1333C10.06 4.29348 5.7333 4.87014 4.88996 5.03014C4.04663 5.19014 2.9333 4.63681 2.8133 4.57014C2.73817 4.53011 2.67882 4.46581 2.64492 4.38772C2.61102 4.30963 2.60458 4.22236 2.62663 4.14014C2.65366 4.06116 2.70361 3.99202 2.7701 3.94156C2.8366 3.89109 2.91662 3.86159 2.99996 3.85681C3.66663 3.85681 5.2633 3.16014 7.3333 1.90681C7.71569 1.66672 8.16146 1.54723 8.61267 1.56387C9.06388 1.58052 9.49964 1.73253 9.8633 2.00014L10.0833 2.16014C10.1617 1.67823 10.4089 1.23992 10.7808 0.923605C11.1527 0.607286 11.6251 0.433594 12.1133 0.433594C12.6015 0.433594 13.0738 0.607286 13.4458 0.923605C13.8177 1.23992 14.0649 1.67823 14.1433 2.16014C14.2166 2.10681 14.29 2.05014 14.3633 2.00014C14.7246 1.73264 15.1578 1.57951 15.6069 1.5605C16.0561 1.54149 16.5007 1.65746 16.8833 1.89348C18.9633 3.14681 20.55 3.87014 21.2166 3.84348C21.3012 3.84387 21.3833 3.87171 21.4506 3.92281C21.5179 3.97391 21.5668 4.0455 21.59 4.12681C21.612 4.20903 21.6056 4.2963 21.5717 4.37439C21.5378 4.45247 21.4784 4.51677 21.4033 4.55681C20.8669 4.84595 20.2747 5.01647 19.6666 5.05681ZM13.3533 3.62014C14.8466 3.62014 18.7633 4.15348 19.47 4.28681C19.5961 4.30363 19.7239 4.30363 19.85 4.28681C18.6852 3.80024 17.5616 3.22058 16.49 2.55348C16.2364 2.39885 15.9427 2.32297 15.646 2.33543C15.3493 2.34789 15.063 2.44814 14.8233 2.62348C14.54 2.83014 14.2366 3.05681 13.9666 3.29014C13.9083 3.36653 13.8231 3.41795 13.7283 3.43404C13.6335 3.45013 13.5362 3.4297 13.4559 3.37686C13.3755 3.32402 13.3182 3.2427 13.2955 3.14929C13.2727 3.05588 13.2863 2.95732 13.3333 2.87348C13.373 2.75291 13.3943 2.62706 13.3966 2.50014C13.3966 2.15625 13.26 1.82643 13.0168 1.58326C12.7737 1.34009 12.4439 1.20348 12.1 1.20348C11.7561 1.20348 11.4263 1.34009 11.1831 1.58326C10.9399 1.82643 10.8033 2.15625 10.8033 2.50014C10.8057 2.62678 10.8259 2.75245 10.8633 2.87348C10.8879 2.9511 10.8867 3.0346 10.8598 3.11148C10.833 3.18835 10.7819 3.25445 10.7144 3.29988C10.6468 3.34531 10.5663 3.36761 10.485 3.36345C10.4037 3.3593 10.3259 3.32889 10.2633 3.27681C9.99996 3.06014 9.7033 2.83348 9.41996 2.62681C9.17864 2.44793 8.88918 2.34563 8.58905 2.33315C8.28893 2.32067 7.99197 2.39859 7.73663 2.55681C6.66501 3.22391 5.54138 3.80357 4.37663 4.29014C4.50274 4.30697 4.63052 4.30697 4.75663 4.29014C5.5133 4.15014 9.96663 3.54014 11.18 3.62348C11.2327 3.59769 11.2912 3.58626 11.3498 3.59036C11.4083 3.59446 11.4647 3.61393 11.5133 3.64681C11.6995 3.75165 11.9096 3.80673 12.1233 3.80673C12.337 3.80673 12.5471 3.75165 12.7333 3.64681C12.7855 3.62262 12.8424 3.6101 12.9 3.6101C12.9575 3.6101 13.0144 3.62262 13.0666 3.64681L13.3533 3.62014Z" fill="#4E2583"/>
<path d="M8.46341 23.5432C8.37584 23.5425 8.29119 23.5116 8.22377 23.4558C8.15636 23.3999 8.1103 23.3224 8.09341 23.2365C7.96495 22.6485 8.02913 22.0348 8.27646 21.4862C8.52378 20.9375 8.94111 20.483 9.46674 20.1898C10.6664 19.5313 11.8991 18.9349 13.1601 18.4032C13.9598 18.0638 14.695 17.5891 15.3334 16.9998C16.0934 16.2798 16.4201 15.6298 16.3101 15.0698C16.0734 13.8998 13.9767 13.0932 12.8267 12.6598C12.5667 12.5598 12.3434 12.4732 12.1601 12.3998C12.1099 12.3832 12.0638 12.3563 12.0246 12.3208C11.9855 12.2853 11.9541 12.2421 11.9326 12.1938C11.9111 12.1455 11.8999 12.0933 11.8997 12.0404C11.8996 11.9876 11.9104 11.9353 11.9316 11.8869C11.9528 11.8385 11.9838 11.795 12.0228 11.7592C12.0617 11.7235 12.1077 11.6963 12.1577 11.6793C12.2077 11.6623 12.2608 11.656 12.3134 11.6607C12.3661 11.6654 12.4171 11.681 12.4634 11.7065C12.6267 11.7765 12.8367 11.8565 13.0834 11.9498C14.4434 12.4698 16.7234 13.3398 17.0401 14.9232C17.2067 15.7532 16.8034 16.6398 15.8434 17.5498C15.1399 18.1943 14.3317 18.714 13.4534 19.0865C12.2253 19.5992 11.0258 20.1778 9.86007 20.8198C9.00007 21.3865 8.66674 22.1465 8.83674 23.0898C8.84643 23.1389 8.84636 23.1893 8.83652 23.2383C8.82668 23.2873 8.80728 23.3339 8.77941 23.3754C8.75154 23.4169 8.71576 23.4525 8.67412 23.4801C8.63248 23.5078 8.5858 23.5269 8.53674 23.5365L8.46341 23.5432Z" fill="#4E2583"/>
<path d="M15.6434 23.543C15.5956 23.5422 15.5482 23.5332 15.5034 23.5164C15.4103 23.4785 15.3357 23.4056 15.2958 23.3133C15.2559 23.2211 15.2539 23.1168 15.2901 23.023C15.6234 22.2197 15.2568 21.4797 14.2334 20.8297C13.5212 20.4224 12.7879 20.053 12.0368 19.723C11.9457 19.6788 11.8759 19.6003 11.8428 19.5046C11.8097 19.409 11.8159 19.3041 11.8601 19.213C11.9043 19.122 11.9829 19.0522 12.0785 19.0191C12.1741 18.9859 12.279 18.9922 12.3701 19.0364C13.1533 19.3776 13.9168 19.7627 14.6568 20.1897C15.9901 21.0397 16.4734 22.1464 16.0134 23.303C15.9844 23.3765 15.9331 23.4392 15.8668 23.4822C15.8005 23.5252 15.7224 23.5465 15.6434 23.543Z" fill="#4E2583"/>
<path d="M10.6466 19.0631C10.5913 19.0621 10.5368 19.0496 10.4866 19.0265C9.6671 18.6627 8.91268 18.1673 8.25328 17.5598C7.29328 16.6498 6.88994 15.7631 7.05661 14.9331C7.37328 13.3498 9.66661 12.4798 10.9999 11.9598C11.2433 11.8665 11.4566 11.7865 11.6166 11.7165C12.9166 11.1465 15.0566 9.77979 15.2833 8.53313C15.3136 8.34334 15.2936 8.1489 15.2252 7.96929C15.1567 7.78969 15.0423 7.63123 14.8933 7.50979C14.2866 6.92979 14.3866 6.27979 14.7533 5.89313C15.3199 5.29646 16.4933 5.19979 17.3433 5.99313C17.635 6.22786 17.8549 6.53977 17.9781 6.89334C18.1012 7.24692 18.1227 7.62797 18.0399 7.99313C17.5666 10.0865 13.8533 11.8898 12.1333 12.4365C12.0575 12.4614 11.9757 12.4614 11.8999 12.4365C11.7333 12.5065 11.5199 12.5898 11.2766 12.6831C10.1399 13.1165 8.02661 13.9231 7.79328 15.0931C7.67994 15.6531 8.00994 16.3031 8.76661 17.0198C9.36547 17.5743 10.0527 18.0249 10.7999 18.3531C10.8893 18.3941 10.9598 18.4675 10.9969 18.5585C11.0341 18.6496 11.0351 18.7513 10.9999 18.8431C10.9688 18.9102 10.9188 18.9667 10.8561 19.0058C10.7933 19.0449 10.7205 19.0648 10.6466 19.0631ZM15.9466 6.18313C15.7119 6.17348 15.4829 6.2574 15.3099 6.41646C15.2566 6.47313 15.0933 6.64646 15.4233 6.96313C15.6639 7.16989 15.8469 7.43546 15.9544 7.73397C16.0619 8.03248 16.0902 8.35375 16.0366 8.66646C15.9248 9.17536 15.6824 9.64638 15.3333 10.0331C16.3333 9.34646 17.1433 8.55646 17.3133 7.81313C17.3602 7.57936 17.3408 7.33711 17.2571 7.11383C17.1735 6.89055 17.0289 6.69516 16.8399 6.54979C16.6007 6.31682 16.2806 6.18543 15.9466 6.18313Z" fill="#4E2583"/>
</svg>
