<svg width="24" height="24" viewBox="0 0 24 24" fill="none" xmlns="http://www.w3.org/2000/svg">
<g clip-path="url(#clip0)">
<path d="M22.7001 20.6236H14.9301C14.8557 20.622 14.7825 20.6429 14.7201 20.6836L11.5201 22.9536V21.0236C11.5201 20.9281 11.4822 20.8365 11.4147 20.769C11.3471 20.7015 11.2556 20.6636 11.1601 20.6636H9.3201V14.0236H22.7001V20.6236ZM5.7001 16.3236C5.61474 16.3267 5.53134 16.2975 5.46649 16.2419C5.40164 16.1864 5.36009 16.1084 5.3501 16.0236V9.10358C5.3501 8.68358 5.9801 7.91358 6.5901 7.16358C7.48567 6.1859 8.19711 5.05437 8.6901 3.82358C8.8188 2.82261 8.76801 1.80671 8.5401 0.823576C8.8492 0.760479 9.16506 0.736957 9.4801 0.753576C10.3001 0.783576 11.0001 1.92358 11.1301 3.44358C11.213 4.39487 11.125 5.35332 10.8701 6.27358C10.8551 6.32634 10.8527 6.38188 10.8632 6.43573C10.8736 6.48957 10.8965 6.54022 10.9301 6.58358C10.9626 6.63026 11.006 6.66833 11.0565 6.69446C11.1071 6.7206 11.1632 6.73403 11.2201 6.73358H16.0701C16.3337 6.75156 16.5795 6.87314 16.7537 7.07175C16.928 7.27036 17.0166 7.52987 17.0001 7.79358C17.0001 8.54358 16.5901 8.79358 16.4701 8.84358C16.3746 8.84358 16.2831 8.8815 16.2155 8.94902C16.148 9.01653 16.1101 9.1081 16.1101 9.20358C16.1088 9.25169 16.1171 9.29958 16.1346 9.34441C16.1521 9.38925 16.1784 9.43013 16.2119 9.46462C16.2455 9.49912 16.2856 9.52653 16.33 9.54525C16.3743 9.56396 16.422 9.57359 16.4701 9.57358C16.7401 9.57358 17.1201 9.88358 17.1201 10.4736C17.125 10.6685 17.082 10.8616 16.9948 11.036C16.9077 11.2103 16.779 11.3606 16.6201 11.4736C16.5797 11.5046 16.5463 11.5437 16.5222 11.5886C16.4981 11.6334 16.4837 11.6828 16.4801 11.7336C16.4745 11.7848 16.4805 11.8366 16.4979 11.8851C16.5152 11.9336 16.5433 11.9775 16.5801 12.0136C16.7902 12.2391 16.908 12.5353 16.9101 12.8436C16.9059 13.0136 16.865 13.1808 16.7901 13.3336H9.0001C8.95197 13.3336 8.90432 13.3432 8.85998 13.3619C8.81564 13.3806 8.7755 13.408 8.74194 13.4425C8.70837 13.477 8.68207 13.5179 8.66458 13.5627C8.64708 13.6076 8.63876 13.6555 8.6401 13.7036V16.3236H5.7001ZM23.0701 13.3236H17.5401C17.5803 13.1633 17.6004 12.9988 17.6001 12.8336C17.5949 12.4789 17.491 12.1326 17.3001 11.8336C17.629 11.4807 17.8113 11.0159 17.8101 10.5336C17.8194 10.285 17.773 10.0375 17.6744 9.80909C17.5758 9.58072 17.4274 9.37725 17.2401 9.21358C17.5529 8.83135 17.7132 8.34692 17.6901 7.85358C17.7175 7.39619 17.5623 6.94664 17.2585 6.60356C16.9548 6.26048 16.5274 6.05189 16.0701 6.02358H11.6901C11.8699 5.16258 11.9238 4.28005 11.8501 3.40358C11.6801 1.42358 10.7301 0.0735758 9.5001 0.0235758C8.96787 -0.0454309 8.42698 0.0377831 7.9401 0.263576C7.87589 0.301508 7.82505 0.358441 7.7946 0.426512C7.76415 0.494582 7.75559 0.57043 7.7701 0.643576C8.01215 1.62397 8.08987 2.63774 8.0001 3.64358C7.52105 4.78655 6.84399 5.83599 6.0001 6.74358C5.2201 7.74358 4.6001 8.46358 4.6001 9.14358V16.0236C4.61806 16.2985 4.74142 16.556 4.94447 16.7423C5.14752 16.9285 5.4146 17.0293 5.6901 17.0236H8.6001V21.0236C8.6001 21.1191 8.63803 21.2106 8.70554 21.2781C8.77305 21.3456 8.86462 21.3836 8.9601 21.3836H10.8001V23.7036C10.8006 23.7702 10.8195 23.8354 10.8548 23.8919C10.8901 23.9484 10.9404 23.994 11.0001 24.0236C11.0559 24.0375 11.1143 24.0375 11.1701 24.0236C11.2461 24.0251 11.3202 24.0004 11.3801 23.9536L15.0601 21.3436H23.0601C23.1565 21.3436 23.2491 21.306 23.3183 21.2388C23.3874 21.1715 23.4275 21.08 23.4301 20.9836V13.6736C23.4301 13.5754 23.3911 13.4813 23.3217 13.4119C23.2523 13.3426 23.1582 13.3036 23.0601 13.3036" fill="#4E2583"/>
<path d="M11.84 16.5335H20.49C20.5855 16.5335 20.677 16.4955 20.7445 16.428C20.8121 16.3605 20.85 16.269 20.85 16.1735C20.85 16.078 20.8121 15.9864 20.7445 15.9189C20.677 15.8514 20.5855 15.8135 20.49 15.8135H11.84C11.7445 15.8135 11.6529 15.8514 11.5854 15.9189C11.5179 15.9864 11.48 16.078 11.48 16.1735C11.48 16.269 11.5179 16.3605 11.5854 16.428C11.6529 16.4955 11.7445 16.5335 11.84 16.5335Z" fill="#4E2583"/>
<path d="M11.8402 18.8936H18.3902C18.4857 18.8936 18.5773 18.8556 18.6448 18.7881C18.7123 18.7206 18.7502 18.6291 18.7502 18.5336C18.7502 18.4372 18.7126 18.3445 18.6454 18.2754C18.5782 18.2063 18.4866 18.1662 18.3902 18.1636H11.8402C11.7429 18.1661 11.6502 18.2059 11.5814 18.2747C11.5125 18.3436 11.4727 18.4362 11.4702 18.5336C11.4728 18.63 11.5129 18.7215 11.5821 18.7888C11.6512 18.856 11.7438 18.8936 11.8402 18.8936Z" fill="#4E2583"/>
<path d="M2.86 15.9438C2.86003 16.0455 2.82032 16.1432 2.74933 16.2161C2.67834 16.289 2.58169 16.3312 2.48 16.3338H1.12C1.01657 16.3338 0.917368 16.2927 0.844228 16.2196C0.771089 16.1464 0.73 16.0472 0.73 15.9438V9.51381C0.73 9.46259 0.740088 9.41188 0.759687 9.36456C0.779286 9.31725 0.808013 9.27425 0.844228 9.23804C0.880443 9.20182 0.923437 9.1731 0.970753 9.1535C1.01807 9.1339 1.06878 9.12381 1.12 9.12381H2.48C2.58169 9.12642 2.67834 9.16865 2.74933 9.24151C2.82032 9.31437 2.86003 9.41208 2.86 9.51381V15.9438ZM2.48 8.40381H1.12C0.824682 8.4038 0.541311 8.52042 0.331555 8.72831C0.121799 8.93619 0.00263677 9.2185 0 9.51381L0 15.9438C0.0103657 16.2339 0.132926 16.5086 0.341854 16.71C0.550781 16.9115 0.82976 17.024 1.12 17.0238H2.48C2.77439 17.0238 3.05672 16.9069 3.26489 16.6987C3.47305 16.4905 3.59 16.2082 3.59 15.9138V9.51381C3.59 9.21942 3.47305 8.93709 3.26489 8.72892C3.05672 8.52075 2.77439 8.40381 2.48 8.40381Z" fill="#4E2583"/>
<path d="M1.80021 14.9634C1.71628 14.9775 1.64007 15.0209 1.58511 15.0859C1.53016 15.1509 1.5 15.2333 1.5 15.3184C1.5 15.4035 1.53016 15.4859 1.58511 15.5508C1.64007 15.6158 1.71628 15.6592 1.80021 15.6734C1.88414 15.6592 1.96035 15.6158 2.0153 15.5508C2.07026 15.4859 2.10042 15.4035 2.10042 15.3184C2.10042 15.2333 2.07026 15.1509 2.0153 15.0859C1.96035 15.0209 1.88414 14.9775 1.80021 14.9634Z" fill="#4E2583"/>
</g>
<defs>
<clipPath id="clip0">
<rect width="24" height="24" fill="white"/>
</clipPath>
</defs>
</svg>
