<svg width="24" height="24" viewBox="0 0 24 24" fill="none" xmlns="http://www.w3.org/2000/svg">
<path d="M13.2901 18.9199H4.67006C4.57367 18.9225 4.48211 18.9627 4.41487 19.0318C4.34763 19.1009 4.31002 19.1935 4.31006 19.2899C4.31006 19.3854 4.34799 19.477 4.4155 19.5445C4.48301 19.612 4.57458 19.6499 4.67006 19.6499H13.2901C13.3382 19.6513 13.3861 19.6429 13.4309 19.6254C13.4757 19.608 13.5166 19.5816 13.5511 19.5481C13.5856 19.5145 13.613 19.4744 13.6317 19.43C13.6504 19.3857 13.6601 19.3381 13.6601 19.2899C13.6601 19.1918 13.6211 19.0977 13.5517 19.0283C13.4823 18.9589 13.3882 18.9199 13.2901 18.9199Z" fill="#4E2583"/>
<path d="M4.67022 16.3799H10.0802C10.1667 16.3655 10.2452 16.321 10.3018 16.2541C10.3585 16.1873 10.3896 16.1025 10.3896 16.0149C10.3896 15.9273 10.3585 15.8425 10.3018 15.7757C10.2452 15.7088 10.1667 15.6643 10.0802 15.6499H4.67022C4.58378 15.6643 4.50524 15.7088 4.44859 15.7757C4.39194 15.8425 4.36084 15.9273 4.36084 16.0149C4.36084 16.1025 4.39194 16.1873 4.44859 16.2541C4.50524 16.321 4.58378 16.3655 4.67022 16.3799Z" fill="#4E2583"/>
<path d="M4.67006 13.11H6.38006C6.47819 13.11 6.5723 13.071 6.64169 13.0017C6.71108 12.9323 6.75006 12.8382 6.75006 12.74C6.75008 12.6919 6.74044 12.6442 6.72173 12.5999C6.70302 12.5556 6.6756 12.5154 6.64111 12.4819C6.60661 12.4483 6.56574 12.422 6.5209 12.4045C6.47606 12.387 6.42817 12.3787 6.38006 12.38H4.67006C4.57458 12.38 4.48301 12.4179 4.4155 12.4855C4.34799 12.553 4.31006 12.6445 4.31006 12.74C4.31002 12.8364 4.34763 12.9291 4.41487 12.9982C4.48211 13.0673 4.57367 13.1074 4.67006 13.11Z" fill="#4E2583"/>
<path d="M19.74 14C19.6559 13.9703 19.5641 13.9703 19.48 14C18.1123 14.7671 16.568 15.1635 15 15.15C10.44 15.15 6.74 11.91 6.74 7.94C6.74 3.97 10.46 0.73 15 0.73C19.54 0.73 23.27 4 23.27 7.94C23.2568 9.31485 22.8126 10.6509 22 11.76C21.9664 11.8034 21.9435 11.854 21.9331 11.9078C21.9226 11.9617 21.925 12.0172 21.94 12.07L22.64 14.59L19.74 14ZM17.24 16C17.24 20 13.54 23.21 8.98 23.21C7.41785 23.217 5.8808 22.8172 4.52 22.05C4.46082 22.036 4.39918 22.036 4.34 22.05H4.26L1.35 22.69L2.05 20.17C2.0698 20.1152 2.0756 20.0563 2.06687 19.9987C2.05814 19.941 2.03515 19.8865 2 19.84C1.18032 18.727 0.735581 17.3823 0.73 16C0.801977 14.4444 1.36687 12.9519 2.343 11.7385C3.31913 10.5251 4.65589 9.65357 6.16 9.25C6.87 13 10.57 15.88 15 15.88C15.7442 15.8792 16.4859 15.792 17.21 15.62C17.21 15.75 17.21 15.88 17.21 16.02L17.24 16ZM22.67 12.02C23.5155 10.8257 23.9792 9.40316 24 7.94C24 3.56 20 0 15 0C10 0 6 3.56 6 7.94C5.99004 8.13321 5.99004 8.3268 6 8.52C4.33228 8.96275 2.8501 9.92775 1.77044 11.2737C0.690784 12.6197 0.0703597 14.2759 0 16C0.00799826 17.4668 0.461342 18.8966 1.3 20.1L0.48 23.06C0.464671 23.1196 0.464896 23.1822 0.480653 23.2417C0.49641 23.3013 0.527173 23.3558 0.57 23.4C0.611564 23.4472 0.665074 23.4823 0.724904 23.5017C0.784733 23.521 0.848672 23.5239 0.91 23.51L4.28 22.77C5.72565 23.5684 7.34854 23.9913 9 24C14 24 18 20.44 18 16.07C18.0102 15.8768 18.0102 15.6832 18 15.49C18.6152 15.2996 19.2112 15.0519 19.78 14.75L23.15 15.48C23.2105 15.4941 23.2736 15.4923 23.3332 15.4747C23.3927 15.4572 23.4468 15.4246 23.49 15.38C23.5329 15.3337 23.5636 15.2775 23.5793 15.2164C23.595 15.1553 23.5952 15.0912 23.58 15.03L22.67 12.02Z" fill="#4E2583"/>
<path d="M15 12.2499C14.14 11.6899 10.64 9.2499 10.64 6.8099C10.6264 6.321 10.7776 5.84173 11.0693 5.44913C11.3609 5.05654 11.7762 4.77343 12.2482 4.64533C12.7202 4.51722 13.2216 4.55157 13.6717 4.74284C14.1218 4.93411 14.4946 5.2712 14.73 5.6999C14.7618 5.75381 14.8072 5.79848 14.8615 5.82951C14.9159 5.86055 14.9774 5.87687 15.04 5.87687C15.1026 5.87687 15.1641 5.86055 15.2185 5.82951C15.2728 5.79848 15.3182 5.75381 15.35 5.6999C15.5447 5.37472 15.82 5.10535 16.1494 4.91788C16.4788 4.73041 16.851 4.63122 17.23 4.6299C17.8064 4.63255 18.3584 4.86339 18.765 5.27193C19.1717 5.68048 19.4 6.23346 19.4 6.8099C19.4 9.2299 15.9 11.6899 15.04 12.2499H15ZM17.23 3.8999C16.8089 3.90075 16.3928 3.99024 16.0086 4.16253C15.6243 4.33482 15.2807 4.58606 15 4.8999C14.6057 4.48528 14.0975 4.19658 13.5394 4.07015C12.9813 3.94372 12.3983 3.98522 11.8638 4.18941C11.3292 4.3936 10.8671 4.75137 10.5354 5.21767C10.2038 5.68397 10.0175 6.23796 10 6.8099C10 9.9699 14.7 12.8699 14.9 12.9899C14.9562 13.0279 15.0222 13.0487 15.09 13.0499C15.158 13.05 15.2244 13.029 15.28 12.9899C15.48 12.8699 20.18 9.9899 20.18 6.8099C20.18 6.03985 19.8748 5.30119 19.3312 4.75575C18.7876 4.2103 18.05 3.90255 17.28 3.8999" fill="#4E2583"/>
</svg>
