<svg width="24" height="24" viewBox="0 0 24 24" fill="none" xmlns="http://www.w3.org/2000/svg">
<path d="M9.33019 21.4199H6.0602C5.96381 21.4225 5.87225 21.4627 5.80501 21.5318C5.73777 21.6009 5.70016 21.6935 5.7002 21.7899C5.7002 21.8854 5.73812 21.977 5.80564 22.0445C5.87315 22.112 5.96472 22.1499 6.0602 22.1499H9.33019C9.42661 22.15 9.51924 22.1124 9.58835 22.0451C9.65746 21.9779 9.69759 21.8863 9.70019 21.7899C9.69766 21.6926 9.65787 21.5999 9.58902 21.5311C9.52017 21.4622 9.42752 21.4225 9.33019 21.4199Z" fill="#4E2583"/>
<path d="M6.0602 2.52022C6.10871 2.52035 6.15675 2.51068 6.20143 2.49177C6.24611 2.47287 6.28651 2.44513 6.3202 2.41023C6.35482 2.37842 6.38247 2.33979 6.4014 2.29676C6.42034 2.25373 6.43014 2.20724 6.43019 2.16023C6.43032 2.11171 6.42065 2.06367 6.40174 2.01899C6.38284 1.97431 6.3551 1.93392 6.3202 1.90023C6.24774 1.83825 6.15554 1.8042 6.0602 1.8042C5.96485 1.8042 5.87265 1.83825 5.8002 1.90023C5.73679 1.97211 5.7013 2.06438 5.7002 2.16023C5.70095 2.25316 5.73665 2.34241 5.8002 2.41023C5.83389 2.44513 5.87428 2.47287 5.91896 2.49177C5.96364 2.51068 6.01168 2.52035 6.0602 2.52022Z" fill="#4E2583"/>
<path d="M7.69984 2.5198C7.79532 2.5198 7.88689 2.48188 7.9544 2.41436C8.02191 2.34685 8.05984 2.25528 8.05984 2.1598C8.05984 2.06433 8.02191 1.97276 7.9544 1.90525C7.88689 1.83773 7.79532 1.7998 7.69984 1.7998C7.60437 1.7998 7.5128 1.83773 7.44529 1.90525C7.37777 1.97276 7.33984 2.06433 7.33984 2.1598C7.33984 2.25528 7.37777 2.34685 7.44529 2.41436C7.5128 2.48188 7.60437 2.5198 7.69984 2.5198Z" fill="#4E2583"/>
<path d="M9.32996 2.52002C9.37847 2.52015 9.42651 2.51047 9.47119 2.49157C9.51587 2.47267 9.55627 2.44493 9.58996 2.41002C9.62458 2.37822 9.65223 2.33958 9.67117 2.29655C9.6901 2.25352 9.6999 2.20703 9.69996 2.16002C9.70009 2.11151 9.69041 2.06347 9.67151 2.01879C9.65261 1.97411 9.62487 1.93371 9.58996 1.90002C9.52008 1.83678 9.4292 1.80176 9.33496 1.80176C9.24071 1.80176 9.14983 1.83678 9.07996 1.90002C9.02031 1.97289 8.99159 2.06623 8.99996 2.16002C9.00001 2.20703 9.00982 2.25352 9.02875 2.29655C9.04768 2.33958 9.07534 2.37822 9.10996 2.41002C9.17561 2.4781 9.26541 2.51762 9.35996 2.52002" fill="#4E2583"/>
<path d="M22.17 13.47C22.1767 13.6685 22.1434 13.8664 22.072 14.0517C22.0006 14.2371 21.8927 14.4062 21.7546 14.549C21.6165 14.6918 21.451 14.8053 21.2681 14.8828C21.0852 14.9602 20.8886 15.0001 20.69 15H14C13.9248 15.0031 13.852 15.0274 13.79 15.07L11.03 17.07V15.32C11.0313 15.2719 11.023 15.224 11.0055 15.1792C10.988 15.1343 10.9617 15.0935 10.9282 15.059C10.8946 15.0245 10.8544 14.997 10.8101 14.9783C10.7658 14.9596 10.7181 14.95 10.67 14.95H9.36999C8.97747 14.95 8.60103 14.7941 8.32347 14.5165C8.04592 14.239 7.88999 13.8625 7.88999 13.47V8.07001C7.89261 7.6783 8.04938 7.30338 8.32637 7.02639C8.60336 6.7494 8.97828 6.59264 9.36999 6.59002H20.69C21.0825 6.59002 21.4589 6.74594 21.7365 7.0235C22.0141 7.30105 22.17 7.67749 22.17 8.07001V13.47ZM14.67 19.64H0.729999V4.36002H14.67V5.86002H9.36999C8.7856 5.86266 8.22604 6.09667 7.81375 6.51083C7.40145 6.925 7.16999 7.48561 7.16999 8.07001V13.47C7.16999 14.0544 7.40145 14.615 7.81375 15.0292C8.22604 15.4434 8.7856 15.6774 9.36999 15.68H10.3V17.77C10.2986 17.8383 10.3166 17.9056 10.352 17.9641C10.3875 18.0225 10.4388 18.0697 10.5 18.1C10.5528 18.1105 10.6072 18.1105 10.66 18.1C10.739 18.1015 10.8163 18.0769 10.88 18.03L14.11 15.65H14.67V19.64ZM13 23.27H2.38C1.94239 23.27 1.52271 23.0962 1.21327 22.7867C0.903838 22.4773 0.729999 22.0576 0.729999 21.62V20.36H14.67V21.62C14.67 21.8384 14.6267 22.0546 14.5425 22.2561C14.4583 22.4576 14.335 22.6404 14.1797 22.7939C14.0243 22.9473 13.8401 23.0685 13.6376 23.1502C13.4351 23.2319 13.2183 23.2726 13 23.27ZM2.38 0.73002H13C13.4376 0.73002 13.8573 0.903859 14.1667 1.21329C14.4761 1.52273 14.65 1.94241 14.65 2.38002V3.64002H0.729999V2.38002C0.729999 1.94241 0.903838 1.52273 1.21327 1.21329C1.52271 0.903859 1.94239 0.73002 2.38 0.73002ZM20.69 5.86002H15.39V2.38002C15.39 2.06663 15.3281 1.75633 15.2079 1.46692C15.0876 1.17751 14.9114 0.914695 14.6894 0.693561C14.4673 0.472426 14.2038 0.297326 13.9138 0.178309C13.6239 0.0592929 13.3134 -0.00129575 13 2.10103e-05H2.38C1.74959 0.00265321 1.14576 0.254247 0.699993 0.700014C0.254227 1.14578 0.0026322 1.74961 0 2.38002L0 21.62C0.0026322 22.2504 0.254227 22.8542 0.699993 23.3C1.14576 23.7458 1.74959 23.9974 2.38 24H13C13.6295 23.9974 14.2323 23.7454 14.6764 23.2994C15.1206 22.8533 15.37 22.2495 15.37 21.62V15.68H20.67C20.9597 15.68 21.2466 15.6228 21.5142 15.5116C21.7818 15.4004 22.0247 15.2375 22.2292 15.0321C22.4336 14.8268 22.5954 14.5831 22.7054 14.315C22.8154 14.0469 22.8713 13.7598 22.87 13.47V8.07001C22.8713 7.78027 22.8154 7.49311 22.7054 7.22504C22.5954 6.95697 22.4336 6.71326 22.2292 6.50791C22.0247 6.30256 21.7818 6.13962 21.5142 6.02843C21.2466 5.91725 20.9597 5.86001 20.67 5.86002" fill="#4E2583"/>
<path d="M19.6698 9H10.3898C10.2943 9 10.2027 9.03793 10.1352 9.10544C10.0677 9.17295 10.0298 9.26452 10.0298 9.36C10.0297 9.45642 10.0674 9.54905 10.1346 9.61816C10.2018 9.68726 10.2934 9.72739 10.3898 9.73H19.6698C19.7662 9.71988 19.8549 9.67229 19.9166 9.59748C19.9783 9.52267 20.0082 9.42662 19.9998 9.33C19.9929 9.24476 19.956 9.16475 19.8955 9.10428C19.835 9.04382 19.755 9.00685 19.6698 9Z" fill="#4E2583"/>
<path d="M17.1198 11.8799H10.3898C10.2943 11.8799 10.2027 11.9178 10.1352 11.9853C10.0677 12.0528 10.0298 12.1444 10.0298 12.2399C10.0297 12.3363 10.0674 12.4289 10.1346 12.498C10.2018 12.5671 10.2934 12.6073 10.3898 12.6099H17.1198C17.2171 12.6074 17.3098 12.5676 17.3786 12.4987C17.4475 12.4299 17.4872 12.3372 17.4898 12.2399C17.4872 12.1435 17.447 12.0519 17.3779 11.9847C17.3088 11.9175 17.2162 11.8798 17.1198 11.8799Z" fill="#4E2583"/>
<path d="M8.29994 17.4102H2.54994C2.45446 17.4102 2.3629 17.4481 2.29538 17.5156C2.22787 17.5831 2.18994 17.6747 2.18994 17.7702C2.18994 17.8656 2.22787 17.9572 2.29538 18.0247C2.3629 18.0922 2.45446 18.1302 2.54994 18.1302H8.29994C8.39541 18.1302 8.48698 18.0922 8.55449 18.0247C8.62201 17.9572 8.65994 17.8656 8.65994 17.7702C8.65994 17.6747 8.62201 17.5831 8.55449 17.5156C8.48698 17.4481 8.39541 17.4102 8.29994 17.4102Z" fill="#4E2583"/>
</svg>
