<svg width="24" height="24" viewBox="0 0 24 24" fill="none" xmlns="http://www.w3.org/2000/svg">
<g clip-path="url(#clip0)">
<path d="M15.5132 17.7135C15.4243 17.6897 15.3295 17.7013 15.2491 17.746C15.1686 17.7907 15.1086 17.865 15.0819 17.9531C14.7198 19.2761 14.6382 20.6601 14.8423 22.0165C14.8587 22.1219 14.8438 22.2298 14.7995 22.3269C14.7553 22.424 14.6835 22.506 14.5932 22.5627C13.4225 23.0634 12.1624 23.3215 10.8892 23.3215C9.61592 23.3215 8.35588 23.0634 7.18518 22.5627C7.08763 22.502 7.00732 22.4172 6.95194 22.3166C6.89656 22.2159 6.86798 22.1026 6.86892 21.9877V19.3523C6.86892 18.9785 6.591 18.576 5.81474 18.576H5.45057C3.97472 18.576 2.92055 18.2694 2.83429 17.8094C2.719 16.6811 2.72543 15.5437 2.85346 14.4168C2.85896 14.342 2.84058 14.2674 2.80097 14.2036C2.76137 14.1399 2.70257 14.0904 2.63304 14.0622C2.05205 13.8244 1.48564 13.5524 0.936772 13.2476C0.783437 13.1518 0.687603 13.056 0.668436 12.941C0.647555 12.8173 0.675004 12.6904 0.745104 12.5864C2.68096 9.6251 2.85346 8.73384 2.85346 8.60925C3.57222 2.19793 8.73769 1.69959 10.3094 1.69959H10.8556C12.0979 1.71016 13.3282 1.94388 14.4878 2.3896C14.5297 2.40812 14.5751 2.41783 14.6209 2.41814C14.6668 2.41844 14.7123 2.40933 14.7545 2.39136C14.7967 2.3734 14.8348 2.34696 14.8664 2.31369C14.898 2.28042 14.9224 2.24102 14.9382 2.19793C14.9567 2.15595 14.9664 2.11062 14.9667 2.06474C14.967 2.01886 14.9579 1.97341 14.9399 1.93119C14.922 1.88897 14.8955 1.85089 14.8623 1.81929C14.829 1.7877 14.7896 1.76327 14.7465 1.74751C13.5046 1.26797 12.1868 1.0148 10.8556 1L10.3094 1C8.60353 1 2.9493 1.54626 2.12512 8.54217C2.12512 8.54217 2.00053 9.36635 0.208431 12.1935C0.033616 12.459 -0.034813 12.7806 0.016762 13.0943C0.0585406 13.2572 0.13496 13.4091 0.240808 13.5398C0.346655 13.6704 0.47944 13.7767 0.630102 13.8514C1.12896 14.1313 1.6442 14.3809 2.17304 14.5989C2.04293 15.7132 2.04293 16.8388 2.17304 17.9531C2.39346 19.1031 4.32931 19.2756 5.46974 19.2756H5.83391C5.96035 19.2622 6.08779 19.289 6.19808 19.3523V21.9686C6.19603 22.2045 6.25494 22.437 6.36911 22.6435C6.48328 22.85 6.64884 23.0236 6.84976 23.1473C8.11167 23.7567 9.50306 24.0495 10.9036 24.0003C12.296 24.0523 13.6804 23.7663 14.9382 23.1665C15.1498 23.0389 15.319 22.8518 15.4247 22.6284C15.5304 22.4051 15.5678 22.1556 15.5324 21.9111C15.3392 20.6542 15.4143 19.3706 15.7528 18.1448C15.7766 18.0559 15.765 17.9611 15.7203 17.8807C15.6756 17.8002 15.6013 17.7402 15.5132 17.7135Z" fill="#4E2583"/>
<path d="M16.4238 8.2451C16.7688 8.2451 17.106 8.34739 17.3929 8.53905C17.6797 8.7307 17.9032 9.0031 18.0353 9.32181C18.1673 9.64052 18.2018 9.99122 18.1345 10.3296C18.0672 10.6679 17.9011 10.9787 17.6572 11.2226C17.4132 11.4665 17.1025 11.6327 16.7641 11.7C16.4258 11.7673 16.0751 11.7327 15.7564 11.6007C15.4377 11.4687 15.1653 11.2451 14.9736 10.9583C14.7819 10.6715 14.6797 10.3343 14.6797 9.98928C14.6822 9.52747 14.8667 9.08529 15.1933 8.75874C15.5198 8.43218 15.962 8.24761 16.4238 8.2451ZM8.50792 7.91926C8.41899 7.89539 8.32428 7.90705 8.24379 7.95176C8.16331 7.99647 8.10337 8.07074 8.07666 8.15885C7.93262 8.63526 7.84891 9.12786 7.82749 9.62511H7.02248C6.97633 9.62632 6.93089 9.63678 6.88885 9.65588C6.84682 9.67497 6.80904 9.70231 6.77776 9.73627C6.74648 9.77023 6.72234 9.81012 6.70676 9.85358C6.69118 9.89704 6.68448 9.94319 6.68706 9.98928C6.68703 10.0817 6.72307 10.1705 6.78751 10.2367C6.85195 10.3029 6.9397 10.3414 7.03207 10.3439H14.0184C14.1068 10.9553 14.4235 11.5105 14.9048 11.8979C15.3861 12.2852 15.9962 12.4759 16.6124 12.4316C17.2285 12.3872 17.8051 12.1112 18.2259 11.6589C18.6468 11.2067 18.8808 10.6119 18.8808 9.99408C18.8808 9.3763 18.6468 8.78145 18.2259 8.32921C17.8051 7.87698 17.2285 7.60092 16.6124 7.5566C15.9962 7.51227 15.3861 7.70296 14.9048 8.09029C14.4235 8.47763 14.1068 9.03287 14.0184 9.64428H10.6163C10.6366 9.20564 10.7107 8.77115 10.8367 8.35051C10.8621 8.26156 10.8511 8.16614 10.8062 8.08527C10.7613 8.00439 10.6861 7.94468 10.5971 7.91926C10.5081 7.89384 10.4127 7.90481 10.3319 7.94974C10.251 7.99467 10.1913 8.06989 10.1659 8.15885C10.0263 8.6363 9.94266 9.12836 9.91668 9.62511H8.5175C8.54732 9.18755 8.62116 8.7541 8.73792 8.33135C8.75122 8.28793 8.75581 8.24232 8.75144 8.19712C8.74707 8.15192 8.73382 8.10803 8.71245 8.06797C8.69109 8.0279 8.66202 7.99245 8.62692 7.96364C8.59182 7.93483 8.55138 7.91324 8.50792 7.90009" fill="#4E2583"/>
<path d="M16.4234 3.47257C15.4272 3.4688 14.4436 3.69517 13.5493 4.13402C12.6549 4.57288 11.8741 5.21235 11.2675 6.00259C11.212 6.07567 11.1869 6.16742 11.1976 6.25857C11.2084 6.34972 11.254 6.43316 11.325 6.49135C11.3992 6.54581 11.4917 6.56926 11.5829 6.55674C11.6742 6.54422 11.7569 6.49671 11.8137 6.42427C12.4192 5.64159 13.2139 5.02599 14.1231 4.6355C15.0323 4.245 16.026 4.09248 17.0104 4.1923C17.9949 4.29213 18.9377 4.64101 19.75 5.20607C20.5622 5.77113 21.2173 6.53374 21.6532 7.42201C22.0892 8.31029 22.2918 9.29495 22.2419 10.2832C22.192 11.2714 21.8912 12.2307 21.368 13.0705C20.8447 13.9103 20.1162 14.6031 19.2511 15.0834C18.386 15.5638 17.4129 15.8159 16.4234 15.816H9.60955L11.325 13.1806C11.356 13.1249 11.3723 13.0622 11.3723 12.9985C11.3723 12.9348 11.356 12.8721 11.325 12.8164C11.1979 12.5909 11.0858 12.3572 10.9896 12.1168C10.9535 12.0331 10.8866 11.9665 10.8027 11.9308C10.7189 11.8951 10.6245 11.8931 10.5391 11.9252C10.4969 11.942 10.4584 11.9671 10.4259 11.9989C10.3933 12.0307 10.3674 12.0686 10.3496 12.1105C10.3318 12.1524 10.3224 12.1973 10.3221 12.2428C10.3217 12.2883 10.3303 12.3334 10.3475 12.3756C10.4231 12.5796 10.5127 12.7781 10.6158 12.9698L8.69912 15.979C8.666 16.0322 8.64844 16.0936 8.64844 16.1563C8.64844 16.2189 8.666 16.2803 8.69912 16.3335C8.72794 16.3897 8.77201 16.4365 8.82625 16.4687C8.8805 16.5009 8.94273 16.5172 9.00579 16.5156H16.4617C17.3392 16.5493 18.2144 16.4055 19.035 16.0929C19.8555 15.7803 20.6046 15.3054 21.2373 14.6965C21.87 14.0876 22.3733 13.3573 22.7171 12.5493C23.0609 11.7413 23.2381 10.8722 23.2381 9.9941C23.2381 9.116 23.0609 8.24693 22.7171 7.43893C22.3733 6.63093 21.87 5.90062 21.2373 5.29172C20.6046 4.68282 19.8555 4.20786 19.035 3.89528C18.2144 3.5827 17.3392 3.43892 16.4617 3.47257" fill="#4E2583"/>
</g>
<defs>
<clipPath id="clip0">
<rect width="23.43" height="24" fill="white"/>
</clipPath>
</defs>
</svg>
