<svg width="24" height="24" viewBox="0 0 24 24" fill="none" xmlns="http://www.w3.org/2000/svg">
<path d="M15.41 21.2465C14.17 22.5665 11.82 23.2465 8.63 23.2465C5.02 23.2465 0.73 22.3565 0.73 18.1265C0.801297 16.0026 1.6855 13.9872 3.2 12.4965C3.50878 12.1786 3.72936 11.7857 3.84 11.3565C3.9203 11.3554 3.99794 11.3275 4.06055 11.2772C4.12317 11.227 4.16718 11.1572 4.18557 11.079C4.20396 11.0008 4.19569 10.9188 4.16206 10.8458C4.12844 10.7729 4.07139 10.7133 4 10.6765L3.89 10.6165C3.86958 10.1701 3.73532 9.73639 3.5 9.35652C3.21771 8.8982 3.05921 8.37446 3.04 7.83652C3.15227 7.71634 3.28963 7.62235 3.44231 7.56125C3.595 7.50014 3.75928 7.47341 3.92346 7.48296C4.08765 7.4925 4.24772 7.53809 4.3923 7.61648C4.53688 7.69487 4.66242 7.80414 4.76 7.93652C4.93683 8.15745 5.1603 8.33655 5.41443 8.46102C5.66856 8.58549 5.94706 8.65225 6.23 8.65652C6.51163 8.65288 6.78888 8.58634 7.04149 8.46177C7.2941 8.33719 7.51567 8.15774 7.69 7.93652C7.79643 7.79758 7.93342 7.68501 8.09037 7.60753C8.24731 7.53006 8.41998 7.48976 8.595 7.48976C8.77002 7.48976 8.94269 7.53006 9.09963 7.60753C9.25657 7.68501 9.39357 7.79758 9.5 7.93652C9.68001 8.16136 9.9083 8.34281 10.168 8.46745C10.4276 8.59208 10.712 8.6567 11 8.65652C11.2815 8.65218 11.5585 8.58532 11.811 8.4608C12.0635 8.33628 12.2852 8.15721 12.46 7.93652C12.5222 7.86087 12.5518 7.76366 12.5424 7.66619C12.5331 7.56872 12.4854 7.47894 12.41 7.41652C12.3412 7.3511 12.2499 7.31462 12.155 7.31462C12.0601 7.31462 11.9688 7.3511 11.9 7.41652C11.7936 7.55547 11.6566 7.66804 11.4996 7.74551C11.3427 7.82299 11.17 7.86329 10.995 7.86329C10.82 7.86329 10.6473 7.82299 10.4904 7.74551C10.3334 7.66804 10.1964 7.55547 10.09 7.41652C9.91766 7.19239 9.69674 7.01025 9.44386 6.88381C9.19097 6.75737 8.91271 6.68992 8.63 6.68652C8.34599 6.69059 8.06651 6.75828 7.81211 6.88461C7.55771 7.01094 7.33488 7.1927 7.16 7.41652C7.05357 7.55547 6.91657 7.66804 6.75963 7.74551C6.60269 7.82299 6.43002 7.86329 6.255 7.86329C6.07998 7.86329 5.90731 7.82299 5.75037 7.74551C5.59343 7.66804 5.45643 7.55547 5.35 7.41652C5.17766 7.19239 4.95674 7.01025 4.70386 6.88381C4.45097 6.75737 4.17271 6.68992 3.89 6.68652C3.60599 6.69059 3.32651 6.75828 3.07211 6.88461C2.81771 7.01094 2.59488 7.1927 2.42 7.41652C2.37008 7.48301 2.34211 7.56341 2.34 7.64652C2.34033 8.35322 2.53772 9.04583 2.91 9.64652C3.15729 10.0016 3.26996 10.4332 3.22781 10.8639C3.18566 11.2945 2.99145 11.6961 2.68 11.9965C1.02747 13.6245 0.0673663 15.8277 0 18.1465C0 21.9965 3 23.9965 8.63 23.9965C12.08 23.9965 14.54 23.2365 15.94 21.7465C16.0063 21.6762 16.042 21.5825 16.0392 21.4859C16.0363 21.3893 15.9953 21.2978 15.925 21.2315C15.8547 21.1652 15.761 21.1295 15.6644 21.1324C15.5678 21.1352 15.4763 21.1762 15.41 21.2465Z" fill="#4E2583"/>
<path d="M12.2201 11.106L11.9801 11.186C11.934 11.1985 11.891 11.2203 11.8536 11.2501C11.8162 11.2799 11.7853 11.317 11.7629 11.3591C11.7404 11.4013 11.7268 11.4476 11.7229 11.4952C11.7189 11.5429 11.7248 11.5908 11.7401 11.636C11.7615 11.71 11.8061 11.7752 11.8673 11.822C11.9285 11.8688 12.0031 11.8948 12.0801 11.896H12.1901L12.4601 11.806C12.5048 11.7903 12.5459 11.7659 12.5811 11.7342C12.6163 11.7026 12.645 11.6643 12.6654 11.6216C12.6858 11.5789 12.6977 11.5326 12.7002 11.4853C12.7027 11.438 12.6959 11.3907 12.6801 11.346C12.6644 11.3014 12.64 11.2603 12.6083 11.225C12.5767 11.1898 12.5384 11.1612 12.4957 11.1408C12.453 11.1203 12.4067 11.1085 12.3594 11.106C12.3121 11.1035 12.2648 11.1103 12.2201 11.126" fill="#4E2583"/>
<path d="M8.19016 12.3866C8.27659 12.3723 8.35513 12.3277 8.41178 12.2609C8.46844 12.194 8.49954 12.1093 8.49954 12.0216C8.49954 11.934 8.46844 11.8492 8.41178 11.7824C8.35513 11.7156 8.27659 11.671 8.19016 11.6566H7.65016C7.60259 11.6511 7.55439 11.6554 7.50855 11.6692C7.4627 11.6831 7.42019 11.7062 7.38363 11.7371C7.34707 11.768 7.31725 11.8062 7.29602 11.8491C7.27478 11.892 7.26257 11.9388 7.26016 11.9866C7.25462 12.0342 7.25891 12.0824 7.27275 12.1282C7.28659 12.1741 7.30969 12.2166 7.34063 12.2532C7.37156 12.2897 7.40967 12.3195 7.45259 12.3408C7.49551 12.362 7.54233 12.3742 7.59016 12.3766H8.17016" fill="#4E2583"/>
<path d="M6.04992 11.3862L5.52992 11.2562C5.48396 11.2425 5.43573 11.2381 5.38806 11.2433C5.34039 11.2485 5.29424 11.2632 5.25232 11.2865C5.2104 11.3098 5.17356 11.3412 5.14395 11.379C5.11435 11.4167 5.09258 11.4599 5.07992 11.5062C5.06623 11.5521 5.06186 11.6004 5.06707 11.648C5.07228 11.6957 5.08696 11.7419 5.11025 11.7838C5.13353 11.8257 5.16496 11.8626 5.20269 11.8922C5.24041 11.9218 5.28367 11.9435 5.32992 11.9562L5.88992 12.0962H5.99992C6.08303 12.0983 6.16429 12.0715 6.22992 12.0205C6.29554 11.9694 6.34147 11.8973 6.35992 11.8162C6.3808 11.7207 6.36308 11.6209 6.31062 11.5385C6.25817 11.456 6.17523 11.3977 6.07992 11.3762" fill="#4E2583"/>
<path d="M10.8002 11.8461C10.7941 11.7987 10.7786 11.7529 10.7546 11.7115C10.7305 11.6701 10.6985 11.6339 10.6603 11.6051C10.6221 11.5762 10.5786 11.5552 10.5322 11.5434C10.4858 11.5316 10.4376 11.5291 10.3902 11.5361L9.85023 11.6061C9.75476 11.6061 9.66319 11.6441 9.59568 11.7116C9.52816 11.7791 9.49023 11.8707 9.49023 11.9661C9.49023 12.0616 9.52816 12.1532 9.59568 12.2207C9.66319 12.2882 9.75476 12.3261 9.85023 12.3261L10.4202 12.2561C10.4677 12.25 10.5135 12.2345 10.5549 12.2105C10.5963 12.1864 10.6324 12.1544 10.6613 12.1162C10.6902 12.078 10.7111 12.0345 10.723 11.9881C10.7348 11.9418 10.7373 11.8935 10.7302 11.8461" fill="#4E2583"/>
<path d="M22.0002 4.78623L16.9202 0.0962293C16.8536 0.0343764 16.766 0 16.6752 0C16.5843 0 16.4967 0.0343764 16.4302 0.0962293L11.3302 4.78623C11.275 4.83497 11.2366 4.89986 11.2205 4.97167C11.2043 5.04348 11.2112 5.11856 11.2402 5.18623C11.2648 5.25385 11.3098 5.31221 11.3688 5.35337C11.4279 5.39453 11.4982 5.41648 11.5702 5.41623H13.6902V18.3362C13.6902 18.4317 13.7281 18.5233 13.7956 18.5908C13.8631 18.6583 13.9547 18.6962 14.0502 18.6962C14.1456 18.6962 14.2372 18.6583 14.3047 18.5908C14.3722 18.5233 14.4102 18.4317 14.4102 18.3362V5.05623C14.4102 4.96075 14.3722 4.86918 14.3047 4.80167C14.2372 4.73416 14.1456 4.69623 14.0502 4.69623H12.5102L16.6802 0.856229L20.8502 4.69623H19.2302C19.1347 4.69623 19.0431 4.73416 18.9756 4.80167C18.9081 4.86918 18.8702 4.96075 18.8702 5.05623V23.6362C18.8845 23.7227 18.9291 23.8012 18.9959 23.8579C19.0628 23.9145 19.1475 23.9456 19.2352 23.9456C19.3228 23.9456 19.4075 23.9145 19.4744 23.8579C19.5412 23.8012 19.5858 23.7227 19.6002 23.6362V5.41623H21.7802C21.8517 5.41272 21.9207 5.38792 21.9781 5.34501C22.0355 5.30209 22.0788 5.24302 22.1024 5.17535C22.126 5.10768 22.1289 5.03449 22.1107 4.96517C22.0925 4.89585 22.054 4.83354 22.0002 4.78623Z" fill="#4E2583"/>
</svg>
