<svg width="24" height="24" viewBox="0 0 24 24" fill="none" xmlns="http://www.w3.org/2000/svg">
<path d="M10.967 18.376L13.5374 14.7774L14.9581 17.1235C14.9914 17.1728 15.0358 17.2137 15.0878 17.243C15.1397 17.2722 15.1977 17.2889 15.2572 17.2917C15.319 17.2893 15.3791 17.2708 15.4316 17.238C15.484 17.2052 15.527 17.1593 15.5563 17.1048L17.5378 13.2165L21.3326 20.1051C18.0087 18.9176 14.4958 18.3475 10.967 18.4227V18.376ZM9.18174 18.4788L8.30314 16.6094L10.0323 13.0296L11.6213 16.3197L10.1164 18.4227H9.18174V18.4788ZM1.04064 20.0771L5.19998 11.5995L8.4153 18.4881C5.88189 18.6645 3.38633 19.1995 1.00325 20.0771H1.04064ZM9.28456 9.6647H10.2192C10.5619 9.67083 10.895 9.55124 11.1555 9.32851C11.4159 9.10579 11.5858 8.79536 11.633 8.4559C11.6802 8.11643 11.6014 7.77144 11.4115 7.48613C11.2216 7.20081 10.9338 6.99492 10.6025 6.90738L11.425 5.20625L13.0887 8.72067C13.0549 8.82015 13.036 8.92409 13.0326 9.02911C13.0326 9.07585 13.0326 9.12258 13.0326 9.16931C12.8076 9.3001 12.6327 9.50226 12.5357 9.74374C12.4386 9.98522 12.425 10.2522 12.4969 10.5023C12.5688 10.7524 12.7222 10.9714 12.9327 11.1244C13.1432 11.2775 13.3988 11.3558 13.6589 11.3471H14.3973L15.9956 14.6653L15.1824 16.2355L13.8645 13.9642C13.8336 13.9175 13.7921 13.8788 13.7434 13.8512C13.6946 13.8235 13.6401 13.8078 13.5841 13.8054C13.5265 13.8019 13.469 13.8129 13.4167 13.8374C13.3645 13.8619 13.3192 13.8991 13.285 13.9456L12.0699 15.6467L10.3407 12.0575C10.3097 12.0031 10.2648 11.9579 10.2106 11.9264C10.1565 11.895 10.0949 11.8784 10.0323 11.8784C9.96967 11.8784 9.90814 11.895 9.85397 11.9264C9.7998 11.9579 9.75491 12.0031 9.72386 12.0575L7.92926 15.7962L7.14413 14.1512L9.28456 9.6647ZM6.08793 8.54308C6.08616 8.42996 6.12468 8.3199 6.19659 8.23257C6.26851 8.14524 6.36914 8.08634 6.4805 8.06639C6.53357 8.05503 6.58322 8.03135 6.62544 7.99725C6.66765 7.96315 6.70125 7.91959 6.72352 7.8701C6.74888 7.82266 6.76215 7.76968 6.76215 7.71588C6.76215 7.66208 6.74888 7.60911 6.72352 7.56166C6.70961 7.50328 6.70961 7.44245 6.72352 7.38407C6.72223 7.33585 6.73078 7.28787 6.74865 7.24306C6.76651 7.19825 6.79331 7.15755 6.82742 7.12344C6.86153 7.08933 6.90223 7.06253 6.94704 7.04467C6.99185 7.0268 7.03983 7.01825 7.08805 7.01954C7.17733 7.02214 7.26305 7.05511 7.33107 7.11301C7.37705 7.15478 7.4337 7.183 7.49474 7.19455C7.55579 7.20609 7.61883 7.20052 7.6769 7.17844C7.73572 7.15992 7.78765 7.1242 7.82597 7.07588C7.86429 7.02757 7.88725 6.96887 7.89188 6.90738C7.90799 6.65948 8.02192 6.42814 8.2086 6.26425C8.39528 6.10036 8.63942 6.01733 8.88731 6.03345C9.13521 6.04956 9.36655 6.16349 9.53044 6.35017C9.69434 6.53685 9.77736 6.78099 9.76124 7.02889C9.76584 7.08487 9.76584 7.14114 9.76124 7.19713C9.75259 7.25302 9.7574 7.31016 9.77529 7.36381C9.79317 7.41746 9.82361 7.46606 9.86406 7.50558C9.90446 7.54408 9.95381 7.57193 10.0077 7.58661C10.0615 7.60129 10.1181 7.60236 10.1725 7.5897C10.2701 7.57491 10.3696 7.58008 10.4651 7.60489C10.5606 7.6297 10.65 7.67363 10.728 7.73402C10.8061 7.79441 10.871 7.87001 10.9189 7.95624C10.9669 8.04246 10.9968 8.13752 11.007 8.23566C11.0171 8.3338 11.0072 8.43297 10.9779 8.52717C10.9486 8.62137 10.9004 8.70865 10.8364 8.7837C10.7724 8.85876 10.6938 8.92004 10.6053 8.96383C10.5169 9.00762 10.4206 9.03301 10.3221 9.03846H6.54593C6.42031 9.03123 6.3024 8.97556 6.21698 8.88317C6.13157 8.79079 6.08531 8.66887 6.08793 8.54308ZM14.1169 8.71132C14.2065 8.71235 14.2927 8.74552 14.3599 8.80479C14.4087 8.85734 14.4727 8.89341 14.5429 8.90801C14.6131 8.9226 14.6862 8.91499 14.7519 8.88624C14.8176 8.85749 14.8727 8.80902 14.9097 8.74753C14.9466 8.68605 14.9636 8.6146 14.9581 8.54308C14.9742 8.29518 15.0881 8.06384 15.2748 7.89995C15.4615 7.73606 15.7056 7.65303 15.9535 7.66915C16.2014 7.68526 16.4328 7.79919 16.5967 7.98587C16.7606 8.17255 16.8436 8.41669 16.8275 8.66459C16.8321 8.72057 16.8321 8.77684 16.8275 8.83283C16.8141 8.88791 16.8158 8.94555 16.8322 8.99978C16.8486 9.05401 16.8793 9.10286 16.9209 9.14127C16.9613 9.17978 17.0107 9.20762 17.0645 9.22231C17.1184 9.23699 17.175 9.23805 17.2294 9.2254C17.3269 9.21061 17.4265 9.21578 17.5219 9.24059C17.6174 9.26539 17.7069 9.30932 17.7849 9.36972C17.8629 9.43011 17.9279 9.50571 17.9758 9.59193C18.0238 9.67816 18.0537 9.77322 18.0638 9.87136C18.074 9.9695 18.0641 10.0687 18.0347 10.1629C18.0054 10.2571 17.9573 10.3443 17.8933 10.4194C17.8292 10.4945 17.7506 10.5557 17.6622 10.5995C17.5738 10.6433 17.4774 10.6687 17.3789 10.6742H13.6589C13.5291 10.6717 13.4055 10.6184 13.3146 10.5258C13.2237 10.4332 13.1728 10.3086 13.1728 10.1788C13.1729 10.0661 13.2121 9.95702 13.2837 9.87007C13.3553 9.78312 13.4549 9.72375 13.5654 9.70208C13.6235 9.69024 13.6775 9.66326 13.7218 9.62387C13.7661 9.58448 13.7992 9.53407 13.8178 9.47776C13.8431 9.43031 13.8564 9.37734 13.8564 9.32354C13.8564 9.26974 13.8431 9.21676 13.8178 9.16931C13.8039 9.11093 13.8039 9.05011 13.8178 8.99172C13.8201 8.89579 13.8593 8.80444 13.9272 8.73659C13.995 8.66873 14.0864 8.62957 14.1823 8.6272L14.1169 8.71132ZM22.4356 20.694C22.4356 20.694 22.4356 20.694 22.4356 20.6285L17.8182 12.2818C17.7866 12.2308 17.7426 12.1886 17.6903 12.1592C17.638 12.1298 17.5791 12.1141 17.5191 12.1136C17.4578 12.1131 17.3976 12.1294 17.3448 12.1607C17.2921 12.192 17.249 12.2371 17.22 12.2912L16.3882 13.9175L15.1544 11.3471H17.3135C17.6853 11.3657 18.0493 11.2358 18.3254 10.9861C18.6015 10.7363 18.767 10.387 18.7856 10.0152C18.8042 9.64336 18.6743 9.27937 18.4245 9.00329C18.1748 8.72721 17.8255 8.56167 17.4537 8.54308C17.4281 8.18489 17.2833 7.84558 17.0424 7.57926C16.8015 7.31294 16.4784 7.13494 16.1246 7.07364C15.7707 7.01234 15.4066 7.07126 15.0901 7.24102C14.7737 7.41079 14.5232 7.68161 14.3786 8.01031C14.2916 8.00058 14.2038 8.00058 14.1169 8.01031C13.9321 8.01222 13.7513 8.06388 13.5935 8.15986L11.7241 4.30895C11.693 4.25456 11.6481 4.20934 11.594 4.1779C11.5398 4.14645 11.4783 4.12988 11.4156 4.12988C11.353 4.12988 11.2915 4.14645 11.2373 4.1779C11.1831 4.20934 11.1382 4.25456 11.1072 4.30895L10.1725 6.27179C10.0351 6.00207 9.82395 5.77691 9.56358 5.6225C9.30322 5.4681 9.00436 5.39081 8.70179 5.39963C8.39922 5.40844 8.10537 5.50299 7.85443 5.67229C7.6035 5.84158 7.40579 6.07865 7.28433 6.35591C7.19733 6.34684 7.10962 6.34684 7.02262 6.35591C6.75757 6.35776 6.50308 6.46009 6.31053 6.64223C6.11797 6.82438 6.00168 7.07279 5.98512 7.33733C5.9805 7.38395 5.9805 7.43092 5.98512 7.47754C5.76059 7.60355 5.58398 7.8002 5.48273 8.03692C5.38147 8.27364 5.36125 8.53718 5.4252 8.78658C5.48915 9.03599 5.63369 9.25728 5.83636 9.41607C6.03903 9.57487 6.28847 9.66227 6.54593 9.6647H8.52746L6.77025 13.3193L5.51778 10.6648C5.48747 10.6084 5.44319 10.5608 5.38918 10.5264C5.33518 10.492 5.27325 10.4721 5.20933 10.4685C5.14447 10.468 5.08085 10.4863 5.02612 10.5211C4.9714 10.5559 4.92791 10.6058 4.90089 10.6648L0.00313756 20.5912V20.694C0.00313756 20.694 0.00313756 20.694 0.00313756 20.7594C0.00313756 20.8248 0.00313756 20.7594 0.00313756 20.8155C-0.00104585 20.8402 -0.00104585 20.8655 0.00313756 20.8903H0.00313756C0.000453264 20.9089 0.000453264 20.9277 0.00313756 20.9463L0.0592186 20.9931C0.0928167 21.0027 0.128436 21.0027 0.162034 20.9931H0.264849C6.19075 18.3199 15.818 18.3199 21.7626 20.9931H21.8841H21.9776H22.0243C22.0614 20.9767 22.0936 20.9509 22.1178 20.9183V20.8622C22.1223 20.8375 22.1223 20.8122 22.1178 20.7874C22.1302 20.8296 22.1588 20.8651 22.1974 20.8861C22.2359 20.9071 22.2813 20.912 22.3234 20.8996C22.3655 20.8872 22.401 20.8586 22.4221 20.82C22.4431 20.7815 22.448 20.7361 22.4356 20.694Z" fill="#4E2583"/>
<path d="M15.6406 2.68232C15.8421 2.68232 16.0391 2.74207 16.2066 2.85402C16.3741 2.96597 16.5047 3.12508 16.5818 3.31125C16.6589 3.49741 16.6791 3.70226 16.6398 3.89989C16.6005 4.09752 16.5035 4.27905 16.361 4.42153C16.2185 4.56401 16.037 4.66105 15.8393 4.70036C15.6417 4.73967 15.4369 4.71949 15.2507 4.64238C15.0645 4.56527 14.9054 4.43469 14.7935 4.26714C14.6815 4.0996 14.6218 3.90263 14.6218 3.70113C14.6218 3.43092 14.7291 3.17179 14.9202 2.98072C15.1112 2.78966 15.3704 2.68232 15.6406 2.68232ZM15.6406 5.40225C15.977 5.40225 16.3059 5.30248 16.5857 5.11556C16.8654 4.92864 17.0835 4.66296 17.2122 4.35212C17.341 4.04128 17.3747 3.69924 17.309 3.36925C17.2434 3.03927 17.0814 2.73616 16.8435 2.49825C16.6055 2.26034 16.3024 2.09833 15.9725 2.03269C15.6425 1.96705 15.3004 2.00074 14.9896 2.12949C14.6787 2.25825 14.4131 2.47628 14.2261 2.75603C14.0392 3.03578 13.9395 3.36468 13.9395 3.70113C13.9419 4.15154 14.1219 4.5828 14.4404 4.90129C14.7589 5.21978 15.1902 5.3998 15.6406 5.40225Z" fill="#4E2583"/>
</svg>
