<svg width="24" height="24" viewBox="0 0 24 24" fill="none" xmlns="http://www.w3.org/2000/svg">
<g clip-path="url(#clip0)">
<path d="M23.1698 16.3402L16.3398 23.1702C16.2705 23.2386 16.1771 23.277 16.0798 23.277C15.9824 23.277 15.889 23.2386 15.8198 23.1702L14.8198 22.1702C14.7862 22.1368 14.7596 22.0971 14.7414 22.0533C14.7232 22.0095 14.7139 21.9626 14.7139 21.9152C14.7139 21.8679 14.7232 21.8209 14.7414 21.7772C14.7596 21.7334 14.7862 21.6937 14.8198 21.6602L21.6598 14.8202C21.6928 14.7879 21.7319 14.7624 21.7748 14.7452C21.8177 14.7281 21.8636 14.7196 21.9098 14.7202C21.9576 14.7182 22.0054 14.7261 22.0501 14.7433C22.0949 14.7605 22.1356 14.7867 22.1698 14.8202L23.1698 15.8202C23.2049 15.8538 23.2328 15.8942 23.2519 15.9389C23.2709 15.9836 23.2808 16.0317 23.2808 16.0802C23.2808 16.1288 23.2709 16.1769 23.2519 16.2216C23.2328 16.2663 23.2049 16.3066 23.1698 16.3402ZM22.5198 20.0002L19.9998 22.5202L18.9998 21.5202L21.5198 19.0002L22.5198 20.0002ZM12.8098 22.6602C12.7399 22.7235 12.649 22.7585 12.5548 22.7585C12.4605 22.7585 12.3696 22.7235 12.2998 22.6602L11.2998 21.6602C11.2314 21.591 11.193 21.4976 11.193 21.4002C11.193 21.3029 11.2314 21.2095 11.2998 21.1402L21.1498 11.2902C21.1834 11.2552 21.2237 11.2272 21.2684 11.2082C21.3131 11.1891 21.3612 11.1792 21.4098 11.1792C21.4584 11.1792 21.5064 11.1891 21.5511 11.2082C21.5958 11.2272 21.6362 11.2552 21.6698 11.2902L22.6698 12.2902C22.7034 12.3244 22.7296 12.3651 22.7468 12.4099C22.764 12.4546 22.7718 12.5024 22.7698 12.5502C22.7704 12.5965 22.7619 12.6423 22.7448 12.6852C22.7276 12.7282 22.7021 12.7672 22.6698 12.8002L21.1598 14.3102L17.7398 17.7302L12.8098 22.6602ZM6.99977 9.53024L9.52977 7.00024L16.9998 14.4702L14.4698 17.0002L6.99977 9.53024ZM2.83977 12.6902C2.80617 12.7253 2.76581 12.7533 2.72112 12.7723C2.67644 12.7914 2.62836 12.8012 2.57977 12.8012C2.53119 12.8012 2.4831 12.7914 2.43842 12.7723C2.39374 12.7533 2.35338 12.7253 2.31977 12.6902L1.31977 11.6902C1.28621 11.6568 1.25958 11.6171 1.24141 11.5733C1.22324 11.5295 1.21389 11.4826 1.21389 11.4352C1.21389 11.3879 1.22324 11.3409 1.24141 11.2972C1.25958 11.2534 1.28621 11.2137 1.31977 11.1802L2.83977 9.68024L9.67977 2.84024L11.1898 1.33024C11.2232 1.29668 11.263 1.27005 11.3067 1.25188C11.3505 1.23371 11.3974 1.22436 11.4448 1.22436C11.4922 1.22436 11.5391 1.23371 11.5828 1.25188C11.6266 1.27005 11.6663 1.29668 11.6998 1.33024L12.6998 2.33024C12.7682 2.39949 12.8065 2.49291 12.8065 2.59024C12.8065 2.68758 12.7682 2.78099 12.6998 2.85024L2.83977 12.6902ZM1.83977 9.17024L0.839772 8.17024C0.771375 8.10099 0.733021 8.00758 0.733021 7.91024C0.733021 7.81291 0.771375 7.71949 0.839772 7.65024L7.65977 0.830241C7.73019 0.763193 7.82262 0.724089 7.91977 0.720241C8.01735 0.72216 8.11045 0.761547 8.17977 0.830241L9.17977 1.83024C9.21335 1.86443 9.23955 1.90514 9.25675 1.94986C9.27395 1.99459 9.28179 2.04237 9.27977 2.09024C9.28227 2.13668 9.27462 2.1831 9.25735 2.22627C9.24008 2.26945 9.2136 2.30834 9.17977 2.34024L2.32977 9.17024C2.29633 9.2038 2.25659 9.23043 2.21283 9.2486C2.16907 9.26677 2.12215 9.27612 2.07477 9.27612C2.02739 9.27612 1.98048 9.26677 1.93672 9.2486C1.89296 9.23043 1.85322 9.2038 1.81977 9.17024H1.83977ZM1.17977 3.69024L3.68977 1.18024L4.99977 2.48024L2.47977 5.00024L1.17977 3.69024ZM23.9998 16.0802C24.0007 15.937 23.9728 15.7951 23.9179 15.6628C23.8629 15.5305 23.7819 15.4106 23.6798 15.3102L22.6798 14.3102C22.5936 14.2224 22.4918 14.1512 22.3798 14.1002L23.1698 13.3102C23.3718 13.1086 23.4867 12.8357 23.4898 12.5502C23.4901 12.4071 23.462 12.2653 23.4071 12.1331C23.3521 12.0009 23.2715 11.881 23.1698 11.7802L22.1698 10.7802C21.9654 10.5763 21.6885 10.4617 21.3998 10.4617C21.1111 10.4617 20.8341 10.5763 20.6298 10.7802L17.4898 14.0002L9.99977 6.51024L13.1698 3.35024C13.3713 3.14462 13.4842 2.86817 13.4842 2.58024C13.4842 2.29231 13.3713 2.01586 13.1698 1.81024L12.1698 0.810241C11.9658 0.609319 11.6911 0.496691 11.4048 0.496691C11.1185 0.496691 10.8437 0.609319 10.6398 0.810241L9.84977 1.60024C9.79883 1.48817 9.72764 1.38646 9.63977 1.30024L8.63977 0.300241C8.53926 0.198046 8.41941 0.11688 8.28722 0.0614764C8.15502 0.00607264 8.01311 -0.0224609 7.86977 -0.0224609C7.72643 -0.0224609 7.58453 0.00607264 7.45233 0.0614764C7.32013 0.11688 7.20028 0.198046 7.09977 0.300241L5.49977 2.00024L3.93977 0.410241C3.90633 0.37668 3.86659 0.35005 3.82283 0.33188C3.77907 0.313711 3.73215 0.304357 3.68477 0.304357C3.63739 0.304357 3.59048 0.313711 3.54672 0.33188C3.50296 0.35005 3.46322 0.37668 3.42977 0.410241L0.429772 3.41024C0.394864 3.44393 0.367126 3.48433 0.348223 3.52901C0.32932 3.57369 0.319643 3.62173 0.319772 3.67024C0.319828 3.71725 0.329632 3.76374 0.348565 3.80677C0.367499 3.8498 0.39515 3.88844 0.429772 3.92024L1.99977 5.50024L0.319772 7.15024C0.217577 7.25075 0.136411 7.3706 0.0810076 7.5028C0.0256039 7.635 -0.00292969 7.7769 -0.00292969 7.92024C-0.00292969 8.06358 0.0256039 8.20549 0.0810076 8.33768C0.136411 8.46988 0.217577 8.58973 0.319772 8.69024L1.31977 9.69024C1.40599 9.77811 1.5077 9.8493 1.61977 9.90024L0.829772 10.6902C0.626187 10.895 0.511254 11.1715 0.509772 11.4602C0.51019 11.6018 0.538689 11.7418 0.593618 11.8723C0.648547 12.0028 0.728815 12.121 0.829772 12.2202L1.82977 13.2202C2.03661 13.4194 2.3126 13.5307 2.59977 13.5307C2.88694 13.5307 3.16293 13.4194 3.36977 13.2202L6.50977 10.0002L13.9998 17.4902L10.8298 20.6502C10.6282 20.8559 10.5153 21.1323 10.5153 21.4202C10.5153 21.7082 10.6282 21.9846 10.8298 22.1902L11.8298 23.1902C11.929 23.2912 12.0472 23.3715 12.1777 23.4264C12.3082 23.4813 12.4482 23.5098 12.5898 23.5102C12.8785 23.5088 13.155 23.3938 13.3598 23.1902L14.1498 22.4002C14.2007 22.5123 14.2719 22.614 14.3598 22.7002L15.3598 23.7002C15.5641 23.9042 15.8411 24.0187 16.1298 24.0187C16.4185 24.0187 16.6954 23.9042 16.8998 23.7002L18.4998 22.0002L19.7498 23.2602C19.8191 23.3289 19.9122 23.3683 20.0098 23.3702C20.1069 23.3664 20.1994 23.3273 20.2698 23.2602L23.2698 20.2602C23.3382 20.191 23.3765 20.0976 23.3765 20.0002C23.3765 19.9029 23.3382 19.8095 23.2698 19.7402L21.9998 18.5002L23.6498 16.8502C23.7519 16.7498 23.8329 16.63 23.8879 16.4977C23.9428 16.3654 23.9707 16.2235 23.9698 16.0802" fill="#4E2583"/>
</g>
<defs>
<clipPath id="clip0">
<rect width="24" height="24" fill="white"/>
</clipPath>
</defs>
</svg>
