<svg width="24" height="24" viewBox="0 0 24 24" fill="none" xmlns="http://www.w3.org/2000/svg">
<path d="M23.2075 12.174L23.0675 13.604C23.0463 13.7865 22.957 13.9544 22.8175 14.074C22.7466 14.1315 22.665 14.1743 22.5775 14.2001C22.4899 14.2258 22.3982 14.234 22.3075 14.224L22.5375 11.904L22.5875 11.404C22.6791 11.4143 22.7677 11.4425 22.8484 11.4871C22.929 11.5317 23.0001 11.5918 23.0575 11.664C23.1164 11.734 23.1602 11.8154 23.1861 11.9032C23.2119 11.991 23.2192 12.0832 23.2075 12.174ZM21.2575 15.464C21.1446 15.5541 21.0013 15.5971 20.8575 15.584L20.1475 15.514C20.0046 15.4925 19.8737 15.4217 19.7775 15.314C19.6874 15.2011 19.6444 15.0578 19.6575 14.914L20.1275 10.204C20.1327 10.1331 20.1533 10.0641 20.1878 10.002C20.2223 9.9398 20.27 9.88589 20.3275 9.844C20.3822 9.79743 20.446 9.76273 20.5149 9.74208C20.5837 9.72142 20.6561 9.71527 20.7275 9.724L21.4375 9.79399C21.5081 9.8002 21.5768 9.82052 21.6395 9.85376C21.7021 9.88699 21.7575 9.93247 21.8022 9.98749C21.847 10.0425 21.8802 10.1059 21.9 10.1741C21.9198 10.2422 21.9258 10.3136 21.9175 10.384L21.8675 10.974L21.7275 12.374L21.4575 15.094C21.4385 15.2377 21.3673 15.3694 21.2575 15.464ZM7.62745 16.134V6.214C7.62745 5.89574 7.75388 5.59051 7.97893 5.36547C8.20397 5.14042 8.50919 5.014 8.82745 5.014H15.1175C15.4366 5.01398 15.7429 5.14009 15.9695 5.36485C16.1962 5.58961 16.3248 5.89482 16.3275 6.214V16.134C16.3275 16.4549 16.2 16.7627 15.9731 16.9896C15.7461 17.2165 15.4384 17.344 15.1175 17.344H8.82745C8.50828 17.3414 8.20307 17.2127 7.97831 16.9861C7.75355 16.7594 7.62744 16.4532 7.62745 16.134ZM3.27745 9.724C3.40448 9.72237 3.52815 9.76478 3.62745 9.844C3.68171 9.88814 3.7265 9.94277 3.75914 10.0046C3.79179 10.0665 3.81162 10.1343 3.81745 10.204L4.28745 14.914C4.30053 15.0578 4.25753 15.2011 4.16745 15.314C4.07412 15.4254 3.94177 15.4969 3.79745 15.514L3.08745 15.584C3.01615 15.5915 2.94406 15.5848 2.87538 15.5642C2.80671 15.5436 2.74282 15.5096 2.68745 15.464C2.6329 15.4179 2.58801 15.3615 2.5554 15.298C2.52279 15.2345 2.50309 15.1652 2.49745 15.094L2.43745 14.514L2.08745 10.974L2.00745 10.384C1.99953 10.3142 2.0061 10.2436 2.02675 10.1765C2.0474 10.1094 2.08168 10.0472 2.12745 9.99399C2.17041 9.93528 2.2259 9.88687 2.2899 9.85228C2.3539 9.81768 2.4248 9.79777 2.49745 9.79399L3.20745 9.724H3.27745ZM1.56745 14.224C1.47675 14.234 1.38497 14.2258 1.29743 14.2001C1.20989 14.1743 1.12832 14.1315 1.05745 14.074C0.91793 13.9544 0.828655 13.7865 0.807453 13.604L0.737453 12.174C0.727788 12.082 0.736456 11.989 0.762958 11.9003C0.78946 11.8117 0.833269 11.7292 0.891852 11.6576C0.950436 11.586 1.02263 11.5267 1.10427 11.4832C1.1859 11.4397 1.27535 11.4127 1.36745 11.404L1.64745 14.224H1.56745ZM22.5675 10.684V10.454C22.583 10.289 22.5654 10.1227 22.5156 9.96464C22.4658 9.80662 22.3848 9.66019 22.2775 9.53399C22.175 9.40303 22.0466 9.29459 21.9004 9.21544C21.7541 9.1363 21.5931 9.08815 21.4275 9.07399C21.3153 6.62984 20.2654 4.32296 18.4961 2.63299C16.7268 0.94302 14.3742 0 11.9275 0C9.48073 0 7.12814 0.94302 5.35883 2.63299C3.58952 4.32296 2.53963 6.62984 2.42745 9.07399C2.26177 9.08815 2.10078 9.1363 1.95453 9.21544C1.80828 9.29459 1.67992 9.40303 1.57745 9.53399C1.46986 9.65975 1.38945 9.80639 1.34126 9.96472C1.29308 10.123 1.27816 10.2896 1.29745 10.454V10.684C1.10976 10.7003 0.927171 10.7537 0.760334 10.8412C0.593497 10.9287 0.445745 11.0486 0.325684 11.1938C0.205623 11.339 0.115655 11.5066 0.0610197 11.6869C0.00638479 11.8672 -0.0118243 12.0566 0.00745326 12.244L0.147453 13.674C0.161732 13.8662 0.214189 14.0536 0.301758 14.2254C0.389326 14.3971 0.510248 14.5496 0.657453 14.674C0.912308 14.88 1.22978 14.9928 1.55745 14.994H1.73745V15.214C1.77438 15.5492 1.93915 15.8572 2.19745 16.074C2.42507 16.2627 2.71179 16.3654 3.00745 16.364H3.12745L3.83745 16.294C4.00404 16.2778 4.16578 16.2288 4.31337 16.1498C4.46096 16.0709 4.59149 15.9636 4.69745 15.834C4.81929 15.7023 4.91032 15.5451 4.96393 15.3739C5.01755 15.2027 5.03241 15.0217 5.00745 14.844L4.53745 10.134C4.52283 9.96949 4.47549 9.80955 4.39822 9.66359C4.32094 9.51762 4.21529 9.38857 4.08745 9.28399C3.83706 9.08112 3.5189 8.98103 3.19745 9.00399C3.30516 6.74788 4.27722 4.61981 5.91199 3.06122C7.54676 1.50264 9.71877 0.633161 11.9775 0.633161C14.2361 0.633161 16.4081 1.50264 18.0429 3.06122C19.6777 4.61981 20.6497 6.74788 20.7575 9.00399C20.4295 8.97884 20.1046 9.08296 19.8524 9.29411C19.6001 9.50526 19.4404 9.80669 19.4075 10.134L18.9375 14.844C18.9061 15.1786 19.0065 15.5123 19.2175 15.774C19.4148 16.0112 19.6923 16.1678 19.9975 16.214V21.214C19.9975 21.3996 19.9237 21.5777 19.7924 21.709C19.6612 21.8402 19.4831 21.914 19.2975 21.914C19.1118 21.914 18.9338 21.8402 18.8025 21.709C18.6712 21.5777 18.5975 21.3996 18.5975 21.214V19.904C18.5675 19.5467 18.4044 19.2136 18.1405 18.9709C17.8765 18.7282 17.531 18.5935 17.1725 18.5935C16.8139 18.5935 16.4684 18.7282 16.2045 18.9709C15.9405 19.2136 15.7774 19.5467 15.7475 19.904V22.414C15.7475 22.5996 15.6737 22.7777 15.5424 22.909C15.4112 23.0402 15.2331 23.114 15.0475 23.114C14.8618 23.114 14.6838 23.0402 14.5525 22.909C14.4212 22.7777 14.3475 22.5996 14.3475 22.414V18.064H15.1175C15.6232 18.0561 16.1054 17.849 16.4593 17.4876C16.8132 17.1262 17.0101 16.6398 17.0075 16.134V6.214C17.0075 5.96101 16.9575 5.71053 16.8604 5.47693C16.7632 5.24333 16.6209 5.03122 16.4416 4.8528C16.2622 4.67438 16.0494 4.53317 15.8153 4.43727C15.5812 4.34137 15.3304 4.29268 15.0775 4.294H8.82745C8.31731 4.29399 7.82792 4.49595 7.46626 4.85574C7.1046 5.21552 6.9001 5.70386 6.89745 6.214V16.134C6.89745 16.3874 6.94737 16.6384 7.04437 16.8726C7.14136 17.1067 7.28352 17.3195 7.46274 17.4987C7.64195 17.6779 7.85472 17.8201 8.08887 17.9171C8.32303 18.0141 8.574 18.064 8.82745 18.064H13.6175V22.414C13.6009 22.6112 13.6255 22.8096 13.6896 22.9968C13.7537 23.184 13.856 23.3558 13.9899 23.5015C14.1238 23.6471 14.2865 23.7634 14.4677 23.8429C14.6489 23.9224 14.8446 23.9635 15.0425 23.9635C15.2403 23.9635 15.436 23.9224 15.6172 23.8429C15.7984 23.7634 15.9611 23.6471 16.095 23.5015C16.2289 23.3558 16.3312 23.184 16.3953 22.9968C16.4594 22.8096 16.484 22.6112 16.4675 22.414V19.904C16.4675 19.7183 16.5412 19.5403 16.6725 19.409C16.8038 19.2777 16.9818 19.204 17.1675 19.204C17.3531 19.204 17.5312 19.2777 17.6624 19.409C17.7937 19.5403 17.8675 19.7183 17.8675 19.904V21.224C17.8974 21.5813 18.0605 21.9143 18.3245 22.1571C18.5884 22.3998 18.9339 22.5345 19.2925 22.5345C19.651 22.5345 19.9965 22.3998 20.2605 22.1571C20.5244 21.9143 20.6875 21.5813 20.7175 21.224V16.294H20.9175C21.2098 16.2939 21.4929 16.1912 21.7175 16.004C21.847 15.898 21.9544 15.7675 22.0333 15.6199C22.1122 15.4723 22.1612 15.3106 22.1775 15.144V14.924H22.3575C22.7099 14.9255 23.0502 14.7949 23.3112 14.558C23.5722 14.3211 23.735 13.995 23.7675 13.644L23.9175 12.214C23.9511 11.8381 23.8358 11.464 23.5964 11.1723C23.357 10.8805 23.0127 10.6944 22.6375 10.654" fill="#4E2583"/>
<path d="M9.55764 6.96414H14.3176V10.3641H9.55764V6.96414ZM9.18764 11.0841H14.6776C14.7731 11.0841 14.8647 11.0462 14.9322 10.9787C14.9997 10.9112 15.0376 10.8196 15.0376 10.7241V6.60414C15.0376 6.50866 14.9997 6.4171 14.9322 6.34958C14.8647 6.28207 14.7731 6.24414 14.6776 6.24414H9.18764C9.09216 6.24414 9.00059 6.28207 8.93308 6.34958C8.86557 6.4171 8.82764 6.50866 8.82764 6.60414V10.7241C8.82764 10.8196 8.86557 10.9112 8.93308 10.9787C9.00059 11.0462 9.09216 11.0841 9.18764 11.0841Z" fill="#4E2583"/>
<path d="M9.55742 14.9638V13.4738L10.5574 14.2138L9.55742 14.9638ZM11.4274 13.9638L9.42742 12.5138C9.37191 12.4793 9.30782 12.4609 9.24242 12.4609C9.17702 12.4609 9.11294 12.4793 9.05742 12.5138C8.99774 12.5434 8.94744 12.589 8.91213 12.6455C8.87682 12.702 8.85788 12.7672 8.85742 12.8338V15.7338C8.85788 15.8004 8.87682 15.8656 8.91213 15.9221C8.94744 15.9786 8.99774 16.0242 9.05742 16.0538C9.11312 16.0687 9.17173 16.0687 9.22742 16.0538C9.29855 16.054 9.36815 16.0331 9.42742 15.9938L11.4274 14.5438C11.4761 14.5103 11.5161 14.4655 11.5439 14.4133C11.5718 14.3611 11.5867 14.303 11.5874 14.2438C11.5877 14.1859 11.5731 14.1288 11.5451 14.078C11.5171 14.0273 11.4766 13.9845 11.4274 13.9538" fill="#4E2583"/>
<path d="M14.6776 12.4038C14.5812 12.4038 14.4886 12.4414 14.4195 12.5086C14.3504 12.5759 14.3102 12.6674 14.3076 12.7638V15.6638C14.3102 15.7602 14.3504 15.8518 14.4195 15.919C14.4886 15.9862 14.5812 16.0238 14.6776 16.0238C14.7731 16.0238 14.8647 15.9859 14.9322 15.9184C14.9997 15.8509 15.0376 15.7593 15.0376 15.6638V12.7638C15.0376 12.6683 14.9997 12.5768 14.9322 12.5092C14.8647 12.4417 14.7731 12.4038 14.6776 12.4038Z" fill="#4E2583"/>
<path d="M13.2274 12.4038C13.131 12.4038 13.0384 12.4414 12.9693 12.5086C12.9002 12.5759 12.86 12.6674 12.8574 12.7638V15.6638C12.86 15.7602 12.9002 15.8518 12.9693 15.919C13.0384 15.9862 13.131 16.0238 13.2274 16.0238C13.3229 16.0238 13.4145 15.9859 13.482 15.9184C13.5495 15.8509 13.5874 15.7593 13.5874 15.6638V12.7638C13.5874 12.6683 13.5495 12.5768 13.482 12.5092C13.4145 12.4417 13.3229 12.4038 13.2274 12.4038Z" fill="#4E2583"/>
</svg>
