<svg width="24" height="24" viewBox="0 0 24 24" fill="none" xmlns="http://www.w3.org/2000/svg">
<g clip-path="url(#clip0)">
<path d="M23.38 18.5801C23.0621 18.8992 22.6305 19.079 22.18 19.0801C21.7298 19.0779 21.2986 18.8983 20.98 18.5801C20.525 18.1294 19.9105 17.8766 19.27 17.8766C18.6296 17.8766 18.015 18.1294 17.56 18.5801C17.2431 18.897 16.8132 19.0751 16.365 19.0751C15.9168 19.0751 15.487 18.897 15.17 18.5801C14.7133 18.1288 14.0971 17.8757 13.455 17.8757C12.8129 17.8757 12.1967 18.1288 11.74 18.5801C11.4231 18.897 10.9932 19.0751 10.545 19.0751C10.0968 19.0751 9.66696 18.897 9.35003 18.5801C8.8933 18.1288 8.2771 17.8757 7.63503 17.8757C6.99295 17.8757 6.37675 18.1288 5.92003 18.5801C5.60309 18.897 5.17324 19.0751 4.72503 19.0751C4.27681 19.0751 3.84696 18.897 3.53003 18.5801C3.07484 18.1289 2.46095 17.874 1.82003 17.8701C1.50226 17.8699 1.18759 17.9325 0.894121 18.0543C0.60065 18.1762 0.334173 18.3549 0.110025 18.5801C0.0749359 18.6137 0.0470117 18.6541 0.0279349 18.6988C0.00885806 18.7435 -0.000976562 18.7915 -0.000976562 18.8401C-0.000976562 18.8887 0.00885806 18.9368 0.0279349 18.9815C0.0470117 19.0262 0.0749359 19.0665 0.110025 19.1001C0.143471 19.1337 0.183212 19.1603 0.226971 19.1785C0.270729 19.1966 0.317644 19.206 0.365025 19.206C0.412407 19.206 0.459321 19.1966 0.50308 19.1785C0.546839 19.1603 0.58658 19.1337 0.620025 19.1001C0.777136 18.9417 0.964065 18.8159 1.17003 18.7301C1.37599 18.6443 1.5969 18.6001 1.82003 18.6001C2.04315 18.6001 2.26407 18.6443 2.47003 18.7301C2.67599 18.8159 2.86291 18.9417 3.02003 19.1001C3.47505 19.5508 4.08959 19.8036 4.73003 19.8036C5.37046 19.8036 5.985 19.5508 6.44003 19.1001C6.75696 18.7832 7.18681 18.6051 7.63503 18.6051C8.08324 18.6051 8.51309 18.7832 8.83003 19.1001C9.28675 19.5514 9.90295 19.8045 10.545 19.8045C11.1871 19.8045 11.8033 19.5514 12.26 19.1001C12.577 18.7832 13.0068 18.6051 13.455 18.6051C13.9032 18.6051 14.3331 18.7832 14.65 19.1001C15.1067 19.5514 15.7229 19.8045 16.365 19.8045C17.0071 19.8045 17.6233 19.5514 18.08 19.1001C18.397 18.7832 18.8268 18.6051 19.275 18.6051C19.7232 18.6051 20.1531 18.7832 20.47 19.1001C20.6942 19.3254 20.9606 19.504 21.2541 19.6259C21.5476 19.7477 21.8623 19.8103 22.18 19.8101C22.4981 19.8126 22.8134 19.751 23.1072 19.629C23.401 19.507 23.6672 19.3272 23.89 19.1001C23.9251 19.0665 23.953 19.0262 23.9721 18.9815C23.9912 18.9368 24.001 18.8887 24.001 18.8401C24.001 18.7915 23.9912 18.7435 23.9721 18.6988C23.953 18.6541 23.9251 18.6137 23.89 18.5801C23.8566 18.5466 23.8168 18.5199 23.7731 18.5018C23.7293 18.4836 23.6824 18.4742 23.635 18.4742C23.5876 18.4742 23.5407 18.4836 23.497 18.5018C23.4532 18.5199 23.4135 18.5466 23.38 18.5801Z" fill="#4E2583"/>
<path d="M23.3803 22.2198C23.0623 22.5389 22.6307 22.7187 22.1803 22.7198C21.73 22.7176 21.2988 22.538 20.9803 22.2198C20.5252 21.7692 19.9107 21.5163 19.2703 21.5163C18.6298 21.5163 18.0153 21.7692 17.5603 22.2198C17.2433 22.5368 16.8135 22.7148 16.3653 22.7148C15.9171 22.7148 15.4872 22.5368 15.1703 22.2198C14.7135 21.7685 14.0973 21.5155 13.4553 21.5155C12.8132 21.5155 12.197 21.7685 11.7403 22.2198C11.4233 22.5368 10.9935 22.7148 10.5453 22.7148C10.097 22.7148 9.6672 22.5368 9.35026 22.2198C8.89354 21.7685 8.27734 21.5155 7.63526 21.5155C6.99318 21.5155 6.37698 21.7685 5.92026 22.2198C5.60332 22.5368 5.17347 22.7148 4.72526 22.7148C4.27705 22.7148 3.8472 22.5368 3.53026 22.2198C3.30611 21.9946 3.03964 21.8159 2.74617 21.6941C2.45269 21.5722 2.13802 21.5096 1.82026 21.5098C1.50217 21.5074 1.18684 21.569 0.893057 21.6909C0.599275 21.8129 0.333055 21.9928 0.110261 22.2198C0.0754497 22.2526 0.0477084 22.2921 0.0287456 22.3359C0.00978275 22.3798 0 22.4271 0 22.4748C0 22.5226 0.00978275 22.5699 0.0287456 22.6137C0.0477084 22.6576 0.0754497 22.6971 0.110261 22.7298C0.142988 22.7646 0.182497 22.7924 0.226352 22.8114C0.270207 22.8303 0.317481 22.8401 0.365261 22.8401C0.41304 22.8401 0.460314 22.8303 0.504169 22.8114C0.548025 22.7924 0.587533 22.7646 0.620261 22.7298C0.778194 22.5732 0.965493 22.4493 1.17142 22.3652C1.37734 22.2811 1.59784 22.2385 1.82026 22.2398C2.04269 22.2385 2.26318 22.2811 2.46911 22.3652C2.67503 22.4493 2.86233 22.5732 3.02026 22.7298C3.24426 22.9554 3.51067 23.1344 3.80415 23.2566C4.09763 23.3787 4.41237 23.4416 4.73026 23.4416C5.04815 23.4416 5.36289 23.3787 5.65637 23.2566C5.94985 23.1344 6.21626 22.9554 6.44026 22.7298C6.7572 22.4129 7.18705 22.2349 7.63526 22.2349C8.08347 22.2349 8.51332 22.4129 8.83026 22.7298C9.05512 22.9557 9.32237 23.1349 9.61668 23.2572C9.91099 23.3795 10.2266 23.4424 10.5453 23.4424C10.864 23.4424 11.1795 23.3795 11.4738 23.2572C11.7681 23.1349 12.0354 22.9557 12.2603 22.7298C12.5772 22.4129 13.007 22.2349 13.4553 22.2349C13.9035 22.2349 14.3333 22.4129 14.6503 22.7298C14.8751 22.9557 15.1424 23.1349 15.4367 23.2572C15.731 23.3795 16.0466 23.4424 16.3653 23.4424C16.684 23.4424 16.9995 23.3795 17.2938 23.2572C17.5882 23.1349 17.8554 22.9557 18.0803 22.7298C18.3972 22.4129 18.827 22.2349 19.2753 22.2349C19.7235 22.2349 20.1533 22.4129 20.4703 22.7298C20.6944 22.9551 20.9609 23.1338 21.2544 23.2556C21.5478 23.3775 21.8625 23.4401 22.1803 23.4398C22.4984 23.4423 22.8137 23.3807 23.1075 23.2587C23.4012 23.1368 23.6675 22.9569 23.8903 22.7298C23.9251 22.6971 23.9528 22.6576 23.9718 22.6137C23.9907 22.5699 24.0005 22.5226 24.0005 22.4748C24.0005 22.4271 23.9907 22.3798 23.9718 22.3359C23.9528 22.2921 23.9251 22.2526 23.8903 22.2198C23.8568 22.1863 23.8171 22.1596 23.7733 22.1415C23.7296 22.1233 23.6826 22.114 23.6353 22.114C23.5879 22.114 23.541 22.1233 23.4972 22.1415C23.4534 22.1596 23.4137 22.1863 23.3803 22.2198Z" fill="#4E2583"/>
<path d="M16.65 10.2801H7.92V7.73007H16.65V10.2801ZM7.92 11.0001H16.65V13.5501H7.92V11.0001ZM7.55 16.3101C7.63857 16.3112 7.72462 16.2806 7.79251 16.2237C7.86041 16.1668 7.90564 16.0875 7.92 16.0001V14.3101H16.65V16.0001C16.65 16.0955 16.6879 16.1871 16.7554 16.2546C16.823 16.3221 16.9145 16.3601 17.01 16.3601C17.1055 16.3601 17.197 16.3221 17.2646 16.2546C17.3321 16.1871 17.37 16.0955 17.37 16.0001V5.00007C17.3838 4.45244 17.5996 3.92923 17.9758 3.53109C18.3521 3.13295 18.8623 2.88799 19.4083 2.84332C19.9542 2.79865 20.4975 2.95742 20.9334 3.28911C21.3694 3.62079 21.6674 4.10196 21.77 4.64007H20.7C20.6036 4.64003 20.5109 4.67764 20.4418 4.74488C20.3727 4.81212 20.3326 4.90368 20.33 5.00007C20.3325 5.0974 20.3723 5.19005 20.4412 5.2589C20.51 5.32775 20.6027 5.36754 20.7 5.37007H23.64C23.6932 5.36934 23.7457 5.35712 23.7938 5.33427C23.8418 5.31141 23.8844 5.27844 23.9186 5.23762C23.9528 5.1968 23.9777 5.14909 23.9918 5.09773C24.0058 5.04638 24.0086 4.9926 24 4.94007C24 4.84459 23.9621 4.75302 23.8946 4.68551C23.827 4.618 23.7355 4.58007 23.64 4.58007H22.51C22.4226 3.83351 22.0526 3.14878 21.4759 2.66659C20.8993 2.1844 20.1599 1.94138 19.4097 1.98747C18.6594 2.03356 17.9553 2.36526 17.4421 2.9144C16.9288 3.46355 16.6454 4.18842 16.65 4.94007V7.00007H7.92V4.94007C7.93378 4.39244 8.14956 3.86923 8.52582 3.47109C8.90209 3.07295 9.41228 2.82799 9.95826 2.78332C10.5042 2.73865 11.0475 2.89742 11.4834 3.22911C11.9194 3.56079 12.2174 4.04196 12.32 4.58007H11.24C11.1445 4.58007 11.053 4.618 10.9854 4.68551C10.9179 4.75302 10.88 4.84459 10.88 4.94007C10.88 5.03649 10.9176 5.12912 10.9848 5.19823C11.052 5.26733 11.1436 5.30746 11.24 5.31007H14.18C14.2773 5.30754 14.37 5.26775 14.4388 5.1989C14.5077 5.13005 14.5475 5.0374 14.55 4.94007C14.5474 4.84368 14.5073 4.75212 14.4382 4.68488C14.369 4.61764 14.2764 4.58003 14.18 4.58007H13.05C12.9626 3.83351 12.5926 3.14878 12.0159 2.66659C11.4393 2.1844 10.6999 1.94138 9.94967 1.98747C9.19942 2.03356 8.49532 2.36526 7.98206 2.9144C7.4688 3.46355 7.18536 4.18842 7.19 4.94007V16.0001C7.19 16.0473 7.19931 16.0942 7.2174 16.1378C7.23549 16.1815 7.26201 16.2212 7.29544 16.2546C7.32887 16.2881 7.36855 16.3146 7.41223 16.3327C7.45591 16.3508 7.50272 16.3601 7.55 16.3601" fill="#4E2583"/>
</g>
<defs>
<clipPath id="clip0">
<rect width="24" height="21.44" fill="white" transform="translate(0 2)"/>
</clipPath>
</defs>
</svg>
