<svg width="24" height="34" viewBox="0 0 24 34" fill="none" xmlns="http://www.w3.org/2000/svg">
<path d="M22.3999 20H2.3999C1.7999 20 1.3999 19.6 1.3999 19V5C1.3999 4.4 1.7999 4 2.3999 4H22.3999C22.9999 4 23.3999 4.4 23.3999 5V19C23.3999 19.5 22.8999 20 22.3999 20Z" stroke="#4E2583" stroke-width="0.75" stroke-miterlimit="10" stroke-linecap="round" stroke-linejoin="round"/>
<path d="M14.3999 1H10.3999C9.7999 1 9.3999 1.4 9.3999 2V4H15.3999V2C15.3999 1.4 14.8999 1 14.3999 1Z" stroke="#4E2583" stroke-width="0.75" stroke-miterlimit="10" stroke-linecap="round" stroke-linejoin="round"/>
<path d="M12.3999 17C15.1613 17 17.3999 14.7614 17.3999 12C17.3999 9.23858 15.1613 7 12.3999 7C9.63848 7 7.3999 9.23858 7.3999 12C7.3999 14.7614 9.63848 17 12.3999 17Z" stroke="#4E2583" stroke-width="0.75" stroke-miterlimit="10" stroke-linecap="round" stroke-linejoin="round"/>
<path d="M15.3999 11H13.3999V9H11.3999V11H9.3999V13H11.3999V15H13.3999V13H15.3999V11Z" stroke="#4E2583" stroke-width="0.75" stroke-miterlimit="10" stroke-linecap="round" stroke-linejoin="round"/>
<path d="M2.11688 26.2296V26.5996H0.516875V26.2296H1.10287V24.5436C1.10287 24.4769 1.10488 24.4083 1.10888 24.3376L0.692875 24.6856C0.668875 24.7043 0.644875 24.7163 0.620875 24.7216C0.598208 24.7256 0.576208 24.7256 0.554875 24.7216C0.534875 24.7176 0.516875 24.7109 0.500875 24.7016C0.484875 24.6909 0.472875 24.6796 0.464875 24.6676L0.308875 24.4536L1.19088 23.7036H1.59688V26.2296H2.11688ZM4.58719 25.1536C4.58719 25.4056 4.55985 25.6249 4.50519 25.8116C4.45185 25.9969 4.37719 26.1503 4.28119 26.2716C4.18652 26.3929 4.07385 26.4836 3.94319 26.5436C3.81385 26.6023 3.67385 26.6316 3.52319 26.6316C3.37252 26.6316 3.23252 26.6023 3.10319 26.5436C2.97519 26.4836 2.86385 26.3929 2.76919 26.2716C2.67452 26.1503 2.60052 25.9969 2.54719 25.8116C2.49385 25.6249 2.46719 25.4056 2.46719 25.1536C2.46719 24.9003 2.49385 24.6809 2.54719 24.4956C2.60052 24.3103 2.67452 24.1569 2.76919 24.0356C2.86385 23.9143 2.97519 23.8243 3.10319 23.7656C3.23252 23.7056 3.37252 23.6756 3.52319 23.6756C3.67385 23.6756 3.81385 23.7056 3.94319 23.7656C4.07385 23.8243 4.18652 23.9143 4.28119 24.0356C4.37719 24.1569 4.45185 24.3103 4.50519 24.4956C4.55985 24.6809 4.58719 24.9003 4.58719 25.1536ZM4.07719 25.1536C4.07719 24.9443 4.06185 24.7709 4.03119 24.6336C4.00052 24.4963 3.95919 24.3869 3.90719 24.3056C3.85652 24.2243 3.79785 24.1676 3.73119 24.1356C3.66452 24.1023 3.59519 24.0856 3.52319 24.0856C3.45252 24.0856 3.38385 24.1023 3.31719 24.1356C3.25185 24.1676 3.19385 24.2243 3.14319 24.3056C3.09252 24.3869 3.05185 24.4963 3.02119 24.6336C2.99185 24.7709 2.97719 24.9443 2.97719 25.1536C2.97719 25.3629 2.99185 25.5363 3.02119 25.6736C3.05185 25.8109 3.09252 25.9203 3.14319 26.0016C3.19385 26.0829 3.25185 26.1403 3.31719 26.1736C3.38385 26.2056 3.45252 26.2216 3.52319 26.2216C3.59519 26.2216 3.66452 26.2056 3.73119 26.1736C3.79785 26.1403 3.85652 26.0829 3.90719 26.0016C3.95919 25.9203 4.00052 25.8109 4.03119 25.6736C4.06185 25.5363 4.07719 25.3629 4.07719 25.1536ZM6.9075 25.1536C6.9075 25.4056 6.88017 25.6249 6.8255 25.8116C6.77217 25.9969 6.6975 26.1503 6.6015 26.2716C6.50683 26.3929 6.39417 26.4836 6.2635 26.5436C6.13417 26.6023 5.99417 26.6316 5.8435 26.6316C5.69283 26.6316 5.55283 26.6023 5.4235 26.5436C5.2955 26.4836 5.18417 26.3929 5.0895 26.2716C4.99483 26.1503 4.92083 25.9969 4.8675 25.8116C4.81417 25.6249 4.7875 25.4056 4.7875 25.1536C4.7875 24.9003 4.81417 24.6809 4.8675 24.4956C4.92083 24.3103 4.99483 24.1569 5.0895 24.0356C5.18417 23.9143 5.2955 23.8243 5.4235 23.7656C5.55283 23.7056 5.69283 23.6756 5.8435 23.6756C5.99417 23.6756 6.13417 23.7056 6.2635 23.7656C6.39417 23.8243 6.50683 23.9143 6.6015 24.0356C6.6975 24.1569 6.77217 24.3103 6.8255 24.4956C6.88017 24.6809 6.9075 24.9003 6.9075 25.1536ZM6.3975 25.1536C6.3975 24.9443 6.38217 24.7709 6.3515 24.6336C6.32083 24.4963 6.2795 24.3869 6.2275 24.3056C6.17683 24.2243 6.11817 24.1676 6.0515 24.1356C5.98483 24.1023 5.9155 24.0856 5.8435 24.0856C5.77283 24.0856 5.70417 24.1023 5.6375 24.1356C5.57217 24.1676 5.51417 24.2243 5.4635 24.3056C5.41283 24.3869 5.37217 24.4963 5.3415 24.6336C5.31217 24.7709 5.2975 24.9443 5.2975 25.1536C5.2975 25.3629 5.31217 25.5363 5.3415 25.6736C5.37217 25.8109 5.41283 25.9203 5.4635 26.0016C5.51417 26.0829 5.57217 26.1403 5.6375 26.1736C5.70417 26.2056 5.77283 26.2216 5.8435 26.2216C5.9155 26.2216 5.98483 26.2056 6.0515 26.1736C6.11817 26.1403 6.17683 26.0829 6.2275 26.0016C6.2795 25.9203 6.32083 25.8109 6.3515 25.6736C6.38217 25.5363 6.3975 25.3629 6.3975 25.1536ZM8.49781 24.4076C8.49781 24.5169 8.47915 24.6156 8.44181 24.7036C8.40581 24.7916 8.35715 24.8669 8.29581 24.9296C8.23448 24.9909 8.16315 25.0383 8.08181 25.0716C8.00048 25.1049 7.91581 25.1216 7.82781 25.1216C7.73181 25.1216 7.64315 25.1049 7.56181 25.0716C7.48048 25.0383 7.40981 24.9909 7.34981 24.9296C7.29115 24.8669 7.24515 24.7916 7.21181 24.7036C7.17848 24.6156 7.16181 24.5169 7.16181 24.4076C7.16181 24.2956 7.17848 24.1943 7.21181 24.1036C7.24515 24.0129 7.29115 23.9363 7.34981 23.8736C7.40981 23.8109 7.48048 23.7629 7.56181 23.7296C7.64315 23.6949 7.73181 23.6776 7.82781 23.6776C7.92381 23.6776 8.01248 23.6949 8.09381 23.7296C8.17648 23.7629 8.24781 23.8109 8.30781 23.8736C8.36781 23.9363 8.41448 24.0129 8.44781 24.1036C8.48115 24.1943 8.49781 24.2956 8.49781 24.4076ZM8.11781 24.4076C8.11781 24.3303 8.10981 24.2656 8.09381 24.2136C8.07915 24.1616 8.05848 24.1196 8.03181 24.0876C8.00648 24.0556 7.97581 24.0329 7.93981 24.0196C7.90515 24.0049 7.86781 23.9976 7.82781 23.9976C7.78781 23.9976 7.75048 24.0049 7.71581 24.0196C7.68115 24.0329 7.65115 24.0556 7.62581 24.0876C7.60181 24.1196 7.58248 24.1616 7.56781 24.2136C7.55315 24.2656 7.54581 24.3303 7.54581 24.4076C7.54581 24.4823 7.55315 24.5449 7.56781 24.5956C7.58248 24.6449 7.60181 24.6849 7.62581 24.7156C7.65115 24.7463 7.68115 24.7683 7.71581 24.7816C7.75048 24.7949 7.78781 24.8016 7.82781 24.8016C7.86781 24.8016 7.90515 24.7949 7.93981 24.7816C7.97581 24.7683 8.00648 24.7463 8.03181 24.7156C8.05848 24.6849 8.07915 24.6449 8.09381 24.5956C8.10981 24.5449 8.11781 24.4823 8.11781 24.4076ZM9.45981 23.7856C9.47715 23.7656 9.49715 23.7476 9.51981 23.7316C9.54381 23.7156 9.57715 23.7076 9.61981 23.7076H9.97981L7.83181 26.5256C7.81448 26.5469 7.79381 26.5649 7.76981 26.5796C7.74581 26.5929 7.71648 26.5996 7.68181 26.5996H7.31381L9.45981 23.7856ZM10.1318 25.9196C10.1318 26.0289 10.1131 26.1276 10.0758 26.2156C10.0398 26.3036 9.99115 26.3789 9.92981 26.4416C9.86848 26.5029 9.79715 26.5509 9.71581 26.5856C9.63448 26.6189 9.54981 26.6356 9.46181 26.6356C9.36581 26.6356 9.27715 26.6189 9.19581 26.5856C9.11448 26.5509 9.04381 26.5029 8.98381 26.4416C8.92515 26.3789 8.87915 26.3036 8.84581 26.2156C8.81248 26.1276 8.79581 26.0289 8.79581 25.9196C8.79581 25.8076 8.81248 25.7063 8.84581 25.6156C8.87915 25.5249 8.92515 25.4483 8.98381 25.3856C9.04381 25.3229 9.11448 25.2749 9.19581 25.2416C9.27715 25.2069 9.36581 25.1896 9.46181 25.1896C9.55781 25.1896 9.64648 25.2069 9.72781 25.2416C9.81048 25.2749 9.88115 25.3229 9.93981 25.3856C9.99981 25.4483 10.0465 25.5249 10.0798 25.6156C10.1145 25.7063 10.1318 25.8076 10.1318 25.9196ZM9.74981 25.9196C9.74981 25.8423 9.74248 25.7776 9.72781 25.7256C9.71315 25.6736 9.69248 25.6316 9.66581 25.5996C9.64048 25.5676 9.60981 25.5449 9.57381 25.5316C9.53915 25.5169 9.50181 25.5096 9.46181 25.5096C9.42181 25.5096 9.38448 25.5169 9.34981 25.5316C9.31515 25.5449 9.28515 25.5676 9.25981 25.5996C9.23448 25.6316 9.21448 25.6736 9.19981 25.7256C9.18648 25.7776 9.17981 25.8423 9.17981 25.9196C9.17981 25.9943 9.18648 26.0569 9.19981 26.1076C9.21448 26.1583 9.23448 26.1989 9.25981 26.2296C9.28515 26.2603 9.31515 26.2823 9.34981 26.2956C9.38448 26.3089 9.42181 26.3156 9.46181 26.3156C9.50181 26.3156 9.53915 26.3089 9.57381 26.2956C9.60981 26.2823 9.64048 26.2603 9.66581 26.2296C9.69248 26.1989 9.71315 26.1583 9.72781 26.1076C9.74248 26.0569 9.74981 25.9943 9.74981 25.9196ZM13.1198 24.2336C13.1038 24.2616 13.0865 24.2823 13.0678 24.2956C13.0505 24.3076 13.0285 24.3136 13.0018 24.3136C12.9738 24.3136 12.9431 24.3036 12.9098 24.2836C12.8778 24.2623 12.8391 24.2389 12.7938 24.2136C12.7485 24.1883 12.6951 24.1656 12.6338 24.1456C12.5738 24.1243 12.5025 24.1136 12.4198 24.1136C12.3451 24.1136 12.2798 24.1229 12.2238 24.1416C12.1678 24.1589 12.1205 24.1836 12.0818 24.2156C12.0445 24.2476 12.0165 24.2863 11.9978 24.3316C11.9791 24.3756 11.9698 24.4243 11.9698 24.4776C11.9698 24.5456 11.9885 24.6023 12.0258 24.6476C12.0645 24.6929 12.1151 24.7316 12.1778 24.7636C12.2405 24.7956 12.3118 24.8243 12.3918 24.8496C12.4718 24.8749 12.5538 24.9023 12.6378 24.9316C12.7218 24.9596 12.8038 24.9929 12.8838 25.0316C12.9638 25.0689 13.0351 25.1169 13.0978 25.1756C13.1605 25.2329 13.2105 25.3036 13.2478 25.3876C13.2865 25.4716 13.3058 25.5736 13.3058 25.6936C13.3058 25.8243 13.2831 25.9469 13.2378 26.0616C13.1938 26.1749 13.1285 26.2743 13.0418 26.3596C12.9565 26.4436 12.8518 26.5103 12.7278 26.5596C12.6038 26.6076 12.4618 26.6316 12.3018 26.6316C12.2098 26.6316 12.1191 26.6223 12.0298 26.6036C11.9405 26.5863 11.8545 26.5609 11.7718 26.5276C11.6905 26.4943 11.6138 26.4543 11.5418 26.4076C11.4698 26.3609 11.4058 26.3089 11.3498 26.2516L11.5078 25.9936C11.5211 25.9749 11.5385 25.9596 11.5598 25.9476C11.5811 25.9343 11.6038 25.9276 11.6278 25.9276C11.6611 25.9276 11.6971 25.9416 11.7358 25.9696C11.7745 25.9963 11.8205 26.0263 11.8738 26.0596C11.9271 26.0929 11.9891 26.1236 12.0598 26.1516C12.1318 26.1783 12.2178 26.1916 12.3178 26.1916C12.4711 26.1916 12.5898 26.1556 12.6738 26.0836C12.7578 26.0103 12.7998 25.9056 12.7998 25.7696C12.7998 25.6936 12.7805 25.6316 12.7418 25.5836C12.7045 25.5356 12.6545 25.4956 12.5918 25.4636C12.5291 25.4303 12.4578 25.4023 12.3778 25.3796C12.2978 25.3569 12.2165 25.3323 12.1338 25.3056C12.0511 25.2789 11.9698 25.2469 11.8898 25.2096C11.8098 25.1723 11.7385 25.1236 11.6758 25.0636C11.6131 25.0036 11.5625 24.9289 11.5238 24.8396C11.4865 24.7489 11.4678 24.6376 11.4678 24.5056C11.4678 24.4003 11.4885 24.2976 11.5298 24.1976C11.5725 24.0976 11.6338 24.0089 11.7138 23.9316C11.7938 23.8543 11.8925 23.7923 12.0098 23.7456C12.1271 23.6989 12.2618 23.6756 12.4138 23.6756C12.5845 23.6756 12.7418 23.7023 12.8858 23.7556C13.0298 23.8089 13.1525 23.8836 13.2538 23.9796L13.1198 24.2336ZM15.2445 25.5076L14.8925 24.5456C14.8752 24.5029 14.8572 24.4523 14.8385 24.3936C14.8199 24.3349 14.8012 24.2716 14.7825 24.2036C14.7652 24.2716 14.7472 24.3356 14.7285 24.3956C14.7099 24.4543 14.6919 24.5056 14.6745 24.5496L14.3245 25.5076H15.2445ZM16.1945 26.5996H15.7785C15.7319 26.5996 15.6939 26.5883 15.6645 26.5656C15.6352 26.5416 15.6132 26.5123 15.5985 26.4776L15.3825 25.8876H14.1845L13.9685 26.4776C13.9579 26.5083 13.9372 26.5363 13.9065 26.5616C13.8759 26.5869 13.8379 26.5996 13.7925 26.5996H13.3725L14.5105 23.7076H15.0585L16.1945 26.5996ZM18.9319 23.7076V26.5996H18.6559C18.6132 26.5996 18.5772 26.5929 18.5479 26.5796C18.5199 26.5649 18.4925 26.5409 18.4659 26.5076L16.9559 24.5796C16.9639 24.6676 16.9679 24.7489 16.9679 24.8236V26.5996H16.4939V23.7076H16.7759C16.7985 23.7076 16.8179 23.7089 16.8339 23.7116C16.8512 23.7129 16.8659 23.7169 16.8779 23.7236C16.8912 23.7289 16.9039 23.7376 16.9159 23.7496C16.9279 23.7603 16.9412 23.7749 16.9559 23.7936L18.4719 25.7296C18.4679 25.6829 18.4645 25.6369 18.4619 25.5916C18.4592 25.5463 18.4579 25.5043 18.4579 25.4656V23.7076H18.9319ZM21.5959 24.1496H20.7239V26.5996H20.1859V24.1496H19.3139V23.7076H21.5959V24.1496ZM22.5143 24.1356V24.9376H23.5263V25.3516H22.5143V26.1696H23.7983V26.5996H21.9743V23.7076H23.7983V24.1356H22.5143ZM23.7563 22.8776L23.1083 23.4496C23.0817 23.4736 23.0563 23.4883 23.0323 23.4936C23.0083 23.4989 22.9777 23.5016 22.9403 23.5016H22.5823L23.0003 22.9596C23.0137 22.9409 23.027 22.9263 23.0403 22.9156C23.0537 22.9036 23.0683 22.8949 23.0843 22.8896C23.1003 22.8843 23.1177 22.8809 23.1363 22.8796C23.1563 22.8783 23.1797 22.8776 23.2063 22.8776H23.7563Z" fill="#4E2583"/>
</svg>
