<svg width="24" height="24" viewBox="0 0 24 24" fill="none" xmlns="http://www.w3.org/2000/svg">
<path d="M14.2616 13.9824H9.82874C9.73689 13.9824 9.6488 14.0179 9.58386 14.0811C9.51891 14.1443 9.48242 14.23 9.48242 14.3193C9.48242 14.4087 9.51891 14.4944 9.58386 14.5576C9.6488 14.6208 9.73689 14.6562 9.82874 14.6562H14.2616C14.3535 14.6562 14.4416 14.6208 14.5065 14.5576C14.5714 14.4944 14.6079 14.4087 14.6079 14.3193C14.6079 14.23 14.5714 14.1443 14.5065 14.0811C14.4416 14.0179 14.3535 13.9824 14.2616 13.9824Z" fill="#4E2583"/>
<path d="M9.74732 11.7096V10.7541H10.3739C10.4658 10.7541 10.5539 10.7186 10.6188 10.6554C10.6838 10.5922 10.7202 10.5065 10.7202 10.4172C10.7202 10.3278 10.6838 10.2421 10.6188 10.179C10.5539 10.1158 10.4658 10.0803 10.3739 10.0803H9.74732V9.50977H10.458C10.5498 9.50977 10.6379 9.47427 10.7029 9.41109C10.7678 9.3479 10.8043 9.26221 10.8043 9.17285C10.8043 9.0835 10.7678 8.9978 10.7029 8.93462C10.6379 8.87143 10.5498 8.83594 10.458 8.83594H9.40101C9.30916 8.83594 9.22107 8.87143 9.15612 8.93462C9.09117 8.9978 9.05469 9.0835 9.05469 9.17285V11.7096C9.05469 11.7989 9.09117 11.8846 9.15612 11.9478C9.22107 12.011 9.30916 12.0465 9.40101 12.0465C9.49286 12.0465 9.58094 12.011 9.64589 11.9478C9.71084 11.8846 9.74732 11.7989 9.74732 11.7096Z" fill="#4E2583"/>
<path d="M13.1489 9.50977C13.2408 9.50977 13.3289 9.47427 13.3938 9.41109C13.4588 9.3479 13.4952 9.26221 13.4952 9.17285C13.4952 9.0835 13.4588 8.9978 13.3938 8.93462C13.3289 8.87143 13.2408 8.83594 13.1489 8.83594H12.0924C12.0006 8.83594 11.9125 8.87143 11.8475 8.93462C11.7826 8.9978 11.7461 9.0835 11.7461 9.17285V11.7096C11.7461 11.7989 11.7826 11.8846 11.8475 11.9478C11.9125 12.011 12.0006 12.0465 12.0924 12.0465C12.1843 12.0465 12.2724 12.011 12.3373 11.9478C12.4022 11.8846 12.4387 11.7989 12.4387 11.7096V10.7541H13.0653C13.1572 10.7541 13.2453 10.7186 13.3102 10.6554C13.3752 10.5922 13.4117 10.5065 13.4117 10.4172C13.4117 10.3278 13.3752 10.2421 13.3102 10.179C13.2453 10.1158 13.1572 10.0803 13.0653 10.0803H12.4387V9.50977H13.1489Z" fill="#4E2583"/>
<path d="M19.0255 9.49023C19.1174 9.49023 19.2055 9.45474 19.2704 9.39155C19.3353 9.32837 19.3718 9.24268 19.3718 9.15332C19.3718 9.06397 19.3353 8.97827 19.2704 8.91509C19.2055 8.8519 19.1174 8.81641 19.0255 8.81641H17.9288C17.837 8.81641 17.7489 8.8519 17.684 8.91509C17.619 8.97827 17.5825 9.06397 17.5825 9.15332V11.6851C17.5825 11.7745 17.619 11.8602 17.684 11.9234C17.7489 11.9865 17.837 12.022 17.9288 12.022H19.0255C19.1174 12.022 19.2055 11.9865 19.2704 11.9234C19.3353 11.8602 19.3718 11.7745 19.3718 11.6851C19.3718 11.5958 19.3353 11.5101 19.2704 11.4469C19.2055 11.3837 19.1174 11.3482 19.0255 11.3482H18.2752V10.7539H18.9442C19.0361 10.7539 19.1242 10.7184 19.1891 10.6552C19.2541 10.592 19.2906 10.5063 19.2906 10.417C19.2906 10.3276 19.2541 10.2419 19.1891 10.1787C19.1242 10.1156 19.0361 10.0801 18.9442 10.0801H18.2752V9.49023H19.0255Z" fill="#4E2583"/>
<path d="M16.675 9.80457C16.675 9.25293 16.1962 8.80371 15.6074 8.80371H14.9083C14.8165 8.80371 14.7284 8.83921 14.6634 8.90239C14.5985 8.96557 14.562 9.05127 14.562 9.14063V11.6958C14.562 11.7851 14.5985 11.8708 14.6634 11.934C14.7284 11.9972 14.8165 12.0327 14.9083 12.0327C15.0002 12.0327 15.0883 11.9972 15.1532 11.934C15.2182 11.8708 15.2546 11.7851 15.2546 11.6958V11.0175L16.0687 11.9159C16.1295 11.9825 16.215 12.023 16.3064 12.0285C16.3978 12.034 16.4877 12.004 16.5565 11.9451C16.6253 11.8863 16.6672 11.8033 16.6733 11.7144C16.6793 11.6255 16.6489 11.5379 16.5887 11.4707L15.9394 10.752C16.1494 10.6902 16.3337 10.5651 16.4659 10.3949C16.5981 10.2246 16.6713 10.0179 16.675 9.80457ZM15.6074 10.1316H15.2583C15.2583 10.0081 15.2583 9.60557 15.2583 9.47619H15.6093C15.8125 9.47619 15.9842 9.62578 15.9842 9.80322C15.9842 9.98066 15.8125 10.1303 15.6093 10.1303L15.6074 10.1316Z" fill="#4E2583"/>
<path d="M6.4745 8.82617C6.14627 8.82617 5.82541 8.92086 5.5525 9.09826C5.27959 9.27567 5.06688 9.52782 4.94127 9.82283C4.81566 10.1178 4.7828 10.4425 4.84683 10.7556C4.91086 11.0688 5.06892 11.3565 5.30102 11.5823C5.53311 11.8081 5.82881 11.9618 6.15074 12.0241C6.47266 12.0864 6.80634 12.0545 7.10958 11.9323C7.41283 11.8101 7.67202 11.6031 7.85437 11.3376C8.03673 11.0721 8.13406 10.76 8.13406 10.4407C8.13332 10.0127 7.95824 9.60245 7.64717 9.29983C7.33611 8.99721 6.91442 8.82688 6.4745 8.82617ZM6.4745 11.3813C6.28326 11.3813 6.09632 11.3262 5.93731 11.2228C5.7783 11.1194 5.65437 10.9725 5.58118 10.8006C5.508 10.6288 5.48885 10.4396 5.52616 10.2572C5.56347 10.0747 5.65556 9.90707 5.79078 9.77551C5.92601 9.64396 6.0983 9.55437 6.28586 9.51808C6.47343 9.48178 6.66784 9.50041 6.84452 9.5716C7.02121 9.6428 7.17222 9.76337 7.27847 9.91806C7.38471 10.0728 7.44142 10.2546 7.44142 10.4407C7.44069 10.6899 7.33858 10.9288 7.15741 11.105C6.97623 11.2813 6.73072 11.3806 6.4745 11.3813Z" fill="#4E2583"/>
<path d="M22.807 11.5953L21.1474 9.96281V2.60371C21.1468 2.17856 20.9729 1.771 20.6639 1.47037C20.3549 1.16975 19.936 1.00059 19.4989 1H4.58971C4.15237 1.00012 3.73296 1.16906 3.42354 1.46974C3.11413 1.77042 2.94 2.17825 2.93939 2.60371V9.84062L1.17963 11.6088C1.17255 11.6159 1.16608 11.6231 1.16023 11.6303C1.05671 11.7381 0.999401 11.8803 1 12.0279V22.3653C1.00049 22.7987 1.17769 23.2142 1.4927 23.5207C1.80772 23.8271 2.23484 23.9995 2.68034 24H21.3197C21.7652 23.9995 22.1923 23.8271 22.5073 23.5207C22.8223 23.2142 22.9995 22.7987 23 22.3653V12.0234C23.0004 11.9429 22.9834 11.8631 22.9502 11.7894C22.9169 11.7157 22.8682 11.6495 22.807 11.5953ZM21.1474 10.9214L21.883 11.6465L21.1474 12.0629V10.9214ZM3.63202 2.60371C3.63239 2.35681 3.73353 2.12016 3.9132 1.94578C4.09288 1.77141 4.33638 1.67359 4.59017 1.67383H19.4989C19.7523 1.67418 19.9952 1.77227 20.1744 1.94658C20.3536 2.12089 20.4544 2.3572 20.4548 2.60371V12.4551L19.6647 12.9043L19.6495 12.9137L19.6444 12.9169L12.0453 17.2168C12.0314 17.2251 12.0154 17.2295 11.9991 17.2295C11.9828 17.2295 11.9668 17.2251 11.9529 17.2168L11.2806 16.8363L3.63202 12.5036V2.60371ZM2.93939 10.8087V12.1114L2.10822 11.6415L2.93939 10.8087ZM22.3055 22.3653C22.3053 22.6197 22.2014 22.8637 22.0166 23.0438C21.8318 23.2239 21.5812 23.3255 21.3197 23.3262H2.68034C2.41846 23.3259 2.16738 23.2246 1.9822 23.0445C1.79703 22.8643 1.69289 22.6201 1.69264 22.3653V12.1855L11.6061 17.8008L19.2251 22.116C19.3047 22.161 19.3994 22.1733 19.4884 22.1504C19.5774 22.1274 19.6534 22.071 19.6996 21.9936C19.7458 21.9161 19.7585 21.824 19.7349 21.7374C19.7113 21.6509 19.6534 21.577 19.5738 21.532L12.6885 17.6305L20.4922 13.2116L20.5125 13.1994L20.9627 12.9443L20.9664 12.942L22.3055 12.1846V22.3653Z" fill="#4E2583"/>
<path d="M10.033 7.75975H14.0563C14.2554 7.75915 14.4462 7.68181 14.5868 7.54465C14.7275 7.40749 14.8065 7.2217 14.8066 7.02797V4.47191C14.8066 4.2781 14.7276 4.0922 14.587 3.95494C14.4463 3.81769 14.2555 3.74028 14.0563 3.73969H13.1955V3.38031C13.1953 3.17022 13.1094 2.9688 12.9567 2.82025C12.804 2.67169 12.597 2.58813 12.381 2.58789H11.7078C11.4919 2.58825 11.285 2.67186 11.1324 2.82041C10.9798 2.96895 10.8939 3.1703 10.8937 3.38031V3.73969H10.033C9.83343 3.73981 9.6421 3.817 9.50105 3.95431C9.36 4.09162 9.28076 4.27779 9.28076 4.47191V7.02797C9.28113 7.22194 9.3605 7.40786 9.50148 7.54502C9.64247 7.68218 9.83358 7.75939 10.033 7.75975ZM11.5863 3.38031C11.5863 3.34886 11.5992 3.31869 11.622 3.29645C11.6449 3.27421 11.6759 3.26172 11.7082 3.26172H12.381C12.4133 3.26184 12.4442 3.27437 12.4671 3.29658C12.4899 3.3188 12.5028 3.3489 12.5029 3.38031V3.73969H11.5863V3.38031ZM9.97386 4.47191C9.97374 4.46429 9.97518 4.45671 9.97809 4.44963C9.98101 4.44255 9.98534 4.43611 9.99084 4.43067C9.99634 4.42524 10.0029 4.42092 10.0101 4.41798C10.0174 4.41503 10.0251 4.41351 10.033 4.41352H14.0563C14.0719 4.41387 14.0867 4.42021 14.0975 4.43115C14.1083 4.44209 14.1142 4.45674 14.114 4.47191V7.02797C14.114 7.04326 14.1078 7.05793 14.0967 7.06879C14.0856 7.07964 14.0706 7.0858 14.0549 7.08592H10.033C10.0252 7.08592 10.0174 7.08442 10.0102 7.0815C10.003 7.07858 9.9965 7.07431 9.99101 7.06892C9.98551 7.06353 9.98117 7.05714 9.97823 7.05011C9.97528 7.04308 9.9738 7.03556 9.97386 7.02797V4.47191Z" fill="#4E2583"/>
</svg>
