<svg width="24" height="24" viewBox="0 0 24 24" fill="none" xmlns="http://www.w3.org/2000/svg">
<path d="M23.48 23.6297C23.4435 23.6346 23.4065 23.6346 23.37 23.6297L16.5134 21.6664C16.4476 21.6493 16.3877 21.6148 16.34 21.5664L10.8567 16.0697C10.7857 15.9932 10.7471 15.8922 10.7491 15.7879C10.751 15.6835 10.7934 15.584 10.8672 15.5102C10.9409 15.4364 11.0405 15.3941 11.1448 15.3922C11.2491 15.3902 11.3502 15.4288 11.4267 15.4997L16.8334 20.9064L22.8933 22.6397L21.1634 16.5797L16.1134 11.5331C16.0378 11.4575 15.9954 11.355 15.9954 11.2481C15.9954 11.1412 16.0378 11.0387 16.1134 10.9631C16.1506 10.9253 16.1949 10.8953 16.2439 10.8748C16.2928 10.8543 16.3453 10.8437 16.3984 10.8438C16.4514 10.8437 16.5039 10.8543 16.5528 10.8748C16.6018 10.8953 16.6461 10.9253 16.6834 10.9631L21.8067 16.0864C21.8548 16.1349 21.8903 16.1944 21.91 16.2597L23.8667 23.1164C23.8866 23.1849 23.8879 23.2575 23.8703 23.3267C23.8527 23.3959 23.8169 23.4591 23.7667 23.5097C23.6908 23.5861 23.5877 23.6293 23.48 23.6297Z" fill="#4E2583"/>
<path d="M8.36666 13.4136C8.31397 13.4145 8.26166 13.4046 8.21294 13.3845C8.16422 13.3645 8.12011 13.3346 8.08332 13.2969L1.24332 6.45692C0.802025 6.01451 0.554199 5.41513 0.554199 4.79025C0.554199 4.16537 0.802025 3.566 1.24332 3.12359L3.36999 1.00025C3.81283 0.559766 4.41205 0.3125 5.03666 0.3125C5.66127 0.3125 6.26048 0.559766 6.70332 1.00025L13.1733 7.45359C13.2131 7.49048 13.245 7.53501 13.2671 7.58451C13.2893 7.63402 13.3012 7.68748 13.3023 7.74171C13.3033 7.79594 13.2933 7.84981 13.2731 7.90012C13.2528 7.95042 13.2225 7.99611 13.1842 8.03446C13.1458 8.07281 13.1002 8.10303 13.0499 8.12332C12.9996 8.1436 12.9457 8.15354 12.8914 8.15252C12.8372 8.15151 12.7838 8.13957 12.7342 8.11741C12.6847 8.09526 12.6402 8.06335 12.6033 8.02359L6.13999 1.56025C5.99569 1.41553 5.82425 1.3007 5.63549 1.22234C5.44673 1.14399 5.24437 1.10366 5.03999 1.10366C4.83562 1.10366 4.63325 1.14399 4.44449 1.22234C4.25573 1.3007 4.08429 1.41553 3.93999 1.56025L1.81332 3.68692C1.52184 3.97879 1.35812 4.37442 1.35812 4.78692C1.35812 5.19942 1.52184 5.59505 1.81332 5.88692L8.66666 12.7269C8.72252 12.7835 8.7604 12.8554 8.77555 12.9334C8.7907 13.0115 8.78244 13.0923 8.7518 13.1656C8.72117 13.239 8.66953 13.3017 8.60338 13.3458C8.53722 13.3899 8.45951 13.4135 8.37999 13.4136H8.36666Z" fill="#4E2583"/>
<path d="M16.6232 21.6672C16.5706 21.6673 16.5185 21.6571 16.4699 21.6371C16.4213 21.6171 16.3771 21.5877 16.3398 21.5505L10.8132 16.0239C10.7754 15.9867 10.7454 15.9423 10.7249 15.8934C10.7044 15.8444 10.6938 15.7919 10.6938 15.7389C10.6938 15.6858 10.7044 15.6333 10.7249 15.5844C10.7454 15.5355 10.7754 15.4911 10.8132 15.4539C10.8888 15.3784 10.9913 15.3359 11.0982 15.3359C11.2051 15.3359 11.3076 15.3784 11.3832 15.4539L16.9098 21.0005C16.9854 21.0762 17.0278 21.1787 17.0278 21.2855C17.0278 21.3924 16.9854 21.4949 16.9098 21.5705C16.8299 21.6378 16.7275 21.6724 16.6232 21.6672Z" fill="#4E2583"/>
<path d="M8.33332 13.3703C8.27998 13.3702 8.22718 13.3596 8.17797 13.339C8.12876 13.3184 8.08413 13.2882 8.04666 13.2503L1.24332 6.45692C0.802025 6.01451 0.554199 5.41513 0.554199 4.79025C0.554199 4.16537 0.802025 3.566 1.24332 3.12359L3.36999 1.00025C3.81283 0.559766 4.41205 0.3125 5.03666 0.3125C5.66127 0.3125 6.26048 0.559766 6.70332 1.00025L13.17 7.45025C13.2078 7.48747 13.2378 7.53184 13.2583 7.58077C13.2788 7.6297 13.2893 7.68221 13.2893 7.73525C13.2893 7.7883 13.2788 7.84081 13.2583 7.88974C13.2378 7.93867 13.2078 7.98303 13.17 8.02025C13.0944 8.09577 12.9919 8.13819 12.885 8.13819C12.7781 8.13819 12.6756 8.09577 12.6 8.02025L6.13999 1.56025C5.99569 1.41553 5.82425 1.3007 5.63549 1.22234C5.44673 1.14399 5.24437 1.10366 5.03999 1.10366C4.83562 1.10366 4.63325 1.14399 4.44449 1.22234C4.25573 1.3007 4.08429 1.41553 3.93999 1.56025L1.81332 3.68692C1.52184 3.97879 1.35812 4.37442 1.35812 4.78692C1.35812 5.19942 1.52184 5.59505 1.81332 5.88692L8.60666 12.6669C8.68218 12.7425 8.72459 12.845 8.72459 12.9519C8.72459 13.0588 8.68218 13.1613 8.60666 13.2369C8.57235 13.2763 8.53048 13.3084 8.48352 13.3313C8.43657 13.3542 8.38549 13.3675 8.33332 13.3703Z" fill="#4E2583"/>
<path d="M21.5201 16.7731C21.4675 16.7732 21.4155 16.7629 21.3668 16.7429C21.3182 16.7229 21.274 16.6935 21.2368 16.6564L16.0968 11.5164C16.057 11.4795 16.0251 11.435 16.003 11.3855C15.9808 11.336 15.9689 11.2825 15.9678 11.2283C15.9668 11.174 15.9768 11.1202 15.997 11.0699C16.0173 11.0196 16.0476 10.9739 16.0859 10.9355C16.1243 10.8972 16.17 10.8669 16.2203 10.8467C16.2706 10.8264 16.3244 10.8164 16.3787 10.8175C16.4329 10.8185 16.4863 10.8304 16.5359 10.8526C16.5854 10.8747 16.6299 10.9066 16.6668 10.9464L21.8068 16.0864C21.8823 16.162 21.9247 16.2645 21.9247 16.3714C21.9247 16.4783 21.8823 16.5808 21.8068 16.6564C21.7299 16.7309 21.6272 16.7728 21.5201 16.7731Z" fill="#4E2583"/>
<path d="M16.6234 21.6661C16.5475 21.6633 16.474 21.639 16.4112 21.5962C16.3485 21.5533 16.2991 21.4936 16.2688 21.424C16.2385 21.3543 16.2285 21.2775 16.2399 21.2024C16.2514 21.1273 16.2838 21.057 16.3334 20.9995L21.2368 16.0861C21.274 16.0483 21.3183 16.0183 21.3673 15.9978C21.4162 15.9773 21.4687 15.9668 21.5218 15.9668C21.5748 15.9668 21.6273 15.9773 21.6762 15.9978C21.7252 16.0183 21.7695 16.0483 21.8068 16.0861C21.8823 16.1618 21.9247 16.2643 21.9247 16.3711C21.9247 16.478 21.8823 16.5805 21.8068 16.6561L16.9101 21.5528C16.8327 21.6261 16.73 21.6667 16.6234 21.6661Z" fill="#4E2583"/>
<path d="M10.5433 10.6928C10.49 10.6927 10.4372 10.6821 10.388 10.6615C10.3388 10.6409 10.2942 10.6107 10.2567 10.5728L3.60668 3.92278C3.53571 3.84628 3.49714 3.74524 3.49909 3.6409C3.50105 3.53656 3.54337 3.43704 3.61716 3.36325C3.69095 3.28946 3.79047 3.24714 3.89481 3.24519C3.99915 3.24324 4.10018 3.2818 4.17668 3.35278L10.8433 10.0194C10.8987 10.0765 10.9362 10.1485 10.9511 10.2266C10.966 10.3047 10.9577 10.3854 10.9272 10.4588C10.8967 10.5323 10.8454 10.5951 10.7795 10.6397C10.7136 10.6842 10.6362 10.7085 10.5567 10.7094L10.5433 10.6928Z" fill="#4E2583"/>
<path d="M17.6035 17.7533C17.5012 17.7503 17.4043 17.7072 17.3335 17.6333L13.5535 13.87C13.478 13.7944 13.4355 13.6919 13.4355 13.585C13.4355 13.4781 13.478 13.3756 13.5535 13.3C13.5907 13.2622 13.6351 13.2322 13.684 13.2117C13.7329 13.1912 13.7854 13.1807 13.8385 13.1807C13.8915 13.1807 13.944 13.1912 13.993 13.2117C14.0419 13.2322 14.0863 13.2622 14.1235 13.3L17.8901 17.0633C17.9455 17.1203 17.983 17.1924 17.9979 17.2705C18.0128 17.3485 18.0045 17.4293 17.974 17.5027C17.9435 17.5761 17.8921 17.639 17.8263 17.6835C17.7604 17.7281 17.683 17.7523 17.6035 17.7533Z" fill="#4E2583"/>
<path d="M0.953626 23.63C0.846656 23.63 0.744066 23.5875 0.668427 23.5119C0.592787 23.4362 0.550293 23.3336 0.550293 23.2267C0.550293 18.8367 4.46363 15 6.83029 15C6.93797 15.0005 7.04106 15.0436 7.11696 15.12L9.07363 17.08C9.11119 17.1169 9.1409 17.161 9.16095 17.2097C9.181 17.2584 9.19098 17.3107 9.19029 17.3633C9.19029 19.8167 8.02696 21.3633 5.91363 21.6967L5.29029 21.79C3.62363 22.04 2.59029 22.19 1.23696 23.54C1.1581 23.6062 1.05625 23.6386 0.953626 23.63ZM6.66696 15.8033C4.93029 15.9667 1.90029 18.7567 1.41696 22.2733C2.63696 21.3367 3.75029 21.1733 5.17029 20.9633L5.78696 20.87C7.45363 20.6067 8.33363 19.48 8.38029 17.5167L6.66696 15.8033Z" fill="#4E2583"/>
<path d="M8.78995 17.7536C8.70051 17.755 8.61313 17.7266 8.54158 17.6729C8.47003 17.6192 8.41835 17.5433 8.39468 17.457C8.37102 17.3707 8.3767 17.2791 8.41084 17.1964C8.44499 17.1137 8.50565 17.0447 8.58329 17.0003C8.61662 17.0003 12.0333 14.9536 16.1 10.9336L16.34 10.7003C18.7878 8.24179 21.0048 5.5639 22.9633 2.70026L21.47 1.21693C18.6058 3.17471 15.9279 5.39183 13.47 7.84026L13.2033 8.11026C11.5857 9.75266 10.0833 11.5046 8.70662 13.3536C7.70662 14.7203 7.18329 15.5869 7.17662 15.5969C7.15132 15.6455 7.11637 15.6885 7.07392 15.7231C7.03146 15.7578 6.98239 15.7834 6.9297 15.7985C6.87701 15.8136 6.8218 15.8177 6.76745 15.8107C6.71309 15.8037 6.66073 15.7858 6.61356 15.7579C6.56639 15.73 6.5254 15.6928 6.49309 15.6485C6.46078 15.6042 6.43782 15.5538 6.42563 15.5004C6.41344 15.447 6.41227 15.3916 6.42218 15.3377C6.43209 15.2838 6.45289 15.2325 6.48329 15.1869C6.50329 15.1503 7.01995 14.2769 8.05995 12.8736C9.46124 10.9928 10.9904 9.21084 12.6366 7.54026L12.91 7.26359C15.4786 4.69722 18.2895 2.38534 21.3033 0.360259C21.3807 0.310361 21.4728 0.288442 21.5644 0.298144C21.6559 0.307846 21.7414 0.348585 21.8066 0.413592L23.7666 2.37359C23.8314 2.43826 23.872 2.52317 23.8817 2.61416C23.8914 2.70515 23.8696 2.79672 23.82 2.87359C21.7943 5.88989 19.4801 8.70202 16.91 11.2703L16.6666 11.5103C12.5233 15.6003 9.13329 17.6136 8.99995 17.6969C8.93705 17.7361 8.864 17.7558 8.78995 17.7536Z" fill="#4E2583"/>
</svg>
