<svg width="24" height="24" viewBox="0 0 24 24" fill="none" xmlns="http://www.w3.org/2000/svg">
<path d="M23.3332 23.667C23.2968 23.6731 23.2596 23.6731 23.2232 23.667L16.3699 21.667C16.3039 21.6487 16.2441 21.613 16.1965 21.5637L1.09655 6.48036C0.656866 6.03709 0.410156 5.43804 0.410156 4.81369C0.410156 4.18935 0.656866 3.5903 1.09655 3.14703L3.22321 1.00036C3.67296 0.573155 4.26958 0.334961 4.88988 0.334961C5.51018 0.334961 6.1068 0.573155 6.55655 1.00036L21.6665 16.1104C21.7147 16.1588 21.7502 16.2183 21.7699 16.2837L23.7265 23.1404C23.7467 23.2097 23.7477 23.2831 23.7296 23.3529C23.7114 23.4228 23.6746 23.4864 23.6232 23.537C23.5475 23.617 23.4433 23.6637 23.3332 23.667ZM16.6899 20.9337L22.7499 22.667L21.0199 16.607L5.99988 1.58369C5.70389 1.3001 5.3098 1.14178 4.89988 1.14178C4.48995 1.14178 4.09587 1.3001 3.79988 1.58369L1.66655 3.71036C1.37587 4.00266 1.21271 4.39813 1.21271 4.81036C1.21271 5.22259 1.37587 5.61806 1.66655 5.91036L16.6899 20.9337Z" fill="#4E2583"/>
<path d="M16.4799 21.697C16.427 21.6973 16.3746 21.6868 16.3259 21.6662C16.2772 21.6455 16.2332 21.6152 16.1965 21.577L1.09655 6.48036C0.656866 6.03709 0.410156 5.43804 0.410156 4.81369C0.410156 4.18935 0.656866 3.5903 1.09655 3.14703L3.22321 1.00036C3.67296 0.573155 4.26958 0.334961 4.88988 0.334961C5.51018 0.334961 6.1068 0.573155 6.55655 1.00036L21.6665 16.1104C21.7242 16.1889 21.7516 16.2856 21.7435 16.3827C21.7354 16.4798 21.6924 16.5707 21.6225 16.6386C21.5526 16.7064 21.4605 16.7467 21.3632 16.7519C21.2659 16.7572 21.17 16.727 21.0932 16.667L5.99988 1.58369C5.70389 1.3001 5.3098 1.14178 4.89988 1.14178C4.48995 1.14178 4.09587 1.3001 3.79988 1.58369L1.66655 3.71036C1.37587 4.00266 1.21271 4.39813 1.21271 4.81036C1.21271 5.22259 1.37587 5.61806 1.66655 5.91036L16.7665 21.0004C16.8219 21.0574 16.8594 21.1294 16.8743 21.2075C16.8892 21.2856 16.8809 21.3663 16.8504 21.4397C16.8199 21.5132 16.7685 21.576 16.7027 21.6206C16.6368 21.6651 16.5594 21.6894 16.4799 21.6904V21.697Z" fill="#4E2583"/>
<path d="M16.4798 21.6966C16.4269 21.6968 16.3745 21.6863 16.3258 21.6657C16.2771 21.6451 16.2331 21.6148 16.1965 21.5766C16.1587 21.5394 16.1287 21.495 16.1082 21.4461C16.0877 21.3971 16.0771 21.3446 16.0771 21.2916C16.0771 21.2385 16.0877 21.186 16.1082 21.1371C16.1287 21.0882 16.1587 21.0438 16.1965 21.0066L21.0931 16.1099C21.1699 16.0499 21.2658 16.0198 21.3631 16.025C21.4604 16.0302 21.5525 16.0705 21.6224 16.1384C21.6923 16.2062 21.7353 16.2971 21.7434 16.3942C21.7515 16.4913 21.7242 16.5881 21.6665 16.6666L16.7665 21.5766C16.729 21.6145 16.6844 21.6447 16.6352 21.6653C16.586 21.6859 16.5332 21.6965 16.4798 21.6966Z" fill="#4E2583"/>
<path d="M17.4603 17.7772C17.3532 17.7769 17.2505 17.7351 17.1736 17.6605L3.46362 3.94719C3.39264 3.87069 3.35407 3.76966 3.35603 3.66532C3.35798 3.56098 3.4003 3.46146 3.47409 3.38766C3.54788 3.31387 3.6474 3.27155 3.75174 3.2696C3.85608 3.26765 3.95712 3.30621 4.03362 3.37719L17.7436 17.0905C17.7993 17.1469 17.8371 17.2184 17.8524 17.2962C17.8676 17.374 17.8596 17.4545 17.8294 17.5277C17.7992 17.601 17.7481 17.6637 17.6824 17.708C17.6168 17.7524 17.5395 17.7765 17.4603 17.7772Z" fill="#4E2583"/>
<path d="M0.809956 23.6667C0.759983 23.6609 0.711446 23.6462 0.666622 23.6233C0.593246 23.5924 0.530666 23.5404 0.48677 23.474C0.442874 23.4076 0.419626 23.3296 0.419956 23.25C0.406622 18.8633 4.33329 15 6.68662 15C6.73949 14.9999 6.79183 15.0105 6.84051 15.0311C6.88919 15.0518 6.93322 15.082 6.96996 15.12L8.92996 17.08C8.96752 17.1169 8.99723 17.161 9.01728 17.2097C9.03733 17.2584 9.04731 17.3107 9.04662 17.3633C9.04662 19.8133 7.88329 21.3467 5.76662 21.68L5.14996 21.7733C3.46329 22.0233 2.44662 22.1733 1.09329 23.5267C1.05805 23.568 1.01475 23.6018 0.966035 23.6258C0.917322 23.6499 0.864215 23.6638 0.809956 23.6667ZM6.52662 15.8267C4.78996 15.9933 1.75996 18.78 1.27662 22.2967C2.49329 21.36 3.60996 21.1967 5.02996 20.9867L5.64329 20.8933C7.30996 20.63 8.19329 19.5033 8.23996 17.54L6.52662 15.8267Z" fill="#4E2583"/>
<path d="M6.68672 15.8167C6.61441 15.8169 6.54326 15.7986 6.48005 15.7634C6.38761 15.7091 6.32034 15.6205 6.29287 15.5169C6.26541 15.4133 6.27997 15.303 6.33339 15.2101C6.35672 15.1734 6.87339 14.3001 7.91339 12.8967C7.97939 12.8177 8.07313 12.7669 8.17539 12.7548C8.27764 12.7426 8.38067 12.77 8.46335 12.8314C8.54604 12.8928 8.60211 12.9835 8.62009 13.0849C8.63807 13.1863 8.61659 13.2907 8.56005 13.3767C7.56005 14.7434 7.03339 15.6101 7.03005 15.6201C6.99454 15.6796 6.9443 15.729 6.88416 15.7634C6.82402 15.7979 6.75602 15.8162 6.68672 15.8167Z" fill="#4E2583"/>
<path d="M16.2402 11.6664C16.1603 11.6663 16.0822 11.6425 16.0158 11.598C15.9495 11.5534 15.8978 11.4902 15.8675 11.4163C15.8371 11.3423 15.8294 11.2611 15.8453 11.1827C15.8612 11.1044 15.9001 11.0326 15.9569 10.9764L16.1969 10.7397C18.6445 8.28109 20.8616 5.60321 22.8202 2.73972L21.3335 1.23972C18.4702 3.1986 15.7924 5.41564 13.3335 7.86306L13.1502 8.04972C13.1135 8.08967 13.0692 8.12181 13.0198 8.14423C12.9704 8.16665 12.9171 8.17889 12.8629 8.18021C12.8086 8.18153 12.7547 8.1719 12.7043 8.15191C12.6539 8.13192 12.6081 8.10197 12.5695 8.06386C12.5309 8.02574 12.5005 7.98024 12.4799 7.93008C12.4593 7.87991 12.4491 7.82611 12.4497 7.7719C12.4504 7.71768 12.462 7.66416 12.4839 7.61453C12.5057 7.5649 12.5373 7.52019 12.5769 7.48306L12.7635 7.29306C15.3329 4.7242 18.1449 2.41007 21.1602 0.383056C21.2379 0.332296 21.3307 0.309884 21.423 0.3196C21.5153 0.329315 21.6014 0.370564 21.6669 0.43639L23.6235 2.39639C23.6864 2.46311 23.725 2.54914 23.7328 2.64051C23.7407 2.73188 23.7174 2.82323 23.6669 2.89972C21.6415 5.91245 19.3309 8.7232 16.7669 11.2931L16.5235 11.5331C16.4877 11.5732 16.4441 11.6057 16.3954 11.6286C16.3468 11.6515 16.294 11.6644 16.2402 11.6664Z" fill="#4E2583"/>
<path d="M8.64652 17.7761C8.55814 17.7762 8.47216 17.7473 8.40181 17.6938C8.33147 17.6403 8.28065 17.5651 8.25717 17.4799C8.23369 17.3947 8.23885 17.3041 8.27185 17.2221C8.30486 17.1401 8.36389 17.0713 8.43985 17.0261C8.43985 17.0261 9.33319 16.4961 10.7199 15.4661C10.8083 15.4024 10.9183 15.3765 11.0259 15.394C11.1334 15.4115 11.2295 15.471 11.2932 15.5594C11.3568 15.6478 11.3828 15.7579 11.3653 15.8654C11.3478 15.9729 11.2883 16.0691 11.1999 16.1328C9.77652 17.1894 8.88652 17.7161 8.86652 17.7361C8.7986 17.7704 8.72218 17.7843 8.64652 17.7761Z" fill="#4E2583"/>
</svg>
