<svg width="24" height="24" viewBox="0 0 24 24" fill="none" xmlns="http://www.w3.org/2000/svg">
<g clip-path="url(#clip0)">
<path d="M7.50776 18.3364C7.34714 17.7356 6.9605 17.2202 6.42867 16.8978C5.89685 16.5755 5.26101 16.4712 4.65409 16.6068C4.04717 16.7424 3.51616 17.1074 3.17207 17.6254C2.82797 18.1434 2.69744 18.7743 2.80776 19.3864C2.95469 20.007 3.33877 20.5454 3.87776 20.8864C4.25896 21.1336 4.70341 21.2656 5.15776 21.2664C5.33682 21.2677 5.5152 21.2442 5.68776 21.1964C6.30797 21.0577 6.84788 20.6788 7.18907 20.1426C7.53026 19.6065 7.64487 18.9569 7.50776 18.3364ZM6.58776 19.7564C6.46999 19.9447 6.3154 20.1073 6.13325 20.2345C5.95111 20.3617 5.74516 20.4507 5.52776 20.4964C5.09281 20.5932 4.63721 20.5132 4.2612 20.2741C3.88519 20.035 3.61957 19.6563 3.52276 19.2214C3.42596 18.7864 3.50591 18.3308 3.74502 17.9548C3.98412 17.5788 4.36281 17.3132 4.79776 17.2164C4.91736 17.2025 5.03817 17.2025 5.15776 17.2164C5.45983 17.2164 5.75636 17.2975 6.01648 17.451C6.27661 17.6046 6.49082 17.8251 6.63682 18.0895C6.78282 18.3539 6.85528 18.6527 6.84666 18.9546C6.83803 19.2566 6.74863 19.5507 6.58776 19.8064V19.7564Z" fill="#4E2583"/>
<path d="M9.99765 17.0764C9.97888 16.9984 9.93587 16.9283 9.87479 16.8762C9.8137 16.8241 9.73769 16.7926 9.65765 16.7864H8.44765L8.20765 16.4564L8.61765 15.3064C8.64895 15.2298 8.65205 15.1445 8.62642 15.0658C8.60079 14.987 8.54808 14.92 8.47765 14.8764L7.33765 14.1464C7.26511 14.1042 7.18065 14.0872 7.09743 14.0981C7.01422 14.1089 6.93694 14.147 6.87765 14.2064L5.99765 15.0864C5.87378 15.0457 5.74665 15.0155 5.61765 14.9964L5.10765 13.8964C5.0699 13.8239 5.0092 13.7659 4.93503 13.7316C4.86085 13.6972 4.77738 13.6883 4.69765 13.7064L3.35765 13.9964C3.29106 14.0215 3.23402 14.0668 3.19455 14.126C3.15508 14.1852 3.13518 14.2553 3.13765 14.3264V15.5564C3.01628 15.6244 2.90233 15.7048 2.79765 15.7964L1.65765 15.3664C1.57687 15.3419 1.49031 15.3442 1.41097 15.3731C1.33163 15.4019 1.26379 15.4557 1.21765 15.5264L0.467651 16.6864C0.423225 16.7558 0.403952 16.8384 0.413052 16.9203C0.422152 17.0022 0.459074 17.0785 0.517651 17.1364L1.38765 17.9964C1.3512 18.1271 1.32775 18.2611 1.31765 18.3964L0.207651 18.9164C0.134096 18.9508 0.0743128 19.009 0.0380066 19.0816C0.00170045 19.1542 -0.00899683 19.237 0.00765146 19.3164L0.297651 20.6364C0.315817 20.7185 0.361359 20.7919 0.426788 20.8446C0.492216 20.8973 0.573635 20.9261 0.657651 20.9264H1.87765L2.10765 21.2664L1.69765 22.3964C1.66833 22.4733 1.66624 22.5579 1.69171 22.6361C1.71718 22.7144 1.76869 22.7815 1.83765 22.8264L2.99765 23.5464C3.06728 23.5955 3.15241 23.6175 3.23709 23.6083C3.32177 23.5991 3.40019 23.5593 3.45765 23.4964L4.30765 22.6364L4.71765 22.7064L5.22765 23.8064C5.25585 23.868 5.30083 23.9203 5.35743 23.9575C5.41403 23.9946 5.47996 24.015 5.54765 24.0164H5.63765L6.99765 23.7164C7.07783 23.6963 7.14897 23.6499 7.19971 23.5847C7.25046 23.5194 7.2779 23.4391 7.27765 23.3564V22.1364C7.38765 22.0664 7.48765 21.9864 7.60765 21.8964L8.74765 22.3264C8.82738 22.352 8.9132 22.3512 8.99244 22.3241C9.07168 22.2971 9.14012 22.2453 9.18765 22.1764L9.84765 20.9964C9.90056 20.9334 9.92956 20.8537 9.92956 20.7714C9.92956 20.6891 9.90056 20.6095 9.84765 20.5464L8.97765 19.6964C8.97765 19.5664 9.02765 19.4364 9.04765 19.2864L10.1577 18.7664C10.2319 18.7334 10.2918 18.675 10.3267 18.6016C10.3616 18.5282 10.369 18.4448 10.3477 18.3664L9.99765 17.0764ZM8.52765 18.7464C8.46834 18.7734 8.41695 18.8151 8.37843 18.8677C8.3399 18.9202 8.31553 18.9818 8.30765 19.0464C8.29964 19.2834 8.2627 19.5184 8.19765 19.7464C8.17781 19.8057 8.17576 19.8695 8.19175 19.9299C8.20775 19.9903 8.24108 20.0447 8.28765 20.0864L9.08765 20.8964L8.67765 21.5464L7.61765 21.1564C7.55688 21.1348 7.4914 21.1298 7.42807 21.1421C7.36474 21.1545 7.30588 21.1836 7.25765 21.2264C7.07598 21.3759 6.88195 21.5097 6.67765 21.6264C6.62478 21.6606 6.58025 21.7061 6.54737 21.7598C6.51448 21.8135 6.49407 21.8738 6.48765 21.9364V23.0764L5.73765 23.2464L5.25765 22.2464C5.24213 22.1846 5.20951 22.1283 5.16354 22.0841C5.11756 22.0399 5.06008 22.0095 4.99765 21.9964C4.76764 21.9785 4.53991 21.9383 4.31765 21.8764H4.21765C4.12127 21.8746 4.02798 21.9105 3.95765 21.9764L3.16765 22.7864L2.51765 22.3564L2.90765 21.2964C2.9122 21.2414 2.90471 21.1861 2.88572 21.1343C2.86672 21.0825 2.83667 21.0354 2.79765 20.9964C2.63807 20.8263 2.5034 20.6344 2.39765 20.4264C2.36622 20.3697 2.31965 20.3229 2.26315 20.2911C2.20665 20.2593 2.14243 20.2438 2.07765 20.2464H0.997651L0.827651 19.4964L1.82765 19.0264C1.88291 18.9846 1.92722 18.93 1.95682 18.8673C1.98642 18.8046 2.00043 18.7357 1.99765 18.6664C2.00405 18.4333 2.03761 18.2018 2.09765 17.9764C2.11443 17.9129 2.114 17.8461 2.09643 17.7829C2.07886 17.7196 2.04476 17.6622 1.99765 17.6164L1.18765 16.8264L1.60765 16.1764L2.66765 16.5564C2.72544 16.5855 2.79128 16.5943 2.8547 16.5816C2.91811 16.569 2.97547 16.5354 3.01765 16.4864C3.20202 16.3358 3.39947 16.2019 3.60765 16.0864C3.66291 16.0534 3.70857 16.0064 3.74014 15.9503C3.77171 15.8942 3.78809 15.8308 3.78765 15.7664V14.6364L4.53765 14.4664L5.01765 15.4664C5.04413 15.5272 5.08733 15.5792 5.14221 15.6164C5.19709 15.6535 5.2614 15.6744 5.32765 15.6764C5.56137 15.6838 5.79322 15.7208 6.01765 15.7864C6.07827 15.8084 6.14412 15.8116 6.20657 15.7956C6.26903 15.7795 6.32517 15.7449 6.36765 15.6964L7.16765 14.8964L7.80765 15.3164L7.41765 16.3764C7.397 16.4364 7.39355 16.501 7.40769 16.5628C7.42183 16.6247 7.45299 16.6814 7.49765 16.7264C7.65337 16.9069 7.7876 17.1049 7.89765 17.3164C7.93432 17.3706 7.9834 17.4152 8.04081 17.4465C8.09821 17.4778 8.16228 17.4949 8.22765 17.4964H9.37765L9.54765 18.2364L8.52765 18.7464Z" fill="#4E2583"/>
<path d="M19.1177 7.82617C18.9061 6.97208 18.4153 6.2131 17.7233 5.66963C17.0313 5.12615 16.1776 4.8293 15.2977 4.82617C15.0116 4.82983 14.7268 4.86335 14.4477 4.92617C13.9425 5.0328 13.4634 5.23869 13.0384 5.53189C12.6134 5.8251 12.2508 6.19979 11.9717 6.63423C11.6927 7.06866 11.5026 7.55419 11.4127 8.06264C11.3227 8.5711 11.3346 9.09235 11.4477 9.59617C11.6525 10.452 12.14 11.2138 12.8314 11.7582C13.5228 12.3026 14.3777 12.5978 15.2577 12.5962C15.5461 12.5944 15.8339 12.5676 16.1177 12.5162C16.6231 12.406 17.1017 12.1972 17.5262 11.9017C17.9507 11.6061 18.3127 11.2297 18.5914 10.794C18.8701 10.3583 19.0601 9.87184 19.1504 9.36255C19.2407 8.85326 19.2296 8.33116 19.1177 7.82617ZM18.4877 8.69617C18.4829 9.47867 18.1906 10.2321 17.6665 10.8132C17.1423 11.3942 16.4229 11.7624 15.6451 11.8475C14.8672 11.9327 14.0851 11.7291 13.4477 11.2752C12.8102 10.8214 12.3618 10.1491 12.1877 9.38617C12.0951 8.9799 12.0845 8.55922 12.1567 8.14881C12.2288 7.73841 12.3821 7.34653 12.6077 6.99617C12.8314 6.64072 13.1234 6.3331 13.4666 6.09109C13.8099 5.84908 14.1977 5.67747 14.6077 5.58617C14.8367 5.53003 15.0719 5.50315 15.3077 5.50617C15.9059 5.5073 16.4917 5.67713 16.9977 5.99617C17.7073 6.4548 18.2096 7.17247 18.3977 7.99617C18.4561 8.22497 18.4863 8.46004 18.4877 8.69617Z" fill="#4E2583"/>
<path d="M23.4777 5.65633C23.4596 5.57697 23.4152 5.50607 23.3516 5.45522C23.288 5.40437 23.2091 5.37656 23.1277 5.37633H20.8577C20.6908 5.08764 20.5002 4.81335 20.2877 4.55633L21.0677 2.43633C21.1009 2.35735 21.104 2.26893 21.0763 2.18783C21.0487 2.10674 20.9922 2.0386 20.9177 1.99633L18.9177 0.736334C18.8547 0.683429 18.775 0.654429 18.6927 0.654429C18.6104 0.654429 18.5308 0.683429 18.4677 0.736334L16.8977 2.42633C16.5692 2.34448 16.2349 2.28765 15.8977 2.25633L14.9977 0.206334C14.962 0.133917 14.9036 0.0751729 14.8314 0.0390624C14.7591 0.00295179 14.6771 -0.00854218 14.5977 0.00633396L12.1977 0.536334C12.1349 0.564591 12.0821 0.61128 12.0464 0.670213C12.0107 0.729146 11.9937 0.797541 11.9977 0.866334V3.13633C11.7146 3.30697 11.4439 3.49745 11.1877 3.70633L9.05772 2.92633C8.98038 2.9021 8.89742 2.90256 8.82036 2.92765C8.74329 2.95274 8.67596 3.00121 8.62772 3.06633L7.36772 5.06633C7.32453 5.13683 7.30692 5.22004 7.31785 5.30198C7.32877 5.38393 7.36757 5.45962 7.42772 5.51633L8.99772 7.09633C8.91912 7.42513 8.86563 7.75943 8.83772 8.09633L6.79772 8.99633C6.72601 9.0323 6.66836 9.0912 6.63394 9.16366C6.59952 9.23613 6.59029 9.31802 6.60772 9.39633L7.11772 11.6963C7.13581 11.7757 7.18026 11.8466 7.24383 11.8974C7.30739 11.9483 7.38632 11.9761 7.46772 11.9763H9.73772C9.90836 12.2595 10.0988 12.5301 10.3077 12.7863L9.52772 14.9163C9.49771 14.9947 9.49522 15.0809 9.52066 15.1609C9.5461 15.2408 9.59796 15.3097 9.66772 15.3563L11.6677 16.6063C11.7356 16.65 11.8164 16.6689 11.8966 16.6598C11.9768 16.6507 12.0514 16.6141 12.1077 16.5563L13.7077 14.9963C14.0368 15.0758 14.3709 15.1326 14.7077 15.1663L15.7077 17.2363C15.7399 17.2961 15.7874 17.3462 15.8454 17.3813C15.9035 17.4165 15.9699 17.4355 16.0377 17.4363H16.1177L18.4177 16.9163C18.4944 16.8983 18.5628 16.855 18.6118 16.7933C18.6608 16.7316 18.6876 16.6551 18.6877 16.5763V14.2563C18.97 14.0807 19.2406 13.887 19.4977 13.6763L21.6277 14.4663C21.7045 14.4904 21.7871 14.4888 21.8629 14.4617C21.9387 14.4347 22.0036 14.3836 22.0477 14.3163L23.3177 12.3163C23.3642 12.2505 23.3892 12.1719 23.3892 12.0913C23.3892 12.0108 23.3642 11.9322 23.3177 11.8663L21.6977 10.2763C21.7791 9.94767 21.8359 9.61342 21.8677 9.27633L23.9177 8.27633C23.951 8.2385 23.9754 8.19376 23.9892 8.14533C24.003 8.09691 24.006 8.04602 23.9977 7.99633L23.4777 5.65633ZM21.0477 9.04633C21.0209 9.4724 20.9505 9.89459 20.8377 10.3063C20.8212 10.3684 20.8198 10.4334 20.8338 10.4961C20.8477 10.5588 20.8765 10.6171 20.9177 10.6663L22.4677 12.1763L21.5177 13.6863L19.4677 12.9363C19.4099 12.9174 19.3481 12.9139 19.2884 12.9262C19.2288 12.9385 19.1734 12.9661 19.1277 13.0063C18.8009 13.2889 18.4456 13.5369 18.0677 13.7463C18.0137 13.7774 17.9692 13.8228 17.9393 13.8775C17.9093 13.9322 17.8949 13.994 17.8977 14.0563V16.2363L16.1677 16.6263L15.2477 14.6263C15.2211 14.5677 15.1792 14.5173 15.1264 14.4803C15.0736 14.4434 15.0119 14.4213 14.9477 14.4163C14.5212 14.3936 14.0986 14.3232 13.6877 14.2063H13.5977C13.4971 14.2077 13.4007 14.247 13.3277 14.3163L11.8177 15.8663L10.3177 14.8663L11.0577 12.8663C11.0785 12.8071 11.083 12.7433 11.0707 12.6817C11.0584 12.6202 11.0297 12.563 10.9877 12.5163C10.7142 12.2061 10.4699 11.8714 10.2577 11.5163C10.2252 11.4599 10.1786 11.4128 10.1226 11.3795C10.0665 11.3462 10.0029 11.3279 9.93772 11.3263H7.75772L7.37772 9.56633L9.37772 8.64633C9.43651 8.61719 9.48675 8.57332 9.52355 8.51899C9.56035 8.46467 9.58246 8.40174 9.58772 8.33633C9.61268 7.91006 9.68308 7.48766 9.79772 7.07633C9.81533 7.01762 9.8172 6.95531 9.80316 6.89564C9.78912 6.83597 9.75966 6.78104 9.71772 6.73633L8.13772 5.20633L9.08772 3.69633L11.0877 4.44633C11.1459 4.46956 11.2094 4.47625 11.2712 4.46566C11.3329 4.45507 11.3906 4.42762 11.4377 4.38633C11.7456 4.10697 12.0806 3.85907 12.4377 3.64633C12.4947 3.61702 12.5426 3.57261 12.5761 3.51794C12.6096 3.46327 12.6275 3.40045 12.6277 3.33633V1.15633L14.4277 0.766334L15.3577 2.76633C15.3814 2.82705 15.4225 2.87939 15.4759 2.91676C15.5293 2.95414 15.5926 2.97486 15.6577 2.97633C16.087 3.00982 16.5122 3.08348 16.9277 3.19633C16.9866 3.2106 17.0483 3.20885 17.1063 3.19127C17.1644 3.17369 17.2166 3.14091 17.2577 3.09633L18.7877 1.55633L20.2977 2.55633L19.5477 4.55633C19.5241 4.61846 19.5181 4.68591 19.5305 4.75122C19.5428 4.81652 19.573 4.87713 19.6177 4.92633C19.8984 5.23074 20.1433 5.56626 20.3477 5.92633C20.3751 5.97992 20.4165 6.02501 20.4676 6.05674C20.5188 6.08846 20.5776 6.10561 20.6377 6.10633H22.8477L23.2377 7.83633L21.2377 8.75633C21.1836 8.78401 21.1376 8.8253 21.1043 8.87616C21.071 8.92701 21.0515 8.98566 21.0477 9.04633Z" fill="#4E2583"/>
</g>
<defs>
<clipPath id="clip0">
<rect width="24" height="24" fill="white"/>
</clipPath>
</defs>
</svg>
