<svg width="24" height="24" viewBox="0 0 24 24" fill="none" xmlns="http://www.w3.org/2000/svg">
<g clip-path="url(#clip0)">
<path d="M22.9902 20.87C22.7502 21.11 22.4902 21.34 22.2402 21.55C22.2402 21.53 22.2302 21.52 22.2302 21.5C22.2202 21.41 22.1902 21.32 22.1602 21.23C22.1502 21.2 22.1402 21.18 22.1402 21.15C22.1002 21.04 22.0602 20.94 22.0002 20.83C21.9902 20.81 21.9802 20.79 21.9702 20.77C21.9202 20.68 21.8702 20.59 21.8102 20.5C21.7902 20.47 21.7802 20.45 21.7602 20.42C21.6902 20.32 21.6202 20.21 21.5402 20.11C21.5302 20.1 21.5202 20.08 21.5002 20.07C21.4302 19.98 21.3602 19.89 21.2802 19.8C21.2602 19.77 21.2402 19.75 21.2102 19.72C21.1302 19.62 21.0402 19.53 20.9502 19.43C20.9402 19.42 20.9302 19.41 20.9202 19.4C20.8302 19.31 20.7502 19.22 20.6702 19.14C20.6402 19.11 20.6202 19.09 20.6002 19.06C20.5202 18.97 20.4302 18.89 20.3502 18.81C20.2702 18.73 20.1902 18.65 20.1102 18.57C20.0902 18.55 20.0702 18.53 20.0502 18.52C19.9802 18.45 19.9002 18.38 19.8302 18.31L19.8002 18.28C19.7102 18.2 19.6302 18.12 19.5402 18.04L19.5302 18.03C19.4502 17.96 19.3602 17.88 19.2802 17.82C19.2702 17.81 19.2602 17.8 19.2502 17.8C19.0802 17.66 18.9002 17.53 18.7302 17.41C18.7202 17.41 18.7202 17.4 18.7102 17.4C18.6302 17.35 18.5502 17.3 18.4602 17.25C18.4502 17.25 18.4502 17.24 18.4402 17.24C18.3502 17.19 18.2602 17.15 18.1802 17.11C18.3602 16.96 18.5502 16.79 18.7302 16.62C19.3402 16.01 20.0502 16.33 21.6602 17.94C23.2702 19.55 23.6002 20.26 22.9902 20.87ZM6.93018 17.07C1.03018 11.17 -0.639817 6.41996 1.85018 2.57996C1.86018 2.56996 1.87018 2.56996 1.89018 2.55996C1.91018 2.54996 1.93018 2.53996 1.96018 2.52996C1.98018 2.51996 2.00018 2.51996 2.02018 2.50996C2.04018 2.50996 2.07018 2.49996 2.09018 2.49996C2.11018 2.49996 2.13018 2.49996 2.15018 2.48996C2.17018 2.48996 2.20018 2.48996 2.23018 2.48996C2.25018 2.48996 2.27018 2.48996 2.29018 2.48996C2.32018 2.48996 2.34018 2.49996 2.37018 2.49996C2.39018 2.49996 2.41018 2.50996 2.43018 2.50996C2.46018 2.51996 2.49018 2.51996 2.52018 2.52996C2.54018 2.53996 2.56018 2.53996 2.58018 2.54996C2.61018 2.55996 2.65018 2.56996 2.68018 2.58996C2.70018 2.59996 2.72018 2.59996 2.74018 2.60996C2.78018 2.62996 2.81018 2.63996 2.85018 2.65996C2.86018 2.66996 2.88018 2.67996 2.90018 2.68996C2.94018 2.70996 2.98018 2.72996 3.01018 2.75996C3.03018 2.76996 3.05018 2.77996 3.06018 2.78996C3.10018 2.81996 3.14018 2.83996 3.18018 2.86996C3.21018 2.88996 3.23018 2.89996 3.25018 2.90996C3.29018 2.93996 3.34018 2.96996 3.38018 3.00996C3.40018 3.01996 3.41018 3.03996 3.43018 3.04996C3.48018 3.08996 3.52018 3.11996 3.57018 3.15996C3.59018 3.17996 3.60018 3.18996 3.62018 3.19996C3.67018 3.23996 3.72018 3.27996 3.77018 3.32996C3.79018 3.34996 3.80018 3.35996 3.82018 3.36996C3.87018 3.41996 3.93018 3.46996 3.98018 3.51996C4.00018 3.52996 4.01018 3.54996 4.03018 3.56996C4.09018 3.61996 4.14018 3.66996 4.20018 3.71996C4.22018 3.73996 4.24018 3.75996 4.25018 3.76996C4.30018 3.82996 4.36018 3.87996 4.42018 3.93996C4.50018 4.00996 4.57018 4.08996 4.65018 4.16996C4.74018 4.25996 4.83018 4.34996 4.91018 4.43996C4.93018 4.45996 4.94018 4.47996 4.96018 4.48996C5.00018 4.50996 5.02018 4.53996 5.05018 4.57996C5.08018 4.59996 5.10018 4.61996 5.12018 4.64996C5.15018 4.67996 5.18018 4.70996 5.21018 4.73996C5.23018 4.75996 5.25018 4.78996 5.27018 4.80996C5.30018 4.83996 5.33018 4.86996 5.36018 4.90996C5.38018 4.92996 5.40018 4.94996 5.42018 4.97996C5.45018 5.00996 5.48018 5.03996 5.50018 5.06996C5.52018 5.08996 5.54018 5.11996 5.56018 5.14996C5.59018 5.16996 5.62018 5.19996 5.64018 5.22996C5.66018 5.24996 5.68018 5.27996 5.70018 5.30996C5.72018 5.33996 5.74018 5.35996 5.76018 5.38996C5.78018 5.41996 5.80018 5.43996 5.82018 5.46996C5.85018 5.49996 5.87018 5.51996 5.89018 5.54996C5.91018 5.57996 5.93018 5.59996 5.95018 5.62996C5.96018 5.65996 5.98018 5.67996 6.00018 5.70996C6.02018 5.73996 6.04018 5.75996 6.05018 5.78996C6.07018 5.80996 6.08018 5.83996 6.09018 5.86996C6.11018 5.89996 6.12018 5.91996 6.14018 5.94996C6.15018 5.96996 6.16018 5.99996 6.18018 6.01996C6.19018 6.04996 6.20018 6.06996 6.21018 6.09996C6.22018 6.11996 6.23018 6.14996 6.24018 6.16996C6.25018 6.19996 6.26018 6.21996 6.27018 6.24996C6.28018 6.26996 6.28018 6.29996 6.29018 6.31996C6.30018 6.33996 6.31018 6.36996 6.31018 6.38996C6.32018 6.40996 6.32018 6.42996 6.32018 6.45996C6.32018 6.47996 6.33018 6.50996 6.33018 6.52996C6.33018 6.54996 6.33018 6.56996 6.33018 6.58996C6.33018 6.59996 6.33018 6.61996 6.33018 6.62996C4.80018 9.42996 7.28018 11.91 9.68018 14.31C12.0802 16.71 14.5702 19.2 17.3802 17.65C17.3902 17.65 17.4002 17.65 17.4102 17.65C17.4802 17.65 17.5602 17.66 17.6402 17.68C17.6602 17.68 17.6702 17.69 17.6902 17.69C17.7702 17.71 17.8502 17.74 17.9302 17.78C17.9502 17.79 17.9702 17.8 17.9902 17.81C18.0702 17.85 18.1502 17.89 18.2302 17.94C18.2502 17.96 18.2802 17.97 18.3102 17.99C18.3902 18.04 18.4702 18.09 18.5402 18.15C18.5702 18.17 18.6002 18.19 18.6302 18.22C18.7102 18.28 18.7902 18.34 18.8702 18.41C18.9002 18.43 18.9202 18.46 18.9502 18.48C19.0302 18.55 19.1102 18.62 19.1902 18.7C19.2102 18.72 19.2402 18.74 19.2602 18.77C19.3502 18.85 19.4302 18.93 19.5202 19.02C19.5302 19.03 19.5402 19.04 19.5602 19.06C19.6602 19.15 19.7502 19.25 19.8402 19.34C19.9202 19.42 20.0002 19.5 20.0802 19.58C20.0902 19.6 20.1102 19.61 20.1202 19.63C20.1802 19.69 20.2402 19.75 20.3002 19.81C20.3202 19.83 20.3402 19.85 20.3602 19.87C20.4102 19.92 20.4602 19.97 20.5002 20.02C20.5202 20.04 20.5402 20.07 20.5602 20.09C20.6002 20.14 20.6402 20.18 20.6802 20.23C20.7002 20.25 20.7202 20.28 20.7402 20.3C20.7802 20.34 20.8102 20.38 20.8502 20.43C20.8702 20.46 20.8902 20.48 20.9102 20.51C20.9402 20.55 20.9702 20.59 21.0002 20.63C21.0202 20.66 21.0402 20.68 21.0602 20.71C21.0902 20.75 21.1102 20.78 21.1402 20.82C21.1602 20.85 21.1702 20.87 21.1902 20.9C21.2102 20.93 21.2302 20.97 21.2502 21C21.2702 21.03 21.2802 21.05 21.2902 21.08C21.3102 21.11 21.3302 21.14 21.3402 21.17C21.3502 21.19 21.3602 21.22 21.3802 21.25C21.3902 21.28 21.4102 21.31 21.4202 21.34C21.4302 21.36 21.4402 21.39 21.4502 21.41C21.4602 21.44 21.4702 21.47 21.4802 21.49C21.4902 21.51 21.4902 21.54 21.5002 21.56C21.5102 21.59 21.5102 21.61 21.5202 21.64C21.5202 21.66 21.5302 21.68 21.5302 21.71C21.5302 21.74 21.5302 21.76 21.5302 21.79C21.5302 21.81 21.5302 21.83 21.5302 21.86C21.5302 21.88 21.5202 21.91 21.5202 21.93C21.5202 21.95 21.5102 21.97 21.5102 21.99C21.5002 22.01 21.5002 22.04 21.4902 22.06C21.4802 22.08 21.4702 22.1 21.4702 22.12C21.4602 22.13 21.4602 22.15 21.4502 22.16C17.5802 24.63 12.8402 22.97 6.93018 17.07ZM3.13018 1.00996C3.74018 0.399957 4.45018 0.719957 6.06018 2.32996C7.68018 3.94996 8.00018 4.65996 7.39018 5.26996C7.21018 5.44996 7.04018 5.63996 6.89018 5.81996C6.85018 5.73996 6.81018 5.65996 6.77018 5.57996C6.76018 5.55996 6.74018 5.52996 6.73018 5.50996C6.69018 5.44996 6.66018 5.38996 6.62018 5.32996C6.60018 5.30996 6.59018 5.27996 6.58018 5.25996C6.52018 5.17996 6.47018 5.09996 6.41018 5.02996C6.40018 5.00996 6.38018 4.98996 6.37018 4.97996C6.32018 4.90996 6.27018 4.84996 6.21018 4.77996C6.19018 4.74996 6.17018 4.72996 6.15018 4.70996C6.10018 4.63996 6.04018 4.56996 5.98018 4.50996C5.97018 4.48996 5.95018 4.47996 5.94018 4.45996C5.87018 4.37996 5.79018 4.29996 5.72018 4.21996C5.70018 4.19996 5.68018 4.17996 5.66018 4.14996C5.60018 4.08996 5.54018 4.02996 5.47018 3.95996C5.45018 3.93996 5.43018 3.91996 5.41018 3.88996C5.33018 3.80996 5.25018 3.72996 5.17018 3.64996C5.08018 3.56996 5.00018 3.48996 4.91018 3.39996C4.89018 3.37996 4.87018 3.34996 4.84018 3.32996C4.75018 3.23996 4.66018 3.14996 4.57018 3.06996C4.56018 3.06996 4.56018 3.05996 4.56018 3.05996C4.46018 2.96996 4.36018 2.87996 4.27018 2.78996C4.24018 2.76996 4.21018 2.74996 4.19018 2.72996C4.10018 2.64996 4.00018 2.56996 3.91018 2.48996C3.90018 2.47996 3.89018 2.47996 3.88018 2.46996C3.78018 2.38996 3.67018 2.30996 3.56018 2.23996C3.54018 2.22996 3.52018 2.21996 3.50018 2.19996C3.40018 2.13996 3.30018 2.07996 3.20018 2.02996C3.19018 2.01996 3.18018 2.01996 3.17018 2.00996C3.06018 1.94996 2.95018 1.90996 2.84018 1.86996C2.82018 1.85996 2.80018 1.85996 2.77018 1.84996C2.67018 1.81996 2.58018 1.78996 2.48018 1.77996C2.47018 1.77996 2.45018 1.76996 2.44018 1.76996C2.66018 1.50996 2.89018 1.25996 3.13018 1.00996ZM20.2302 15.83C19.4602 15.44 18.7802 15.53 18.2102 16.1C17.8402 16.47 17.4602 16.77 17.0902 16.98C14.8902 18.25 12.9302 16.55 10.1902 13.81C7.45018 11.07 5.75018 9.10996 7.00018 6.92996C7.22018 6.53996 7.52018 6.15996 7.90018 5.77996C9.22018 4.45996 7.63018 2.86996 6.58018 1.81996C5.53018 0.769957 3.94018 -0.820043 2.62018 0.499957C2.11018 1.00996 1.67018 1.54996 1.30018 2.09996C-1.47982 6.28996 0.190183 11.35 6.42018 17.58C10.7102 21.87 14.4502 24 17.7302 24C19.2102 24 20.6002 23.57 21.9002 22.7C22.4602 22.33 23.0002 21.89 23.5002 21.38C24.8202 20.06 23.2302 18.47 22.1802 17.42C21.4402 16.68 20.8302 16.13 20.2302 15.83Z" fill="#4E2583"/>
<path d="M10.75 3.78004C10.75 3.07004 11.33 2.49004 12.04 2.49004H12.64C12.84 2.49004 13 2.33004 13 2.13004V1.08004L14.83 2.42004C14.89 2.47004 14.97 2.49004 15.05 2.49004H18.77C19.48 2.49004 20.06 3.07004 20.06 3.78004V7.55004C20.06 8.26004 19.48 8.84004 18.77 8.84004H12.04C11.33 8.84004 10.75 8.26004 10.75 7.55004V3.78004ZM20.78 7.56004V6.34004C22.26 6.92004 23.28 8.13004 23.28 9.53004C23.28 10.45 22.84 11.32 22.04 11.99C21.97 12.05 21.92 12.14 21.91 12.23L21.74 13.8L20.25 12.99C20.2 12.96 20.14 12.95 20.08 12.95C20.05 12.95 20.03 12.95 20 12.96C19.62 13.04 19.24 13.08 18.85 13.08C16.43 13.08 14.47 11.51 14.43 9.58004H18.76C19.87 9.57004 20.78 8.67004 20.78 7.56004ZM12.03 9.57004H13.7C13.73 11.9 16.03 13.79 18.85 13.79C19.24 13.79 19.64 13.75 20.02 13.68L21.87 14.69C21.92 14.72 21.98 14.73 22.04 14.73C22.1 14.73 22.16 14.72 22.21 14.69C22.32 14.63 22.39 14.53 22.4 14.41L22.61 12.44C23.51 11.65 24 10.61 24 9.52004C24 7.73004 22.66 6.20004 20.78 5.56004V3.78004C20.78 2.67004 19.88 1.77004 18.77 1.77004H15.17L12.86 0.0700363C12.75 -0.00996373 12.6 -0.0199637 12.48 0.0400363C12.36 0.100036 12.28 0.230036 12.28 0.360036V1.77004H12.04C10.93 1.77004 10.02 2.67004 10.02 3.78004V7.55004C10.02 8.67004 10.92 9.57004 12.03 9.57004Z" fill="#4E2583"/>
</g>
<defs>
<clipPath id="clip0">
<rect width="24" height="24" fill="white"/>
</clipPath>
</defs>
</svg>
