<svg width="24" height="24" viewBox="0 0 24 24" fill="none" xmlns="http://www.w3.org/2000/svg">
<path d="M22.3004 22.7899H15.5921V17.7682H22.3004V22.7899ZM8.12667 13.1012V9.13367H14.835V22.7899H8.12667V13.1012ZM0.699583 13.4366H7.40792V22.7803H0.699583V13.4366ZM22.655 17.0782H15.5633V8.77908C15.5633 8.68758 15.527 8.59983 15.4623 8.53513C15.3976 8.47043 15.3098 8.43408 15.2183 8.43408H7.78167C7.73636 8.43408 7.6915 8.44301 7.64964 8.46034C7.60778 8.47768 7.56975 8.50309 7.53771 8.53513C7.50568 8.56717 7.48027 8.6052 7.46293 8.64706C7.44559 8.68891 7.43667 8.73378 7.43667 8.77908V12.7562H0.345C0.2535 12.7562 0.165748 12.7925 0.101048 12.8572C0.0363481 12.9219 2.36899e-08 13.0097 2.36899e-08 13.1012V23.1349C-3.37311e-05 23.2273 0.0360057 23.3161 0.100444 23.3823C0.164883 23.4485 0.25263 23.487 0.345 23.4895H22.655C22.7474 23.487 22.8351 23.4485 22.8996 23.3823C22.964 23.3161 23 23.2273 23 23.1349V17.3849C23 17.2934 22.9637 17.2057 22.899 17.141C22.8343 17.0763 22.7465 17.0399 22.655 17.0399" fill="#4E2583"/>
<path d="M11.4998 9.99658C11.4074 9.99908 11.3197 10.0375 11.2552 10.1038C11.1908 10.17 11.1548 10.2588 11.1548 10.3512V12.0953C11.1548 12.1868 11.1911 12.2746 11.2558 12.3393C11.3205 12.404 11.4083 12.4403 11.4998 12.4403C11.5913 12.4403 11.679 12.404 11.7437 12.3393C11.8084 12.2746 11.8448 12.1868 11.8448 12.0953V10.3512C11.8448 10.2588 11.8088 10.17 11.7443 10.1038C11.6799 10.0375 11.5922 9.99908 11.4998 9.99658Z" fill="#4E2583"/>
<path d="M3.19119 14.3184C3.09882 14.3209 3.01107 14.3593 2.94664 14.4255C2.8822 14.4918 2.84616 14.5805 2.84619 14.6729V16.4171C2.84619 16.5086 2.88254 16.5964 2.94724 16.6611C3.01194 16.7258 3.09969 16.7621 3.19119 16.7621C3.2836 16.7621 3.37236 16.7261 3.43859 16.6617C3.50482 16.5972 3.54328 16.5095 3.54577 16.4171V14.6729C3.54335 14.5797 3.50521 14.4909 3.43924 14.4249C3.37326 14.3589 3.28447 14.3208 3.19119 14.3184Z" fill="#4E2583"/>
<path d="M4.93533 14.3184C4.84296 14.3209 4.75521 14.3593 4.69078 14.4255C4.62634 14.4918 4.5903 14.5805 4.59033 14.6729V16.4171C4.59033 16.5086 4.62668 16.5964 4.69138 16.6611C4.75608 16.7258 4.84383 16.7621 4.93533 16.7621C5.02774 16.7621 5.1165 16.7261 5.18273 16.6617C5.24896 16.5972 5.28742 16.5095 5.28992 16.4171V14.6729C5.28749 14.5797 5.24936 14.4909 5.18338 14.4249C5.1174 14.3589 5.02861 14.3208 4.93533 14.3184Z" fill="#4E2583"/>
<path d="M17.1927 21.104C17.285 21.1015 17.3728 21.0631 17.4372 20.9968C17.5017 20.9306 17.5377 20.8418 17.5377 20.7494V18.9861C17.5377 18.8946 17.5013 18.8069 17.4366 18.7422C17.3719 18.6775 17.2842 18.6411 17.1927 18.6411C17.1012 18.6411 17.0134 18.6775 16.9487 18.7422C16.884 18.8069 16.8477 18.8946 16.8477 18.9861V20.7303C16.8476 20.8227 16.8837 20.9115 16.9481 20.9777C17.0125 21.0439 17.1003 21.0824 17.1927 21.0849" fill="#4E2583"/>
<path d="M18.9368 21.104C19.0292 21.1015 19.1169 21.0631 19.1814 20.9968C19.2458 20.9306 19.2818 20.8418 19.2818 20.7494V18.9861C19.2818 18.8946 19.2454 18.8069 19.1807 18.7422C19.116 18.6775 19.0283 18.6411 18.9368 18.6411C18.8453 18.6411 18.7575 18.6775 18.6928 18.7422C18.6281 18.8069 18.5918 18.8946 18.5918 18.9861V20.7303C18.5918 20.8227 18.6278 20.9115 18.6922 20.9777C18.7567 21.0439 18.8444 21.0824 18.9368 21.0849" fill="#4E2583"/>
<path d="M20.6808 21.104C20.7731 21.1015 20.8609 21.0631 20.9253 20.9968C20.9897 20.9306 21.0258 20.8418 21.0258 20.7494V18.9861C21.0258 18.8946 20.9894 18.8069 20.9247 18.7422C20.86 18.6775 20.7723 18.6411 20.6808 18.6411C20.5884 18.6411 20.4996 18.6771 20.4334 18.7416C20.3671 18.806 20.3287 18.8937 20.3262 18.9861V20.7303C20.3286 20.8236 20.3667 20.9123 20.4327 20.9783C20.4987 21.0443 20.5875 21.0824 20.6808 21.0849" fill="#4E2583"/>
<path d="M10.762 4.23701C10.8172 4.22775 10.8694 4.20556 10.9144 4.17225C10.9593 4.13893 10.9958 4.09545 11.0207 4.04535L11.4999 3.08701L11.9791 4.04535C12.0049 4.09664 12.0429 4.14088 12.0896 4.17427C12.1363 4.20766 12.1905 4.22919 12.2474 4.23701L13.3207 4.39035L12.5349 5.14743C12.4963 5.18966 12.4677 5.23998 12.4512 5.2947C12.4346 5.34942 12.4304 5.40716 12.4391 5.46368L12.6211 6.52743L11.6628 6.01951C11.6118 5.99558 11.5562 5.98317 11.4999 5.98317C11.4436 5.98317 11.388 5.99558 11.337 6.01951L10.3786 6.52743L10.5416 5.46368C10.5502 5.40716 10.5461 5.34942 10.5295 5.2947C10.5129 5.23998 10.4843 5.18966 10.4457 5.14743L9.66948 4.39035L10.762 4.23701ZM9.80364 5.52118L9.58323 7.10243C9.5705 7.16674 9.57636 7.23335 9.60012 7.29445C9.62388 7.35555 9.66456 7.40861 9.7174 7.44743C9.7784 7.49233 9.85249 7.5159 9.92823 7.51451C9.98225 7.52238 10.0371 7.52238 10.0911 7.51451L11.4999 6.72868L12.9278 7.47618C12.9828 7.50911 13.0458 7.5265 13.1099 7.5265C13.174 7.5265 13.237 7.50911 13.292 7.47618C13.3484 7.43405 13.3906 7.37565 13.4129 7.30884C13.4351 7.24203 13.4364 7.17 13.4166 7.10243L13.1482 5.52118L14.2982 4.39993C14.3447 4.35508 14.3768 4.29743 14.3905 4.2343C14.4041 4.17116 14.3987 4.10539 14.3749 4.04535C14.3506 3.99477 14.3143 3.95087 14.2693 3.91747C14.2242 3.88408 14.1716 3.86218 14.1161 3.85368L12.5253 3.62368L11.8161 2.12868C11.7862 2.07073 11.7408 2.02217 11.685 1.98836C11.6292 1.95454 11.5651 1.93677 11.4999 1.93701C11.4349 1.93781 11.3712 1.95601 11.3156 1.98972C11.26 2.02342 11.2144 2.07141 11.1836 2.12868L10.4745 3.57576L8.88365 3.85368C8.82818 3.86218 8.77563 3.88408 8.73054 3.91747C8.68545 3.95087 8.64919 3.99477 8.62489 4.04535C8.60224 4.10631 8.59835 4.17265 8.61372 4.23585C8.62909 4.29904 8.66302 4.35618 8.71115 4.39993L9.80364 5.52118Z" fill="#4E2583"/>
</svg>
