<svg width="24" height="24" viewBox="0 0 24 24" fill="none" xmlns="http://www.w3.org/2000/svg">
<g clip-path="url(#clip0)">
<path d="M16.54 5.20983C16.4639 4.0682 15.9566 2.99819 15.1211 2.21653C14.2856 1.43487 13.1842 1 12.04 1C10.8958 1 9.79444 1.43487 8.9589 2.21653C8.12336 2.99819 7.61615 4.0682 7.54 5.20983H0V22.5598H24.07V5.20983H16.54ZM12 1.78983C12.9466 1.78053 13.8622 2.12673 14.5659 2.76C15.2695 3.39327 15.7099 4.26749 15.8 5.20983H8.27C8.36112 4.28036 8.79221 3.41726 9.48058 2.7861C10.169 2.15494 11.0661 1.80016 12 1.78983ZM23.3 21.7898H0.74V10.3198L9.74 14.7598C9.66934 14.9934 9.6323 15.2358 9.63 15.4798C9.63 16.1164 9.88286 16.7268 10.3329 17.1769C10.783 17.627 11.3935 17.8798 12.03 17.8798C12.6665 17.8798 13.277 17.627 13.7271 17.1769C14.1771 16.7268 14.43 16.1164 14.43 15.4798C14.4291 15.2349 14.3886 14.9918 14.31 14.7598L23.31 10.3198L23.3 21.7898ZM10.3 15.4398C10.3014 15.1201 10.3952 14.8076 10.57 14.5398C10.72 14.3044 10.9269 14.1107 11.1716 13.9764C11.4163 13.8422 11.6909 13.7718 11.97 13.7718C12.2491 13.7718 12.5237 13.8422 12.7684 13.9764C13.0131 14.1107 13.22 14.3044 13.37 14.5398C13.4374 14.646 13.4911 14.7602 13.53 14.8798C13.5978 15.0587 13.6317 15.2486 13.63 15.4398C13.6478 15.6693 13.618 15.9 13.5424 16.1175C13.4668 16.3349 13.347 16.5343 13.1907 16.7033C13.0343 16.8722 12.8447 17.007 12.6338 17.0992C12.4229 17.1914 12.1952 17.239 11.965 17.239C11.7348 17.239 11.5071 17.1914 11.2962 17.0992C11.0853 17.007 10.8957 16.8722 10.7393 16.7033C10.583 16.5343 10.4632 16.3349 10.3876 16.1175C10.312 15.9 10.2822 15.6693 10.3 15.4398ZM23.3 9.43983L14 14.1098C13.7812 13.7922 13.4885 13.5325 13.1471 13.3531C12.8056 13.1737 12.4257 13.0799 12.04 13.0799C11.6543 13.0799 11.2744 13.1737 10.9329 13.3531C10.5915 13.5325 10.2988 13.7922 10.08 14.1098L0.74 9.50983V5.94983H23.34L23.3 9.43983Z" fill="#4E2583"/>
</g>
<defs>
<clipPath id="clip0">
<rect width="24" height="24" fill="white"/>
</clipPath>
</defs>
</svg>
