<svg width="24" height="24" viewBox="0 0 24 24" fill="none" xmlns="http://www.w3.org/2000/svg">
<g clip-path="url(#clip0)">
<path d="M4.08058 19.3218V18.8713C4.08285 18.4425 4.20296 18.0226 4.42777 17.6575C4.65259 17.2924 4.97345 16.9961 5.35529 16.8011C5.92401 16.517 6.51355 16.2767 7.1188 16.0823L7.61719 15.9289C8.11557 17.3474 10.7513 19.3697 11.3263 19.7626C11.3837 19.8075 11.4548 19.8312 11.5276 19.8297C11.6035 19.8326 11.6781 19.8089 11.7384 19.7626C12.3135 19.3313 14.9492 17.3186 15.4476 15.9289L15.9459 16.0823C16.5549 16.2751 17.1477 16.5154 17.719 16.8011C18.1009 16.9961 18.4217 17.2924 18.6466 17.6575C18.8714 18.0226 18.9915 18.4425 18.9937 18.8713V19.3122C16.9846 21.2292 14.3142 22.2988 11.5372 22.2988C8.76012 22.2988 6.08976 21.2292 4.08058 19.3122V19.3218ZM8.65229 15.6893L8.9494 15.6414H9.01649H9.074C9.42806 15.2878 9.69116 14.8537 9.84074 14.3763C10.3364 14.6402 10.8893 14.7784 11.4509 14.7788C12.0201 14.7811 12.5806 14.6393 13.0802 14.3667C13.2325 14.8323 13.4918 15.2558 13.8374 15.6031H13.8949H13.962C14.192 15.6031 14.422 15.6893 14.6425 15.7468C14.3358 16.5807 12.7256 18.0854 11.3934 19.0726C10.0995 18.1141 8.47019 16.5902 8.15391 15.7564L8.53728 15.6893H8.65229ZM8.06765 10.8109C8.03485 10.7129 7.96644 10.6308 7.87596 10.5809C7.82759 10.5598 7.77539 10.5489 7.72261 10.5489C7.66984 10.5489 7.61763 10.5598 7.56927 10.5809H7.50218C7.32751 10.3846 7.22594 10.1341 7.21465 9.87165C7.21465 9.40202 7.34883 9.09532 7.49259 9.05698C7.54104 9.04283 7.59205 9.03978 7.64183 9.04808C7.69162 9.05638 7.73889 9.0758 7.78012 9.1049C7.8326 9.14524 7.89612 9.16864 7.96222 9.17199C8.00754 9.17327 8.05266 9.1656 8.09501 9.14943C8.13736 9.13326 8.17611 9.10891 8.20904 9.07775C8.24198 9.0466 8.26845 9.00926 8.28694 8.96787C8.30544 8.92649 8.3156 8.88186 8.31684 8.83654C8.38071 8.58448 8.49866 8.34933 8.6625 8.14742C8.82635 7.9455 9.03217 7.78166 9.26569 7.66726C9.60865 7.53112 9.9786 7.4767 10.3462 7.5083C10.7139 7.53991 11.0691 7.65668 11.3838 7.84936C11.4287 7.87067 11.4778 7.88173 11.5276 7.88173C11.5773 7.88173 11.6264 7.87067 11.6713 7.84936C11.981 7.66204 12.3295 7.54823 12.6901 7.51666C13.0506 7.48509 13.4136 7.53661 13.7511 7.66726C13.9632 7.79298 14.1475 7.96069 14.2925 8.1601C14.4375 8.35951 14.5403 8.58643 14.5946 8.82696C14.5927 8.84929 14.5927 8.87172 14.5946 8.89405V8.94197C14.5946 8.94197 14.5946 8.94197 14.6521 8.98989H14.7287H14.9396H15.0067C15.0479 8.96079 15.0952 8.94137 15.145 8.93307C15.1947 8.92477 15.2458 8.92781 15.2942 8.94197C15.4284 8.94197 15.6105 9.28701 15.5626 9.75664C15.558 10.0187 15.4593 10.2705 15.2846 10.4659C15.2846 10.4659 15.2271 10.4659 15.2079 10.4659C15.1614 10.4444 15.1107 10.4333 15.0594 10.4333C15.0081 10.4333 14.9574 10.4444 14.9108 10.4659C14.8651 10.4894 14.8245 10.5219 14.7916 10.5614C14.7587 10.6009 14.734 10.6467 14.7191 10.6959C14.5473 11.7499 14.0155 12.7117 13.2144 13.4178C12.7295 13.7825 12.1391 13.9797 11.5324 13.9797C10.9256 13.9797 10.3353 13.7825 9.85033 13.4178C9.0124 12.7688 8.42897 11.8462 8.20183 10.8109H8.06765ZM19.703 19.4368V18.8521C19.7009 18.2954 19.5449 17.7501 19.2523 17.2765C18.9597 16.803 18.5418 16.4195 18.0449 16.1685C17.443 15.8644 16.8181 15.608 16.176 15.4018C15.8597 15.2964 15.5913 15.2197 15.3421 15.1526C15.0929 15.0855 14.7 14.9897 14.3837 14.9226C14.1009 14.6216 13.9026 14.2513 13.8086 13.8491C14.6185 13.1759 15.2064 12.274 15.4955 11.2614C15.6483 11.2379 15.7912 11.1714 15.9076 11.0697C16.2288 10.7585 16.4205 10.3374 16.4443 9.89082C16.5133 9.58104 16.4727 9.25691 16.3294 8.97375C16.1861 8.69059 15.9489 8.46594 15.6584 8.33816C15.5104 8.30237 15.356 8.30237 15.2079 8.33816C15.0266 7.84561 14.6902 7.42521 14.2495 7.14012C13.8351 6.91363 13.3704 6.79492 12.8981 6.79492C12.4259 6.79492 11.9612 6.91363 11.5467 7.14012C11.1283 6.9153 10.6608 6.79763 10.1858 6.79763C9.7108 6.79763 9.24321 6.9153 8.82481 7.14012C8.37995 7.43767 8.04364 7.87151 7.86638 8.3765C7.72448 8.34373 7.57698 8.34373 7.43508 8.3765C7.14458 8.50428 6.90742 8.72893 6.76409 9.01209C6.62076 9.29525 6.58014 9.61938 6.64917 9.92915C6.66817 10.3769 6.86066 10.7997 7.18589 11.108C7.3023 11.2097 7.44524 11.2762 7.59802 11.2997C7.88694 12.3148 8.47877 13.2176 9.29444 13.8875C9.20481 14.2997 9.00622 14.6803 8.71938 14.9897H8.55645C8.27881 15.0324 8.00367 15.09 7.7322 15.1622C7.48301 15.2293 7.21465 15.3059 6.89836 15.4114C6.2401 15.6158 5.59913 15.8721 4.98151 16.1781C4.48567 16.4295 4.06916 16.8134 3.77818 17.2871C3.4872 17.7607 3.33311 18.3058 3.33301 18.8617V19.4655C3.33301 19.4655 3.33301 19.4655 3.33301 19.523C3.34314 19.5957 3.3768 19.663 3.42885 19.7147C5.57875 21.822 8.4692 23.0024 11.4797 23.0024C14.4901 23.0024 17.3806 21.822 19.5305 19.7147C19.5613 19.6838 19.5872 19.6482 19.6071 19.6093C19.6152 19.5649 19.6152 19.5195 19.6071 19.4751" fill="#4E2583"/>
<path d="M11.5277 3.06803e-05C9.50659 -0.00463705 7.51993 0.523389 5.76783 1.53092C4.01573 2.53845 2.56008 3.98991 1.5475 5.73909C0.534918 7.48828 0.00116417 9.47341 1.90222e-06 11.4945C-0.00116036 13.5157 0.53031 15.5014 1.54088 17.2518C1.56942 17.3053 1.61236 17.3499 1.66485 17.3804C1.71735 17.4108 1.77732 17.426 1.83799 17.4243C1.89921 17.4278 1.95986 17.4109 2.01051 17.3764C2.05115 17.3553 2.08706 17.3263 2.11604 17.2909C2.14502 17.2555 2.16645 17.2145 2.17902 17.1705C2.19159 17.1265 2.19502 17.0804 2.18912 17.0351C2.18322 16.9897 2.1681 16.946 2.14469 16.9067C1.20784 15.2639 0.718742 13.4039 0.726301 11.5127C0.733861 9.62157 1.23782 7.76553 2.18777 6.13025C3.13772 4.49497 4.50037 3.13775 6.13943 2.19435C7.7785 1.25094 9.63653 0.754408 11.5277 0.754408C13.4189 0.754408 15.2769 1.25094 16.916 2.19435C18.5551 3.13775 19.9177 4.49497 20.8677 6.13025C21.8176 7.76553 22.3216 9.62157 22.3291 11.5127C22.3367 13.4039 21.8476 15.2639 20.9107 16.9067C20.8873 16.946 20.8722 16.9897 20.8663 17.0351C20.8604 17.0804 20.8638 17.1265 20.8764 17.1705C20.889 17.2145 20.9104 17.2555 20.9394 17.2909C20.9684 17.3263 21.0043 17.3553 21.0449 17.3764C21.1238 17.4217 21.2174 17.4341 21.3054 17.4107C21.3933 17.3874 21.4685 17.3303 21.5145 17.2518C22.5251 15.5014 23.0566 13.5157 23.0554 11.4945C23.0543 9.47341 22.5205 7.48828 21.5079 5.73909C20.4953 3.98991 19.0397 2.53845 17.2876 1.53092C15.5355 0.523389 13.5488 -0.00463705 11.5277 3.06803e-05Z" fill="#4E2583"/>
<path d="M17.4316 13.811C17.022 13.6203 16.603 13.4508 16.176 13.3031C16.0871 13.2759 15.991 13.2848 15.9085 13.3278C15.8261 13.3709 15.7638 13.4446 15.7352 13.5331C15.708 13.6221 15.7169 13.7181 15.76 13.8006C15.803 13.8831 15.8767 13.9453 15.9652 13.974C16.3673 14.1064 16.761 14.2632 17.1441 14.4436C17.4699 14.5874 17.767 14.7215 18.1025 14.827C18.1403 14.8363 18.1797 14.8363 18.2175 14.827C18.2742 14.8404 18.3333 14.8404 18.39 14.827C18.4752 14.7756 18.537 14.6931 18.5625 14.5969C18.7568 13.7668 18.866 12.919 18.8884 12.0667C18.8884 6.82408 15.946 3.30664 11.566 3.30664C7.18597 3.30664 4.21484 6.80491 4.21484 12.0475C4.23251 12.9002 4.34176 13.7485 4.54071 14.5778C4.55665 14.6564 4.60022 14.7266 4.66352 14.7759C4.72681 14.8251 4.80565 14.85 4.88574 14.8461C4.9202 14.856 4.95672 14.856 4.99117 14.8461C5.29787 14.7407 5.59498 14.6065 5.9496 14.4628C6.33264 14.2824 6.72633 14.1256 7.12847 13.9931C7.2045 13.9565 7.26497 13.8939 7.299 13.8167C7.33304 13.7395 7.33842 13.6526 7.31417 13.5718C7.28991 13.4909 7.23762 13.4214 7.16669 13.3757C7.09576 13.3299 7.01084 13.311 6.9272 13.3222C6.49589 13.4666 6.07346 13.6362 5.66207 13.8302L5.16369 14.0506C5.02876 13.3974 4.95178 12.7335 4.93367 12.0667C4.93367 7.16911 7.54059 4.00629 11.5564 4.00629C15.5722 4.00629 18.1792 7.16911 18.1792 12.0667C18.1642 12.7332 18.0904 13.3971 17.9587 14.0506L17.4603 13.8302" fill="#4E2583"/>
</g>
<defs>
<clipPath id="clip0">
<rect width="23.43" height="24" fill="white"/>
</clipPath>
</defs>
</svg>
