<svg width="24" height="24" viewBox="0 0 24 24" fill="none" xmlns="http://www.w3.org/2000/svg">
<path d="M22.9855 21.5494L19.8782 11.6523C19.7013 11.8155 19.4911 11.939 19.2621 12.0142L20.3508 15.4834L18.5844 14.8639C18.5019 15.1345 18.4884 15.212 18.4143 15.5396L20.6104 16.3099L21.4713 19.0542L15.3232 16.8978L15.0357 14.3539L16.4059 14.8338C16.3565 14.637 16.2423 14.1414 16.2027 14.0273L14.9504 13.5878L14.6903 11.2843C14.418 11.0614 14.2224 10.7593 14.131 10.4202C14.1135 10.3483 14.1012 10.2753 14.0942 10.2017H9.64083L10.1316 8.255C10.9005 7.86045 11.5138 7.22008 11.8732 6.43673C12.2326 5.65338 12.3172 4.7725 12.1133 3.93556C11.9094 3.09862 11.4289 2.35419 10.749 1.82181C10.0691 1.28943 9.22922 1 8.36425 1C7.49927 1 6.65939 1.28943 5.97949 1.82181C5.29958 2.35419 4.81911 3.09862 4.61522 3.93556C4.41134 4.7725 4.49588 5.65338 4.85526 6.43673C5.21465 7.22008 5.82802 7.86045 6.59688 8.255L7.08766 10.2017H3.83398C3.75956 10.2015 3.68705 10.2251 3.62714 10.269C3.56722 10.313 3.52307 10.3749 3.5012 10.4458L0.0154098 21.5494C-0.000540126 21.6014 -0.00416941 21.6564 0.00480687 21.71C0.0137832 21.7636 0.0351207 21.8144 0.0671443 21.8585C0.0994086 21.9022 0.141511 21.9377 0.190075 21.9623C0.238639 21.9869 0.292313 21.9998 0.34679 22H22.6514C22.706 22 22.76 21.9872 22.8088 21.9626C22.8575 21.938 22.8998 21.9024 22.9322 21.8585C22.9646 21.8147 22.9862 21.7638 22.9952 21.7101C23.0042 21.6564 23.0005 21.6014 22.9841 21.5494H22.9855ZM7.04152 7.69907C6.38713 7.3989 5.85541 6.88509 5.53451 6.24282C5.21361 5.60053 5.12279 4.86836 5.27711 4.16764C5.43144 3.46693 5.82163 2.83977 6.38302 2.39011C6.94441 1.94045 7.64328 1.69531 8.36378 1.69531C9.08428 1.69531 9.78315 1.94045 10.3445 2.39011C10.9059 2.83977 11.2961 3.46693 11.4504 4.16764C11.6048 4.86836 11.514 5.60053 11.1931 6.24282C10.8721 6.88509 10.3404 7.3989 9.68604 7.69907C9.63874 7.72114 9.59697 7.7534 9.56376 7.79354C9.53055 7.83367 9.50672 7.88066 9.49402 7.9311L8.36425 12.4175L7.23308 7.9311C7.2207 7.88058 7.19705 7.83349 7.16389 7.79332C7.13072 7.75316 7.0889 7.72094 7.04152 7.69907ZM7.18134 21.3063H0.822655L2.01768 17.4988H7.6106L7.18134 21.3063ZM7.68937 16.805H2.2372L3.05843 14.1906H6.27436C6.36455 14.1873 6.44995 14.1493 6.51259 14.0846C6.57523 14.0199 6.61024 13.9336 6.61024 13.8437C6.61024 13.7539 6.57523 13.6675 6.51259 13.6028C6.44995 13.5381 6.36455 13.5001 6.27436 13.4968H3.27422L4.08985 10.8959H7.26197L8.02587 13.9279C8.0446 14.0031 8.08805 14.0698 8.14929 14.1175C8.21053 14.1652 8.28603 14.1911 8.36378 14.1911C8.44152 14.1911 8.51703 14.1652 8.57827 14.1175C8.63951 14.0698 8.68296 14.0031 8.70168 13.9279L9.46512 10.8959H13.9451L14.2373 13.4968H10.4555C10.4087 13.4951 10.362 13.5029 10.3183 13.5195C10.2745 13.5362 10.2346 13.5615 10.2008 13.5938C10.1671 13.6262 10.1403 13.665 10.1219 13.708C10.1036 13.7509 10.0942 13.7971 10.0942 13.8437C10.0942 13.8904 10.1036 13.9365 10.1219 13.9795C10.1403 14.0224 10.1671 14.0612 10.2008 14.0936C10.2346 14.126 10.2745 14.1513 10.3183 14.1679C10.362 14.1846 10.4087 14.1923 10.4555 14.1906H14.3156L14.6111 16.805H8.38941L8.53716 15.4987C8.54224 15.4534 8.53831 15.4076 8.52559 15.3638C8.51287 15.32 8.4916 15.2791 8.46302 15.2435C8.40529 15.1716 8.32122 15.1254 8.22932 15.1152C8.13741 15.105 8.04519 15.1315 7.97295 15.189C7.90071 15.2465 7.85436 15.3302 7.8441 15.4217L7.68937 16.805ZM7.88325 21.3063L8.31158 17.4988H14.6894L15.1191 21.3063H7.88325ZM15.8196 21.3063L15.4095 17.6644L21.7309 19.8812L22.1783 21.3067L15.8196 21.3063Z" fill="#4E2583"/>
<path d="M7.31737 4.84583C7.31709 4.63982 7.3782 4.43835 7.49295 4.26693C7.6077 4.0955 7.77095 3.96182 7.96204 3.88279C8.15312 3.80376 8.36346 3.78294 8.56643 3.82296C8.7694 3.86298 8.95589 3.96205 9.1023 4.10762C9.24871 4.2532 9.34845 4.43874 9.38892 4.64077C9.42939 4.84281 9.40876 5.05225 9.32964 5.24261C9.25052 5.43297 9.11647 5.59568 8.94445 5.71016C8.77243 5.82465 8.57016 5.88575 8.36325 5.88575C8.08618 5.88551 7.82051 5.77591 7.62447 5.58098C7.42842 5.38605 7.31799 5.12169 7.31737 4.84583ZM10.1054 4.84583C10.1057 4.50259 10.0037 4.16698 9.8124 3.88145C9.62106 3.59593 9.34896 3.37333 9.03053 3.2418C8.7121 3.11028 8.36164 3.07575 8.02349 3.14258C7.68534 3.20941 7.3747 3.37459 7.13086 3.61724C6.88702 3.85988 6.72095 4.16908 6.65365 4.50572C6.58635 4.84235 6.62084 5.1913 6.75277 5.50842C6.8847 5.82553 7.10813 6.09656 7.3948 6.28722C7.68147 6.47787 8.0185 6.57959 8.36325 6.5795C8.82492 6.57876 9.26748 6.3959 9.59402 6.07096C9.92056 5.74602 10.1045 5.30549 10.1054 4.84583Z" fill="#4E2583"/>
<path d="M17.4983 4.91016C16.6337 4.90976 15.7941 5.19876 15.1143 5.73072C14.4346 6.26267 13.9542 7.0067 13.7503 7.84325C13.5464 8.6798 13.6309 9.5603 13.9902 10.3433C14.3495 11.1262 14.9628 11.7662 15.7314 12.1604L16.3965 14.8008L17.1604 17.8333C17.1793 17.9082 17.2228 17.9747 17.284 18.0222C17.3451 18.0697 17.4205 18.0955 17.4981 18.0955C17.5757 18.0955 17.651 18.0697 17.7122 18.0222C17.7734 17.9747 17.8168 17.9082 17.8357 17.8333L18.7749 14.1071L19.2657 12.1604C20.0343 11.7662 20.6476 11.1262 21.0069 10.3432C21.3662 9.56015 21.4506 8.6796 21.2467 7.84303C21.0428 7.00645 20.5623 6.26242 19.8825 5.7305C19.2026 5.19858 18.3629 4.90966 17.4983 4.91016ZM18.8201 11.604C18.7729 11.6261 18.7312 11.6584 18.698 11.6985C18.6649 11.7386 18.6412 11.7856 18.6285 11.836L17.4983 16.3229L16.3676 11.836C16.3552 11.7855 16.3315 11.7385 16.2983 11.6983C16.2652 11.6582 16.2234 11.6259 16.176 11.604C15.5215 11.3039 14.9896 10.79 14.6685 10.1476C14.3475 9.50527 14.2566 8.77295 14.4109 8.07208C14.5652 7.37122 14.9554 6.7439 15.5169 6.29413C16.0784 5.84436 16.7774 5.59915 17.4981 5.59915C18.2187 5.59915 18.9177 5.84436 19.4792 6.29413C20.0407 6.7439 20.4309 7.37122 20.5852 8.07208C20.7395 8.77295 20.6486 9.50527 20.3276 10.1476C20.0066 10.79 19.4747 11.3039 18.8201 11.604Z" fill="#4E2583"/>
<path d="M16.4526 8.7511C16.4524 8.54509 16.5136 8.34365 16.6285 8.17228C16.7433 8.0009 16.9066 7.86729 17.0977 7.78835C17.2888 7.7094 17.4992 7.68868 17.7021 7.72879C17.9051 7.7689 18.0915 7.86805 18.2379 8.01369C18.3842 8.15933 18.4839 8.34492 18.5243 8.54697C18.5646 8.74902 18.5439 8.95846 18.4647 9.14878C18.3855 9.3391 18.2514 9.50175 18.0793 9.61616C17.9072 9.73057 17.7049 9.79158 17.498 9.79149C17.2209 9.79137 16.9551 9.68173 16.7591 9.48666C16.5631 9.29159 16.4529 9.02704 16.4526 8.7511ZM19.2407 8.7511C19.241 8.40788 19.139 8.07229 18.9477 7.78678C18.7564 7.50126 18.4843 7.27866 18.1659 7.14712C17.8475 7.01559 17.4971 6.98103 17.1589 7.04782C16.8208 7.11461 16.5101 7.27975 16.2663 7.52235C16.0224 7.76494 15.8563 8.0741 15.789 8.41071C15.7216 8.74731 15.756 9.09625 15.8879 9.41337C16.0197 9.73049 16.2431 10.0016 16.5297 10.1923C16.8163 10.383 17.1533 10.4848 17.498 10.4848C17.9598 10.4842 18.4025 10.3014 18.7291 9.9764C19.0557 9.65145 19.2397 9.21084 19.2407 8.7511Z" fill="#4E2583"/>
</svg>
