<svg width="24" height="24" viewBox="0 0 24 24" fill="none" xmlns="http://www.w3.org/2000/svg">
<path d="M20.1173 15.94C20.0482 15.829 20.0115 15.7008 20.0115 15.57C20.0115 15.4392 20.0482 15.311 20.1173 15.2L20.3773 14.76C20.5827 14.4351 20.6507 14.0419 20.5663 13.6668C20.4819 13.2918 20.2521 12.9656 19.9273 12.76L19.4973 12.48C19.3889 12.4072 19.302 12.3066 19.2457 12.1887C19.1895 12.0709 19.1658 11.9401 19.1773 11.81L19.2273 11.3C19.2614 10.9287 19.1502 10.5587 18.9171 10.2678C18.684 9.97682 18.3471 9.78763 17.9773 9.74L17.4673 9.67C17.3387 9.651 17.2175 9.59849 17.1156 9.51774C17.0138 9.43699 16.9351 9.33085 16.8873 9.21L16.7073 8.73C16.5783 8.38015 16.3186 8.09399 15.9829 7.93173C15.6472 7.76946 15.2616 7.74375 14.9073 7.86L14.4173 8.02C14.2932 8.06058 14.1604 8.06618 14.0334 8.03619C13.9064 8.0062 13.7901 7.94177 13.6973 7.85L13.3273 7.5C13.1715 7.34949 12.9834 7.23661 12.7773 7.17V6.56H16.0673C16.1628 6.56 16.2543 6.52207 16.3218 6.45456C16.3894 6.38705 16.4273 6.29548 16.4273 6.2C16.4273 6.10452 16.3894 6.01295 16.3218 5.94544C16.2543 5.87793 16.1628 5.84 16.0673 5.84H15.7673L19.9473 0.59C19.9839 0.533387 20.0034 0.467411 20.0034 0.4C20.0034 0.332589 19.9839 0.266613 19.9473 0.21C19.9223 0.154069 19.8835 0.10543 19.8345 0.0686823C19.7855 0.0319352 19.728 0.00829563 19.6673 0L15.3473 0C15.2932 0.00145206 15.2401 0.0147402 15.1918 0.0389286C15.1434 0.063117 15.1009 0.0976173 15.0673 0.14L12.3273 3.56L9.58729 0.14C9.55469 0.0965314 9.51241 0.0612502 9.46382 0.0369505C9.41522 0.0126508 9.36163 0 9.30729 0L4.97729 0C4.90932 0.000151606 4.84287 0.0200906 4.78604 0.0573824C4.72922 0.0946741 4.68448 0.147705 4.65729 0.21C4.6207 0.266613 4.60123 0.332589 4.60123 0.4C4.60123 0.467411 4.6207 0.533387 4.65729 0.59L8.87729 5.83H8.73729C8.64181 5.83 8.55025 5.86793 8.48273 5.93544C8.41522 6.00295 8.37729 6.09452 8.37729 6.19C8.37729 6.28548 8.41522 6.37705 8.48273 6.44456C8.55025 6.51207 8.64181 6.55 8.73729 6.55H12.0673V7.15C11.7949 7.20255 11.5443 7.33481 11.3473 7.53L10.9673 7.88C10.8745 7.97177 10.7582 8.0362 10.6312 8.06619C10.5042 8.09618 10.3713 8.09058 10.2473 8.05L9.73729 7.9C9.383 7.78375 8.99743 7.80946 8.66171 7.97173C8.32599 8.13399 8.0663 8.42015 7.93729 8.77L7.75729 9.25C7.7104 9.37142 7.6319 9.47809 7.52992 9.55897C7.42795 9.63985 7.3062 9.69199 7.17729 9.71L6.66729 9.78C6.29857 9.82998 5.96317 10.0198 5.7305 10.3102C5.49783 10.6005 5.38569 10.9693 5.41729 11.34V11.85C5.42876 11.9801 5.40512 12.1109 5.34884 12.2287C5.29255 12.3466 5.20568 12.4472 5.09729 12.52L4.66729 12.8C4.34414 13.0072 4.11635 13.3341 4.03387 13.709C3.95139 14.084 4.02095 14.4763 4.22729 14.8L4.48729 15.24C4.55128 15.3528 4.58491 15.4803 4.58491 15.61C4.58491 15.7397 4.55128 15.8672 4.48729 15.98L4.22729 16.42C4.03393 16.7388 3.97174 17.1201 4.0538 17.4838C4.13586 17.8475 4.35578 18.1652 4.66729 18.37L5.09729 18.65C5.20419 18.7243 5.28991 18.8251 5.34602 18.9426C5.40213 19.0601 5.42669 19.1902 5.41729 19.32V19.83C5.39603 20.1953 5.5127 20.5552 5.74419 20.8385C5.97568 21.1219 6.30512 21.308 6.66729 21.36L7.17729 21.43C7.30692 21.4459 7.42966 21.4973 7.53199 21.5784C7.63431 21.6596 7.71228 21.7674 7.75729 21.89L7.93729 22.37C8.06836 22.7183 8.32833 23.0029 8.66338 23.1648C8.99844 23.3268 9.38294 23.3537 9.73729 23.24L10.2273 23.08C10.3506 23.0393 10.4826 23.0326 10.6093 23.0608C10.7361 23.089 10.8529 23.1509 10.9473 23.24L11.3273 23.6C11.5969 23.8568 11.955 24 12.3273 24C12.6996 24 13.0577 23.8568 13.3273 23.6L13.6973 23.24C13.7923 23.1518 13.9091 23.0905 14.0356 23.0624C14.1621 23.0343 14.2939 23.0403 14.4173 23.08L14.9073 23.24C15.2616 23.3537 15.6461 23.3268 15.9812 23.1648C16.3163 23.0029 16.5762 22.7183 16.7073 22.37L16.8873 21.89C16.9333 21.768 17.0115 21.6608 17.1136 21.5798C17.2158 21.4987 17.338 21.447 17.4673 21.43L17.9773 21.36C18.3479 21.31 18.6848 21.1187 18.9178 20.8262C19.1507 20.5336 19.2616 20.1624 19.2273 19.79L19.1773 19.28C19.1679 19.1502 19.1925 19.0201 19.2486 18.9026C19.3047 18.7851 19.3904 18.6843 19.4973 18.61L19.9273 18.33C20.2405 18.1267 20.4624 17.8097 20.5464 17.4459C20.6303 17.0821 20.5697 16.7 20.3773 16.38L20.1173 15.94ZM10.5173 5.83H9.80729L5.73729 0.73H9.12729L11.8573 4.15L10.5173 5.83ZM11.4473 5.83L15.5173 0.73H18.9073L14.8373 5.83H11.4473ZM19.4473 16.31L19.7073 16.75C19.7604 16.8295 19.7969 16.9189 19.8146 17.0129C19.8323 17.1069 19.8308 17.2035 19.8103 17.2969C19.7897 17.3902 19.7505 17.4785 19.695 17.5564C19.6395 17.6343 19.5689 17.7001 19.4873 17.75L19.0673 18C18.8498 18.1425 18.6752 18.3417 18.5624 18.576C18.4497 18.8104 18.4029 19.0711 18.4273 19.33V19.85C18.447 20.0354 18.3931 20.2211 18.2771 20.367C18.1611 20.513 17.9923 20.6074 17.8073 20.63L17.2973 20.7C17.0391 20.735 16.7951 20.8389 16.591 21.0008C16.3869 21.1627 16.2302 21.3766 16.1373 21.62L15.9573 22.1C15.8917 22.2743 15.762 22.417 15.5947 22.4987C15.4274 22.5805 15.2351 22.5953 15.0573 22.54L14.5773 22.38C14.3286 22.2967 14.0618 22.2835 13.806 22.3417C13.5503 22.3999 13.3155 22.5273 13.1273 22.71L12.7573 23.06C12.6231 23.1895 12.4438 23.2619 12.2573 23.2619C12.0708 23.2619 11.8915 23.1895 11.7573 23.06L11.3873 22.71C11.116 22.4558 10.759 22.313 10.3873 22.31C10.2345 22.3088 10.0825 22.3324 9.93729 22.38L9.44729 22.54C9.26946 22.5953 9.07721 22.5805 8.9099 22.4987C8.7426 22.417 8.61287 22.2743 8.54729 22.1L8.36729 21.62C8.27535 21.376 8.11888 21.1615 7.91458 20.9995C7.71028 20.8375 7.46582 20.734 7.20729 20.7L6.69729 20.63C6.51331 20.605 6.3461 20.5099 6.23058 20.3646C6.11505 20.2192 6.06013 20.0349 6.07729 19.85V19.33C6.11574 19.0812 6.08686 18.8266 5.99366 18.5927C5.90046 18.3588 5.74633 18.1542 5.54729 18L5.11729 17.71C5.03677 17.6592 4.96714 17.5928 4.91243 17.5149C4.85771 17.437 4.819 17.3489 4.79854 17.2559C4.77808 17.1629 4.77627 17.0668 4.79322 16.9731C4.81017 16.8794 4.84555 16.7899 4.89729 16.71L5.15729 16.27C5.29445 16.0475 5.36708 15.7913 5.36708 15.53C5.36708 15.2687 5.29445 15.0125 5.15729 14.79L4.89729 14.34C4.84555 14.2601 4.81017 14.1706 4.79322 14.0769C4.77627 13.9832 4.77808 13.8871 4.79854 13.7941C4.819 13.7011 4.85771 13.613 4.91243 13.5351C4.96714 13.4572 5.03677 13.3908 5.11729 13.34L5.54729 13.06C5.76643 12.9167 5.94201 12.7159 6.05487 12.4796C6.16772 12.2433 6.21353 11.9805 6.18729 11.72V11.21C6.16754 11.0246 6.22149 10.8389 6.33749 10.693C6.45349 10.547 6.62224 10.4526 6.80729 10.43L7.31729 10.36C7.56179 10.324 7.79303 10.2261 7.98905 10.0756C8.18507 9.92503 8.33937 9.72691 8.43729 9.5L8.61729 9C8.68277 8.82599 8.81302 8.68406 8.98077 8.60391C9.14852 8.52376 9.34078 8.51161 9.51729 8.57L10.0073 8.73C10.2564 8.80995 10.5224 8.8215 10.7775 8.76344C11.0325 8.70539 11.2673 8.57987 11.4573 8.4L11.8273 8.04C11.9638 7.91492 12.1422 7.84553 12.3273 7.84553C12.5124 7.84553 12.6908 7.91492 12.8273 8.04L13.1973 8.4C13.3867 8.58079 13.6215 8.70693 13.8768 8.76504C14.1321 8.82314 14.3983 8.81103 14.6473 8.73L15.1273 8.57C15.2171 8.53499 15.3131 8.51837 15.4094 8.52114C15.5058 8.5239 15.6006 8.54599 15.6883 8.5861C15.7759 8.6262 15.8547 8.6835 15.9198 8.7546C15.9849 8.8257 16.035 8.90915 16.0673 9L16.2473 9.48C16.3396 9.7247 16.496 9.94012 16.7 10.1037C16.9041 10.2673 17.1484 10.3731 17.4073 10.41L17.9173 10.48C18.1023 10.5026 18.2711 10.597 18.3871 10.743C18.5031 10.8889 18.557 11.0746 18.5373 11.26V11.77C18.4975 12.0233 18.5256 12.2826 18.6187 12.5216C18.7118 12.7605 18.8666 12.9704 19.0673 13.13L19.4973 13.41C19.5789 13.4599 19.6495 13.5257 19.705 13.6036C19.7605 13.6815 19.7997 13.7698 19.8203 13.8631C19.8408 13.9565 19.8423 14.0531 19.8246 14.1471C19.8069 14.2411 19.7704 14.3305 19.7173 14.41L19.4573 14.86C19.3346 15.0831 19.2727 15.3345 19.278 15.589C19.2832 15.8436 19.3554 16.0922 19.4873 16.31H19.4473Z" fill="#4E2583"/>
<path d="M12.3275 9.66993C11.1602 9.66795 10.0185 10.0123 9.0469 10.6594C8.07533 11.3065 7.31756 12.2273 6.86947 13.3052C6.42138 14.3831 6.30311 15.5697 6.52963 16.7148C6.75616 17.86 7.31729 18.9122 8.14202 19.7383C8.96675 20.5644 10.018 21.1274 11.1628 21.3558C12.3075 21.5843 13.4943 21.468 14.573 21.0218C15.6517 20.5755 16.5737 19.8193 17.2225 18.8488C17.8712 17.8784 18.2175 16.7373 18.2175 15.5699C18.2148 14.0077 17.5938 12.51 16.49 11.4044C15.3863 10.2988 13.8897 9.67521 12.3275 9.66993ZM12.3275 20.7299C11.3041 20.7319 10.3032 20.4301 9.45143 19.8628C8.59969 19.2955 7.93549 18.4881 7.54295 17.543C7.15041 16.5979 7.04718 15.5576 7.24635 14.5538C7.44551 13.55 7.93811 12.6278 8.66175 11.9042C9.38539 11.1806 10.3075 10.688 11.3113 10.4888C12.3151 10.2896 13.3555 10.3929 14.3006 10.7854C15.2457 11.1779 16.053 11.8421 16.6203 12.6939C17.1877 13.5456 17.4895 14.5466 17.4875 15.5699C17.4848 16.9376 16.9404 18.2486 15.9732 19.2157C15.0061 20.1828 13.6952 20.7273 12.3275 20.7299Z" fill="#4E2583"/>
<path d="M13.6671 13.82L12.6671 11.75C12.6332 11.6941 12.5855 11.6479 12.5286 11.6158C12.4716 11.5837 12.4074 11.5669 12.3421 11.5669C12.2767 11.5669 12.2125 11.5837 12.1556 11.6158C12.0986 11.6479 12.0509 11.6941 12.0171 11.75L11.0171 13.82L8.73707 14.15C8.66849 14.1571 8.60339 14.1837 8.5495 14.2267C8.49561 14.2697 8.45521 14.3273 8.43309 14.3926C8.41097 14.4579 8.40807 14.5282 8.42473 14.5951C8.44139 14.662 8.47691 14.7227 8.52707 14.77L10.1871 16.38L9.79707 18.66C9.78328 18.7256 9.78921 18.7939 9.81412 18.8562C9.83904 18.9184 9.88181 18.972 9.93707 19.01C9.99269 19.0491 10.059 19.0702 10.1271 19.0702C10.1951 19.0702 10.2615 19.0491 10.3171 19.01L12.3271 18L14.3271 19.07C14.3828 19.0848 14.4414 19.0848 14.4971 19.07C14.573 19.0715 14.6472 19.0468 14.7071 19C14.7623 18.9615 14.8056 18.9083 14.8321 18.8464C14.8586 18.7846 14.8673 18.7165 14.8571 18.65L14.4671 16.37L16.1171 14.76C16.1633 14.7118 16.1956 14.652 16.2106 14.5869C16.2256 14.5218 16.2227 14.4538 16.2022 14.3903C16.1817 14.3267 16.1443 14.2699 16.0941 14.2258C16.0439 14.1817 15.9828 14.1521 15.9171 14.14L13.6671 13.82ZM13.8571 16C13.8164 16.0417 13.7861 16.0924 13.7687 16.148C13.7514 16.2036 13.7474 16.2625 13.7571 16.32L14.0571 18.06L12.4971 17.24C12.4454 17.2101 12.3868 17.1944 12.3271 17.1944C12.2674 17.1944 12.2088 17.2101 12.1571 17.24L10.5971 18.06L10.8971 16.32C10.9073 16.2617 10.9025 16.2018 10.8833 16.1458C10.8641 16.0898 10.831 16.0397 10.7871 16L9.52707 14.77L11.2671 14.51C11.3255 14.5029 11.3814 14.4819 11.4301 14.4489C11.4788 14.4158 11.5189 14.3716 11.5471 14.32L12.3271 12.74L13.0671 14.32C13.0922 14.372 13.1302 14.4167 13.1775 14.45C13.2247 14.4832 13.2796 14.5039 13.3371 14.51L15.0771 14.77L13.8571 16Z" fill="#4E2583"/>
</svg>
