<svg width="24" height="24" viewBox="0 0 24 24" fill="none" xmlns="http://www.w3.org/2000/svg">
<g clip-path="url(#clip0)">
<path d="M23.27 20.66H12.67C12.5956 20.6584 12.5224 20.6793 12.46 20.72L9.12 23.09V21C9.12 20.9045 9.08207 20.813 9.01456 20.7454C8.94705 20.6779 8.85548 20.64 8.76 20.64H6.85V13.85H11.22L15 16.56C15.0624 16.6007 15.1356 16.6216 15.21 16.62C15.2623 16.635 15.3177 16.635 15.37 16.62C15.4304 16.5913 15.4814 16.546 15.5168 16.4893C15.5523 16.4326 15.5707 16.3669 15.57 16.3V13.85H17.49C17.5855 13.85 17.677 13.8121 17.7446 13.7446C17.8121 13.677 17.85 13.5855 17.85 13.49V11.26H23.24L23.27 20.66ZM0.73 3.73H17.15V13.12H15.24C15.1919 13.12 15.1442 13.1296 15.0999 13.1483C15.0555 13.167 15.0154 13.1945 14.9818 13.229C14.9483 13.2634 14.922 13.3043 14.9045 13.3492C14.887 13.394 14.8787 13.4419 14.88 13.49V15.55L11.54 13.19C11.4785 13.1463 11.4054 13.122 11.33 13.12H0.73V3.73ZM23.64 10.53H17.88V3.36C17.88 3.26452 17.8421 3.17295 17.7746 3.10544C17.707 3.03793 17.6155 3 17.52 3H0.36C0.264522 3 0.172955 3.03793 0.105442 3.10544C0.0379285 3.17295 0 3.26452 0 3.36L0 13.49C0 13.5855 0.0379285 13.677 0.105442 13.7446C0.172955 13.8121 0.264522 13.85 0.36 13.85H6.12V21C6.12 21.0955 6.15793 21.187 6.22544 21.2546C6.29295 21.3221 6.38452 21.36 6.48 21.36H8.4V23.77C8.39878 23.8371 8.41582 23.9032 8.44929 23.9613C8.48276 24.0194 8.53139 24.0674 8.59 24.1C8.6463 24.1091 8.7037 24.1091 8.76 24.1C8.83914 24.1213 8.92291 24.1178 9 24.09L12.81 21.38H23.64C23.689 21.3801 23.7375 21.3701 23.7825 21.3508C23.8276 21.3315 23.8682 21.3032 23.9019 21.2676C23.9356 21.232 23.9617 21.1899 23.9786 21.1439C23.9954 21.0979 24.0027 21.0489 24 21V10.9C24 10.8036 23.9624 10.711 23.8952 10.6418C23.8279 10.5727 23.7364 10.5326 23.64 10.53Z" fill="#4E2583"/>
<path d="M17.1 15.5698C17.0036 15.5698 16.9109 15.6074 16.8418 15.6746C16.7727 15.7419 16.7326 15.8334 16.73 15.9298C16.7325 16.0272 16.7723 16.1198 16.8412 16.1887C16.91 16.2575 17.0026 16.2973 17.1 16.2998H21C21.0964 16.2972 21.1879 16.2571 21.2552 16.188C21.3224 16.1189 21.36 16.0262 21.36 15.9298C21.36 15.8343 21.3221 15.7428 21.2545 15.6753C21.187 15.6078 21.0955 15.5698 21 15.5698H17.1Z" fill="#4E2583"/>
<path d="M9.4601 16.2998H12.2501C12.3465 16.2972 12.438 16.2571 12.5053 16.188C12.5725 16.1189 12.6101 16.0262 12.6101 15.9298C12.6101 15.8343 12.5722 15.7428 12.5047 15.6753C12.4371 15.6078 12.3456 15.5698 12.2501 15.5698H9.4601C9.36462 15.5698 9.27305 15.6078 9.20554 15.6753C9.13803 15.7428 9.1001 15.8343 9.1001 15.9298C9.10006 16.0262 9.13767 16.1189 9.20491 16.188C9.27215 16.2571 9.36371 16.2972 9.4601 16.2998Z" fill="#4E2583"/>
<path d="M19.1601 18H9.4601C9.36462 18 9.27305 18.0379 9.20554 18.1054C9.13803 18.173 9.1001 18.2645 9.1001 18.36C9.10006 18.4564 9.13767 18.549 9.20491 18.6182C9.27215 18.6873 9.36371 18.7274 9.4601 18.73H19.1601C19.2565 18.7274 19.348 18.6873 19.4153 18.6182C19.4825 18.549 19.5201 18.4564 19.5201 18.36C19.5201 18.2645 19.4822 18.173 19.4147 18.1054C19.3471 18.0379 19.2556 18 19.1601 18Z" fill="#4E2583"/>
<path fill-rule="evenodd" clip-rule="evenodd" d="M8.8 5.5C8.06773 5.5 7.51429 6.03807 7.51429 6.75V7.25C7.51429 7.38807 7.39916 7.5 7.25714 7.5C7.11513 7.5 7 7.38807 7 7.25V6.75C7 5.76193 7.7837 5 8.8 5C9.8163 5 10.6 5.76193 10.6 6.75V7.15C10.6 7.60279 10.4273 8.07642 10.054 8.38438L9.44468 8.97678C9.18109 9.23305 9.05714 9.52064 9.05714 9.85V10.25C9.05714 10.3881 8.94202 10.5 8.8 10.5C8.65798 10.5 8.54286 10.3881 8.54286 10.25V9.85C8.54286 9.37936 8.72748 8.96695 9.08103 8.62322L9.69817 8.02322C9.70367 8.01788 9.70941 8.01278 9.71538 8.00795C9.95269 7.81568 10.0857 7.49344 10.0857 7.15V6.75C10.0857 6.03807 9.53227 5.5 8.8 5.5Z" fill="#4E2583" stroke="#4E2583" stroke-width="0.2" stroke-miterlimit="10" stroke-linecap="round" stroke-linejoin="round"/>
<path fill-rule="evenodd" clip-rule="evenodd" d="M8.28564 11.5C8.28564 11.2239 8.5159 11 8.79993 11C9.08396 11 9.31422 11.2239 9.31422 11.5C9.31422 11.7761 9.08396 12 8.79993 12C8.5159 12 8.28564 11.7761 8.28564 11.5Z" fill="#4E2583"/>
</g>
<defs>
<clipPath id="clip0">
<rect width="24" height="24" fill="white"/>
</clipPath>
</defs>
</svg>
