<svg width="24" height="24" viewBox="0 0 24 24" fill="none" xmlns="http://www.w3.org/2000/svg">
<g clip-path="url(#clip0)">
<path d="M9.06326 11.471C8.45621 11.1117 7.78174 10.8793 7.08117 10.7882C6.38061 10.6971 5.66871 10.7492 4.9891 10.9412C4.95375 10.9521 4.91752 10.9599 4.88082 10.9645C4.89541 10.4767 5.05194 10.0036 5.33147 9.60239C5.94981 8.54111 7.13291 7.3762 8.59796 7.28887C8.72165 7.28155 8.83856 7.2302 8.92729 7.14422C9.01601 7.05823 9.07061 6.94337 9.0811 6.82065L9.27446 4.55596C9.28077 4.48168 9.2707 4.40692 9.24495 4.33691C9.21921 4.26689 9.1784 4.2033 9.12539 4.15057C9.07262 4.09754 9.00873 4.05673 8.93828 4.03104C8.86783 4.00535 8.79254 3.99542 8.71779 4.00195C5.54045 4.26496 0.787785 6.83248 0.127888 10.9685C-0.308434 13.7044 0.392507 16.6158 1.91293 18.3855C2.32809 18.9041 2.85431 19.3241 3.45332 19.6152C4.05233 19.9062 4.70906 20.0608 5.37576 20.0679C6.23271 20.1018 7.08655 19.9463 7.87568 19.6125C8.66481 19.2786 9.36955 18.7749 9.93904 18.1375C10.3875 17.6097 10.7118 16.9891 10.8885 16.3209C11.0652 15.6527 11.0898 14.9538 10.9605 14.275C10.8665 13.6993 10.6482 13.1506 10.3207 12.6665C9.99324 12.1825 9.56427 11.7747 9.06326 11.471ZM9.14808 17.4796C8.67441 18.0008 8.09046 18.4114 7.43818 18.6816C6.7859 18.9519 6.08149 19.0752 5.37556 19.0427C4.8577 19.0367 4.34788 18.9146 3.8841 18.6855C3.42032 18.4564 3.01453 18.1263 2.69699 17.7196C1.38452 16.1924 0.761127 13.5433 1.14635 11.1289C1.68337 7.76231 5.39221 5.57794 8.19262 5.10121L8.08867 6.31768C6.07072 6.67002 4.61774 8.51507 4.10691 9.7545C3.75629 10.6053 3.75974 11.291 4.11723 11.6854C4.26459 11.8361 4.45399 11.9394 4.66101 11.9821C4.86803 12.0248 5.08316 12.0049 5.27867 11.9249C5.81949 11.7746 6.38522 11.7341 6.94213 11.8058C7.49904 11.8774 8.03573 12.0598 8.5202 12.3421C8.89694 12.5713 9.21934 12.8788 9.4653 13.2435C9.71126 13.6081 9.87496 14.0214 9.94518 14.4548C10.0469 14.9862 10.0282 15.5334 9.8903 16.0567C9.75241 16.5799 9.49885 17.066 9.14808 17.4796ZM23.4567 14.275C23.3626 13.6993 23.1444 13.1506 22.817 12.6666C22.4896 12.1826 22.0607 11.7747 21.5597 11.471C20.9527 11.1115 20.2781 10.8791 19.5774 10.788C18.8768 10.6969 18.1648 10.7491 17.4851 10.9412C17.4498 10.9521 17.4135 10.9599 17.3768 10.9645C17.3915 10.4767 17.548 10.0036 17.8275 9.60239C18.4459 8.54111 19.6292 7.3762 21.094 7.28887C21.2177 7.28159 21.3346 7.23025 21.4233 7.14426C21.5119 7.05826 21.5665 6.94337 21.5769 6.82065L21.7702 4.55596C21.7766 4.48168 21.7667 4.4069 21.741 4.33685C21.7153 4.2668 21.6745 4.20317 21.6216 4.15041C21.5686 4.09764 21.5046 4.05701 21.4342 4.03136C21.3638 4.00571 21.2886 3.99565 21.2138 4.0019C18.0365 4.26517 13.2835 6.83243 12.6244 10.9685C12.1879 13.7044 12.8888 16.6157 14.4095 18.3857C14.8246 18.9042 15.3507 19.3242 15.9496 19.6152C16.5486 19.9062 17.2052 20.0608 17.8718 20.0679C18.7288 20.1018 19.5826 19.9463 20.3717 19.6125C21.1608 19.2787 21.8656 18.775 22.4351 18.1377C22.8836 17.6098 23.208 16.9892 23.3847 16.321C23.5614 15.6528 23.586 14.9538 23.4567 14.275ZM21.6445 17.4798C21.1707 18.001 20.5868 18.4115 19.9345 18.6817C19.2822 18.952 18.5779 19.0753 17.8719 19.043C17.3541 19.037 16.8444 18.9149 16.3806 18.6858C15.9169 18.4568 15.5112 18.1267 15.1936 17.7201C13.8809 16.1924 13.258 13.5436 13.6427 11.1294C14.1795 7.76283 17.8885 5.57845 20.6887 5.10172L20.5852 6.31794C18.5675 6.67028 17.1143 8.51533 16.6032 9.75476C16.2526 10.6055 16.2563 11.2913 16.6136 11.6857C16.7611 11.8361 16.9505 11.9394 17.1575 11.982C17.3645 12.0247 17.5796 12.0049 17.7752 11.9251C18.316 11.775 18.8817 11.7345 19.4385 11.8062C19.9954 11.8779 20.532 12.0602 21.0165 12.3423C21.3932 12.5715 21.7156 12.879 21.9616 13.2437C22.2076 13.6084 22.3713 14.0216 22.4415 14.4551C22.5432 14.9865 22.5244 15.5337 22.3865 16.0569C22.2487 16.5801 21.9952 17.0662 21.6445 17.4798Z" fill="#4E2583"/>
</g>
<defs>
<clipPath id="clip0">
<rect width="24" height="24" fill="white"/>
</clipPath>
</defs>
</svg>
