<svg width="24" height="24" viewBox="0 0 24 24" fill="none" xmlns="http://www.w3.org/2000/svg">
<path d="M4.48988 4.78982H10.8299C10.9254 4.78982 11.0169 4.7519 11.0844 4.68438C11.152 4.61687 11.1899 4.5253 11.1899 4.42982C11.1899 4.33435 11.152 4.24278 11.0844 4.17527C11.0169 4.10775 10.9254 4.06982 10.8299 4.06982H4.48988C4.3944 4.06982 4.30284 4.10775 4.23532 4.17527C4.16781 4.24278 4.12988 4.33435 4.12988 4.42982C4.12988 4.5253 4.16781 4.61687 4.23532 4.68438C4.30284 4.7519 4.3944 4.78982 4.48988 4.78982Z" fill="#4E2583"/>
<path d="M6.63979 7.36012C6.63845 7.40823 6.64677 7.45612 6.66427 7.50096C6.68176 7.54579 6.70806 7.58667 6.74163 7.62117C6.77519 7.65566 6.81533 7.68308 6.85967 7.70179C6.90401 7.7205 6.95166 7.73014 6.99979 7.73012H14.7398C14.7928 7.73892 14.8471 7.73608 14.8988 7.72179C14.9506 7.7075 14.9987 7.6821 15.0396 7.64737C15.0806 7.61263 15.1136 7.56939 15.1361 7.52065C15.1587 7.47191 15.1704 7.41884 15.1704 7.36512C15.1704 7.3114 15.1587 7.25832 15.1361 7.20958C15.1136 7.16084 15.0806 7.1176 15.0396 7.08287C14.9987 7.04813 14.9506 7.02274 14.8988 7.00845C14.8471 6.99416 14.7928 6.99132 14.7398 7.00012H6.99979C6.90431 7.00012 6.81274 7.03805 6.74523 7.10556C6.67772 7.17307 6.63979 7.26464 6.63979 7.36012Z" fill="#4E2583"/>
<path d="M13.6201 9.93018H7.00014C6.90375 9.93278 6.81219 9.97291 6.74495 10.042C6.67771 10.1111 6.6401 10.2038 6.64014 10.3002C6.64014 10.3957 6.67807 10.4872 6.74558 10.5547C6.81309 10.6222 6.90466 10.6602 7.00014 10.6602H13.6201C13.6687 10.6615 13.7171 10.6532 13.7625 10.6359C13.8079 10.6185 13.8494 10.5923 13.8847 10.5589C13.92 10.5255 13.9484 10.4854 13.9682 10.441C13.988 10.3966 13.9988 10.3488 14.0001 10.3002C13.9976 10.2028 13.9578 10.1102 13.889 10.0413C13.8201 9.9725 13.7275 9.93271 13.6301 9.93018" fill="#4E2583"/>
<path d="M12.4301 12.8701H7.00014C6.90466 12.8701 6.81309 12.908 6.74558 12.9756C6.67807 13.0431 6.64014 13.1346 6.64014 13.2301C6.64014 13.3256 6.67807 13.4172 6.74558 13.4847C6.81309 13.5522 6.90466 13.5901 7.00014 13.5901H12.4301C12.5256 13.5901 12.6172 13.5522 12.6847 13.4847C12.7522 13.4172 12.7901 13.3256 12.7901 13.2301C12.7901 13.1346 12.7522 13.0431 12.6847 12.9756C12.6172 12.908 12.5256 12.8701 12.4301 12.8701Z" fill="#4E2583"/>
<path d="M8.80014 15.8101H7.00014C6.90375 15.8127 6.81219 15.8528 6.74495 15.9219C6.67771 15.991 6.6401 16.0836 6.64014 16.1801C6.64014 16.2755 6.67807 16.3671 6.74558 16.4346C6.81309 16.5021 6.90466 16.5401 7.00014 16.5401H8.80014C8.89562 16.5401 8.98718 16.5021 9.0547 16.4346C9.12221 16.3671 9.16014 16.2755 9.16014 16.1801C9.16017 16.0836 9.12257 15.991 9.05533 15.9219C8.98808 15.8528 8.89652 15.8127 8.80014 15.8101Z" fill="#4E2583"/>
<path d="M8.72014 18.8501H7.00014C6.90466 18.8501 6.81309 18.888 6.74558 18.9555C6.67807 19.0231 6.64014 19.1146 6.64014 19.2101C6.6401 19.3065 6.67771 19.3991 6.74495 19.4683C6.81219 19.5374 6.90375 19.5775 7.00014 19.5801H8.72014C8.81652 19.5775 8.90809 19.5374 8.97533 19.4683C9.04257 19.3991 9.08017 19.3065 9.08014 19.2101C9.08014 19.1146 9.04221 19.0231 8.9747 18.9555C8.90718 18.888 8.81561 18.8501 8.72014 18.8501Z" fill="#4E2583"/>
<path d="M4.90988 7H4.48988C4.3944 7 4.30284 7.03793 4.23532 7.10544C4.16781 7.17295 4.12988 7.26452 4.12988 7.36C4.12985 7.45642 4.16745 7.54905 4.23469 7.61816C4.30193 7.68726 4.3935 7.72739 4.48988 7.73H4.90988C5.00722 7.72747 5.09986 7.68768 5.16871 7.61883C5.23756 7.54998 5.27735 7.45733 5.27988 7.36C5.27728 7.26361 5.23715 7.17205 5.16804 7.10481C5.09893 7.03757 5.0063 6.99996 4.90988 7Z" fill="#4E2583"/>
<path d="M4.90988 9.93018H4.48988C4.3935 9.93278 4.30193 9.97291 4.23469 10.042C4.16745 10.1111 4.12985 10.2038 4.12988 10.3002C4.12988 10.3957 4.16781 10.4872 4.23532 10.5547C4.30284 10.6222 4.3944 10.6602 4.48988 10.6602H4.90988C5.0063 10.6602 5.09893 10.6226 5.16804 10.5554C5.23715 10.4881 5.27728 10.3966 5.27988 10.3002C5.27735 10.2028 5.23756 10.1102 5.16871 10.0413C5.09986 9.9725 5.00722 9.93271 4.90988 9.93018Z" fill="#4E2583"/>
<path d="M4.90988 12.8701H4.48988C4.3944 12.8701 4.30284 12.908 4.23532 12.9756C4.16781 13.0431 4.12988 13.1346 4.12988 13.2301C4.12988 13.3256 4.16781 13.4172 4.23532 13.4847C4.30284 13.5522 4.3944 13.5901 4.48988 13.5901H4.90988C5.00536 13.5901 5.09693 13.5522 5.16444 13.4847C5.23195 13.4172 5.26988 13.3256 5.26988 13.2301C5.26988 13.1346 5.23195 13.0431 5.16444 12.9756C5.09693 12.908 5.00536 12.8701 4.90988 12.8701Z" fill="#4E2583"/>
<path d="M4.90988 15.8101H4.48988C4.3935 15.8127 4.30193 15.8528 4.23469 15.9219C4.16745 15.991 4.12985 16.0836 4.12988 16.1801C4.12988 16.2755 4.16781 16.3671 4.23532 16.4346C4.30284 16.5021 4.3944 16.5401 4.48988 16.5401H4.90988C5.0063 16.5401 5.09893 16.5025 5.16804 16.4352C5.23715 16.368 5.27728 16.2764 5.27988 16.1801C5.27735 16.0827 5.23756 15.9901 5.16871 15.9212C5.09986 15.8524 5.00722 15.8126 4.90988 15.8101Z" fill="#4E2583"/>
<path d="M4.90988 18.8501H4.48988C4.3944 18.8501 4.30284 18.888 4.23532 18.9555C4.16781 19.0231 4.12988 19.1146 4.12988 19.2101C4.12985 19.3065 4.16745 19.3991 4.23469 19.4683C4.30193 19.5374 4.3935 19.5775 4.48988 19.5801H4.90988C5.00722 19.5776 5.09986 19.5378 5.16871 19.4689C5.23756 19.4001 5.27735 19.3074 5.27988 19.2101C5.27728 19.1137 5.23715 19.0221 5.16804 18.9549C5.09893 18.8877 5.0063 18.8501 4.90988 18.8501Z" fill="#4E2583"/>
<path d="M19.18 23.11C18.2045 23.3734 17.1648 23.2479 16.28 22.76C16.2246 22.7297 16.163 22.7126 16.1 22.71C16.0477 22.695 15.9923 22.695 15.94 22.71C15.94 22.71 13.78 23.77 12.24 22.81C11.11 22.11 10.54 20.49 10.55 18.04C10.5368 17.5286 10.6472 17.0217 10.8718 16.5621C11.0964 16.1025 11.4285 15.7038 11.84 15.4C13.42 14.4 15.94 15.4 15.97 15.4H16.1H16.22C16.22 15.4 19.22 14.35 20.65 15.71C20.2864 15.7423 19.9395 15.8776 19.65 16.1C19.3061 16.4484 19.0393 16.8653 18.867 17.3236C18.6947 17.7819 18.6208 18.2713 18.65 18.76C18.6408 19.1618 18.7182 19.5609 18.8769 19.9302C19.0356 20.2995 19.272 20.6302 19.57 20.9C19.9209 21.2016 20.3587 21.3837 20.82 21.42C20.6736 21.7959 20.453 22.1384 20.1712 22.4271C19.8894 22.7158 19.5523 22.9446 19.18 23.1V23.11ZM1.73 21.9V0.73H13.44V4.43C13.4426 4.52639 13.4827 4.61795 13.5518 4.68519C13.621 4.75243 13.7136 4.79004 13.81 4.79H17.51V8.26C16.7771 8.45595 16.1235 8.87538 15.64 9.46C15.4008 9.76452 15.25 10.129 15.2041 10.5135C15.1583 10.898 15.2191 11.2878 15.38 11.64C15.1668 11.8806 15.0067 12.1634 14.91 12.47C14.698 12.3489 14.4733 12.2517 14.24 12.18C14.1473 12.1584 14.0498 12.1734 13.9679 12.2218C13.886 12.2702 13.8258 12.3484 13.8 12.44C13.7751 12.5328 13.7873 12.6316 13.8339 12.7156C13.8806 12.7996 13.9581 12.8621 14.05 12.89C14.4357 13.007 14.7856 13.2196 15.0671 13.508C15.3486 13.7965 15.5525 14.1515 15.66 14.54C14.275 14.0722 12.7609 14.1729 11.45 14.82C10.9357 15.1841 10.5189 15.6692 10.2363 16.2325C9.95381 16.7958 9.81426 17.42 9.83 18.05C9.76817 19.3679 10.0005 20.683 10.51 21.9H1.73ZM17 4.07H14.17V1.24L17 4.07ZM19.94 8.8C19.46 9.72 18.1 11.8 16.06 11.41C15.941 11.169 15.8929 10.8991 15.9212 10.6318C15.9495 10.3645 16.0531 10.1107 16.22 9.9C16.7016 9.42456 17.2931 9.0754 17.9421 8.8835C18.591 8.69161 19.2773 8.66292 19.94 8.8ZM17.51 14.36C17.07 14.43 16.68 14.52 16.41 14.59C16.2936 13.9842 15.9933 13.429 15.55 13C15.5893 12.6803 15.7254 12.3802 15.94 12.14C16.1598 12.1907 16.3844 12.2175 16.61 12.22C16.9154 12.2194 17.2189 12.1722 17.51 12.08V14.36ZM21.37 20.68H21.28C21.0563 20.727 20.8249 20.7226 20.6032 20.6672C20.3815 20.6118 20.1752 20.5067 20 20.36C19.7849 20.1559 19.615 19.9089 19.5013 19.635C19.3877 19.3611 19.3327 19.0664 19.34 18.77C19.3017 18.3935 19.3424 18.0131 19.4595 17.6533C19.5766 17.2934 19.7675 16.9619 20.02 16.68C20.1934 16.5612 20.3915 16.4833 20.5993 16.4521C20.8072 16.421 21.0194 16.4373 21.22 16.5C21.3043 16.5263 21.3946 16.5259 21.4787 16.4991C21.5627 16.4723 21.6365 16.4202 21.69 16.35C21.7216 16.2953 21.7382 16.2332 21.7382 16.17C21.7382 16.1068 21.7216 16.0447 21.69 15.99C21.344 15.3893 20.8249 14.9067 20.2006 14.6052C19.5763 14.3038 18.8757 14.1974 18.19 14.3V11.74C19.3505 11.0079 20.2527 9.93089 20.77 8.66C20.7924 8.6114 20.804 8.55852 20.804 8.505C20.804 8.45148 20.7924 8.3986 20.77 8.35C20.7453 8.3045 20.7111 8.26487 20.6696 8.23381C20.6282 8.20275 20.5806 8.18098 20.53 8.17C19.7677 8.00477 18.9819 7.97767 18.21 8.09V4.41C18.2154 4.38025 18.2154 4.34975 18.21 4.32C18.194 4.27916 18.1702 4.24181 18.14 4.21L14.07 0.11L14 0H1.36C1.26452 0 1.17295 0.0379285 1.10544 0.105442C1.03793 0.172955 1 0.264522 1 0.36V22.27C1 22.3655 1.03793 22.457 1.10544 22.5246C1.17295 22.5921 1.26452 22.63 1.36 22.63H11C11.245 22.9673 11.5542 23.2528 11.91 23.47C12.5682 23.7931 13.2917 23.9611 14.025 23.9611C14.7583 23.9611 15.4818 23.7931 16.14 23.47C16.8071 23.7968 17.5374 23.9743 18.28 23.99C18.6892 23.9909 19.0954 23.9198 19.48 23.78C20.0325 23.5427 20.5245 23.184 20.9192 22.7304C21.3139 22.2768 21.6013 21.74 21.76 21.16C21.7872 21.1075 21.8014 21.0492 21.8014 20.99C21.8014 20.9308 21.7872 20.8725 21.76 20.82C21.7248 20.7737 21.6795 20.7361 21.6274 20.7101C21.5754 20.6841 21.5181 20.6704 21.46 20.67" fill="#4E2583"/>
<path d="M13.3799 16.1899C12.8999 16.2477 12.4603 16.4873 12.1515 16.8593C11.8427 17.2313 11.6883 17.7075 11.7199 18.1899C11.7141 18.7685 11.8089 19.3437 11.9999 19.8899C12.0234 19.9611 12.0691 20.0228 12.1303 20.066C12.1915 20.1092 12.265 20.1316 12.3399 20.1299H12.4699C12.5148 20.1133 12.5561 20.0879 12.5911 20.0551C12.6261 20.0223 12.6542 19.9829 12.6738 19.9391C12.6933 19.8953 12.7039 19.8481 12.705 19.8001C12.706 19.7522 12.6975 19.7045 12.6799 19.6599C12.5268 19.1992 12.4557 18.7152 12.4699 18.2299C12.5299 17.4399 12.8499 17.0299 13.4699 16.9399C13.5653 16.9267 13.6516 16.876 13.7098 16.7991C13.7679 16.7223 13.7931 16.6254 13.7799 16.5299C13.7666 16.4345 13.716 16.3482 13.6391 16.29C13.5622 16.2319 13.4653 16.2067 13.3699 16.2199" fill="#4E2583"/>
</svg>
