<svg width="24" height="24" viewBox="0 0 24 24" fill="none" xmlns="http://www.w3.org/2000/svg">
<g clip-path="url(#clip0)">
<path d="M23.5472 4.8464C22.7094 2.70833 20.8881 1.3445 18.6938 1.18314C18.5404 1.17383 18.387 1.17383 18.2182 1.17383C17.2342 1.17709 16.2626 1.39486 15.3694 1.81229C14.4762 2.22973 13.6826 2.83701 13.0426 3.59273C13.0277 3.60106 13.0113 3.60619 12.9944 3.6078C12.9775 3.6094 12.9605 3.60744 12.9444 3.60204C12.3033 2.84208 11.5071 2.23153 10.6105 1.81236C9.71392 1.39319 8.73816 1.17535 7.75036 1.17383C7.61073 1.17383 7.4711 1.17383 7.333 1.18314H7.2839C5.08967 1.33829 3.27445 2.70833 2.43052 4.8464C1.93673 6.07827 1.84639 7.43773 2.17274 8.72533C1.48753 9.39474 0.942155 10.1964 0.568939 11.0828C0.195724 11.9693 0.00225685 12.9224 0 13.8859C0 17.8098 3.10567 20.9998 6.91563 20.9998C8.47221 20.995 9.98066 20.4537 11.1921 19.4653C11.5639 19.7519 11.967 19.9945 12.3935 20.1883C12.5863 20.2475 12.7875 20.2742 12.9889 20.2675C13.1902 20.2737 13.3913 20.247 13.5842 20.1883C16.1344 19.1147 21.0461 13.0744 22.4839 11.2482C23.2339 10.3875 23.7309 9.33196 23.9188 8.2007C24.1067 7.06944 23.978 5.90758 23.5472 4.8464ZM10.9542 18.733C9.78477 19.7774 8.26411 20.3291 6.70476 20.2749C5.14542 20.2206 3.66586 19.5645 2.57015 18.4413C1.97631 17.8447 1.50558 17.1348 1.18527 16.3528C0.864971 15.5708 0.701482 14.7323 0.704299 13.8859C0.706897 12.9856 0.895353 12.0958 1.2576 11.2734C1.61985 10.4511 2.14791 9.71425 2.80799 9.11012C3.93484 8.08166 5.39766 7.51032 6.91563 7.50579C10.3389 7.50579 13.1285 10.3746 13.1285 13.8859C13.1298 14.804 12.9364 15.7118 12.5613 16.5479C12.1863 17.384 11.6382 18.1292 10.9542 18.733ZM21.9299 10.806C21.3162 11.5818 15.846 18.4614 13.3264 19.515C13.1068 19.5553 12.8817 19.5553 12.662 19.515C12.3327 19.369 12.0199 19.1875 11.7291 18.9735L11.7982 18.9036C11.878 18.823 11.9516 18.733 12.036 18.6523C12.1204 18.5716 12.2048 18.4413 12.2846 18.342L12.3444 18.2613C12.3935 18.2008 12.4426 18.1403 12.4979 18.0704C12.5761 17.9603 12.6513 17.8501 12.7157 17.74C12.7802 17.6298 12.8354 17.5491 12.8937 17.4483C12.9503 17.3477 13.0015 17.2441 13.0472 17.1379L13.127 16.9828C13.1561 16.9114 13.196 16.8525 13.2252 16.7811C13.2758 16.6616 13.3249 16.5313 13.3786 16.401C13.3894 16.3606 13.4093 16.3203 13.4185 16.2799C13.4452 16.2215 13.4683 16.1614 13.4876 16.0999C13.5182 15.9882 13.5474 15.8781 13.5781 15.7788L13.6072 15.6484C13.6272 15.5569 13.6563 15.4669 13.6763 15.3769C13.7053 15.2472 13.7243 15.1155 13.7331 14.9828L13.7622 14.8277L13.7929 14.657C13.8129 14.4056 13.8328 14.145 13.8328 13.8936C13.8328 9.98055 10.7271 6.79052 6.91563 6.79052C6.71769 6.79052 6.50901 6.79983 6.31107 6.82C6.26753 6.82215 6.22433 6.82891 6.18218 6.84017L5.99345 6.86034C5.89371 6.8712 5.80471 6.89137 5.70498 6.90068C5.63593 6.92085 5.55153 6.93016 5.47788 6.95033L5.39809 6.9705C5.3091 6.99067 5.2201 7.01084 5.12036 7.04187C5.05926 7.05334 4.99921 7.06995 4.94084 7.09152L4.88253 7.11169C4.77358 7.15203 4.66311 7.18151 4.55416 7.22185C4.4724 7.24914 4.39288 7.28287 4.31633 7.32271C4.20738 7.36305 4.10764 7.4127 3.9987 7.45304C3.92965 7.49338 3.8606 7.52286 3.77007 7.57251C3.67954 7.62216 3.61663 7.65319 3.54298 7.70284L3.46319 7.74318C3.38817 7.78636 3.31544 7.83349 3.2453 7.88438C3.14556 7.9542 3.04583 8.01471 2.95683 8.08453C2.89699 8.12487 2.84789 8.16521 2.78804 8.20555C2.72119 7.86843 2.68829 7.52534 2.68984 7.18151C2.6902 6.4764 2.8246 5.77794 3.08572 5.12413C3.82071 3.24052 5.4073 2.04736 7.3422 1.90617C7.48184 1.89686 7.61993 1.89686 7.75036 1.89686C8.63464 1.89972 9.50792 2.09522 10.3107 2.47007C11.1136 2.84491 11.8271 3.39029 12.4027 4.06906C12.4748 4.15434 12.5649 4.22217 12.6663 4.26756C12.7678 4.31294 12.878 4.33471 12.9889 4.33128C13.0983 4.33584 13.2074 4.31451 13.3072 4.26899C13.4071 4.22347 13.4951 4.15501 13.5643 4.06906C14.14 3.39001 14.8538 2.84446 15.6569 2.4696C16.46 2.09475 17.3336 1.89939 18.2182 1.89686C18.3578 1.89686 18.5067 1.90772 18.6447 1.91703C20.5597 2.04736 22.1478 3.24207 22.892 5.11792C23.2658 6.06357 23.3738 7.09529 23.204 8.0991C23.0342 9.1029 22.5933 10.0397 21.9299 10.806Z" fill="#4E2583"/>
<path d="M10.4784 12.6319H8.14611V10.2238C8.14632 10.1763 8.13721 10.1292 8.11931 10.0852C8.10142 10.0413 8.07509 10.0013 8.04185 9.96774C8.00861 9.93412 7.96912 9.9075 7.92565 9.88941C7.88218 9.87131 7.8356 9.8621 7.78859 9.86231H6.04242C5.9476 9.86231 5.85666 9.9004 5.78962 9.96819C5.72257 10.036 5.6849 10.1279 5.6849 10.2238V12.6319H3.35412C3.30711 12.6317 3.26053 12.6409 3.21706 12.659C3.17359 12.6771 3.1341 12.7037 3.10086 12.7373C3.06762 12.7709 3.04129 12.8108 3.0234 12.8548C3.0055 12.8987 2.99639 12.9458 2.9966 12.9934V14.7885C2.99619 14.8361 3.00515 14.8833 3.02298 14.9274C3.0408 14.9714 3.06712 15.0114 3.1004 15.0451C3.13368 15.0788 3.17325 15.1054 3.21682 15.1234C3.26038 15.1414 3.30705 15.1505 3.35412 15.1501H5.6849V17.5581C5.6847 17.6056 5.69381 17.6527 5.7117 17.6967C5.7296 17.7406 5.75592 17.7806 5.78916 17.8142C5.8224 17.8478 5.8619 17.8744 5.90536 17.8925C5.94883 17.9106 5.99541 17.9198 6.04242 17.9196H7.78859C7.83566 17.92 7.88233 17.911 7.92589 17.8929C7.96945 17.8749 8.00903 17.8483 8.04231 17.8147C8.07559 17.781 8.10191 17.741 8.11973 17.6969C8.13755 17.6529 8.14652 17.6057 8.14611 17.5581V15.1501H10.4784C10.5257 15.1511 10.5726 15.1425 10.6165 15.1247C10.6603 15.1069 10.7002 15.0803 10.7336 15.0465C10.767 15.0128 10.7933 14.9725 10.8109 14.9281C10.8285 14.8838 10.837 14.8363 10.836 14.7885V12.9934C10.836 12.8975 10.7983 12.8055 10.7312 12.7377C10.6642 12.67 10.5733 12.6319 10.4784 12.6319ZM6.04242 14.4286H3.70089V13.3549H6.04242C6.08895 13.3549 6.13501 13.3455 6.17788 13.3272C6.22075 13.3089 6.25956 13.2822 6.29203 13.2485C6.3245 13.2148 6.34996 13.1748 6.36691 13.131C6.38386 13.0872 6.39196 13.0404 6.39073 12.9934V10.5853H7.44181V12.9934C7.44059 13.0403 7.44864 13.087 7.4655 13.1307C7.48235 13.1744 7.50768 13.2142 7.53998 13.2479C7.57229 13.2816 7.61092 13.3084 7.65361 13.3268C7.6963 13.3451 7.74219 13.3547 7.78859 13.3549H10.127V14.4286H7.78859C7.74227 14.4286 7.69641 14.4379 7.65372 14.4561C7.61104 14.4743 7.57239 14.501 7.54007 14.5346C7.50774 14.5681 7.4824 14.6079 7.46552 14.6515C7.44864 14.6951 7.44058 14.7417 7.44181 14.7885V17.1966H6.39073V14.7885C6.39197 14.7416 6.38386 14.6949 6.36689 14.6511C6.34992 14.6074 6.32443 14.5676 6.29194 14.534C6.25946 14.5004 6.22063 14.4738 6.17776 14.4557C6.1349 14.4376 6.08888 14.4284 6.04242 14.4286Z" fill="#4E2583"/>
</g>
<defs>
<clipPath id="clip0">
<rect width="24" height="24" fill="white"/>
</clipPath>
</defs>
</svg>
