<svg width="24" height="24" viewBox="0 0 24 24" fill="none" xmlns="http://www.w3.org/2000/svg">
<path fill-rule="evenodd" clip-rule="evenodd" d="M0.519124 12.1006L0.500098 12.5001H0.100098C0.100098 12.3907 0.144896 12.2861 0.224064 12.2106C0.303231 12.1351 0.409859 12.0953 0.519124 12.1006ZM3.5001 21.5001C3.87957 21.6266 3.87958 21.6265 3.87961 21.6265L3.88497 21.6103L3.90029 21.5639C3.91369 21.5233 3.93329 21.4635 3.95827 21.3866C4.00822 21.2328 4.07971 21.0104 4.16607 20.7357C4.33874 20.1862 4.57114 19.4263 4.80992 18.5842C5.28402 16.9124 5.79543 14.8761 5.89892 13.5308C5.90788 13.4144 5.86551 13.2998 5.78294 13.2173C5.63055 13.0649 5.42376 12.9501 5.21313 12.8598C4.99683 12.7671 4.74629 12.6877 4.48173 12.6191C3.95248 12.4819 3.33402 12.3794 2.75183 12.3035C2.16767 12.2273 1.61024 12.1766 1.19953 12.145C0.99393 12.1292 0.824535 12.1181 0.706246 12.111C0.64709 12.1074 0.600681 12.1048 0.568881 12.1031L0.532359 12.1012L0.522744 12.1007L0.520174 12.1006C0.520106 12.1006 0.519124 12.1006 0.500098 12.5001H0.100098V21.5001C0.100098 21.721 0.279184 21.9001 0.500098 21.9001H3.49909L3.5001 21.5001ZM3.5001 21.5001L3.87961 21.6265C3.82516 21.7898 3.67227 21.9001 3.5001 21.9001V21.5001ZM3.21015 21.1001C3.25854 20.9508 3.32449 20.7452 3.40288 20.4958C3.57395 19.9515 3.80406 19.1989 4.04027 18.366C4.48968 16.7812 4.9504 14.9418 5.08158 13.6854C5.03275 13.6573 4.97211 13.6269 4.898 13.5951C4.7315 13.5237 4.52266 13.4562 4.28096 13.3935C3.79772 13.2683 3.21617 13.1708 2.64836 13.0967C2.08252 13.0229 1.53995 12.9736 1.13817 12.9427C1.05181 12.936 0.972061 12.9302 0.900098 12.9253V21.1001H3.21015Z" fill="#4E2583"/>
<path fill-rule="evenodd" clip-rule="evenodd" d="M20.3959 18.3885L16.602 19.3869C16.3884 19.4431 16.1696 19.3155 16.1134 19.1018C16.0572 18.8882 16.1848 18.6694 16.3984 18.6132L20.2102 17.6101C21.6879 17.2691 23.1743 17.9538 23.858 19.3212C23.9066 19.4183 23.9135 19.5311 23.8773 19.6335C23.841 19.736 23.7646 19.8192 23.6657 19.8642L18.1657 22.3642C18.1606 22.3665 18.1555 22.3687 18.1503 22.3708C16.0728 23.2117 14.8952 23.6858 13.9891 23.8324C13.0293 23.9877 12.3692 23.7781 11.3626 23.3758L3.87372 20.8795C3.66414 20.8097 3.55087 20.5831 3.62073 20.3736C3.69059 20.164 3.91712 20.0507 4.1267 20.1206L11.6267 22.6206C11.6341 22.6231 11.6415 22.6258 11.6488 22.6287C12.636 23.0235 13.1246 23.1619 13.8613 23.0427C14.6542 22.9144 15.725 22.4894 17.8423 21.6324L22.9258 19.3217C22.3531 18.5327 21.3782 18.1641 20.3959 18.3885Z" fill="#4E2583"/>
<path fill-rule="evenodd" clip-rule="evenodd" d="M5.10971 14.4134C5.15763 14.1978 5.3713 14.0618 5.58696 14.1097L14.5901 16.1104C15.2868 16.2712 15.8734 16.5503 16.285 17.0076C16.7028 17.4718 16.9002 18.0748 16.9002 18.8002V19.0002C16.9002 19.1864 16.7716 19.3481 16.5901 19.3899L15.2935 19.6892C14.8331 19.8035 14.272 19.8039 13.811 19.6902L9.51824 18.7917C9.30201 18.7464 9.16341 18.5345 9.20867 18.3182C9.25392 18.102 9.4659 17.9634 9.68213 18.0087L13.9821 18.9087L13.9972 18.9121C14.3335 18.9962 14.7669 18.9962 15.1032 18.9121L15.1102 18.9104L16.098 18.6825C16.0784 18.1707 15.9296 17.8086 15.6904 17.5428C15.4272 17.2503 15.0143 17.0295 14.4118 16.8903C14.4113 16.8902 14.4108 16.8901 14.4102 16.8899L5.41341 14.8907C5.19776 14.8427 5.06179 14.6291 5.10971 14.4134Z" fill="#4E2583"/>
<path d="M13.57 11.9774C12.57 11.3187 7.72 7.98561 7.72 4.70237C7.73813 4.06021 7.96276 3.4409 8.36071 2.93594C8.75866 2.43098 9.30882 2.06715 9.9299 1.89821C10.551 1.72928 11.21 1.76419 11.8097 1.9978C12.4094 2.2314 12.9179 2.65131 13.26 3.19548C13.2936 3.24696 13.3396 3.28925 13.3937 3.31853C13.4478 3.34781 13.5084 3.36314 13.57 3.36314C13.6316 3.36314 13.6922 3.34781 13.7463 3.31853C13.8004 3.28925 13.8464 3.24696 13.88 3.19548C14.2216 2.6519 14.7292 2.23224 15.328 1.99836C15.9267 1.76448 16.5849 1.72875 17.2055 1.89644C17.8261 2.06414 18.3764 2.42638 18.7751 2.92977C19.1738 3.43316 19.3998 4.05106 19.42 4.69239C19.42 7.98561 14.57 11.3088 13.57 11.9774ZM20.14 4.69239C20.1389 3.93032 19.9016 3.18724 19.4606 2.56511C19.0196 1.94297 18.3964 1.47226 17.6767 1.21754C16.957 0.962817 16.1759 0.936572 15.4407 1.1424C14.7054 1.34824 14.052 1.77606 13.57 2.36718C13.2212 1.94335 12.7834 1.6012 12.2874 1.36494C11.7915 1.12869 11.2495 1.0041 10.7 1C9.7187 1 8.77759 1.38902 8.0837 2.08148C7.38982 2.77393 7 3.71311 7 4.69239C7 8.77398 13.12 12.5562 13.38 12.6759C13.4425 12.6908 13.5075 12.6908 13.57 12.6759C13.6326 12.6894 13.6974 12.6894 13.76 12.6759C14.02 12.5163 20.14 8.73406 20.14 4.69239Z" fill="#4E2583"/>
<path d="M16.67 4.47271L13.57 7.98547L12.17 6.53845C12.1037 6.46963 12.0127 6.42992 11.9171 6.42805C11.8214 6.42618 11.729 6.4623 11.66 6.52847C11.5911 6.59464 11.5513 6.68543 11.5494 6.78088C11.5475 6.87633 11.5837 6.96861 11.65 7.03742L13.32 8.76386C13.3533 8.79917 13.3937 8.82717 13.4384 8.84607C13.4832 8.86497 13.5314 8.87436 13.58 8.87364C13.6311 8.87523 13.682 8.86529 13.7287 8.84456C13.7755 8.82382 13.8169 8.79283 13.85 8.75388L17.21 4.99164C17.2422 4.95625 17.2671 4.91489 17.2832 4.86991C17.2994 4.82494 17.3065 4.77722 17.3042 4.7295C17.3018 4.68177 17.2901 4.63497 17.2697 4.59177C17.2492 4.54857 17.2205 4.5098 17.185 4.47769C17.1496 4.44559 17.1081 4.42076 17.063 4.40464C17.018 4.38852 16.9702 4.38141 16.9223 4.38373C16.8745 4.38605 16.8276 4.39774 16.7843 4.41814C16.741 4.43855 16.7022 4.46726 16.67 4.50264" fill="#4E2583"/>
</svg>
