<svg width="24" height="24" viewBox="0 0 24 24" fill="none" xmlns="http://www.w3.org/2000/svg">
<path d="M21.2667 18.7168H2.68673C2.37418 18.7164 2.06478 18.6544 1.77619 18.5344C1.48761 18.4144 1.22548 18.2387 1.00479 18.0174C0.784095 17.7961 0.609153 17.5335 0.489951 17.2446C0.37075 16.9556 0.309623 16.6461 0.310061 16.3335V3.98018C0.310943 3.35012 0.561624 2.74612 1.00714 2.3006C1.45266 1.85508 2.05667 1.6044 2.68673 1.60352H21.2667C21.8968 1.6044 22.5008 1.85508 22.9463 2.3006C23.3918 2.74612 23.6425 3.35012 23.6434 3.98018V16.3335C23.6438 16.6461 23.5827 16.9556 23.4635 17.2446C23.3443 17.5335 23.1694 17.7961 22.9487 18.0174C22.728 18.2387 22.4658 18.4144 22.1773 18.5344C21.8887 18.6544 21.5793 18.7164 21.2667 18.7168ZM2.68673 2.38352C2.26296 2.38351 1.8565 2.55163 1.55653 2.85097C1.25657 3.1503 1.08761 3.55641 1.08673 3.98018V16.3335C1.08761 16.7573 1.25657 17.1634 1.55653 17.4627C1.8565 17.7621 2.26296 17.9302 2.68673 17.9302H21.2667C21.6905 17.9302 22.097 17.7621 22.3969 17.4627C22.6969 17.1634 22.8658 16.7573 22.8667 16.3335V3.98018C22.8658 3.55641 22.6969 3.1503 22.3969 2.85097C22.097 2.55163 21.6905 2.38351 21.2667 2.38352H2.68673Z" fill="#4E2583"/>
<path d="M23.2534 14.0505H0.700059C0.596624 14.0505 0.497426 14.0094 0.424287 13.9363C0.351148 13.8631 0.310059 13.7639 0.310059 13.6605C0.310059 13.5571 0.351148 13.4579 0.424287 13.3847C0.497426 13.3116 0.596624 13.2705 0.700059 13.2705H23.2534C23.3568 13.2705 23.456 13.3116 23.5292 13.3847C23.6023 13.4579 23.6434 13.5571 23.6434 13.6605C23.6434 13.7639 23.6023 13.8631 23.5292 13.9363C23.456 14.0094 23.3568 14.0505 23.2534 14.0505Z" fill="#4E2583"/>
<path d="M16.2534 23.3831H7.70006C7.59662 23.3831 7.49743 23.342 7.42429 23.2688C7.35115 23.1957 7.31006 23.0965 7.31006 22.9931C7.31006 22.8896 7.35115 22.7904 7.42429 22.7173C7.49743 22.6442 7.59662 22.6031 7.70006 22.6031C8.75339 22.6031 9.64339 20.6464 9.64339 18.3264C9.63838 18.2724 9.6447 18.2179 9.66193 18.1665C9.67917 18.115 9.70695 18.0678 9.7435 18.0277C9.78005 17.9876 9.82456 17.9555 9.87419 17.9336C9.92382 17.9117 9.97747 17.9004 10.0317 17.9004C10.086 17.9004 10.1396 17.9117 10.1893 17.9336C10.2389 17.9555 10.2834 17.9876 10.3199 18.0277C10.3565 18.0678 10.3843 18.115 10.4015 18.1665C10.4188 18.2179 10.4251 18.2724 10.4201 18.3264C10.4201 19.9731 9.97339 21.6597 9.18006 22.6031H14.7734C13.9801 21.6664 13.5334 19.9731 13.5334 18.3331C13.5284 18.2791 13.5347 18.2246 13.5519 18.1731C13.5692 18.1217 13.597 18.0744 13.6335 18.0343C13.67 17.9942 13.7146 17.9622 13.7642 17.9403C13.8138 17.9184 13.8675 17.9071 13.9217 17.9071C13.976 17.9071 14.0296 17.9184 14.0793 17.9403C14.1289 17.9622 14.1734 17.9942 14.2099 18.0343C14.2465 18.0744 14.2743 18.1217 14.2915 18.1731C14.3088 18.2246 14.3151 18.2791 14.3101 18.3331C14.3101 20.6664 15.2001 22.6097 16.2534 22.6097C16.3568 22.6097 16.456 22.6508 16.5292 22.724C16.6023 22.7971 16.6434 22.8963 16.6434 22.9997C16.6434 23.1032 16.6023 23.2024 16.5292 23.2755C16.456 23.3487 16.3568 23.3897 16.2534 23.3897V23.3831Z" fill="#4E2583"/>
<path d="M11.9768 16.7701C11.8229 16.7701 11.6725 16.7244 11.5447 16.6388C11.4168 16.5531 11.3173 16.4314 11.2587 16.2891C11.2001 16.1468 11.1851 15.9903 11.2156 15.8395C11.2461 15.6886 11.3208 15.5503 11.43 15.4419C11.5393 15.3336 11.6783 15.2601 11.8294 15.2309C11.9805 15.2017 12.1369 15.218 12.2787 15.2778C12.4205 15.3377 12.5413 15.4382 12.6259 15.5668C12.7104 15.6954 12.7548 15.8462 12.7535 16.0001C12.7517 16.205 12.6691 16.4008 12.5237 16.545C12.3782 16.6892 12.1817 16.7701 11.9768 16.7701Z" fill="#4E2583"/>
<path d="M14.9098 6.01633H2.95982C2.85639 6.01633 2.75719 5.97524 2.68405 5.9021C2.61091 5.82896 2.56982 5.72976 2.56982 5.62633C2.56982 5.52289 2.61091 5.4237 2.68405 5.35056C2.75719 5.27742 2.85639 5.23633 2.95982 5.23633H14.9098C15.0133 5.23633 15.1125 5.27742 15.1856 5.35056C15.2587 5.4237 15.2998 5.52289 15.2998 5.62633C15.2998 5.72976 15.2587 5.82896 15.1856 5.9021C15.1125 5.97524 15.0133 6.01633 14.9098 6.01633Z" fill="#4E2583"/>
<path d="M12.9632 8.27023H2.96324C2.85981 8.27023 2.76061 8.22915 2.68747 8.15601C2.61433 8.08287 2.57324 7.98367 2.57324 7.88023C2.57324 7.7768 2.61433 7.6776 2.68747 7.60446C2.76061 7.53132 2.85981 7.49023 2.96324 7.49023H12.9632C13.0667 7.49023 13.1659 7.53132 13.239 7.60446C13.3122 7.6776 13.3532 7.7768 13.3532 7.88023C13.3532 7.98367 13.3122 8.08287 13.239 8.15601C13.1659 8.22915 13.0667 8.27023 12.9632 8.27023Z" fill="#4E2583"/>
<path d="M11.7433 10.5198H2.95994C2.86316 10.5109 2.77321 10.4661 2.70773 10.3942C2.64225 10.3224 2.60596 10.2287 2.60596 10.1315C2.60596 10.0343 2.64225 9.9406 2.70773 9.86877C2.77321 9.79693 2.86316 9.75214 2.95994 9.74316H11.7433C11.8401 9.75214 11.93 9.79693 11.9955 9.86877C12.061 9.9406 12.0973 10.0343 12.0973 10.1315C12.0973 10.2287 12.061 10.3224 11.9955 10.3942C11.93 10.4661 11.8401 10.5109 11.7433 10.5198Z" fill="#4E2583"/>
</svg>
