<svg width="24" height="24" viewBox="0 0 24 24" fill="none" xmlns="http://www.w3.org/2000/svg">
<g clip-path="url(#clip0)">
<path d="M22.2285 20.0136C21.9987 20.2452 21.7567 20.4646 21.5037 20.6708C21.5037 20.6708 21.5037 20.6708 21.5037 20.6224L21.4457 20.3615V20.2842C21.4457 20.1875 21.3684 20.0812 21.3201 19.9846V19.9266L21.1654 19.6656L21.1171 19.5883L20.9045 19.2984L20.6822 19.0278L20.6242 18.9601L20.2956 18.6412L19.996 18.3609L19.9284 18.3029L19.6867 18.0517L19.4645 17.8294L19.3871 17.7521L19.2228 17.5974C19.1924 17.5768 19.1662 17.5506 19.1455 17.5201L18.9232 17.3268L18.8459 17.2495L18.701 17.1239L18.6043 17.0465L18.44 16.9209L18.3627 16.8629L18.1501 16.7083L18.0728 16.66L17.8988 16.5633H17.8408C17.7676 16.517 17.6899 16.4781 17.6089 16.4473C17.7828 16.3024 17.9568 16.1381 18.1307 15.9641C18.7106 15.3842 19.3968 15.6935 20.9431 17.2398C21.4867 17.7294 21.9555 18.296 22.3348 18.9215C22.4453 19.088 22.495 19.2875 22.4756 19.4864C22.4563 19.6853 22.369 19.8714 22.2285 20.0136ZM6.82319 16.37C1.16941 10.7066 -0.425241 6.15457 1.93292 2.47236H1.9909H2.05855H2.47413H2.53212H2.6191H2.67709H2.77373H2.84139H2.92837H3.00568L3.10233 2.54001L3.16998 2.58834L3.27629 2.65599L3.4116 2.8976L3.50824 2.97492L3.59522 3.04257L3.70153 3.13922L3.78851 3.20687C3.81312 3.23378 3.83892 3.25958 3.86583 3.28419L3.94315 3.37117C3.98926 3.40128 4.03146 3.43699 4.06879 3.47748L4.15577 3.56446L4.30074 3.69976L4.37805 3.76742C4.44571 3.84473 4.52302 3.91238 4.60034 3.9897L4.85162 4.25064H4.89994L4.98692 4.33763L5.05457 4.40528L5.13189 4.50192L5.19954 4.55991L5.28652 4.65656L5.34451 4.72421L5.45082 4.83052C5.47574 4.85057 5.49842 4.87325 5.51847 4.89817L5.58613 4.98515L5.64411 5.06247C5.67156 5.0835 5.69456 5.10978 5.71176 5.13979L5.79875 5.2461V5.32341C5.80059 5.34915 5.80059 5.37499 5.79875 5.40073V5.46838L5.85673 5.55536C5.85356 5.5778 5.85356 5.60057 5.85673 5.62301C5.85673 5.62301 5.85673 5.62301 5.85673 5.70033V5.76798V5.8453V5.91295V5.99027C5.85673 5.99027 5.85673 5.99027 5.85673 6.05792C5.85254 6.08028 5.85254 6.10322 5.85673 6.12557C5.85673 6.12557 5.85673 6.12557 5.85673 6.19322C5.85673 6.26088 5.85673 6.19322 5.85673 6.26088V6.36719C4.83229 9.05394 7.16145 11.4314 9.46162 13.7316C11.7618 16.0318 14.1489 18.4189 16.8454 16.9306C17.5122 16.9306 18.3917 17.7617 19.1745 18.5446L19.3968 18.7765C19.425 18.7998 19.4508 18.8257 19.4741 18.8538L19.6094 18.9891L19.6867 19.0761L19.8027 19.2017L19.88 19.2887L19.9863 19.4047L20.054 19.4917L20.1506 19.598L20.2086 19.6753L20.2956 19.7816L20.3536 19.8589C20.3738 19.8927 20.3964 19.925 20.4212 19.9556L20.4792 20.0426L20.5372 20.1295C20.5372 20.1295 20.5372 20.1779 20.5372 20.2069C20.5569 20.2337 20.5732 20.2629 20.5855 20.2938C20.5873 20.3196 20.5873 20.3454 20.5855 20.3712V20.4485C20.5877 20.471 20.5877 20.4936 20.5855 20.5161V20.6031C20.5824 20.6255 20.5824 20.6483 20.5855 20.6708C20.5855 20.6708 20.5855 20.7191 20.5855 20.7384C20.5855 20.7577 20.5855 20.7867 20.5855 20.8157V20.951C20.5855 20.951 20.5855 20.951 20.5855 21.009C20.5913 21.0312 20.5913 21.0545 20.5855 21.0767C20.5855 21.0767 20.5855 21.0767 20.5855 21.1443V21.2023C16.8937 23.5895 12.3513 21.9948 6.68789 16.37H6.82319ZM3.17965 0.964688C3.76918 0.384813 4.4457 0.69408 5.99204 2.24041C6.53557 2.72999 7.00444 3.29655 7.38374 3.92205C7.50614 4.09277 7.56103 4.30275 7.53783 4.51153C7.51463 4.72031 7.41499 4.91312 7.2581 5.0528C7.08327 5.21993 6.91868 5.39743 6.7652 5.58436L6.66856 5.35241V5.28475C6.63667 5.22467 6.60117 5.16658 6.56225 5.11079C6.56409 5.08828 6.56409 5.06565 6.56225 5.04314C6.56225 4.96582 6.45594 4.89817 6.39795 4.82085L6.24332 4.62756L6.18533 4.55991L6.02103 4.36662L5.80841 4.13467L5.60545 3.98004L5.43149 3.79641C5.4043 3.77904 5.38121 3.75595 5.36384 3.72876L5.13189 3.49681L4.89028 3.26486L4.83229 3.18754L4.58101 2.94593L4.30074 2.69465L4.19443 2.60767L3.93348 2.40471L3.63388 2.19209H3.56623L3.26663 1.93115H3.20864L2.89937 1.79584H2.83172C2.74583 1.77191 2.65872 1.75256 2.57078 1.73785H2.52245C2.72723 1.46832 2.94663 1.21022 3.17965 0.964688ZM22.9727 18.5735C22.559 17.8795 22.0444 17.2509 21.4457 16.7083C20.9058 16.1068 20.2767 15.5918 19.5804 15.1813C19.2778 14.9967 18.9212 14.9211 18.5698 14.9668C18.2183 15.0125 17.8929 15.1768 17.6475 15.4326C17.3293 15.7624 16.9685 16.0484 16.5747 16.283C14.4969 17.5008 12.5639 15.8675 9.95451 13.2387C7.34508 10.6099 5.7021 8.69635 6.90051 6.63779C7.12611 6.23733 7.40579 5.86985 7.73166 5.5457C7.99214 5.30349 8.16052 4.97843 8.20811 4.62595C8.25569 4.27346 8.17953 3.91539 7.99261 3.61278C7.92246 3.47975 7.84502 3.3507 7.76065 3.2262C8.69896 2.93284 9.67694 2.78614 10.66 2.79129C13.1911 2.79754 15.6209 3.78673 17.4366 5.55017C19.2523 7.31361 20.3121 9.7134 20.3923 12.2432H19.7061L20.7498 14.0505L21.7936 12.2432H21.0978C21.0149 9.52205 19.876 6.93999 17.9223 5.04401C15.9685 3.14802 13.3535 2.08703 10.631 2.08578C9.50345 2.08796 8.38377 2.27403 7.31608 2.63666C7.07447 2.35639 6.7942 2.06645 6.47527 1.74752C5.47982 0.732738 3.95281 -0.7846 2.68675 0.481459C2.2166 0.948554 1.79262 1.45992 1.42069 2.00846C-1.24673 6.02893 0.367254 10.8902 6.3303 16.8629C8.31235 18.9771 10.6474 20.73 13.2308 22.0431C12.4966 22.2206 11.744 22.3115 10.9886 22.3137C8.70566 22.3033 6.49768 21.4977 4.74442 20.0355C2.99116 18.5732 1.80221 16.5458 1.38203 14.3018L2.06822 14.2052L0.763502 12.5622L0 14.4951L0.69585 14.3984C1.13973 16.8072 2.4113 18.9851 4.29074 20.5558C6.17018 22.1264 8.53934 22.9909 10.9886 22.9999C12.1089 23.0043 13.2222 22.8247 14.2842 22.4684C15.213 22.8107 16.1938 22.9905 17.1836 22.9999C18.6116 23.0008 20.0065 22.5696 21.1848 21.7629C21.7364 21.3911 22.251 20.9671 22.7214 20.4968C22.9819 20.2546 23.1503 19.9295 23.1979 19.577C23.2455 19.2246 23.1693 18.8665 22.9824 18.5639" fill="#4E2583"/>
<path d="M11.849 10.5612C12.2109 10.5612 12.5648 10.4542 12.8661 10.2536C13.1674 10.0531 13.4027 9.76803 13.5425 9.43419C13.6823 9.10034 13.7203 8.73262 13.6518 8.37723C13.5833 8.02185 13.4112 7.69464 13.1573 7.43671C12.9034 7.17879 12.5789 7.00165 12.2246 6.92756C11.8704 6.85347 11.5021 6.88572 11.1661 7.02027C10.8301 7.15482 10.5414 7.38566 10.3362 7.68379C10.1309 7.98193 10.0184 8.33406 10.0127 8.69595C10.0127 8.78822 10.0494 8.87672 10.1146 8.94197C10.1798 9.00722 10.2683 9.04387 10.3606 9.04387C10.4529 9.04387 10.5414 9.00722 10.6066 8.94197C10.6719 8.87672 10.7085 8.78822 10.7085 8.69595C10.7085 8.47039 10.7754 8.24991 10.9007 8.06237C11.0261 7.87482 11.2042 7.72865 11.4125 7.64234C11.6209 7.55602 11.8502 7.53344 12.0715 7.57744C12.2927 7.62144 12.4959 7.73006 12.6554 7.88955C12.8149 8.04904 12.9235 8.25224 12.9675 8.47346C13.0115 8.69468 12.9889 8.92398 12.9026 9.13237C12.8163 9.34075 12.6701 9.51886 12.4825 9.64417C12.295 9.76948 12.0745 9.83637 11.849 9.83637C11.362 9.83637 10.8949 10.0298 10.5505 10.3742C10.2062 10.7186 10.0127 11.1856 10.0127 11.6726C10.0127 11.7658 10.049 11.8553 10.114 11.9221C10.179 11.9889 10.2675 12.0277 10.3606 12.0302H13.3373C13.4305 12.0277 13.519 11.9889 13.5839 11.9221C13.6489 11.8553 13.6853 11.7658 13.6852 11.6726C13.6852 11.5804 13.6486 11.4919 13.5833 11.4266C13.5181 11.3614 13.4296 11.3247 13.3373 11.3247H10.7665C10.8414 11.096 10.986 10.8965 11.1802 10.7543C11.3744 10.6121 11.6083 10.5344 11.849 10.5322" fill="#4E2583"/>
<path d="M16.7487 12.0596C16.8419 12.0571 16.9304 12.0183 16.9954 11.9515C17.0604 11.8847 17.0967 11.7952 17.0967 11.702V10.117H17.3383C17.4218 10.1032 17.4977 10.0601 17.5525 9.99549C17.6072 9.93089 17.6373 9.84896 17.6373 9.76428C17.6373 9.67959 17.6072 9.59766 17.5525 9.53306C17.4977 9.46846 17.4218 9.42539 17.3383 9.41152H17.0967V7.82653C17.0967 7.78084 17.0877 7.7356 17.0702 7.69338C17.0527 7.65117 17.0271 7.61282 16.9948 7.58051C16.9625 7.5482 16.9241 7.52257 16.8819 7.50509C16.8397 7.4876 16.7944 7.4786 16.7487 7.4786C16.7031 7.4786 16.6578 7.4876 16.6156 7.50509C16.5734 7.52257 16.535 7.5482 16.5027 7.58051C16.4704 7.61282 16.4448 7.65117 16.4273 7.69338C16.4098 7.7356 16.4008 7.78084 16.4008 7.82653V9.41152H14.9995V7.23699C14.9856 7.15345 14.9425 7.07755 14.8779 7.0228C14.8133 6.96804 14.7314 6.93799 14.6467 6.93799C14.562 6.93799 14.4801 6.96804 14.4155 7.0228C14.3509 7.07755 14.3078 7.15345 14.2939 7.23699V9.75944C14.2939 9.85263 14.3303 9.94215 14.3952 10.0089C14.4602 10.0757 14.5487 10.1145 14.6419 10.117H16.4298V11.702C16.4298 11.7952 16.4661 11.8847 16.5311 11.9515C16.5961 12.0183 16.6846 12.0571 16.7777 12.0596" fill="#4E2583"/>
</g>
<defs>
<clipPath id="clip0">
<rect width="23.43" height="24" fill="white"/>
</clipPath>
</defs>
</svg>
