<svg width="24" height="24" viewBox="0 0 24 24" fill="none" xmlns="http://www.w3.org/2000/svg">
<g clip-path="url(#clip0)">
<path d="M1.35788 6.44214C1.6964 6.44886 2.03234 6.50261 2.35606 6.60185C2.44099 6.63011 2.51432 6.68544 2.5648 6.75936C2.61528 6.83328 2.64013 6.92171 2.63555 7.0111V8.06917C3.42036 8.57873 4.3463 8.82681 5.28074 8.77788C5.48324 8.79709 5.68711 8.79709 5.88962 8.77788L8.52483 6.2425C8.62449 6.15649 8.74018 6.09105 8.86523 6.04993C8.99029 6.00882 9.12224 5.99285 9.2535 6.00294C10.6909 6.00294 13.9749 7.61999 15.7018 8.63814C17.758 9.85592 21.9304 10.5546 21.9703 10.5646L22.0602 10.5946C22.4101 10.6965 22.7364 10.8667 23.0204 11.0952C23.3043 11.3237 23.5403 11.6061 23.7147 11.9262C23.8891 12.2462 23.9985 12.5976 24.0366 12.9601C24.0747 13.3225 24.0408 13.689 23.9368 14.0383C23.3578 17.0328 16.7598 17.2025 15.2626 17.2025H0.808878C0.700336 17.2025 0.596241 17.1594 0.519491 17.0827C0.442741 17.0059 0.399622 16.9018 0.399622 16.7933V14.6372C0.18825 14.3944 0.0498352 14.0968 0.000350952 13.7788V7.64994C-0.00263214 7.47741 0.0316963 7.30628 0.100985 7.14825C0.170271 6.99023 0.272882 6.84903 0.401794 6.73434C0.530708 6.61964 0.682878 6.53416 0.847893 6.48372C1.01291 6.43329 1.18687 6.4191 1.35788 6.44214ZM17.4885 10.2951L16.9495 11.2933C16.9246 11.3405 16.8903 11.3821 16.8487 11.4155C16.807 11.4489 16.759 11.4734 16.7075 11.4874C16.656 11.5014 16.6022 11.5048 16.5494 11.4971C16.4966 11.4895 16.4459 11.4711 16.4005 11.443C16.3535 11.418 16.3119 11.3838 16.2783 11.3424C16.2447 11.301 16.2198 11.2534 16.2049 11.2022C16.19 11.151 16.1855 11.0974 16.1917 11.0445C16.1978 10.9916 16.2145 10.9404 16.2408 10.894L16.7199 9.99567C16.3778 9.87542 16.0443 9.73202 15.7217 9.56645L15.043 10.5646C15.0146 10.6097 14.9775 10.6487 14.9338 10.6792C14.8901 10.7097 14.8408 10.7312 14.7887 10.7423C14.7366 10.7535 14.6828 10.7541 14.6305 10.7442C14.5781 10.7342 14.5283 10.7139 14.484 10.6844C14.395 10.6253 14.3327 10.5337 14.3103 10.4293C14.2879 10.3249 14.3073 10.2158 14.3642 10.1254L15.0729 9.17716C14.7834 9.01745 14.484 8.84776 14.1646 8.68805L13.356 9.8659C13.2985 9.95651 13.2076 10.0209 13.1031 10.0452C12.9985 10.0694 12.8886 10.0517 12.797 9.99567C12.7071 9.94 12.6429 9.85093 12.6186 9.748C12.5943 9.64508 12.6118 9.5367 12.6673 9.44666L13.4259 8.35865C13.0666 8.17897 12.6972 7.9993 12.3479 7.84957L11.3996 9.21708C11.3701 9.261 11.3322 9.29867 11.2882 9.32795C11.2441 9.35724 11.1947 9.37756 11.1428 9.38775C11.0909 9.39795 11.0375 9.39782 10.9857 9.38738C10.9338 9.37693 10.8845 9.35638 10.8406 9.32688C10.7967 9.29739 10.759 9.25954 10.7297 9.21548C10.7005 9.17143 10.6801 9.12204 10.6699 9.07013C10.6597 9.01823 10.6599 8.96482 10.6703 8.91296C10.6808 8.86111 10.7013 8.81181 10.7308 8.7679L11.5793 7.55012C10.8493 7.19392 10.0678 6.95476 9.26348 6.84141C9.20737 6.83131 9.1499 6.83131 9.09379 6.84141L7.46675 8.35865C9.06932 10.5007 11.2984 12.0914 13.8451 12.9104C14.9637 12.5409 16.1179 12.29 17.2889 12.1617C18.3133 12.0725 19.2839 11.6641 20.0638 10.9938C19.1933 10.8079 18.3336 10.5747 17.4885 10.2951ZM21.7907 11.3632C21.5457 11.3323 21.3025 11.289 21.062 11.2334C20.0651 12.2544 18.7314 12.8786 17.3088 12.9902C15.237 13.3159 13.2036 13.851 11.2399 14.5873H13.0166C20.3433 14.5873 22.5493 14.0383 23.1981 13.5891C23.2874 13.109 23.192 12.6128 22.931 12.2001C22.67 11.7873 22.2627 11.4884 21.7907 11.3632ZM1.20815 16.3541H15.0729C16.8596 16.3541 21.062 16.1045 22.6192 14.7071C21.3614 15.0465 18.7362 15.3958 12.9967 15.3958C11.6591 15.3958 10.3016 15.3958 9.00395 15.3958L5.62012 15.296C3.13464 15.1962 1.39781 15.0964 1.37784 15.0964H1.20815V16.3541ZM0.808878 13.659C0.808878 13.7688 0.958605 14.2379 1.41777 14.2379C1.41777 14.2379 2.92502 14.3278 5.11104 14.4176C4.8093 13.4321 4.2525 12.5437 3.49701 11.8426C2.74152 11.1414 1.81418 10.6524 0.808878 10.4249V13.659ZM5.9595 14.4476C6.87783 14.4476 7.88599 14.5174 8.95404 14.5374C9.32337 14.3976 10.8506 13.8287 12.5675 13.2797C10.3215 12.3588 8.36122 10.8567 6.88781 8.92761L6.35877 9.43668C6.29933 9.49601 6.2223 9.53453 6.13917 9.54648C5.85787 9.58299 5.57436 9.59967 5.29072 9.59639C4.09028 9.65216 2.91003 9.27292 1.96677 8.52834C1.92527 8.49038 1.89226 8.44408 1.8699 8.39247C1.84753 8.34087 1.83632 8.28512 1.83701 8.22888V7.30057C1.68433 7.28536 1.53052 7.28536 1.37784 7.30057C0.828842 7.30057 0.818859 7.54014 0.818859 7.69985V9.69621C2.03239 9.94372 3.15423 10.5209 4.06112 11.3644C4.968 12.2079 5.62485 13.2851 5.9595 14.4775V14.4476Z" fill="#4E2583"/>
</g>
<defs>
<clipPath id="clip0">
<rect width="24" height="24" fill="white"/>
</clipPath>
</defs>
</svg>
