<svg width="24" height="24" viewBox="0 0 24 24" fill="none" xmlns="http://www.w3.org/2000/svg">
<g clip-path="url(#clip0)">
<path d="M19.0593 22.691L18.8193 22.931C18.7171 23.0338 18.5955 23.1154 18.4617 23.171C18.3278 23.2267 18.1843 23.2554 18.0393 23.2554C17.8943 23.2554 17.7508 23.2267 17.6169 23.171C17.483 23.1154 17.3615 23.0338 17.2593 22.931L17.1093 22.781C17.8154 22.3056 18.426 21.7018 18.9093 21.001L19.0593 21.151C19.1621 21.2532 19.2437 21.3748 19.2993 21.5086C19.355 21.6425 19.3836 21.786 19.3836 21.931C19.3836 22.076 19.355 22.2195 19.2993 22.3534C19.2437 22.4872 19.1621 22.6088 19.0593 22.711V22.691ZM8.79928 21.451C8.22327 20.8752 7.76635 20.1916 7.4546 19.4393C7.14286 18.6869 6.9824 17.8804 6.9824 17.066C6.9824 16.2516 7.14286 15.4451 7.4546 14.6928C7.76635 13.9404 8.22327 13.2568 8.79928 12.681C8.95991 12.5176 9.13022 12.364 9.30928 12.221C9.38026 12.1655 9.42785 12.0854 9.44266 11.9966C9.45747 11.9077 9.43842 11.8165 9.38928 11.741L3.84928 2.831L5.78928 0.891002L9.69928 4.801L8.69928 5.801C8.63088 5.87025 8.59253 5.96367 8.59253 6.061C8.59253 6.15834 8.63088 6.25175 8.69928 6.321L11.1493 8.851C11.2185 8.9194 11.3119 8.95775 11.4093 8.95775C11.5066 8.95775 11.6 8.9194 11.6693 8.851L12.6693 7.851L17.5293 12.721C18.6923 13.884 19.3456 15.4613 19.3456 17.106C19.3456 18.7507 18.6923 20.328 17.5293 21.491C16.3663 22.654 14.789 23.3073 13.1443 23.3073C11.4996 23.3073 9.92225 22.654 8.75928 21.491L8.79928 21.451ZM19.3093 20.341C19.8465 19.3311 20.1281 18.2049 20.1293 17.061C20.1378 16.1509 19.9653 15.2482 19.622 14.4053C19.2787 13.5624 18.7713 12.7961 18.1293 12.151L13.0093 7.001C12.9757 6.96591 12.9353 6.93799 12.8906 6.91891C12.8459 6.89983 12.7979 6.89 12.7493 6.89C12.7007 6.89 12.6526 6.89983 12.6079 6.91891C12.5632 6.93799 12.5229 6.96591 12.4893 7.001L11.4893 8.001L9.48928 6.001L10.4893 5.001C10.5577 4.93175 10.596 4.83834 10.596 4.741C10.596 4.64367 10.5577 4.55025 10.4893 4.481L6.00928 0.111002C5.97567 0.0759125 5.93531 0.0479883 5.89063 0.0289114C5.84595 0.00983462 5.79786 0 5.74928 0C5.70069 0 5.65261 0.00983462 5.60793 0.0289114C5.56324 0.0479883 5.52288 0.0759125 5.48928 0.111002L3.11928 2.521C3.05299 2.58062 3.01118 2.66271 3.00194 2.75138C2.9927 2.84006 3.0167 2.929 3.06928 3.001L8.59928 11.891L8.27928 12.181C7.31786 13.1531 6.66502 14.3876 6.40268 15.7294C6.14034 17.0713 6.28019 18.4607 6.80469 19.7233C7.32919 20.986 8.21496 22.0656 9.35082 22.8266C10.4867 23.5876 11.822 23.9962 13.1893 24.001C14.3308 24.0061 15.4552 23.7241 16.4593 23.181L16.7293 23.451C17.0686 23.7932 17.5275 23.9904 18.0093 24.001C18.2509 24.0013 18.4902 23.9537 18.7133 23.861C18.9364 23.7683 19.139 23.6324 19.3093 23.461L19.5493 23.231C19.8943 22.8843 20.088 22.4151 20.088 21.926C20.088 21.4369 19.8943 20.9677 19.5493 20.621L19.3093 20.341Z" fill="#4E2583"/>
<path d="M15.5095 19.3808C14.9644 19.9077 14.2537 20.2296 13.4981 20.2916C12.7425 20.3536 11.9888 20.1521 11.3651 19.7211C10.7414 19.2901 10.2863 18.6564 10.077 17.9278C9.86784 17.1991 9.91749 16.4205 10.2176 15.7243C10.5177 15.0281 11.0496 14.4574 11.723 14.1091C12.3964 13.7609 13.1696 13.6567 13.9112 13.8142C14.6528 13.9717 15.3169 14.3812 15.7905 14.9731C16.2642 15.565 16.5183 16.3027 16.5095 17.0608C16.505 17.4945 16.4142 17.923 16.2425 18.3213C16.0709 18.7196 15.8217 19.0797 15.5095 19.3808ZM10.3495 14.2208C9.79333 14.7815 9.41562 15.4943 9.26393 16.2693C9.11225 17.0443 9.19337 17.8469 9.49708 18.5759C9.80079 19.3049 10.3135 19.9277 10.9706 20.3658C11.6277 20.8038 12.3997 21.0376 13.1895 21.0376C13.9792 21.0376 14.7512 20.8038 15.4083 20.3658C16.0654 19.9277 16.5781 19.3049 16.8818 18.5759C17.1855 17.8469 17.2667 17.0443 17.115 16.2693C16.9633 15.4943 16.5856 14.7815 16.0295 14.2208C15.6576 13.8459 15.2152 13.5483 14.7278 13.3452C14.2403 13.1422 13.7175 13.0376 13.1895 13.0376C12.6614 13.0376 12.1386 13.1422 11.6511 13.3452C11.1637 13.5483 10.7213 13.8459 10.3495 14.2208Z" fill="#4E2583"/>
</g>
<defs>
<clipPath id="clip0">
<rect width="24" height="24" fill="white"/>
</clipPath>
</defs>
</svg>
