<svg width="24" height="24" viewBox="0 0 24 24" fill="none" xmlns="http://www.w3.org/2000/svg">
<path d="M23.27 3.64H0.73V0.73H23.27V3.64ZM23.27 23.27H0.73V4.36H23.27V23.27ZM23.64 0H0.36C0.264522 0 0.172955 0.0379285 0.105442 0.105442C0.0379285 0.172955 0 0.264522 0 0.36L0 23.64C0 23.7355 0.0379285 23.827 0.105442 23.8946C0.172955 23.9621 0.264522 24 0.36 24H23.64C23.7355 24 23.827 23.9621 23.8946 23.8946C23.9621 23.827 24 23.7355 24 23.64V0.36C24 0.264522 23.9621 0.172955 23.8946 0.105442C23.827 0.0379285 23.7355 0 23.64 0" fill="#4E2583"/>
<path d="M21.7299 2.55019C21.7802 2.55302 21.8306 2.54462 21.8773 2.5256C21.924 2.50657 21.9659 2.4774 21.9999 2.44019C22.035 2.40658 22.0629 2.36622 22.082 2.32154C22.1011 2.27685 22.1109 2.22877 22.1109 2.18019C22.1109 2.1316 22.1011 2.08352 22.082 2.03883C22.0629 1.99415 22.035 1.95379 21.9999 1.92019C21.9478 1.87233 21.883 1.84043 21.8133 1.82826C21.7436 1.8161 21.6718 1.82418 21.6066 1.85154C21.5413 1.87891 21.4853 1.92441 21.4451 1.98266C21.4049 2.04091 21.3823 2.10946 21.3799 2.18019C21.3824 2.27752 21.4222 2.37017 21.4911 2.43901C21.5599 2.50786 21.6526 2.54766 21.7499 2.55019" fill="#4E2583"/>
<path d="M19.36 2.54982C19.4573 2.54729 19.55 2.5075 19.6188 2.43865C19.6877 2.36981 19.7275 2.27716 19.73 2.17982C19.7274 2.08344 19.6873 1.99188 19.6182 1.92464C19.549 1.8574 19.4564 1.81979 19.36 1.81982C19.2645 1.81982 19.173 1.85775 19.1054 1.92527C19.0379 1.99278 19 2.08435 19 2.17982C19 2.27625 19.0376 2.36887 19.1048 2.43798C19.1721 2.50709 19.2636 2.54722 19.36 2.54982Z" fill="#4E2583"/>
<path d="M17.0001 2.54976C17.0977 2.54784 17.1908 2.50845 17.2601 2.43976C17.3241 2.36825 17.3594 2.27569 17.3594 2.17976C17.3594 2.08383 17.3241 1.99126 17.2601 1.91976C17.1877 1.85779 17.0955 1.82373 17.0001 1.82373C16.9048 1.82373 16.8126 1.85779 16.7401 1.91976C16.6782 1.99252 16.6429 2.08424 16.6401 2.17976C16.6412 2.27561 16.6767 2.36787 16.7401 2.43976C16.7738 2.47466 16.8142 2.5024 16.8589 2.52131C16.9036 2.54021 16.9516 2.54989 17.0001 2.54976Z" fill="#4E2583"/>
<path d="M4.17994 19.5702C3.44134 19.0868 2.73024 18.5626 2.04994 18.0002C2.01317 17.9699 1.97081 17.9473 1.92528 17.9334C1.87975 17.9196 1.83194 17.9149 1.78459 17.9195C1.73723 17.9242 1.69125 17.9381 1.64927 17.9605C1.6073 17.9829 1.57014 18.0134 1.53994 18.0502C1.50974 18.0869 1.48707 18.1293 1.47324 18.1748C1.4594 18.2203 1.45467 18.2682 1.45932 18.3155C1.46396 18.3629 1.47788 18.4088 1.5003 18.4508C1.52271 18.4928 1.55317 18.5299 1.58994 18.5602C2.35895 19.1894 3.16362 19.7737 3.99994 20.3102C4.05697 20.3452 4.12307 20.3625 4.18994 20.3602C4.25695 20.3638 4.32342 20.3463 4.37994 20.3102C4.66994 20.1302 11.4999 15.9102 11.4999 11.3702C11.5064 10.515 11.2447 9.67931 10.7516 8.98062C10.2585 8.28192 9.55877 7.75538 8.75084 7.47504C7.94292 7.19469 7.06744 7.17465 6.24753 7.41772C5.42762 7.6608 4.70452 8.15476 4.17994 8.83015C3.60455 8.10426 2.80133 7.59344 1.89994 7.38015C1.8533 7.36829 1.80475 7.3659 1.75716 7.37312C1.70958 7.38034 1.66393 7.39703 1.6229 7.42221C1.58188 7.44738 1.54633 7.48052 1.51833 7.51967C1.49034 7.55883 1.47049 7.60319 1.45994 7.65015C1.44127 7.74402 1.4587 7.84147 1.50876 7.92304C1.55881 8.00461 1.6378 8.06429 1.72994 8.09015C2.17412 8.19391 2.59271 8.38649 2.96049 8.65631C3.32827 8.92613 3.63763 9.2676 3.86994 9.66015C3.90059 9.71531 3.94558 9.76117 4.00015 9.79285C4.05472 9.82454 4.11684 9.84088 4.17994 9.84015C4.24414 9.83963 4.30716 9.82284 4.36312 9.79136C4.41908 9.75989 4.46615 9.71475 4.49994 9.66015C4.87321 9.02223 5.4464 8.52519 6.13073 8.24599C6.81507 7.9668 7.57238 7.92104 8.28536 8.1158C8.99833 8.31056 9.6272 8.73497 10.0746 9.3233C10.5219 9.91163 10.7628 10.6311 10.7599 11.3702C10.7599 15.1102 5.27994 18.8602 4.17994 19.5702Z" fill="#4E2583"/>
<path d="M12.6899 10.1102C12.6925 10.2066 12.7327 10.2982 12.8018 10.3654C12.8709 10.4327 12.9635 10.4703 13.0599 10.4702H20.5799C20.6754 10.4702 20.767 10.4323 20.8345 10.3648C20.902 10.2973 20.9399 10.2057 20.9399 10.1102C20.94 10.0138 20.9024 9.92119 20.8351 9.85208C20.7679 9.78297 20.6763 9.74284 20.5799 9.74023H13.0599C12.9626 9.74276 12.87 9.78256 12.8011 9.85141C12.7323 9.92025 12.6925 10.0129 12.6899 10.1102Z" fill="#4E2583"/>
<path d="M20.5798 12.2202H18.8798C18.7833 12.2202 18.6907 12.2578 18.6216 12.325C18.5525 12.3923 18.5124 12.4838 18.5098 12.5802C18.5123 12.6775 18.5521 12.7702 18.6209 12.839C18.6898 12.9079 18.7824 12.9477 18.8798 12.9502H20.5798C20.6762 12.9476 20.7677 12.9075 20.835 12.8384C20.9022 12.7693 20.9398 12.6766 20.9398 12.5802C20.9398 12.4847 20.9018 12.3932 20.8343 12.3257C20.7668 12.2581 20.6752 12.2202 20.5798 12.2202Z" fill="#4E2583"/>
<path d="M16.5802 12.9402C16.6757 12.9402 16.7672 12.9023 16.8348 12.8348C16.9023 12.7673 16.9402 12.6757 16.9402 12.5802C16.9402 12.4847 16.9023 12.3932 16.8348 12.3257C16.7672 12.2581 16.6757 12.2202 16.5802 12.2202H13.0602C12.9647 12.2202 12.8732 12.2581 12.8056 12.3257C12.7381 12.3932 12.7002 12.4847 12.7002 12.5802C12.7002 12.6757 12.7381 12.7673 12.8056 12.8348C12.8732 12.9023 12.9647 12.9402 13.0602 12.9402H16.5802Z" fill="#4E2583"/>
<path d="M11.6002 8.00002H15.4902C15.5857 8.00002 15.6773 7.96209 15.7448 7.89458C15.8123 7.82706 15.8502 7.7355 15.8502 7.64002C15.8503 7.5436 15.8127 7.45097 15.7454 7.38186C15.6782 7.31276 15.5866 7.27263 15.4902 7.27002H11.6002C11.5038 7.27263 11.4123 7.31276 11.345 7.38186C11.2778 7.45097 11.2402 7.5436 11.2402 7.64002C11.2402 7.7355 11.2782 7.82706 11.3457 7.89458C11.4132 7.96209 11.5048 8.00002 11.6002 8.00002Z" fill="#4E2583"/>
<path d="M20.5799 14.6899H15.9999C15.9035 14.6899 15.8108 14.7275 15.7417 14.7948C15.6726 14.862 15.6325 14.9536 15.6299 15.0499C15.6324 15.1473 15.6722 15.2399 15.7411 15.3088C15.8099 15.3776 15.9026 15.4174 15.9999 15.4199H20.6099C20.7063 15.4173 20.7978 15.3772 20.8651 15.3081C20.9323 15.239 20.9699 15.1464 20.9699 15.0499C20.9699 14.9545 20.932 14.8629 20.8644 14.7954C20.7969 14.7279 20.7054 14.6899 20.6099 14.6899" fill="#4E2583"/>
<path d="M11.6001 15.0499C11.6001 15.1481 11.6391 15.2422 11.7085 15.3116C11.7779 15.381 11.872 15.4199 11.9701 15.4199H13.6701C13.7565 15.4056 13.8351 15.361 13.8917 15.2942C13.9484 15.2273 13.9795 15.1426 13.9795 15.0549C13.9795 14.9673 13.9484 14.8825 13.8917 14.8157C13.8351 14.7489 13.7565 14.7043 13.6701 14.6899H12.0001C11.9037 14.6899 11.811 14.7275 11.7419 14.7948C11.6728 14.862 11.6327 14.9536 11.6301 15.0499" fill="#4E2583"/>
<path d="M20.5798 17.1602H18.8798C18.7824 17.1627 18.6898 17.2025 18.6209 17.2713C18.5521 17.3402 18.5123 17.4328 18.5098 17.5302C18.5124 17.6265 18.5525 17.7181 18.6216 17.7853C18.6907 17.8526 18.7833 17.8902 18.8798 17.8902H20.5798C20.6752 17.8902 20.7668 17.8522 20.8343 17.7847C20.9018 17.7172 20.9398 17.6256 20.9398 17.5302C20.9398 17.4337 20.9022 17.3411 20.835 17.272C20.7677 17.2029 20.6762 17.1628 20.5798 17.1602Z" fill="#4E2583"/>
<path d="M16.5799 17.1602H10.5099C10.4135 17.1628 10.322 17.2029 10.2547 17.272C10.1875 17.3411 10.1499 17.4337 10.1499 17.5302C10.1499 17.6256 10.1878 17.7172 10.2553 17.7847C10.3229 17.8522 10.4144 17.8902 10.5099 17.8902H16.5799C16.6754 17.8902 16.7669 17.8522 16.8345 17.7847C16.902 17.7172 16.9399 17.6256 16.9399 17.5302C16.9399 17.4337 16.9023 17.3411 16.8351 17.272C16.7679 17.2029 16.6763 17.1628 16.5799 17.1602Z" fill="#4E2583"/>
<path d="M14.7601 19.6401H8.00014C7.95286 19.6401 7.90605 19.6494 7.86237 19.6675C7.81869 19.6856 7.77901 19.7121 7.74558 19.7456C7.71215 19.779 7.68563 19.8187 7.66754 19.8624C7.64945 19.906 7.64014 19.9529 7.64014 20.0001C7.64014 20.0474 7.64945 20.0942 7.66754 20.1379C7.68563 20.1816 7.71215 20.2213 7.74558 20.2547C7.77901 20.2881 7.81869 20.3146 7.86237 20.3327C7.90605 20.3508 7.95286 20.3601 8.00014 20.3601H14.7901C14.8856 20.3601 14.9772 20.3222 15.0447 20.2547C15.1122 20.1872 15.1501 20.0956 15.1501 20.0001C15.1501 19.9047 15.1122 19.8131 15.0447 19.7456C14.9772 19.6781 14.8856 19.6401 14.7901 19.6401" fill="#4E2583"/>
</svg>
