<svg width="24" height="24" viewBox="0 0 24 24" fill="none" xmlns="http://www.w3.org/2000/svg">
<path d="M23.9394 14.517C23.7294 14.177 18.5494 6.16699 11.9994 6.16699C11.7794 6.16699 11.5594 6.16699 11.3494 6.16699C11.3021 6.17093 11.256 6.18414 11.2139 6.20588C11.1717 6.22761 11.1342 6.25743 11.1036 6.29365C11.0729 6.32986 11.0497 6.37176 11.0353 6.41694C11.0208 6.46213 11.0154 6.50972 11.0194 6.55699C11.0233 6.60427 11.0365 6.6503 11.0582 6.69247C11.08 6.73464 11.1098 6.77212 11.146 6.80276C11.1822 6.83341 11.2241 6.85662 11.2693 6.87107C11.3145 6.88552 11.3621 6.89093 11.4094 6.88699H11.9994C17.5994 6.88699 22.3594 13.477 23.1994 14.707C22.3594 15.997 17.5994 22.537 11.9994 22.537C6.39935 22.537 1.63935 15.937 0.799354 14.717C0.979354 14.447 1.34935 13.927 1.85935 13.277C1.8893 13.2397 1.91152 13.1969 1.92473 13.1509C1.93794 13.105 1.94186 13.0569 1.93628 13.0094C1.93069 12.9619 1.91571 12.9161 1.8922 12.8744C1.86869 12.8328 1.83713 12.7963 1.79935 12.767C1.72311 12.709 1.62736 12.6829 1.53225 12.6941C1.43714 12.7053 1.35007 12.7529 1.28935 12.827C0.8479 13.3667 0.437247 13.931 0.0593542 14.517C0.0206611 14.5747 0 14.6425 0 14.712C0 14.7814 0.0206611 14.8493 0.0593542 14.907C0.269354 15.247 5.44935 23.257 11.9994 23.257C18.5494 23.257 23.7294 15.257 23.9394 14.907C23.978 14.8493 23.9987 14.7814 23.9987 14.712C23.9987 14.6425 23.978 14.5747 23.9394 14.517Z" fill="#4E2583"/>
<path d="M6.17922 14.717C6.17925 14.6206 6.14165 14.5279 6.07441 14.4588C6.00717 14.3897 5.91561 14.3496 5.81922 14.347C5.72189 14.3495 5.62924 14.3893 5.56039 14.4582C5.49154 14.527 5.45175 14.6197 5.44922 14.717C5.44922 16.0125 5.83337 17.2788 6.55309 18.356C7.27282 19.4331 8.29579 20.2726 9.49264 20.7684C10.6895 21.2642 12.0065 21.3939 13.2771 21.1411C14.5476 20.8884 15.7147 20.2646 16.6308 19.3485C17.5468 18.4325 18.1706 17.2654 18.4234 15.9948C18.6761 14.7243 18.5464 13.4073 18.0506 12.2104C17.5549 11.0136 16.7153 9.99059 15.6382 9.27087C14.5611 8.55114 13.2947 8.16699 11.9992 8.16699C11.9028 8.1696 11.8113 8.20973 11.744 8.27884C11.6768 8.34794 11.6392 8.44057 11.6392 8.53699C11.6392 8.63247 11.6771 8.72404 11.7447 8.79155C11.8122 8.85906 11.9037 8.89699 11.9992 8.89699C13.1503 8.89699 14.2755 9.23833 15.2326 9.87784C16.1897 10.5173 16.9357 11.4263 17.3762 12.4898C17.8167 13.5532 17.932 14.7234 17.7074 15.8524C17.4828 16.9814 16.9285 18.0184 16.1146 18.8324C15.3006 19.6463 14.2636 20.2006 13.1346 20.4252C12.0057 20.6497 10.8355 20.5345 9.772 20.094C8.70854 19.6535 7.79958 18.9075 7.16007 17.9504C6.52056 16.9933 6.17922 15.8681 6.17922 14.717Z" fill="#4E2583"/>
<path d="M9.08936 14.7171C9.08936 15.4889 9.39594 16.2291 9.94167 16.7748C10.4874 17.3205 11.2276 17.6271 11.9994 17.6271C12.7711 17.6271 13.5113 17.3205 14.057 16.7748C14.6028 16.2291 14.9094 15.4889 14.9094 14.7171C14.9182 14.6641 14.9153 14.6099 14.901 14.5581C14.8867 14.5063 14.8613 14.4582 14.8266 14.4173C14.7919 14.3763 14.7486 14.3434 14.6999 14.3208C14.6511 14.2982 14.5981 14.2865 14.5444 14.2865C14.4906 14.2865 14.4376 14.2982 14.3888 14.3208C14.3401 14.3434 14.2968 14.3763 14.2621 14.4173C14.2274 14.4582 14.202 14.5063 14.1877 14.5581C14.1734 14.6099 14.1706 14.6641 14.1794 14.7171C14.1794 15.1483 14.0515 15.5698 13.812 15.9283C13.5724 16.2868 13.2319 16.5662 12.8336 16.7312C12.4353 16.8962 11.9969 16.9394 11.5741 16.8552C11.1512 16.7711 10.7627 16.5635 10.4579 16.2586C10.153 15.9537 9.94536 15.5653 9.86124 15.1424C9.77713 14.7195 9.8203 14.2812 9.9853 13.8829C10.1503 13.4845 10.4297 13.1441 10.7882 12.9045C11.1467 12.665 11.5682 12.5371 11.9994 12.5371C12.0957 12.5345 12.1873 12.4944 12.2545 12.4253C12.3218 12.3562 12.3594 12.2636 12.3594 12.1671C12.3594 12.0717 12.3214 11.9801 12.2539 11.9126C12.1864 11.8451 12.0948 11.8071 11.9994 11.8071C11.2276 11.8071 10.4874 12.1137 9.94167 12.6594C9.39594 13.2052 9.08936 13.9453 9.08936 14.7171Z" fill="#4E2583"/>
<path d="M14.1792 13.2572C13.9874 13.2572 13.8032 13.1817 13.6666 13.0469C13.5299 12.9122 13.4519 12.7291 13.4492 12.5372C13.4492 12.3436 13.5261 12.1579 13.6631 12.021C13.8 11.8841 13.9856 11.8072 14.1792 11.8072C14.3728 11.8072 14.5585 11.8841 14.6954 12.021C14.8323 12.1579 14.9092 12.3436 14.9092 12.5372C14.9066 12.7291 14.8285 12.9122 14.6919 13.0469C14.5553 13.1817 14.3711 13.2572 14.1792 13.2572ZM14.1792 11.0772C13.8905 11.0772 13.6082 11.1628 13.3681 11.3232C13.128 11.4837 12.9409 11.7117 12.8304 11.9785C12.7199 12.2452 12.691 12.5388 12.7473 12.822C12.8036 13.1052 12.9427 13.3654 13.1469 13.5696C13.351 13.7737 13.6112 13.9128 13.8944 13.9691C14.1776 14.0255 14.4712 13.9966 14.738 13.886C15.0047 13.7755 15.2328 13.5884 15.3932 13.3483C15.5536 13.1082 15.6392 12.8259 15.6392 12.5372C15.6406 12.3451 15.6037 12.1546 15.5308 11.9769C15.4579 11.7992 15.3504 11.6377 15.2146 11.5018C15.0787 11.366 14.9173 11.2585 14.7395 11.1856C14.5618 11.1127 14.3713 11.0759 14.1792 11.0772Z" fill="#4E2583"/>
<path d="M5.61959 1.87724C6.50959 2.79724 9.43959 5.99724 9.43959 8.69724C9.46609 9.21466 9.38706 9.73207 9.2073 10.218C9.02754 10.7039 8.75082 11.1482 8.39396 11.5238C8.03709 11.8994 7.60756 12.1985 7.13147 12.4029C6.65538 12.6072 6.14269 12.7126 5.62459 12.7126C5.10649 12.7126 4.5938 12.6072 4.11771 12.4029C3.64162 12.1985 3.21209 11.8994 2.85522 11.5238C2.49836 11.1482 2.22164 10.7039 2.04188 10.218C1.86212 9.73207 1.78309 9.21466 1.80959 8.69724C1.80959 5.99724 4.73959 2.79724 5.61959 1.87724ZM5.61959 13.2472C6.82632 13.2472 7.98363 12.7679 8.83693 11.9146C9.69022 11.0613 10.1696 9.90397 10.1696 8.69724C10.1696 5.24724 6.04959 1.26724 5.86959 1.09724C5.80135 1.03469 5.71215 1 5.61959 1C5.52703 1 5.43783 1.03469 5.36959 1.09724C5.19959 1.26724 1.07959 5.24724 1.07959 8.69724C1.07959 9.90224 1.55759 11.058 2.40872 11.911C3.25985 12.764 4.41459 13.2446 5.61959 13.2472Z" fill="#4E2583"/>
<path d="M5.61928 10.9973C6.24888 10.9921 6.85121 10.7397 7.29642 10.2945C7.74162 9.84926 7.99405 9.24693 7.99928 8.61733C7.9698 7.93914 7.76292 7.28055 7.39928 6.70733C7.37983 6.65743 7.34978 6.61234 7.31121 6.57519C7.27263 6.53803 7.22645 6.5097 7.17585 6.49214C7.12526 6.47457 7.07145 6.46821 7.01815 6.47347C6.96486 6.47874 6.91334 6.49551 6.86716 6.52263C6.82097 6.54976 6.78123 6.58658 6.75067 6.63057C6.72011 6.67455 6.69947 6.72464 6.69016 6.77738C6.68085 6.83013 6.68311 6.88426 6.69677 6.93605C6.71043 6.98783 6.73517 7.03604 6.76928 7.07733C7.07563 7.5357 7.25505 8.06707 7.28928 8.61733C7.28928 8.83617 7.24601 9.05285 7.16197 9.2549C7.07792 9.45696 6.95475 9.6404 6.79954 9.79467C6.64434 9.94895 6.46016 10.071 6.2576 10.1538C6.05505 10.2367 5.83811 10.2786 5.61928 10.2773C5.52289 10.2799 5.43133 10.3201 5.36409 10.3892C5.29685 10.4583 5.25924 10.5509 5.25928 10.6473C5.25928 10.7428 5.29721 10.8344 5.36472 10.9019C5.43223 10.9694 5.5238 11.0073 5.61928 11.0073" fill="#4E2583"/>
</svg>
