<svg width="24" height="24" viewBox="0 0 24 24" fill="none" xmlns="http://www.w3.org/2000/svg">
<path d="M22.3005 20.1667C22.3005 20.3506 22.2281 20.5271 22.0989 20.658C21.9698 20.7889 21.7943 20.8637 21.6105 20.8663H1.38962C1.20574 20.8637 1.03025 20.7889 0.90112 20.658C0.771988 20.5271 0.699599 20.3506 0.699616 20.1667V18.7771H22.3005V20.1667ZM14.8734 23.3004H8.16503V21.5563H14.8734V23.3004ZM0.699616 2.39917C0.698347 2.30775 0.715256 2.217 0.749363 2.13217C0.78347 2.04735 0.834094 1.97015 0.898293 1.90506C0.962492 1.83997 1.03899 1.78828 1.12333 1.75301C1.20768 1.71773 1.29819 1.69957 1.38962 1.69958H21.6105C21.7019 1.69957 21.7924 1.71773 21.8767 1.75301C21.9611 1.78828 22.0376 1.83997 22.1018 1.90506C22.166 1.97015 22.2166 2.04735 22.2507 2.13217C22.2848 2.217 22.3017 2.30775 22.3005 2.39917V18.0775H20.2113V9.90292C20.2113 9.81051 20.1753 9.72175 20.1108 9.65552C20.0464 9.58929 19.9587 9.55083 19.8663 9.54833C19.773 9.55076 19.6842 9.58889 19.6182 9.65487C19.5523 9.72085 19.5141 9.80964 19.5117 9.90292V18.0775H17.4225V13.0367C17.4226 12.9443 17.3865 12.8555 17.3221 12.7893C17.2577 12.723 17.1699 12.6846 17.0775 12.6821C16.9843 12.6845 16.8955 12.7226 16.8295 12.7886C16.7635 12.8546 16.7254 12.9434 16.723 13.0367V18.0775H14.6338V11.2925C14.6338 11.201 14.5974 11.1132 14.5327 11.0485C14.468 10.9838 14.3803 10.9475 14.2888 10.9475C14.1973 10.9475 14.1095 10.9838 14.0448 11.0485C13.9801 11.1132 13.9438 11.201 13.9438 11.2925V18.0775H11.845V11.9921C11.845 11.9006 11.8087 11.8128 11.744 11.7481C11.6793 11.6834 11.5915 11.6471 11.5 11.6471C11.4085 11.6471 11.3208 11.6834 11.2561 11.7481C11.1914 11.8128 11.155 11.9006 11.155 11.9921V18.0775H9.05628V15.1258C9.05628 15.0343 9.01994 14.9466 8.95524 14.8819C8.89054 14.8172 8.80278 14.7808 8.71128 14.7808C8.61978 14.7808 8.53203 14.8172 8.46733 14.8819C8.40263 14.9466 8.36628 15.0343 8.36628 15.1258V18.0775H6.27712V14.0813C6.27462 13.9889 6.23616 13.9011 6.16993 13.8367C6.1037 13.7723 6.01494 13.7362 5.92253 13.7363C5.83103 13.7363 5.74328 13.7726 5.67858 13.8373C5.61388 13.902 5.57753 13.9898 5.57753 14.0813V18.0775H3.48837V16.5154C3.48587 16.423 3.44741 16.3353 3.38118 16.2709C3.31495 16.2064 3.22619 16.1704 3.13378 16.1704C3.04228 16.1704 2.95453 16.2068 2.88983 16.2715C2.82513 16.3362 2.78878 16.4239 2.78878 16.5154V18.0775H0.699616V2.39917ZM21.6105 1H1.38962C1.20632 0.999996 1.02484 1.03625 0.855623 1.10668C0.686403 1.17712 0.53279 1.28033 0.403629 1.41038C0.274468 1.54043 0.172312 1.69475 0.103046 1.86445C0.0337786 2.03415 -0.00123103 2.21588 3.30492e-05 2.39917V20.1667C3.30492e-05 20.5352 0.146435 20.8887 0.407033 21.1493C0.66763 21.4098 1.02108 21.5563 1.38962 21.5563H7.4367V23.3004H4.5617C4.46842 23.3028 4.37963 23.341 4.31366 23.407C4.24768 23.4729 4.20954 23.5617 4.20712 23.655C4.20961 23.7474 4.24807 23.8351 4.3143 23.8996C4.38053 23.964 4.4693 24 4.5617 24H18.4671C18.5595 24 18.6483 23.964 18.7145 23.8996C18.7807 23.8351 18.8192 23.7474 18.8217 23.655C18.8193 23.5617 18.7811 23.4729 18.7152 23.407C18.6492 23.341 18.5604 23.3028 18.4671 23.3004H15.5921V21.5563H21.6392C22.0027 21.5487 22.3488 21.399 22.6033 21.1392C22.8577 20.8794 23.0001 20.5303 23 20.1667V2.39917C23.0013 2.21588 22.9663 2.03415 22.897 1.86445C22.8278 1.69475 22.7256 1.54043 22.5964 1.41038C22.4673 1.28033 22.3137 1.17712 22.1444 1.10668C21.9752 1.03625 21.7937 0.999996 21.6105 1" fill="#4E2583"/>
<path d="M3.13366 14.417C3.21831 14.4174 3.30017 14.3868 3.36366 14.3308L5.99908 12.0308L8.58658 12.9891C8.65277 13.013 8.72457 13.0166 8.79283 12.9995C8.86109 12.9825 8.92273 12.9455 8.96991 12.8933L11.6916 9.86492L14.2312 9.22284L16.8953 10.8903C16.9643 10.9351 17.0472 10.953 17.1285 10.9407C17.2098 10.9283 17.2837 10.8865 17.3362 10.8233L20.1249 7.70867C20.1571 7.67662 20.1826 7.63854 20.2 7.5966C20.2174 7.55467 20.2264 7.50971 20.2264 7.4643C20.2264 7.41889 20.2174 7.37393 20.2 7.332C20.1826 7.29006 20.1571 7.25198 20.1249 7.21992C20.0935 7.18656 20.0557 7.15998 20.0137 7.14181C19.9716 7.12363 19.9263 7.11426 19.8805 7.11426C19.8347 7.11426 19.7894 7.12363 19.7474 7.14181C19.7054 7.15998 19.6675 7.18656 19.6362 7.21992L17.0391 10.0949L14.4707 8.56159C14.4286 8.54254 14.3828 8.53269 14.3366 8.53269C14.2903 8.53269 14.2446 8.54254 14.2024 8.56159L11.4137 9.26117C11.3481 9.28107 11.2888 9.31735 11.2412 9.36659L8.62491 12.2799L6.06616 11.3216C6.00632 11.301 5.94215 11.2964 5.87997 11.3081C5.8178 11.3199 5.75976 11.3476 5.71158 11.3887L2.87491 13.8228C2.84275 13.8549 2.81723 13.893 2.79981 13.9349C2.7824 13.9768 2.77344 14.0218 2.77344 14.0672C2.77344 14.1126 2.7824 14.1576 2.79981 14.1995C2.81723 14.2415 2.84275 14.2795 2.87491 14.3116C2.90745 14.348 2.94734 14.377 2.99194 14.3969C3.03655 14.4167 3.08485 14.4268 3.13366 14.4266" fill="#4E2583"/>
<path d="M3.83328 9.4237H7.3887L8.2512 10.2766C8.31411 10.3419 8.40017 10.3797 8.49078 10.382C8.53727 10.3822 8.58331 10.3729 8.62613 10.3548C8.66895 10.3367 8.70766 10.3101 8.73995 10.2766C8.8055 10.2103 8.84225 10.1207 8.84225 10.0275C8.84225 9.93418 8.8055 9.84465 8.73995 9.77829L7.78162 8.81995C7.71273 8.75919 7.6243 8.72518 7.53245 8.72412H3.83328C3.74178 8.72412 3.65403 8.76047 3.58933 8.82517C3.52463 8.88987 3.48828 8.97762 3.48828 9.06912C3.48825 9.16153 3.52429 9.25029 3.58873 9.31652C3.65316 9.38275 3.74091 9.42121 3.83328 9.4237Z" fill="#4E2583"/>
<path d="M3.83328 7.70837H5.30911C5.40239 7.70595 5.49118 7.66781 5.55716 7.60183C5.62314 7.53585 5.66127 7.44707 5.6637 7.35379C5.6612 7.26142 5.62274 7.17367 5.55651 7.10923C5.49029 7.04479 5.40152 7.00876 5.30911 7.00879H3.83328C3.74178 7.00879 3.65403 7.04514 3.58933 7.10984C3.52463 7.17454 3.48828 7.26229 3.48828 7.35379C3.48825 7.44619 3.52429 7.53496 3.58873 7.60119C3.65316 7.66742 3.74091 7.70588 3.83328 7.70837Z" fill="#4E2583"/>
<path d="M3.83311 5.93542H7.40769C7.49053 5.92167 7.56579 5.87896 7.62009 5.8149C7.67438 5.75085 7.70418 5.6696 7.70418 5.58563C7.70418 5.50166 7.67438 5.42042 7.62009 5.35636C7.56579 5.29231 7.49053 5.2496 7.40769 5.23584H3.83311C3.75027 5.2496 3.67501 5.29231 3.62071 5.35636C3.56642 5.42042 3.53662 5.50166 3.53662 5.58563C3.53662 5.6696 3.56642 5.75085 3.62071 5.8149C3.67501 5.87896 3.75027 5.92167 3.83311 5.93542Z" fill="#4E2583"/>
<path d="M12.4583 7.20056H16.0137L16.8762 8.05348C16.9391 8.11872 17.0252 8.15659 17.1158 8.15889C17.1836 8.15659 17.2493 8.1349 17.3051 8.09639C17.3609 8.05789 17.4045 8.00418 17.4307 7.94164C17.457 7.8791 17.4647 7.81036 17.453 7.74355C17.4414 7.67675 17.4108 7.61469 17.3649 7.56473L16.4066 6.60639C16.3743 6.57294 16.3356 6.54636 16.2928 6.52824C16.25 6.51013 16.2039 6.50085 16.1574 6.50098H12.4583C12.3668 6.50098 12.279 6.53733 12.2143 6.60203C12.1496 6.66673 12.1133 6.75448 12.1133 6.84598C12.1132 6.93838 12.1493 7.02715 12.2137 7.09338C12.2782 7.15961 12.3659 7.19806 12.4583 7.20056Z" fill="#4E2583"/>
<path d="M12.4581 5.45633H14.9498C15.0006 5.46476 15.0526 5.46204 15.1022 5.44834C15.1518 5.43465 15.1979 5.41031 15.2371 5.37703C15.2764 5.34374 15.308 5.3023 15.3296 5.25559C15.3512 5.20888 15.3625 5.15802 15.3625 5.10654C15.3625 5.05506 15.3512 5.00419 15.3296 4.95748C15.308 4.91077 15.2764 4.86933 15.2371 4.83605C15.1979 4.80276 15.1518 4.77842 15.1022 4.76473C15.0526 4.75103 15.0006 4.74831 14.9498 4.75674H12.4581C12.3753 4.7705 12.3 4.81321 12.2457 4.87727C12.1914 4.94132 12.1616 5.02257 12.1616 5.10654C12.1616 5.19051 12.1914 5.27175 12.2457 5.33581C12.3 5.39986 12.3753 5.44257 12.4581 5.45633Z" fill="#4E2583"/>
<path d="M12.4583 3.71228H16.0041C16.0956 3.71228 16.1834 3.67593 16.2481 3.61123C16.3128 3.54653 16.3491 3.45878 16.3491 3.36728C16.3491 3.27487 16.3131 3.18611 16.2487 3.11988C16.1842 3.05365 16.0965 3.01519 16.0041 3.0127H12.4583C12.3659 3.01519 12.2782 3.05365 12.2137 3.11988C12.1493 3.18611 12.1132 3.27487 12.1133 3.36728C12.1133 3.45878 12.1496 3.54653 12.2143 3.61123C12.279 3.67593 12.3668 3.71228 12.4583 3.71228Z" fill="#4E2583"/>
</svg>
