<svg width="24" height="24" viewBox="0 0 24 24" fill="none" xmlns="http://www.w3.org/2000/svg">
<g clip-path="url(#clip0)">
<path d="M5.67 14.13C6.14805 14.4684 6.71931 14.6501 7.305 14.6501C7.89069 14.6501 8.46195 14.4684 8.94 14.13L9.69 15.56L6.46 21.75H1.69L5.67 14.13ZM7.3 11L8.6 13.47C8.23115 13.7612 7.77493 13.9195 7.305 13.9195C6.83507 13.9195 6.37885 13.7612 6.01 13.47L7.3 11ZM15.24 18L14.05 15.71L15.16 13.59C15.185 13.5368 15.1979 13.4788 15.1979 13.42C15.1979 13.3612 15.185 13.3032 15.16 13.25L14.45 11.9L15.12 10.62C15.1248 10.5801 15.1248 10.5399 15.12 10.5V9.59C15.1174 9.49361 15.0773 9.40205 15.0082 9.33481C14.939 9.26757 14.8464 9.22996 14.75 9.23C14.6545 9.23 14.563 9.26793 14.4954 9.33544C14.4279 9.40295 14.39 9.49452 14.39 9.59V10.34L13.68 11.7C13.6552 11.7515 13.6423 11.8079 13.6423 11.865C13.6423 11.9221 13.6552 11.9785 13.68 12.03L14.39 13.39L13.28 15.52C13.251 15.5702 13.2358 15.6271 13.2358 15.685C13.2358 15.7429 13.251 15.7998 13.28 15.85L14.47 18.14L12.59 21.75H7.27L14.27 8.35C14.2926 8.30805 14.3067 8.26201 14.3114 8.21457C14.3161 8.16713 14.3114 8.11923 14.2974 8.07365C14.2835 8.02806 14.2606 7.9857 14.2301 7.94903C14.1997 7.91235 14.1622 7.88209 14.12 7.86C14.0784 7.83593 14.0322 7.8207 13.9845 7.81524C13.9367 7.80979 13.8883 7.81424 13.8423 7.82832C13.7964 7.84239 13.7538 7.86579 13.7173 7.89705C13.6807 7.9283 13.651 7.96676 13.63 8.01L10.1 14.77L7.63 10C7.59521 9.94844 7.54829 9.90621 7.49337 9.87701C7.43845 9.84781 7.3772 9.83254 7.315 9.83254C7.2528 9.83254 7.19155 9.84781 7.13663 9.87701C7.08171 9.90621 7.03479 9.94844 7 10L0.87 21.75H0.36C0.264522 21.75 0.172955 21.7879 0.105442 21.8554C0.0379285 21.923 2.47199e-08 22.0145 2.47199e-08 22.11C-3.51977e-05 22.2064 0.0375712 22.299 0.104811 22.3682C0.172052 22.4373 0.263613 22.4774 0.36 22.48H12.85C12.8895 22.489 12.9305 22.489 12.97 22.48L13.05 22.42L13.11 22.33L15.18 18.33C15.2098 18.2783 15.2256 18.2197 15.2256 18.16C15.2256 18.1003 15.2098 18.0417 15.18 17.99" fill="#4E2583"/>
<path d="M9.1902 4.64009L10.0002 3.37009C10.0327 3.31385 10.0498 3.25004 10.0498 3.18509C10.0498 3.12014 10.0327 3.05634 10.0002 3.00009L9.1902 1.73009H14.4302V4.64009H9.1902ZM23.6402 21.7501H23.1302L15.1302 6.48009V1.36009C15.128 1.26868 15.0921 1.18131 15.0293 1.11483C14.9665 1.04836 14.8813 1.00748 14.7902 1.00009H8.5502C8.48562 0.998626 8.42183 1.01456 8.36553 1.04623C8.30923 1.0779 8.26249 1.12414 8.2302 1.18009C8.19868 1.23666 8.18213 1.30034 8.18213 1.36509C8.18213 1.42985 8.19868 1.49353 8.2302 1.55009L9.2302 3.18009L8.2302 4.81009C8.19868 4.86666 8.18213 4.93034 8.18213 4.99509C8.18213 5.05985 8.19868 5.12353 8.2302 5.18009C8.26249 5.23605 8.30923 5.28228 8.36553 5.31395C8.42183 5.34562 8.48562 5.36156 8.5502 5.36009H14.4302V6.57009C14.4259 6.59323 14.4259 6.61696 14.4302 6.64009C14.4243 6.66305 14.4243 6.68714 14.4302 6.71009L22.2702 21.7101H14.6702C14.5738 21.7101 14.4812 21.7477 14.412 21.8149C14.3429 21.8821 14.3028 21.9737 14.3002 22.0701C14.3027 22.1674 14.3425 22.2601 14.4114 22.3289C14.4802 22.3978 14.5729 22.4376 14.6702 22.4401H23.6702C23.7666 22.4375 23.8582 22.3974 23.9254 22.3283C23.9926 22.2591 24.0302 22.1665 24.0302 22.0701C24.0302 21.9746 23.9923 21.883 23.9248 21.8155C23.8572 21.748 23.7657 21.7101 23.6702 21.7101" fill="#4E2583"/>
</g>
<defs>
<clipPath id="clip0">
<rect width="23.43" height="24" fill="white"/>
</clipPath>
</defs>
</svg>
