<svg width="24" height="24" viewBox="0 0 24 24" fill="none" xmlns="http://www.w3.org/2000/svg">
<path d="M22.23 18.84H18.73C18.6332 18.8311 18.5433 18.7863 18.4778 18.7144C18.4123 18.6426 18.376 18.5489 18.376 18.4517C18.376 18.3545 18.4123 18.2608 18.4778 18.189C18.5433 18.1171 18.6332 18.0723 18.73 18.0634H22.23C22.4352 18.0607 22.631 17.9774 22.7751 17.8314C22.9192 17.6854 23 17.4885 23 17.2834V10.6667C22.9991 10.151 22.7937 9.6567 22.4287 9.29235C22.0637 8.928 21.5691 8.72336 21.0534 8.72336H3.17669C2.66098 8.72336 2.16634 8.928 1.80137 9.29235C1.43639 9.6567 1.23091 10.151 1.23003 10.6667V17.2834C1.23001 17.4885 1.31081 17.6854 1.45494 17.8314C1.59906 17.9774 1.79489 18.0607 2.00003 18.0634H5.50003C5.59681 18.0723 5.68675 18.1171 5.75223 18.189C5.81771 18.2608 5.85401 18.3545 5.85401 18.4517C5.85401 18.5489 5.81771 18.6426 5.75223 18.7144C5.68675 18.7863 5.59681 18.8311 5.50003 18.84H2.00003C1.58717 18.84 1.19123 18.676 0.899296 18.3841C0.607365 18.0922 0.443359 17.6962 0.443359 17.2834V10.6667C0.444241 9.94469 0.731446 9.25251 1.24198 8.74198C1.75251 8.23145 2.44469 7.94424 3.16669 7.94336H21.0634C21.7854 7.94424 22.4775 8.23145 22.9881 8.74198C23.4986 9.25251 23.7858 9.94469 23.7867 10.6667V17.2834C23.7867 17.6962 23.6227 18.0922 23.3308 18.3841C23.0388 18.676 22.6429 18.84 22.23 18.84Z" fill="#4E2583"/>
<path d="M18.7301 23.5072H5.51012C5.40668 23.5072 5.30748 23.4661 5.23435 23.3929C5.16121 23.3198 5.12012 23.2206 5.12012 23.1172V14.5638C5.12012 14.4604 5.16121 14.3612 5.23435 14.2881C5.30748 14.2149 5.40668 14.1738 5.51012 14.1738H18.7301C18.8336 14.1738 18.9327 14.2149 19.0059 14.2881C19.079 14.3612 19.1201 14.4604 19.1201 14.5638V23.1172C19.1201 23.2206 19.079 23.3198 19.0059 23.3929C18.9327 23.4661 18.8336 23.5072 18.7301 23.5072ZM5.89678 22.7305H18.3335V14.9505H5.89678V22.7305Z" fill="#4E2583"/>
<path d="M18.7302 8.73049H5.51017C5.45839 8.7305 5.40713 8.7202 5.35937 8.70018C5.31162 8.68017 5.26832 8.65084 5.23202 8.61392C5.19572 8.57699 5.16713 8.53321 5.14793 8.48512C5.12872 8.43703 5.11929 8.3856 5.12017 8.33383V0.563828C5.12017 0.460394 5.16126 0.361196 5.2344 0.288056C5.30754 0.214917 5.40674 0.173828 5.51017 0.173828H18.7302C18.8336 0.173828 18.9328 0.214917 19.0059 0.288056C19.0791 0.361196 19.1202 0.460394 19.1202 0.563828V8.33383C19.1211 8.3856 19.1116 8.43703 19.0924 8.48512C19.0732 8.53321 19.0446 8.57699 19.0083 8.61392C18.972 8.65084 18.9287 8.68017 18.881 8.70018C18.8332 8.7202 18.782 8.7305 18.7302 8.73049ZM5.89684 7.95049H18.3335V0.950495H5.89684V7.95049Z" fill="#4E2583"/>
<path d="M16.3968 20.5039H7.8435C7.78948 20.5089 7.73501 20.5026 7.68356 20.4854C7.63212 20.4681 7.58485 20.4404 7.54475 20.4038C7.50466 20.3673 7.47263 20.3228 7.45071 20.2731C7.4288 20.2235 7.41748 20.1698 7.41748 20.1156C7.41748 20.0613 7.4288 20.0077 7.45071 19.958C7.47263 19.9084 7.50466 19.8639 7.54475 19.8274C7.58485 19.7908 7.63212 19.763 7.68356 19.7458C7.73501 19.7286 7.78948 19.7222 7.8435 19.7273H16.3968C16.4508 19.7222 16.5053 19.7286 16.5568 19.7458C16.6082 19.763 16.6555 19.7908 16.6956 19.8274C16.7357 19.8639 16.7677 19.9084 16.7896 19.958C16.8115 20.0077 16.8228 20.0613 16.8228 20.1156C16.8228 20.1698 16.8115 20.2235 16.7896 20.2731C16.7677 20.3228 16.7357 20.3673 16.6956 20.4038C16.6555 20.4404 16.6082 20.4681 16.5568 20.4854C16.5053 20.5026 16.4508 20.5089 16.3968 20.5039Z" fill="#4E2583"/>
<path d="M16.3968 18.207H7.8435C7.78948 18.2121 7.73501 18.2057 7.68356 18.1885C7.63212 18.1713 7.58485 18.1435 7.54475 18.1069C7.50466 18.0704 7.47263 18.0259 7.45071 17.9762C7.4288 17.9266 7.41748 17.873 7.41748 17.8187C7.41748 17.7645 7.4288 17.7108 7.45071 17.6612C7.47263 17.6115 7.50466 17.567 7.54475 17.5305C7.58485 17.4939 7.63212 17.4662 7.68356 17.4489C7.73501 17.4317 7.78948 17.4254 7.8435 17.4304H16.3968C16.4508 17.4254 16.5053 17.4317 16.5568 17.4489C16.6082 17.4662 16.6555 17.4939 16.6956 17.5305C16.7357 17.567 16.7677 17.6115 16.7896 17.6612C16.8115 17.7108 16.8228 17.7645 16.8228 17.8187C16.8228 17.873 16.8115 17.9266 16.7896 17.9762C16.7677 18.0259 16.7357 18.0704 16.6956 18.1069C16.6555 18.1435 16.6082 18.1713 16.5568 18.1885C16.5053 18.2057 16.4508 18.2121 16.3968 18.207Z" fill="#4E2583"/>
</svg>
