<svg width="24" height="24" viewBox="0 0 24 24" fill="none" xmlns="http://www.w3.org/2000/svg">
<g clip-path="url(#clip0)">
<path d="M20.7411 23.0419H2.28109C1.87531 23.0419 1.48615 22.8807 1.19922 22.5938C0.912286 22.3069 0.75109 21.9177 0.75109 21.5119C0.75109 21.1061 0.912286 20.717 1.19922 20.43C1.48615 20.1431 1.87531 19.9819 2.28109 19.9819H2.32109L20.2611 17.9819C20.3908 17.9692 20.5214 17.9692 20.6511 17.9819H20.7411C21.3911 18.0226 22.0011 18.3095 22.447 18.7842C22.8929 19.2589 23.1412 19.8856 23.1412 20.5369C23.1412 21.1882 22.8929 21.815 22.447 22.2897C22.0011 22.7643 21.3911 23.0512 20.7411 23.0919V23.0419ZM18.9411 6.52192L19.7511 5.71192C23.5311 9.97192 22.0911 15.8719 21.6411 17.3319C21.3485 17.2475 21.0456 17.2038 20.7411 17.2019H20.6011H20.1511L19.1511 17.3119C21.9711 12.8919 19.5711 7.65192 18.9511 6.46192L18.9411 6.52192ZM16.4911 7.97192C16.4416 8.02427 16.3819 8.06597 16.3157 8.09447C16.2495 8.12297 16.1782 8.13767 16.1061 8.13767C16.034 8.13767 15.9627 8.12297 15.8965 8.09447C15.8303 8.06597 15.7706 8.02427 15.7211 7.97192C15.6203 7.86911 15.5639 7.73088 15.5639 7.58692C15.5639 7.44295 15.6203 7.30473 15.7211 7.20192L20.0211 2.84192C20.1262 2.74564 20.2636 2.69224 20.4061 2.69224C20.5486 2.69224 20.686 2.74564 20.7911 2.84192C20.8923 2.94669 20.9496 3.08625 20.9511 3.23192C20.9512 3.30273 20.937 3.37285 20.9096 3.43811C20.8821 3.50338 20.8418 3.56248 20.7911 3.61192L19.5111 4.97192L16.4911 7.97192ZM22.3211 17.6419C22.7711 16.1719 24.3811 9.78192 20.2711 5.22192L21.3311 4.16192C21.4493 4.04392 21.543 3.90359 21.6065 3.74908C21.67 3.59457 21.7022 3.42897 21.7011 3.26192C21.7022 3.09486 21.67 2.92927 21.6065 2.77476C21.543 2.62025 21.4493 2.47991 21.3311 2.36192C21.089 2.12968 20.7665 2 20.4311 2C20.0956 2 19.7732 2.12968 19.5311 2.36192L15.2011 6.66192C14.9665 6.90278 14.8353 7.22571 14.8353 7.56192C14.8353 7.89813 14.9665 8.22105 15.2011 8.46192C15.3194 8.57973 15.4598 8.67305 15.6142 8.73653C15.7687 8.80002 15.9341 8.83244 16.1011 8.83192C16.2683 8.83412 16.4342 8.80247 16.5889 8.73889C16.7436 8.6753 16.8838 8.58109 17.0011 8.46192L18.4011 7.06192C19.1211 8.52192 21.1811 13.4919 18.1811 17.4819L2.18109 19.2519C1.58435 19.2705 1.01943 19.5253 0.610602 19.9604C0.201773 20.3955 -0.0174753 20.9752 0.00108987 21.5719C0.019655 22.1687 0.274513 22.7336 0.709597 23.1424C1.14468 23.5512 1.72435 23.7705 2.32109 23.7519H20.7411C21.4676 23.7502 22.1729 23.5073 22.7465 23.0614C23.32 22.6154 23.7292 21.9917 23.91 21.2881C24.0908 20.5845 24.0328 19.8407 23.7453 19.1736C23.4577 18.5064 22.9568 17.9536 22.3211 17.6019" fill="#4E2583"/>
<path d="M20.741 21.3921C20.5611 21.3921 20.3851 21.3387 20.2355 21.2387C20.0858 21.1387 19.9692 20.9966 19.9003 20.8303C19.8314 20.664 19.8134 20.481 19.8485 20.3045C19.8836 20.128 19.9703 19.9659 20.0976 19.8386C20.2248 19.7113 20.387 19.6246 20.5635 19.5895C20.74 19.5544 20.923 19.5724 21.0893 19.6413C21.2556 19.7102 21.3977 19.8268 21.4977 19.9765C21.5977 20.1261 21.651 20.3021 21.651 20.4821C21.651 20.7234 21.5552 20.9549 21.3845 21.1255C21.2139 21.2962 20.9824 21.3921 20.741 21.3921ZM20.741 18.8521C20.4163 18.8521 20.0988 18.9485 19.8289 19.1292C19.559 19.3098 19.3488 19.5665 19.2249 19.8668C19.1011 20.167 19.0692 20.4973 19.1333 20.8157C19.1974 21.1341 19.3546 21.4263 19.585 21.6552C19.8153 21.8842 20.1085 22.0396 20.4273 22.1017C20.7461 22.1639 21.0761 22.13 21.3756 22.0043C21.6751 21.8787 21.9305 21.6669 22.1095 21.3959C22.2885 21.1249 22.383 20.8068 22.381 20.4821C22.3784 20.0488 22.2045 19.6343 21.8972 19.3289C21.5899 19.0235 21.1743 18.852 20.741 18.8521Z" fill="#4E2583"/>
<path d="M2.28113 21.1421C2.1838 21.1446 2.09115 21.1844 2.0223 21.2533C1.95346 21.3221 1.91366 21.4148 1.91113 21.5121C1.91374 21.6085 1.95387 21.7 2.02298 21.7673C2.09208 21.8345 2.18471 21.8721 2.28113 21.8721C2.37661 21.8721 2.46818 21.8342 2.53569 21.7666C2.6032 21.6991 2.64113 21.6076 2.64113 21.5121C2.64117 21.4157 2.60356 21.323 2.53632 21.2539C2.46908 21.1848 2.37752 21.1447 2.28113 21.1421Z" fill="#4E2583"/>
</g>
<defs>
<clipPath id="clip0">
<rect width="24" height="24" fill="white"/>
</clipPath>
</defs>
</svg>
