<svg width="24" height="24" viewBox="0 0 24 24" fill="none" xmlns="http://www.w3.org/2000/svg">
<path d="M11.845 21.9012V19.4479C13.5685 19.3621 15.1985 18.6389 16.4187 17.4187C17.6389 16.1985 18.3621 14.5685 18.4479 12.845H20.9012C20.8112 15.2181 19.8281 17.4696 18.1489 19.1489C16.4696 20.8281 14.2181 21.8112 11.845 21.9012ZM2.09875 12.845H4.5425C4.63273 14.5686 5.35864 16.1975 6.57996 17.4171C7.80127 18.6366 9.43128 19.3602 11.155 19.4479V21.9012C8.7819 21.8112 6.53039 20.8281 4.85114 19.1489C3.1719 17.4696 2.18884 15.2181 2.09875 12.845ZM11.155 3.09875V5.55208C9.43128 5.63981 7.80127 6.36336 6.57996 7.58291C5.35864 8.80245 4.63273 10.4314 4.5425 12.155H2.09875C2.18884 9.7819 3.1719 7.53039 4.85114 5.85114C6.53039 4.1719 8.7819 3.18884 11.155 3.09875ZM16.4546 8.66667L11.5 13.6117L10.2062 12.3179C10.1399 12.2524 10.0504 12.2156 9.95708 12.2156C9.8638 12.2156 9.77428 12.2524 9.70792 12.3179C9.67575 12.35 9.65023 12.3881 9.63282 12.43C9.61541 12.4719 9.60644 12.5169 9.60644 12.5623C9.60644 12.6077 9.61541 12.6527 9.63282 12.6946C9.65023 12.7365 9.67575 12.7746 9.70792 12.8067L11.2508 14.3496C11.283 14.3832 11.3217 14.41 11.3645 14.4283C11.4074 14.4465 11.4534 14.456 11.5 14.456C11.5466 14.456 11.5926 14.4465 11.6355 14.4283C11.6783 14.41 11.717 14.3832 11.7492 14.3496L16.8475 9.24167C17.4635 10.2176 17.7954 11.3459 17.8058 12.5C17.8123 13.9917 17.289 15.4373 16.329 16.5791C15.369 17.7209 14.0349 18.4848 12.5642 18.7347C11.0935 18.9845 9.58192 18.7041 8.29874 17.9434C7.01556 17.1826 6.04416 15.991 5.55765 14.5808C5.07114 13.1706 5.10113 11.6335 5.64226 10.2434C6.18339 8.85328 7.20051 7.70044 8.51238 6.99031C9.82425 6.28019 11.3456 6.05891 12.8054 6.36592C14.2653 6.67293 15.5686 7.48828 16.4833 8.66667H16.4546ZM18.0933 5.21667L19.4829 3.875V5.79167C19.4844 5.85895 19.505 5.92443 19.5424 5.98043C19.5797 6.03643 19.6322 6.08065 19.6937 6.10792H19.8279H21.7446L20.3838 7.51667H18.0933V5.21667ZM22.655 12.155H21.5912C21.5676 11.1774 21.3997 10.2086 21.0929 9.28C21.0624 9.19327 20.9993 9.1218 20.9171 9.08068C20.8348 9.03955 20.7398 9.03199 20.6521 9.05958C20.6084 9.07365 20.5679 9.0963 20.5331 9.12619C20.4983 9.15609 20.4698 9.19263 20.4493 9.23369C20.4287 9.27474 20.4166 9.31948 20.4136 9.36528C20.4106 9.41108 20.4167 9.45702 20.4317 9.50042C20.7092 10.3526 20.8641 11.24 20.8917 12.1358H18.4479C18.393 10.9188 18.016 9.73818 17.3554 8.71458L17.8825 8.1875H20.5275C20.5734 8.18943 20.6192 8.18192 20.662 8.16544C20.7049 8.14896 20.7439 8.12385 20.7767 8.09167L22.8658 6.0025C22.9128 5.95191 22.9447 5.88932 22.9583 5.82166C22.9718 5.754 22.9664 5.68391 22.9425 5.61917C22.9156 5.5554 22.8701 5.50119 22.812 5.46359C22.7539 5.42599 22.6859 5.40674 22.6167 5.40833H20.7L22.1183 3.98042C22.1517 3.94905 22.1783 3.91119 22.1965 3.86916C22.2146 3.82713 22.224 3.78183 22.224 3.73604C22.224 3.69025 22.2146 3.64495 22.1965 3.60292C22.1783 3.56089 22.1517 3.52303 22.1183 3.49167C22.0863 3.4595 22.0482 3.43398 22.0063 3.41657C21.9643 3.39916 21.9194 3.39019 21.874 3.39019C21.8286 3.39019 21.7836 3.39916 21.7417 3.41657C21.6997 3.43398 21.6616 3.4595 21.6296 3.49167L20.1825 4.92917V3.0125C20.182 2.9425 20.1608 2.8742 20.1216 2.81621C20.0824 2.75823 20.0269 2.71315 19.9621 2.68667C19.899 2.66249 19.8302 2.65686 19.764 2.67045C19.6978 2.68403 19.6368 2.71626 19.5883 2.76333L17.4896 4.83333C17.4288 4.90222 17.3948 4.99064 17.3937 5.0825V7.70833L16.9433 8.14917C16.3284 7.37644 15.5553 6.7441 14.676 6.29453C13.7967 5.84496 12.8315 5.58856 11.845 5.5425V3.09875C13.4135 3.15911 14.942 3.61041 16.2917 4.41167C16.3305 4.43604 16.3739 4.45241 16.4192 4.45982C16.4645 4.46722 16.5108 4.46553 16.5554 4.45482C16.6 4.44411 16.6421 4.4246 16.6791 4.39745C16.716 4.37029 16.7472 4.33603 16.7708 4.29667C16.8167 4.21633 16.8293 4.12126 16.806 4.03174C16.7827 3.94222 16.7254 3.86534 16.6462 3.8175C15.1928 2.95269 13.5448 2.46819 11.8546 2.40875V1.345C11.8546 1.2535 11.8182 1.16575 11.7535 1.10105C11.6888 1.03635 11.6011 1 11.5096 1C11.4181 1 11.3303 1.03635 11.2656 1.10105C11.2009 1.16575 11.1646 1.2535 11.1646 1.345V2.39917C8.60432 2.48732 6.17276 3.54318 4.36042 5.35374C2.54808 7.1643 1.48983 9.59482 1.39917 12.155H0.345C0.2535 12.155 0.165748 12.1913 0.101048 12.256C0.0363481 12.3207 0 12.4085 0 12.5C0 12.5915 0.0363481 12.6793 0.101048 12.744C0.165748 12.8087 0.2535 12.845 0.345 12.845H1.39917C1.48969 15.4036 2.5466 17.8328 4.35692 19.6431C6.16724 21.4534 8.59642 22.5103 11.155 22.6008V23.655C11.155 23.7465 11.1913 23.8343 11.256 23.899C11.3207 23.9637 11.4085 24 11.5 24C11.5915 24 11.6793 23.9637 11.744 23.899C11.8087 23.8343 11.845 23.7465 11.845 23.655V22.6008C14.4036 22.5103 16.8328 21.4534 18.6431 19.6431C20.4534 17.8328 21.5103 15.4036 21.6008 12.845H22.655C22.7465 12.845 22.8343 12.8087 22.899 12.744C22.9637 12.6793 23 12.5915 23 12.5C23 12.4085 22.9637 12.3207 22.899 12.256C22.8343 12.1913 22.7465 12.155 22.655 12.155Z" fill="#4E2583"/>
<path d="M7.66666 12.5003C7.61455 13.517 7.96845 14.5127 8.6505 15.2684C9.33254 16.0242 10.2869 16.478 11.3035 16.5301C12.3202 16.5822 13.3159 16.2283 14.0716 15.5463C14.8274 14.8642 15.2812 13.9099 15.3333 12.8932C15.3373 12.8479 15.3322 12.8022 15.3184 12.7588C15.3046 12.7155 15.2824 12.6753 15.253 12.6405C15.2236 12.6058 15.1876 12.5772 15.1471 12.5564C15.1066 12.5356 15.0624 12.5231 15.0171 12.5195C14.926 12.5113 14.8352 12.5386 14.7638 12.5957C14.6923 12.6529 14.6457 12.7354 14.6337 12.8261C14.5624 13.5048 14.2715 14.1416 13.8052 14.6399C13.339 15.1381 12.7228 15.4705 12.0504 15.5866C11.3779 15.7027 10.686 15.5962 10.0796 15.2831C9.47325 14.9701 8.98564 14.4677 8.69087 13.8523C8.39609 13.2368 8.31026 12.542 8.44642 11.8733C8.58257 11.2046 8.93326 10.5987 9.44522 10.1475C9.95717 9.69634 10.6024 9.42461 11.2829 9.37359C11.9634 9.32258 12.6419 9.49508 13.2154 9.86488C13.2933 9.89956 13.3812 9.90498 13.4628 9.88015C13.5444 9.85533 13.6143 9.80192 13.6597 9.72972C13.7051 9.65752 13.723 9.57137 13.71 9.48706C13.6971 9.40276 13.6542 9.32595 13.5892 9.27072C13.0095 8.89391 12.3387 8.68089 11.6478 8.65422C10.957 8.62755 10.2717 8.78823 9.66474 9.11923C9.05774 9.45023 8.55156 9.93923 8.19982 10.5344C7.84807 11.1297 7.66384 11.8089 7.66666 12.5003Z" fill="#4E2583"/>
</svg>
