<svg width="24" height="24" viewBox="0 0 24 24" fill="none" xmlns="http://www.w3.org/2000/svg">
<g clip-path="url(#clip0)">
<path d="M19.88 12.0082C19.8196 10.4391 19.3055 8.92116 18.4 7.63825C18.809 7.25549 19.1715 6.82586 19.48 6.35825C20.7125 7.97548 21.4115 9.93604 21.48 11.9682L19.88 12.0082ZM12 22.1582V20.5282C14.0502 20.4378 15.9922 19.5827 17.4433 18.1316C18.8945 16.6804 19.7495 14.7385 19.84 12.6882H21.47C21.376 15.1698 20.3481 17.5243 18.5921 19.2803C16.8361 21.0363 14.4816 22.0642 12 22.1582ZM11.38 12.5882C11.4515 12.6522 11.5441 12.6876 11.64 12.6876C11.7359 12.6876 11.8285 12.6522 11.9 12.5882L13.84 10.6382C14.2721 11.1999 14.4743 11.905 14.4055 12.6103C14.3368 13.3157 14.0022 13.9684 13.4696 14.436C12.9371 14.9036 12.2466 15.151 11.5383 15.1281C10.83 15.1051 10.157 14.8135 9.65589 14.3124C9.15478 13.8112 8.86315 13.1382 8.84019 12.4299C8.81723 11.7216 9.06466 11.0311 9.53227 10.4986C9.99987 9.96609 10.6526 9.63148 11.3579 9.5627C12.0633 9.49391 12.7683 9.69611 13.33 10.1282L11.38 12.0682C11.3116 12.1375 11.2732 12.2309 11.2732 12.3282C11.2732 12.4256 11.3116 12.519 11.38 12.5882ZM11.64 17.4582C10.2794 17.4582 8.9746 16.9178 8.01254 15.9557C7.05048 14.9936 6.51 13.6888 6.51 12.3282C6.51 10.9677 7.05048 9.66285 8.01254 8.70079C8.9746 7.73873 10.2794 7.19825 11.64 7.19825C12.6647 7.19746 13.6655 7.50782 14.51 8.08825C14.17 8.67825 13.9 9.19825 13.74 9.52825C13.1352 9.07191 12.3976 8.82606 11.64 8.82825C10.9478 8.82825 10.2711 9.03352 9.6955 9.4181C9.11993 9.80269 8.67133 10.3493 8.40642 10.9889C8.14151 11.6284 8.0722 12.3321 8.20725 13.0111C8.3423 13.69 8.67564 14.3136 9.16513 14.8031C9.65461 15.2926 10.2783 15.6259 10.9572 15.761C11.6361 15.896 12.3399 15.8267 12.9794 15.5618C13.6189 15.2969 14.1656 14.8483 14.5501 14.2727C14.9347 13.6972 15.14 13.0205 15.14 12.3282C15.1422 11.5706 14.8963 10.8331 14.44 10.2282C14.77 10.0682 15.29 9.79825 15.88 9.45825C16.4604 10.3027 16.7708 11.3035 16.77 12.3282C16.77 13.6888 16.2295 14.9936 15.2675 15.9557C14.3054 16.9178 13.0006 17.4582 11.64 17.4582ZM11.28 19.7982C9.4248 19.704 7.67056 18.9247 6.35705 17.6112C5.04353 16.2977 4.2642 14.5434 4.17 12.6882H5.84C5.9297 14.1122 6.53585 15.4546 7.54476 16.4635C8.55367 17.4724 9.89601 18.0785 11.32 18.1682L11.28 19.7982ZM11.28 22.1582C8.79842 22.0642 6.44394 21.0363 4.68794 19.2803C2.93194 17.5243 1.90402 15.1698 1.81 12.6882H3.48C3.57049 14.7385 4.42554 16.6804 5.87667 18.1316C7.3278 19.5827 9.26979 20.4378 11.32 20.5282L11.28 22.1582ZM11.28 2.49825V4.12825C9.23024 4.22917 7.2926 5.09412 5.84887 6.55266C4.40514 8.0112 3.56001 9.95756 3.48 12.0082H1.85C1.94402 9.52667 2.97194 7.17218 4.72794 5.41618C6.48394 3.66018 8.83842 2.63227 11.32 2.53825L11.28 2.49825ZM11.32 6.53825C9.89762 6.62769 8.55659 7.23243 7.54791 8.23927C6.53923 9.24611 5.93204 10.586 5.84 12.0082H4.21C4.3042 10.153 5.08353 8.39881 6.39705 7.08529C7.71056 5.77178 9.4648 4.99245 11.32 4.89825V6.53825ZM17.65 4.53825C17.1842 4.8412 16.7576 5.20059 16.38 5.60825C15.0932 4.70298 13.5721 4.18901 12 4.12825V2.49825C14.0322 2.56677 15.9928 3.26573 17.61 4.49825L17.65 4.53825ZM14.93 7.46825C14.0726 6.88413 13.0751 6.53896 12.04 6.46825V4.85825C13.4193 4.92488 14.7526 5.3751 15.89 6.15825C15.5305 6.57434 15.1966 7.01181 14.89 7.46825H14.93ZM19.11 12.6882C19.0158 14.5434 18.2365 16.2977 16.923 17.6112C15.6094 18.9247 13.8552 19.704 12 19.7982V18.1682C13.424 18.0785 14.7663 17.4724 15.7752 16.4635C16.7841 15.4546 17.3903 14.1122 17.48 12.6882H19.11ZM17.52 12.0082C17.4536 10.9723 17.1081 9.97365 16.52 9.11825C16.9777 8.81347 17.4153 8.47944 17.83 8.11825C18.6303 9.26336 19.0881 10.6126 19.15 12.0082H17.52ZM19.36 4.68825C19.19 6.68825 16.26 8.51824 14.72 9.32825C15.53 7.78825 17.32 4.85825 19.36 4.68825ZM21.07 1.20825C21.44 0.838246 21.68 0.748246 21.78 0.778246C21.88 0.808246 22.08 1.30825 22.1 1.60825C22.1069 1.69613 22.1449 1.77867 22.2072 1.841C22.2696 1.90334 22.3521 1.94137 22.44 1.94825C22.74 1.94825 23.2 2.09825 23.26 2.26825C23.32 2.43825 23.21 2.60825 22.84 2.97825C22.2222 3.59898 21.3947 3.96636 20.52 4.00825L22 2.57825C22.0568 2.50714 22.0853 2.4176 22.0803 2.32675C22.0752 2.2359 22.0368 2.15011 21.9725 2.08577C21.9081 2.02143 21.8223 1.98305 21.7315 1.97798C21.6406 1.9729 21.5511 2.00148 21.48 2.05825L20 3.47825C20.0524 2.60287 20.4305 1.77879 21.06 1.16825L21.07 1.20825ZM23 12.0082H22.24C22.1607 9.69594 21.3206 7.47442 19.85 5.68825C19.971 5.39787 20.0485 5.09123 20.08 4.77825C20.6808 4.80167 21.28 4.69998 21.8395 4.47964C22.3989 4.2593 22.9065 3.9251 23.33 3.49825C23.89 2.93825 24.09 2.43825 23.93 2.00825C23.8122 1.79833 23.645 1.6203 23.4429 1.48961C23.2407 1.35892 23.0098 1.2795 22.77 1.25825C22.7531 1.00957 22.6736 0.769189 22.539 0.55941C22.4044 0.34963 22.219 0.177245 22 0.0582457C21.57 -0.101754 21.07 0.0582457 20.51 0.658246C20.0796 1.0833 19.7432 1.59402 19.5228 2.15732C19.3023 2.72062 19.2025 3.32395 19.23 3.92825C18.917 3.95977 18.6104 4.03727 18.32 4.15825C16.5346 2.68634 14.3126 1.84607 12 1.76825V1.00825C12 0.912768 11.9621 0.8212 11.8946 0.753687C11.827 0.686174 11.7355 0.648246 11.64 0.648246C11.5445 0.648246 11.453 0.686174 11.3854 0.753687C11.3179 0.8212 11.28 0.912768 11.28 1.00825V1.76825C8.60602 1.87552 6.0718 2.99118 4.18692 4.8909C2.30205 6.79061 1.2063 9.3335 1.12 12.0082H0.36C0.264522 12.0082 0.172955 12.0462 0.105442 12.1137C0.0379285 12.1812 0 12.2728 0 12.3682C0 12.4637 0.0379285 12.5553 0.105442 12.6228C0.172955 12.6903 0.264522 12.7282 0.36 12.7282H1.12C1.2168 15.4026 2.32252 17.9411 4.21481 19.8334C6.1071 21.7257 8.64565 22.8314 11.32 22.9282V23.6882C11.32 23.7837 11.3579 23.8753 11.4254 23.9428C11.493 24.0103 11.5845 24.0482 11.68 24.0482C11.7755 24.0482 11.867 24.0103 11.9346 23.9428C12.0021 23.8753 12.04 23.7837 12.04 23.6882V22.9282C14.7144 22.8314 17.2529 21.7257 19.1452 19.8334C21.0375 17.9411 22.1432 15.4026 22.24 12.7282H23C23.0955 12.7282 23.187 12.6903 23.2546 12.6228C23.3221 12.5553 23.36 12.4637 23.36 12.3682C23.36 12.2728 23.3221 12.1812 23.2546 12.1137C23.187 12.0462 23.0955 12.0082 23 12.0082Z" fill="#4E2583"/>
</g>
<defs>
<clipPath id="clip0">
<rect width="24" height="24" fill="white"/>
</clipPath>
</defs>
</svg>
