<svg width="24" height="24" viewBox="0 0 24 24" fill="none" xmlns="http://www.w3.org/2000/svg">
<g clip-path="url(#clip0)">
<path d="M23.27 21.0904H8.63C8.63 21.0404 8.63 21.0004 8.63 20.9504V3.00042C8.63 3.00042 8.63 2.91042 8.63 2.87042H23.27V21.0904ZM7.91 21.0004C7.91 21.6157 7.66557 22.2058 7.23049 22.6409C6.7954 23.076 6.2053 23.3204 5.59 23.3204H3.05C2.4347 23.3204 1.8446 23.076 1.40951 22.6409C0.974428 22.2058 0.73 21.6157 0.73 21.0004V3.00042C0.743076 2.39382 0.993265 1.81649 1.42694 1.39216C1.86062 0.967828 2.44326 0.730276 3.05 0.730417H5.59C6.19674 0.730276 6.77938 0.967828 7.21306 1.39216C7.64674 1.81649 7.89692 2.39382 7.91 3.00042V21.0004ZM23.64 2.18042H8.51C8.33004 1.54693 7.94663 0.990253 7.41891 0.596276C6.8912 0.2023 6.24851 -0.00708786 5.59 0.000416727H3.05C2.65185 -0.00622008 2.25636 0.0664758 1.88659 0.214266C1.51682 0.362056 1.18018 0.581982 0.896283 0.861221C0.61239 1.14046 0.38693 1.47342 0.233048 1.8407C0.0791673 2.20797 -5.52817e-05 2.60221 2.89421e-08 3.00042V21.0004C-5.52817e-05 21.3986 0.0791673 21.7929 0.233048 22.1601C0.38693 22.5274 0.61239 22.8604 0.896283 23.1396C1.18018 23.4189 1.51682 23.6388 1.88659 23.7866C2.25636 23.9344 2.65185 24.0071 3.05 24.0004H5.59C6.24851 24.0079 6.8912 23.7985 7.41891 23.4046C7.94663 23.0106 8.33004 22.4539 8.51 21.8204H23.64C23.7364 21.8178 23.8279 21.7777 23.8952 21.7086C23.9624 21.6395 24 21.5468 24 21.4504V2.54042C24 2.44494 23.9621 2.35337 23.8946 2.28586C23.827 2.21835 23.7355 2.18042 23.64 2.18042Z" fill="#4E2583"/>
<path d="M12.1698 5.55043C12.2687 5.55168 12.3664 5.57276 12.457 5.6124C12.5476 5.65205 12.6294 5.70946 12.6975 5.78125C12.7655 5.85303 12.8185 5.93773 12.8532 6.03034C12.888 6.12295 12.9038 6.22159 12.8998 6.32043C12.8972 6.5123 12.8191 6.69542 12.6825 6.83016C12.5459 6.96491 12.3617 7.04045 12.1698 7.04043C12.0647 7.05262 11.9583 7.04245 11.8574 7.01058C11.7565 6.9787 11.6635 6.92585 11.5845 6.85549C11.5055 6.78513 11.4423 6.69886 11.399 6.60233C11.3557 6.50581 11.3334 6.40122 11.3334 6.29543C11.3334 6.18964 11.3557 6.08505 11.399 5.98853C11.4423 5.892 11.5055 5.80572 11.5845 5.73536C11.6635 5.66501 11.7565 5.61215 11.8574 5.58028C11.9583 5.54841 12.0647 5.53823 12.1698 5.55043ZM12.1698 7.77043C12.4605 7.76645 12.7435 7.67636 12.983 7.51155C13.2225 7.34674 13.4078 7.11461 13.5153 6.84452C13.6229 6.57443 13.648 6.2785 13.5874 5.99416C13.5268 5.70982 13.3832 5.44983 13.1749 5.24708C12.9665 5.04432 12.7027 4.90789 12.4169 4.85505C12.131 4.80221 11.8358 4.83533 11.5688 4.95022C11.3017 5.0651 11.0747 5.2566 10.9165 5.5005C10.7583 5.74439 10.6759 6.02973 10.6798 6.32043C10.6798 6.51169 10.7177 6.70106 10.7911 6.87764C10.8646 7.05422 10.9723 7.21451 11.108 7.34929C11.2438 7.48406 11.4048 7.59066 11.5819 7.66294C11.7589 7.73522 11.9486 7.77175 12.1398 7.77043" fill="#4E2583"/>
<path d="M16 5.5502C16.1981 5.55279 16.3874 5.63264 16.5274 5.77274C16.6675 5.91283 16.7474 6.1021 16.75 6.3002C16.7373 6.49033 16.6527 6.66849 16.5134 6.7985C16.3741 6.92851 16.1905 7.00063 16 7.0002C15.8037 7.0002 15.6155 6.92224 15.4767 6.78346C15.3379 6.64469 15.26 6.45647 15.26 6.2602C15.2701 6.07002 15.3522 5.89082 15.4897 5.75896C15.6271 5.62711 15.8095 5.55247 16 5.5502ZM16 7.7702C16.2884 7.76039 16.5675 7.6659 16.8026 7.49853C17.0377 7.33115 17.2183 7.09829 17.3219 6.82897C17.4256 6.55964 17.4476 6.26578 17.3854 5.984C17.3231 5.70221 17.1793 5.44499 16.9719 5.24437C16.7645 5.04376 16.5026 4.90864 16.2189 4.85586C15.9352 4.80307 15.6422 4.83496 15.3765 4.94754C15.1108 5.06012 14.8841 5.24841 14.7247 5.48895C14.5652 5.72949 14.4801 6.01163 14.48 6.3002C14.4799 6.49753 14.5195 6.69285 14.5965 6.87454C14.6734 7.05623 14.7862 7.22056 14.9281 7.35774C15.0699 7.49491 15.2379 7.60213 15.4221 7.67299C15.6062 7.74386 15.8028 7.77692 16 7.7702Z" fill="#4E2583"/>
<path d="M19.7498 5.55053C19.9479 5.55312 20.1372 5.63297 20.2773 5.77307C20.4173 5.91316 20.4972 6.10243 20.4998 6.30053C20.4972 6.49771 20.417 6.68591 20.2766 6.82441C20.1362 6.96291 19.947 7.04055 19.7498 7.04053C19.6518 7.04186 19.5545 7.02369 19.4635 6.9871C19.3726 6.95051 19.2898 6.89621 19.22 6.82736C19.1503 6.75851 19.0949 6.67649 19.0571 6.58605C19.0192 6.49561 18.9998 6.39856 18.9998 6.30053C18.9998 6.10334 19.0774 5.91408 19.2159 5.77371C19.3544 5.63334 19.5426 5.55316 19.7398 5.55053H19.7498ZM19.7398 7.77053C20.0309 7.77251 20.3161 7.68799 20.5592 7.52767C20.8022 7.36735 20.9922 7.13847 21.105 6.87004C21.2178 6.60161 21.2483 6.30574 21.1927 6.01993C21.1372 5.73412 20.998 5.47126 20.7928 5.26467C20.5876 5.05809 20.3257 4.91709 20.0403 4.85955C19.7548 4.80202 19.4588 4.83054 19.1896 4.9415C18.9204 5.05246 18.6902 5.24086 18.5282 5.48282C18.3663 5.72477 18.2798 6.00937 18.2798 6.30053C18.2798 6.6904 18.4347 7.0643 18.7103 7.33998C18.986 7.61566 19.3599 7.77053 19.7498 7.77053" fill="#4E2583"/>
<path d="M12.1502 9.36037C12.3464 9.36037 12.5347 9.43834 12.6734 9.57711C12.8122 9.71589 12.8902 9.90411 12.8902 10.1004C12.8902 10.2966 12.8122 10.4849 12.6734 10.6236C12.5347 10.7624 12.3464 10.8404 12.1502 10.8404C11.9539 10.8404 11.7657 10.7624 11.6269 10.6236C11.4881 10.4849 11.4102 10.2966 11.4102 10.1004C11.4102 9.90411 11.4881 9.71589 11.6269 9.57711C11.7657 9.43834 11.9539 9.36037 12.1502 9.36037ZM12.1502 11.5704C12.4409 11.5704 12.7251 11.4842 12.9669 11.3226C13.2086 11.1611 13.397 10.9315 13.5083 10.6629C13.6195 10.3943 13.6486 10.0987 13.5919 9.81359C13.5352 9.52844 13.3952 9.26651 13.1896 9.06092C12.984 8.85534 12.7221 8.71534 12.437 8.65862C12.1518 8.6019 11.8562 8.63101 11.5876 8.74227C11.319 8.85353 11.0894 9.04194 10.9279 9.28368C10.7664 9.52542 10.6802 9.80963 10.6802 10.1004C10.6802 10.4902 10.835 10.8641 11.1107 11.1398C11.3864 11.4155 11.7603 11.5704 12.1502 11.5704Z" fill="#4E2583"/>
<path d="M15.9998 9.36037C16.196 9.36037 16.3843 9.43834 16.523 9.57711C16.6618 9.71589 16.7398 9.90411 16.7398 10.1004C16.7398 10.2966 16.6618 10.4849 16.523 10.6236C16.3843 10.7624 16.196 10.8404 15.9998 10.8404C15.8035 10.8404 15.6153 10.7624 15.4765 10.6236C15.3377 10.4849 15.2598 10.2966 15.2598 10.1004C15.2598 9.90411 15.3377 9.71589 15.4765 9.57711C15.6153 9.43834 15.8035 9.36037 15.9998 9.36037ZM15.9998 11.5704C16.2905 11.5704 16.5747 11.4842 16.8165 11.3226C17.0582 11.1611 17.2466 10.9315 17.3579 10.6629C17.4691 10.3943 17.4983 10.0987 17.4415 9.81359C17.3848 9.52844 17.2448 9.26651 17.0392 9.06092C16.8337 8.85534 16.5717 8.71534 16.2866 8.65862C16.0014 8.6019 15.7058 8.63101 15.4372 8.74227C15.1686 8.85353 14.9391 9.04194 14.7775 9.28368C14.616 9.52542 14.5298 9.80963 14.5298 10.1004C14.5298 10.4902 14.6847 10.8641 14.9603 11.1398C15.236 11.4155 15.6099 11.5704 15.9998 11.5704Z" fill="#4E2583"/>
<path d="M19.7498 9.36037C19.946 9.36037 20.1343 9.43834 20.273 9.57711C20.4118 9.71589 20.4898 9.90411 20.4898 10.1004C20.4898 10.2966 20.4118 10.4849 20.273 10.6236C20.1343 10.7624 19.946 10.8404 19.7498 10.8404C19.5535 10.8404 19.3653 10.7624 19.2265 10.6236C19.0877 10.4849 19.0098 10.2966 19.0098 10.1004C19.0098 9.90411 19.0877 9.71589 19.2265 9.57711C19.3653 9.43834 19.5535 9.36037 19.7498 9.36037ZM19.7498 11.5704C20.0405 11.5704 20.3247 11.4842 20.5665 11.3226C20.8082 11.1611 20.9966 10.9315 21.1079 10.6629C21.2191 10.3943 21.2483 10.0987 21.1915 9.81359C21.1348 9.52844 20.9948 9.26651 20.7892 9.06092C20.5836 8.85534 20.3217 8.71534 20.0366 8.65862C19.7514 8.6019 19.4558 8.63101 19.1872 8.74227C18.9186 8.85353 18.6891 9.04194 18.5275 9.28368C18.366 9.52542 18.2798 9.80963 18.2798 10.1004C18.2798 10.4902 18.4347 10.8641 18.7103 11.1398C18.986 11.4155 19.3599 11.5704 19.7498 11.5704Z" fill="#4E2583"/>
<path d="M12.1502 13.1602C12.3474 13.1602 12.5366 13.2378 12.677 13.3763C12.8174 13.5148 12.8975 13.703 12.9002 13.9002C12.8976 14.0983 12.8177 14.2875 12.6776 14.4276C12.5375 14.5677 12.3483 14.6476 12.1502 14.6502C11.953 14.6475 11.7648 14.5674 11.6263 14.427C11.4878 14.2866 11.4102 14.0974 11.4102 13.9002C11.4102 13.7039 11.4881 13.5157 11.6269 13.3769C11.7657 13.2381 11.9539 13.1602 12.1502 13.1602ZM12.1502 15.3702C12.4409 15.3702 12.7251 15.284 12.9669 15.1224C13.2086 14.9609 13.397 14.7313 13.5083 14.4627C13.6195 14.1941 13.6486 13.8985 13.5919 13.6134C13.5352 13.3282 13.3952 13.0663 13.1896 12.8607C12.984 12.6551 12.7221 12.5151 12.437 12.4584C12.1518 12.4017 11.8562 12.4308 11.5876 12.5421C11.319 12.6533 11.0894 12.8417 10.9279 13.0835C10.7664 13.3252 10.6802 13.6094 10.6802 13.9002C10.6802 14.29 10.835 14.6639 11.1107 14.9396C11.3864 15.2153 11.7603 15.3702 12.1502 15.3702Z" fill="#4E2583"/>
<path d="M15.9998 13.1602C16.197 13.1602 16.3862 13.2378 16.5266 13.3763C16.667 13.5148 16.7472 13.703 16.7498 13.9002C16.7472 14.0983 16.6673 14.2875 16.5273 14.4276C16.3872 14.5677 16.1979 14.6476 15.9998 14.6502C15.8026 14.6475 15.6144 14.5674 15.4759 14.427C15.3374 14.2866 15.2598 14.0974 15.2598 13.9002C15.2598 13.7039 15.3377 13.5157 15.4765 13.3769C15.6153 13.2381 15.8035 13.1602 15.9998 13.1602ZM15.9998 15.3702C16.2905 15.3702 16.5747 15.284 16.8165 15.1224C17.0582 14.9609 17.2466 14.7313 17.3579 14.4627C17.4691 14.1941 17.4983 13.8985 17.4415 13.6134C17.3848 13.3282 17.2448 13.0663 17.0392 12.8607C16.8337 12.6551 16.5717 12.5151 16.2866 12.4584C16.0014 12.4017 15.7058 12.4308 15.4372 12.5421C15.1686 12.6533 14.9391 12.8417 14.7775 13.0835C14.616 13.3252 14.5298 13.6094 14.5298 13.9002C14.5298 14.29 14.6847 14.6639 14.9603 14.9396C15.236 15.2153 15.6099 15.3702 15.9998 15.3702Z" fill="#4E2583"/>
<path d="M19.75 13.1602C19.9472 13.1602 20.1365 13.2378 20.2768 13.3763C20.4172 13.5148 20.4974 13.703 20.5 13.9002C20.4974 14.0983 20.4176 14.2875 20.2775 14.4276C20.1374 14.5677 19.9481 14.6476 19.75 14.6502C19.5511 14.6502 19.3603 14.5712 19.2197 14.4305C19.079 14.2899 19 14.0991 19 13.9002C19 13.7039 19.078 13.5157 19.2168 13.3769C19.3555 13.2381 19.5438 13.1602 19.74 13.1602H19.75ZM19.74 15.3702C20.0308 15.3702 20.315 15.284 20.5567 15.1224C20.7984 14.9609 20.9869 14.7313 21.0981 14.4627C21.2094 14.1941 21.2385 13.8985 21.1818 13.6134C21.1251 13.3282 20.985 13.0663 20.7795 12.8607C20.5739 12.6551 20.312 12.5151 20.0268 12.4584C19.7416 12.4017 19.4461 12.4308 19.1775 12.5421C18.9089 12.6533 18.6793 12.8417 18.5178 13.0835C18.3562 13.3252 18.27 13.6094 18.27 13.9002C18.27 14.29 18.4249 14.6639 18.7006 14.9396C18.9763 15.2153 19.3502 15.3702 19.74 15.3702Z" fill="#4E2583"/>
<path d="M11.4101 17.0005H12.9001V18.4905H11.4101V17.0005ZM11.0001 19.1705H13.2201C13.3156 19.1705 13.4072 19.1325 13.4747 19.065C13.5422 18.9975 13.5801 18.9059 13.5801 18.8105V16.5905C13.5801 16.495 13.5422 16.4034 13.4747 16.3359C13.4072 16.2684 13.3156 16.2305 13.2201 16.2305H11.0001C10.9047 16.2305 10.8131 16.2684 10.7456 16.3359C10.6781 16.4034 10.6401 16.495 10.6401 16.5905V18.8105C10.6401 18.9059 10.6781 18.9975 10.7456 19.065C10.8131 19.1325 10.9047 19.1705 11.0001 19.1705Z" fill="#4E2583"/>
<path d="M15.9998 17.0005C16.197 17.0005 16.3862 17.0781 16.5266 17.2166C16.667 17.3551 16.7472 17.5433 16.7498 17.7405C16.7472 17.9386 16.6673 18.1279 16.5273 18.268C16.3872 18.4081 16.1979 18.4879 15.9998 18.4905C15.8026 18.4879 15.6144 18.4077 15.4759 18.2673C15.3374 18.127 15.2598 17.9377 15.2598 17.7405C15.2598 17.5442 15.3377 17.356 15.4765 17.2172C15.6153 17.0785 15.8035 17.0005 15.9998 17.0005ZM15.9998 19.2105C16.2905 19.2105 16.5747 19.1243 16.8165 18.9628C17.0582 18.8012 17.2466 18.5717 17.3579 18.3031C17.4691 18.0344 17.4983 17.7389 17.4415 17.4537C17.3848 17.1686 17.2448 16.9066 17.0392 16.7011C16.8337 16.4955 16.5717 16.3555 16.2866 16.2988C16.0014 16.242 15.7058 16.2711 15.4372 16.3824C15.1686 16.4937 14.9391 16.6821 14.7775 16.9238C14.616 17.1656 14.5298 17.4498 14.5298 17.7405C14.5402 18.1234 14.6997 18.4871 14.9742 18.7542C15.2488 19.0213 15.6167 19.1707 15.9998 19.1705" fill="#4E2583"/>
<path d="M18.9998 17.0005H20.4998V18.4905H18.9998V17.0005ZM18.6398 19.2105H20.8498C20.9462 19.2105 21.0388 19.1729 21.1079 19.1057C21.177 19.0384 21.2172 18.9469 21.2198 18.8505V16.5905C21.2172 16.4941 21.177 16.4025 21.1079 16.3353C21.0388 16.268 20.9462 16.2304 20.8498 16.2305H18.6498C18.5534 16.2304 18.4607 16.268 18.3916 16.3353C18.3225 16.4025 18.2824 16.4941 18.2798 16.5905V18.8105C18.2824 18.9069 18.3225 18.9984 18.3916 19.0657C18.4607 19.1329 18.5534 19.1705 18.6498 19.1705" fill="#4E2583"/>
</g>
<defs>
<clipPath id="clip0">
<rect width="24" height="24" fill="white"/>
</clipPath>
</defs>
</svg>
