<svg width="24" height="24" viewBox="0 0 24 24" fill="none" xmlns="http://www.w3.org/2000/svg">
<path d="M15.6782 8.3662H6.00871C5.93298 8.36481 5.85889 8.38838 5.79788 8.43328L2.74082 10.7524V8.7112C2.74082 8.6197 2.70447 8.53195 2.63977 8.46725C2.57507 8.40255 2.48732 8.3662 2.39582 8.3662H0.699579V0.699579H15.6782V8.3662ZM16.3778 8.7112V0.344998C16.3778 0.253499 16.3415 0.165747 16.2768 0.101048C16.2121 0.0363479 16.1243 0 16.0328 0L0.344998 0C0.253499 0 0.165747 0.0363479 0.101048 0.101048C0.0363479 0.165747 2.36897e-08 0.253499 2.36897e-08 0.344998V8.7112C-3.37309e-05 8.8036 0.0360055 8.89237 0.100444 8.9586C0.164882 9.02483 0.252628 9.06328 0.344998 9.06578H2.05082V11.4999C2.04826 11.5656 2.06506 11.6306 2.09914 11.6869C2.13321 11.7431 2.18306 11.7881 2.24249 11.8162C2.29259 11.8306 2.34572 11.8306 2.39582 11.8162C2.47254 11.8141 2.54652 11.7872 2.60665 11.7395L6.12371 9.06578H16.0328C16.1252 9.06328 16.2129 9.02483 16.2774 8.9586C16.3418 8.89237 16.3779 8.8036 16.3778 8.7112Z" fill="#4E2583"/>
<path d="M22.3004 19.5596H20.6042C20.5127 19.5596 20.425 19.5959 20.3603 19.6606C20.2956 19.7253 20.2592 19.8131 20.2592 19.9046V21.9458L17.2501 19.6266C17.1891 19.5817 17.115 19.5582 17.0392 19.5596H7.32178V11.8929H22.3004V19.5596ZM22.655 11.1934H6.9672C6.92108 11.1933 6.87542 11.2026 6.83292 11.2205C6.79043 11.2384 6.75196 11.2647 6.7198 11.2978C6.68764 11.3308 6.66243 11.37 6.64566 11.413C6.6289 11.4559 6.62092 11.5018 6.6222 11.5479V19.9046C6.62217 19.997 6.65821 20.0857 6.72265 20.152C6.78709 20.2182 6.87483 20.2566 6.9672 20.2591H16.8763L20.3934 22.9329C20.4558 22.975 20.529 22.9983 20.6042 23C20.6543 23.0143 20.7074 23.0143 20.7575 23C20.8154 22.9725 20.8643 22.929 20.8982 22.8747C20.9322 22.8203 20.9499 22.7574 20.9492 22.6933V20.2975H22.655C22.7474 20.295 22.8351 20.2565 22.8996 20.1903C22.964 20.1241 23.0001 20.0353 23 19.9429V11.5479C23.0013 11.5018 22.9933 11.4559 22.9766 11.413C22.9598 11.37 22.9346 11.3308 22.9024 11.2978C22.8703 11.2647 22.8318 11.2384 22.7893 11.2205C22.7468 11.2026 22.7011 11.1933 22.655 11.1934Z" fill="#4E2583"/>
<path d="M11.4998 3.98636C11.5913 3.98636 11.679 3.95001 11.7437 3.88531C11.8084 3.82061 11.8448 3.73286 11.8448 3.64136C11.8321 3.52111 11.8448 3.39952 11.8821 3.2845C11.9194 3.16947 11.9804 3.06358 12.0613 2.97368C12.1422 2.88379 12.2411 2.81191 12.3515 2.76271C12.462 2.7135 12.5816 2.68807 12.7025 2.68807C12.8234 2.68807 12.943 2.7135 13.0534 2.76271C13.1639 2.81191 13.2628 2.88379 13.3437 2.97368C13.4245 3.06358 13.4856 3.16947 13.5229 3.2845C13.5602 3.39952 13.5729 3.52111 13.5602 3.64136C13.5602 3.95761 13.4164 4.08219 13.1194 4.29302C12.8864 4.42639 12.6928 4.61894 12.5582 4.85117C12.4236 5.0834 12.3527 5.34708 12.3527 5.61551C12.3551 5.70879 12.3933 5.79758 12.4592 5.86356C12.5252 5.92953 12.614 5.96767 12.7073 5.97009C12.7996 5.9676 12.8874 5.92914 12.9518 5.86291C13.0163 5.79668 13.0523 5.70792 13.0523 5.61551C13.0523 5.20343 13.2439 5.06927 13.5314 4.85843C13.7496 4.7381 13.932 4.56205 14.0599 4.34824C14.1879 4.13443 14.2568 3.89051 14.2598 3.64136C14.2598 3.22961 14.0962 2.83473 13.8051 2.54358C13.5139 2.25243 13.119 2.08887 12.7073 2.08887C12.2955 2.08887 11.9006 2.25243 11.6095 2.54358C11.3184 2.83473 11.1548 3.22961 11.1548 3.64136C11.1548 3.73286 11.1911 3.82061 11.2558 3.88531C11.3205 3.95001 11.4083 3.98636 11.4998 3.98636Z" fill="#4E2583"/>
<path d="M12.7457 6.4209C12.6508 6.4234 12.5606 6.46286 12.4944 6.53089C12.4281 6.59891 12.3911 6.69012 12.3911 6.78506C12.3936 6.87743 12.4321 6.96518 12.4983 7.02962C12.5645 7.09406 12.6533 7.1301 12.7457 7.13006C12.8372 7.13006 12.9249 7.09371 12.9896 7.02901C13.0543 6.96431 13.0907 6.87656 13.0907 6.78506C13.092 6.7394 13.084 6.69394 13.0671 6.65149C13.0503 6.60903 13.0249 6.57047 12.9926 6.53816C12.9603 6.50586 12.9217 6.4805 12.8793 6.46363C12.8368 6.44676 12.7914 6.43874 12.7457 6.44006" fill="#4E2583"/>
<path d="M2.52987 2.95153H9.71733C9.80883 2.95153 9.89658 2.91518 9.96128 2.85048C10.026 2.78579 10.0623 2.69803 10.0623 2.60653C10.0624 2.51413 10.0263 2.42536 9.96189 2.35914C9.89745 2.29291 9.8097 2.25445 9.71733 2.25195H2.52987C2.4366 2.25438 2.34781 2.29251 2.28183 2.35849C2.21585 2.42447 2.17772 2.51326 2.17529 2.60653C2.17779 2.6989 2.21625 2.78665 2.28248 2.85109C2.3487 2.91553 2.43747 2.95157 2.52987 2.95153Z" fill="#4E2583"/>
<path d="M2.52987 4.92614H9.71733C9.8097 4.92364 9.89745 4.88519 9.96189 4.81896C10.0263 4.75273 10.0624 4.66396 10.0623 4.57156C10.0623 4.48006 10.026 4.39231 9.96128 4.32761C9.89658 4.26291 9.80883 4.22656 9.71733 4.22656H2.52987C2.43747 4.22653 2.3487 4.26257 2.28248 4.32701C2.21625 4.39144 2.17779 4.47919 2.17529 4.57156C2.17772 4.66484 2.21585 4.75362 2.28183 4.8196C2.34781 4.88558 2.4366 4.92372 2.52987 4.92614Z" fill="#4E2583"/>
<path d="M2.52987 6.95739H7.66651C7.71262 6.95867 7.75851 6.9507 7.80148 6.93393C7.84445 6.91717 7.88362 6.89196 7.91668 6.8598C7.94974 6.82763 7.97601 6.78916 7.99394 6.74667C8.01188 6.70418 8.02111 6.65852 8.02109 6.61239C8.02109 6.51835 7.98373 6.42816 7.91724 6.36167C7.85074 6.29517 7.76055 6.25781 7.66651 6.25781H2.52987C2.4366 6.26024 2.34781 6.29837 2.28183 6.36435C2.21585 6.43033 2.17772 6.51912 2.17529 6.61239C2.17779 6.70476 2.21625 6.79251 2.28248 6.85695C2.3487 6.92139 2.43747 6.95743 2.52987 6.95739Z" fill="#4E2583"/>
<path d="M9.19021 14.059H13.7614C13.8538 14.059 13.9426 14.0229 14.0088 13.9585C14.0751 13.8941 14.1135 13.8063 14.116 13.714C14.1136 13.6207 14.0755 13.5319 14.0095 13.4659C13.9435 13.3999 13.8547 13.3618 13.7614 13.3594H9.19021C9.09784 13.3619 9.0101 13.4003 8.94566 13.4666C8.88122 13.5328 8.84518 13.6216 8.84521 13.714C8.84521 13.8055 8.88156 13.8932 8.94626 13.9579C9.01096 14.0226 9.09871 14.059 9.19021 14.059Z" fill="#4E2583"/>
<path d="M15.8123 14.059H18.6394C18.6855 14.0602 18.7314 14.0523 18.7743 14.0355C18.8173 14.0187 18.8565 13.9935 18.8895 13.9614C18.9226 13.9292 18.9489 13.8907 18.9668 13.8482C18.9847 13.8057 18.9939 13.7601 18.9939 13.714C18.9939 13.6199 18.9566 13.5297 18.8901 13.4632C18.8236 13.3967 18.7334 13.3594 18.6394 13.3594H15.8123C15.7199 13.3619 15.6322 13.4003 15.5677 13.4666C15.5033 13.5328 15.4673 13.6216 15.4673 13.714C15.4673 13.8055 15.5036 13.8932 15.5683 13.9579C15.633 14.0226 15.7208 14.059 15.8123 14.059Z" fill="#4E2583"/>
<path d="M18.6394 15.3329H13.7232C13.6724 15.3245 13.6204 15.3272 13.5708 15.3409C13.5212 15.3546 13.4751 15.3789 13.4359 15.4122C13.3966 15.4455 13.365 15.4869 13.3434 15.5337C13.3218 15.5804 13.3105 15.6312 13.3105 15.6827C13.3105 15.7342 13.3218 15.785 13.3434 15.8318C13.365 15.8785 13.3966 15.9199 13.4359 15.9532C13.4751 15.9865 13.5212 16.0108 13.5708 16.0245C13.6204 16.0382 13.6724 16.0409 13.7232 16.0325H18.6394C18.6902 16.0409 18.7422 16.0382 18.7919 16.0245C18.8415 16.0108 18.8875 15.9865 18.9268 15.9532C18.9661 15.9199 18.9976 15.8785 19.0193 15.8318C19.0409 15.785 19.0521 15.7342 19.0521 15.6827C19.0521 15.6312 19.0409 15.5804 19.0193 15.5337C18.9976 15.4869 18.9661 15.4455 18.9268 15.4122C18.8875 15.3789 18.8415 15.3546 18.7919 15.3409C18.7422 15.3272 18.6902 15.3245 18.6394 15.3329Z" fill="#4E2583"/>
<path d="M9.19053 16.0325H11.8451C11.8959 16.0409 11.9479 16.0382 11.9975 16.0245C12.0471 16.0108 12.0932 15.9865 12.1325 15.9532C12.1717 15.9199 12.2033 15.8785 12.2249 15.8318C12.2466 15.785 12.2578 15.7342 12.2578 15.6827C12.2578 15.6312 12.2466 15.5804 12.2249 15.5337C12.2033 15.4869 12.1717 15.4455 12.1325 15.4122C12.0932 15.3789 12.0471 15.3546 11.9975 15.3409C11.9479 15.3272 11.8959 15.3245 11.8451 15.3329H9.19053C9.10769 15.3467 9.03243 15.3894 8.97814 15.4534C8.92384 15.5175 8.89404 15.5987 8.89404 15.6827C8.89404 15.7667 8.92384 15.8479 8.97814 15.912C9.03243 15.976 9.10769 16.0187 9.19053 16.0325Z" fill="#4E2583"/>
<path d="M9.19021 18.064H15.3331C15.4246 18.064 15.5123 18.0277 15.577 17.963C15.6417 17.8983 15.6781 17.8105 15.6781 17.719C15.6781 17.6275 15.6417 17.5398 15.577 17.4751C15.5123 17.4104 15.4246 17.374 15.3331 17.374H9.19021C9.09871 17.374 9.01096 17.4104 8.94626 17.4751C8.88156 17.5398 8.84521 17.6275 8.84521 17.719C8.84521 17.8105 8.88156 17.8983 8.94626 17.963C9.01096 18.0277 9.09871 18.064 9.19021 18.064Z" fill="#4E2583"/>
<path d="M20.7384 16.5123C20.8307 16.5098 20.9185 16.4713 20.9829 16.4051C21.0474 16.3389 21.0834 16.2501 21.0834 16.1577V13.714C21.0834 13.6216 21.0474 13.5328 20.9829 13.4666C20.9185 13.4003 20.8307 13.3619 20.7384 13.3594C20.6451 13.3618 20.5563 13.3999 20.4903 13.4659C20.4243 13.5319 20.3862 13.6207 20.3838 13.714V16.1577C20.3862 16.251 20.4243 16.3398 20.4903 16.4057C20.5563 16.4717 20.6451 16.5098 20.7384 16.5123Z" fill="#4E2583"/>
<path d="M20.7384 18.1122C20.7834 18.1121 20.828 18.1027 20.8692 18.0846C20.9104 18.0665 20.9475 18.04 20.978 18.0068C21.0432 17.9439 21.0811 17.8578 21.0834 17.7672C21.0696 17.6844 21.0269 17.6091 20.9628 17.5548C20.8988 17.5005 20.8175 17.4707 20.7336 17.4707C20.6496 17.4707 20.5684 17.5005 20.5043 17.5548C20.4403 17.6091 20.3975 17.6844 20.3838 17.7672C20.3861 17.8578 20.424 17.9439 20.4892 18.0068C20.5215 18.0402 20.5602 18.0668 20.603 18.0849C20.6458 18.103 20.6919 18.1123 20.7384 18.1122Z" fill="#4E2583"/>
</svg>
