<svg width="24" height="24" viewBox="0 0 24 24" fill="none" xmlns="http://www.w3.org/2000/svg">
<path d="M5.3001 5.8799H15.7901C15.8765 5.86555 15.9551 5.82098 16.0117 5.75414C16.0684 5.6873 16.0995 5.60252 16.0995 5.5149C16.0995 5.42728 16.0684 5.3425 16.0117 5.27566C15.9551 5.20882 15.8765 5.16426 15.7901 5.1499H5.3001C5.21366 5.16426 5.13513 5.20882 5.07847 5.27566C5.02182 5.3425 4.99072 5.42728 4.99072 5.5149C4.99072 5.60252 5.02182 5.6873 5.07847 5.75414C5.13513 5.82098 5.21366 5.86555 5.3001 5.8799Z" fill="#4E2583"/>
<path d="M3.41977 5.1499H3.11977C3.02338 5.15251 2.93182 5.19264 2.86458 5.26175C2.79734 5.33085 2.75973 5.42348 2.75977 5.5199C2.75977 5.56718 2.76908 5.61399 2.78717 5.65767C2.80526 5.70135 2.83178 5.74103 2.86521 5.77446C2.89864 5.80789 2.93832 5.83441 2.982 5.8525C3.02568 5.87059 3.07249 5.8799 3.11977 5.8799H3.41977C3.51619 5.87994 3.60881 5.84233 3.67792 5.77509C3.74703 5.70785 3.78716 5.61629 3.78977 5.5199C3.78724 5.42257 3.74744 5.32992 3.67859 5.26107C3.60975 5.19223 3.5171 5.15243 3.41977 5.1499Z" fill="#4E2583"/>
<path d="M5.29994 8.5801H12.1499C12.2454 8.5801 12.337 8.54217 12.4045 8.47466C12.472 8.40714 12.5099 8.31558 12.5099 8.2201C12.51 8.12368 12.4724 8.03105 12.4051 7.96194C12.3379 7.89283 12.2463 7.8527 12.1499 7.8501H5.29994C5.20355 7.8527 5.11199 7.89283 5.04475 7.96194C4.97751 8.03105 4.93991 8.12368 4.93994 8.2201C4.93994 8.31558 4.97787 8.40714 5.04538 8.47466C5.1129 8.54217 5.20446 8.5801 5.29994 8.5801Z" fill="#4E2583"/>
<path d="M3.41977 7.8501H3.11977C3.02338 7.8527 2.93182 7.89283 2.86458 7.96194C2.79734 8.03105 2.75973 8.12368 2.75977 8.2201C2.75977 8.31558 2.79769 8.40714 2.86521 8.47466C2.93272 8.54217 3.02429 8.5801 3.11977 8.5801H3.41977C3.51619 8.58013 3.60881 8.54253 3.67792 8.47529C3.74703 8.40805 3.78716 8.31648 3.78977 8.2201C3.78724 8.12277 3.74744 8.03012 3.67859 7.96127C3.60975 7.89242 3.5171 7.85263 3.41977 7.8501Z" fill="#4E2583"/>
<path d="M5.29994 11.2901H9.99994C10.0963 11.2875 10.1879 11.2473 10.2551 11.1782C10.3224 11.1091 10.36 11.0165 10.3599 10.9201C10.3599 10.8246 10.322 10.733 10.2545 10.6655C10.187 10.598 10.0954 10.5601 9.99994 10.5601H5.29994C5.20446 10.5601 5.1129 10.598 5.04538 10.6655C4.97787 10.733 4.93994 10.8246 4.93994 10.9201C4.93991 11.0165 4.97751 11.1091 5.04475 11.1782C5.11199 11.2473 5.20355 11.2875 5.29994 11.2901Z" fill="#4E2583"/>
<path d="M5.3001 14.0001H9.2401C9.29309 14.0089 9.34737 14.0061 9.39915 13.9918C9.45093 13.9775 9.49898 13.9521 9.53996 13.9174C9.58094 13.8827 9.61386 13.8394 9.63645 13.7907C9.65903 13.7419 9.67072 13.6889 9.67072 13.6351C9.67072 13.5814 9.65903 13.5283 9.63645 13.4796C9.61386 13.4309 9.58094 13.3876 9.53996 13.3529C9.49898 13.3182 9.45093 13.2928 9.39915 13.2785C9.34737 13.2642 9.29309 13.2613 9.2401 13.2701H5.3001C5.21366 13.2845 5.13513 13.3291 5.07847 13.3959C5.02182 13.4627 4.99072 13.5475 4.99072 13.6351C4.99072 13.7228 5.02182 13.8075 5.07847 13.8744C5.13513 13.9412 5.21366 13.9858 5.3001 14.0001Z" fill="#4E2583"/>
<path d="M3.41993 13.2599H3.11993C3.03349 13.2742 2.95495 13.3188 2.8983 13.3856C2.84164 13.4525 2.81055 13.5373 2.81055 13.6249C2.81055 13.7125 2.84164 13.7973 2.8983 13.8641C2.95495 13.931 3.03349 13.9755 3.11993 13.9899H3.41993C3.47292 13.9987 3.52719 13.9958 3.57897 13.9816C3.63076 13.9673 3.67881 13.9419 3.71979 13.9071C3.76076 13.8724 3.79369 13.8292 3.81627 13.7804C3.83885 13.7317 3.85055 13.6786 3.85055 13.6249C3.85055 13.5712 3.83885 13.5181 3.81627 13.4693C3.79369 13.4206 3.76076 13.3774 3.71979 13.3426C3.67881 13.3079 3.63076 13.2825 3.57897 13.2682C3.52719 13.2539 3.47292 13.2511 3.41993 13.2599Z" fill="#4E2583"/>
<path d="M5.29994 16.69H9.23994C9.33636 16.69 9.42899 16.6524 9.4981 16.5852C9.56721 16.5179 9.60734 16.4264 9.60994 16.33C9.59798 16.2398 9.55407 16.1569 9.48617 16.0963C9.41827 16.0358 9.3309 16.0016 9.23994 16H5.29994C5.20355 16.0026 5.11199 16.0427 5.04475 16.1118C4.97751 16.181 4.93991 16.2736 4.93994 16.37C4.93994 16.4655 4.97787 16.557 5.04538 16.6246C5.1129 16.6921 5.20446 16.73 5.29994 16.73" fill="#4E2583"/>
<path d="M10.3302 18.6699H5.33021C5.23474 18.6699 5.14317 18.7079 5.07566 18.7754C5.00814 18.8429 4.97021 18.9344 4.97021 19.0299C4.97021 19.1254 5.00814 19.217 5.07566 19.2845C5.14317 19.352 5.23474 19.3899 5.33021 19.3899H10.3302C10.4257 19.3899 10.5173 19.352 10.5848 19.2845C10.6523 19.217 10.6902 19.1254 10.6902 19.0299C10.6902 18.9344 10.6523 18.8429 10.5848 18.7754C10.5173 18.7079 10.4257 18.6699 10.3302 18.6699Z" fill="#4E2583"/>
<path d="M3.41977 18.6699H3.11977C3.02429 18.6699 2.93272 18.7079 2.86521 18.7754C2.79769 18.8429 2.75977 18.9344 2.75977 19.0299C2.75977 19.1254 2.79769 19.217 2.86521 19.2845C2.93272 19.352 3.02429 19.3899 3.11977 19.3899H3.41977C3.51524 19.3899 3.60681 19.352 3.67432 19.2845C3.74184 19.217 3.77977 19.1254 3.77977 19.0299C3.77977 18.9344 3.74184 18.8429 3.67432 18.7754C3.60681 18.7079 3.51524 18.6699 3.41977 18.6699Z" fill="#4E2583"/>
<path d="M17.09 20.54C15.9033 20.54 14.7433 20.1881 13.7566 19.5288C12.7699 18.8695 12.0008 17.9325 11.5467 16.8361C11.0926 15.7397 10.9738 14.5333 11.2053 13.3695C11.4368 12.2056 12.0082 11.1365 12.8474 10.2974C13.6865 9.45824 14.7556 8.8868 15.9195 8.65529C17.0833 8.42378 18.2897 8.5426 19.3861 8.99672C20.4825 9.45085 21.4195 10.2199 22.0788 11.2066C22.7381 12.1933 23.09 13.3533 23.09 14.54C23.09 16.1313 22.4579 17.6574 21.3326 18.7826C20.2074 19.9079 18.6813 20.54 17.09 20.54ZM18.18 22.91C18.18 23.0055 18.1421 23.097 18.0746 23.1646C18.007 23.2321 17.9155 23.27 17.82 23.27H1.09C0.994522 23.27 0.902955 23.2321 0.835442 23.1646C0.767928 23.097 0.73 23.0055 0.73 22.91V1.09C0.73 0.994522 0.767928 0.902955 0.835442 0.835442C0.902955 0.767928 0.994522 0.73 1.09 0.73H4.73V1.09C4.73 1.57269 4.92175 2.03562 5.26307 2.37693C5.60438 2.71825 6.06731 2.91 6.55 2.91H12.36C12.8427 2.91 13.3056 2.71825 13.6469 2.37693C13.9883 2.03562 14.18 1.57269 14.18 1.09V0.73H17.82C17.9155 0.73 18.007 0.767928 18.0746 0.835442C18.1421 0.902955 18.18 0.994522 18.18 1.09V7.92C17.8201 7.85608 17.4555 7.82263 17.09 7.82C16.185 7.7851 15.2823 7.9332 14.436 8.25544C13.5896 8.57768 12.817 9.06742 12.1644 9.69534C11.5118 10.3233 10.9926 11.0764 10.638 11.9097C10.2834 12.7431 10.1006 13.6394 10.1006 14.545C10.1006 15.4506 10.2834 16.3469 10.638 17.1803C10.9926 18.0136 11.5118 18.7667 12.1644 19.3947C12.817 20.0226 13.5896 20.5123 14.436 20.8346C15.2823 21.1568 16.185 21.3049 17.09 21.27C17.4552 21.2707 17.8198 21.2406 18.18 21.18V22.91ZM5.45 0.73H13.45V1.09C13.45 1.37909 13.3352 1.65633 13.1307 1.86075C12.9263 2.06516 12.6491 2.18 12.36 2.18H6.55C6.40602 2.18132 6.26321 2.1541 6.1298 2.09992C5.9964 2.04573 5.87506 1.96565 5.77278 1.8643C5.6705 1.76296 5.58932 1.64235 5.53392 1.50945C5.47852 1.37655 5.44999 1.23399 5.45 1.09V0.73ZM18.91 8.07V1.07C18.9048 0.784394 18.7876 0.512259 18.5838 0.31215C18.3799 0.112041 18.1057 -4.80743e-05 17.82 1.54676e-08H1.09C0.800914 1.54676e-08 0.523668 0.114839 0.319254 0.319254C0.114839 0.523668 0 0.800914 0 1.09L0 22.91C0 23.1991 0.114839 23.4763 0.319254 23.6807C0.523668 23.8852 0.800914 24 1.09 24H17.82C18.1091 24 18.3863 23.8852 18.5907 23.6807C18.7952 23.4763 18.91 23.1991 18.91 22.91V21C20.3253 20.607 21.5729 19.7611 22.4618 18.5917C23.3507 17.4223 23.832 15.9939 23.832 14.525C23.832 13.0561 23.3507 11.6277 22.4618 10.4583C21.5729 9.28893 20.3253 8.44301 18.91 8.05" fill="#4E2583"/>
<path d="M17.0801 10.0001C17.1755 10.0001 17.2671 9.96219 17.3346 9.89468C17.4021 9.82717 17.4401 9.7356 17.4401 9.64012C17.442 9.56613 17.4218 9.49324 17.3819 9.43089C17.342 9.36853 17.2843 9.31957 17.2163 9.29034C17.1483 9.2611 17.0731 9.25293 17.0004 9.26689C16.9277 9.28085 16.8609 9.31628 16.8086 9.36862C16.7562 9.42096 16.7208 9.4878 16.7068 9.56049C16.6929 9.63318 16.701 9.70839 16.7303 9.77639C16.7595 9.8444 16.8085 9.90206 16.8708 9.94195C16.9332 9.98183 17.0061 10.0021 17.0801 10.0001Z" fill="#4E2583"/>
<path d="M19.37 18.48C19.3273 18.503 19.2896 18.5343 19.2593 18.5721C19.229 18.61 19.2066 18.6535 19.1935 18.7002C19.1804 18.7469 19.1769 18.7958 19.1832 18.8439C19.1895 18.8919 19.2054 18.9383 19.23 18.98C19.2638 19.0346 19.3109 19.0798 19.3668 19.1113C19.4228 19.1427 19.4858 19.1595 19.55 19.16C19.6137 19.1623 19.6766 19.1448 19.73 19.11C19.8126 19.0601 19.8724 18.9799 19.8967 18.8865C19.921 18.7931 19.9078 18.6939 19.86 18.61C19.812 18.5281 19.7335 18.4685 19.6418 18.4442C19.55 18.4198 19.4523 18.4327 19.37 18.48Z" fill="#4E2583"/>
<path d="M21.3301 12.4399C21.3926 12.4548 21.4576 12.4548 21.5201 12.4399C21.5879 12.3839 21.6335 12.3056 21.6488 12.219C21.6641 12.1324 21.648 12.0431 21.6035 11.9673C21.559 11.8915 21.4889 11.834 21.4058 11.8051C21.3227 11.7763 21.232 11.778 21.1501 11.8099C21.1082 11.8337 21.0715 11.8656 21.0422 11.9039C21.0128 11.9421 20.9915 11.9858 20.9794 12.0324C20.9672 12.0791 20.9646 12.1276 20.9716 12.1753C20.9786 12.223 20.9951 12.2687 21.0201 12.3099C21.053 12.3631 21.0985 12.4074 21.1525 12.4388C21.2066 12.4702 21.2676 12.4877 21.3301 12.4899" fill="#4E2583"/>
<path d="M21.5198 16.6801C21.4788 16.6557 21.4333 16.6399 21.3859 16.6338C21.3386 16.6276 21.2905 16.6312 21.2446 16.6443C21.1987 16.6574 21.156 16.6798 21.1191 16.71C21.0821 16.7403 21.0518 16.7777 21.0298 16.8201C20.9825 16.9025 20.9696 17.0001 20.994 17.0919C21.0183 17.1837 21.0779 17.2621 21.1598 17.3101C21.2133 17.3449 21.2761 17.3624 21.3398 17.3601C21.4044 17.3616 21.4682 17.3457 21.5245 17.314C21.5808 17.2823 21.6276 17.2361 21.6598 17.1801C21.7068 17.0951 21.7185 16.995 21.6923 16.9015C21.6661 16.8079 21.6042 16.7284 21.5198 16.6801Z" fill="#4E2583"/>
<path d="M22.0001 14.1602C21.9038 14.1628 21.8122 14.2029 21.7449 14.272C21.6777 14.3411 21.6401 14.4337 21.6401 14.5302C21.6401 14.6256 21.6781 14.7172 21.7456 14.7847C21.8131 14.8522 21.9047 14.8902 22.0001 14.8902C22.0965 14.8876 22.1881 14.8474 22.2553 14.7783C22.3226 14.7092 22.3602 14.6166 22.3601 14.5202C22.3601 14.4247 22.3222 14.3331 22.2547 14.2656C22.1872 14.1981 22.0956 14.1602 22.0001 14.1602Z" fill="#4E2583"/>
<path d="M17.0901 19.09C16.9946 19.09 16.9031 19.1279 16.8356 19.1954C16.768 19.2629 16.7301 19.3545 16.7301 19.45C16.7281 19.524 16.7484 19.5969 16.7883 19.6592C16.8282 19.7216 16.8858 19.7705 16.9538 19.7998C17.0218 19.829 17.0971 19.8372 17.1697 19.8232C17.2424 19.8093 17.3093 19.7738 17.3616 19.7215C17.414 19.6691 17.4494 19.6023 17.4633 19.5296C17.4773 19.4569 17.4691 19.3817 17.4399 19.3137C17.4107 19.2457 17.3617 19.188 17.2993 19.1481C17.237 19.1083 17.1641 19.088 17.0901 19.09Z" fill="#4E2583"/>
<path d="M12.6498 12.4201C12.7052 12.4504 12.7668 12.4675 12.8298 12.4701C12.8952 12.4695 12.9592 12.4516 13.0154 12.4183C13.0716 12.3849 13.118 12.3372 13.1498 12.2801C13.1742 12.2391 13.19 12.1935 13.1962 12.1462C13.2023 12.0989 13.1987 12.0508 13.1856 12.0049C13.1725 11.959 13.1502 11.9162 13.1199 11.8793C13.0897 11.8424 13.0522 11.812 13.0098 11.7901C12.9275 11.7428 12.8298 11.7299 12.738 11.7542C12.6463 11.7786 12.5678 11.8382 12.5198 11.9201C12.472 12.0039 12.4588 12.1031 12.4831 12.1965C12.5074 12.29 12.5672 12.3702 12.6498 12.4201Z" fill="#4E2583"/>
<path d="M19.3498 10.6002C19.4051 10.6305 19.4667 10.6476 19.5298 10.6502C19.5949 10.6486 19.6586 10.6303 19.7146 10.597C19.7707 10.5637 19.8172 10.5166 19.8498 10.4602C19.8728 10.4188 19.8875 10.3733 19.8929 10.3263C19.8983 10.2793 19.8944 10.2316 19.8814 10.1861C19.8684 10.1406 19.8466 10.0981 19.8171 10.0611C19.7877 10.024 19.7512 9.99311 19.7098 9.97017C19.6684 9.94653 19.6228 9.93127 19.5755 9.92526C19.5283 9.91925 19.4803 9.92261 19.4343 9.93515C19.3884 9.94768 19.3453 9.96915 19.3077 9.99832C19.27 10.0275 19.2384 10.0638 19.2148 10.1052C19.1912 10.1465 19.1759 10.1921 19.1699 10.2394C19.1639 10.2867 19.1672 10.3347 19.1798 10.3806C19.1923 10.4266 19.2138 10.4696 19.243 10.5073C19.2721 10.545 19.3084 10.5765 19.3498 10.6002Z" fill="#4E2583"/>
<path d="M12.6599 16.6902C12.618 16.714 12.5813 16.7459 12.5519 16.7841C12.5226 16.8223 12.5012 16.8661 12.4891 16.9127C12.477 16.9593 12.4744 17.0079 12.4814 17.0556C12.4884 17.1032 12.5048 17.149 12.5299 17.1902C12.5613 17.2446 12.6065 17.2899 12.6609 17.3215C12.7153 17.3531 12.777 17.3699 12.8399 17.3702C12.9037 17.3738 12.967 17.3562 13.0199 17.3202C13.0623 17.2983 13.0997 17.2679 13.13 17.231C13.1602 17.194 13.1826 17.1513 13.1957 17.1054C13.2088 17.0595 13.2124 17.0114 13.2062 16.9641C13.2001 16.9168 13.1843 16.8712 13.1599 16.8302C13.1116 16.7459 13.0321 16.6839 12.9385 16.6577C12.845 16.6316 12.7449 16.6432 12.6599 16.6902Z" fill="#4E2583"/>
<path d="M12.1798 14.1901C12.0834 14.1927 11.9919 14.2328 11.9246 14.3019C11.8574 14.371 11.8198 14.4636 11.8198 14.5601C11.8198 14.6555 11.8578 14.7471 11.9253 14.8146C11.9928 14.8821 12.0843 14.9201 12.1798 14.9201C12.2328 14.9289 12.2871 14.926 12.3389 14.9117C12.3907 14.8974 12.4387 14.872 12.4797 14.8373C12.5207 14.8026 12.5536 14.7593 12.5762 14.7106C12.5987 14.6619 12.6104 14.6088 12.6104 14.5551C12.6104 14.5013 12.5987 14.4483 12.5762 14.3995C12.5536 14.3508 12.5207 14.3075 12.4797 14.2728C12.4387 14.2381 12.3907 14.2127 12.3389 14.1984C12.2871 14.1841 12.2328 14.1813 12.1798 14.1901Z" fill="#4E2583"/>
<path d="M14.6298 10.6602C14.6936 10.6625 14.7564 10.645 14.8098 10.6102C14.8918 10.5622 14.9514 10.4838 14.9757 10.392C15.0001 10.3002 14.9872 10.2025 14.9398 10.1202C14.8916 10.0359 14.8121 9.97398 14.7185 9.94779C14.625 9.92159 14.5249 9.93324 14.4398 9.98022C14.3572 10.0301 14.2974 10.1104 14.2731 10.2038C14.2489 10.2972 14.262 10.3964 14.3098 10.4802C14.3421 10.5362 14.3889 10.5824 14.4452 10.6141C14.5015 10.6457 14.5653 10.6617 14.6298 10.6602Z" fill="#4E2583"/>
<path d="M14.8199 18.4898C14.7376 18.4425 14.6399 18.4296 14.5481 18.4539C14.4563 18.4783 14.3779 18.5379 14.3299 18.6198C14.282 18.7036 14.2689 18.8028 14.2932 18.8963C14.3174 18.9897 14.3773 19.0699 14.4599 19.1198C14.519 19.1338 14.5807 19.1338 14.6399 19.1198C14.7051 19.1353 14.7734 19.1323 14.837 19.1111C14.9006 19.0899 14.957 19.0513 14.9999 18.9998C15.0243 18.9588 15.0401 18.9132 15.0462 18.8659C15.0524 18.8186 15.0488 18.7705 15.0357 18.7246C15.0226 18.6787 15.0002 18.636 14.97 18.599C14.9397 18.5621 14.9023 18.5317 14.8599 18.5098" fill="#4E2583"/>
<path d="M17.09 14.9098H19.31C19.3964 14.8955 19.475 14.8509 19.5316 14.7841C19.5883 14.7172 19.6194 14.6324 19.6194 14.5448C19.6194 14.4572 19.5883 14.3724 19.5316 14.3056C19.475 14.2387 19.3964 14.1942 19.31 14.1798H17.45V11.1798C17.45 11.0843 17.4121 10.9928 17.3445 10.9253C17.277 10.8578 17.1855 10.8198 17.09 10.8198C16.9945 10.8198 16.9029 10.8578 16.8354 10.9253C16.7679 10.9928 16.73 11.0843 16.73 11.1798V14.5798C16.73 14.6753 16.7679 14.7669 16.8354 14.8344C16.9029 14.9019 16.9945 14.9398 17.09 14.9398" fill="#4E2583"/>
</svg>
