<svg width="24" height="24" viewBox="0 0 24 24" fill="none" xmlns="http://www.w3.org/2000/svg">
<path d="M18.7102 21.333H5.24018C4.94632 21.3351 4.65514 21.2771 4.38456 21.1624C4.11398 21.0478 3.86973 20.8789 3.66685 20.6663C3.44863 20.4311 3.28007 20.1543 3.17125 19.8525C3.06243 19.5507 3.01558 19.23 3.03352 18.9097L3.73018 3.45634C3.7463 2.63475 4.07918 1.85114 4.65931 1.26915C5.23944 0.687151 6.02198 0.35176 6.84352 0.333008H17.1068C17.9284 0.35176 18.7109 0.687151 19.2911 1.26915C19.8712 1.85114 20.2041 2.63475 20.2202 3.45634L20.9169 18.9097C20.9336 19.231 20.8849 19.5524 20.7737 19.8544C20.6626 20.1563 20.4913 20.4326 20.2702 20.6663C20.0693 20.8779 19.8273 21.0462 19.5591 21.1609C19.2908 21.2755 19.0019 21.3341 18.7102 21.333ZM6.84352 1.10967C6.22342 1.131 5.63528 1.39002 5.20092 1.83307C4.76655 2.27613 4.51923 2.86928 4.51018 3.48967L3.81018 18.943C3.79921 19.158 3.83163 19.3729 3.9055 19.5751C3.97938 19.7772 4.0932 19.9624 4.24018 20.1197C4.36855 20.2565 4.5234 20.3657 4.69531 20.4408C4.86722 20.5158 5.0526 20.5552 5.24018 20.5563H18.7102C18.8978 20.5552 19.0831 20.5158 19.2551 20.4408C19.427 20.3657 19.5818 20.2565 19.7102 20.1197C19.8572 19.9624 19.971 19.7772 20.0449 19.5751C20.1187 19.3729 20.1512 19.158 20.1402 18.943L19.4435 3.48967C19.4353 2.86902 19.1882 2.27541 18.7537 1.83218C18.3192 1.38895 17.7305 1.1302 17.1102 1.10967H6.84352Z" fill="#4E2583"/>
<path d="M3.80678 8.89001H2.17344C1.79699 8.90445 1.43017 8.76906 1.15337 8.51351C0.876575 8.25795 0.712381 7.90309 0.696777 7.52668V6.55668C0.696777 5.27001 1.85011 4.22335 3.26344 4.22335H3.80678C3.8608 4.21834 3.91527 4.22465 3.96671 4.24189C4.01815 4.25913 4.06543 4.28691 4.10552 4.32346C4.14562 4.36 4.17765 4.40451 4.19956 4.45414C4.22147 4.50377 4.23279 4.55743 4.23279 4.61168C4.23279 4.66593 4.22147 4.71959 4.19956 4.76922C4.17765 4.81885 4.14562 4.86336 4.10552 4.8999C4.06543 4.93645 4.01815 4.96423 3.96671 4.98147C3.91527 4.99871 3.8608 5.00502 3.80678 5.00001H3.26344C2.26344 5.00001 1.47344 5.69668 1.47344 6.55668V7.52668C1.49431 7.69459 1.57825 7.84828 1.70823 7.9566C1.83821 8.06492 2.00452 8.11977 2.17344 8.11001H3.80678C3.91021 8.11001 4.00941 8.1511 4.08255 8.22424C4.15569 8.29738 4.19678 8.39658 4.19678 8.50001C4.19678 8.60345 4.15569 8.70265 4.08255 8.77578C4.00941 8.84892 3.91021 8.89001 3.80678 8.89001Z" fill="#4E2583"/>
<path d="M21.7733 8.8903H20.14C20.0366 8.8903 19.9374 8.84921 19.8642 8.77607C19.7911 8.70293 19.75 8.60373 19.75 8.5003C19.75 8.39687 19.7911 8.29767 19.8642 8.22453C19.9374 8.15139 20.0366 8.1103 20.14 8.1103H21.7733C21.9423 8.12005 22.1086 8.06521 22.2385 7.95689C22.3685 7.84857 22.4525 7.69488 22.4733 7.52697V6.55697C22.4733 5.69697 21.6733 5.0003 20.6867 5.0003H20.14C20.0432 4.99132 19.9533 4.94653 19.8878 4.8747C19.8223 4.80286 19.786 4.70917 19.786 4.61197C19.786 4.51477 19.8223 4.42107 19.8878 4.34924C19.9533 4.2774 20.0432 4.23261 20.14 4.22363H20.6867C22.1 4.22363 23.2533 5.2703 23.2533 6.55697V7.52697C23.2369 7.90367 23.072 8.25853 22.7946 8.514C22.5173 8.76946 22.1501 8.90476 21.7733 8.8903Z" fill="#4E2583"/>
<path d="M11.9733 13.5563C8.68995 13.5563 5.36328 12.743 5.36328 11.1863L5.69661 3.20632C5.70057 2.86518 5.83514 2.53855 6.07262 2.29362C6.3101 2.0487 6.63244 1.90412 6.97328 1.88965H16.9999C17.3402 1.90409 17.6621 2.0482 17.8995 2.29241C18.1369 2.53663 18.2718 2.86243 18.2766 3.20298L18.6099 11.1663C18.5866 12.743 15.2599 13.5563 11.9733 13.5563ZM6.96328 2.66632C6.82272 2.67903 6.69243 2.74529 6.59936 2.85139C6.5063 2.95748 6.45758 3.0953 6.46328 3.23632L6.12995 11.203C6.12995 11.8363 8.40328 12.7763 11.9633 12.7763C15.5233 12.7763 17.7966 11.8363 17.7966 11.1863L17.4633 3.23632C17.4699 3.1009 17.4262 2.96783 17.3407 2.86263C17.2552 2.75743 17.1339 2.68752 16.9999 2.66632H6.96328Z" fill="#4E2583"/>
<path d="M6.91986 19.0001C6.61184 19.0007 6.31055 18.91 6.05412 18.7393C5.79769 18.5687 5.59765 18.3258 5.47932 18.0414C5.36099 17.757 5.32968 17.4439 5.38937 17.1417C5.44906 16.8396 5.59705 16.5619 5.81462 16.3438C6.03219 16.1258 6.30956 15.9772 6.61161 15.9169C6.91367 15.8565 7.22683 15.8872 7.51147 16.0049C7.79611 16.1226 8.03942 16.3221 8.21062 16.5782C8.38181 16.8343 8.4732 17.1354 8.4732 17.4434C8.47232 17.8554 8.30849 18.2503 8.01747 18.542C7.72645 18.8336 7.33187 18.9983 6.91986 19.0001ZM6.91986 16.6667C6.76531 16.6661 6.61405 16.7113 6.48527 16.7968C6.35649 16.8822 6.256 17.004 6.19655 17.1467C6.1371 17.2893 6.12137 17.4464 6.15136 17.5981C6.18135 17.7497 6.25571 17.889 6.36499 17.9983C6.47428 18.1075 6.61357 18.1819 6.76518 18.2119C6.9168 18.2419 7.07391 18.2261 7.21657 18.1667C7.35923 18.1072 7.48101 18.0068 7.56647 17.878C7.65192 17.7492 7.69719 17.5979 7.69653 17.4434C7.69565 17.2377 7.61354 17.0406 7.46808 16.8952C7.32262 16.7497 7.12558 16.6676 6.91986 16.6667Z" fill="#4E2583"/>
<path d="M17.0298 19.0001C16.7219 19.0001 16.421 18.9088 16.165 18.7377C15.909 18.5667 15.7095 18.3235 15.5916 18.0391C15.4738 17.7547 15.443 17.4417 15.5031 17.1397C15.5631 16.8377 15.7114 16.5604 15.9291 16.3427C16.1468 16.125 16.4242 15.9767 16.7261 15.9166C17.0281 15.8566 17.3411 15.8874 17.6255 16.0052C17.91 16.123 18.1531 16.3226 18.3241 16.5785C18.4952 16.8345 18.5865 17.1355 18.5865 17.4434C18.5856 17.856 18.4213 18.2514 18.1296 18.5431C17.8378 18.8349 17.4424 18.9992 17.0298 19.0001ZM17.0298 16.6667C16.8753 16.6661 16.724 16.7113 16.5952 16.7968C16.4664 16.8822 16.3659 17.004 16.3065 17.1467C16.247 17.2893 16.2313 17.4465 16.2613 17.5981C16.2913 17.7497 16.3657 17.889 16.4749 17.9983C16.5842 18.1075 16.7235 18.1819 16.8751 18.2119C17.0267 18.2419 17.1839 18.2261 17.3265 18.1667C17.4692 18.1073 17.591 18.0068 17.6764 17.878C17.7619 17.7492 17.8071 17.5979 17.8065 17.4434C17.8065 17.2374 17.7247 17.0399 17.579 16.8942C17.4333 16.7485 17.2358 16.6667 17.0298 16.6667Z" fill="#4E2583"/>
<path d="M7.89025 23.667H5.94691C5.19691 23.667 4.58691 22.9704 4.58691 22.1104V20.9437C4.59589 20.8469 4.64068 20.757 4.71252 20.6915C4.78435 20.626 4.87805 20.5897 4.97525 20.5897C5.07245 20.5897 5.16614 20.626 5.23798 20.6915C5.30981 20.757 5.3546 20.8469 5.36358 20.9437V22.1104C5.36358 22.5337 5.63025 22.8904 5.94691 22.8904H7.89025C8.20691 22.8904 8.47358 22.5337 8.47358 22.1104V20.9437C8.47358 20.8403 8.51467 20.7411 8.58781 20.6679C8.66095 20.5948 8.76015 20.5537 8.86358 20.5537C8.96701 20.5537 9.06621 20.5948 9.13935 20.6679C9.21249 20.7411 9.25358 20.8403 9.25358 20.9437V22.1104C9.2774 22.4972 9.14752 22.8777 8.89221 23.1692C8.63689 23.4607 8.27679 23.6397 7.89025 23.667Z" fill="#4E2583"/>
<path d="M18.0001 23.6672H16.0568C15.3068 23.6672 14.6968 22.9705 14.6968 22.1105V20.9438C14.7058 20.847 14.7505 20.7571 14.8224 20.6916C14.8942 20.6261 14.9879 20.5898 15.0851 20.5898C15.1823 20.5898 15.276 20.6261 15.3478 20.6916C15.4197 20.7571 15.4645 20.847 15.4734 20.9438V22.1105C15.4734 22.5338 15.7434 22.8905 16.0568 22.8905H18.0001C18.3334 22.8905 18.5834 22.5338 18.5834 22.1105V20.9438C18.5924 20.847 18.6372 20.7571 18.7091 20.6916C18.7809 20.6261 18.8746 20.5898 18.9718 20.5898C19.069 20.5898 19.1627 20.6261 19.2345 20.6916C19.3063 20.7571 19.3511 20.847 19.3601 20.9438V22.1105C19.3634 22.9705 18.7534 23.6672 18.0001 23.6672Z" fill="#4E2583"/>
<path d="M14.3068 15.1104H9.64012C9.54333 15.1014 9.45339 15.0566 9.38791 14.9848C9.32243 14.9129 9.28613 14.8192 9.28613 14.722C9.28613 14.6248 9.32243 14.5311 9.38791 14.4593C9.45339 14.3875 9.54333 14.3427 9.64012 14.3337H14.3068C14.3608 14.3287 14.4153 14.335 14.4667 14.3522C14.5182 14.3695 14.5654 14.3973 14.6055 14.4338C14.6456 14.4704 14.6776 14.5149 14.6996 14.5645C14.7215 14.6141 14.7328 14.6678 14.7328 14.722C14.7328 14.7763 14.7215 14.8299 14.6996 14.8796C14.6776 14.9292 14.6456 14.9737 14.6055 15.0103C14.5654 15.0468 14.5182 15.0746 14.4667 15.0918C14.4153 15.1091 14.3608 15.1154 14.3068 15.1104Z" fill="#4E2583"/>
<path d="M14.3068 17.4434H9.64012C9.54333 17.4344 9.45339 17.3896 9.38791 17.3178C9.32243 17.2459 9.28613 17.1522 9.28613 17.055C9.28613 16.9578 9.32243 16.8641 9.38791 16.7923C9.45339 16.7205 9.54333 16.6757 9.64012 16.6667H14.3068C14.3608 16.6617 14.4153 16.668 14.4667 16.6852C14.5182 16.7025 14.5654 16.7303 14.6055 16.7668C14.6456 16.8034 14.6776 16.8479 14.6996 16.8975C14.7215 16.9471 14.7328 17.0008 14.7328 17.055C14.7328 17.1093 14.7215 17.1629 14.6996 17.2126C14.6776 17.2622 14.6456 17.3067 14.6055 17.3433C14.5654 17.3798 14.5182 17.4076 14.4667 17.4248C14.4153 17.4421 14.3608 17.4484 14.3068 17.4434Z" fill="#4E2583"/>
<path d="M14.3068 19.7764H9.64012C9.54333 19.7674 9.45339 19.7226 9.38791 19.6508C9.32243 19.5789 9.28613 19.4852 9.28613 19.388C9.28613 19.2908 9.32243 19.1972 9.38791 19.1253C9.45339 19.0535 9.54333 19.0087 9.64012 18.9997H14.3068C14.3608 18.9947 14.4153 19.001 14.4667 19.0183C14.5182 19.0355 14.5654 19.0633 14.6055 19.0998C14.6456 19.1364 14.6776 19.1809 14.6996 19.2305C14.7215 19.2801 14.7328 19.3338 14.7328 19.388C14.7328 19.4423 14.7215 19.496 14.6996 19.5456C14.6776 19.5952 14.6456 19.6397 14.6055 19.6763C14.5654 19.7128 14.5182 19.7406 14.4667 19.7578C14.4153 19.7751 14.3608 19.7814 14.3068 19.7764Z" fill="#4E2583"/>
</svg>
