<svg width="24" height="24" viewBox="0 0 24 24" fill="none" xmlns="http://www.w3.org/2000/svg">
<path d="M12.0001 12.8431C11.1568 12.8431 6.94678 12.7764 6.94678 11.4564L7.24011 6.37307C7.25125 6.02546 7.39612 5.69555 7.64451 5.45212C7.89291 5.20869 8.22568 5.07052 8.57344 5.06641H15.4368C15.7845 5.07052 16.1173 5.20869 16.3657 5.45212C16.6141 5.69555 16.759 6.02546 16.7701 6.37307L17.0634 11.4331C17.0501 12.7764 12.8401 12.8431 12.0001 12.8431ZM7.72011 11.4064C7.97011 11.6431 9.43344 12.0731 11.9934 12.0731C14.5534 12.0731 16.0201 11.6497 16.2701 11.4064L15.9801 6.40641C15.9795 6.25964 15.923 6.11864 15.822 6.01211C15.7211 5.90558 15.5833 5.84156 15.4368 5.83307H8.55344C8.40399 5.84077 8.26322 5.90561 8.16023 6.01418C8.05724 6.12276 7.99991 6.26676 8.00011 6.41641L7.72011 11.4064Z" fill="#4E2583"/>
<path d="M13.5502 16.7334H10.4402C10.3862 16.7384 10.3317 16.7321 10.2802 16.7149C10.2288 16.6976 10.1815 16.6698 10.1414 16.6333C10.1013 16.5968 10.0693 16.5522 10.0474 16.5026C10.0255 16.453 10.0142 16.3993 10.0142 16.3451C10.0142 16.2908 10.0255 16.2372 10.0474 16.1875C10.0693 16.1379 10.1013 16.0934 10.1414 16.0569C10.1815 16.0203 10.2288 15.9925 10.2802 15.9753C10.3317 15.9581 10.3862 15.9517 10.4402 15.9567H13.5502C13.6042 15.9517 13.6587 15.9581 13.7101 15.9753C13.7616 15.9925 13.8088 16.0203 13.8489 16.0569C13.889 16.0934 13.921 16.1379 13.943 16.1875C13.9649 16.2372 13.9762 16.2908 13.9762 16.3451C13.9762 16.3993 13.9649 16.453 13.943 16.5026C13.921 16.5522 13.889 16.5968 13.8489 16.6333C13.8088 16.6698 13.7616 16.6976 13.7101 16.7149C13.6587 16.7321 13.6042 16.7384 13.5502 16.7334Z" fill="#4E2583"/>
<path d="M16.667 1.95608C16.5768 1.95549 16.4896 1.92369 16.4203 1.86608C16.4203 1.86608 15.4536 1.17608 12.0003 1.17608C8.54696 1.17608 7.57696 1.86608 7.57029 1.87275C7.4884 1.934 7.38586 1.96096 7.28443 1.94789C7.183 1.93482 7.09065 1.88276 7.02696 1.80275C6.96337 1.7243 6.9333 1.62393 6.94329 1.52345C6.95327 1.42296 7.00251 1.33048 7.08029 1.26608C7.18696 1.17941 8.23696 0.399414 11.9936 0.399414C15.7503 0.399414 16.8036 1.17608 16.9103 1.26608C16.9716 1.317 17.0159 1.38549 17.0371 1.46233C17.0583 1.53917 17.0555 1.62066 17.0289 1.69583C17.0024 1.771 16.9535 1.83625 16.8888 1.88278C16.8241 1.92931 16.7467 1.95489 16.667 1.95608Z" fill="#4E2583"/>
<path d="M11.9999 4.11968C11.9304 4.11675 11.863 4.09546 11.8044 4.05799C11.7458 4.02051 11.6983 3.96819 11.6665 3.90635L10.2065 1.06635C10.1678 0.975439 10.165 0.873214 10.1987 0.78033C10.2324 0.687445 10.3002 0.610827 10.3882 0.565958C10.4763 0.521089 10.5781 0.511316 10.673 0.538613C10.768 0.56591 10.8491 0.628242 10.8999 0.713012L11.9999 2.87301L13.0965 0.713012C13.1508 0.63637 13.231 0.5819 13.3222 0.559611C13.4134 0.537322 13.5097 0.548712 13.5932 0.591688C13.6767 0.634664 13.7419 0.706339 13.7768 0.79354C13.8117 0.880741 13.814 0.97761 13.7832 1.06635L12.3332 3.90635C12.3012 3.96797 12.2535 4.02011 12.195 4.05755C12.1365 4.09499 12.0692 4.11641 11.9999 4.11968Z" fill="#4E2583"/>
<path d="M11.9999 20.6231C8.51328 20.6231 4.61328 19.6231 4.61328 18.3131L5.42328 5.66643C5.45601 5.09019 5.70543 4.54765 6.12151 4.14764C6.53758 3.74764 7.08953 3.51977 7.66661 3.50977H16.3333C16.9086 3.52226 17.4581 3.75124 17.8721 4.15099C18.286 4.55074 18.534 5.09188 18.5666 5.66643L19.3833 18.2831C19.3833 19.6331 15.4833 20.6231 11.9999 20.6231ZM7.66661 4.28977C7.28574 4.2977 6.92202 4.44963 6.64866 4.71495C6.37529 4.98027 6.21258 5.3393 6.19328 5.71977L5.38328 18.3331C5.52661 18.7664 8.16995 19.8398 11.9933 19.8398C15.8166 19.8398 18.4633 18.7664 18.6066 18.2931L17.7899 5.71977C17.7709 5.3421 17.6105 4.9854 17.3407 4.72049C17.0708 4.45559 16.7112 4.30183 16.3333 4.28977H7.66661Z" fill="#4E2583"/>
<path d="M4.21666 23.733C4.13052 23.7334 4.04691 23.704 3.98 23.6497C3.93927 23.619 3.9051 23.5804 3.87948 23.5363C3.85386 23.4922 3.8373 23.4434 3.83078 23.3928C3.82426 23.3422 3.82791 23.2908 3.84151 23.2416C3.85511 23.1924 3.8784 23.1464 3.91 23.1064L6.63333 19.6064C6.66257 19.5607 6.701 19.5217 6.74617 19.4917C6.79133 19.4618 6.84225 19.4416 6.89567 19.4324C6.94908 19.4232 7.00383 19.4253 7.05641 19.4384C7.10898 19.4516 7.15824 19.4756 7.20104 19.5088C7.24383 19.5421 7.27922 19.5839 7.30496 19.6316C7.33069 19.6793 7.3462 19.7318 7.35049 19.7859C7.35478 19.8399 7.34777 19.8942 7.32989 19.9454C7.31201 19.9966 7.28367 20.0434 7.24666 20.083L4.52333 23.583C4.48728 23.63 4.44082 23.668 4.38762 23.6941C4.33441 23.7201 4.27589 23.7334 4.21666 23.733Z" fill="#4E2583"/>
<path d="M19.7732 23.733C19.714 23.7334 19.6555 23.7201 19.6023 23.6941C19.5491 23.668 19.5026 23.63 19.4666 23.583L16.7432 20.083C16.7062 20.0434 16.6779 19.9966 16.66 19.9454C16.6421 19.8942 16.6351 19.8399 16.6394 19.7859C16.6437 19.7318 16.6592 19.6793 16.6849 19.6316C16.7107 19.5839 16.7461 19.5421 16.7889 19.5088C16.8317 19.4756 16.8809 19.4516 16.9335 19.4384C16.9861 19.4253 17.0408 19.4232 17.0942 19.4324C17.1476 19.4416 17.1986 19.4618 17.2437 19.4917C17.2889 19.5217 17.3273 19.5607 17.3566 19.6064L20.0799 23.1064C20.1137 23.1475 20.1386 23.1952 20.1529 23.2464C20.1673 23.2977 20.1708 23.3513 20.1633 23.404C20.1557 23.4567 20.1373 23.5072 20.1092 23.5524C20.0811 23.5975 20.0439 23.6364 19.9999 23.6664C19.9336 23.7126 19.854 23.7359 19.7732 23.733Z" fill="#4E2583"/>
<path d="M17.8268 21.3994H6.0935C6.03948 21.4044 5.98501 21.3981 5.93356 21.3809C5.88212 21.3636 5.83485 21.3359 5.79475 21.2993C5.75466 21.2628 5.72263 21.2183 5.70071 21.1686C5.6788 21.119 5.66748 21.0653 5.66748 21.0111C5.66748 20.9568 5.6788 20.9032 5.70071 20.8536C5.72263 20.8039 5.75466 20.7594 5.79475 20.7229C5.83485 20.6863 5.88212 20.6585 5.93356 20.6413C5.98501 20.6241 6.03948 20.6178 6.0935 20.6228H17.8268C17.8808 20.6178 17.9353 20.6241 17.9868 20.6413C18.0382 20.6585 18.0855 20.6863 18.1256 20.7229C18.1657 20.7594 18.1977 20.8039 18.2196 20.8536C18.2415 20.9032 18.2528 20.9568 18.2528 21.0111C18.2528 21.0653 18.2415 21.119 18.2196 21.1686C18.1977 21.2183 18.1657 21.2628 18.1256 21.2993C18.0855 21.3359 18.0382 21.3636 17.9868 21.3809C17.9353 21.3981 17.8808 21.4044 17.8268 21.3994Z" fill="#4E2583"/>
<path d="M18.9999 22.9568H4.99986C4.89643 22.9568 4.79723 22.9157 4.72409 22.8425C4.65095 22.7694 4.60986 22.6702 4.60986 22.5668C4.60986 22.4633 4.65095 22.3641 4.72409 22.291C4.79723 22.2178 4.89643 22.1768 4.99986 22.1768H18.9999C19.1033 22.1768 19.2025 22.2178 19.2756 22.291C19.3488 22.3641 19.3899 22.4633 19.3899 22.5668C19.3899 22.6702 19.3488 22.7694 19.2756 22.8425C19.2025 22.9157 19.1033 22.9568 18.9999 22.9568Z" fill="#4E2583"/>
<path d="M7.71682 17.5098C7.4088 17.5098 7.1077 17.4184 6.85164 17.2472C6.59557 17.076 6.39605 16.8327 6.27833 16.5481C6.16061 16.2635 6.12998 15.9503 6.19031 15.6482C6.25065 15.3462 6.39924 15.0688 6.61727 14.8512C6.83531 14.6337 7.11299 14.4857 7.41518 14.426C7.71736 14.3663 8.03046 14.3976 8.31484 14.5159C8.59923 14.6343 8.84212 14.8343 9.01276 15.0907C9.18341 15.3472 9.27415 15.6485 9.27349 15.9565C9.2726 16.3688 9.10821 16.7638 8.81637 17.0551C8.52454 17.3463 8.1291 17.5098 7.71682 17.5098ZM7.71682 15.1765C7.56241 15.1758 7.41128 15.221 7.28257 15.3063C7.15386 15.3916 7.05337 15.5132 6.99382 15.6557C6.93427 15.7981 6.91835 15.9551 6.94807 16.1066C6.97779 16.2581 7.05181 16.3974 7.16076 16.5068C7.26971 16.6163 7.40869 16.6909 7.56009 16.7212C7.71148 16.7516 7.86848 16.7364 8.0112 16.6774C8.15393 16.6185 8.27594 16.5185 8.3618 16.3902C8.44765 16.2618 8.49349 16.1109 8.49349 15.9565C8.49393 15.8542 8.47416 15.7529 8.43533 15.6582C8.39649 15.5636 8.33935 15.4776 8.26719 15.4051C8.19502 15.3327 8.10926 15.2752 8.01481 15.2359C7.92036 15.1967 7.81909 15.1765 7.71682 15.1765Z" fill="#4E2583"/>
<path d="M16.2734 17.5098C15.9652 17.5105 15.6638 17.4197 15.4073 17.2489C15.1508 17.0781 14.9507 16.835 14.8325 16.5504C14.7143 16.2658 14.6832 15.9526 14.7431 15.6503C14.8031 15.348 14.9514 15.0703 15.1693 14.8524C15.3872 14.6345 15.6649 14.4862 15.9672 14.4262C16.2694 14.3663 16.5827 14.3974 16.8673 14.5156C17.1519 14.6338 17.395 14.8339 17.5658 15.0904C17.7365 15.3469 17.8274 15.6483 17.8267 15.9565C17.8258 16.3682 17.6619 16.7628 17.3708 17.0539C17.0797 17.345 16.6851 17.5089 16.2734 17.5098ZM16.2734 15.1765C16.119 15.1758 15.9678 15.221 15.8391 15.3063C15.7104 15.3916 15.6099 15.5132 15.5504 15.6557C15.4908 15.7981 15.4749 15.9551 15.5046 16.1066C15.5343 16.2581 15.6084 16.3974 15.7173 16.5068C15.8263 16.6163 15.9652 16.6909 16.1166 16.7212C16.268 16.7516 16.425 16.7364 16.5678 16.6774C16.7105 16.6185 16.8325 16.5185 16.9184 16.3902C17.0042 16.2618 17.05 16.1109 17.05 15.9565C17.05 15.7502 16.9683 15.5523 16.8228 15.4061C16.6772 15.2599 16.4797 15.1774 16.2734 15.1765Z" fill="#4E2583"/>
</svg>
