<svg width="24" height="24" viewBox="0 0 24 24" fill="none" xmlns="http://www.w3.org/2000/svg">
<g clip-path="url(#clip0)">
<path d="M15.688 17.6376C15.598 17.6135 15.5022 17.6253 15.4207 17.6705C15.3393 17.7158 15.2786 17.7909 15.2516 17.8801C14.8851 19.219 14.8025 20.6197 15.0091 21.9923C15.0257 22.0991 15.0106 22.2083 14.9658 22.3065C14.921 22.4048 14.8484 22.4877 14.7569 22.5452C13.5722 23.0518 12.297 23.313 11.0084 23.313C9.71983 23.313 8.44464 23.0518 7.25986 22.5452C7.16114 22.4837 7.07986 22.3979 7.02382 22.296C6.96777 22.1941 6.93884 22.0795 6.9398 21.9633V19.2961C6.9398 18.9179 6.65854 18.5105 5.87295 18.5105H5.5044C4.0108 18.5105 2.94394 18.2002 2.85666 17.7346C2.73907 16.5928 2.74557 15.4417 2.87605 14.3013C2.88223 14.2242 2.86401 14.1472 2.82398 14.081C2.78394 14.0149 2.72412 13.963 2.65298 13.9327C2.06432 13.6973 1.49098 13.4252 0.936318 13.1181C0.781139 13.0211 0.684152 12.9241 0.664755 12.8174C0.64306 12.6892 0.670786 12.5575 0.742344 12.4488C2.70148 9.45196 2.87605 8.54998 2.87605 8.4239C3.60346 1.93548 8.83104 1.43115 10.4216 1.43115H10.9745C12.2317 1.44184 13.4767 1.67837 14.6503 2.12945C14.6927 2.1482 14.7386 2.15803 14.785 2.15833C14.8315 2.15864 14.8775 2.14942 14.9202 2.13124C14.9629 2.11306 15.0015 2.0863 15.0334 2.05263C15.0654 2.01896 15.0901 1.97909 15.1061 1.93548C15.1248 1.893 15.1347 1.84712 15.135 1.80069C15.1353 1.75426 15.1261 1.70826 15.1079 1.66553C15.0897 1.6228 15.0629 1.58426 15.0293 1.55229C14.9956 1.52032 14.9557 1.49559 14.9121 1.47964C13.6553 0.994333 12.3217 0.73812 10.9745 0.723145L10.4216 0.723145C8.69526 0.723145 2.97304 1.27597 2.13895 8.35601C2.13895 8.35601 2.01287 9.19009 0.199218 12.0512C0.0223015 12.3199 -0.0469504 12.6454 0.00524479 12.9629C0.0475258 13.1277 0.124864 13.2815 0.231985 13.4137C0.339105 13.5459 0.473486 13.6535 0.62596 13.7291C1.13081 14.0123 1.65225 14.2649 2.18745 14.4856C2.05578 15.6133 2.05578 16.7524 2.18745 17.8801C2.41052 19.0536 4.36965 19.2282 5.52379 19.2282H5.89234C6.02037 19.2132 6.14978 19.2405 6.26089 19.3058V21.9536C6.25882 22.1924 6.31844 22.4276 6.43398 22.6366C6.54952 22.8456 6.71707 23.0213 6.9204 23.1465C8.19833 23.7599 9.60642 24.0528 11.0229 24C12.4322 24.0527 13.8332 23.7632 15.1061 23.1562C15.322 23.029 15.4948 22.8399 15.602 22.6134C15.7093 22.3868 15.746 22.1333 15.7074 21.8857C15.5119 20.6136 15.5879 19.3146 15.9305 18.0741C15.9546 17.9841 15.9428 17.8882 15.8976 17.8068C15.8523 17.7253 15.7772 17.6647 15.688 17.6376Z" fill="#4E2583"/>
<path d="M16.6092 15.7175H9.71339L11.4495 13.0503C11.4809 12.994 11.4974 12.9306 11.4974 12.8661C11.4974 12.8016 11.4809 12.7381 11.4495 12.6818C10.8216 11.5503 10.5834 10.2436 10.7715 8.96331C10.9597 7.683 11.5637 6.50014 12.4906 5.59709C13.4175 4.69405 14.6157 4.12097 15.9005 3.96621C17.1852 3.81146 18.4852 4.08363 19.6 4.74075C20.7148 5.39787 21.5825 6.40346 22.0693 7.60247C22.5561 8.80148 22.635 10.1273 22.2937 11.3756C21.9525 12.6238 21.2102 13.7252 20.1811 14.5098C19.1521 15.2945 17.8935 15.7188 16.5995 15.7175H16.6092ZM16.5995 3.22559C15.4687 3.22511 14.3568 3.51538 13.3706 4.06852C12.3843 4.62165 11.5569 5.41907 10.9677 6.3842C10.3785 7.34933 10.0473 8.44973 10.006 9.57974C9.96467 10.7098 10.2146 11.8314 10.7318 12.837L8.79202 15.8824C8.75849 15.9362 8.74072 15.9984 8.74072 16.0618C8.74072 16.1252 8.75849 16.1874 8.79202 16.2412C8.82286 16.2966 8.86783 16.3428 8.92234 16.3752C8.97686 16.4076 9.03898 16.4249 9.10238 16.4255H16.6479C18.3546 16.3601 19.9695 15.6361 21.1538 14.4055C22.3381 13.1749 22.9997 11.5334 22.9997 9.82554C22.9997 8.11765 22.3381 6.47616 21.1538 5.24558C19.9695 4.015 18.3546 3.29102 16.6479 3.22559" fill="#4E2583"/>
</g>
<defs>
<clipPath id="clip0">
<rect width="23.43" height="24" fill="white"/>
</clipPath>
</defs>
</svg>
