<svg width="24" height="24" viewBox="0 0 24 24" fill="none" xmlns="http://www.w3.org/2000/svg">
<path d="M23.0908 1.58337L18.9708 5.74337C18.9247 5.79217 18.8688 5.83074 18.8067 5.85658C18.7447 5.88242 18.678 5.89495 18.6108 5.89337H13.7408C13.6668 5.90825 13.5904 5.90651 13.5172 5.88827C13.4439 5.87004 13.3756 5.83577 13.3172 5.78793C13.2588 5.74009 13.2117 5.67989 13.1794 5.61166C13.1471 5.54342 13.1303 5.46887 13.1303 5.39337C13.1303 5.31787 13.1471 5.24332 13.1794 5.17509C13.2117 5.10686 13.2588 5.04665 13.3172 4.99881C13.3756 4.95098 13.4439 4.9167 13.5172 4.89847C13.5904 4.88024 13.6668 4.87849 13.7408 4.89337H17.8508C18.0134 4.89441 18.1745 4.86211 18.3241 4.79848C18.4738 4.73484 18.6088 4.64121 18.7208 4.52337L22.3708 0.873372C22.4664 0.77811 22.5959 0.72462 22.7308 0.72462C22.8658 0.72462 22.9952 0.77811 23.0908 0.873372C23.1389 0.918017 23.177 0.972222 23.2029 1.0325C23.2287 1.09278 23.2416 1.1578 23.2408 1.22337C23.2424 1.29053 23.2299 1.35728 23.204 1.41929C23.1782 1.48131 23.1396 1.5372 23.0908 1.58337ZM20.3608 12.1634C20.0289 13.5415 19.339 14.8075 18.3608 15.8334C18.1291 15.6599 17.873 15.5218 17.6008 15.4234C18.5228 14.5121 19.1737 13.3628 19.4808 12.1034C19.8582 10.216 19.5005 8.2558 18.4808 6.62337H18.6408C18.9454 6.62751 19.2396 6.51271 19.4608 6.30337C20.4938 8.07079 20.8492 10.1534 20.4608 12.1634H20.3608ZM16.4608 21.3234H5.26083C4.08707 21.2684 2.97959 20.7635 2.16837 19.9134C1.35715 19.0633 0.904543 17.9334 0.904543 16.7584C0.904543 15.5833 1.35715 14.4534 2.16837 13.6034C2.97959 12.7533 4.08707 12.2483 5.26083 12.1934C5.82176 12.1965 6.37745 12.3015 6.90083 12.5034H6.97083L17.2408 16.0534C17.843 16.2633 18.351 16.6803 18.6742 17.23C18.9975 17.7797 19.1149 18.4263 19.0056 19.0546C18.8963 19.6829 18.5673 20.2519 18.0774 20.6601C17.5875 21.0683 16.9685 21.2892 16.3308 21.2834L16.4608 21.3234ZM17.2208 22.3934C17.2208 22.5853 17.1453 22.7694 17.0106 22.9061C16.8758 23.0427 16.6927 23.1207 16.5008 23.1234H15.6808C15.4872 23.1234 15.3015 23.0465 15.1646 22.9096C15.0277 22.7727 14.9508 22.587 14.9508 22.3934V22.0134H16.3708C16.6713 22.0099 16.9702 21.9696 17.2608 21.8934L17.2208 22.3934ZM6.02083 22.3934C6.02083 22.4892 6.00194 22.5842 5.96526 22.6727C5.92857 22.7613 5.8748 22.8418 5.80701 22.9096C5.73923 22.9773 5.65875 23.0311 5.57019 23.0678C5.48162 23.1045 5.38669 23.1234 5.29083 23.1234H4.52083C4.32722 23.1234 4.14154 23.0465 4.00464 22.9096C3.86774 22.7727 3.79083 22.587 3.79083 22.3934V21.7934C4.26755 21.9377 4.76274 22.0118 5.26083 22.0134H6.06083L6.02083 22.3934ZM3.47083 8.52337H4.69083L5.60083 11.5234H5.26083C4.97237 11.5247 4.68459 11.5515 4.40083 11.6034L3.47083 8.52337ZM0.970826 7.79337C1.05129 7.48164 1.2339 7.20587 1.48949 7.0101C1.74508 6.81433 2.0589 6.70986 2.38083 6.71337H5.97083C6.29446 6.7076 6.61059 6.81103 6.86822 7.00698C7.12585 7.20293 7.30996 7.47996 7.39083 7.79337H0.970826ZM23.9708 1.22337C23.9709 1.06182 23.9391 0.901838 23.8774 0.752562C23.8156 0.603285 23.725 0.46764 23.6108 0.353372C23.3759 0.126685 23.0623 0 22.7358 0C22.4094 0 22.0957 0.126685 21.8608 0.353372L18.2108 4.00337C18.1643 4.05169 18.1083 4.08993 18.0464 4.11573C17.9845 4.14153 17.9179 4.15434 17.8508 4.15337H13.7408C13.5693 4.13792 13.3964 4.15837 13.2333 4.21341C13.0701 4.26846 12.9201 4.35689 12.793 4.47307C12.6659 4.58926 12.5644 4.73065 12.4949 4.88824C12.4255 5.04583 12.3896 5.21615 12.3896 5.38837C12.3896 5.56059 12.4255 5.73092 12.4949 5.88851C12.5644 6.04609 12.6659 6.18748 12.793 6.30367C12.9201 6.41986 13.0701 6.50829 13.2333 6.56333C13.3964 6.61837 13.5693 6.63882 13.7408 6.62337H17.5708C18.1089 7.38646 18.4902 8.2487 18.6928 9.16016C18.8953 10.0716 18.915 11.0142 18.7508 11.9334C18.4405 13.1765 17.7648 14.298 16.8108 15.1534L7.15083 11.8134C6.91844 11.7296 6.68137 11.6595 6.44083 11.6034L5.45083 8.52337H7.80083C7.89896 8.52337 7.99307 8.48439 8.06246 8.415C8.13184 8.34561 8.17083 8.2515 8.17083 8.15337C8.16822 7.86755 8.10917 7.58506 7.99707 7.32212C7.88497 7.05919 7.72203 6.82099 7.5176 6.62121C7.31318 6.42143 7.07129 6.264 6.80585 6.15798C6.54041 6.05195 6.25663 5.99941 5.97083 6.00337H2.38083C1.80875 6.00335 1.25982 6.22922 0.853432 6.63186C0.447048 7.0345 0.216099 7.58132 0.210826 8.15337C0.210826 8.2515 0.249808 8.34561 0.319197 8.415C0.388585 8.48439 0.482696 8.52337 0.580826 8.52337H2.71083L3.71083 11.7034C2.68925 12.0229 1.78863 12.6448 1.12795 13.487C0.467268 14.3291 0.0776035 15.3519 0.0104299 16.4202C-0.0567437 17.4885 0.201734 18.552 0.751719 19.4703C1.3017 20.3885 2.11732 21.1184 3.09083 21.5634V22.4334C3.09083 22.6251 3.12859 22.815 3.20196 22.9921C3.27533 23.1692 3.38288 23.3302 3.51845 23.4657C3.65402 23.6013 3.81497 23.7089 3.99211 23.7822C4.16924 23.8556 4.3591 23.8934 4.55083 23.8934H5.36083C5.55256 23.8934 5.74241 23.8556 5.91954 23.7822C6.09668 23.7089 6.25763 23.6013 6.3932 23.4657C6.52878 23.3302 6.63632 23.1692 6.70969 22.9921C6.78306 22.815 6.82083 22.6251 6.82083 22.4334V22.0534H14.2908V22.4334C14.2934 22.8198 14.4481 23.1896 14.7213 23.4629C14.9946 23.7361 15.3644 23.8908 15.7508 23.8934H16.5708C16.9475 23.8779 17.3037 23.7172 17.5646 23.4451C17.8256 23.173 17.9711 22.8104 17.9708 22.4334V21.6434C18.515 21.353 18.9705 20.9209 19.2892 20.3928C19.6078 19.8646 19.7777 19.2602 19.7808 18.6434C19.7764 17.7886 19.4559 16.9658 18.8808 16.3334C19.9435 15.2142 20.692 13.8344 21.0508 12.3334C21.5182 10.0885 21.1332 7.74997 19.9708 5.77337L23.6108 2.10337C23.7262 1.98792 23.8175 1.85065 23.8793 1.69956C23.9411 1.54848 23.9722 1.3866 23.9708 1.22337Z" fill="#4E2583"/>
<path d="M6.49084 17.5736L5.49084 16.5136C5.45739 16.48 5.41765 16.4534 5.37389 16.4352C5.33014 16.4171 5.28322 16.4077 5.23584 16.4077C5.18846 16.4077 5.14154 16.4171 5.09778 16.4352C5.05403 16.4534 5.01428 16.48 4.98084 16.5136C4.92161 16.5809 4.88812 16.6671 4.88629 16.7568C4.88446 16.8464 4.91441 16.9339 4.97084 17.0036L5.97084 18.0636C5.76051 18.1725 5.52765 18.2307 5.29084 18.2336C4.9663 18.2317 4.65166 18.1217 4.39662 17.921C4.14158 17.7202 3.96068 17.4403 3.8825 17.1253C3.80433 16.8103 3.83333 16.4783 3.96493 16.1816C4.09653 15.8849 4.32322 15.6406 4.6092 15.4871C4.89517 15.3337 5.22412 15.2799 5.54408 15.3342C5.86404 15.3886 6.15676 15.548 6.376 15.7873C6.59524 16.0266 6.72851 16.3321 6.75474 16.6556C6.78096 16.9791 6.69867 17.3021 6.52084 17.5736H6.49084ZM11.5708 19.2236H7.97084L6.97084 18.1336C7.27177 17.7369 7.42922 17.2498 7.41745 16.752C7.40568 16.2542 7.22539 15.7751 6.90604 15.3931C6.58669 15.011 6.14718 14.7486 5.65936 14.6487C5.17154 14.5488 4.66427 14.6174 4.22046 14.8432C3.77666 15.069 3.42258 15.4387 3.21611 15.8918C3.00964 16.3449 2.96299 16.8547 3.08379 17.3377C3.20459 17.8208 3.48569 18.2486 3.88114 18.5512C4.27659 18.8538 4.76299 19.0133 5.26084 19.0036C5.67963 19.0027 6.08929 18.8812 6.44084 18.6536L7.53084 19.8736C7.56479 19.9116 7.60642 19.9419 7.65296 19.9626C7.6995 19.9833 7.74991 19.9938 7.80084 19.9936H11.5408C11.6373 19.9936 11.7299 19.956 11.799 19.8888C11.8681 19.8215 11.9082 19.73 11.9108 19.6336C11.9083 19.5363 11.8685 19.4436 11.7997 19.3748C11.7308 19.3059 11.6382 19.2661 11.5408 19.2636" fill="#4E2583"/>
</svg>
