<svg width="24" height="24" viewBox="0 0 24 24" fill="none" xmlns="http://www.w3.org/2000/svg">
<g clip-path="url(#clip0)">
<path d="M10.5026 18.2001C10.5086 18.8337 10.3572 19.4589 10.0621 20.0196C9.76701 20.5803 9.33741 21.059 8.81182 21.4129C8.28622 21.7667 7.68104 21.9847 7.05051 22.0472C6.41998 22.1097 5.78379 22.0147 5.19897 21.7709C4.61414 21.5271 4.09894 21.142 3.69954 20.6501C3.30014 20.1582 3.02901 19.5749 2.91046 18.9525C2.7919 18.33 2.82962 17.6879 3.02024 17.0836C3.21085 16.4794 3.5484 15.9318 4.00265 15.4901C4.38249 15.1155 4.83516 14.8228 5.33265 14.6301L6.33265 18.3001C6.34921 18.3614 6.38216 18.4171 6.42797 18.4612C6.47377 18.5052 6.5307 18.536 6.59265 18.5501H6.68265C6.77903 18.5519 6.87232 18.516 6.94265 18.4501L9.63265 15.7501C10.2023 16.4355 10.5137 17.2989 10.5126 18.1901L10.5026 18.2001ZM9.11265 15.2501L6.85265 17.5001L6.00265 14.4301C6.22435 14.3948 6.44821 14.3748 6.67265 14.3701C7.563 14.374 8.42476 14.6848 9.11265 15.2501ZM5.22265 11.6501L10.2226 13.0501C10.1944 13.356 10.2607 13.6631 10.4126 13.9301L9.61265 14.7301C9.09194 14.2872 8.47812 13.9672 7.81678 13.7941C7.15545 13.621 6.4636 13.5991 5.79265 13.7301L5.22265 11.6501ZM10.8626 5.4801L11.3126 11.8001C11.0591 11.8583 10.827 11.9865 10.6426 12.1701C10.5839 12.2323 10.5304 12.2992 10.4826 12.3701L5.39265 11.0001L10.8626 5.4801ZM12.1826 13.7101C12.0441 13.8041 11.8771 13.8468 11.7104 13.8309C11.5438 13.8151 11.3878 13.7417 11.2694 13.6233C11.1511 13.5049 11.0776 13.349 11.0618 13.1823C11.046 13.0156 11.0887 12.8487 11.1826 12.7101C11.2494 12.6428 11.3288 12.5896 11.4164 12.5536C11.504 12.5175 11.5979 12.4993 11.6926 12.5001C11.8353 12.4997 11.9749 12.5418 12.0936 12.6209C12.2123 12.7 12.3049 12.8125 12.3595 12.9443C12.4142 13.0761 12.4284 13.2211 12.4005 13.361C12.3726 13.5009 12.3037 13.6294 12.2026 13.7301L12.1826 13.7101ZM14.4126 5.0001C15.1335 4.28482 16.1072 3.88242 17.1227 3.8801C17.9232 3.87735 18.7045 4.12486 19.3575 4.58801C20.0104 5.05116 20.5023 5.7068 20.7643 6.46323C21.0263 7.21967 21.0454 8.03908 20.8188 8.80687C20.5923 9.57467 20.1314 10.2525 19.5007 10.7455C18.87 11.2385 18.101 11.522 17.3012 11.5565C16.5014 11.591 15.7108 11.3746 15.04 10.9377C14.3693 10.5008 13.8518 9.86519 13.56 9.11974C13.2682 8.37428 13.2167 7.55627 13.4126 6.7801C14.5526 7.40241 15.7849 7.83793 17.0626 8.0701H17.1227C17.2086 8.0713 17.2921 8.04171 17.3581 7.98669C17.4242 7.93167 17.4683 7.85484 17.4826 7.7701C17.497 7.67333 17.4724 7.57482 17.4143 7.49611C17.3562 7.4174 17.2693 7.3649 17.1726 7.3501C15.9427 7.11042 14.7582 6.67846 13.6626 6.0701C13.8534 5.67537 14.1067 5.31404 14.4126 5.0001ZM10.9426 14.4001C11.1609 14.5385 11.4142 14.6114 11.6726 14.6101C11.8595 14.6083 12.0441 14.5693 12.2158 14.4955C12.3875 14.4217 12.5428 14.3145 12.6726 14.1801C12.7374 14.1207 12.7945 14.0535 12.8426 13.9801L13.6326 14.2601H13.7526C13.8502 14.2582 13.9433 14.2188 14.0126 14.1501L14.9526 13.2101C14.9862 13.1767 15.0128 13.1369 15.031 13.0932C15.0492 13.0494 15.0585 13.0025 15.0585 12.9551C15.0585 12.9077 15.0492 12.8608 15.031 12.817C15.0128 12.7733 14.9862 12.7335 14.9526 12.7001C14.9199 12.6653 14.8804 12.6375 14.8366 12.6186C14.7927 12.5996 14.7454 12.5898 14.6976 12.5898C14.6499 12.5898 14.6026 12.5996 14.5587 12.6186C14.5149 12.6375 14.4754 12.6653 14.4426 12.7001L13.6626 13.4801L13.0826 13.2701C13.1049 13.0584 13.0797 12.8444 13.0088 12.6437C12.9378 12.4431 12.823 12.2607 12.6726 12.1101C12.4784 11.9529 12.2482 11.8464 12.0026 11.8001L11.6026 5.5801C11.9667 5.89611 12.3545 6.18363 12.7626 6.4401C12.4787 7.58224 12.6473 8.78996 13.2332 9.81065C13.8192 10.8313 14.7771 11.586 15.9066 11.9167C17.0361 12.2474 18.2497 12.1286 19.2936 11.5851C20.3375 11.0416 21.1309 10.1156 21.5078 9.00064C21.8847 7.88569 21.8159 6.66821 21.3158 5.60282C20.8157 4.53743 19.9231 3.70664 18.8246 3.28423C17.7261 2.86181 16.5068 2.88048 15.4217 3.33633C14.3367 3.79218 13.4699 4.6499 13.0026 5.7301C11.4825 4.79914 10.3605 3.33876 9.85265 1.6301L10.5426 1.0001C10.7083 0.841782 10.9285 0.753429 11.1576 0.753429C11.3868 0.753429 11.607 0.841782 11.7726 1.0001C11.9363 1.16494 12.0281 1.38781 12.0281 1.6201C12.0281 1.85239 11.9363 2.07525 11.7726 2.2401C11.7391 2.27354 11.7125 2.31328 11.6943 2.35704C11.6761 2.4008 11.6668 2.44772 11.6668 2.4951C11.6668 2.54248 11.6761 2.58939 11.6943 2.63315C11.7125 2.67691 11.7391 2.71665 11.7726 2.7501C11.8419 2.81849 11.9353 2.85685 12.0326 2.85685C12.13 2.85685 12.2234 2.81849 12.2926 2.7501C12.5228 2.52747 12.6809 2.2409 12.7465 1.92744C12.812 1.61399 12.782 1.28808 12.6603 0.991883C12.5385 0.695684 12.3307 0.442821 12.0638 0.266006C11.7968 0.0891914 11.4829 -0.00343914 11.1626 9.76293e-05C10.9479 -0.00185418 10.7348 0.0386639 10.5357 0.119323C10.3367 0.199982 10.1555 0.319191 10.0026 0.470098L7.61265 2.8901C7.57784 2.92283 7.5501 2.96233 7.53113 3.00619C7.51217 3.05004 7.50239 3.09732 7.50239 3.1451C7.50239 3.19288 7.51217 3.24015 7.53113 3.28401C7.5501 3.32786 7.57784 3.36737 7.61265 3.4001C7.6783 3.46818 7.7681 3.50769 7.86265 3.5101C7.91116 3.51023 7.9592 3.50055 8.00388 3.48165C8.04856 3.46274 8.08896 3.43501 8.12265 3.4001L9.31265 2.2201C9.61315 3.1036 10.0742 3.92403 10.6726 4.6401L4.59265 10.7201L2.74265 10.2101C3.10014 9.90183 3.43438 9.56759 3.74265 9.2101C3.78811 9.13358 3.80448 9.04324 3.78873 8.95564C3.77299 8.86804 3.7262 8.78905 3.65693 8.73316C3.58767 8.67726 3.50058 8.64821 3.41163 8.65132C3.32268 8.65443 3.23784 8.6895 3.17265 8.7501C2.42607 9.73275 1.41745 10.4849 0.262649 10.9201C0.170711 10.948 0.0932188 11.0105 0.0465626 11.0945C-9.36091e-05 11.1785 -0.0122555 11.2773 0.0126492 11.3701C0.0359414 11.4449 0.0823838 11.5104 0.145284 11.5571C0.208185 11.6039 0.284295 11.6294 0.362649 11.6301H0.472649C1.03809 11.4257 1.57044 11.1393 2.05265 10.7801L4.40265 11.4401L5.10265 13.9401C4.32196 14.2271 3.63488 14.7226 3.11609 15.3728C2.59731 16.023 2.26668 16.8029 2.16013 17.6278C2.05359 18.4528 2.17521 19.2911 2.51178 20.0517C2.84834 20.8124 3.38698 21.4662 4.06913 21.9422C4.75128 22.4181 5.55084 22.698 6.38091 22.7513C7.21098 22.8046 8.03978 22.6294 8.77723 22.2447C9.51468 21.8599 10.1326 21.2804 10.5637 20.5691C10.9948 19.8578 11.2227 19.0419 11.2226 18.2101C11.2296 17.127 10.8421 16.0785 10.1326 15.2601L10.9426 14.4001Z" fill="#4E2583"/>
<path d="M23.7329 6.46995C23.6388 6.44544 23.5388 6.45898 23.4545 6.50764C23.3703 6.5563 23.3087 6.63616 23.2829 6.72995L22.0029 11.8499L17.0029 13.8499C16.9497 13.875 16.9026 13.9112 16.8646 13.956C16.8267 14.0009 16.7988 14.0534 16.7829 14.1099L16.1629 16.8299L13.1629 17.0899C13.0915 17.0985 13.0242 17.1277 12.9692 17.1738C12.9141 17.22 12.8737 17.2812 12.8529 17.3499L11.2529 22.6499C11.228 22.7427 11.2401 22.8416 11.2868 22.9256C11.3335 23.0095 11.4109 23.0721 11.5029 23.0999H11.6029C11.6816 23.1009 11.7585 23.0759 11.8217 23.029C11.8849 22.982 11.931 22.9156 11.9529 22.8399L13.4729 17.7799L16.4729 17.5099C16.5496 17.5049 16.6224 17.4747 16.6803 17.4241C16.7381 17.3735 16.7777 17.3053 16.7929 17.2299L17.4329 14.4399L22.4329 12.4399C22.4863 12.4208 22.5342 12.3889 22.5725 12.3471C22.6108 12.3053 22.6384 12.2548 22.6529 12.1999L24.0029 6.90995C24.0245 6.81724 24.0095 6.71979 23.9611 6.63784C23.9126 6.5559 23.8345 6.49577 23.7429 6.46995" fill="#4E2583"/>
</g>
<defs>
<clipPath id="clip0">
<rect width="24" height="24" fill="white"/>
</clipPath>
</defs>
</svg>
