<svg width="24" height="24" viewBox="0 0 24 24" fill="none" xmlns="http://www.w3.org/2000/svg">
<g clip-path="url(#clip0)">
<path d="M14.9999 14.0805C14.9004 13.7507 14.7173 13.4522 14.4685 13.214C14.2198 12.9757 13.9137 12.8057 13.5799 12.7205L12.9999 12.5805C12.9532 12.5703 12.905 12.5694 12.858 12.578C12.8111 12.5866 12.7663 12.6044 12.7262 12.6305C12.6862 12.6565 12.6518 12.6903 12.6249 12.7298C12.5981 12.7693 12.5794 12.8137 12.5699 12.8605C12.5596 12.9072 12.5588 12.9554 12.5674 13.0024C12.5759 13.0493 12.5938 13.0941 12.6198 13.1342C12.6459 13.1742 12.6796 13.2086 12.7191 13.2355C12.7586 13.2623 12.8031 13.281 12.8499 13.2905L13.3999 13.4205C13.6124 13.4718 13.8076 13.5784 13.9656 13.7294C14.1237 13.8804 14.239 14.0706 14.2999 14.2805C14.5385 15.1775 14.6562 16.1024 14.6499 17.0305V23.0305L11.9999 21.2205C11.9226 21.1714 11.8309 21.1502 11.7399 21.1605C10.3939 21.3753 9.0329 21.4823 7.66988 21.4805C5.76107 21.495 3.85744 21.2801 1.99988 20.8405C1.78981 20.7874 1.59683 20.6814 1.4393 20.5326C1.28177 20.3838 1.16492 20.1972 1.09988 19.9905C0.593453 18.1209 0.593453 16.1502 1.09988 14.2805C1.16258 14.0715 1.27849 13.8824 1.43626 13.7316C1.59403 13.5809 1.78824 13.4737 1.99988 13.4205C3.86069 12.9802 5.76773 12.7653 7.67988 12.7805C7.77536 12.7805 7.86693 12.7426 7.93444 12.6751C8.00195 12.6076 8.03988 12.516 8.03988 12.4205C8.04258 12.3719 8.03566 12.3233 8.01952 12.2773C8.00338 12.2314 7.97833 12.1891 7.94582 12.1529C7.9133 12.1167 7.87396 12.0872 7.83004 12.0662C7.78612 12.0452 7.73849 12.0331 7.68988 12.0305C5.71659 12.0152 3.74878 12.2402 1.82988 12.7005C1.49377 12.7875 1.18609 12.9605 0.937114 13.2025C0.688136 13.4444 0.506434 13.747 0.40988 14.0805C-0.136627 16.0805 -0.136627 18.1905 0.40988 20.1905C0.510881 20.5185 0.694556 20.8149 0.943243 21.0513C1.19193 21.2877 1.49726 21.4562 1.82988 21.5405C3.74878 22.0009 5.71659 22.2259 7.68988 22.2105C9.02933 22.2134 10.3669 22.1098 11.6899 21.9005L14.7699 23.9605C14.8363 24.0095 14.9175 24.0342 14.9999 24.0305C15.0556 24.0449 15.1141 24.0449 15.1699 24.0305C15.2296 24.0009 15.2799 23.9553 15.3152 23.8988C15.3505 23.8423 15.3694 23.7771 15.3699 23.7105V17.0305C15.3746 17.0108 15.3746 16.9902 15.3699 16.9705C15.3794 15.9948 15.2549 15.0224 14.9999 14.0805Z" fill="#4E2583"/>
<path d="M7.10989 15.2406L9.54989 17.1306L7.10989 19.0306V15.2406ZM6.58989 14.1706C6.5276 14.1978 6.47457 14.2425 6.43728 14.2993C6.39998 14.3562 6.38004 14.4226 6.37989 14.4906V19.7706C6.37937 19.84 6.39891 19.908 6.43616 19.9666C6.47342 20.0251 6.52681 20.0717 6.58989 20.1006C6.64273 20.1108 6.69705 20.1108 6.74989 20.1006C6.83869 20.1057 6.92666 20.0811 6.99989 20.0306L10.3899 17.3906C10.4336 17.3559 10.4689 17.3119 10.4932 17.2616C10.5175 17.2114 10.5301 17.1564 10.5301 17.1006C10.5301 17.0448 10.5175 16.9897 10.4932 16.9395C10.4689 16.8893 10.4336 16.8452 10.3899 16.8106L6.99989 14.2106C6.94428 14.1714 6.87792 14.1504 6.80989 14.1504C6.74187 14.1504 6.67551 14.1714 6.61989 14.2106" fill="#4E2583"/>
<path d="M14.89 10.7206V7.27063C17.0389 7.14734 19.1582 6.70934 21.18 5.97063V14.2006C19.3999 12.543 17.24 11.348 14.89 10.7206ZM12.67 10.6606C12.5957 10.6602 12.5228 10.681 12.46 10.7206L9.56995 12.7206V9.79063C9.57487 9.75078 9.57487 9.71048 9.56995 9.67063V5.82063C9.56995 5.53154 9.68479 5.2543 9.8892 5.04988C10.0936 4.84547 10.3709 4.73063 10.66 4.73063H14.17V10.6606H12.67ZM21.18 5.20063C19.1606 5.95425 17.0411 6.40578 14.89 6.54063V4.67063C17.24 4.04326 19.3999 2.84825 21.18 1.19063V5.20063ZM21.7 0.0306304C21.6359 0.00281281 21.5653 -0.0063147 21.4963 0.00430266C21.4273 0.01492 21.3627 0.0448488 21.3099 0.0906304C17.41 3.61063 14.65 4.03063 14.51 4.03063H10.66C10.1832 4.03312 9.72622 4.22158 9.38631 4.55589C9.04639 4.8902 8.85037 5.34398 8.83995 5.82063V13.3606C8.83832 13.4264 8.85529 13.4914 8.88889 13.548C8.9225 13.6046 8.97139 13.6506 9.02995 13.6806C9.08599 13.6925 9.14391 13.6925 9.19995 13.6806C9.27618 13.6839 9.35095 13.659 9.40995 13.6106L12.78 11.3406H14.51C14.66 11.3406 17.4199 11.7406 21.3099 15.2206C21.3751 15.2808 21.4613 15.3131 21.5499 15.3106H21.7C21.763 15.2817 21.8164 15.2352 21.8537 15.1766C21.8909 15.1181 21.9105 15.05 21.91 14.9806V0.39063C21.9166 0.316255 21.9 0.241651 21.8623 0.177151C21.8247 0.112651 21.768 0.0614466 21.7 0.0306304Z" fill="#4E2583"/>
<path d="M23.1699 5.68066C23.1374 5.63997 23.0967 5.60659 23.0504 5.58271C23.0042 5.55883 22.9534 5.54499 22.9014 5.54208C22.8494 5.53917 22.7974 5.54727 22.7487 5.56585C22.7001 5.58442 22.6559 5.61306 22.6191 5.64987C22.5823 5.68669 22.5537 5.73087 22.5351 5.77951C22.5165 5.82815 22.5084 5.88017 22.5113 5.93215C22.5142 5.98414 22.5281 6.03493 22.552 6.0812C22.5758 6.12747 22.6092 6.16817 22.6499 6.20066C22.8482 6.39688 23.0057 6.63048 23.1132 6.88796C23.2206 7.14543 23.276 7.42166 23.276 7.70066C23.276 7.97966 23.2206 8.25589 23.1132 8.51336C23.0057 8.77083 22.8482 9.00444 22.6499 9.20066C22.5815 9.26991 22.5431 9.36332 22.5431 9.46066C22.5431 9.55799 22.5815 9.65141 22.6499 9.72066C22.7213 9.78486 22.8139 9.82047 22.9099 9.82066C23.0063 9.82247 23.0996 9.78659 23.1699 9.72066C23.6951 9.18747 23.9895 8.46908 23.9895 7.72066C23.9895 6.97224 23.6951 6.25385 23.1699 5.72066" fill="#4E2583"/>
</g>
<defs>
<clipPath id="clip0">
<rect width="24" height="24" fill="white"/>
</clipPath>
</defs>
</svg>
