<svg width="24" height="24" viewBox="0 0 24 24" fill="none" xmlns="http://www.w3.org/2000/svg">
<path d="M23.6402 17.1201C23.5437 17.1201 23.4511 17.1577 23.382 17.2249C23.3129 17.2922 23.2728 17.3837 23.2702 17.4801V21.1301H15.5202C15.4238 21.1327 15.3322 21.1729 15.265 21.242C15.1977 21.3111 15.1601 21.4037 15.1602 21.5001C15.1602 21.5956 15.1981 21.6872 15.2656 21.7547C15.3331 21.8222 15.4247 21.8601 15.5202 21.8601H23.6402C23.7356 21.8601 23.8272 21.8222 23.8947 21.7547C23.9622 21.6872 24.0002 21.5956 24.0002 21.5001V17.5001C24.0002 17.4046 23.9622 17.3131 23.8947 17.2456C23.8272 17.178 23.7356 17.1401 23.6402 17.1401" fill="#4E2583"/>
<path d="M0.73 0.73H23.27V3.64H0.73V0.73ZM23.64 0H0.36C0.264522 0 0.172955 0.0379285 0.105442 0.105442C0.0379285 0.172955 0 0.264522 0 0.36L0 10.94C0 11.0355 0.0379285 11.127 0.105442 11.1946C0.172955 11.2621 0.264522 11.3 0.36 11.3C0.456422 11.3 0.549048 11.2624 0.618156 11.1952C0.687265 11.1279 0.727394 11.0364 0.73 10.94V4.36H23.27V8C23.2726 8.09639 23.3127 8.18795 23.3818 8.25519C23.451 8.32243 23.5436 8.36003 23.64 8.36C23.7355 8.36 23.827 8.32207 23.8946 8.25456C23.9621 8.18705 24 8.09548 24 8V0.36C24 0.264522 23.9621 0.172955 23.8946 0.105442C23.827 0.0379285 23.7355 0 23.64 0" fill="#4E2583"/>
<path d="M21.2502 1.91976C21.1862 1.99126 21.1509 2.08383 21.1509 2.17976C21.1509 2.27569 21.1862 2.36825 21.2502 2.43976C21.2838 2.47485 21.3242 2.50277 21.3688 2.52185C21.4135 2.54092 21.4616 2.55076 21.5102 2.55076C21.5588 2.55076 21.6069 2.54092 21.6515 2.52185C21.6962 2.50277 21.7366 2.47485 21.7702 2.43976C21.8038 2.40557 21.83 2.36486 21.8472 2.32013C21.8644 2.27541 21.8722 2.22763 21.8702 2.17976C21.8722 2.13188 21.8644 2.0841 21.8472 2.03938C21.83 1.99466 21.8038 1.95394 21.7702 1.91976C21.6977 1.85779 21.6055 1.82373 21.5102 1.82373C21.4148 1.82373 21.3226 1.85779 21.2502 1.91976Z" fill="#4E2583"/>
<path d="M19.5099 1.81982C19.4144 1.81982 19.3229 1.85775 19.2553 1.92527C19.1878 1.99278 19.1499 2.08435 19.1499 2.17982C19.1499 2.2271 19.1592 2.27391 19.1773 2.31759C19.1954 2.36127 19.2219 2.40095 19.2553 2.43438C19.2888 2.46781 19.3285 2.49433 19.3721 2.51242C19.4158 2.53051 19.4626 2.53982 19.5099 2.53982C19.5572 2.53982 19.604 2.53051 19.6477 2.51242C19.6913 2.49433 19.731 2.46781 19.7645 2.43438C19.7979 2.40095 19.8244 2.36127 19.8425 2.31759C19.8606 2.27391 19.8699 2.2271 19.8699 2.17982C19.8699 2.08435 19.832 1.99278 19.7645 1.92527C19.6969 1.85775 19.6054 1.81982 19.5099 1.81982Z" fill="#4E2583"/>
<path d="M17.2599 1.92004C17.225 1.95373 17.1973 1.99413 17.1784 2.03881C17.1595 2.08349 17.1498 2.13153 17.1499 2.18004C17.151 2.27589 17.1865 2.36816 17.2499 2.44004C17.3192 2.50874 17.4123 2.54812 17.5099 2.55004C17.5584 2.55017 17.6065 2.54049 17.6511 2.52159C17.6958 2.50269 17.7362 2.47495 17.7699 2.44004C17.8035 2.40586 17.8297 2.36514 17.8469 2.32042C17.8641 2.2757 17.8719 2.22792 17.8699 2.18004C17.8719 2.13217 17.8641 2.08439 17.8469 2.03966C17.8297 1.99494 17.8035 1.95423 17.7699 1.92004C17.7 1.8568 17.6091 1.82178 17.5149 1.82178C17.4207 1.82178 17.3298 1.8568 17.2599 1.92004Z" fill="#4E2583"/>
<path d="M13.3398 21.1299H5.93977C5.86864 21.1297 5.79904 21.1506 5.73977 21.1899L3.04977 22.9999V21.4999C3.04724 21.4026 3.00744 21.3099 2.93859 21.2411C2.86975 21.1722 2.7771 21.1324 2.67977 21.1299H0.729766V13.1299H3.36977V15.4599C3.36977 15.5554 3.40769 15.647 3.47521 15.7145C3.54272 15.782 3.63429 15.8199 3.72977 15.8199H7.47977L13.3398 17.8199V21.1299ZM4.08977 10.4299H7.16977V15.0899H4.08977V10.4299ZM16.2098 17.9999L7.89977 15.1899V10.3299L16.2098 7.53991V17.9999ZM18.5498 12.7899C18.5411 13.2791 18.3819 13.7537 18.0938 14.1492C17.8057 14.5446 17.4027 14.8417 16.9398 14.9999V10.5099C17.4083 10.6717 17.815 10.9751 18.1034 11.3783C18.3919 11.7814 18.5479 12.2642 18.5498 12.7599V12.7899ZM16.4598 18.8199H16.5798C16.6557 18.8214 16.7299 18.7967 16.7898 18.7499C16.8361 18.7147 16.8737 18.6694 16.8997 18.6174C16.9257 18.5653 16.9394 18.5081 16.9398 18.4499V15.7599C17.6038 15.587 18.1917 15.1987 18.6114 14.6558C19.0311 14.1129 19.2587 13.4461 19.2587 12.7599C19.2587 12.0737 19.0311 11.4069 18.6114 10.864C18.1917 10.3211 17.6038 9.93279 16.9398 9.75991V6.99991C16.9394 6.94176 16.9257 6.88447 16.8997 6.83246C16.8737 6.78045 16.8361 6.7351 16.7898 6.69991C16.7375 6.67818 16.6814 6.66699 16.6248 6.66699C16.5681 6.66699 16.5121 6.67818 16.4598 6.69991L7.45977 9.69991H3.72977C3.63429 9.69991 3.54272 9.73784 3.47521 9.80535C3.40769 9.87286 3.36977 9.96443 3.36977 10.0599V12.3899H0.369766C0.274288 12.3899 0.18272 12.4278 0.115207 12.4954C0.0476941 12.5629 0.00976563 12.6544 0.00976562 12.7499V21.4999C0.00976563 21.5954 0.0476941 21.687 0.115207 21.7545C0.18272 21.822 0.274288 21.8599 0.369766 21.8599H2.36977V23.6399C2.37034 23.7053 2.38823 23.7693 2.4216 23.8255C2.45498 23.8817 2.50265 23.9281 2.55977 23.9599C2.61546 23.9748 2.67407 23.9748 2.72977 23.9599C2.8009 23.9601 2.87049 23.9392 2.92977 23.8999L6.09977 21.8199H13.6998C13.7952 21.8199 13.8868 21.782 13.9543 21.7145C14.0218 21.647 14.0598 21.5554 14.0598 21.4599V17.9999L16.4598 18.8199Z" fill="#4E2583"/>
<path d="M22.1899 16.12C22.2587 16.182 22.3473 16.2174 22.4399 16.22C22.4892 16.2195 22.5379 16.2085 22.5827 16.1878C22.6275 16.1671 22.6674 16.1372 22.6999 16.1C23.5263 15.1819 23.9835 13.9903 23.9835 12.755C23.9835 11.5197 23.5263 10.3282 22.6999 9.41001C22.6311 9.34459 22.5398 9.30811 22.4449 9.30811C22.3499 9.30811 22.2586 9.34459 22.1899 9.41001C22.1215 9.47926 22.0831 9.57268 22.0831 9.67001C22.0831 9.76734 22.1215 9.86076 22.1899 9.93001C22.9003 10.7092 23.2941 11.7256 23.2941 12.78C23.2941 13.8344 22.9003 14.8508 22.1899 15.63C22.155 15.6627 22.1273 15.7022 22.1083 15.7461C22.0894 15.79 22.0796 15.8372 22.0796 15.885C22.0796 15.9328 22.0894 15.9801 22.1083 16.0239C22.1273 16.0678 22.155 16.1073 22.1899 16.14" fill="#4E2583"/>
<path d="M20.5098 14.7899C20.5719 14.8485 20.6544 14.8808 20.7398 14.8799C20.7928 14.8784 20.8451 14.8661 20.8932 14.8437C20.9413 14.8214 20.9844 14.7894 21.0198 14.7499C21.4759 14.1831 21.7246 13.4774 21.7246 12.7499C21.7246 12.0223 21.4759 11.3166 21.0198 10.7499C20.9533 10.6919 20.8683 10.6595 20.7801 10.6587C20.6919 10.6579 20.6063 10.6886 20.5387 10.7453C20.4711 10.802 20.4261 10.881 20.4116 10.968C20.3971 11.055 20.4142 11.1443 20.4598 11.2199C20.7989 11.6463 20.9835 12.175 20.9835 12.7199C20.9835 13.2647 20.7989 13.7934 20.4598 14.2199C20.4293 14.2565 20.4064 14.2988 20.3924 14.3444C20.3783 14.39 20.3735 14.4379 20.3782 14.4853C20.3828 14.5328 20.3969 14.5788 20.4195 14.6208C20.442 14.6628 20.4728 14.6998 20.5098 14.7299" fill="#4E2583"/>
<path d="M5.63002 11.2998C5.53363 11.3024 5.44207 11.3425 5.37483 11.4116C5.30759 11.4808 5.26998 11.5734 5.27002 11.6698V13.8498C5.27002 13.9453 5.30795 14.0368 5.37546 14.1044C5.44297 14.1719 5.53454 14.2098 5.63002 14.2098C5.72644 14.2098 5.81907 14.1722 5.88818 14.105C5.95728 14.0378 5.99741 13.9462 6.00002 13.8498V11.6698C5.99749 11.5725 5.9577 11.4798 5.88885 11.411C5.82 11.3421 5.72735 11.3023 5.63002 11.2998Z" fill="#4E2583"/>
</svg>
