<svg width="24" height="24" viewBox="0 0 24 24" fill="none" xmlns="http://www.w3.org/2000/svg">
<path d="M9.93832 2.63278C10.8334 2.50074 11.7434 2.50553 12.637 2.64697C14.031 2.86156 15.353 3.40712 16.4916 4.23776C16.5287 4.26479 16.5707 4.28427 16.6152 4.2951C16.6598 4.30594 16.7061 4.3079 16.7514 4.3009C16.7967 4.29389 16.8402 4.27804 16.8794 4.25426C16.9186 4.23047 16.9527 4.19922 16.9798 4.16229C17.0069 4.12535 17.0264 4.08346 17.0373 4.03899C17.0481 3.99453 17.0501 3.94836 17.0431 3.90314C17.036 3.85791 17.0202 3.81451 16.9963 3.77541C16.9725 3.7363 16.9412 3.70227 16.9041 3.67525C15.6761 2.77823 14.2498 2.18924 12.7456 1.95802C11.7822 1.80582 10.8012 1.8006 9.83617 1.94254C9.79075 1.94923 9.74709 1.96478 9.70769 1.98831C9.66829 2.01184 9.63392 2.04288 9.60654 2.07966C9.57917 2.11644 9.55932 2.15824 9.54813 2.20267C9.53695 2.2471 9.53464 2.2933 9.54135 2.33862C9.54806 2.38394 9.56364 2.4275 9.58722 2.46682C9.6108 2.50613 9.64191 2.54042 9.67878 2.56773C9.71564 2.59505 9.75753 2.61485 9.80207 2.62601C9.8466 2.63717 9.8929 2.63947 9.93832 2.63278Z" fill="#4E2583"/>
<path d="M4.47753 5.65907C4.53772 5.58875 4.56745 5.49746 4.56017 5.40528C4.5529 5.31309 4.50922 5.22757 4.43874 5.16751C4.36826 5.10746 4.27677 5.0778 4.18437 5.08506C4.09198 5.09232 4.00626 5.1359 3.94608 5.20622C2.79692 6.55147 2.04406 8.18825 1.77112 9.93472C1.40517 12.2355 1.89496 14.5904 3.14825 16.5559C3.17981 16.6054 3.22338 16.6461 3.27492 16.6743C3.32646 16.7025 3.38429 16.7172 3.44307 16.7172C3.50953 16.7178 3.57472 16.699 3.63057 16.663C3.66937 16.6387 3.70298 16.6069 3.72945 16.5696C3.75593 16.5323 3.77476 16.4901 3.78485 16.4455C3.79494 16.4009 3.7961 16.3548 3.78827 16.3098C3.78043 16.2647 3.76375 16.2216 3.73918 16.1831C2.72041 14.5811 2.24246 12.6958 2.37532 10.8032C2.50818 8.91057 3.24488 7.11013 4.47753 5.66552" fill="#4E2583"/>
<path d="M20.7331 12.9022C20.7473 12.8108 20.7246 12.7175 20.6699 12.6429C20.6152 12.5682 20.5331 12.5183 20.4415 12.5041C20.3499 12.4899 20.2565 12.5126 20.1817 12.5672C20.1069 12.6217 20.0568 12.7037 20.0426 12.7951C19.8423 14.0605 19.37 15.2677 18.6581 16.334C17.9463 17.4002 17.0117 18.3001 15.9185 18.9721C14.8253 19.6441 13.5993 20.0722 12.3247 20.227C11.0501 20.3818 9.75705 20.2598 8.53419 19.8691C8.49054 19.8551 8.44455 19.8497 8.39884 19.8534C8.35313 19.8571 8.30859 19.8697 8.26776 19.8905C8.22694 19.9114 8.19063 19.94 8.16091 19.9749C8.13118 20.0097 8.10863 20.0501 8.09454 20.0936C8.08044 20.1372 8.07508 20.183 8.07876 20.2287C8.08244 20.2743 8.09509 20.3187 8.11598 20.3594C8.13688 20.4002 8.1656 20.4364 8.20053 20.4661C8.23546 20.4957 8.27589 20.5182 8.31953 20.5323C9.27528 20.8365 10.2723 20.9918 11.2755 20.9929C13.5587 20.9868 15.765 20.1689 17.4983 18.6861C19.2316 17.2033 20.3785 15.1526 20.7331 12.9022Z" fill="#4E2583"/>
<path d="M13.9508 0.00915486C13.8606 -0.011889 13.7657 0.0036784 13.687 0.0524324C13.6083 0.101186 13.5522 0.179133 13.5311 0.269126C13.5101 0.359118 13.5257 0.453784 13.5745 0.532299C13.6234 0.610813 13.7015 0.666745 13.7917 0.687789C19.383 1.99861 23.0618 7.4651 22.1657 13.1328C22.1585 13.1781 22.1603 13.2243 22.1711 13.2688C22.1818 13.3134 22.2013 13.3554 22.2283 13.3924C22.2553 13.4294 22.2894 13.4608 22.3286 13.4846C22.3678 13.5085 22.4113 13.5244 22.4566 13.5315C22.4752 13.5327 22.4937 13.5327 22.5122 13.5315C22.5953 13.5316 22.6757 13.5019 22.7388 13.448C22.8019 13.394 22.8435 13.3193 22.8562 13.2374C23.8092 7.2148 19.8963 1.40255 13.9508 0.00915486Z" fill="#4E2583"/>
<path d="M0.523604 7.55575C0.564714 7.57218 0.608627 7.58051 0.652912 7.58026C0.723468 7.57945 0.792149 7.55749 0.850031 7.51723C0.907912 7.47696 0.952317 7.42026 0.977475 7.35448C1.92493 4.97189 3.67352 2.99231 5.92351 1.75511C6.00478 1.71063 6.06502 1.63575 6.09097 1.54695C6.11692 1.45816 6.10645 1.36271 6.06186 1.28162C6.01728 1.20052 5.94224 1.14042 5.85324 1.11453C5.76424 1.08864 5.66858 1.09908 5.5873 1.14357C3.19386 2.4607 1.33417 4.56754 0.327056 7.1029C0.293123 7.18897 0.294754 7.28495 0.331592 7.36983C0.368429 7.4547 0.437472 7.52155 0.523604 7.55575Z" fill="#4E2583"/>
<path d="M9.53232 22.3069C9.16509 22.2489 8.79656 22.1779 8.43579 22.0786C6.61853 21.5939 4.95418 20.6573 3.59843 19.3563C2.24269 18.0552 1.23987 16.4323 0.683784 14.6394C0.656691 14.5509 0.595491 14.4768 0.513648 14.4334C0.431804 14.39 0.336021 14.3808 0.247369 14.4078C0.158718 14.4348 0.0844598 14.4959 0.0409312 14.5776C-0.00259748 14.6592 -0.0118311 14.7548 0.0152616 14.8432C0.606856 16.7495 1.67336 18.4749 3.11503 19.858C4.55669 21.2412 6.3264 22.2369 8.25864 22.752C8.64656 22.8527 9.03449 22.9339 9.42241 22.9959C9.4409 22.9978 9.45953 22.9978 9.47801 22.9959C9.5662 22.9962 9.65123 22.9631 9.71602 22.9034C9.7808 22.8437 9.82055 22.7618 9.82726 22.674C9.83397 22.5863 9.80716 22.4993 9.75221 22.4305C9.69726 22.3616 9.61824 22.3161 9.53103 22.303" fill="#4E2583"/>
<path d="M20.3152 17.7282C19.2904 19.1869 17.9288 20.3781 16.3454 21.2013C16.2757 21.2372 16.2201 21.2954 16.1876 21.3666C16.1551 21.4379 16.1476 21.5179 16.1663 21.5939C16.185 21.6699 16.2287 21.7374 16.2906 21.7856C16.3524 21.8337 16.4287 21.8597 16.5071 21.8593C16.563 21.8591 16.618 21.8454 16.6674 21.8193C18.3507 20.944 19.7983 19.6776 20.888 18.1269C20.941 18.0511 20.9617 17.9574 20.9454 17.8664C20.9292 17.7754 20.8774 17.6946 20.8014 17.6418C20.7254 17.5889 20.6315 17.5683 20.5404 17.5845C20.4492 17.6007 20.3682 17.6524 20.3152 17.7282Z" fill="#4E2583"/>
<path d="M9.94755 4.8186C9.06679 5.54014 8.33736 6.42796 7.80104 7.43121L7.57992 7.37444C7.45837 7.3409 7.33682 7.30606 7.21657 7.26994L6.94502 7.1835C6.82606 7.1435 6.7071 7.10092 6.59072 7.05448L6.33598 6.96675L6.23254 6.92288C7.20816 5.83651 8.51258 5.09765 9.94755 4.8186ZM16.2681 6.91643L16.1634 6.96675L15.9048 7.0648C15.7871 7.10738 15.6707 7.14995 15.5505 7.19382L15.2789 7.28026C15.1582 7.31638 15.0367 7.35122 14.9143 7.38476L14.6957 7.44153C14.1605 6.43457 13.431 5.54316 12.5492 4.8186C13.9845 5.09592 15.29 5.83238 16.2681 6.91643ZM12.6591 18.0416C13.5158 17.3256 14.2235 16.4489 14.7423 15.4613C14.7992 15.4755 14.8587 15.4897 14.9156 15.5064C15.0449 15.54 15.1612 15.5761 15.2815 15.6122C15.372 15.6393 15.4625 15.6677 15.5505 15.6974C15.672 15.7374 15.791 15.7799 15.9086 15.8264C15.994 15.8574 16.0793 15.8883 16.1673 15.9219C16.2035 15.9361 16.2371 15.9528 16.272 15.967C15.3184 17.023 14.0533 17.7494 12.6591 18.0416ZM6.22866 15.9606C6.26357 15.9464 6.29719 15.9296 6.3321 15.9167C6.41745 15.8819 6.50408 15.8509 6.59072 15.8187C6.70839 15.7761 6.82735 15.7335 6.94632 15.6896C7.03554 15.66 7.12605 15.6316 7.21657 15.6045C7.33812 15.5671 7.45967 15.5322 7.58251 15.4987L7.81268 15.4381C8.36629 16.4482 9.11313 17.3402 10.0109 18.0636C8.55427 17.7959 7.22721 17.0552 6.23641 15.9567L6.22866 15.9606ZM6.78856 11.7868C6.83255 12.8285 7.07386 13.8525 7.49975 14.8046C7.44156 14.8188 7.38725 14.8381 7.32907 14.8523C7.19976 14.8897 7.07045 14.9258 6.94114 14.9658L6.6502 15.0613C6.52089 15.1052 6.40064 15.1478 6.2765 15.1903C6.18211 15.2265 6.089 15.2639 5.99461 15.3026C5.9222 15.3323 5.8472 15.3593 5.77608 15.389C5.00812 14.3369 4.56619 13.0831 4.50498 11.783L6.78856 11.7868ZM10.8993 7.84407C10.7855 7.84407 10.6717 7.84407 10.5579 7.83504C10.4816 7.83504 10.4066 7.82471 10.3316 7.81955C10.1777 7.81052 10.0238 7.8002 9.87126 7.78601L9.60359 7.75633C9.46523 7.74085 9.32817 7.72537 9.18981 7.70602L8.90921 7.66086C8.7799 7.63893 8.65059 7.617 8.52128 7.59248H8.50835C9.09672 6.55041 9.91417 5.65496 10.8993 4.97342V7.84407ZM13.9768 7.59248C13.8475 7.617 13.7182 7.63893 13.5889 7.66086L13.307 7.70602C13.1699 7.72537 13.0315 7.74085 12.8945 7.75633L12.6268 7.78601C12.4729 7.8002 12.3203 7.81052 12.1665 7.81955C12.0902 7.81955 12.0152 7.83246 11.9389 7.83504C11.8264 7.83504 11.7126 7.83504 11.5988 7.84407V4.97213C12.5844 5.65377 13.403 6.5486 13.9936 7.5899H13.9781L13.9768 7.59248ZM11.5988 15.0316C11.7126 15.0316 11.8277 15.0316 11.9389 15.0394C12.0165 15.0394 12.0915 15.0497 12.1678 15.0549C12.3203 15.0639 12.4742 15.0729 12.6268 15.0884C12.716 15.0962 12.8053 15.1078 12.8958 15.1181C13.0328 15.1336 13.1712 15.1491 13.3083 15.1684C13.4014 15.1813 13.4945 15.1994 13.5889 15.2136C13.7182 15.2355 13.8475 15.2574 13.9768 15.2819L14.0389 15.2948C13.4446 16.3643 12.6087 17.2809 11.5975 17.972L11.5988 15.0316ZM8.51999 15.2819C8.6493 15.2561 8.77861 15.2342 8.90791 15.2136C9.00231 15.1981 9.09412 15.1813 9.18722 15.1684C9.32558 15.1491 9.46265 15.1336 9.6023 15.1181C9.69152 15.1078 9.77945 15.0962 9.86867 15.0884C10.0225 15.0729 10.1764 15.0639 10.3303 15.0549C10.4053 15.0549 10.4803 15.042 10.5553 15.0394C10.6691 15.0394 10.7829 15.0394 10.8967 15.0316V17.87C9.92367 17.1897 9.11088 16.3061 8.51482 15.2806L8.51999 15.2819ZM10.8993 11.7868V14.3414C10.7699 14.3414 10.6406 14.3414 10.5113 14.3504L10.2993 14.3646C10.1234 14.3762 9.94884 14.3866 9.77428 14.4046C9.68505 14.4124 9.59583 14.424 9.5079 14.4356C9.35273 14.4524 9.19886 14.4691 9.04498 14.4911L8.75792 14.5401C8.61309 14.5633 8.46956 14.5878 8.32732 14.6149L8.19801 14.642C7.77693 13.7456 7.53535 12.7757 7.48682 11.7868H10.8993ZM14.1733 14.6136C14.0337 14.5878 13.8927 14.5646 13.7518 14.5414C13.6522 14.5246 13.5539 14.5065 13.4544 14.4911C13.3044 14.4691 13.1544 14.4536 13.0031 14.4356C12.9113 14.4253 12.8195 14.4124 12.7264 14.4046C12.5557 14.3878 12.3837 14.3762 12.2091 14.3659C12.1341 14.3659 12.0604 14.3543 11.9867 14.3504C11.8574 14.3504 11.7281 14.3504 11.5988 14.3414V11.7868H15.0112C14.9738 12.7747 14.7505 13.7468 14.3531 14.6523L14.172 14.6136H14.1733ZM12.2841 8.50593C12.429 8.49561 12.5751 8.48787 12.7199 8.47367C12.8272 8.46335 12.9346 8.44916 13.0432 8.43626C13.1725 8.42078 13.3147 8.40529 13.4492 8.38594C13.5591 8.37046 13.6677 8.35111 13.7751 8.33175C13.9044 8.30982 14.0337 8.28918 14.163 8.26338L14.3104 8.2337C14.7216 9.13515 14.9581 10.1061 15.0074 11.0953H11.5975V8.5356C11.7268 8.5356 11.8561 8.5356 11.9854 8.52528C12.085 8.52528 12.1859 8.51238 12.2854 8.50593H12.2841ZM8.32732 8.26338C8.45663 8.28918 8.59499 8.31111 8.72947 8.33304C8.83421 8.35111 8.93895 8.37046 9.04498 8.38594C9.18463 8.40658 9.32429 8.42207 9.46523 8.43755C9.56738 8.45045 9.67083 8.46335 9.77557 8.47367C9.92557 8.48916 10.0743 8.49561 10.2256 8.50722C10.3212 8.50722 10.4156 8.5227 10.5113 8.52528C10.6406 8.53302 10.7699 8.53302 10.8993 8.5356V11.0953H7.48941C7.53822 10.1083 7.77291 9.13923 8.18121 8.23886L8.32732 8.26854V8.26338ZM16.7323 15.3981C16.6612 15.3684 16.5862 15.3413 16.5125 15.3116C16.4181 15.2742 16.325 15.2355 16.2293 15.1994C16.1078 15.1529 15.9823 15.1103 15.8582 15.0703L15.5647 14.9723C15.4354 14.9336 15.3061 14.8975 15.1768 14.8613L15.0475 14.8239C15.4506 13.8626 15.6753 12.8361 15.7108 11.7946H17.9996C17.9394 13.0967 17.498 14.3527 16.7297 15.4071L16.7323 15.3981ZM15.5569 7.92406L15.8673 7.82084C15.9862 7.77956 16.1039 7.73956 16.2203 7.69183C16.3367 7.64409 16.4207 7.61313 16.5203 7.57184C16.5901 7.54475 16.6612 7.51894 16.7297 7.49056C17.4967 8.54264 17.9382 9.79579 17.9996 11.0953H15.7056C15.6588 10.055 15.4221 9.03191 15.0074 8.0763C15.0694 8.06082 15.1289 8.04146 15.191 8.02469C15.3203 7.99115 15.4367 7.95631 15.5569 7.9189V7.92406ZM5.76832 7.48282C5.83556 7.51249 5.90668 7.537 5.97651 7.56539C6.07478 7.60538 6.17435 7.64538 6.2765 7.68409C6.37865 7.72279 6.51184 7.76924 6.6321 7.8131C6.75235 7.85697 6.83511 7.88277 6.93856 7.91503C7.06786 7.95373 7.18553 7.98857 7.31096 8.02211L7.48941 8.07501C7.07417 9.03092 6.83753 10.0545 6.79115 11.0953H4.49722C4.55756 9.793 4.99951 8.53696 5.76832 7.48282ZM5.3804 16.0393C6.07724 16.9264 6.96777 17.6432 7.9842 18.1351C9.00063 18.6269 10.1161 18.8809 11.2458 18.8777H11.2807H11.3829C12.4891 18.8601 13.5774 18.5961 14.5683 18.105C15.5591 17.6139 16.4275 16.9082 17.1099 16.0393C17.7485 15.2745 18.2268 14.3897 18.5167 13.4372C18.8066 12.4847 18.9021 11.4839 18.7976 10.494C18.6932 9.50405 18.3908 8.54506 17.9084 7.67374C17.426 6.80241 16.7735 6.03644 15.9893 5.42111C15.2051 4.80578 14.3051 4.3536 13.3428 4.09129C12.3804 3.82898 11.375 3.76188 10.3862 3.89395C9.39737 4.02603 8.44511 4.35459 7.58575 4.86022C6.72639 5.36585 5.97737 6.03827 5.38298 6.83773C4.34854 8.14968 3.78613 9.77051 3.78613 11.4398C3.78613 13.1091 4.34854 14.7299 5.38298 16.0419L5.3804 16.0393Z" fill="#4E2583"/>
</svg>
