<svg width="24" height="24" viewBox="0 0 24 24" fill="none" xmlns="http://www.w3.org/2000/svg">
<path d="M6.5 21.917H2.33333V8.55602H6.5V21.917ZM4.41667 6.81328C3.08198 6.81328 2 5.73579 2 4.40664C2 3.07749 3.08198 2 4.41667 2C5.75136 2 6.83333 3.07749 6.83333 4.40664C6.83333 5.04492 6.57872 5.65706 6.12551 6.10839C5.6723 6.55972 5.05761 6.81328 4.41667 6.81328ZM22 21.917H17.8333V15.444C17.8333 13.8672 17.8333 11.9585 15.6667 11.9585C13.5 11.9585 13.1667 13.6183 13.1667 15.361V22H9V8.55602H13V10.4647H13.0833C13.8572 9.04894 15.3844 8.20761 17 8.30705C21.1667 8.30705 22 11.0456 22 14.6141V21.917Z" fill="#4E2583"/>
</svg>
