<svg width="24" height="24" viewBox="0 0 24 24" fill="none" xmlns="http://www.w3.org/2000/svg">
<path fill-rule="evenodd" clip-rule="evenodd" d="M24 5.22326C23.1166 5.60107 22.1678 5.8553 21.1718 5.96998C22.189 5.38327 22.969 4.45432 23.3363 3.34669C22.3856 3.88984 21.3315 4.28453 20.2091 4.49788C19.3109 3.57604 18.0316 3 16.6157 3C13.8964 3 11.6922 5.1237 11.6922 7.74165C11.6922 8.11324 11.7365 8.47593 11.8195 8.82173C7.7277 8.62438 4.10015 6.73625 1.6707 3.86673C1.24795 4.56722 1.00519 5.38149 1.00519 6.25178C1.00519 7.89633 1.87377 9.34799 3.19465 10.1978C2.38791 10.1729 1.62825 9.95958 0.964578 9.60489C0.964578 9.62534 0.964578 9.64401 0.964578 9.66445C0.964578 11.9624 2.66113 13.879 4.91427 14.3137C4.50167 14.4221 4.066 14.4799 3.61648 14.4799C3.29987 14.4799 2.99065 14.4497 2.69067 14.3954C3.31741 16.2791 5.1358 17.6508 7.29018 17.689C5.60563 18.9611 3.48264 19.7194 1.17503 19.7194C0.778124 19.7194 0.385831 19.6971 0 19.6527C2.1793 20.9977 4.76659 21.7826 7.54771 21.7826C16.6046 21.7826 21.5558 14.5572 21.5558 8.29103C21.5558 8.08568 21.5512 7.88122 21.5419 7.67765C22.5047 7.00827 23.34 6.17355 24 5.22326Z" fill="#4E2583"/>
</svg>
