<svg width="24" height="24" viewBox="0 0 24 24" fill="none" xmlns="http://www.w3.org/2000/svg">
<path fill-rule="evenodd" clip-rule="evenodd" d="M12 2.40039C8.136 2.40039 3.12079 3.37285 3.12079 3.37285L3.10817 3.38734C1.3483 3.67005 0 5.18903 0 7.03634V12.5995V16.9626C0.00354761 18.787 1.32489 20.3368 3.11719 20.6207L3.12079 20.6261C3.12079 20.6261 8.136 21.6004 12 21.6004C15.864 21.6004 20.8792 20.6261 20.8792 20.6261C22.6754 20.341 23.9981 18.7889 24 16.9644V12.6013V7.03634C23.9973 5.21313 22.6758 3.66227 20.8828 3.37829C20.8792 3.37285 15.864 2.40039 12 2.40039ZM9.6 7.80039L16.8 12.0004L9.6 16.2004V7.80039Z" fill="#4E2583"/>
</svg>
